<svg viewBox="0 0 330 200" xmlns="http://www.w3.org/2000/svg"><g><g><g><g><g><line x1="30" y1="178" x2="25" y2="178" style="visibility: inherit;" fill="rgb(0, 0, 0)" stroke="rgb(204, 204, 204)" stroke-width="1px"></line><line x1="30" y1="158.22222222222223" x2="25" y2="158.22222222222223" style="visibility: inherit;" fill="rgb(0, 0, 0)" stroke="rgb(204, 204, 204)" stroke-width="1px"></line><line x1="30" y1="138.44444444444446" x2="25" y2="138.44444444444446" style="visibility: inherit;" fill="rgb(0, 0, 0)" stroke="rgb(204, 204, 204)" stroke-width="1px"></line><line x1="30" y1="118.66666666666667" x2="25" y2="118.66666666666667" style="visibility: inherit;" fill="rgb(0, 0, 0)" stroke="rgb(204, 204, 204)" stroke-width="1px"></line><line x1="30" y1="98.8888888888889" x2="25" y2="98.8888888888889" style="visibility: inherit;" fill="rgb(0, 0, 0)" stroke="rgb(204, 204, 204)" stroke-width="1px"></line><line x1="30" y1="79.1111111111111" x2="25" y2="79.1111111111111" style="visibility: inherit;" fill="rgb(0, 0, 0)" stroke="rgb(204, 204, 204)" stroke-width="1px"></line><line x1="30" y1="59.33333333333334" x2="25" y2="59.33333333333334" style="visibility: inherit;" fill="rgb(0, 0, 0)" stroke="rgb(204, 204, 204)" stroke-width="1px"></line><line x1="30" y1="39.55555555555554" x2="25" y2="39.55555555555554" style="visibility: inherit;" fill="rgb(0, 0, 0)" stroke="rgb(204, 204, 204)" stroke-width="1px"></line><line x1="30" y1="19.7777777777778" x2="25" y2="19.7777777777778" style="visibility: inherit;" fill="rgb(0, 0, 0)" stroke="rgb(204, 204, 204)" stroke-width="1px"></line><line x1="30" y1="0" x2="25" y2="0" style="visibility: inherit;" fill="rgb(0, 0, 0)" stroke="rgb(204, 204, 204)" stroke-width="1px"></line></g><g transform="translate(20, 0)"><text x="0" y="178" dx="0em" dy="0.3em" style="text-anchor: end; visibility: hidden; font-family: &quot;Helvetica Neue&quot;, sans-serif; font-size: 12px; font-weight: 200;" fill="rgb(50, 49, 63)" stroke="none" stroke-width="1px">-7</text><text x="0" y="158.22222222222223" dx="0em" dy="0.3em" style="text-anchor: end; visibility: inherit; font-family: &quot;Helvetica Neue&quot;, sans-serif; font-size: 12px; font-weight: 200;" fill="rgb(50, 49, 63)" stroke="none" stroke-width="1px">-6</text><text x="0" y="138.44444444444446" dx="0em" dy="0.3em" style="text-anchor: end; visibility: hidden; font-family: &quot;Helvetica Neue&quot;, sans-serif; font-size: 12px; font-weight: 200;" fill="rgb(50, 49, 63)" stroke="none" stroke-width="1px">-5</text><text x="0" y="118.66666666666667" dx="0em" dy="0.3em" style="text-anchor: end; visibility: inherit; font-family: &quot;Helvetica Neue&quot;, sans-serif; font-size: 12px; font-weight: 200;" fill="rgb(50, 49, 63)" stroke="none" stroke-width="1px">-4</text><text x="0" y="98.8888888888889" dx="0em" dy="0.3em" style="text-anchor: end; visibility: hidden; font-family: &quot;Helvetica Neue&quot;, sans-serif; font-size: 12px; font-weight: 200;" fill="rgb(50, 49, 63)" stroke="none" stroke-width="1px">-3</text><text x="0" y="79.1111111111111" dx="0em" dy="0.3em" style="text-anchor: end; visibility: inherit; font-family: &quot;Helvetica Neue&quot;, sans-serif; font-size: 12px; font-weight: 200;" fill="rgb(50, 49, 63)" stroke="none" stroke-width="1px">-2</text><text x="0" y="59.33333333333334" dx="0em" dy="0.3em" style="text-anchor: end; visibility: hidden; font-family: &quot;Helvetica Neue&quot;, sans-serif; font-size: 12px; font-weight: 200;" fill="rgb(50, 49, 63)" stroke="none" stroke-width="1px">-1</text><text x="0" y="39.55555555555554" dx="0em" dy="0.3em" style="text-anchor: end; visibility: inherit; font-family: &quot;Helvetica Neue&quot;, sans-serif; font-size: 12px; font-weight: 200;" fill="rgb(50, 49, 63)" stroke="none" stroke-width="1px">0</text><text x="0" y="19.7777777777778" dx="0em" dy="0.3em" style="text-anchor: end; visibility: hidden; font-family: &quot;Helvetica Neue&quot;, sans-serif; font-size: 12px; font-weight: 200;" fill="rgb(50, 49, 63)" stroke="none" stroke-width="1px">1</text><text x="0" y="0" dx="0em" dy="0.3em" style="text-anchor: end; visibility: hidden; font-family: &quot;Helvetica Neue&quot;, sans-serif; font-size: 12px; font-weight: 200;" fill="rgb(50, 49, 63)" stroke="none" stroke-width="1px">2</text></g><line x1="30" y1="0" x2="30" y2="178" fill="rgb(0, 0, 0)" stroke="rgb(204, 204, 204)" stroke-width="1px"></line></g></g><g transform="translate(30, 0)" clip-path="url(#clip_0)"><clipPath id="clip_0"><rect width="300" height="178"></rect></clipPath><g><g><g><line x1="0" y1="0" x2="0" y2="178" fill="rgb(0, 0, 0)" stroke="rgb(60, 60, 60)" stroke-width="1px" opacity="0.25"></line><line x1="25" y1="0" x2="25" y2="178" fill="rgb(0, 0, 0)" stroke="rgb(60, 60, 60)" stroke-width="1px" opacity="0.25"></line><line x1="50" y1="0" x2="50" y2="178" fill="rgb(0, 0, 0)" stroke="rgb(60, 60, 60)" stroke-width="1px" opacity="0.25"></line><line x1="75" y1="0" x2="75" y2="178" fill="rgb(0, 0, 0)" stroke="rgb(60, 60, 60)" stroke-width="1px" opacity="0.25"></line><line x1="100" y1="0" x2="100" y2="178" fill="rgb(0, 0, 0)" stroke="rgb(60, 60, 60)" stroke-width="1px" opacity="0.25"></line><line x1="125" y1="0" x2="125" y2="178" fill="rgb(0, 0, 0)" stroke="rgb(60, 60, 60)" stroke-width="1px" opacity="0.25"></line><line x1="150" y1="0" x2="150" y2="178" fill="rgb(0, 0, 0)" stroke="rgb(60, 60, 60)" stroke-width="1px" opacity="0.25"></line><line x1="175" y1="0" x2="175" y2="178" fill="rgb(0, 0, 0)" stroke="rgb(60, 60, 60)" stroke-width="1px" opacity="0.25"></line><line x1="200" y1="0" x2="200" y2="178" fill="rgb(0, 0, 0)" stroke="rgb(60, 60, 60)" stroke-width="1px" opacity="0.25"></line><line x1="225" y1="0" x2="225" y2="178" fill="rgb(0, 0, 0)" stroke="rgb(60, 60, 60)" stroke-width="1px" opacity="0.25"></line><line x1="250" y1="0" x2="250" y2="178" fill="rgb(0, 0, 0)" stroke="rgb(60, 60, 60)" stroke-width="1px" opacity="0.25"></line><line x1="275" y1="0" x2="275" y2="178" fill="rgb(0, 0, 0)" stroke="rgb(60, 60, 60)" stroke-width="1px" opacity="0.25"></line><line x1="300" y1="0" x2="300" y2="178" fill="rgb(0, 0, 0)" stroke="rgb(60, 60, 60)" stroke-width="1px" opacity="0.25"></line></g><g><line x1="0" y1="178" x2="300" y2="178" fill="rgb(0, 0, 0)" stroke="rgb(60, 60, 60)" stroke-width="1px" opacity="0.25"></line><line x1="0" y1="158.22222222222223" x2="300" y2="158.22222222222223" fill="rgb(0, 0, 0)" stroke="rgb(60, 60, 60)" stroke-width="1px" opacity="0.25"></line><line x1="0" y1="138.44444444444446" x2="300" y2="138.44444444444446" fill="rgb(0, 0, 0)" stroke="rgb(60, 60, 60)" stroke-width="1px" opacity="0.25"></line><line x1="0" y1="118.66666666666667" x2="300" y2="118.66666666666667" fill="rgb(0, 0, 0)" stroke="rgb(60, 60, 60)" stroke-width="1px" opacity="0.25"></line><line x1="0" y1="98.8888888888889" x2="300" y2="98.8888888888889" fill="rgb(0, 0, 0)" stroke="rgb(60, 60, 60)" stroke-width="1px" opacity="0.25"></line><line x1="0" y1="79.1111111111111" x2="300" y2="79.1111111111111" fill="rgb(0, 0, 0)" stroke="rgb(60, 60, 60)" stroke-width="1px" opacity="0.25"></line><line x1="0" y1="59.33333333333334" x2="300" y2="59.33333333333334" fill="rgb(0, 0, 0)" stroke="rgb(60, 60, 60)" stroke-width="1px" opacity="0.25"></line><line x1="0" y1="39.55555555555554" x2="300" y2="39.55555555555554" fill="rgb(0, 0, 0)" stroke="rgb(60, 60, 60)" stroke-width="1px" opacity="0.25"></line><line x1="0" y1="19.7777777777778" x2="300" y2="19.7777777777778" fill="rgb(0, 0, 0)" stroke="rgb(60, 60, 60)" stroke-width="1px" opacity="0.25"></line><line x1="0" y1="0" x2="300" y2="0" fill="rgb(0, 0, 0)" stroke="rgb(60, 60, 60)" stroke-width="1px" opacity="0.25"></line></g></g></g><g><g><line x1="0" y1="39.55555555555554" x2="300" y2="39.55555555555554" fill="rgb(0, 0, 0)" stroke="rgb(153, 153, 153)" stroke-width="1.5px"></line></g></g><g><g><line x1="25" y1="0" x2="25" y2="178" fill="rgb(0, 0, 0)" stroke="rgb(153, 153, 153)" stroke-width="1.5px"></line></g></g><g><g><g><g><g><path stroke="rgb(255, 112, 67)" stroke-width="2px" d="M25.076549999999997,138.44444444444446L25.26165,138.44444444444446L25.35455,138.44444444444446L25.6087,138.44444444444446L25.641399999999997,138.44444444444446L25.69785,138.44444444444443L25.7271,138.44444444444443L25.816174999999998,138.44444444444443L25.873625,138.44444444444443L26.103650000000002,138.44444444444443L26.154125,138.44444444444443L26.248350000000002,138.44444444444446L26.37515,138.44444444444443L26.478150000000003,138.44444444444443L26.597975,138.44444444444443L26.636325,138.44444444444446L26.652775000000002,122.619543595148L26.762075,128.95014687066094L26.985300000000002,132.74809733198487L27.178475,135.02671948700493L27.343950000000003,136.39383946042412L27.41415,137.2140922503392L27.459175,137.70623701459726L27.60465,138.00152138570607L27.61835,138.17869111290005L27.774725,130.3738680208046L27.842425,133.6021018943268L27.88075,135.53904010383644L27.897575,136.70120226828587L27.9545,137.3984992929035L28.080225,137.81687740901535L28.20465,138.06790424316537L28.219875000000002,138.2185203308692L28.283825,138.30888997888852L28.443675,138.36311176604298L28.528399999999998,138.3956448377391L28.599125,138.41516468054203L28.658725,130.5157654456599L28.857675,133.68723705223948L28.950175,135.59012001166514L29.043075,136.73184978569256L29.1544,137.416887649523L29.224925000000002,137.82791036761026L29.254125,130.163412885905L29.518900000000002,133.47582550966507L29.611475000000002,135.46327308370076L29.627599999999997,136.65574162804288L29.724575,137.37122275461957L29.800725,137.80051143055528L29.834874999999997,130.146973524938L29.9847,133.46596189275667L29.996625,135.45735491343757L30.11005,136.65219072584242L30.158675,137.36909221328395L30.298849999999998,137.7992331057484L30.42605,138.05731764122692L30.6614,138.21216836251395L30.726375,138.30507879528616L30.890674999999998,138.3608250549495L30.92455,138.39427281074745L31.610799999999998,130.50323035311493L31.6293,133.67971598964678L31.654525,135.58560737156586L31.757125000000002,136.72914220071732L31.882725,137.41526309820816L31.907674999999998,137.8269356367027L31.920475,138.07393915979935L31.962500000000002,138.22214127365737L32.061749999999996,138.3110625419722L32.189475,138.3644153029611L32.2321,138.39642695955445L32.253875,138.41563395351045L32.4247,138.42715814988406L32.6958,138.4340726677082L32.71895,138.4382213784027L32.966375,138.44071060481937L33.040375,138.4422041406694L33.07505,138.4431002621794L33.117875,138.4436379350854L33.241575,138.443960538829L33.33425,138.44415410107518L33.3638,138.44427023842286L33.40615,138.4443399208315L33.4931,138.4443817302767L33.55975,138.44440681594375L33.697525,130.53331075623294L33.791624999999996,133.69776423151754L33.872,127.6853252055772L33.93195,131.9889729011241L34.011625,134.57116151845221L34.049350000000004,128.20936357773797L34.0676,132.30339592442056L34.09695,134.75981533243012L34.125875,136.23366697723586L34.14725,129.2068668530082L34.230075,132.90189788958267L34.245824999999996,135.11891651152737L34.390325000000004,128.5380165735831L34.506875,132.50058772192762L34.53195,134.87813041093435L34.625,136.30465602433839L34.719925,129.24946028126968L34.752225,125.01634283542849L34.9423,130.38758347903487L35.062225,125.69921675408759L35.0786,130.79730783023032L35.109625,133.85616247591597L35.141675,135.69147526332736L35.163225000000004,128.88155182466306L35.188475,132.70670887257563L35.39,135.00180310132313L35.4394,136.37885963857164L35.523450000000004,137.20509356092074L35.580974999999995,137.70083391433022L35.624825,130.0871670152648L35.678625,133.43007798693665L35.694925,135.43582456993977L35.7708,136.63927251974167L35.871925,137.36134128962277L36.039225,137.79458255155143L36.102199999999996,138.05452730870863L36.144825,138.21049416300295L36.26665,138.30407427557955L36.329775000000005,138.3602223431255L36.37645,130.48280007254198L36.39025,133.66745782130295L36.40205,135.57825247055953L36.508900000000004,136.7247292601135L36.621325,137.41261533384588L36.652625,137.8253469780853L36.674125000000004,138.07298596462897L36.7326,138.22156935655516L36.800325,138.31071939171088L36.877500000000005,114.63087607947097L36.89455,124.15630342546035L36.970275,129.871559833054L37.118275,133.3007136776102L37.181075,135.3582059843439L37.19885,136.5927013683841L37.2114,137.33339859880823L37.24565,137.7778169370627L37.2631,138.0444679400154L37.34335,138.204458541787L37.405625,138.30045290285L37.41895,138.35804951948776L37.44435,138.39260748947044L37.4824,138.41334227146004L37.54915,138.4257831406538L37.5604,138.43324766217006L37.58325000000001,138.43772637507982L37.596225000000004,138.44041360282563L37.644125,138.44202593947318L37.711975,138.44299334146166L37.774725,138.44357378265477L37.789875,122.62169982514841L37.809149999999995,121.0396865617557L37.8958,112.17936749260899L38.173775,122.68539827334315L38.2291,128.98901674178367L38.259175,132.77118782284796L38.323625,135.04049047148655L38.699675,136.4020720606697L38.727549999999994,137.2190210141796L38.7981,137.70919038628554L38.833925,138.0032920095491L38.8978,130.26864187239613L38.929425,133.53896290121546L39.0591,135.50115551850703L39.157375,136.67847108888202L39.212625,137.38486043110697L39.3247,137.80869403644198L39.365050000000004,138.06299419964296L39.470200000000006,130.30446318645244L39.50362500000001,133.56045568964925L39.5542,135.51405119156732L39.599124999999994,136.68620849271818L39.730475000000006,137.38950287340867L39.74455,137.811479501823L39.788725,138.06466547887158L39.908075,138.2165770651007L39.961149999999996,138.3077240168382L40.0999,138.3624121878807L40.1584,138.39522509050622L40.202450000000006,138.41491283208148L40.2199,138.42672547702665L40.366775,138.43381306399377L40.380625,138.43806561617404L40.442425,138.44061714748221L40.469800000000006,138.4421480662671L40.483425000000004,138.44306661753802L40.5433,138.4436177483006L40.561525,138.44394842675814L40.614675000000005,122.62192461161044L40.62865,128.95093254474403L40.754725,132.7483373046242L40.8266,127.1156690494412L40.862125,131.6471792074425L40.899024999999995,126.45497419113215L40.911899999999996,131.25076229245707L41.07135,134.12823515325198L41.125625,135.85471886972897L41.25405000000001,136.89060909961518L41.2871,137.51214323754687L41.368550000000006,137.8850637203059L41.46805,122.2865937877391L41.584799999999994,128.74973405042124L41.787099999999995,132.62761820803053L41.8976,134.9543487025961L41.95195,136.35038699933543L41.98265,137.18800997737904L42.0449,137.6905837642052L42.10155,137.9921280363009L42.13565,138.17305459955833L42.2255,138.28161053751276L42.236324999999994,138.34674410028543L42.256550000000004,138.38582423794904L42.375625,138.4092723205472L42.47425,138.42334117010608L42.5503,138.43178247984144L42.568974999999995,138.43684726568264L42.7388,138.43988613718736L42.83225,138.44170946009018L43.09555,138.44280345383189L43.128175,138.4434598500769L43.4855,138.44385368782392L43.5016,138.44408999047212L43.580625,138.44423177206104L43.6046,130.5332057299033L43.62195,133.69770121571975L43.939099999999996,135.59639850720964L44.023325,136.73561688210356L44.13845,137.4191479070399L44.152625,137.82926652200172L44.248000000000005,138.0753376909788L44.27695,138.22298039236506L44.3526,138.31156601319682L44.386625,138.36471738569588L44.786325,138.39660820919528L44.815775,138.41574270329494L44.84215,138.42722339975472L44.9895,130.5230007065195L45.048525000000005,125.78046709057836L45.17675,130.8460580321248L45.2369,133.88541259705266L45.284475,135.70902533600938L45.50095,136.8031929793834L45.635025,129.5485824542967L45.723150000000004,133.1069272503558L45.819825,135.24193412799124L45.83535,136.52293825457252L45.914625,137.2915407305213L46.123400000000004,137.75270221609057L46.1966,138.0293991074321L46.21785,138.19541724223706L46.25985,138.29502812312L46.372575,138.3547946516498L46.412625,138.39065456876762L46.464349999999996,138.41217051903834L46.5176,130.51396897808968L46.5759,133.68615916463156L46.59224999999999,127.6783621654456L46.913775,131.98479507704513L47.17550000000001,134.56865482400485L47.441374999999994,128.2078595610696L47.488625,132.30249351441955L47.5053,134.7592738864295L47.543275,136.2333421096355L47.555325,137.11778304355906L47.922200000000004,137.6484476039132L47.941424999999995,137.9668463401257L48.027175,138.15788558185318L48.075175,138.2725091268897L48.15195,138.34128325391157L48.188,138.3825477301247L48.262,138.4073064158526L48.337525,138.42216162728934L48.411950000000004,130.51996364304026L48.88292499999999,133.68975596360193L48.900775,135.59163135593894L49.104800000000004,136.73275659134114L49.2511,137.41743173258246L49.2691,137.82823681732725L49.317099999999996,138.07471986817413L49.352075,138.22260969868222L49.37925,130.40023248587602L49.55495,125.70680615819226L49.6843,130.80186147269313L49.9609,133.85889466139363L49.980450000000005,127.78200346350286L50.056075,132.0469798558795L50.41655,134.60596569130547L50.5178,128.23024608144996L50.541275,132.31592542664777L50.58217499999999,134.76733303376645L50.7188,128.32706648692653L50.860275,132.3740176699337L50.8782,134.80218837973797L51.051275000000004,136.25909080562056L51.142199999999995,137.1332322611501L51.18315,137.65771713446784L51.256675,137.97240805845848L51.426675,138.16122261285287L51.553575,138.2745113454895L51.56635,138.34248458507147L51.67145,138.38326852882068L51.8321,138.40773889507017L52.00435,138.42242111481988L52.026349999999994,138.4312304466697L52.092400000000005,138.43651604577963L52.1941,130.52857629413444L52.26255,133.69492355425842L52.298649999999995,135.59473191033283L52.370575,128.8235058128664L52.429625,132.6718812654976L52.503449999999994,134.98090653707635L52.65755,136.36632170002358L52.811600000000006,137.1975707977919L52.8765,137.6963202564529L52.941475,137.99556993164953L52.957825,138.1751197367675L53.085775,138.28284961983826L53.1018,138.34748754968075L53.285475,138.38627030758622L53.361925,130.4984288512184L53.381150000000005,133.67683508850882L53.3999,135.58387883088307L53.442575000000005,136.7281050763076L53.508424999999995,137.41464082356237L53.683749999999996,137.82656227191518L53.696975,138.07371514092688L53.859075000000004,130.31089575122277L53.877525,133.56431522851145L54.060325000000006,135.51636691488466L54.144324999999995,136.68759792670858L54.18429999999999,137.39033653380292L54.233200000000004,137.81197969805953L54.34847499999999,130.1538544855024L54.37200000000001,133.47009046907922L54.42144999999999,135.45983205922533L54.43935,136.65367701331297L54.468250000000005,137.36998398576554L54.563325,129.888657058126L54.833375000000004,125.39986090154227L55.010799999999996,130.61769431870314L55.138625,125.83728325788854L55.287074999999994,130.8801477325109L55.3098,133.9058664172843L55.5197,135.72129762814836L55.69645,136.8105563546668L55.95805,137.46411159057786L56.120450000000005,129.94513362101338L56.156749999999995,133.3448579503858L56.24015,135.38469254800927L56.480875,136.60859330658334L56.513075,137.34293376172778L56.5856,137.78353803481446L56.719049999999996,138.04790059866644L56.821025,138.20651813697765L57.077875000000006,138.30168865996436L57.131625,138.35879097375638L57.2645,130.4819412509205L57.298375,133.66694252833008L57.320750000000004,135.57794329477582L57.6564,136.72454375464326L58.025549999999996,137.41250403056375L58.16224999999999,137.825280196116L58.307975,138.0729458954474L58.437875000000005,130.3104342039351L58.539575,133.56403830013883L58.5937,119.69397853563885L58.6402,127.19416489916111L58.781425000000006,131.69427671727442L58.86000000000001,134.39434380814245L58.902225,136.01438406266323L58.963675,136.9864082153757L59.039274999999996,137.5696227070032L59.127375,137.91955140197967L59.369550000000004,138.1295086189656L59.4174,122.43326072693489L59.706525,128.83773421393872L59.722675,132.680418306141L59.759699999999995,127.07491765035127L60.1121,131.62272836798854L60.209925000000005,134.35141479857091L60.3365,135.9886266569203L60.4394,136.97095377192994L60.463925,137.56035004093576L60.540125,130.00287669122812L60.587374999999994,133.37950379251464L60.6515,135.40548005328654L60.876025,128.7099546986386L60.9578,132.60375059696094L61.042550000000006,134.94002813595432L61.14755,136.3417946593504L61.249874999999996,137.182854573388L61.310825,137.6874905218106L61.385,130.079160979753L61.453925,133.42527436562958L61.922075,135.43294239715553L62.153600000000004,136.6375432160711L62.319025,137.36030370742043L62.347449999999995,129.8828488911189L62.379225,133.30748711244914L62.45717500000001,135.36227004524727L62.4745,136.59513980492613L62.576274999999995,137.33486166073345L62.648325,129.86758366310673L62.78082500000001,133.29832797564183L62.88315,135.35677456316287L63.048075,136.59184251567552L63.099275,137.33288328718308L63.30265,137.77750775008764L63.4039,138.04428242783035L63.500274999999995,138.204347234476L63.5882,138.30038611846336L63.738575,138.3580094488558L63.805749999999996,138.39258344709123L63.834025000000004,138.41332784603253L64.117125,138.4257744853973L64.15705,138.43324246901616L64.253625,138.43772325918746L64.34275,138.44041173329026L64.4139,138.44202481775193L64.432475,138.44299266842893L64.50545,138.44357337883514L64.54299999999999,138.44392180507884L64.59864999999999,130.53301974971396L64.769075,133.69758962760613L64.820275,135.59633155434148L65.06505,136.73557671038267L65.0806,137.41912380400737L65.207875,137.8292520601822L65.27154999999999,138.07532901388709L65.3395,130.31186407499894L65.447775,125.653785111666L65.74405,130.7700488447774L65.7875,133.8398070846442L65.859025,127.77055091745319L65.89252499999999,132.04010832824972L66.018575,134.6018427747276L66.10532500000001,136.13888344261431L66.31335,129.14999673223525L66.43475,132.8677758171189L66.967975,135.09844326804912L67.111875,136.43684373860725L67.17875000000001,137.2398840209421L67.40357499999999,137.72170819034304L67.440275,138.0108026919836L67.5444,138.18425939296793L67.61855,138.28833341355852L67.650175,138.3507778259129L67.75715,138.38824447332553L67.8189,130.49961335066197L67.864075,133.67754578817494L68.155725,135.58430525068275L68.271775,136.7283609281874L68.49974999999999,137.41479433469024L69.04599999999999,137.8266543785919L69.2702,138.07377040493293L69.382375,138.22204002073752L69.860175,138.3110017902203L70.2466,130.45326774079885L70.27262499999999,125.73862731114599L70.39505,130.82095416446538L70.56305,125.95923916534588L70.735775,130.9533212769853L70.78902500000001,126.03865943285784L70.864025,123.08986232638136L71.457325,121.32058406249547L71.5148,120.25901710416396L71.5898,111.71096581805394L71.7398,74.93769060194347L72.626125,84.51816991672165L72.701125,90.26645750558855L72.77612500000001,77.89320783668646L72.851125,94.20259136867854L73.405375,103.9882214878738L73.941625,117.77071067050204L75.064925,126.040204180079L75.962575,131.00190028582517L76.217125,133.9789179492729L76.27332499999999,135.7651285473415L76.38657500000001,136.83685490618268L76.94302499999999,129.56877961037628L77.093025,117.29682332178132L77.361325,109.93364954862436L78.09537499999999,73.87130084028571L78.67155,75.96722494861586L78.74655,93.04700163583618L79.57155,79.56153431483504L80.17155,79.38136503334549L80.62155,79.2732634644517L80.69655,79.20840252311547L80.84655000000001,63.347263736091506L80.97789999999999,93.38613601943268L81.39997500000001,79.76501494499294L82.7383,79.50345341144022L83.1883,87.25762760241969L83.2633,76.08790989478514L84.009225,69.38607927020442L84.15922499999999,65.36498089545597L84.384225,47.130099648384714L84.459225,36.18917090014193L84.534225,69.18016920675183L85.359225,65.24143485738442L85.584225,78.70041646998622L86.034025,63.04247210421396L86.409025,85.29214992919502L86.559025,82.81973440196148L86.70902500000001,97.15850730784355L86.859025,74.11732660692834L87.574975,76.11484040860145L87.87497499999999,53.58001535627197L88.17497499999999,47.970231435985426L88.324975,44.60436108381347L88.53485,50.495949983621415L89.20985,46.11979221239508L89.28485,51.405208660770384L90.03485,46.66534741868446L90.18485000000001,27.999208451210677L91.07929999999999,56.35508062628196L91.1543,57.546381709102505L91.2293,50.35005124768372L91.30430000000001,61.85447519305467L91.52929999999999,76.66824067138835L91.8293,77.64538884727746L92.27929999999999,62.409455530588716L92.35430000000001,61.17900665168655L92.5793,68.35184843545639L93.1793,72.65555350571827L93.55430000000001,75.23777654787541L93.82497500000001,76.78711037316968L94.049975,77.71671066834627L94.124975,86.18558195656331L94.57497500000001,75.44468250727132L94.724975,61.089031726585006L95.174975,76.20897459150657L95.388125,85.2809403104595L95.613125,82.81300863072013L95.98812500000001,89.24336073398764L97.413125,69.36823866261481L97.713125,57.443165419791114L97.863125,74.02145480743022L98.238125,60.23509510668035L98.613125,44.052168175119306L99.58812499999999,50.16463423840494L99.88812499999999,53.8321138763763L100.14997500000001,48.121490548048L101.274975,68.42844988438435L102.09997499999999,56.87929215285284L102.174975,49.94979751393393L102.399975,61.614322952804784L102.849975,52.7908159939051L103.374975,47.496711818565274L103.449975,60.14247153558361L103.52324999999999,83.55214958801686L103.59825000000001,73.86462308614342L103.67325,75.96321829613052L103.74825,93.04459764434498L104.34825000000001,71.64898080882921L106.07325,74.63383292974196L106.14825,76.42474420228963L106.1927,69.5881798547071L106.774975,49.66401902393537L107.590525,77.2650780810279L107.74052499999999,62.18126907083895L108.640525,53.130983664725605L108.670075,79.34525686550202L108.895075,95.07382078596788L109.04507500000001,64.95540358269183L109.120075,78.52879770517066L109.270075,70.85061195643574L110.69507499999999,74.15481161830589L111.06445,84.04844252653909L111.28945,82.07350996036789L111.51445,72.97743930955409L112.18945000000001,67.51979691906577L112.26445,80.06743370699503L112.724975,71.77379355753035L112.85737499999999,90.53094280118488L112.90615,109.6963434584887L113.32582500000001,97.46225051953766L113.550825,82.21068364505594L113.966425,96.79307685370023L114.10870000000001,105.5425127788868L114.2587,87.05884100066542L114.44099999999999,91.79086015595482L115.35775000000001,102.54118276023955L115.50217500000001,93.16915410058819L115.577175,87.54593690479734L115.625975,99.99422880954506L116.44557499999999,91.64098173017149L117.19557499999999,86.62903348254733L117.7864,91.53297564508395L119.049975,94.47534094260592L119.574975,104.15187123223022L119.649975,94.13556718378258L119.8647,88.125784754714L120.588225,84.51991529727283L121.031325,66.53417140058593L121.33132499999999,79.47605839590712L121.66322500000001,87.24119059309983L121.813225,83.98915880030435L121.963225,89.94905083573815L122.11322499999999,77.70276383477623L122.26322499999999,86.1772138564213L122.56322499999999,67.52855053607499L122.638225,72.16157476608944L122.86322499999999,51.208055970764775L123.31322499999999,54.458166915792205L123.463225,40.58601126058642L123.688225,48.084940089685176L124.259575,52.58429738714446L124.40957499999999,55.28391176562002L124.484575,56.90368039270534L124.559575,65.78665268006765L125.196975,86.93865827470725L126.20607500000001,91.71875052037991L126.356075,102.49791697889462L126.50607500000001,85.2320835206701L126.656075,82.7836945568465L126.806075,89.22577228966345L127.46617499999999,77.26879670713141L127.766175,54.27238913538996L128.701375,80.03010014790063L128.9929,71.75139342207372L130.35075,74.69528049768867L131.44665,92.28383496527987L131.52165,63.281412090279034L131.97165,61.70218058750075L132.04665,68.66575279694489L132.19665,72.84389612261138L132.42165,59.528559895789044L132.79665,51.53935815969565L133.09664999999998,62.568059340261826L133.24665,53.36305782637932L134.425825,32.01783469582759L134.950825,58.7662563730521L135.25082500000002,66.90419826827569L135.775825,71.78696340540989L135.850825,82.6277335988015L136.346125,89.13219571483644L136.571125,77.21265076223521L138.37035,85.88314601289669L138.59535,83.17433205218246L139.12035,73.63793256464281L139.30395,75.82720398323012L139.37895,85.05187794549363L139.52835000000002,98.49779343396284L139.60335,98.65423161593326L140.093975,98.74809452511552L140.243975,90.89330115951375L140.969025,102.00264736237493L141.344025,92.84603286186939L141.903325,111.08539749489941L142.02755,114.11790516360632L142.17755,92.20407643149711L142.4097,102.78911252556493L142.610325,93.31791195978342L143.53575,79.72408050920339L143.68575,71.56778163885537L144.199975,82.49622453886877L144.799975,96.96440138998793L145.22412500000002,81.91197416732611L145.299125,72.88051783372897L145.374125,83.28386625579296L145.6728,105.34809753125354L146.029675,86.94219185208546L146.554675,67.9875373334735L147.154675,80.34807795563965L147.454675,79.85329121782824L147.754675,55.82308584180805L147.904675,65.13829594952928L148.35467500000001,62.816310903050905L148.57967499999998,61.42311987516388L148.729675,44.76498303620943L148.879675,50.59232315505898L149.029675,69.91094944859096L149.254675,57.76879189137681L149.61012499999998,66.30571957927052L150.524975,87.25009841422899L150.89997499999998,68.1722812707596L151.23047499999998,72.5478132069002L152.571775,67.26202125747346L152.87177499999999,72.00165719892851L153.096775,66.93432765269044L153.451775,63.8939299249476L153.976775,69.980802399413L154.27677500000001,73.63292588409223L154.426775,75.8241999748998L154.87130000000002,69.2278533182732L154.9463,73.18115643540837L155.3963,59.730916083467235L155.8777,83.30521631674702L156.324975,113.2720186789371L156.539625,67.96321120736226L156.98962500000002,80.33348227997291L157.79047500000001,71.93342270131707L157.940475,66.89338695412357L158.450425,55.95825439469637L158.675425,57.30828597015116L158.900425,73.94052713764627L159.050425,68.0976496159211L159.413075,56.68081199177486L160.593825,41.91959830617603L160.743825,48.885092317038925L160.818825,53.06438872355672L161.11882500000002,55.571966567467356L161.193825,72.89873549603597L161.49255,91.20590796428826L161.64255,78.45687811190628L162.09255,54.98523797825489L162.16755,56.72447612028627L162.724975,57.768019005505096L163.62255,74.21636695885861L163.99755000000002,76.17426461975963L164.22254999999998,85.26011432741133L164.89755000000002,74.88940192978012L164.97255,60.755863380090304L165.42255,83.92018469472083L165.49755000000002,74.08544415016583L166.5188,68.18459982343282L166.8122,80.46631544961527L166.9622,79.9242337142136L167.1122,63.77676245075038L167.3372,61.99939080378354L167.56220000000002,53.021856704492365L168.22905,55.546447356028764L168.605325,64.9723128580617L168.824975,94.3611654926148L169.6447,88.26114374001332L169.7197,76.69001957734135L170.1697,85.56956730196036L170.6947,67.16396260339845L172.491175,95.67615533981683L172.716175,89.05013764833454L172.94117500000002,77.16341592233405L173.091175,62.12027177562267L174.5789,84.73882973204027L174.74579999999997,98.30996450589082L175.074975,122.27486759242338L175.14952499999998,120.8315872221207L175.224525,96.23228566660573L175.58642500000002,113.11714917774123L175.7755,115.33695617331139L175.896275,92.93550703732018L176.548575,103.22797088905878L177.03590000000003,85.6701158667686L177.40325,90.95762507561672L178.00325,86.21901948981447L178.296825,75.46474502722202L178.446825,84.83440257188877L178.596825,90.45619709868883L179.55579999999998,70.09594048143552L179.7058,81.61311984441687L179.9308,72.70120523998347L180.806175,75.26516758843452L181.09125,68.89243388639403L181.474975,65.06879366516975L181.624975,70.68572064354629L182.374975,66.14476571946112L182.524975,63.42019276501L182.674975,85.51878232567266L183.629575,90.86682495095916L184.07957499999998,86.16453941501996L184.8194,83.34316809345643L185.146675,89.56145641162941L185.671675,93.29242940253319L185.89147499999999,71.79767986374215L186.01115,90.54527458491197L187.339375,93.88272030650272L187.41437499999998,87.97407662834607L187.46645,100.25111264367432L187.83405,91.79511203064902L187.98405000000002,102.54373388505607L188.423575,93.1706847754781L188.723575,95.45796642084241L189.323575,96.830335408061L189.77357500000002,89.74264568928106L189.848575,101.31225408023529L190.14857500000002,92.43179689258562L190.97357499999998,79.1924114688847L191.423575,79.15989132577526L191.873575,71.22926812879848L192.09857499999998,58.55978309950132L193.1992,66.78031430414525L193.474675,32.15707747137603L194.04997500000002,35.11646870504785L194.349975,44.803214556362036L194.7242,66.43748428937279L195.08905,79.41804612917923L195.3348,103.0286054552853L195.4098,93.46160771761562L195.5598,95.63252018612494L196.2348,81.11284544500828L196.3098,64.4899294892272L197.10165,54.51617991575853L197.25164999999998,64.35415239389957L197.32665,62.34582476967307L197.85164999999998,53.22971708402606L198.00165,55.67116358374898L198.07665,49.224920372471615L198.15165,45.35717444570517L198.22665,58.85874911186755L198.516275,82.78191613378722L198.666275,81.31359412471676L200.299975,64.61037869705228L200.52497499999998,46.67733832934249L201.57497500000002,59.65084744204995L201.913525,75.34606402078553L201.988525,61.029860634693534L202.13852500000002,60.35124971414946L202.738525,52.032972050711905L203.113525,70.77533878598271L203.63762499999999,66.19853660492296L205.7293,55.54134418517599L206.324975,80.79147317777227L207.12179999999998,72.2082172399967L207.4968,59.14715256622023L208.145125,67.13273598417656L208.18667499999998,79.8351971460615L209.011675,87.45667384319246L209.08667499999999,68.2962265281377L209.236675,64.71106925021596L209.386675,70.47108599457401L209.536675,66.01598493007774L209.611675,79.1651465136022L209.68667499999998,63.32131013038354L209.836675,77.5483416337857L211.18667499999998,93.99567164693808L211.561675,103.8640696548295L211.936675,86.05177512623105L212.158925,91.18662063129418L212.383925,86.35641682322095L212.7558,107.19162787171035L213.580275,111.78164338969287L214.25527499999998,82.89120825603794L214.480275,81.3791693980672L214.555275,48.82750163884032L215.210375,53.02983431663753L215.63155,55.55123392331585L216.797675,64.97518479843396L217.247675,78.54066643461593L217.547675,86.67995541632513L217.772675,75.7413065831284L218.22267499999998,69.1781172832104L218.37267500000002,57.329092592148456L219.049975,73.95301111084463L219.34997499999997,60.194028888728994L219.799975,44.02752844434849L220.174975,50.14985039994244L220.624975,45.912132462187685L220.92497500000002,51.28061281064595L221.29997500000002,70.3239232419431L221.79972500000002,65.9276872784992L222.099725,55.37883458932174L222.77472500000002,64.87174519803749L222.999725,70.56749156326693L223.89517500000002,58.16271716018238L224.420175,66.54207474055389L224.645175,55.74746706655455L224.795175,57.181813573266055L224.87017500000002,58.04242147729296L225.224975,50.64767510859801L225.299975,54.121938398492134L225.37497499999998,64.11760748353971L226.24,85.9372311567905L226.69000000000003,67.38456091629652L226.76500000000001,64.16406988311125L226.915,62.23177526320009L227.29000000000002,68.9835096023645L227.365,65.12343909475204L227.59,70.71850790129565L228.017375,81.98666029633297L228.317375,72.92532951113311L228.842375,67.4885310400132L229.5666,56.31534084623014L230.0166,57.522537841071426L230.3166,74.0690782601984L230.54160000000002,60.26366917834126L231.1416,59.89153484033811L231.324975,59.6682542375362L232.299975,51.62317476474392L232.599975,46.79612708106859L232.674975,59.722120693085586L234.09045,59.5666057491847L234.16545,67.38440789395527L234.39045,56.252866958595376L234.91545,73.30727573071279L235.06545,83.53992099398324L235.64677500000002,97.59061926305661L235.77175,106.02103822450063L235.84675000000001,103.16817849025594L236.758475,101.45646264970912L236.90347500000001,100.42943314538103L236.978475,68.16877099833974L237.706975,80.45681815455937L237.903825,79.91853533718007L238.72594999999998,71.68445453564138L238.95095,66.74400605471817L239.10095,71.69084807727535L239.25095,74.65895329080966L240.15095,60.61759419670801L241.42595,68.01500096246926L241.80095,80.36455613303711L242.55095,79.86317812426671L242.989,95.3845735412267L243.51399999999998,80.96407745806937L243.974975,80.22289091928604L244.12497499999998,63.955956773793844L244.424975,85.840240730943L244.949975,67.32636666078801L245.02497499999998,56.21804221869502L245.099975,73.28638088677256L245.849975,67.70516186539687L247.049975,88.0897637859048L247.424975,76.58719160487621L247.799975,77.59675940737017L248.17497500000002,78.20250008886654L248.249975,94.3881667199866L248.38055,96.18845558754752L248.59445,81.44640668586185L249.255075,96.33451067818376L249.486975,113.17848418468805L249.561975,115.37375717747949L249.879,116.69092097315436L250.100075,117.48121925055929L250.150125,125.86650932811334L250.66989999999998,122.98657226353467L250.825825,129.16972113589858L250.85660000000001,124.96849934820582L250.989775,122.44776627559015L251.11669999999998,128.84643754313188L251.1917,132.6856403036569L251.26670000000001,119.16693973774969L251.31587499999998,111.05571939820538L251.61567499999998,114.10009830558988L251.75912499999998,108.01561453890949L251.984125,88.54270205667902L252.059125,100.59228790067408L252.12735,107.8220394070711L252.20037499999998,120.07100142202046L252.34045,127.42037863099006L252.56545,123.9188938452607L252.64045000000002,113.90689186271197L253.0702,115.81080178429386L253.5202,93.21981440390964L253.66340000000002,103.39855530901245L253.8884,93.68357762985191L254.7537,95.7657021334667L255.34255000000002,112.83719905785779L255.41755,83.5245416569369L255.49255,73.84805832749548L255.94255,60.131057218719505L256.474975,59.81196766456503L256.849975,67.53162504318344L257.374975,80.07453058146564L257.674975,79.68916279332385L258.349975,71.54683100932762L258.799975,74.57254305004102L258.94855,76.38797027446904L259.17127500000004,93.2994488313481L259.696275,71.80189152103107L260.146275,58.903357134840874L260.342575,74.89756983646006L260.492575,92.40520856854272L260.56757500000003,79.17645847445897L261.242575,71.23920841800873L261.95155,82.29908060636077L262.02655,73.1127816971498L262.64997500000004,59.6898912405121L263.5006,51.63615696652947L263.72560000000004,62.62613862436214L263.9506,61.3090165079506L264.92560000000003,52.607632126992584L265.5256,63.209023720640005L266.111625,69.56985867682845L266.14322500000003,89.20858187276373L266.30985,93.0807046792138L266.410175,95.40397836308382L266.48494999999997,96.79794257340585L267.477825,113.45654332182129L267.8932,99.71837043753722L268.0432,91.47546670696676L269.199975,78.6186133575134L269.724975,70.90450134784136L270.17497499999996,58.364923030927045L270.399975,58.75228715188956L270.474975,43.162483402244845L270.699975,49.63082337468026L270.924975,53.511827358141474L271.440025,55.84042974821821L271.87284999999997,49.326480071153156L272.0019,53.32922137602523L272.0769,63.64197727005957L272.1519,61.91851969536907L272.6019,60.88444515055478L272.9769,68.17511153477732L273.9519,56.7272891430886L274.9269,73.59192904140873" style="fill: none;" fill="none"></path></g></g></g></g><g opacity="0.2"><g><g><g><path stroke="rgb(255, 112, 67)" stroke-width="2px" d="M25.076549999999997,138.44444444444446L25.26165,138.44444444444446L25.35455,138.44444444444446L25.6087,138.44444444444446L25.641399999999997,138.44444444444446L25.69785,138.44444444444446L25.7271,138.44444444444446L25.816174999999998,138.44444444444446L25.873625,138.44444444444446L26.103650000000002,138.44444444444446L26.154125,138.44444444444446L26.248350000000002,138.44444444444446L26.37515,138.44444444444446L26.478150000000003,138.44444444444446L26.597975,138.44444444444446L26.636325,138.44444444444446L26.652775000000002,98.8888888888889L26.762075,138.44444444444446L26.985300000000002,138.44444444444446L27.178475,138.44444444444446L27.343950000000003,138.44444444444446L27.41415,138.44444444444446L27.459175,138.44444444444446L27.60465,138.44444444444446L27.61835,138.44444444444446L27.774725,118.66666666666667L27.842425,138.44444444444446L27.88075,138.44444444444446L27.897575,138.44444444444446L27.9545,138.44444444444446L28.080225,138.44444444444446L28.20465,138.44444444444446L28.219875000000002,138.44444444444446L28.283825,138.44444444444446L28.443675,138.44444444444446L28.528399999999998,138.44444444444446L28.599125,138.44444444444446L28.658725,118.66666666666667L28.857675,138.44444444444446L28.950175,138.44444444444446L29.043075,138.44444444444446L29.1544,138.44444444444446L29.224925000000002,138.44444444444446L29.254125,118.66666666666667L29.518900000000002,138.44444444444446L29.611475000000002,138.44444444444446L29.627599999999997,138.44444444444446L29.724575,138.44444444444446L29.800725,138.44444444444446L29.834874999999997,118.66666666666667L29.9847,138.44444444444446L29.996625,138.44444444444446L30.11005,138.44444444444446L30.158675,138.44444444444446L30.298849999999998,138.44444444444446L30.42605,138.44444444444446L30.6614,138.44444444444446L30.726375,138.44444444444446L30.890674999999998,138.44444444444446L30.92455,138.44444444444446L31.610799999999998,118.66666666666667L31.6293,138.44444444444446L31.654525,138.44444444444446L31.757125000000002,138.44444444444446L31.882725,138.44444444444446L31.907674999999998,138.44444444444446L31.920475,138.44444444444446L31.962500000000002,138.44444444444446L32.061749999999996,138.44444444444446L32.189475,138.44444444444446L32.2321,138.44444444444446L32.253875,138.44444444444446L32.4247,138.44444444444446L32.6958,138.44444444444446L32.71895,138.44444444444446L32.966375,138.44444444444446L33.040375,138.44444444444446L33.07505,138.44444444444446L33.117875,138.44444444444446L33.241575,138.44444444444446L33.33425,138.44444444444446L33.3638,138.44444444444446L33.40615,138.44444444444446L33.4931,138.44444444444446L33.55975,138.44444444444446L33.697525,118.66666666666667L33.791624999999996,138.44444444444446L33.872,118.66666666666667L33.93195,138.44444444444446L34.011625,138.44444444444446L34.049350000000004,118.66666666666667L34.0676,138.44444444444446L34.09695,138.44444444444446L34.125875,138.44444444444446L34.14725,118.66666666666667L34.230075,138.44444444444446L34.245824999999996,138.44444444444446L34.390325000000004,118.66666666666667L34.506875,138.44444444444446L34.53195,138.44444444444446L34.625,138.44444444444446L34.719925,118.66666666666667L34.752225,118.66666666666667L34.9423,138.44444444444446L35.062225,118.66666666666667L35.0786,138.44444444444446L35.109625,138.44444444444446L35.141675,138.44444444444446L35.163225000000004,118.66666666666667L35.188475,138.44444444444446L35.39,138.44444444444446L35.4394,138.44444444444446L35.523450000000004,138.44444444444446L35.580974999999995,138.44444444444446L35.624825,118.66666666666667L35.678625,138.44444444444446L35.694925,138.44444444444446L35.7708,138.44444444444446L35.871925,138.44444444444446L36.039225,138.44444444444446L36.102199999999996,138.44444444444446L36.144825,138.44444444444446L36.26665,138.44444444444446L36.329775000000005,138.44444444444446L36.37645,118.66666666666667L36.39025,138.44444444444446L36.40205,138.44444444444446L36.508900000000004,138.44444444444446L36.621325,138.44444444444446L36.652625,138.44444444444446L36.674125000000004,138.44444444444446L36.7326,138.44444444444446L36.800325,138.44444444444446L36.877500000000005,79.1111111111111L36.89455,138.44444444444446L36.970275,138.44444444444446L37.118275,138.44444444444446L37.181075,138.44444444444446L37.19885,138.44444444444446L37.2114,138.44444444444446L37.24565,138.44444444444446L37.2631,138.44444444444446L37.34335,138.44444444444446L37.405625,138.44444444444446L37.41895,138.44444444444446L37.44435,138.44444444444446L37.4824,138.44444444444446L37.54915,138.44444444444446L37.5604,138.44444444444446L37.58325000000001,138.44444444444446L37.596225000000004,138.44444444444446L37.644125,138.44444444444446L37.711975,138.44444444444446L37.774725,138.44444444444446L37.789875,98.8888888888889L37.809149999999995,118.66666666666667L37.8958,98.8888888888889L38.173775,138.44444444444446L38.2291,138.44444444444446L38.259175,138.44444444444446L38.323625,138.44444444444446L38.699675,138.44444444444446L38.727549999999994,138.44444444444446L38.7981,138.44444444444446L38.833925,138.44444444444446L38.8978,118.66666666666667L38.929425,138.44444444444446L39.0591,138.44444444444446L39.157375,138.44444444444446L39.212625,138.44444444444446L39.3247,138.44444444444446L39.365050000000004,138.44444444444446L39.470200000000006,118.66666666666667L39.50362500000001,138.44444444444446L39.5542,138.44444444444446L39.599124999999994,138.44444444444446L39.730475000000006,138.44444444444446L39.74455,138.44444444444446L39.788725,138.44444444444446L39.908075,138.44444444444446L39.961149999999996,138.44444444444446L40.0999,138.44444444444446L40.1584,138.44444444444446L40.202450000000006,138.44444444444446L40.2199,138.44444444444446L40.366775,138.44444444444446L40.380625,138.44444444444446L40.442425,138.44444444444446L40.469800000000006,138.44444444444446L40.483425000000004,138.44444444444446L40.5433,138.44444444444446L40.561525,138.44444444444446L40.614675000000005,98.8888888888889L40.62865,138.44444444444446L40.754725,138.44444444444446L40.8266,118.66666666666667L40.862125,138.44444444444446L40.899024999999995,118.66666666666667L40.911899999999996,138.44444444444446L41.07135,138.44444444444446L41.125625,138.44444444444446L41.25405000000001,138.44444444444446L41.2871,138.44444444444446L41.368550000000006,138.44444444444446L41.46805,98.8888888888889L41.584799999999994,138.44444444444446L41.787099999999995,138.44444444444446L41.8976,138.44444444444446L41.95195,138.44444444444446L41.98265,138.44444444444446L42.0449,138.44444444444446L42.10155,138.44444444444446L42.13565,138.44444444444446L42.2255,138.44444444444446L42.236324999999994,138.44444444444446L42.256550000000004,138.44444444444446L42.375625,138.44444444444446L42.47425,138.44444444444446L42.5503,138.44444444444446L42.568974999999995,138.44444444444446L42.7388,138.44444444444446L42.83225,138.44444444444446L43.09555,138.44444444444446L43.128175,138.44444444444446L43.4855,138.44444444444446L43.5016,138.44444444444446L43.580625,138.44444444444446L43.6046,118.66666666666667L43.62195,138.44444444444446L43.939099999999996,138.44444444444446L44.023325,138.44444444444446L44.13845,138.44444444444446L44.152625,138.44444444444446L44.248000000000005,138.44444444444446L44.27695,138.44444444444446L44.3526,138.44444444444446L44.386625,138.44444444444446L44.786325,138.44444444444446L44.815775,138.44444444444446L44.84215,138.44444444444446L44.9895,118.66666666666667L45.048525000000005,118.66666666666667L45.17675,138.44444444444446L45.2369,138.44444444444446L45.284475,138.44444444444446L45.50095,138.44444444444446L45.635025,118.66666666666667L45.723150000000004,138.44444444444446L45.819825,138.44444444444446L45.83535,138.44444444444446L45.914625,138.44444444444446L46.123400000000004,138.44444444444446L46.1966,138.44444444444446L46.21785,138.44444444444446L46.25985,138.44444444444446L46.372575,138.44444444444446L46.412625,138.44444444444446L46.464349999999996,138.44444444444446L46.5176,118.66666666666667L46.5759,138.44444444444446L46.59224999999999,118.66666666666667L46.913775,138.44444444444446L47.17550000000001,138.44444444444446L47.441374999999994,118.66666666666667L47.488625,138.44444444444446L47.5053,138.44444444444446L47.543275,138.44444444444446L47.555325,138.44444444444446L47.922200000000004,138.44444444444446L47.941424999999995,138.44444444444446L48.027175,138.44444444444446L48.075175,138.44444444444446L48.15195,138.44444444444446L48.188,138.44444444444446L48.262,138.44444444444446L48.337525,138.44444444444446L48.411950000000004,118.66666666666667L48.88292499999999,138.44444444444446L48.900775,138.44444444444446L49.104800000000004,138.44444444444446L49.2511,138.44444444444446L49.2691,138.44444444444446L49.317099999999996,138.44444444444446L49.352075,138.44444444444446L49.37925,118.66666666666667L49.55495,118.66666666666667L49.6843,138.44444444444446L49.9609,138.44444444444446L49.980450000000005,118.66666666666667L50.056075,138.44444444444446L50.41655,138.44444444444446L50.5178,118.66666666666667L50.541275,138.44444444444446L50.58217499999999,138.44444444444446L50.7188,118.66666666666667L50.860275,138.44444444444446L50.8782,138.44444444444446L51.051275000000004,138.44444444444446L51.142199999999995,138.44444444444446L51.18315,138.44444444444446L51.256675,138.44444444444446L51.426675,138.44444444444446L51.553575,138.44444444444446L51.56635,138.44444444444446L51.67145,138.44444444444446L51.8321,138.44444444444446L52.00435,138.44444444444446L52.026349999999994,138.44444444444446L52.092400000000005,138.44444444444446L52.1941,118.66666666666667L52.26255,138.44444444444446L52.298649999999995,138.44444444444446L52.370575,118.66666666666667L52.429625,138.44444444444446L52.503449999999994,138.44444444444446L52.65755,138.44444444444446L52.811600000000006,138.44444444444446L52.8765,138.44444444444446L52.941475,138.44444444444446L52.957825,138.44444444444446L53.085775,138.44444444444446L53.1018,138.44444444444446L53.285475,138.44444444444446L53.361925,118.66666666666667L53.381150000000005,138.44444444444446L53.3999,138.44444444444446L53.442575000000005,138.44444444444446L53.508424999999995,138.44444444444446L53.683749999999996,138.44444444444446L53.696975,138.44444444444446L53.859075000000004,118.66666666666667L53.877525,138.44444444444446L54.060325000000006,138.44444444444446L54.144324999999995,138.44444444444446L54.18429999999999,138.44444444444446L54.233200000000004,138.44444444444446L54.34847499999999,118.66666666666667L54.37200000000001,138.44444444444446L54.42144999999999,138.44444444444446L54.43935,138.44444444444446L54.468250000000005,138.44444444444446L54.563325,118.66666666666667L54.833375000000004,118.66666666666667L55.010799999999996,138.44444444444446L55.138625,118.66666666666667L55.287074999999994,138.44444444444446L55.3098,138.44444444444446L55.5197,138.44444444444446L55.69645,138.44444444444446L55.95805,138.44444444444446L56.120450000000005,118.66666666666667L56.156749999999995,138.44444444444446L56.24015,138.44444444444446L56.480875,138.44444444444446L56.513075,138.44444444444446L56.5856,138.44444444444446L56.719049999999996,138.44444444444446L56.821025,138.44444444444446L57.077875000000006,138.44444444444446L57.131625,138.44444444444446L57.2645,118.66666666666667L57.298375,138.44444444444446L57.320750000000004,138.44444444444446L57.6564,138.44444444444446L58.025549999999996,138.44444444444446L58.16224999999999,138.44444444444446L58.307975,138.44444444444446L58.437875000000005,118.66666666666667L58.539575,138.44444444444446L58.5937,98.8888888888889L58.6402,138.44444444444446L58.781425000000006,138.44444444444446L58.86000000000001,138.44444444444446L58.902225,138.44444444444446L58.963675,138.44444444444446L59.039274999999996,138.44444444444446L59.127375,138.44444444444446L59.369550000000004,138.44444444444446L59.4174,98.8888888888889L59.706525,138.44444444444446L59.722675,138.44444444444446L59.759699999999995,118.66666666666667L60.1121,138.44444444444446L60.209925000000005,138.44444444444446L60.3365,138.44444444444446L60.4394,138.44444444444446L60.463925,138.44444444444446L60.540125,118.66666666666667L60.587374999999994,138.44444444444446L60.6515,138.44444444444446L60.876025,118.66666666666667L60.9578,138.44444444444446L61.042550000000006,138.44444444444446L61.14755,138.44444444444446L61.249874999999996,138.44444444444446L61.310825,138.44444444444446L61.385,118.66666666666667L61.453925,138.44444444444446L61.922075,138.44444444444446L62.153600000000004,138.44444444444446L62.319025,138.44444444444446L62.347449999999995,118.66666666666667L62.379225,138.44444444444446L62.45717500000001,138.44444444444446L62.4745,138.44444444444446L62.576274999999995,138.44444444444446L62.648325,118.66666666666667L62.78082500000001,138.44444444444446L62.88315,138.44444444444446L63.048075,138.44444444444446L63.099275,138.44444444444446L63.30265,138.44444444444446L63.4039,138.44444444444446L63.500274999999995,138.44444444444446L63.5882,138.44444444444446L63.738575,138.44444444444446L63.805749999999996,138.44444444444446L63.834025000000004,138.44444444444446L64.117125,138.44444444444446L64.15705,138.44444444444446L64.253625,138.44444444444446L64.34275,138.44444444444446L64.4139,138.44444444444446L64.432475,138.44444444444446L64.50545,138.44444444444446L64.54299999999999,138.44444444444446L64.59864999999999,118.66666666666667L64.769075,138.44444444444446L64.820275,138.44444444444446L65.06505,138.44444444444446L65.0806,138.44444444444446L65.207875,138.44444444444446L65.27154999999999,138.44444444444446L65.3395,118.66666666666667L65.447775,118.66666666666667L65.74405,138.44444444444446L65.7875,138.44444444444446L65.859025,118.66666666666667L65.89252499999999,138.44444444444446L66.018575,138.44444444444446L66.10532500000001,138.44444444444446L66.31335,118.66666666666667L66.43475,138.44444444444446L66.967975,138.44444444444446L67.111875,138.44444444444446L67.17875000000001,138.44444444444446L67.40357499999999,138.44444444444446L67.440275,138.44444444444446L67.5444,138.44444444444446L67.61855,138.44444444444446L67.650175,138.44444444444446L67.75715,138.44444444444446L67.8189,118.66666666666667L67.864075,138.44444444444446L68.155725,138.44444444444446L68.271775,138.44444444444446L68.49974999999999,138.44444444444446L69.04599999999999,138.44444444444446L69.2702,138.44444444444446L69.382375,138.44444444444446L69.860175,138.44444444444446L70.2466,118.66666666666667L70.27262499999999,118.66666666666667L70.39505,138.44444444444446L70.56305,118.66666666666667L70.735775,138.44444444444446L70.78902500000001,118.66666666666667L70.864025,118.66666666666667L71.457325,118.66666666666667L71.5148,118.66666666666667L71.5898,98.8888888888889L71.7398,19.7777777777778L72.626125,98.8888888888889L72.701125,98.8888888888889L72.77612500000001,59.33333333333334L72.851125,118.66666666666667L73.405375,118.66666666666667L73.941625,138.44444444444446L75.064925,138.44444444444446L75.962575,138.44444444444446L76.217125,138.44444444444446L76.27332499999999,138.44444444444446L76.38657500000001,138.44444444444446L76.94302499999999,118.66666666666667L77.093025,98.8888888888889L77.361325,98.8888888888889L78.09537499999999,19.7777777777778L78.67155,79.1111111111111L78.74655,118.66666666666667L79.57155,59.33333333333334L80.17155,79.1111111111111L80.62155,79.1111111111111L80.69655,79.1111111111111L80.84655000000001,39.55555555555554L80.97789999999999,138.44444444444446L81.39997500000001,59.33333333333334L82.7383,79.1111111111111L83.1883,98.8888888888889L83.2633,59.33333333333334L84.009225,59.33333333333334L84.15922499999999,59.33333333333334L84.384225,19.7777777777778L84.459225,19.7777777777778L84.534225,118.66666666666667L85.359225,59.33333333333334L85.584225,98.8888888888889L86.034025,39.55555555555554L86.409025,118.66666666666667L86.559025,79.1111111111111L86.70902500000001,118.66666666666667L86.859025,39.55555555555554L87.574975,79.1111111111111L87.87497499999999,19.7777777777778L88.17497499999999,39.55555555555554L88.324975,39.55555555555554L88.53485,59.33333333333334L89.20985,39.55555555555554L89.28485,59.33333333333334L90.03485,39.55555555555554L90.18485000000001,0L91.07929999999999,98.8888888888889L91.1543,59.33333333333334L91.2293,39.55555555555554L91.30430000000001,79.1111111111111L91.52929999999999,98.8888888888889L91.8293,79.1111111111111L92.27929999999999,39.55555555555554L92.35430000000001,59.33333333333334L92.5793,79.1111111111111L93.1793,79.1111111111111L93.55430000000001,79.1111111111111L93.82497500000001,79.1111111111111L94.049975,79.1111111111111L94.124975,98.8888888888889L94.57497500000001,59.33333333333334L94.724975,39.55555555555554L95.174975,98.8888888888889L95.388125,98.8888888888889L95.613125,79.1111111111111L95.98812500000001,98.8888888888889L97.413125,39.55555555555554L97.713125,39.55555555555554L97.863125,98.8888888888889L98.238125,39.55555555555554L98.613125,19.7777777777778L99.58812499999999,59.33333333333334L99.88812499999999,59.33333333333334L100.14997500000001,39.55555555555554L101.274975,98.8888888888889L102.09997499999999,39.55555555555554L102.174975,39.55555555555554L102.399975,79.1111111111111L102.849975,39.55555555555554L103.374975,39.55555555555554L103.449975,79.1111111111111L103.52324999999999,118.66666666666667L103.59825000000001,59.33333333333334L103.67325,79.1111111111111L103.74825,118.66666666666667L104.34825000000001,39.55555555555554L106.07325,79.1111111111111L106.14825,79.1111111111111L106.1927,59.33333333333334L106.774975,19.7777777777778L107.590525,118.66666666666667L107.74052499999999,39.55555555555554L108.640525,39.55555555555554L108.670075,118.66666666666667L108.895075,118.66666666666667L109.04507500000001,19.7777777777778L109.120075,98.8888888888889L109.270075,59.33333333333334L110.69507499999999,79.1111111111111L111.06445,98.8888888888889L111.28945,79.1111111111111L111.51445,59.33333333333334L112.18945000000001,59.33333333333334L112.26445,98.8888888888889L112.724975,59.33333333333334L112.85737499999999,118.66666666666667L112.90615,138.44444444444446L113.32582500000001,79.1111111111111L113.550825,59.33333333333334L113.966425,118.66666666666667L114.10870000000001,118.66666666666667L114.2587,59.33333333333334L114.44099999999999,98.8888888888889L115.35775000000001,118.66666666666667L115.50217500000001,79.1111111111111L115.577175,79.1111111111111L115.625975,118.66666666666667L116.44557499999999,79.1111111111111L117.19557499999999,79.1111111111111L117.7864,98.8888888888889L119.049975,98.8888888888889L119.574975,118.66666666666667L119.649975,79.1111111111111L119.8647,79.1111111111111L120.588225,79.1111111111111L121.031325,39.55555555555554L121.33132499999999,98.8888888888889L121.66322500000001,98.8888888888889L121.813225,79.1111111111111L121.963225,98.8888888888889L122.11322499999999,59.33333333333334L122.26322499999999,98.8888888888889L122.56322499999999,39.55555555555554L122.638225,79.1111111111111L122.86322499999999,19.7777777777778L123.31322499999999,59.33333333333334L123.463225,19.7777777777778L123.688225,59.33333333333334L124.259575,59.33333333333334L124.40957499999999,59.33333333333334L124.484575,59.33333333333334L124.559575,79.1111111111111L125.196975,118.66666666666667L126.20607500000001,98.8888888888889L126.356075,118.66666666666667L126.50607500000001,59.33333333333334L126.656075,79.1111111111111L126.806075,98.8888888888889L127.46617499999999,59.33333333333334L127.766175,19.7777777777778L128.701375,118.66666666666667L128.9929,59.33333333333334L130.35075,79.1111111111111L131.44665,118.66666666666667L131.52165,19.7777777777778L131.97165,59.33333333333334L132.04665,79.1111111111111L132.19665,79.1111111111111L132.42165,39.55555555555554L132.79665,39.55555555555554L133.09664999999998,79.1111111111111L133.24665,39.55555555555554L134.425825,0L134.950825,98.8888888888889L135.25082500000002,79.1111111111111L135.775825,79.1111111111111L135.850825,98.8888888888889L136.346125,98.8888888888889L136.571125,59.33333333333334L138.37035,98.8888888888889L138.59535,79.1111111111111L139.12035,59.33333333333334L139.30395,79.1111111111111L139.37895,98.8888888888889L139.52835000000002,118.66666666666667L139.60335,98.8888888888889L140.093975,98.8888888888889L140.243975,79.1111111111111L140.969025,118.66666666666667L141.344025,79.1111111111111L141.903325,138.44444444444446L142.02755,118.66666666666667L142.17755,59.33333333333334L142.4097,118.66666666666667L142.610325,79.1111111111111L143.53575,59.33333333333334L143.68575,59.33333333333334L144.199975,98.8888888888889L144.799975,118.66666666666667L145.22412500000002,59.33333333333334L145.299125,59.33333333333334L145.374125,98.8888888888889L145.6728,138.44444444444446L146.029675,59.33333333333334L146.554675,39.55555555555554L147.154675,98.8888888888889L147.454675,79.1111111111111L147.754675,19.7777777777778L147.904675,79.1111111111111L148.35467500000001,59.33333333333334L148.57967499999998,59.33333333333334L148.729675,19.7777777777778L148.879675,59.33333333333334L149.029675,98.8888888888889L149.254675,39.55555555555554L149.61012499999998,79.1111111111111L150.524975,118.66666666666667L150.89997499999998,39.55555555555554L151.23047499999998,79.1111111111111L152.571775,59.33333333333334L152.87177499999999,79.1111111111111L153.096775,59.33333333333334L153.451775,59.33333333333334L153.976775,79.1111111111111L154.27677500000001,79.1111111111111L154.426775,79.1111111111111L154.87130000000002,59.33333333333334L154.9463,79.1111111111111L155.3963,39.55555555555554L155.8777,118.66666666666667L156.324975,158.22222222222223L156.539625,0L156.98962500000002,98.8888888888889L157.79047500000001,59.33333333333334L157.940475,59.33333333333334L158.450425,39.55555555555554L158.675425,59.33333333333334L158.900425,98.8888888888889L159.050425,59.33333333333334L159.413075,39.55555555555554L160.593825,19.7777777777778L160.743825,59.33333333333334L160.818825,59.33333333333334L161.11882500000002,59.33333333333334L161.193825,98.8888888888889L161.49255,118.66666666666667L161.64255,59.33333333333334L162.09255,19.7777777777778L162.16755,59.33333333333334L162.724975,59.33333333333334L163.62255,98.8888888888889L163.99755000000002,79.1111111111111L164.22254999999998,98.8888888888889L164.89755000000002,59.33333333333334L164.97255,39.55555555555554L165.42255,118.66666666666667L165.49755000000002,59.33333333333334L166.5188,59.33333333333334L166.8122,98.8888888888889L166.9622,79.1111111111111L167.1122,39.55555555555554L167.3372,59.33333333333334L167.56220000000002,39.55555555555554L168.22905,59.33333333333334L168.605325,79.1111111111111L168.824975,138.44444444444446L169.6447,79.1111111111111L169.7197,59.33333333333334L170.1697,98.8888888888889L170.6947,39.55555555555554L172.491175,138.44444444444446L172.716175,79.1111111111111L172.94117500000002,59.33333333333334L173.091175,39.55555555555554L174.5789,118.66666666666667L174.74579999999997,118.66666666666667L175.074975,158.22222222222223L175.14952499999998,118.66666666666667L175.224525,59.33333333333334L175.58642500000002,138.44444444444446L175.7755,118.66666666666667L175.896275,59.33333333333334L176.548575,118.66666666666667L177.03590000000003,59.33333333333334L177.40325,98.8888888888889L178.00325,79.1111111111111L178.296825,59.33333333333334L178.446825,98.8888888888889L178.596825,98.8888888888889L179.55579999999998,39.55555555555554L179.7058,98.8888888888889L179.9308,59.33333333333334L180.806175,79.1111111111111L181.09125,59.33333333333334L181.474975,59.33333333333334L181.624975,79.1111111111111L182.374975,59.33333333333334L182.524975,59.33333333333334L182.674975,118.66666666666667L183.629575,98.8888888888889L184.07957499999998,79.1111111111111L184.8194,79.1111111111111L185.146675,98.8888888888889L185.671675,98.8888888888889L185.89147499999999,39.55555555555554L186.01115,118.66666666666667L187.339375,98.8888888888889L187.41437499999998,79.1111111111111L187.46645,118.66666666666667L187.83405,79.1111111111111L187.98405000000002,118.66666666666667L188.423575,79.1111111111111L188.723575,98.8888888888889L189.323575,98.8888888888889L189.77357500000002,79.1111111111111L189.848575,118.66666666666667L190.14857500000002,79.1111111111111L190.97357499999998,59.33333333333334L191.423575,79.1111111111111L191.873575,59.33333333333334L192.09857499999998,39.55555555555554L193.1992,79.1111111111111L193.474675,-19.7777777777778L194.04997500000002,39.55555555555554L194.349975,59.33333333333334L194.7242,98.8888888888889L195.08905,98.8888888888889L195.3348,138.44444444444446L195.4098,79.1111111111111L195.5598,98.8888888888889L196.2348,59.33333333333334L196.3098,39.55555555555554L197.10165,39.55555555555554L197.25164999999998,79.1111111111111L197.32665,59.33333333333334L197.85164999999998,39.55555555555554L198.00165,59.33333333333334L198.07665,39.55555555555554L198.15165,39.55555555555554L198.22665,79.1111111111111L198.516275,118.66666666666667L198.666275,79.1111111111111L200.299975,39.55555555555554L200.52497499999998,19.7777777777778L201.57497500000002,79.1111111111111L201.913525,98.8888888888889L201.988525,39.55555555555554L202.13852500000002,59.33333333333334L202.738525,39.55555555555554L203.113525,98.8888888888889L203.63762499999999,59.33333333333334L205.7293,39.55555555555554L206.324975,118.66666666666667L207.12179999999998,59.33333333333334L207.4968,39.55555555555554L208.145125,79.1111111111111L208.18667499999998,98.8888888888889L209.011675,98.8888888888889L209.08667499999999,39.55555555555554L209.236675,59.33333333333334L209.386675,79.1111111111111L209.536675,59.33333333333334L209.611675,98.8888888888889L209.68667499999998,39.55555555555554L209.836675,98.8888888888889L211.18667499999998,118.66666666666667L211.561675,118.66666666666667L211.936675,59.33333333333334L212.158925,98.8888888888889L212.383925,79.1111111111111L212.7558,138.44444444444446L213.580275,118.66666666666667L214.25527499999998,39.55555555555554L214.480275,79.1111111111111L214.555275,0L215.210375,59.33333333333334L215.63155,59.33333333333334L216.797675,79.1111111111111L217.247675,98.8888888888889L217.547675,98.8888888888889L217.772675,59.33333333333334L218.22267499999998,59.33333333333334L218.37267500000002,39.55555555555554L219.049975,98.8888888888889L219.34997499999997,39.55555555555554L219.799975,19.7777777777778L220.174975,59.33333333333334L220.624975,39.55555555555554L220.92497500000002,59.33333333333334L221.29997500000002,98.8888888888889L221.79972500000002,59.33333333333334L222.099725,39.55555555555554L222.77472500000002,79.1111111111111L222.999725,79.1111111111111L223.89517500000002,39.55555555555554L224.420175,79.1111111111111L224.645175,39.55555555555554L224.795175,59.33333333333334L224.87017500000002,59.33333333333334L225.224975,39.55555555555554L225.299975,59.33333333333334L225.37497499999998,79.1111111111111L226.24,118.66666666666667L226.69000000000003,39.55555555555554L226.76500000000001,59.33333333333334L226.915,59.33333333333334L227.29000000000002,79.1111111111111L227.365,59.33333333333334L227.59,79.1111111111111L228.017375,98.8888888888889L228.317375,59.33333333333334L228.842375,59.33333333333334L229.5666,39.55555555555554L230.0166,59.33333333333334L230.3166,98.8888888888889L230.54160000000002,39.55555555555554L231.1416,59.33333333333334L231.324975,59.33333333333334L232.299975,39.55555555555554L232.599975,39.55555555555554L232.674975,79.1111111111111L234.09045,59.33333333333334L234.16545,79.1111111111111L234.39045,39.55555555555554L234.91545,98.8888888888889L235.06545,98.8888888888889L235.64677500000002,118.66666666666667L235.77175,118.66666666666667L235.84675000000001,98.8888888888889L236.758475,98.8888888888889L236.90347500000001,98.8888888888889L236.978475,19.7777777777778L237.706975,98.8888888888889L237.903825,79.1111111111111L238.72594999999998,59.33333333333334L238.95095,59.33333333333334L239.10095,79.1111111111111L239.25095,79.1111111111111L240.15095,39.55555555555554L241.42595,79.1111111111111L241.80095,98.8888888888889L242.55095,79.1111111111111L242.989,118.66666666666667L243.51399999999998,59.33333333333334L243.974975,79.1111111111111L244.12497499999998,39.55555555555554L244.424975,118.66666666666667L244.949975,39.55555555555554L245.02497499999998,39.55555555555554L245.099975,98.8888888888889L245.849975,59.33333333333334L247.049975,118.66666666666667L247.424975,59.33333333333334L247.799975,79.1111111111111L248.17497500000002,79.1111111111111L248.249975,118.66666666666667L248.38055,98.8888888888889L248.59445,59.33333333333334L249.255075,118.66666666666667L249.486975,138.44444444444446L249.561975,118.66666666666667L249.879,118.66666666666667L250.100075,118.66666666666667L250.150125,138.44444444444446L250.66989999999998,118.66666666666667L250.825825,138.44444444444446L250.85660000000001,118.66666666666667L250.989775,118.66666666666667L251.11669999999998,138.44444444444446L251.1917,138.44444444444446L251.26670000000001,98.8888888888889L251.31587499999998,98.8888888888889L251.61567499999998,118.66666666666667L251.75912499999998,98.8888888888889L251.984125,59.33333333333334L252.059125,118.66666666666667L252.12735,118.66666666666667L252.20037499999998,138.44444444444446L252.34045,138.44444444444446L252.56545,118.66666666666667L252.64045000000002,98.8888888888889L253.0702,118.66666666666667L253.5202,59.33333333333334L253.66340000000002,118.66666666666667L253.8884,79.1111111111111L254.7537,98.8888888888889L255.34255000000002,138.44444444444446L255.41755,39.55555555555554L255.49255,59.33333333333334L255.94255,39.55555555555554L256.474975,59.33333333333334L256.849975,79.1111111111111L257.374975,98.8888888888889L257.674975,79.1111111111111L258.349975,59.33333333333334L258.799975,79.1111111111111L258.94855,79.1111111111111L259.17127500000004,118.66666666666667L259.696275,39.55555555555554L260.146275,39.55555555555554L260.342575,98.8888888888889L260.492575,118.66666666666667L260.56757500000003,59.33333333333334L261.242575,59.33333333333334L261.95155,98.8888888888889L262.02655,59.33333333333334L262.64997500000004,39.55555555555554L263.5006,39.55555555555554L263.72560000000004,79.1111111111111L263.9506,59.33333333333334L264.92560000000003,39.55555555555554L265.5256,79.1111111111111L266.111625,79.1111111111111L266.14322500000003,118.66666666666667L266.30985,98.8888888888889L266.410175,98.8888888888889L266.48494999999997,98.8888888888889L267.477825,138.44444444444446L267.8932,79.1111111111111L268.0432,79.1111111111111L269.199975,59.33333333333334L269.724975,59.33333333333334L270.17497499999996,39.55555555555554L270.399975,59.33333333333334L270.474975,19.7777777777778L270.699975,59.33333333333334L270.924975,59.33333333333334L271.440025,59.33333333333334L271.87284999999997,39.55555555555554L272.0019,59.33333333333334L272.0769,79.1111111111111L272.1519,59.33333333333334L272.6019,59.33333333333334L272.9769,79.1111111111111L273.9519,39.55555555555554L274.9269,98.8888888888889" style="fill: none;" fill="none"></path></g></g></g></g></g></g><g transform="translate(30, 178)" clip-path="url(#clip_1)"><clipPath id="clip_1"><rect width="300" height="22"></rect></clipPath><g><g><line x1="0" y1="0" x2="0" y2="5" style="visibility: inherit;" fill="rgb(0, 0, 0)" stroke="rgb(204, 204, 204)" stroke-width="1px"></line><line x1="25" y1="0" x2="25" y2="5" style="visibility: inherit;" fill="rgb(0, 0, 0)" stroke="rgb(204, 204, 204)" stroke-width="1px"></line><line x1="50" y1="0" x2="50" y2="5" style="visibility: inherit;" fill="rgb(0, 0, 0)" stroke="rgb(204, 204, 204)" stroke-width="1px"></line><line x1="75" y1="0" x2="75" y2="5" style="visibility: inherit;" fill="rgb(0, 0, 0)" stroke="rgb(204, 204, 204)" stroke-width="1px"></line><line x1="100" y1="0" x2="100" y2="5" style="visibility: inherit;" fill="rgb(0, 0, 0)" stroke="rgb(204, 204, 204)" stroke-width="1px"></line><line x1="125" y1="0" x2="125" y2="5" style="visibility: inherit;" fill="rgb(0, 0, 0)" stroke="rgb(204, 204, 204)" stroke-width="1px"></line><line x1="150" y1="0" x2="150" y2="5" style="visibility: inherit;" fill="rgb(0, 0, 0)" stroke="rgb(204, 204, 204)" stroke-width="1px"></line><line x1="175" y1="0" x2="175" y2="5" style="visibility: inherit;" fill="rgb(0, 0, 0)" stroke="rgb(204, 204, 204)" stroke-width="1px"></line><line x1="200" y1="0" x2="200" y2="5" style="visibility: inherit;" fill="rgb(0, 0, 0)" stroke="rgb(204, 204, 204)" stroke-width="1px"></line><line x1="225" y1="0" x2="225" y2="5" style="visibility: inherit;" fill="rgb(0, 0, 0)" stroke="rgb(204, 204, 204)" stroke-width="1px"></line><line x1="250" y1="0" x2="250" y2="5" style="visibility: inherit;" fill="rgb(0, 0, 0)" stroke="rgb(204, 204, 204)" stroke-width="1px"></line><line x1="275" y1="0" x2="275" y2="5" style="visibility: inherit;" fill="rgb(0, 0, 0)" stroke="rgb(204, 204, 204)" stroke-width="1px"></line><line x1="300" y1="0" x2="300" y2="5" style="visibility: inherit;" fill="rgb(0, 0, 0)" stroke="rgb(204, 204, 204)" stroke-width="1px"></line></g><g transform="translate(0, 8)"><text x="0" y="0" dx="0em" dy="0.95em" style="text-anchor: middle; visibility: hidden; font-family: &quot;Helvetica Neue&quot;, sans-serif; font-size: 12px; font-weight: 200;" fill="rgb(50, 49, 63)" stroke="none" stroke-width="1px">-1M</text><text x="25" y="0" dx="0em" dy="0.95em" style="text-anchor: middle; visibility: inherit; font-family: &quot;Helvetica Neue&quot;, sans-serif; font-size: 12px; font-weight: 200;" fill="rgb(50, 49, 63)" stroke="none" stroke-width="1px">0</text><text x="50" y="0" dx="0em" dy="0.95em" style="text-anchor: middle; visibility: inherit; font-family: &quot;Helvetica Neue&quot;, sans-serif; font-size: 12px; font-weight: 200;" fill="rgb(50, 49, 63)" stroke="none" stroke-width="1px">1M</text><text x="75" y="0" dx="0em" dy="0.95em" style="text-anchor: middle; visibility: inherit; font-family: &quot;Helvetica Neue&quot;, sans-serif; font-size: 12px; font-weight: 200;" fill="rgb(50, 49, 63)" stroke="none" stroke-width="1px">2M</text><text x="100" y="0" dx="0em" dy="0.95em" style="text-anchor: middle; visibility: inherit; font-family: &quot;Helvetica Neue&quot;, sans-serif; font-size: 12px; font-weight: 200;" fill="rgb(50, 49, 63)" stroke="none" stroke-width="1px">3M</text><text x="125" y="0" dx="0em" dy="0.95em" style="text-anchor: middle; visibility: inherit; font-family: &quot;Helvetica Neue&quot;, sans-serif; font-size: 12px; font-weight: 200;" fill="rgb(50, 49, 63)" stroke="none" stroke-width="1px">4M</text><text x="150" y="0" dx="0em" dy="0.95em" style="text-anchor: middle; visibility: inherit; font-family: &quot;Helvetica Neue&quot;, sans-serif; font-size: 12px; font-weight: 200;" fill="rgb(50, 49, 63)" stroke="none" stroke-width="1px">5M</text><text x="175" y="0" dx="0em" dy="0.95em" style="text-anchor: middle; visibility: inherit; font-family: &quot;Helvetica Neue&quot;, sans-serif; font-size: 12px; font-weight: 200;" fill="rgb(50, 49, 63)" stroke="none" stroke-width="1px">6M</text><text x="200" y="0" dx="0em" dy="0.95em" style="text-anchor: middle; visibility: inherit; font-family: &quot;Helvetica Neue&quot;, sans-serif; font-size: 12px; font-weight: 200;" fill="rgb(50, 49, 63)" stroke="none" stroke-width="1px">7M</text><text x="225" y="0" dx="0em" dy="0.95em" style="text-anchor: middle; visibility: inherit; font-family: &quot;Helvetica Neue&quot;, sans-serif; font-size: 12px; font-weight: 200;" fill="rgb(50, 49, 63)" stroke="none" stroke-width="1px">8M</text><text x="250" y="0" dx="0em" dy="0.95em" style="text-anchor: middle; visibility: inherit; font-family: &quot;Helvetica Neue&quot;, sans-serif; font-size: 12px; font-weight: 200;" fill="rgb(50, 49, 63)" stroke="none" stroke-width="1px">9M</text><text x="275" y="0" dx="0em" dy="0.95em" style="text-anchor: middle; visibility: inherit; font-family: &quot;Helvetica Neue&quot;, sans-serif; font-size: 12px; font-weight: 200;" fill="rgb(50, 49, 63)" stroke="none" stroke-width="1px">10M</text><text x="300" y="0" dx="0em" dy="0.95em" style="text-anchor: middle; visibility: hidden; font-family: &quot;Helvetica Neue&quot;, sans-serif; font-size: 12px; font-weight: 200;" fill="rgb(50, 49, 63)" stroke="none" stroke-width="1px">11M</text></g><line x1="0" y1="0" x2="300" y2="0" fill="rgb(0, 0, 0)" stroke="rgb(204, 204, 204)" stroke-width="1px"></line></g></g></g></g></svg>