<svg viewBox="0 0 330 200" xmlns="http://www.w3.org/2000/svg"><g><g><g><g><g><line x1="50" y1="178" x2="45" y2="178" style="visibility: inherit;" fill="rgb(0, 0, 0)" stroke="rgb(204, 204, 204)" stroke-width="1px"></line><line x1="50" y1="165.28571428571428" x2="45" y2="165.28571428571428" style="visibility: inherit;" fill="rgb(0, 0, 0)" stroke="rgb(204, 204, 204)" stroke-width="1px"></line><line x1="50" y1="152.57142857142856" x2="45" y2="152.57142857142856" style="visibility: inherit;" fill="rgb(0, 0, 0)" stroke="rgb(204, 204, 204)" stroke-width="1px"></line><line x1="50" y1="139.85714285714286" x2="45" y2="139.85714285714286" style="visibility: inherit;" fill="rgb(0, 0, 0)" stroke="rgb(204, 204, 204)" stroke-width="1px"></line><line x1="50" y1="127.14285714285712" x2="45" y2="127.14285714285712" style="visibility: inherit;" fill="rgb(0, 0, 0)" stroke="rgb(204, 204, 204)" stroke-width="1px"></line><line x1="50" y1="114.42857142857142" x2="45" y2="114.42857142857142" style="visibility: inherit;" fill="rgb(0, 0, 0)" stroke="rgb(204, 204, 204)" stroke-width="1px"></line><line x1="50" y1="101.71428571428571" x2="45" y2="101.71428571428571" style="visibility: inherit;" fill="rgb(0, 0, 0)" stroke="rgb(204, 204, 204)" stroke-width="1px"></line><line x1="50" y1="89" x2="45" y2="89" style="visibility: inherit;" fill="rgb(0, 0, 0)" stroke="rgb(204, 204, 204)" stroke-width="1px"></line><line x1="50" y1="76.28571428571429" x2="45" y2="76.28571428571429" style="visibility: inherit;" fill="rgb(0, 0, 0)" stroke="rgb(204, 204, 204)" stroke-width="1px"></line><line x1="50" y1="63.57142857142857" x2="45" y2="63.57142857142857" style="visibility: inherit;" fill="rgb(0, 0, 0)" stroke="rgb(204, 204, 204)" stroke-width="1px"></line><line x1="50" y1="50.857142857142875" x2="45" y2="50.857142857142875" style="visibility: inherit;" fill="rgb(0, 0, 0)" stroke="rgb(204, 204, 204)" stroke-width="1px"></line><line x1="50" y1="38.14285714285714" x2="45" y2="38.14285714285714" style="visibility: inherit;" fill="rgb(0, 0, 0)" stroke="rgb(204, 204, 204)" stroke-width="1px"></line><line x1="50" y1="25.428571428571416" x2="45" y2="25.428571428571416" style="visibility: inherit;" fill="rgb(0, 0, 0)" stroke="rgb(204, 204, 204)" stroke-width="1px"></line><line x1="50" y1="12.714285714285722" x2="45" y2="12.714285714285722" style="visibility: inherit;" fill="rgb(0, 0, 0)" stroke="rgb(204, 204, 204)" stroke-width="1px"></line><line x1="50" y1="0" x2="45" y2="0" style="visibility: inherit;" fill="rgb(0, 0, 0)" stroke="rgb(204, 204, 204)" stroke-width="1px"></line></g><g transform="translate(40, 0)"><text x="0" y="178" dx="0em" dy="0.3em" style="text-anchor: end; visibility: hidden; font-family: &quot;Helvetica Neue&quot;, sans-serif; font-size: 12px; font-weight: 200;" fill="rgb(50, 49, 63)" stroke="none" stroke-width="1px">-1.1</text><text x="0" y="165.28571428571428" dx="0em" dy="0.3em" style="text-anchor: end; visibility: inherit; font-family: &quot;Helvetica Neue&quot;, sans-serif; font-size: 12px; font-weight: 200;" fill="rgb(50, 49, 63)" stroke="none" stroke-width="1px">-1</text><text x="0" y="152.57142857142856" dx="0em" dy="0.3em" style="text-anchor: end; visibility: hidden; font-family: &quot;Helvetica Neue&quot;, sans-serif; font-size: 12px; font-weight: 200;" fill="rgb(50, 49, 63)" stroke="none" stroke-width="1px">-0.9</text><text x="0" y="139.85714285714286" dx="0em" dy="0.3em" style="text-anchor: end; visibility: inherit; font-family: &quot;Helvetica Neue&quot;, sans-serif; font-size: 12px; font-weight: 200;" fill="rgb(50, 49, 63)" stroke="none" stroke-width="1px">-0.8</text><text x="0" y="127.14285714285712" dx="0em" dy="0.3em" style="text-anchor: end; visibility: hidden; font-family: &quot;Helvetica Neue&quot;, sans-serif; font-size: 12px; font-weight: 200;" fill="rgb(50, 49, 63)" stroke="none" stroke-width="1px">-0.7</text><text x="0" y="114.42857142857142" dx="0em" dy="0.3em" style="text-anchor: end; visibility: inherit; font-family: &quot;Helvetica Neue&quot;, sans-serif; font-size: 12px; font-weight: 200;" fill="rgb(50, 49, 63)" stroke="none" stroke-width="1px">-0.6</text><text x="0" y="101.71428571428571" dx="0em" dy="0.3em" style="text-anchor: end; visibility: hidden; font-family: &quot;Helvetica Neue&quot;, sans-serif; font-size: 12px; font-weight: 200;" fill="rgb(50, 49, 63)" stroke="none" stroke-width="1px">-0.5</text><text x="0" y="89" dx="0em" dy="0.3em" style="text-anchor: end; visibility: inherit; font-family: &quot;Helvetica Neue&quot;, sans-serif; font-size: 12px; font-weight: 200;" fill="rgb(50, 49, 63)" stroke="none" stroke-width="1px">-0.4</text><text x="0" y="76.28571428571429" dx="0em" dy="0.3em" style="text-anchor: end; visibility: hidden; font-family: &quot;Helvetica Neue&quot;, sans-serif; font-size: 12px; font-weight: 200;" fill="rgb(50, 49, 63)" stroke="none" stroke-width="1px">-0.3</text><text x="0" y="63.57142857142857" dx="0em" dy="0.3em" style="text-anchor: end; visibility: inherit; font-family: &quot;Helvetica Neue&quot;, sans-serif; font-size: 12px; font-weight: 200;" fill="rgb(50, 49, 63)" stroke="none" stroke-width="1px">-0.2</text><text x="0" y="50.857142857142875" dx="0em" dy="0.3em" style="text-anchor: end; visibility: hidden; font-family: &quot;Helvetica Neue&quot;, sans-serif; font-size: 12px; font-weight: 200;" fill="rgb(50, 49, 63)" stroke="none" stroke-width="1px">-0.1</text><text x="0" y="38.14285714285714" dx="0em" dy="0.3em" style="text-anchor: end; visibility: inherit; font-family: &quot;Helvetica Neue&quot;, sans-serif; font-size: 12px; font-weight: 200;" fill="rgb(50, 49, 63)" stroke="none" stroke-width="1px">0</text><text x="0" y="25.428571428571416" dx="0em" dy="0.3em" style="text-anchor: end; visibility: hidden; font-family: &quot;Helvetica Neue&quot;, sans-serif; font-size: 12px; font-weight: 200;" fill="rgb(50, 49, 63)" stroke="none" stroke-width="1px">0.1</text><text x="0" y="12.714285714285722" dx="0em" dy="0.3em" style="text-anchor: end; visibility: inherit; font-family: &quot;Helvetica Neue&quot;, sans-serif; font-size: 12px; font-weight: 200;" fill="rgb(50, 49, 63)" stroke="none" stroke-width="1px">0.2</text><text x="0" y="0" dx="0em" dy="0.3em" style="text-anchor: end; visibility: hidden; font-family: &quot;Helvetica Neue&quot;, sans-serif; font-size: 12px; font-weight: 200;" fill="rgb(50, 49, 63)" stroke="none" stroke-width="1px">0.3</text></g><line x1="50" y1="0" x2="50" y2="178" fill="rgb(0, 0, 0)" stroke="rgb(204, 204, 204)" stroke-width="1px"></line></g></g><g transform="translate(50, 0)" clip-path="url(#clip_0)"><clipPath id="clip_0"><rect width="280" height="178"></rect></clipPath><g><g><g><line x1="0" y1="0" x2="0" y2="178" fill="rgb(0, 0, 0)" stroke="rgb(60, 60, 60)" stroke-width="1px" opacity="0.25"></line><line x1="23.333333333333332" y1="0" x2="23.333333333333332" y2="178" fill="rgb(0, 0, 0)" stroke="rgb(60, 60, 60)" stroke-width="1px" opacity="0.25"></line><line x1="46.666666666666664" y1="0" x2="46.666666666666664" y2="178" fill="rgb(0, 0, 0)" stroke="rgb(60, 60, 60)" stroke-width="1px" opacity="0.25"></line><line x1="70" y1="0" x2="70" y2="178" fill="rgb(0, 0, 0)" stroke="rgb(60, 60, 60)" stroke-width="1px" opacity="0.25"></line><line x1="93.33333333333333" y1="0" x2="93.33333333333333" y2="178" fill="rgb(0, 0, 0)" stroke="rgb(60, 60, 60)" stroke-width="1px" opacity="0.25"></line><line x1="116.66666666666667" y1="0" x2="116.66666666666667" y2="178" fill="rgb(0, 0, 0)" stroke="rgb(60, 60, 60)" stroke-width="1px" opacity="0.25"></line><line x1="140" y1="0" x2="140" y2="178" fill="rgb(0, 0, 0)" stroke="rgb(60, 60, 60)" stroke-width="1px" opacity="0.25"></line><line x1="163.33333333333334" y1="0" x2="163.33333333333334" y2="178" fill="rgb(0, 0, 0)" stroke="rgb(60, 60, 60)" stroke-width="1px" opacity="0.25"></line><line x1="186.66666666666666" y1="0" x2="186.66666666666666" y2="178" fill="rgb(0, 0, 0)" stroke="rgb(60, 60, 60)" stroke-width="1px" opacity="0.25"></line><line x1="210" y1="0" x2="210" y2="178" fill="rgb(0, 0, 0)" stroke="rgb(60, 60, 60)" stroke-width="1px" opacity="0.25"></line><line x1="233.33333333333334" y1="0" x2="233.33333333333334" y2="178" fill="rgb(0, 0, 0)" stroke="rgb(60, 60, 60)" stroke-width="1px" opacity="0.25"></line><line x1="256.66666666666663" y1="0" x2="256.66666666666663" y2="178" fill="rgb(0, 0, 0)" stroke="rgb(60, 60, 60)" stroke-width="1px" opacity="0.25"></line><line x1="280" y1="0" x2="280" y2="178" fill="rgb(0, 0, 0)" stroke="rgb(60, 60, 60)" stroke-width="1px" opacity="0.25"></line></g><g><line x1="0" y1="178" x2="280" y2="178" fill="rgb(0, 0, 0)" stroke="rgb(60, 60, 60)" stroke-width="1px" opacity="0.25"></line><line x1="0" y1="165.28571428571428" x2="280" y2="165.28571428571428" fill="rgb(0, 0, 0)" stroke="rgb(60, 60, 60)" stroke-width="1px" opacity="0.25"></line><line x1="0" y1="152.57142857142856" x2="280" y2="152.57142857142856" fill="rgb(0, 0, 0)" stroke="rgb(60, 60, 60)" stroke-width="1px" opacity="0.25"></line><line x1="0" y1="139.85714285714286" x2="280" y2="139.85714285714286" fill="rgb(0, 0, 0)" stroke="rgb(60, 60, 60)" stroke-width="1px" opacity="0.25"></line><line x1="0" y1="127.14285714285712" x2="280" y2="127.14285714285712" fill="rgb(0, 0, 0)" stroke="rgb(60, 60, 60)" stroke-width="1px" opacity="0.25"></line><line x1="0" y1="114.42857142857142" x2="280" y2="114.42857142857142" fill="rgb(0, 0, 0)" stroke="rgb(60, 60, 60)" stroke-width="1px" opacity="0.25"></line><line x1="0" y1="101.71428571428571" x2="280" y2="101.71428571428571" fill="rgb(0, 0, 0)" stroke="rgb(60, 60, 60)" stroke-width="1px" opacity="0.25"></line><line x1="0" y1="89" x2="280" y2="89" fill="rgb(0, 0, 0)" stroke="rgb(60, 60, 60)" stroke-width="1px" opacity="0.25"></line><line x1="0" y1="76.28571428571429" x2="280" y2="76.28571428571429" fill="rgb(0, 0, 0)" stroke="rgb(60, 60, 60)" stroke-width="1px" opacity="0.25"></line><line x1="0" y1="63.57142857142857" x2="280" y2="63.57142857142857" fill="rgb(0, 0, 0)" stroke="rgb(60, 60, 60)" stroke-width="1px" opacity="0.25"></line><line x1="0" y1="50.857142857142875" x2="280" y2="50.857142857142875" fill="rgb(0, 0, 0)" stroke="rgb(60, 60, 60)" stroke-width="1px" opacity="0.25"></line><line x1="0" y1="38.14285714285714" x2="280" y2="38.14285714285714" fill="rgb(0, 0, 0)" stroke="rgb(60, 60, 60)" stroke-width="1px" opacity="0.25"></line><line x1="0" y1="25.428571428571416" x2="280" y2="25.428571428571416" fill="rgb(0, 0, 0)" stroke="rgb(60, 60, 60)" stroke-width="1px" opacity="0.25"></line><line x1="0" y1="12.714285714285722" x2="280" y2="12.714285714285722" fill="rgb(0, 0, 0)" stroke="rgb(60, 60, 60)" stroke-width="1px" opacity="0.25"></line><line x1="0" y1="0" x2="280" y2="0" fill="rgb(0, 0, 0)" stroke="rgb(60, 60, 60)" stroke-width="1px" opacity="0.25"></line></g></g></g><g><g><line x1="0" y1="38.14285714285714" x2="280" y2="38.14285714285714" fill="rgb(0, 0, 0)" stroke="rgb(153, 153, 153)" stroke-width="1.5px"></line></g></g><g><g><line x1="23.333333333333332" y1="0" x2="23.333333333333332" y2="178" fill="rgb(0, 0, 0)" stroke="rgb(153, 153, 153)" stroke-width="1.5px"></line></g></g><g><g><g><g><g><path stroke="rgb(255, 112, 67)" stroke-width="2px" d="M23.560319999999997,145.60850937025887L23.84704,110.01267633906433L23.88288,113.28406282798888L24.193493333333333,116.78518656904205L24.46826666666667,118.1691927682825L25.197013333333334,130.01208851944315L25.23285333333333,127.28734274272082L25.340373333333336,136.63737159497475L26.08106666666667,137.34215153898117L26.1408,136.3968729216408L26.39168,137.21082367260487L26.535040000000002,128.86899151948575L26.60672,135.31076627426717L27.024853333333333,131.92437881623107L27.048746666666666,116.48461410089571L27.14432,117.63568620466495L27.490773333333333,121.39187386669875L27.729706666666665,115.26003701819153L28.374826666666664,123.6708426119475L28.840746666666668,126.55344921912152L29.008,127.40494954164325L29.748693333333332,131.88017700215988L30.07125333333333,133.821883674452L30.2624,135.18016374087446L30.346026666666667,128.8072851569611L30.35797333333333,134.49771710526966L30.752213333333334,127.80660547816697L30.91946666666667,138.90095795497174L31.074773333333333,128.09739893695956L31.242026666666668,116.65485826502353L31.361493333333332,119.2958775852442L31.8752,107.0271829195408L31.970773333333334,117.43672867476948L32.06634666666667,127.75075671848862L32.48448,127.59585018610363L32.532266666666665,116.96009275636808L32.55616,126.21777093115607L32.72341333333333,120.88315397897699L32.74730666666667,125.32595000302777L32.830933333333334,130.4327996692224L32.92650666666667,126.66376418124887L32.99818666666667,121.60609390812294L33.33269333333333,111.37133674099587L34.63488,111.95284654586665L34.94549333333333,124.69176854302131L34.95744,120.64491054583539L35.02912,120.36716096415728L35.1008,124.28032799942616L35.315839999999994,129.75120823619181L35.35168,128.79323831222126L35.4592,123.7299688757512L36.04458666666667,113.77028064646012L36.08042666666667,123.04516355058365L36.15210666666666,133.6183615471965L36.22378666666666,130.76857192535155L36.40298666666666,119.71237176701663L36.474666666666664,123.99988621159775L36.534400000000005,129.2731693436346L37.15562666666666,128.59523877201323L37.215360000000004,124.40192282275189L37.227306666666664,126.15897256010842L37.442346666666666,129.27180040999698L37.597653333333334,127.08564967076362L38.20693333333334,121.25614370543839L38.41002666666667,123.34847059205053L39.06709333333333,116.2090753252882L39.10293333333333,108.19455988023151L39.27018666666667,116.28026960210653L39.317973333333335,122.91416729638965L39.89141333333333,121.96378190521678L39.97504,116.05818156040561L40.23786666666667,108.95387594483408L40.38122666666666,115.41041372509922L40.50069333333333,123.46208609516695L40.859093333333334,120.68024579936005L40.99050666666667,106.18505772333158L41.08608,117.7918271019337L41.15776,114.9847953265049L41.54005333333333,116.57666834776711L41.88650666666666,114.88177718102573L42.07765333333334,105.31537484923214L42.268800000000006,100.57887675983093L42.316586666666666,108.70509790212485L42.519679999999994,108.2706305434142L42.93781333333334,104.17102795114552L43.43957333333333,106.4304420240377L43.54709333333333,110.29673132737689L43.67850666666667,114.19089470768101L43.76213333333334,120.55871746305814L43.86965333333333,125.16737293988407L44.03690666666667,128.57450017803873L44.0608,133.31591643122073L44.096639999999994,134.58354816146465L44.62229333333333,128.63807615650927L45.159893333333336,117.29512026232706L45.37493333333333,117.59251761458222L45.48245333333333,120.19905398926849L45.63776,122.0391322736161L45.67359999999999,120.11405501833575L45.76917333333333,123.06886281839192L46.247040000000005,109.38377744121063L46.45013333333333,113.64216447825001L46.5696,108.92072665238666L46.60544,110.47181933335749L47.25056000000001,104.03384967572859L47.39392,104.08671736333336L47.66869333333333,103.39188467204141L48.11072,112.81369512692261L48.14656,105.25681998551418L48.15850666666666,111.53523532964817L48.254079999999995,112.3545816173947L48.30186666666667,105.31726630428497L48.385493333333336,111.84033287533134L49.01866666666667,102.10301613703459L49.102293333333336,102.70676704752924L49.472640000000006,106.74611416506715L49.520426666666665,110.59779638676612L49.616,98.61315816675031L49.711573333333334,100.93290832914695L49.75936,111.90932246527032L49.99829333333333,109.88705329841093L50.05802666666667,108.76442532643252L50.06997333333333,92.04858133139952L50.12970666666667,86.63722342303753L50.30890666666667,97.12788982932868L50.36864,104.33138008987538L50.59562666666667,112.00901121797683L50.786773333333336,107.10451116248339L50.90624,111.30832840595126L51.049600000000005,109.96211845121584L51.360213333333334,110.61101541952799L51.467733333333335,111.67154284056218L51.88586666666667,97.26839960485981L51.89781333333333,101.20353354223455L51.921706666666665,99.31647539177554L52.44736,109.53712467489338L52.54293333333334,99.33495560455651L52.65045333333333,90.80038391026287L52.674346666666665,93.9676191170786L52.73408,92.91854310988033L53.03274666666667,88.92224157768531L53.044693333333335,91.0626709141274L53.16416,92.02264375810604L53.188053333333336,101.33614618375766L53.24778666666666,109.59414505921438L53.41504,106.33611414750852L53.48672,101.85182113770337L53.59424,105.24939171183605L53.77344,110.05667075937093L53.84512,108.34603005304993L54.47829333333333,107.7912799150479L55.42208,101.9731648838105L55.637119999999996,100.94643624619991L56.07914666666667,96.36208036284314L56.2464,96.17844481058177L56.66453333333333,90.4623367611943L57.656106666666666,94.75007200556693L57.94282666666666,84.99407524570728L58.791039999999995,79.98569462208604L58.88661333333333,79.31800643253376L59.31669333333333,84.93071323253118L59.54368,87.05423732086746L59.639253333333336,93.81474588972593L59.675093333333336,97.55124656697328L60.368,95.8369429506417L61.108693333333335,94.50072101169731L61.29984,98.3100968496266L61.51488,90.75929183682238L61.526826666666665,94.59261102373519L61.93301333333333,92.6051401992064L62.05248,83.90405811663993L62.088319999999996,81.31970408352417L62.10026666666666,87.43420749693719L62.12416,89.04163184892045L62.13610666666667,90.63166188335109L62.43477333333333,87.85642186058404L62.829013333333336,84.41614026918572L63.30688,87.15626646251502L63.67722666666666,87.20665195345636L63.999786666666665,88.8826576465524L64.05951999999999,86.47491375002774L64.32234666666666,80.35276336649025L64.54933333333334,78.28177837836127L64.72853333333333,75.74009769827266L64.91968,64.81378836605462L65.26613333333334,66.22434106061681L65.30197333333334,60.446189202690775L65.60064,61.71867975037205L66.35328,63.54931307442389L66.56832,60.90476376350591L66.59221333333333,63.67513961941097L66.61610666666667,64.33153462363198L66.68778666666667,57.34570969570568L67.02229333333334,57.525860295978816L67.18954666666666,56.576171625002246L67.85856,47.76014651046549L67.90634666666666,47.48805318500695L68.03776,49.52115930623896L68.65898666666666,59.3348850782851L68.90986666666667,54.77517463167206L68.9696,56.744379843812226L68.99349333333333,62.05977807715851L69.11296,70.8097270215641L69.5072,61.1135794383767L69.65056,55.722680555389445L70.27178666666667,51.63882999303024L70.60629333333334,48.351523168405976L70.9408,49.12196820485994L71.39477333333333,49.663906324385636L71.52618666666666,43.50418103310491L71.56202666666667,43.55864383366378L72.24298666666667,43.93965962197669L72.30272000000001,51.41048672085492L72.43413333333334,47.28720295450381L73.30624,45.67418979248751L73.4496,43.57699498810041L73.47349333333334,48.56147315241921L73.53322666666666,50.66406381212488L73.54517333333334,57.01092523556072L73.84384,53.281633197024746L73.90357333333333,49.639070002205614L73.93941333333333,46.10455763814895L74.03498666666667,50.8506204361118L74.27392,46.18767282171572L74.30976000000001,48.449940097012416L74.50090666666667,43.211501629160836L74.76373333333333,41.912682830078154L74.91904,47.497672271002955L74.94293333333334,45.82678685647144L75.54026666666667,51.143138066728824L75.82698666666666,52.84254934707707L75.91061333333333,48.39842399719441L75.98229333333333,45.96965217023373L76.26901333333333,43.07721941397017L76.30485333333333,41.18872884821931L77.00970666666666,52.20450751729035L77.2128,48.58420631053667L77.46368000000001,45.16687164207727L78.03712,43.822281756148186L78.07296000000001,48.14922157074878L78.26410666666668,49.97713859593961L78.63445333333333,53.314264585301416L78.96896,54.60325951815298L79.06453333333333,44.99636020071554L79.11232000000001,44.173234819217015L79.20789333333333,42.84341345615934L79.64992,42.295812153998696L79.70965333333334,42.68442974510239L80.09194666666667,41.82644319334807L80.18752,45.42757052233753L80.29504,43.89087525700381L80.54592,43.29878575619966L80.68928,43.28373580074171L80.71317333333333,47.77540953693304L81.16714666666667,44.53610622896687L81.31050666666667,44.23733468234329L81.81226666666666,42.04005064339174L82.62464,41.07971590578143L82.73216000000001,38.09627619448483L82.76799999999999,41.94856117660851L83.67594666666666,42.31052161665076L83.69984000000001,41.059756835979385L83.71178666666667,36.136977268523424L84.34496,43.46371086434513L84.67946666666667,47.328208720660115L85.25290666666666,47.17666879141598L85.46794666666666,48.78075547891845L85.93386666666666,45.665648473710604L86.5312,51.11534031236815L87.00906666666667,42.019917328044784L87.20021333333334,42.69978357572174L87.36746666666667,43.673664012578314L88.09621333333332,41.39423914676024L88.35904000000001,35.08093400808383L88.99221333333334,39.40107020828171L89.23114666666666,39.796809704943485L89.25504,40.49437567531274L89.63733333333333,40.65328575464184L89.92405333333333,39.71878911433555L90.09130666666667,40.45014032350741L90.60501333333333,39.82712754762585L90.93952,40.38175347200027L90.96341333333334,40.87807623382716L91.0112,40.23690352299738L91.19040000000001,40.19368461186332L91.68021333333334,39.68598209675082L91.71605333333332,37.891130895905434L92.34922666666667,39.18360967427057L92.71957333333333,39.34641690365072L92.73151999999999,39.39437723611607L92.93461333333333,40.49681237823938L92.97045333333334,40.41257774055873L93.37664000000001,45.974815031925374L93.40053333333333,49.8040136411596L93.48416,46.57757947533182L93.91423999999999,43.947122246726906L94.16512,47.56186727838275L94.45184,49.06264504543023L94.51157333333335,56.38184382511679L94.58325333333333,50.215368734687175L94.90581333333333,48.91256904161207L95.14474666666666,47.69656596600467L95.20447999999999,46.163012073837166L95.38368,42.21262208243073L95.44341333333334,49.819682333587764L95.95712,49.42737367630295L96.25578666666667,45.91494219210492L96.27968,43.698263540819056L96.47082666666667,42.00259764745263L96.59029333333334,46.58682186797773L97.18762666666666,44.30143491180334L97.41461333333334,42.652160417404474L97.56992,43.91620397308614L97.6416,41.67532242495483L97.79690666666667,41.51902225772025L98.47786666666667,42.332617130123225L98.75264,35.86782998559292L98.81237333333334,38.49873292022255L99.09909333333333,35.573144062087465L99.23050666666667,37.8751239324109L99.36192,44.6442489182223L99.51722666666666,41.66422559724862L99.80394666666668,47.37901800474634L100.93888,43.901284984250395L100.95082666666667,47.18317111819954L100.99861333333334,45.446083938589965L101.23754666666666,43.51455166072324L101.24949333333333,42.09745081570722L101.35701333333333,42.55841740893365L101.88266666666667,43.016269279794415L102.00213333333335,42.42927750459194L102.22912,46.375044517496804L102.87424,43.88663267637634L102.98176000000001,41.03586282416532L103.05344,45.03334696002557L103.12512000000001,45.437775520217656L103.16095999999999,43.30282031779848L103.24458666666666,42.290315181440576L103.34016,47.9550375881353L103.37599999999999,51.765993647898185L103.51935999999999,56.68274908166909L103.84192,58.66324917785822L103.88970666666667,57.06695720313914L104.02112,55.32841427948857L104.96490666666668,53.96985068047685L105.13216,49.894395433896364L105.22773333333333,49.501473875661816L105.40693333333333,44.62504390426966L106.18346666666666,49.496175010578526L106.52992,51.11881480447197L106.56576,48.198878606576756L106.87637333333333,57.674782903103605L107.13919999999999,53.59632309826442L108.05909333333334,51.60454684399333L108.23829333333333,55.368759015048695L108.33386666666667,50.606005833141836L108.60864000000001,48.37589383330936L108.82368,51.366037325730474L109.30154666666667,55.30646607336776L109.55242666666666,53.10937271237512L109.92277333333334,48.57272904305884L110.55594666666667,48.06408509724872L110.68736,48.09593246987441L110.9024,51.617000566445796L111.02186666666667,48.18060864045461L111.03381333333333,55.93716782437025L111.2608,55.632547244637195L111.53557333333333,50.28518724368833L111.76256000000001,48.163793247501985L112.22848,46.91889408110947L112.26432000000001,44.96709552569527L112.34794666666667,49.622559784261966L112.46741333333333,51.67096827275924L112.50325333333333,54.054378649959915L112.56298666666667,49.65967934255852L112.68245333333333,54.475925338673065L113.07669333333334,55.188533568965724L113.30368,50.58773107291218L114.24746666666667,51.76717577808813L114.6656,47.08572237473388L114.86869333333334,43.59823679912279L115.04789333333333,46.11101680986994L115.17930666666666,41.167146215226325L115.25098666666668,40.20419030403045L115.54965333333334,42.14333446630806L115.60938666666667,41.764428473509014L115.66912,42.798075584767275L115.88416000000001,49.57445620957324L116.01557333333334,47.13211861614087L116.05141333333334,43.36036367050423L116.29034666666666,47.18026545884038L116.38592,45.35630905942642L116.50538666666667,42.78280940233867L116.92352,47.90896779644012L116.98325333333334,50.143212575940254L117.712,54.66057422115087L117.72394666666668,51.745889863351195L118.10624,47.93132315336419L118.71552000000001,52.6746933884376L118.81109333333333,51.7981021437362L119.22922666666668,47.51446550027137L119.36064,44.88954409216066L119.504,50.269887905273734L119.70709333333333,48.59084265842415L120.42389333333333,50.222976786665086L120.71061333333334,51.00681012948954L121.06901333333333,46.57794583583666L121.1168,49.118227097999664L121.28405333333333,53.405424579150434L121.48714666666667,48.589933512395504L121.55882666666668,57.41502239572159L122.06058666666667,60.61417123919732L122.25173333333333,52.194871875194195L122.38314666666668,50.06338125363692L122.58623999999999,48.32797775461839L122.82517333333334,45.030266971726036L122.88490666666668,41.77926315521529L122.9088,41.30371874344118L122.98048,40.765591972344595L123.21941333333332,40.06377880922719L123.25525333333333,40.433317053796884L123.31498666666667,40.41017189872045L123.42250666666666,40.90276858935394L124.49770666666667,40.559571703189164L124.50965333333333,40.52006097303075L124.53354666666667,40.152129883458514L124.86805333333334,43.61681459326678L124.92778666666666,41.41852295377626L124.98752,39.7910601205391L125.68042666666668,34.42524694500082L125.99104,37.257108486919776L126.09855999999999,37.699011300063404L126.4928,43.41545344832912L126.50474666666668,41.86012907377619L126.61226666666667,40.90794179619394L127.06624,43.175351304213734L127.16181333333334,43.041760355813494L127.22154666666667,42.80384764663512L127.60384,41.63156552156801L128.16533333333334,43.43833655909722L128.21312,44.57209846255793L128.48789333333332,44.25555047745647L128.70293333333333,43.59383356101682L128.73877333333334,42.559443913350435L128.98965333333334,45.55474541844211L129.12106666666665,51.13329960944736L129.40778666666668,54.262154209867006L129.49141333333333,48.74544964626725L129.69450666666665,45.69210238777487L129.7184,43.46842185144786L129.75424,43.11617635735118L130.00512,48.20810158707215L130.02901333333332,46.23911249050295L130.08874666666668,49.717562786052525L130.22016,56.685793341838405L130.36352,56.283014456842764L130.56661333333335,57.5470774823343L130.78165333333334,51.390730457454126L130.85333333333332,48.370059106915704L130.9728,52.033527178354475L131.19978666666668,59.62605153318064L131.52234666666666,58.55190569296116L131.61792,55.84459224508696L131.8688,49.77409969028869L132.71701333333334,49.39791353242674L133.44576,42.18102351672269L133.56522666666666,42.23959515471779L133.64885333333334,47.463527864947196L133.97141333333335,44.79759354737314L134.22229333333334,44.25680796668223L134.53290666666666,42.89354000926619L134.64042666666666,48.496226676093016L135.02272,41.364940725011934L135.2736,46.33659644941798L135.78730666666667,44.875868585401065L135.82314666666667,43.88107731230372L136.06207999999998,44.0772979157407L136.14570666666665,39.42863669506713L136.45632,44.232524955769975L137.29258666666666,47.848662517028544L137.40010666666666,45.2727578964321L137.48373333333333,43.76730435665519L137.63904,43.1616784913476L137.90186666666665,41.44628389366568L138.03328000000002,40.983887522405126L138.16469333333333,41.82497111753909L138.35584,41.915722398948674L138.64256,41.32618530566725L138.71424000000002,42.34520694470973L138.98901333333333,40.709315901831644L139.20405333333335,40.13698375785785L139.9328,40.08976915921576L140.04032,45.9831530912609L140.56597333333332,44.75903268581831L140.90048,47.28834687768003L140.93632,49.63168150756192L141.41418666666667,45.95763147538392L141.70090666666667,45.14718487659388L142.47744,46.37906185354083L143.40928,49.084296625815995L143.46901333333335,51.882630986293904L143.50485333333336,50.982352141503384L143.67210666666668,45.77984382247527L143.81546666666668,49.25973198647944L144.09024,50.850646688128805L144.16192,47.68788392502043L144.34112,45.23538370992952L144.4128,44.67530243180775L144.53226666666666,43.48266782809844L144.8189866666667,43.188014156177104L145.02208,42.03447603037367L145.28490666666667,46.58028496840416L145.73888,47.38804475986254L145.8702933333333,47.55096749208914L146.10922666666667,43.4461467500864L146.19285333333332,47.58039075608227L146.25258666666667,45.12708691173469L147.54282666666666,51.46441113939943L147.57866666666666,43.86621569474889L147.75786666666667,54.738793298314704L147.8295466666667,49.52528792219289L147.88927999999999,45.17314959311358L148.40298666666666,49.59447531973217L148.53439999999998,46.70635945160413L148.65386666666666,49.41255170865958L148.70165333333333,49.77006532409254L148.7136,43.25113445657428L149.04810666666668,48.33578911761347L149.15562666666665,46.731493357572646L149.43040000000002,45.26227628897564L149.44234666666668,44.99651040816016L149.58570666666665,42.44724252650116L149.95605333333333,41.27894054815411L150.06357333333335,41.24715489128374L150.26666666666665,46.267010162433564L150.3264,48.12612144530877L150.43392,50.273573727835455L150.52949333333333,46.21465797988472L150.62506666666667,44.72582435895313L150.82816000000003,49.17180786986452L151.18656,45.415910754855275L151.30602666666667,42.22802452634832L151.74805333333333,40.98495537978192L151.85557333333333,44.37906177775557L151.86751999999998,47.19554423992591L152.13034666666664,44.53717215651551L152.2139733333333,43.75952251005168L152.54847999999998,48.45131279633384L152.66794666666667,45.74901681541681L152.72768000000002,44.78816361324701L152.85909333333333,42.857745047170766L152.96661333333333,42.42623984241587L153.13386666666668,42.564745961741636L153.58784,40.0164449812099L153.62368,39.25504708908818L154.02986666666666,41.23816089362737L154.07765333333333,40.74347517104306L154.35242666666667,43.13405160093268L154.4241066666667,43.775106192391036L154.448,43.587528241559966L154.92586666666665,42.25820088941674L154.99754666666666,40.78190828772463L155.02144,43.6827017715016L155.15285333333333,43.18530501215011L155.21258666666665,41.55623420952125L155.37984,43.29788302706697L155.48736,41.681928759420884L155.67850666666666,47.46954857955956L155.97717333333333,43.92063558601191L156.20416,43.50687331942149L156.31168,41.56403249398895L156.52671999999998,42.606255792526014L156.84928,47.31960040847176L157.1240533333333,57.199330470934925L157.14794666666666,55.218710275533184L157.15989333333332,61.76593525786883L157.86474666666666,64.12534592241714L157.90058666666667,56.7741989892165L158.00810666666666,50.324445049976276L158.46208,51.173383431528706L158.83242666666666,48.344668576824915L159.07136,45.5484617469956L159.66869333333335,39.26940352429446L159.76426666666669,39.57663364322397L160.19434666666666,33.9188307504823L160.39744000000002,36.50738001650396L160.63637333333332,38.076638008654754L160.97088,42.16736334634717L161.00672,44.05840046449242L161.09034666666668,50.18962191573736L161.11424,48.69972316045738L161.31733333333335,45.40942757903184L161.4129066666667,43.31696226984309L161.52042666666665,42.58128374945292L161.6996266666667,42.55528179570453L161.89077333333333,43.51256596816515L162.35669333333334,50.223031165268196L162.5000533333333,48.70888588551651L162.64341333333334,45.085255170671275L162.77482666666666,41.64508539565179L162.94208,56.13775450407984L162.96597333333332,59.52071116390964L163.39605333333336,57.982435848169644L163.82613333333333,57.693288246305656L164.1486933333333,52.89669687974309L164.22037333333333,53.165479682168765L164.32789333333335,50.65784394366145L164.68629333333334,52.71810467358844L164.97301333333334,49.83546455861409L165.18805333333333,48.67451139358877L165.58229333333333,47.647453030924595L165.90485333333334,46.03729662059581L166.06016000000002,42.92649148258192L166.08405333333332,41.14972898089957L166.09599999999998,40.41259186316262L166.33493333333334,39.70099487395464L166.3946666666667,39.877489753016135L166.56192,36.8319386679903L166.68138666666667,39.65305002138297L166.74112000000002,46.653912415876505L166.82474666666667,46.64004965641004L167.05173333333335,46.22878860671631L167.19509333333332,44.5745933708763L167.61322666666666,41.8899769559014L168.35392000000002,49.13504232356854L168.53312,46.47520514362995L168.66453333333334,45.027637543199404L168.71231999999998,49.916811084187515L168.90346666666667,51.692274446832755L169.29770666666667,46.60016550502252L169.40522666666666,49.606664048916514L169.93088,47.118375765511416L170.16981333333334,45.50034864039105L170.20565333333334,48.863360286641296L170.39679999999998,47.30497545312275L170.58794666666668,47.30479097551367L171.43616,52.09114141234656L171.54368,48.6126065567411L171.91402666666667,46.55781014482412L172.14101333333332,45.58346370419574L172.17685333333333,43.699473061668016L172.43967999999998,42.15511107472864L173.21621333333334,42.44488744965449L173.31178666666668,51.627015080808576L173.56266666666667,48.28737015403277L173.82549333333333,53.67767251571482L174.17194666666666,57.53689281198234L174.7214933333333,54.17339642760581L175.05599999999998,53.25170500569851L175.76085333333333,60.448123721099904L175.952,58.520808367620106L176.32234666666668,51.92043645431582L176.41791999999998,53.279006958646335L176.66879999999998,48.23850622087713L176.96746666666667,45.14580532497163L177.0272,43.71328552501711L177.18250666666665,44.854339457036076L177.33781333333332,42.182664483145004L177.40949333333333,40.61724615903452L177.91125333333335,40.6545899533223L177.9232,40.33733584932716L178.16213333333334,45.174140944792214L178.85504,48.75701647000599L179.05813333333333,46.5774900231869L179.3806933333333,49.323725048122895L179.39264,46.967143214934794L179.48821333333333,44.48810713507072L179.63157333333334,42.42667346575118L179.77493333333334,43.3757309135776L179.95413333333335,47.90379181009419L180.00191999999998,45.44202897762676L180.20501333333334,43.797939376922955L180.42005333333333,47.64214000346385L180.63509333333334,38.07131128370324L180.81429333333332,42.98152348485752L180.93376,42.95848025433517L180.9696,42.18847230320836L181.11296,41.14665810793184L181.12490666666667,40.07346758740334L181.17269333333334,39.53722707350795L181.5072,39.241013671564815L181.81781333333333,44.68079533740911L182.21205333333333,54.63485777714871L182.39125333333334,51.161486932527296L182.82133333333334,47.214452235378445L183.45450666666667,44.50480567040984L183.50229333333334,42.49547602926884L183.74122666666665,42.5075332678781L184.3266133333333,42.036601110671086L184.67306666666664,40.476530794328596L185.17482666666666,42.586024870462325L185.78410666666667,39.379535336146176L185.96330666666665,46.990162697174355L186.05888,44.783348457912666L186.13056,47.833051268398805L186.72789333333333,45.40284739702773L186.76373333333333,43.6833003656258L186.79957333333334,43.11324342466534L186.95487999999997,41.2991422310067L187.27744,40.59540825070778L187.57610666666667,39.43790734692166L187.65973333333332,38.64595667230125L187.92256,39.34515342154609L188.17344,44.99572085761133L188.32874666666666,42.07869345505256L188.74688,40.77027364227561L189.02165333333332,45.548286006768876L189.05749333333333,43.38772812732137L189.21280000000002,42.17238586948304L189.26058666666668,39.138458964562346L189.84597333333335,36.4150560082156L189.85792,43.25350258238069L190.08490666666665,42.096157672072025L190.12074666666666,46.817745042226306L190.22826666666668,45.180710897843426L190.24021333333334,37.47512294156235L190.31189333333333,38.43516099654789L190.55082666666667,39.36667168921409L190.57472,40.379474136661855L191.55434666666667,42.35684496964896L191.62602666666666,41.8339645203873L192.52202666666668,42.312357427039075L192.85653333333335,47.44954312609846L193.23882666666668,43.8967273890934L193.31050666666667,42.03834197985046L193.58528,47.12942697530846L194.02730666666668,43.88282333743871L194.03925333333333,41.768069343663626L194.11093333333335,43.7134913093943L194.21845333333334,45.114907666697604L194.42154666666667,43.948569177949565L194.56490666666667,42.975858633905546L194.63658666666666,49.34264863187326L194.87552000000002,47.48734719036287L194.9233066666667,46.174633348284345L195.21002666666666,43.46345204882002L195.34144,47.75699685250456L195.93877333333333,50.93022746668811L196.2254933333333,53.7675992827636L196.50026666666668,53.10279183785535L196.93034666666665,48.27013278680437L197.21706666666668,40.86881834331729L197.24095999999997,44.49614536289235L197.25290666666666,47.307161704699524L197.96970666666667,50.26565887178711L198.14890666666668,48.47879949128637L198.2205866666667,46.51163623453215L198.57898666666665,46.54872133735864L198.68650666666667,45.00628093636746L198.73429333333334,44.13998241620149L198.80597333333333,48.469402939743844L198.99712,45.18024198261068L199.51082666666667,40.229078724835745L199.65418666666667,39.89264471671248L199.90506666666664,40.60923317725221L199.91701333333333,41.26348844645989L199.9648,39.56343586283069L200.01258666666666,39.51867975997925L200.06037333333333,46.01555582068303L200.26346666666666,37.230886630734034L200.33514666666667,36.78248654030406L200.38293333333334,38.54491245709019L200.70549333333332,39.97053891780979L201.02805333333333,40.29953710780916L201.25503999999998,40.78857514758167L201.63733333333332,41.54204029270136L201.64928,42.39929666859496L201.66122666666666,42.41411402668112L201.94794666666667,42.56151084552397L202.72448,47.505643937546296L202.86783999999997,51.443289620102135L203.62048,47.04990229303877L204.12224,43.233941640601984L204.17002666666667,42.324056673520374L204.69568,41.97092032597021L204.92266666666666,39.608341371296916L205.36469333333332,39.19110447057258L205.72309333333334,40.28508568743911L205.80672,40.68967851364641L205.92618666666667,40.05250416231851L206.14122666666668,40.0191078322095L206.416,40.12347273919187L206.61909333333332,42.75628380967245L206.69077333333334,41.38716948422061L206.7744,35.06385721457505L207.33589333333333,37.88654577889403L207.39562666666666,34.56015490047295L207.58677333333333,37.00827906247983L207.65845333333334,38.30142252233972L207.77792,38.75399386338799L207.99296,39.45788701084413L208.07658666666669,46.01253308223838L208.1960533333333,49.44578918352303L208.21994666666666,48.006036959156006L208.60224,45.22804573748385L208.84117333333336,43.25952998614068L208.97258666666667,40.94760634917046L209.53408,40.86542223983679L209.67744,40.27858682767044L209.80885333333333,40.61908822065459L210.57344,39.91255937134886L210.94378666666665,39.6013107801098L211.38581333333335,41.19935119264744L211.67253333333335,46.67035346098797L211.78005333333334,44.22201648212024L211.85173333333333,42.59127498694471L212.03093333333334,44.368153193335445L212.23402666666667,42.9921763097546L212.40128,42.151966608951L212.43712000000002,42.892287013933185L212.66410666666667,42.5962541227712L212.89109333333332,42.16152865014942L213.84682666666666,42.11688071064208L214.24106666666665,41.29432409044196L214.33664,47.59613301179462L214.40832,44.533746557045475L214.69504,42.89814762952156L214.70698666666667,42.16234562165019L215.16096,46.67187876749492L215.48352,44.818234034937774L215.62688,44.08739952529626L215.82997333333333,42.16688685203971L215.87776,40.77509231107376L216.58261333333334,40.095693813505875L216.73792,45.849874011721056L216.85738666666666,44.689455283481806L216.90517333333332,43.66894562326095L217.20383999999999,42.214239156012525L217.46666666666664,42.3208803888179L218.32682666666668,47.44691490694558L218.58965333333333,44.8081194034242L218.63744,43.56106193148378L218.66133333333335,42.74560087449467L218.67328,47.43667400963801L218.7927466666667,43.76638849109264L219.03168,57.62753960465443L219.34229333333334,51.47783688079065L219.74848,51.646242965626044L219.856,48.4769248652093L220.52501333333333,47.14756611937648L221.17013333333333,44.51505589755993L221.48074666666665,42.072201877275404L221.54048,41.01940252172733L221.7794133333333,48.84032493192342L222.38869333333335,45.11186651822388L222.43648000000002,50.314551536573006L222.81877333333333,46.95697810099222L223.40416000000002,46.198571031791715L223.64309333333333,48.42867535936145L224.02538666666666,44.98515588725138L224.14485333333332,42.34580338759173L224.1568,40.76381114063784L224.45546666666667,41.677496996578896L224.5152,41.3914607688275L224.56298666666666,45.20344194234616L224.73024,43.235042091547115L225.232,41.84037284643483L225.53066666666666,45.33574842907464L226.42666666666665,44.12999159309044L227.22709333333333,42.45655908881716L227.59744,41.41493800252135L228.00362666666666,40.077867408779525L228.01557333333335,39.33464238916244L228.2784,39.41560001851903L228.73237333333336,40.21369603682629L228.79210666666665,41.07557746756376L228.85184,41.38440420812208L228.97130666666666,42.17146909415797L229.29386666666667,40.10634753162137L229.30581333333333,34.300757901482314L229.38943999999998,35.51620102684734L229.55669333333333,42.24494777860579L229.68810666666667,41.517381755110506L229.90314666666666,41.10280814176613L229.92704,41.76542873454153L230.20181333333332,43.395477477911925L230.21376,44.09606498389812L230.22570666666667,50.241849525797036L230.26154666666667,55.59633284876972L230.48853333333332,51.09215040802242L230.90666666666667,47.44764571666289L231.06197333333336,44.887657298536794L231.10976,41.223891757832405L231.26506666666668,45.00710469998165L231.27701333333334,48.25436438034325L231.39648,47.39769590954478L231.52789333333334,40.29498928736231L231.64736000000002,47.05589071823363L231.74293333333333,46.19877504824947L231.8624,46.387322562622586L232.44778666666664,46.30075970750306L232.54336,45.98190803547311L232.59114666666667,40.077717319162616L232.92565333333334,47.45111783787385L233.09290666666666,54.47582623883095L233.16458666666665,59.38483612764567L233.33184,70.49846336432935L233.35573333333335,63.04233080516585L233.43936,59.08001860771206L233.48714666666666,62.94337214193632L233.52298666666667,64.09157894009627L233.53493333333333,58.29300801386147L233.58272,52.98928664071897L233.88138666666666,51.98767730985776L234.00085333333334,62.774136282514576L234.04863999999998,58.12261220408996L234.23978666666667,53.779730647082516L234.40704,53.665060611701676L234.83712,50.40297596709701L234.84906666666666,49.35666299836757L234.93269333333333,47.97056313228475L235.06410666666665,46.12134167688495L235.42250666666666,44.77957089412368L235.64949333333334,40.79263389700404L235.66144,42.929657614364174L235.72117333333333,44.225295675051L236.0437333333333,45.47024589996357L236.25877333333335,43.51333171750457L236.49770666666666,36.424678621443206L237.82378666666668,38.95539011140082L237.93130666666667,39.338912239718326L238.12245333333334,39.62601550581928L238.15829333333332,39.81056270281343L238.26581333333334,53.29961750248421L238.60032,54.58636248228842L239.00650666666664,49.5535371883216L239.01845333333335,56.414064425098175L239.12597333333332,54.695513838961375L239.16181333333333,49.71274634055092L239.62773333333334,39.912714695898615L239.80693333333332,39.34007285832513L239.9264,39.90812180688894L240.10559999999998,45.71211778756245L240.12949333333333,47.29266172090075L240.22506666666666,45.472596759091374L240.41621333333333,49.17825165828924L240.42816,46.13563497542145L240.65514666666667,42.234151289507025L240.94186666666667,42.16511182567987L241.20469333333332,43.10189649340984L241.5392,42.53378968548972L241.68256,43.52762422671097L242.18432,47.179879597230666L242.22016,47.36607171295603L242.70997333333332,45.68339217423511L242.80554666666666,43.1784918358571L243.77322666666666,41.43249922180411L243.78517333333332,36.99054503891267L244.82453333333333,38.257708301862465L244.92010666666667,36.16543872739953L245.44576,43.55242090830001L245.45770666666667,54.3155374440649L246.06698666666665,48.06810968654872L246.17450666666667,45.35429372235083L246.78378666666666,42.389395524535956L246.90325333333334,45.00393750891692L246.98687999999999,47.21118868791993L247.0466133333333,46.310103870142825L247.33333333333331,43.463988660656156L247.77536,43.670304540410996L247.97845333333333,32.07640810909504L248.48021333333332,40.635708175998474L249.05365333333333,41.24230246248507L249.07754666666665,41.20533402712741L249.53152,41.47916070023706L249.83018666666666,57.941060498609474L249.86602666666667,57.22113085872617L250.05717333333334,50.65583858924833L250.11690666666667,46.249175553355116L250.17664,44.13200807987235L250.39168,38.606950380912906L250.45141333333333,44.923400116782545L250.51114666666666,43.5459814920807L250.65450666666666,41.398966292543776L250.9053866666667,41.25737361950746L251.46688,41.054764833110994L251.62218666666666,50.256725669112285L251.71776,46.45727466974475L252.15978666666666,39.10048757964947L252.35093333333333,40.6297312062315L252.75712,40.9009813578582L252.88853333333336,40.4406554926216L253.04384,40.99535085730432L253.48586666666668,43.36463667563771L253.56949333333336,42.42702891787056L253.61728,40.95416404111782L253.91594666666668,45.82762099089382L254.22656,44.24479372414106L254.70442666666665,42.762219765599355L255.19424,48.222316673117916L255.20618666666667,46.14462452914256L255.23008000000002,44.74471870277742L255.2898133333333,48.13579584487928L255.88714666666667,45.54980473671688L256.12608,42.83396187301648L256.30528,48.8931949378194L256.34112,52.05014436490188L256.36501333333337,49.28339130650926L256.6039466666667,47.308354051450976L256.6756266666667,50.82309625666316" style="fill: none;" fill="none"></path></g></g></g></g><g opacity="0.2"><g><g><g><path stroke="rgb(255, 112, 67)" stroke-width="2px" d="M23.560319999999997,145.60850937025887L23.84704,88.6551765203476L23.88288,116.42459385735648L24.193493333333333,120.90250808852059L24.46826666666667,119.97615126201083L25.197013333333334,146.39507678576877L25.23285333333333,123.39091268607547L25.340373333333336,150.26980342183793L26.08106666666667,138.38156505993433L26.1408,134.99324434144154L26.39168,138.42436732564653L26.535040000000002,116.40163917200906L26.60672,144.95239489419117L27.024853333333333,126.85143191473824L27.048746666666666,93.34311589172908L27.14432,119.36148253508975L27.490773333333333,127.0245658670153L27.729706666666665,106.06383861814226L28.374826666666664,136.28576970100403L28.840746666666668,130.8770956482206L29.008,128.68215332712447L29.748693333333332,138.59287093366896L30.07125333333333,136.73440534727914L30.2624,137.21756775038583L30.346026666666667,119.24801257678439L30.35797333333333,143.03334076063973L30.752213333333334,117.76995515823364L30.91946666666667,155.54246963773454L31.074773333333333,111.8920703615461L31.242026666666668,99.4910535812378L31.361493333333332,123.25740568978446L31.8752,88.62414336204529L31.970773333333334,133.0510460649218L32.06634666666667,143.22179804529463L32.48448,127.36349039418357L32.532266666666665,101.00645688601902L32.55616,140.1042880501066L32.72341333333333,112.88122860022953L32.74730666666667,131.99014401435852L32.830933333333334,138.09307415144784L32.92650666666667,121.01021095684597L32.99818666666667,114.01958850451877L33.33269333333333,96.01920099769319L34.63488,112.82511125292096L34.94549333333333,143.8001515354429L34.95744,114.57462355068752L35.02912,119.95053659166608L35.1008,130.15007855210985L35.315839999999994,137.957528591156L35.35168,127.35628342628479L35.4592,116.13506472110748L36.04458666666667,98.83074830259595L36.08042666666667,136.95748790672846L36.15210666666666,149.4781585420881L36.22378666666666,126.49388749258858L36.40298666666666,103.12807152952466L36.474666666666664,130.43115787846702L36.534400000000005,137.1830940416881L37.15562666666666,127.5783429145813L37.215360000000004,118.11194889886039L37.227306666666664,128.79454716614313L37.442346666666666,133.9410421848297L37.597653333333334,123.80642356191362L38.20693333333334,112.51188475745064L38.41002666666667,126.48696092196872L39.06709333333333,105.49998242514474L39.10293333333333,96.17278671264648L39.27018666666667,128.40883418491907L39.317973333333335,132.86501383781433L39.89141333333333,120.53820381845746L39.97504,107.1997810431889L40.23786666666667,98.29741752147675L40.38122666666666,125.09522039549691L40.50069333333333,135.53959465026855L40.859093333333334,116.50748535564968L40.99050666666667,84.44227560928888L41.08608,135.20198116983687L41.15776,110.77424766336168L41.54005333333333,118.96447787966046L41.88650666666666,112.33944043091365L42.07765333333334,90.96577135154179L42.268800000000006,93.47412962572915L42.316586666666666,120.89442961556571L42.519679999999994,107.6189295053482L42.93781333333334,98.0216240627425L43.43957333333333,109.81956313337598L43.54709333333333,116.09616528238568L43.67850666666667,120.0321397781372L43.76213333333334,130.11045159612382L43.86965333333333,132.080356155123L44.03690666666667,133.6851910352707L44.0608,140.42804081099374L44.096639999999994,136.48499575683047L44.62229333333333,119.71986814907619L45.159893333333336,100.28068642105374L45.37493333333333,118.03861364296505L45.48245333333333,124.10885855129787L45.63776,124.79924970013755L45.67359999999999,117.2264391354152L45.76917333333333,127.5010745184762L46.247040000000005,88.85614937543869L46.45013333333333,120.02974503380912L46.5696,101.83856991359166L46.60544,112.7984583548137L47.25056000000001,94.37689518928528L47.39392,104.16601889474052L47.66869333333333,102.3496356351035L48.11072,126.94641080924441L48.14656,93.92150727340153L48.15850666666666,120.95285834584917L48.254079999999995,113.5836010490145L48.30186666666667,94.76129333462033L48.385493333333336,121.6249327319009L49.01866666666667,87.49704102958951L49.102293333333336,103.61239341327122L49.472640000000006,112.80513484137398L49.520426666666665,116.37531971931458L49.616,80.6362008367266L49.711573333333334,104.41253357274192L49.75936,128.3739436694554L49.99829333333333,106.85364954812187L50.05802666666667,107.08048336846488L50.06997333333333,66.97481533885002L50.12970666666667,78.52018656049457L50.30890666666667,112.86388943876538L50.36864,115.13661548069545L50.59562666666667,123.525457910129L50.786773333333336,99.74776107924325L50.90624,117.61405427115304L51.049600000000005,107.94280351911272L51.360213333333334,111.5843608719962L51.467733333333335,113.26233397211347L51.88586666666667,75.66368475130625L51.89781333333333,107.10623444829668L51.921706666666665,96.48588816608701L52.44736,124.86809859957013L52.54293333333334,84.03170199905124L52.65045333333333,77.99852636882237L52.674346666666665,98.71847192730222L52.73408,91.34492909908295L53.03274666666667,82.92778927939278L53.044693333333335,94.27331491879055L53.16416,93.46260302407401L53.188053333333336,115.30639982223511L53.24778666666666,121.98114337239946L53.41504,101.44906777994973L53.48672,95.12538162299565L53.59424,110.3457475730351L53.77344,117.26758933067322L53.84512,105.78006899356842L54.47829333333333,106.95915470804486L55.42208,93.24599233695439L55.637119999999996,99.40634328978402L56.07914666666667,89.485546537808L56.2464,95.90299148218972L56.66453333333333,81.88817468711308L57.656106666666666,101.1816748721259L57.94282666666666,70.36008010591779L58.791039999999995,72.47312368665423L58.88661333333333,78.31647414820534L59.31669333333333,93.34977343252727L59.54368,90.23952345337186L59.639253333333336,103.95550874301365L59.675093333333336,103.15599758284432L60.368,93.2654875261443L61.108693333333335,92.49638810328075L61.29984,104.02416060652051L61.51488,79.43308431761605L61.526826666666665,100.34258980410439L61.93301333333333,89.62393396241325L62.05248,70.85243499279022L62.088319999999996,77.44317303385053L62.10026666666666,96.6059626170567L62.12416,91.45276837689536L62.13610666666667,93.01670693499702L62.43477333333333,83.69356182643345L62.829013333333336,79.25571788208825L63.30688,91.26645575250897L63.67722666666666,87.28223018986839L63.999786666666665,91.39666618619646L64.05951999999999,82.86329790524073L64.32234666666666,71.16953779118401L64.54933333333334,75.17530089616776L64.72853333333333,71.92757667813983L64.91968,48.424324367727536L65.26613333333334,68.34017010246005L65.30197333333334,51.77896141580173L65.60064,63.62741557189396L66.35328,66.29526306050164L66.56832,56.93793979712895L66.59221333333333,67.83070340326854L66.61610666666667,65.31612712996346L66.68778666666667,46.866972303816254L67.02229333333334,57.796086196388515L67.18954666666666,55.15163861853736L67.85856,34.53610883866037L67.90634666666666,47.07991319681918L68.03776,52.57081848808697L68.65898666666666,74.05547373635429L68.90986666666667,47.93560896175248L68.9696,59.69818766202245L68.99349333333333,70.03287542717797L69.11296,83.93465043817248L69.5072,46.569358063595644L69.65056,47.63633223090852L70.27178666666667,45.51305414949144L70.60629333333334,43.420562931469505L70.9408,50.27763575954097L71.39477333333333,50.476813503674094L71.52618666666666,34.26459309618389L71.56202666666667,43.64033803450209L72.24298666666667,44.51118330444609L72.30272000000001,62.61672736917224L72.43413333333334,41.10227730497718L73.30624,43.254670049463016L73.4496,40.431202781519715L73.47349333333334,56.03819039889744L73.53322666666666,53.817949801683426L73.54517333333334,66.53121737071446L73.84384,47.68769513922078L73.90357333333333,44.17522520997696L73.93941333333333,40.802789092063904L74.03498666666667,57.9697146330561L74.27392,39.193251400121625L74.30976000000001,51.843341009957456L74.50090666666667,35.35384392738342L74.76373333333333,39.964454631454174L74.91904,55.87515643239021L74.94293333333334,43.320458734674105L75.54026666666667,59.11766488211495L75.82698666666666,55.391666267599376L75.91061333333333,41.73223597237043L75.98229333333333,42.32649442979269L76.26901333333333,38.738570279574816L76.30485333333333,38.35599299959307L77.00970666666666,68.72817552089691L77.2128,43.15375450040614L77.46368000000001,40.04086963938815L78.03712,41.80539692725455L78.07296000000001,54.63963129264968L78.26410666666668,52.71901413372585L78.63445333333333,58.31995356934411L78.96896,56.53675191743034L79.06453333333333,30.58601122455937L79.11232000000001,42.93854674696922L79.20789333333333,40.84868141157287L79.64992,41.47441020075763L79.70965333333334,43.26735613175802L80.09194666666667,40.539463365716585L80.18752,50.82926151582173L80.29504,41.58583235900318L80.54592,42.41065150499344L80.68928,43.26116086755479L80.71317333333333,54.51292014122009L81.16714666666667,39.67715126701765L81.31050666666667,43.78917736240797L81.81226666666666,38.74412458496434L82.62464,39.63921379936593L82.73216000000001,33.62111662753992L82.76799999999999,47.72698864979404L83.67594666666666,42.8534622767142L83.69984000000001,39.18360966497235L83.71178666666667,28.752807917339453L84.34496,54.45381125807762L84.67946666666667,53.124955505132675L85.25290666666666,46.94935889754976L85.46794666666666,51.18688551017216L85.93386666666666,40.99298796589886L86.5312,59.28987807035446L87.00906666666667,28.376782851559767L87.20021333333334,43.71958294723714L87.36746666666667,45.13448466786315L88.09621333333332,37.97510184803312L88.35904000000001,25.610976300069268L88.99221333333334,45.88127450857843L89.23114666666666,40.390418949936134L89.25504,41.54072463086675L89.63733333333333,40.89165087363551L89.92405333333333,38.31704415387608L90.09130666666667,41.547167137265205L90.60501333333333,38.89260838380349L90.93952,41.21369235856193L90.96341333333334,41.62256037656749L91.0112,39.27514445675271L91.19040000000001,40.12885624516224L91.68021333333334,38.92442832408207L91.71605333333332,35.198854094637284L92.34922666666667,41.12232784181833L92.71957333333333,39.5906277477209L92.73151999999999,39.46631773481411L92.93461333333333,42.15046509142434L92.97045333333334,40.28622578403781L93.37664000000001,54.31817096897534L93.40053333333333,55.54781155501094L93.48416,41.73792822659016L93.91423999999999,40.0014364038195L94.16512,52.98398482586656L94.45184,51.313811696001466L94.51157333333335,67.36064199464661L94.58325333333333,40.96565609904272L94.90581333333333,46.95836950199944L95.14474666666666,45.87256135259355L95.20447999999999,43.86268123558591L95.38368,36.28703709532107L95.44341333333334,61.230272710323334L95.95712,48.83891069037574L96.25578666666667,40.6462949658079L96.27968,40.373245563890265L96.47082666666667,39.459098807403024L96.59029333333334,53.46315819876534L97.18762666666666,40.873354477541795L97.41461333333334,40.178248675806174L97.56992,45.81226930660861L97.6416,38.31400010275789L97.79690666666667,41.28457200686847L98.47786666666667,43.5530094387276L98.75264,26.17064926879746L98.81237333333334,42.445087322166984L99.09909333333333,31.18476077488492L99.23050666666667,41.32809373789601L99.36192,54.79793639693942L99.51722666666666,37.1941906157881L99.80394666666668,55.95120661599296L100.93888,38.68468545350646L100.95082666666667,52.10600031912327L100.99861333333334,42.84045316917556L101.23754666666666,40.61725324392319L101.24949333333333,39.971799548183185L101.35701333333333,43.24986729877335L101.88266666666667,43.703047086085604L102.00213333333335,41.548789841788164L102.22912,52.29369503685406L102.87424,40.15401491469572L102.98176000000001,36.75970804584878L103.05344,51.02957316381591L103.12512000000001,46.0444183605058L103.16095999999999,40.10038751416974L103.24458666666666,40.77155747690372L103.34016,56.45212119817734L103.37599999999999,57.482427737542565L103.51935999999999,64.05788223232541L103.84192,61.63399932214192L103.88970666666667,54.67251924106053L104.02112,52.72059989401272L104.96490666666668,51.93200528195926L105.13216,43.78121256402562L105.22773333333333,48.91209153831005L105.40693333333333,37.310398947181454L106.18346666666666,56.80287167004177L106.52992,53.55277449531215L106.56576,43.81897430973393L106.87637333333333,71.88863934789386L107.13919999999999,47.478633391005644L108.05909333333334,48.61688246258666L108.23829333333333,61.01507727163178L108.33386666666667,43.4618760602815L108.60864000000001,45.03072583356072L108.82368,55.85125256436211L109.30154666666667,61.21710919482368L109.55242666666666,49.81373267088617L109.92277333333334,41.76776353908437L110.55594666666667,47.301119178533554L110.68736,48.14370352881295L110.9024,56.8986027113029L111.02186666666667,43.02602075146777L111.03381333333333,67.57200660024371L111.2608,55.175616375037606L111.53557333333333,42.264147242265096L111.76256000000001,44.981702253222466L112.22848,45.051545331520686L112.26432000000001,42.039397692573914L112.34794666666667,56.60575617211205L112.46741333333333,54.74358100550515L112.50325333333333,57.629494215760914L112.56298666666667,43.06763038145644L112.68245333333333,61.70029433284488L113.07669333333334,56.25744591440473L113.30368,43.6865273288318L114.24746666666667,53.53634283585208L114.6656,40.06354226970248L114.86869333333334,38.367008435706225L115.04789333333333,49.88018682599068L115.17930666666666,33.75134032326085L115.25098666666668,38.75975643723672L115.54965333333334,45.052050709724426L115.60938666666667,41.1960694843105L115.66912,44.348546251654625L115.88416000000001,59.73902714678219L116.01557333333334,43.46861222599233L116.05141333333334,37.70273125204923L116.29034666666666,52.91011814134461L116.38592,42.6203744603055L116.50538666666667,38.92255991670703L116.92352,55.598205387592316L116.98325333333334,53.49457974519048L117.712,61.43661668896675L117.72394666666668,47.3738633266517L118.10624,42.209473088383675L118.71552000000001,59.78974874104772L118.81109333333333,50.48321527668408L119.22922666666668,41.089010535074124L119.36064,40.9521619799946L119.504,58.34040362494332L119.70709333333333,46.07227478814977L120.42389333333333,52.671177979026524L120.71061333333334,52.18256014372621L121.06901333333333,39.9346493953573L121.1168,52.928648991244174L121.28405333333333,59.83622080087662L121.48714666666667,41.36669691226314L121.55882666666668,70.65265572071075L122.06058666666667,65.41289450441089L122.25173333333333,39.565922829189475L122.38314666666668,46.86614532130105L122.58623999999999,45.72487250609058L122.82517333333334,40.083700797387536L122.88490666666668,36.90275743044913L122.9088,40.59040212578009L122.98048,39.95840181569969L123.21941333333332,39.01105906455112L123.25525333333333,40.98762442065137L123.31498666666667,40.37545416610581L123.42250666666666,41.641663625304204L124.49770666666667,40.044776373942L124.50965333333333,40.46079487779312L124.53354666666667,39.6002332491002L124.86805333333334,48.81384165797914L124.92778666666666,38.121085494540495L124.98752,37.34986587068332L125.68042666666668,26.37652718169349L125.99104,41.50490079979812L126.09855999999999,38.3618655197788L126.4928,51.99011667072773L126.50474666666668,39.527142511946806L126.61226666666667,39.479660879820585L127.06624,46.57646556624343L127.16181333333334,42.841373933213106L127.22154666666667,42.44697858286756L127.60384,39.87314233396734L128.16533333333334,46.148493115391034L128.21312,46.27274131774902L128.48789333333332,43.78072849980424L128.70293333333333,42.60125818635737L128.73877333333334,41.00785944185088L128.98965333333334,50.04769767607961L129.12106666666665,59.50113089595523L129.40778666666668,58.95543611049652L129.49141333333333,40.47039280086756L129.69450666666665,41.11208150003637L129.7184,40.1329010469573L129.75424,42.587808116206105L130.00512,55.845989431653706L130.02901333333332,43.285628845649114L130.08874666666668,54.935238229376935L130.22016,67.13813917551722L130.36352,55.678846129349296L130.56661333333335,59.443172020571566L130.78165333333334,42.156209920133875L130.85333333333332,43.83905208110809L130.9728,57.528729285512654L131.19978666666668,71.01483806541988L131.52234666666666,56.940686932631905L131.61792,51.78362207327571L131.8688,40.66836085809129L132.71701333333334,48.83363429563386L133.44576,31.355688493166667L133.56522666666666,42.327452611710356L133.64885333333334,55.29942693029132L133.97141333333335,40.798692071012084L134.22229333333334,43.44562959564584L134.53290666666666,40.8486380731421L134.64042666666666,56.900256676333285L135.02272,30.668011798390324L135.2736,53.7940800360271L135.78730666666667,42.68477678937572L135.82314666666667,42.38889040265764L136.06207999999998,44.37162882089615L136.14570666666665,32.45564486405681L136.45632,51.43835734682423L137.29258666666666,53.272868858916425L137.40010666666666,41.408900965537356L137.48373333333333,41.509124046989854L137.63904,42.253239693386206L137.90186666666665,38.87319199714278L138.03328000000002,40.29029296551431L138.16469333333333,43.086596510240014L138.35584,42.05184932106309L138.64256,40.44187966574515L138.71424000000002,43.87373940327339L138.98901333333333,38.255479337514515L139.20405333333335,39.27848554189717L139.9328,40.01894726125258L140.04032,54.823228989328655L140.56597333333332,42.922852077654426L140.90048,51.08231816547257L140.93632,53.146683452384806L141.41418666666667,40.44655642711692L141.70090666666667,43.93151497840881L142.47744,48.22687731896127L143.40928,53.14214878422874L143.46901333333335,56.080132527010775L143.50485333333336,49.63193387431758L143.67210666666668,37.976081343933146L143.81546666666668,54.47956423248563L144.09024,53.237018740602906L144.16192,42.9437397803579L144.34112,41.55663338729315L144.4128,43.83518051462514L144.53226666666666,41.693715922534466L144.8189866666667,42.746033648295054L145.02208,40.30416884166854L145.28490666666667,53.398998375449864L145.73888,48.599684447050095L145.8702933333333,47.79535159042905L146.10922666666667,37.28891563708228L146.19285333333332,53.781756765076096L146.25258666666667,41.44713114521335L147.54282666666666,60.97039748089654L147.57866666666666,32.46892252777303L147.75786666666667,71.04765970366341L147.8295466666667,41.705029858010164L147.88927999999999,38.644942099494585L148.40298666666666,56.22646390966007L148.53439999999998,42.37418564941203L148.65386666666666,53.47184009424278L148.70165333333333,50.306335747241974L148.7136,33.47273815529687L149.04810666666668,55.96277110917228L149.15562666666665,44.32504971751146L149.43040000000002,43.05845068608011L149.44234666666668,44.59786158693689L149.58570666666665,38.62334070401266L149.95605333333333,39.526487580633585L150.06357333333335,41.1994764059782L150.26666666666665,53.796793069158284L150.3264,50.91478836962155L150.43392,53.49475215162549L150.52949333333333,40.12628435795861L150.62506666666667,42.49257392755578L150.82816000000003,55.840783136231565L151.18656,39.78206508234143L151.30602666666667,37.44619518358792L151.74805333333333,39.12035165993231L151.85557333333333,49.47022137471606L151.86751999999998,51.42026793318135L152.13034666666664,40.54961403140001L152.2139733333333,42.59304804035597L152.54847999999998,55.48899822575706L152.66794666666667,41.69557284404124L152.72768000000002,43.34688380999225L152.85909333333333,39.962117198056404L152.96661333333333,41.77898203528355L153.13386666666668,42.77250514073032L153.58784,36.19399351041233L153.62368,38.112950250905556L154.02986666666666,44.21283160043615L154.07765333333333,40.00144658716661L154.35242666666667,46.71991624576705L154.4241066666667,44.73668807957853L154.448,43.3061613153134L154.92586666666665,40.26420986120189L154.99754666666666,38.567469385186484L155.02144,48.033891997167046L155.15285333333333,42.43920987312282L155.21258666666665,39.112628005578046L155.37984,45.910356253385544L155.48736,39.25799735795175L155.67850666666666,56.15097830976758L155.97717333333333,38.59726609569043L156.20416,42.886229919535765L156.31168,38.649771255840164L156.52671999999998,44.169590740331586L156.84928,54.38961733239037L157.1240533333333,72.0189255646297L157.14794666666666,52.2477799824306L157.15989333333332,71.58677273137229L157.86474666666666,67.66446191923959L157.90058666666667,45.74747858941555L158.00810666666666,40.64981414111597L158.46208,52.44679100385734L158.83242666666666,44.10159629476922L159.07136,41.354151502251625L159.66869333333335,29.850816190242767L159.76426666666669,40.03747882161821L160.19434666666666,25.432126411369865L160.39744000000002,40.390203915536404L160.63637333333332,40.43052499688099L160.97088,48.30345135288579L161.00672,46.89495614171028L161.09034666666668,59.38645409260478L161.11424,46.464875027537346L161.31733333333335,40.47398420689362L161.4129066666667,40.1782643060599L161.52042666666665,41.477765968867715L161.6996266666667,42.516278865081915L161.89077333333333,44.948492226856104L162.35669333333334,60.28872896092278L162.5000533333333,46.43766796588898L162.64341333333334,39.64980909840338L162.77482666666666,36.48483073312258L162.94208,77.87675816672188L162.96597333333332,64.59514615365437L163.39605333333336,55.67502287455967L163.82613333333333,57.259566843509674L164.1486933333333,45.70180982989925L164.22037333333333,53.56865388580731L164.32789333333335,46.896390335900435L164.68629333333334,55.808495768478934L164.97301333333334,45.511504386152524L165.18805333333333,46.93308164605071L165.58229333333333,46.1068654869284L165.90485333333334,43.622062005102634L166.06016000000002,38.260283775561106L166.08405333333332,38.48458522837609L166.09599999999998,39.306886186557165L166.33493333333334,38.633599390142734L166.3946666666667,40.142232071608305L166.56192,32.26361204045159L166.68138666666667,43.884717051471995L166.74112000000002,57.155206007616854L166.82474666666667,46.61925551721026L167.05173333333335,45.61189703217576L167.19509333333332,42.09330051711629L167.61322666666666,37.86305233343904L168.35392000000002,60.002640375069205L168.53312,42.485449373722076L168.66453333333334,42.856286142553614L168.71231999999998,57.25057139566967L168.90346666666667,54.35546949080059L169.29770666666667,38.96200209230716L169.40522666666666,54.11641186475754L169.93088,43.385943340403685L170.16981333333334,43.073307952710564L170.20565333333334,53.90787775601659L170.39679999999998,44.96739820284503L170.58794666666668,47.30451425909996L171.43616,59.270667067595895L171.54368,43.39480427333288L171.91402666666667,43.47561552694867L172.14101333333332,44.121944043253166L172.17685333333333,40.87348709787642L172.43967999999998,39.83856809431953L173.21621333333334,42.87955201204335L173.31178666666668,65.40020652753967L173.56266666666667,43.27790276386909L173.82549333333333,61.76312605823789L174.17194666666666,63.325723256383625L174.7214933333333,49.12815185104097L175.05599999999998,51.86916787283761L175.76085333333333,71.242751794202L175.952,55.629835337400436L176.32234666666668,42.01987858435939L176.41791999999998,55.31686271514211L176.66879999999998,40.67775511422329L176.96746666666667,40.506753981113434L177.0272,41.56450582508529L177.18250666666665,46.56592035506452L177.33781333333332,38.175152022308396L177.40949333333333,38.269118672868785L177.91125333333335,40.710605644754L177.9232,39.86145469333445L178.16213333333334,52.42934858798981L178.85504,54.13132975782666L179.05813333333333,43.308200352958266L179.3806933333333,53.44307758552688L179.39264,43.43227046515261L179.48821333333333,40.76955301527465L179.63157333333334,39.33452296177191L179.77493333333334,44.7993170853172L179.95413333333335,54.69588315486908L180.00191999999998,41.74938472892558L180.20501333333334,41.33180497586727L180.42005333333333,53.40844094327518L180.63509333333334,23.715068204062334L180.81429333333332,50.34684178658894L180.93376,42.92391540855169L180.9696,41.03346037651812L181.11296,39.58393681501704L181.12490666666667,38.46368180661062L181.17269333333334,38.7328663026648L181.5072,38.79669356865011L181.81781333333333,52.84046783617565L182.21205333333333,69.56595143675804L182.39125333333334,45.95143066559518L182.82133333333334,41.293900189655176L183.45450666666667,40.44033582295691L183.50229333333334,39.48148156755738L183.74122666666665,42.52561912579196L184.3266133333333,41.33020287486059L184.67306666666664,38.136425319814805L185.17482666666666,45.750265984662946L185.78410666666667,34.56980103467191L185.96330666666665,58.406103738716666L186.05888,41.47312709902013L186.13056,52.407605484128L186.72789333333333,41.75754158997111L186.76373333333333,41.10397981852293L186.79957333333334,42.2581580132246L186.95487999999997,38.57799044051873L187.27744,39.53980728025948L187.57610666666667,37.701655991242404L187.65973333333332,37.45803066037064L187.92256,40.393948545413366L188.17344,53.47157201170921L188.32874666666666,37.70315235121441L188.74688,38.80764392311019L189.02165333333332,52.71530455350876L189.05749333333333,40.14689130815012L189.21280000000002,40.349372482725556L189.26058666666668,34.58756860718131L189.84597333333335,32.32995157369547L189.85792,53.51117244362831L190.08490666666665,40.360140306609026L190.12074666666666,53.90012609745774L190.22826666666668,42.725159681269105L190.24021333333334,25.9167410071407L190.31189333333333,39.87521807902627L190.55082666666667,40.76393772821342L190.57472,41.89867780783348L191.55434666666667,45.32290121912956L191.62602666666666,41.0496438464948L192.52202666666668,43.02994678701674L192.85653333333335,55.15532167468753L193.23882666666668,38.56750378358578L193.31050666666667,39.250763865986045L193.58528,54.76605446849551L194.02730666666668,39.01291788063412L194.03925333333333,38.595938353001L194.11093333333335,46.631624257990296L194.21845333333334,47.21703220265252L194.42154666666667,42.19906144482749L194.56490666666667,41.51679281783956L194.63658666666666,58.892833628824775L194.87552000000002,44.70439502809728L194.9233066666667,44.20556258516652L195.21002666666666,39.39668009962355L195.34144,54.19731405803135L195.93877333333333,55.69007338796344L196.2254933333333,58.0236570068768L196.50026666666668,52.105580670492984L196.93034666666665,41.0211442102279L197.21706666666668,29.766846678086694L197.24095999999997,49.93713589225496L197.25290666666666,51.52368621741023L197.96970666666667,54.703404622418546L198.14890666666668,45.79851042053531L198.2205866666667,43.560891349400805L198.57898666666665,46.604348991598386L198.68650666666667,42.6926203348807L198.73429333333334,42.84053463595254L198.80597333333333,54.96353372505733L198.99712,40.24650054691094L199.51082666666667,32.802333838173325L199.65418666666667,39.38799370452762L199.90506666666664,41.68411586806178L199.91701333333333,42.24487135027135L199.9648,37.01335698738694L200.01258666666666,39.45154560570205L200.06037333333333,55.76086991173881L200.26346666666666,24.053882845810477L200.33514666666667,36.10988640465908L200.38293333333334,41.18855133226941L200.70549333333332,42.10897860888923L201.02805333333333,40.79303439280818L201.25503999999998,41.52213220724039L201.63733333333332,42.672238010380966L201.64928,43.685181232435355L201.66122666666666,42.43634006381035L201.94794666666667,42.78260607378823L202.72448,54.921843575579786L202.86783999999997,57.34975814393589L203.62048,40.45982130244374L204.12224,37.51000066194683L204.17002666666667,40.95922922289799L204.69568,41.441215804645L204.92266666666666,36.06447293928693L205.36469333333332,38.56524911948614L205.72309333333334,41.92605751273888L205.80672,41.296567752957344L205.92618666666667,39.096742635326734L206.14122666666668,39.96901333704591L206.416,40.28002009966545L206.61909333333332,46.70550041539329L206.69077333333334,39.333497996042894L206.7744,25.57888881010669L207.33589333333333,42.120578625372474L207.39562666666666,29.570568582841332L207.58677333333333,40.680465305490145L207.65845333333334,40.24113771212953L207.77792,39.43285087496042L207.99296,40.513726732028374L208.07658666666669,55.84450218932969L208.1960533333333,54.59567333545003L208.21994666666666,45.84640862260545L208.60224,41.06105890497565L208.84117333333336,40.3067563591259L208.97258666666667,37.479720893715125L209.53408,40.742146075836246L209.67744,39.39833370942091L209.80885333333333,41.12984031013082L210.57344,38.85276609739023L210.94378666666665,39.13443789325123L211.38581333333335,43.59641181145395L211.67253333333335,54.87685686349869L211.78005333333334,40.54951101381863L211.85173333333333,40.145162744181505L212.03093333333334,47.03347050292152L212.23402666666667,40.92821098438333L212.40128,40.89165205774563L212.43712000000002,44.00276762140649L212.66410666666667,42.15220478602819L212.89109333333332,41.50944044121675L213.84682666666666,42.04990880138109L214.24106666666665,40.06048916014177L214.33664,57.048846393823624L214.40832,39.940166874921744L214.69504,40.4447492382356L214.70698666666667,41.05864260984319L215.16096,53.43617848626205L215.48352,42.03776693610209L215.62688,42.991147760834025L215.82997333333333,39.28611784215485L215.87776,38.68740049962486L216.58261333333334,39.076596067153986L216.73792,54.481144309043884L216.85738666666666,42.948827191122945L216.90517333333332,42.138181132929674L217.20383999999999,40.03217945513981L217.46666666666664,42.480842238026014L218.32682666666668,55.135966684137074L218.58965333333333,40.849926148142146L218.63744,41.690475723573144L218.66133333333335,41.52240928901094L218.67328,54.47328371235302L218.7927466666667,38.26096021327456L219.03168,78.41926627499717L219.34229333333334,42.25328279499496L219.74848,51.89885209287915L219.856,43.72294771458422L220.52501333333333,45.15352800062726L221.17013333333333,40.56629056483507L221.48074666666665,38.40792084684861L221.54048,39.440203488405274L221.7794133333333,60.57170854721751L222.38869333333335,39.51917889767461L222.43648000000002,58.11857906409672L222.81877333333333,41.920617947621L223.40416000000002,45.06096042799098L223.64309333333333,51.77383185071605L224.02538666666666,39.81987667908626L224.14485333333332,38.38677463810225L224.1568,38.39082277020705L224.45546666666667,43.04802578049046L224.5152,40.962406427200364L224.56298666666666,50.92141370262418L224.73024,40.28244231534856L225.232,39.74836897876645L225.53066666666666,50.57881180303437L226.42666666666665,42.32135633911406L227.22709333333333,39.94641033240728L227.59744,39.85250637307763L228.00362666666666,38.07226151816681L228.01557333333335,38.2198048597368L228.2784,39.537036462553914L228.73237333333336,41.410840064287186L228.79210666666665,42.368399613669936L228.85184,41.84764431895954L228.97130666666666,43.352066423211795L229.29386666666667,37.00866518781655L229.30581333333333,25.592373456273776L229.38943999999998,37.33936571489488L229.55669333333333,52.33806790624347L229.68810666666667,40.42603271986758L229.90314666666666,40.480947721749544L229.92704,42.759359623704654L230.20181333333332,45.840550592967446L230.21376,45.14694624287742L230.22570666666667,59.460526338645394L230.26154666666667,63.628057833228794L230.48853333333332,44.33587674690145L230.90666666666667,41.980888679623604L231.06197333333336,41.047674671347664L231.10976,35.72824344677585L231.26506666666668,50.6819241132055L231.27701333333334,53.12525390088558L231.39648,46.11269320334708L231.52789333333334,29.640929354088655L231.64736000000002,57.19724286454064L231.74293333333333,44.91310154327323L231.8624,46.6701438341822L232.44778666666664,46.17091542482376L232.54336,45.503630527428214L232.59114666666667,31.221431244696902L232.92565333333334,58.511218615940635L233.09290666666666,65.01288884026664L233.16458666666665,66.74835096086774L233.33184,87.1689042193549L233.35573333333335,51.858131966420586L233.43936,53.13655031153134L233.48714666666666,68.73840244327273L233.52298666666667,65.81388913733619L233.53493333333333,49.59515162450927L233.58272,45.033704581005225L233.88138666666666,50.48526331356594L234.00085333333334,78.95382474149976L234.04863999999998,51.145326086453025L234.23978666666667,47.26540831157138L234.40704,53.4930555586304L234.83712,45.50984900019L234.84906666666666,47.78719354527337L234.93269333333333,45.89141333316053L235.06410666666665,43.34750949378525L235.42250666666666,42.7669147199818L235.64949333333334,34.812228401324575L235.66144,46.13519319040435L235.72117333333333,46.16875276608127L236.0437333333333,47.33767123733247L236.25877333333335,40.57796044381601L236.49770666666666,25.79169897735119L237.82378666666668,42.75145734633719L237.93130666666667,39.914195432194646L238.12245333333334,40.056670404970646L238.15829333333332,40.08738349830466L238.26581333333334,73.5331997019904L238.60032,56.516479951994754L239.00650666666664,42.00429924737131L239.01845333333335,66.70485528026309L239.12597333333332,52.11768795975617L239.16181333333333,42.23859509293521L239.62773333333334,25.21266722892011L239.80693333333332,38.48111010196487L239.9264,40.760195229734705L240.10559999999998,54.41811175857272L240.12949333333333,49.663477620908196L240.22506666666666,42.74249931637729L240.41621333333333,54.73673400708607L240.42816,41.57170995111977L240.65514666666667,36.38192576063531L240.94186666666667,42.06155262993914L241.20469333333332,44.507073495004875L241.5392,41.681629473609576L241.68256,45.01837603854281L242.18432,52.658262653010226L242.22016,47.6453598865441L242.70997333333332,43.15937286615372L242.80554666666666,39.421141328290105L243.77322666666666,38.81351030072463L243.78517333333332,30.327613764575545L244.82453333333333,40.158453196287155L244.92010666666667,33.02703436570508L245.44576,54.63289417965072L245.45770666666667,70.46021224771228L246.06698666666665,38.69696805027448L246.17450666666667,41.28356977605395L246.78378666666666,37.94204822781364L246.90325333333334,48.92575048548835L246.98687999999999,50.52206545642444L247.0466133333333,44.958476643477184L247.33333333333331,39.19481584642614L247.77536,43.97977836004327L247.97845333333333,14.685563462121138L248.48021333333332,53.474658276353566L249.05365333333333,42.152193892214996L249.07754666666665,41.14988137409091L249.53152,41.88990070990155L249.83018666666666,82.63391019616809L249.86602666666667,56.141236398901256L250.05717333333334,40.80790018503154L250.11690666666667,39.639180999515304L250.17664,40.9562568696482L250.39168,30.319363832473755L250.45141333333333,54.39807472058705L250.51114666666666,41.479853555027944L250.65450666666666,38.178443493238376L250.9053866666667,41.04498460995299L251.46688,40.75085165351629L251.62218666666666,64.05966692311424L251.71776,40.758098170693444L252.15978666666666,28.065306944506517L252.35093333333333,42.923596646104556L252.75712,41.30785658529828L252.88853333333336,39.750166694766705L253.04384,41.827393904328346L253.48586666666668,46.918565403137904L253.56949333333336,41.020617281219785L253.61728,38.744866725988686L253.91594666666668,53.13780641555786L254.22656,41.87055282401187L254.70442666666665,40.538358827786794L255.19424,56.41246203439576L255.20618666666667,43.02808631317956L255.23008000000002,42.64485996322972L255.2898133333333,53.222411558032036L255.88714666666667,41.67081807447332L256.12608,38.760197577465874L256.30528,57.98204453502383L256.34112,56.78556850552559L256.36501333333337,45.133261718920295L256.6039466666667,44.34579816886358L256.6756266666667,56.095209564481465" style="fill: none;" fill="none"></path></g></g></g></g></g></g><g transform="translate(50, 178)" clip-path="url(#clip_1)"><clipPath id="clip_1"><rect width="280" height="22"></rect></clipPath><g><g><line x1="0" y1="0" x2="0" y2="5" style="visibility: inherit;" fill="rgb(0, 0, 0)" stroke="rgb(204, 204, 204)" stroke-width="1px"></line><line x1="23.333333333333332" y1="0" x2="23.333333333333332" y2="5" style="visibility: inherit;" fill="rgb(0, 0, 0)" stroke="rgb(204, 204, 204)" stroke-width="1px"></line><line x1="46.666666666666664" y1="0" x2="46.666666666666664" y2="5" style="visibility: inherit;" fill="rgb(0, 0, 0)" stroke="rgb(204, 204, 204)" stroke-width="1px"></line><line x1="70" y1="0" x2="70" y2="5" style="visibility: inherit;" fill="rgb(0, 0, 0)" stroke="rgb(204, 204, 204)" stroke-width="1px"></line><line x1="93.33333333333333" y1="0" x2="93.33333333333333" y2="5" style="visibility: inherit;" fill="rgb(0, 0, 0)" stroke="rgb(204, 204, 204)" stroke-width="1px"></line><line x1="116.66666666666667" y1="0" x2="116.66666666666667" y2="5" style="visibility: inherit;" fill="rgb(0, 0, 0)" stroke="rgb(204, 204, 204)" stroke-width="1px"></line><line x1="140" y1="0" x2="140" y2="5" style="visibility: inherit;" fill="rgb(0, 0, 0)" stroke="rgb(204, 204, 204)" stroke-width="1px"></line><line x1="163.33333333333334" y1="0" x2="163.33333333333334" y2="5" style="visibility: inherit;" fill="rgb(0, 0, 0)" stroke="rgb(204, 204, 204)" stroke-width="1px"></line><line x1="186.66666666666666" y1="0" x2="186.66666666666666" y2="5" style="visibility: inherit;" fill="rgb(0, 0, 0)" stroke="rgb(204, 204, 204)" stroke-width="1px"></line><line x1="210" y1="0" x2="210" y2="5" style="visibility: inherit;" fill="rgb(0, 0, 0)" stroke="rgb(204, 204, 204)" stroke-width="1px"></line><line x1="233.33333333333334" y1="0" x2="233.33333333333334" y2="5" style="visibility: inherit;" fill="rgb(0, 0, 0)" stroke="rgb(204, 204, 204)" stroke-width="1px"></line><line x1="256.66666666666663" y1="0" x2="256.66666666666663" y2="5" style="visibility: inherit;" fill="rgb(0, 0, 0)" stroke="rgb(204, 204, 204)" stroke-width="1px"></line><line x1="280" y1="0" x2="280" y2="5" style="visibility: inherit;" fill="rgb(0, 0, 0)" stroke="rgb(204, 204, 204)" stroke-width="1px"></line></g><g transform="translate(0, 8)"><text x="0" y="0" dx="0em" dy="0.95em" style="text-anchor: middle; visibility: hidden; font-family: &quot;Helvetica Neue&quot;, sans-serif; font-size: 12px; font-weight: 200;" fill="rgb(50, 49, 63)" stroke="none" stroke-width="1px">-1M</text><text x="23.333333333333332" y="0" dx="0em" dy="0.95em" style="text-anchor: middle; visibility: inherit; font-family: &quot;Helvetica Neue&quot;, sans-serif; font-size: 12px; font-weight: 200;" fill="rgb(50, 49, 63)" stroke="none" stroke-width="1px">0</text><text x="46.666666666666664" y="0" dx="0em" dy="0.95em" style="text-anchor: middle; visibility: hidden; font-family: &quot;Helvetica Neue&quot;, sans-serif; font-size: 12px; font-weight: 200;" fill="rgb(50, 49, 63)" stroke="none" stroke-width="1px">1M</text><text x="70" y="0" dx="0em" dy="0.95em" style="text-anchor: middle; visibility: inherit; font-family: &quot;Helvetica Neue&quot;, sans-serif; font-size: 12px; font-weight: 200;" fill="rgb(50, 49, 63)" stroke="none" stroke-width="1px">2M</text><text x="93.33333333333333" y="0" dx="0em" dy="0.95em" style="text-anchor: middle; visibility: hidden; font-family: &quot;Helvetica Neue&quot;, sans-serif; font-size: 12px; font-weight: 200;" fill="rgb(50, 49, 63)" stroke="none" stroke-width="1px">3M</text><text x="116.66666666666667" y="0" dx="0em" dy="0.95em" style="text-anchor: middle; visibility: inherit; font-family: &quot;Helvetica Neue&quot;, sans-serif; font-size: 12px; font-weight: 200;" fill="rgb(50, 49, 63)" stroke="none" stroke-width="1px">4M</text><text x="140" y="0" dx="0em" dy="0.95em" style="text-anchor: middle; visibility: hidden; font-family: &quot;Helvetica Neue&quot;, sans-serif; font-size: 12px; font-weight: 200;" fill="rgb(50, 49, 63)" stroke="none" stroke-width="1px">5M</text><text x="163.33333333333334" y="0" dx="0em" dy="0.95em" style="text-anchor: middle; visibility: inherit; font-family: &quot;Helvetica Neue&quot;, sans-serif; font-size: 12px; font-weight: 200;" fill="rgb(50, 49, 63)" stroke="none" stroke-width="1px">6M</text><text x="186.66666666666666" y="0" dx="0em" dy="0.95em" style="text-anchor: middle; visibility: hidden; font-family: &quot;Helvetica Neue&quot;, sans-serif; font-size: 12px; font-weight: 200;" fill="rgb(50, 49, 63)" stroke="none" stroke-width="1px">7M</text><text x="210" y="0" dx="0em" dy="0.95em" style="text-anchor: middle; visibility: inherit; font-family: &quot;Helvetica Neue&quot;, sans-serif; font-size: 12px; font-weight: 200;" fill="rgb(50, 49, 63)" stroke="none" stroke-width="1px">8M</text><text x="233.33333333333334" y="0" dx="0em" dy="0.95em" style="text-anchor: middle; visibility: hidden; font-family: &quot;Helvetica Neue&quot;, sans-serif; font-size: 12px; font-weight: 200;" fill="rgb(50, 49, 63)" stroke="none" stroke-width="1px">9M</text><text x="256.66666666666663" y="0" dx="0em" dy="0.95em" style="text-anchor: middle; visibility: inherit; font-family: &quot;Helvetica Neue&quot;, sans-serif; font-size: 12px; font-weight: 200;" fill="rgb(50, 49, 63)" stroke="none" stroke-width="1px">10M</text><text x="280" y="0" dx="0em" dy="0.95em" style="text-anchor: middle; visibility: hidden; font-family: &quot;Helvetica Neue&quot;, sans-serif; font-size: 12px; font-weight: 200;" fill="rgb(50, 49, 63)" stroke="none" stroke-width="1px">11M</text></g><line x1="0" y1="0" x2="280" y2="0" fill="rgb(0, 0, 0)" stroke="rgb(204, 204, 204)" stroke-width="1px"></line></g></g></g></g></svg>