<svg viewBox="0 0 330 200" xmlns="http://www.w3.org/2000/svg"><g><g><g><g><g><line x1="50" y1="178" x2="45" y2="178" style="visibility: inherit;" fill="rgb(0, 0, 0)" stroke="rgb(204, 204, 204)" stroke-width="1px"></line><line x1="50" y1="165.28571428571428" x2="45" y2="165.28571428571428" style="visibility: inherit;" fill="rgb(0, 0, 0)" stroke="rgb(204, 204, 204)" stroke-width="1px"></line><line x1="50" y1="152.57142857142856" x2="45" y2="152.57142857142856" style="visibility: inherit;" fill="rgb(0, 0, 0)" stroke="rgb(204, 204, 204)" stroke-width="1px"></line><line x1="50" y1="139.85714285714283" x2="45" y2="139.85714285714283" style="visibility: inherit;" fill="rgb(0, 0, 0)" stroke="rgb(204, 204, 204)" stroke-width="1px"></line><line x1="50" y1="127.14285714285714" x2="45" y2="127.14285714285714" style="visibility: inherit;" fill="rgb(0, 0, 0)" stroke="rgb(204, 204, 204)" stroke-width="1px"></line><line x1="50" y1="114.42857142857143" x2="45" y2="114.42857142857143" style="visibility: inherit;" fill="rgb(0, 0, 0)" stroke="rgb(204, 204, 204)" stroke-width="1px"></line><line x1="50" y1="101.7142857142857" x2="45" y2="101.7142857142857" style="visibility: inherit;" fill="rgb(0, 0, 0)" stroke="rgb(204, 204, 204)" stroke-width="1px"></line><line x1="50" y1="89" x2="45" y2="89" style="visibility: inherit;" fill="rgb(0, 0, 0)" stroke="rgb(204, 204, 204)" stroke-width="1px"></line><line x1="50" y1="76.28571428571428" x2="45" y2="76.28571428571428" style="visibility: inherit;" fill="rgb(0, 0, 0)" stroke="rgb(204, 204, 204)" stroke-width="1px"></line><line x1="50" y1="63.571428571428584" x2="45" y2="63.571428571428584" style="visibility: inherit;" fill="rgb(0, 0, 0)" stroke="rgb(204, 204, 204)" stroke-width="1px"></line><line x1="50" y1="50.85714285714286" x2="45" y2="50.85714285714286" style="visibility: inherit;" fill="rgb(0, 0, 0)" stroke="rgb(204, 204, 204)" stroke-width="1px"></line><line x1="50" y1="38.14285714285714" x2="45" y2="38.14285714285714" style="visibility: inherit;" fill="rgb(0, 0, 0)" stroke="rgb(204, 204, 204)" stroke-width="1px"></line><line x1="50" y1="25.428571428571416" x2="45" y2="25.428571428571416" style="visibility: inherit;" fill="rgb(0, 0, 0)" stroke="rgb(204, 204, 204)" stroke-width="1px"></line><line x1="50" y1="12.714285714285694" x2="45" y2="12.714285714285694" style="visibility: inherit;" fill="rgb(0, 0, 0)" stroke="rgb(204, 204, 204)" stroke-width="1px"></line><line x1="50" y1="0" x2="45" y2="0" style="visibility: inherit;" fill="rgb(0, 0, 0)" stroke="rgb(204, 204, 204)" stroke-width="1px"></line></g><g transform="translate(40, 0)"><text x="0" y="178" dx="0em" dy="0.3em" style="text-anchor: end; visibility: hidden; font-family: &quot;Helvetica Neue&quot;, sans-serif; font-size: 12px; font-weight: 200;" fill="rgb(50, 49, 63)" stroke="none" stroke-width="1px">-0.4</text><text x="0" y="165.28571428571428" dx="0em" dy="0.3em" style="text-anchor: end; visibility: inherit; font-family: &quot;Helvetica Neue&quot;, sans-serif; font-size: 12px; font-weight: 200;" fill="rgb(50, 49, 63)" stroke="none" stroke-width="1px">-0.2</text><text x="0" y="152.57142857142856" dx="0em" dy="0.3em" style="text-anchor: end; visibility: hidden; font-family: &quot;Helvetica Neue&quot;, sans-serif; font-size: 12px; font-weight: 200;" fill="rgb(50, 49, 63)" stroke="none" stroke-width="1px">0</text><text x="0" y="139.85714285714283" dx="0em" dy="0.3em" style="text-anchor: end; visibility: inherit; font-family: &quot;Helvetica Neue&quot;, sans-serif; font-size: 12px; font-weight: 200;" fill="rgb(50, 49, 63)" stroke="none" stroke-width="1px">0.2</text><text x="0" y="127.14285714285714" dx="0em" dy="0.3em" style="text-anchor: end; visibility: hidden; font-family: &quot;Helvetica Neue&quot;, sans-serif; font-size: 12px; font-weight: 200;" fill="rgb(50, 49, 63)" stroke="none" stroke-width="1px">0.4</text><text x="0" y="114.42857142857143" dx="0em" dy="0.3em" style="text-anchor: end; visibility: inherit; font-family: &quot;Helvetica Neue&quot;, sans-serif; font-size: 12px; font-weight: 200;" fill="rgb(50, 49, 63)" stroke="none" stroke-width="1px">0.6</text><text x="0" y="101.7142857142857" dx="0em" dy="0.3em" style="text-anchor: end; visibility: hidden; font-family: &quot;Helvetica Neue&quot;, sans-serif; font-size: 12px; font-weight: 200;" fill="rgb(50, 49, 63)" stroke="none" stroke-width="1px">0.8</text><text x="0" y="89" dx="0em" dy="0.3em" style="text-anchor: end; visibility: inherit; font-family: &quot;Helvetica Neue&quot;, sans-serif; font-size: 12px; font-weight: 200;" fill="rgb(50, 49, 63)" stroke="none" stroke-width="1px">1</text><text x="0" y="76.28571428571428" dx="0em" dy="0.3em" style="text-anchor: end; visibility: hidden; font-family: &quot;Helvetica Neue&quot;, sans-serif; font-size: 12px; font-weight: 200;" fill="rgb(50, 49, 63)" stroke="none" stroke-width="1px">1.2</text><text x="0" y="63.571428571428584" dx="0em" dy="0.3em" style="text-anchor: end; visibility: inherit; font-family: &quot;Helvetica Neue&quot;, sans-serif; font-size: 12px; font-weight: 200;" fill="rgb(50, 49, 63)" stroke="none" stroke-width="1px">1.4</text><text x="0" y="50.85714285714286" dx="0em" dy="0.3em" style="text-anchor: end; visibility: hidden; font-family: &quot;Helvetica Neue&quot;, sans-serif; font-size: 12px; font-weight: 200;" fill="rgb(50, 49, 63)" stroke="none" stroke-width="1px">1.6</text><text x="0" y="38.14285714285714" dx="0em" dy="0.3em" style="text-anchor: end; visibility: inherit; font-family: &quot;Helvetica Neue&quot;, sans-serif; font-size: 12px; font-weight: 200;" fill="rgb(50, 49, 63)" stroke="none" stroke-width="1px">1.8</text><text x="0" y="25.428571428571416" dx="0em" dy="0.3em" style="text-anchor: end; visibility: hidden; font-family: &quot;Helvetica Neue&quot;, sans-serif; font-size: 12px; font-weight: 200;" fill="rgb(50, 49, 63)" stroke="none" stroke-width="1px">2</text><text x="0" y="12.714285714285694" dx="0em" dy="0.3em" style="text-anchor: end; visibility: inherit; font-family: &quot;Helvetica Neue&quot;, sans-serif; font-size: 12px; font-weight: 200;" fill="rgb(50, 49, 63)" stroke="none" stroke-width="1px">2.2</text><text x="0" y="0" dx="0em" dy="0.3em" style="text-anchor: end; visibility: hidden; font-family: &quot;Helvetica Neue&quot;, sans-serif; font-size: 12px; font-weight: 200;" fill="rgb(50, 49, 63)" stroke="none" stroke-width="1px">2.4</text></g><line x1="50" y1="0" x2="50" y2="178" fill="rgb(0, 0, 0)" stroke="rgb(204, 204, 204)" stroke-width="1px"></line></g></g><g transform="translate(50, 0)" clip-path="url(#clip_0)"><clipPath id="clip_0"><rect width="280" height="178"></rect></clipPath><g><g><g><line x1="0" y1="0" x2="0" y2="178" fill="rgb(0, 0, 0)" stroke="rgb(60, 60, 60)" stroke-width="1px" opacity="0.25"></line><line x1="23.333333333333332" y1="0" x2="23.333333333333332" y2="178" fill="rgb(0, 0, 0)" stroke="rgb(60, 60, 60)" stroke-width="1px" opacity="0.25"></line><line x1="46.666666666666664" y1="0" x2="46.666666666666664" y2="178" fill="rgb(0, 0, 0)" stroke="rgb(60, 60, 60)" stroke-width="1px" opacity="0.25"></line><line x1="70" y1="0" x2="70" y2="178" fill="rgb(0, 0, 0)" stroke="rgb(60, 60, 60)" stroke-width="1px" opacity="0.25"></line><line x1="93.33333333333333" y1="0" x2="93.33333333333333" y2="178" fill="rgb(0, 0, 0)" stroke="rgb(60, 60, 60)" stroke-width="1px" opacity="0.25"></line><line x1="116.66666666666667" y1="0" x2="116.66666666666667" y2="178" fill="rgb(0, 0, 0)" stroke="rgb(60, 60, 60)" stroke-width="1px" opacity="0.25"></line><line x1="140" y1="0" x2="140" y2="178" fill="rgb(0, 0, 0)" stroke="rgb(60, 60, 60)" stroke-width="1px" opacity="0.25"></line><line x1="163.33333333333334" y1="0" x2="163.33333333333334" y2="178" fill="rgb(0, 0, 0)" stroke="rgb(60, 60, 60)" stroke-width="1px" opacity="0.25"></line><line x1="186.66666666666666" y1="0" x2="186.66666666666666" y2="178" fill="rgb(0, 0, 0)" stroke="rgb(60, 60, 60)" stroke-width="1px" opacity="0.25"></line><line x1="210" y1="0" x2="210" y2="178" fill="rgb(0, 0, 0)" stroke="rgb(60, 60, 60)" stroke-width="1px" opacity="0.25"></line><line x1="233.33333333333334" y1="0" x2="233.33333333333334" y2="178" fill="rgb(0, 0, 0)" stroke="rgb(60, 60, 60)" stroke-width="1px" opacity="0.25"></line><line x1="256.66666666666663" y1="0" x2="256.66666666666663" y2="178" fill="rgb(0, 0, 0)" stroke="rgb(60, 60, 60)" stroke-width="1px" opacity="0.25"></line><line x1="280" y1="0" x2="280" y2="178" fill="rgb(0, 0, 0)" stroke="rgb(60, 60, 60)" stroke-width="1px" opacity="0.25"></line></g><g><line x1="0" y1="178" x2="280" y2="178" fill="rgb(0, 0, 0)" stroke="rgb(60, 60, 60)" stroke-width="1px" opacity="0.25"></line><line x1="0" y1="165.28571428571428" x2="280" y2="165.28571428571428" fill="rgb(0, 0, 0)" stroke="rgb(60, 60, 60)" stroke-width="1px" opacity="0.25"></line><line x1="0" y1="152.57142857142856" x2="280" y2="152.57142857142856" fill="rgb(0, 0, 0)" stroke="rgb(60, 60, 60)" stroke-width="1px" opacity="0.25"></line><line x1="0" y1="139.85714285714283" x2="280" y2="139.85714285714283" fill="rgb(0, 0, 0)" stroke="rgb(60, 60, 60)" stroke-width="1px" opacity="0.25"></line><line x1="0" y1="127.14285714285714" x2="280" y2="127.14285714285714" fill="rgb(0, 0, 0)" stroke="rgb(60, 60, 60)" stroke-width="1px" opacity="0.25"></line><line x1="0" y1="114.42857142857143" x2="280" y2="114.42857142857143" fill="rgb(0, 0, 0)" stroke="rgb(60, 60, 60)" stroke-width="1px" opacity="0.25"></line><line x1="0" y1="101.7142857142857" x2="280" y2="101.7142857142857" fill="rgb(0, 0, 0)" stroke="rgb(60, 60, 60)" stroke-width="1px" opacity="0.25"></line><line x1="0" y1="89" x2="280" y2="89" fill="rgb(0, 0, 0)" stroke="rgb(60, 60, 60)" stroke-width="1px" opacity="0.25"></line><line x1="0" y1="76.28571428571428" x2="280" y2="76.28571428571428" fill="rgb(0, 0, 0)" stroke="rgb(60, 60, 60)" stroke-width="1px" opacity="0.25"></line><line x1="0" y1="63.571428571428584" x2="280" y2="63.571428571428584" fill="rgb(0, 0, 0)" stroke="rgb(60, 60, 60)" stroke-width="1px" opacity="0.25"></line><line x1="0" y1="50.85714285714286" x2="280" y2="50.85714285714286" fill="rgb(0, 0, 0)" stroke="rgb(60, 60, 60)" stroke-width="1px" opacity="0.25"></line><line x1="0" y1="38.14285714285714" x2="280" y2="38.14285714285714" fill="rgb(0, 0, 0)" stroke="rgb(60, 60, 60)" stroke-width="1px" opacity="0.25"></line><line x1="0" y1="25.428571428571416" x2="280" y2="25.428571428571416" fill="rgb(0, 0, 0)" stroke="rgb(60, 60, 60)" stroke-width="1px" opacity="0.25"></line><line x1="0" y1="12.714285714285694" x2="280" y2="12.714285714285694" fill="rgb(0, 0, 0)" stroke="rgb(60, 60, 60)" stroke-width="1px" opacity="0.25"></line><line x1="0" y1="0" x2="280" y2="0" fill="rgb(0, 0, 0)" stroke="rgb(60, 60, 60)" stroke-width="1px" opacity="0.25"></line></g></g></g><g><g><line x1="0" y1="152.57142857142856" x2="280" y2="152.57142857142856" fill="rgb(0, 0, 0)" stroke="rgb(153, 153, 153)" stroke-width="1.5px"></line></g></g><g><g><line x1="23.333333333333332" y1="0" x2="23.333333333333332" y2="178" fill="rgb(0, 0, 0)" stroke="rgb(153, 153, 153)" stroke-width="1.5px"></line></g></g><g><g><g><g><g><path stroke="rgb(255, 112, 67)" stroke-width="2px" d="M23.560319999999997,22.212217603410977L23.84704,23.419157377311166L23.88288,23.833379400019737L24.193493333333333,23.796611287889363L24.46826666666667,24.070944643947172L25.197013333333334,26.805779581777756L25.23285333333333,29.377170763639924L25.340373333333336,29.66365941628183L26.08106666666667,30.300263376996895L26.1408,31.39096773256506L26.39168,32.09990513565356L26.535040000000002,32.92010182010037L26.60672,34.42488556975394L27.024853333333333,35.5801749405384L27.048746666666666,35.391785943780945L27.14432,36.59271537068349L27.490773333333333,37.099539172551005L27.729706666666665,37.151410606220765L28.374826666666664,36.679384870935905L28.840746666666668,37.735368735858344L29.008,37.41262829846059L29.748693333333332,38.32932790509929L30.07125333333333,38.3461443958208L30.2624,38.42318733007028L30.346026666666667,38.291764761285776L30.35797333333333,38.209974103179036L30.752213333333334,39.69008505700873L30.91946666666667,43.71173313252075L31.074773333333333,42.80514277445104L31.242026666666668,44.61256752972102L31.361493333333332,45.15589471424357L31.8752,44.41917914449709L31.970773333333334,44.766424263860785L32.06634666666667,47.380392104980956L32.48448,46.42527602241347L32.532266666666665,45.25882510862334L32.55616,47.893887665274036L32.72341333333333,46.99065985214949L32.74730666666667,47.104886145101744L32.830933333333334,47.70949604889657L32.92650666666667,45.62998047003367L32.99818666666667,43.652883533569025L33.33269333333333,43.35315669149216L34.63488,44.93192988149747L34.94549333333333,47.773854881468736L34.95744,45.38410317624067L35.02912,44.53272066289509L35.1008,46.152955944591724L35.315839999999994,49.17225188078672L35.35168,51.64991090507068L35.4592,49.03597651265383L36.04458666666667,45.68154886823447L36.08042666666667,48.36005394819492L36.15210666666666,49.33023988190973L36.22378666666666,47.31015253482914L36.40298666666666,47.58606087389222L36.474666666666664,47.410351779255166L36.534400000000005,46.63835984837573L37.15562666666666,46.533254749945996L37.215360000000004,47.753447267975645L37.227306666666664,47.42065938327687L37.442346666666666,51.25164752014865L37.597653333333334,50.750760032158865L38.20693333333334,51.06091765624731L38.41002666666667,52.24182843177418L39.06709333333333,51.34738760766153L39.10293333333333,49.56093636158309L39.27018666666667,51.054382427268706L39.317973333333335,52.11666654230309L39.89141333333333,55.01401179753718L39.97504,55.920666650415185L40.23786666666667,59.25825613638034L40.38122666666666,59.5638060887387L40.50069333333333,61.30921566007916L40.859093333333334,56.84046794399933L40.99050666666667,54.121539982708185L41.08608,56.9263106642334L41.15776,54.990790176452734L41.54005333333333,53.50242856029364L41.88650666666666,53.368387913862165L42.07765333333334,56.1680800908902L42.268800000000006,55.0724352220015L42.316586666666666,53.56478371735311L42.519679999999994,55.38201374804231L42.93781333333334,54.65033327934296L43.43957333333333,53.84746330106263L43.54709333333333,55.75739672513353L43.67850666666667,55.61935852861474L43.76213333333334,56.48283853554085L43.86965333333333,58.65426711777576L44.03690666666667,58.897931882124354L44.0608,64.14804629587006L44.096639999999994,60.88087006698345L44.62229333333333,60.88909569981443L45.159893333333336,61.40955890691214L45.37493333333333,59.553292777139404L45.48245333333333,61.8798743334829L45.63776,61.1958423148899L45.67359999999999,62.68659243787323L45.76917333333333,64.77068480477584L46.247040000000005,62.41615577117116L46.45013333333333,62.770705101344035L46.5696,61.915827364765875L46.60544,61.386010197001085L47.25056000000001,62.955348180905546L47.39392,61.98834277308234L47.66869333333333,63.47660752008109L48.11072,67.03053957657154L48.14656,67.47323996429185L48.15850666666666,70.90227198450206L48.254079999999995,66.7408008702645L48.30186666666667,66.49311966978092L48.385493333333336,71.00013036640888L49.01866666666667,70.82507808360616L49.102293333333336,70.077579249205L49.472640000000006,69.79865512889049L49.520426666666665,71.03199267684556L49.616,70.43353016214196L49.711573333333334,72.41223844226458L49.75936,70.31206146168182L49.99829333333333,70.94086897289097L50.05802666666667,72.0061938382961L50.06997333333333,70.29258276840996L50.12970666666667,70.47505032398585L50.30890666666667,70.74266279735565L50.36864,73.6741889434106L50.59562666666667,73.4750828540268L50.786773333333336,73.69028017326418L50.90624,71.70672177402426L51.049600000000005,72.4507004754013L51.360213333333334,74.7877110613573L51.467733333333335,75.79081962970596L51.88586666666667,75.6413231281501L51.89781333333333,80.08443366728879L51.921706666666665,77.66653060121075L52.44736,78.20151378973821L52.54293333333334,78.24800234509493L52.65045333333333,78.028666923992L52.674346666666665,78.1252241793586L52.73408,76.07984246392924L53.03274666666667,77.63704935402455L53.044693333333335,78.70175973844144L53.16416,76.89551260292639L53.188053333333336,78.26133313821109L53.24778666666666,78.2943368582423L53.41504,78.39467222008933L53.48672,78.10149102006368L53.59424,78.28996841580363L53.77344,79.48257225180934L53.84512,77.83967818019806L54.47829333333333,78.72471903765724L55.42208,78.77300250277492L55.637119999999996,81.43119875551888L56.07914666666667,80.09040852932539L56.2464,80.78922756726301L56.66453333333333,79.44365910930573L57.656106666666666,81.20576653966049L57.94282666666666,83.62806254678215L58.791039999999995,80.45281162463998L58.88661333333333,80.35747545636008L59.31669333333333,76.89321340470161L59.54368,79.16130203982804L59.639253333333336,76.98287770140537L59.675093333333336,79.41939352828996L60.368,81.02573035798002L61.108693333333335,82.40519035074598L61.29984,84.47005492405756L61.51488,87.41200822225352L61.526826666666665,87.22679280844584L61.93301333333333,90.29640389957665L62.05248,86.03060704158925L62.088319999999996,84.12595509104243L62.10026666666666,84.62360016131927L62.12416,88.44303428562344L62.13610666666667,88.07359120507155L62.43477333333333,87.34303309305551L62.829013333333336,86.09461381476973L63.30688,85.17864250548651L63.67722666666666,88.34646226325698L63.999786666666665,87.51931752606245L64.05951999999999,87.03253084668779L64.32234666666666,86.95727110909124L64.54933333333334,84.85039196614443L64.72853333333333,87.47450778095053L64.91968,87.81569606615548L65.26613333333334,86.0310221722076L65.30197333333334,86.86243297604531L65.60064,88.95951969762758L66.35328,90.31040589756694L66.56832,88.28544514283834L66.59221333333333,91.4676269891748L66.61610666666667,91.54401091354426L66.68778666666667,91.32968412579923L67.02229333333334,91.45988564763138L67.18954666666666,89.1024454827953L67.85856,89.55544544944541L67.90634666666666,88.90414424268317L68.03776,88.64305256494059L68.65898666666666,89.65342618977787L68.90986666666667,88.64353138863218L68.9696,89.66786975742593L68.99349333333333,89.48723729812122L69.11296,90.83794977540722L69.5072,89.84249147000028L69.65056,90.4401241860686L70.27178666666667,89.7983099822767L70.60629333333334,91.62237310266471L70.9408,92.00493533184854L71.39477333333333,91.6446077341651L71.52618666666666,92.8387458307718L71.56202666666667,90.23696182014451L72.24298666666667,90.41377556059474L72.30272000000001,89.80285613378116L72.43413333333334,92.66580363042151L73.30624,94.49140989055714L73.4496,95.07377394173261L73.47349333333334,94.30822821083753L73.53322666666666,92.71016346843041L73.54517333333334,93.28054014616096L73.84384,94.26708120823773L73.90357333333333,94.58532142898534L73.93941333333333,94.81729298815358L74.03498666666667,96.9355199182856L74.27392,96.16023192502595L74.30976000000001,96.18021462634867L74.50090666666667,96.82532463067741L74.76373333333333,96.79193112437876L74.91904,97.10406576249828L74.94293333333334,97.03573487024376L75.54026666666667,96.43797343521976L75.82698666666666,97.13259181878196L75.91061333333333,98.1046055406405L75.98229333333333,95.99549821232483L76.26901333333333,96.33786970419806L76.30485333333333,97.57309328683941L77.00970666666666,98.8246095948399L77.2128,100.26495111508767L77.46368000000001,100.48415589304072L78.03712,101.39637450473573L78.07296000000001,101.3163675348073L78.26410666666668,102.28173579114478L78.63445333333333,100.02199189097932L78.96896,98.07741433008974L79.06453333333333,98.81162948214262L79.11232000000001,98.8288799350796L79.20789333333333,98.72161491579128L79.64992,97.80449199596829L79.70965333333334,100.24690901163518L80.09194666666667,100.23650557353079L80.18752,96.96218320802099L80.29504,94.75327130345507L80.54592,96.04440968829907L80.68928,97.50375921657222L80.71317333333333,98.77512013734558L81.16714666666667,98.57206203490347L81.31050666666667,99.60891512261881L81.81226666666666,99.37438752190502L82.62464,98.66924942693849L82.73216000000001,101.07487949314473L82.76799999999999,98.81680732120726L83.67594666666666,98.98153539048567L83.69984000000001,101.63064459462552L83.71178666666667,101.69627064338509L84.34496,103.9119853710262L84.67946666666667,100.69062699714641L85.25290666666666,99.18567548553891L85.46794666666666,101.44185281185186L85.93386666666666,101.88843763446393L86.5312,102.61507906916235L87.00906666666667,103.11478989534503L87.20021333333334,102.76044953932974L87.36746666666667,100.89052462194161L88.09621333333332,102.69804676711267L88.35904000000001,102.96722387788803L88.99221333333334,104.62959674479856L89.23114666666666,103.91502987008099L89.25504,102.43740233917376L89.63733333333333,102.7852316447457L89.92405333333333,103.96268363883259L90.09130666666667,103.61364550644254L90.60501333333333,102.36688152617955L90.93952,101.73257955624989L90.96341333333334,103.90350751621409L91.0112,101.74554354786888L91.19040000000001,102.81295764436048L91.68021333333334,102.9270807061264L91.71605333333332,102.73994589938168L92.34922666666667,100.27538799188315L92.71957333333333,102.22933584672421L92.73151999999999,101.35199893504848L92.93461333333333,100.88527593862439L92.97045333333334,102.4849072771072L93.37664000000001,103.96328008973255L93.40053333333333,102.16604698523929L93.48416,100.8758586421825L93.91423999999999,101.78044928505182L94.16512,101.71156020314278L94.45184,101.69428787185079L94.51157333333335,104.31254438236209L94.58325333333333,104.78422273373943L94.90581333333333,106.81972941009859L95.14474666666666,106.09729522785172L95.20447999999999,105.77057817343675L95.38368,103.32108443408917L95.44341333333334,102.19843969175473L95.95712,103.39823102099962L96.25578666666667,103.7974071145082L96.27968,104.5363260906098L96.47082666666667,104.54293067462193L96.59029333333334,104.99661428455677L97.18762666666666,106.21026210365054L97.41461333333334,104.9422358773789L97.56992,107.19011780465067L97.6416,104.86487113570395L97.79690666666667,105.5417802111988L98.47786666666667,103.50168068440294L98.75264,105.21647545833312L98.81237333333334,103.87906604492022L99.09909333333333,105.68022735321816L99.23050666666667,106.52444919844191L99.36192,105.1751206247279L99.51722666666666,105.65853839855436L99.80394666666668,107.88650408147683L100.93888,107.19294043550524L100.95082666666667,106.06792912924921L100.99861333333334,105.37234118522272L101.23754666666666,104.67033213256722L101.24949333333333,102.26037944483116L101.35701333333333,103.8671869787927L101.88266666666667,104.39992348188578L102.00213333333335,104.50054024870136L102.22912,108.16154481556121L102.87424,104.63269429811642L102.98176000000001,105.03873214880197L103.05344,104.99455812344975L103.12512000000001,104.26428988268563L103.16095999999999,105.2879657531075L103.24458666666666,104.87562925892254L103.34016,105.73926293078516L103.37599999999999,105.94885001400894L103.51935999999999,103.75871777597368L103.84192,103.81235421763412L103.88970666666667,104.01929633912518L104.02112,104.13880247020681L104.96490666666668,104.32506435173555L105.13216,103.50181629266449L105.22773333333333,103.45849165068589L105.40693333333333,104.800735553014L106.18346666666666,105.52707503517644L106.52992,105.48691116397828L106.56576,102.64755140915662L106.87637333333333,104.29463756955184L107.13919999999999,103.53604756264654L108.05909333333334,103.27280048751948L108.23829333333333,103.29358353067197L108.33386666666667,101.51979992129232L108.60864000000001,101.92496154765125L108.82368,106.26561157228168L109.30154666666667,106.43732935892795L109.55242666666666,106.58404895829369L109.92277333333334,104.18027649280896L110.55594666666667,104.36097065184991L110.68736,105.04136122041206L110.9024,105.07467711773329L111.02186666666667,104.26790997441128L111.03381333333333,106.18186632853629L111.2608,106.44250084028343L111.53557333333333,105.01206332910053L111.76256000000001,103.21072473975244L112.22848,104.17255968363418L112.26432000000001,105.97625475745484L112.34794666666667,107.38711105359248L112.46741333333333,108.24179879087086L112.50325333333333,106.33296715430286L112.56298666666667,105.57532119962407L112.68245333333333,105.3581058378644L113.07669333333334,104.74471879830863L113.30368,106.12250823788672L114.24746666666667,105.32912220707094L114.6656,106.39558330182848L114.86869333333334,104.87801357425309L115.04789333333333,105.59480357359085L115.17930666666666,105.48459142389608L115.25098666666668,105.97932689666662L115.54965333333334,104.82626416424291L115.60938666666667,104.33249006865333L115.66912,105.95703184892908L115.88416000000001,106.88083373992036L116.01557333333334,107.39297343698462L116.05141333333334,104.35701077823235L116.29034666666666,106.46836574717142L116.38592,106.25519945187777L116.50538666666667,106.78077841634737L116.92352,106.0342264395495L116.98325333333334,107.10693213557157L117.712,108.43895209219173L117.72394666666668,107.86425529097048L118.10624,106.54508091655941L118.71552000000001,107.45626830674324L118.81109333333333,108.31180727253624L119.22922666666668,108.68650526863497L119.36064,108.32038301181379L119.504,109.10706155441578L119.70709333333333,107.78415930492251L120.42389333333333,109.67805012426885L120.71061333333334,107.99163581859622L121.06901333333333,108.29819553709105L121.1168,108.11454266080902L121.28405333333333,108.92468149354416L121.48714666666667,104.72822117484681L121.55882666666668,105.19052245424433L122.06058666666667,106.73690249191327L122.25173333333333,106.7581318443726L122.38314666666668,106.34406539014385L122.58623999999999,107.26263444549683L122.82517333333334,106.41871605471876L122.88490666666668,106.60243181764461L122.9088,107.20064499604331L122.98048,109.643320272985L123.21941333333332,107.3015638704266L123.25525333333333,108.56734412743502L123.31498666666667,108.45316408092376L123.42250666666666,109.81339841067975L124.49770666666667,108.9813668343521L124.50965333333333,108.66453040405409L124.53354666666667,107.91800212293869L124.86805333333334,109.85797566346615L124.92778666666666,108.88225876195604L124.98752,107.76232017135926L125.68042666666668,109.55573114616033L125.99104,108.47268533880072L126.09855999999999,111.99349001239187L126.4928,111.16483574112239L126.50474666666668,111.37138578465996L126.61226666666667,110.79698714545789L127.06624,110.85657019489146L127.16181333333334,111.95909829268452L127.22154666666667,110.68938571325981L127.60384,110.69319581881958L128.16533333333334,109.1654084948732L128.21312,109.96251365964952L128.48789333333332,111.17026286634156L128.70293333333333,111.32169547522616L128.73877333333334,109.77051068366583L128.98965333333334,112.57529176571293L129.12106666666665,113.85019753071943L129.40778666666668,113.19914230947234L129.49141333333333,111.65255244860629L129.69450666666665,111.87440016101688L129.7184,113.82955455747351L129.75424,114.54398242045278L130.00512,114.89930539800596L130.02901333333332,113.44807760912784L130.08874666666668,114.29578521506298L130.22016,114.43381854686919L130.36352,112.97270292346519L130.56661333333335,110.83291201262294L130.78165333333334,112.29775531911879L130.85333333333332,111.72878827262623L130.9728,114.74374983247766L131.19978666666668,114.68872295682476L131.52234666666666,113.45655376575158L131.61792,111.89138829370255L131.8688,110.71817850182686L132.71701333333334,110.72832749381375L133.44576,108.92287616615889L133.56522666666666,109.33633269991005L133.64885333333334,109.87493306132613L133.97141333333335,110.76867294322354L134.22229333333334,111.28039347791358L134.53290666666666,109.47761360717313L134.64042666666666,110.7589353998963L135.02272,110.86998011693996L135.2736,109.67630150844326L135.78730666666667,108.37103725544699L135.82314666666667,109.38836571106282L136.06207999999998,110.43470477010759L136.14570666666665,110.51178521481724L136.45632,109.80798591713649L137.29258666666666,110.52878752672996L137.40010666666666,108.55664508621204L137.48373333333333,109.75329442668146L137.63904,109.79609647728485L137.90186666666665,109.92683423192362L138.03328000000002,111.62680525474669L138.16469333333333,111.8671879463966L138.35584,112.05538537038248L138.64256,111.08349676943689L138.71424000000002,112.26377148638291L138.98901333333333,111.30074428360025L139.20405333333335,111.20851087560187L139.9328,110.85578602376113L140.04032,110.357836693319L140.56597333333332,112.69971680543647L140.90048,112.3227155509274L140.93632,113.12458914789784L141.41418666666667,111.47805875362037L141.70090666666667,113.61282649444475L142.47744,112.61204901052247L143.40928,111.3043645032722L143.46901333333335,111.76337029473567L143.50485333333336,111.6395986876795L143.67210666666668,109.66907106819633L143.81546666666668,110.05548936373862L144.09024,111.53538105124075L144.16192,113.02617172908518L144.34112,112.96303031749565L144.4128,111.94963727452863L144.53226666666666,110.93178794248577L144.8189866666667,108.93003198951119L145.02208,111.81012746789408L145.28490666666667,112.75002286407646L145.73888,113.78712217383136L145.8702933333333,112.84051957693086L146.10922666666667,115.58082910330356L146.19285333333332,113.09474319701434L146.25258666666667,113.59590845908036L147.54282666666666,113.8336121995425L147.57866666666666,113.00140071693684L147.75786666666667,112.55271660726869L147.8295466666667,113.54697173330717L147.88927999999999,111.28971254012816L148.40298666666666,110.98396706434048L148.53439999999998,111.70671679885362L148.65386666666666,111.28245099968419L148.70165333333333,112.19165390228112L148.7136,113.71774917880481L149.04810666666668,112.99226532176435L149.15562666666665,111.53205474833685L149.43040000000002,112.98459142986388L149.44234666666668,110.65286250268063L149.58570666666665,110.71192130998415L149.95605333333333,110.05027986500049L150.06357333333335,108.57809420188298L150.26666666666665,111.21338670791916L150.3264,109.61774288704746L150.43392,109.70110641686854L150.52949333333333,111.97724248629055L150.62506666666667,111.27133387465877L150.82816000000003,114.01707671282736L151.18656,112.53212256719924L151.30602666666667,109.54587156128184L151.74805333333333,110.44562867186673L151.85557333333333,109.15666519600616L151.86751999999998,106.91634251815016L152.13034666666664,108.47164774877135L152.2139733333333,108.88888625297898L152.54847999999998,109.73658317153595L152.66794666666667,110.86013225893855L152.72768000000002,110.73443832505153L152.85909333333333,109.49660094257663L152.96661333333333,110.22610699597027L153.13386666666668,111.40904748460325L153.58784,110.42810409421982L153.62368,110.34846669953791L154.02986666666666,109.56448377681808L154.07765333333333,108.98857067533157L154.35242666666667,106.98466539855919L154.4241066666667,107.6532329110868L154.448,106.52950935806521L154.92586666666665,106.033959528991L154.99754666666666,109.24787197013572L155.02144,108.13069575726912L155.15285333333333,107.77973524834384L155.21258666666665,107.67722102296325L155.37984,109.88231829067963L155.48736,108.82515235528459L155.67850666666666,110.0930194331031L155.97717333333333,110.02658589490606L156.20416,106.60500424134601L156.31168,108.37495537416856L156.52671999999998,107.76031098597137L156.84928,107.62842367787891L157.1240533333333,109.64682056810017L157.14794666666666,109.0392928908032L157.15989333333332,110.48519844947825L157.86474666666666,109.69017386263607L157.90058666666667,109.27952990428209L158.00810666666666,105.33069298137016L158.46208,108.01055161466047L158.83242666666666,106.00982505097465L159.07136,107.96154863332113L159.66869333333335,110.84449304756166L159.76426666666669,108.0566775861097L160.19434666666666,109.97623666387787L160.39744000000002,111.65213162714579L160.63637333333332,112.81213264559027L160.97088,112.96155408302394L161.00672,113.70613617467549L161.09034666666668,111.64744480284084L161.11424,112.92118239302651L161.31733333333335,114.03125027868961L161.4129066666667,114.81929413963786L161.52042666666665,112.80447975177937L161.6996266666667,113.89864250562499L161.89077333333333,113.33590306877525L162.35669333333334,113.17202690522673L162.5000533333333,112.13107376010555L162.64341333333334,111.55064701436194L162.77482666666666,113.1809620753251L162.94208,113.2288793331151L162.96597333333332,113.99434095144574L163.39605333333336,114.31486522354578L163.82613333333333,114.19160553249739L164.1486933333333,114.38502595342155L164.22037333333333,112.33576554112663L164.32789333333335,112.83181052409854L164.68629333333334,111.40078677366692L164.97301333333334,111.41717117804598L165.18805333333333,112.53346767123102L165.58229333333333,113.70756356602814L165.90485333333334,112.75656920909996L166.06016000000002,111.06930331475463L166.08405333333332,109.66329782742132L166.09599999999998,111.34112386938936L166.33493333333334,112.67001870296602L166.3946666666667,113.0682896487674L166.56192,113.12809805860967L166.68138666666667,113.31345152645106L166.74112000000002,114.13512513852253L166.82474666666667,113.7274947615291L167.05173333333335,115.32247121983576L167.19509333333332,112.02521349956024L167.61322666666666,111.39119709711925L168.35392000000002,111.92146456945929L168.53312,113.2305111450493L168.66453333333334,113.28042974589361L168.71231999999998,116.33528401649565L168.90346666666667,116.90959625872202L169.29770666666667,117.36662139724459L169.40522666666666,116.89665755511638L169.93088,114.83887326561486L170.16981333333334,116.07024977454248L170.20565333333334,115.99379406736655L170.39679999999998,114.5553768162766L170.58794666666668,115.22637088463878L171.43616,114.71266387834143L171.54368,115.18151298977472L171.91402666666667,115.99575765024147L172.14101333333332,115.0884307125923L172.17685333333333,115.41583819132208L172.43967999999998,114.69079415507667L173.21621333333334,115.87169876741754L173.31178666666668,114.44192279179754L173.56266666666667,114.81554083619716L173.82549333333333,115.0269846576958L174.17194666666666,113.83307670192688L174.7214933333333,116.4396276256505L175.05599999999998,115.47316825787888L175.76085333333333,115.39117513963552L175.952,112.95072247648478L176.32234666666668,113.30866185465001L176.41791999999998,113.98016839833754L176.66879999999998,113.0615796525835L176.96746666666667,114.28252811395197L177.0272,113.37401982557898L177.18250666666665,115.42560584790782L177.33781333333332,116.76331758850893L177.40949333333333,115.56918104587159L177.91125333333335,114.45393175115512L177.9232,117.3342585764717L178.16213333333334,116.8735840883999L178.85504,117.18888889014755L179.05813333333333,116.44480353067624L179.3806933333333,114.96785290777015L179.39264,116.65550978368971L179.48821333333333,116.83386440933191L179.63157333333334,117.61576918450687L179.77493333333334,118.43232124687421L179.95413333333335,119.05364968051936L180.00191999999998,118.18740905667457L180.20501333333334,119.11939810124106L180.42005333333333,118.5818395485618L180.63509333333334,120.81719903853083L180.81429333333332,120.11184652613385L180.93376,118.00855060285116L180.9696,118.31433637743379L181.11296,119.09568304558846L181.12490666666667,119.96753485303418L181.17269333333334,120.46584214577425L181.5072,120.59990517809172L181.81781333333333,122.06079260757929L182.21205333333333,121.86020771585154L182.39125333333334,121.6259412181852L182.82133333333334,119.82824401078346L183.45450666666667,120.63146200701514L183.50229333333334,121.22088044922218L183.74122666666665,120.77309622277929L184.3266133333333,119.8915499869166L184.67306666666664,120.5231547539766L185.17482666666666,122.25725947531076L185.78410666666667,122.35940464307927L185.96330666666665,121.93930721094816L186.05888,121.53706266426552L186.13056,122.79128378596013L186.72789333333333,123.07236784165478L186.76373333333333,121.46958876188963L186.79957333333334,120.50560083708983L186.95487999999997,121.20283382198875L187.27744,121.54559366314041L187.57610666666667,120.12613969092624L187.65973333333332,121.66848260276265L187.92256,120.98640106302435L188.17344,122.96516769040784L188.32874666666666,121.77762564792303L188.74688,120.81427975162308L189.02165333333332,121.50890452321178L189.05749333333333,121.95663676141896L189.21280000000002,122.35861865141935L189.26058666666668,122.14418494208593L189.84597333333335,122.48131612924811L189.85792,123.55103716843175L190.08490666666665,123.33301486385713L190.12074666666666,122.80941263666318L190.22826666666668,124.19519163269143L190.24021333333334,125.12116731208425L190.31189333333333,125.31703029276049L190.55082666666667,123.60809855921593L190.57472,122.79211898773457L191.55434666666667,124.26477110633408L191.62602666666666,122.43504657553271L192.52202666666668,120.99844647428517L192.85653333333335,121.70530312646105L193.23882666666668,119.29244535797045L193.31050666666667,122.0836949139258L193.58528,122.98414196053525L194.02730666666668,121.1650686692814L194.03925333333333,120.96738723194036L194.11093333333335,121.15330572888513L194.21845333333334,119.93093043034146L194.42154666666667,120.37913576045554L194.56490666666667,120.7729721571313L194.63658666666666,121.64145163755032L194.87552000000002,121.47686036690888L194.9233066666667,121.82838877427042L195.21002666666666,119.85386669185522L195.34144,119.89585213050445L195.93877333333333,120.27120578910316L196.2254933333333,122.410736435122L196.50026666666668,121.36469142728764L196.93034666666665,123.22415418425288L197.21706666666668,123.88835129652162L197.24095999999997,122.44129997883198L197.25290666666666,122.6041119598982L197.96970666666667,122.75755652636683L198.14890666666668,122.99669618602546L198.2205866666667,122.28623840499918L198.57898666666665,121.74675598742536L198.68650666666667,121.62280412828393L198.73429333333334,121.69671315653687L198.80597333333333,121.19546003250136L198.99712,121.04042531912239L199.51082666666667,121.59755559908746L199.65418666666667,119.52675338901093L199.90506666666664,120.07616224137296L199.91701333333333,119.86273561863511L199.9648,120.2168038203366L200.01258666666666,121.37953309670799L200.06037333333333,122.24415254694222L200.26346666666666,123.95787132358039L200.33514666666667,124.36435269460371L200.38293333333334,123.92872144666487L200.70549333333332,124.49079978569084L201.02805333333333,123.74565266602902L201.25503999999998,121.50275774788489L201.63733333333332,122.42985369302664L201.64928,120.365458422699L201.66122666666666,121.10429806169347L201.94794666666667,120.48794869916382L202.72448,121.38326886922734L202.86783999999997,124.18898105401168L203.62048,122.77960364345873L204.12224,124.58082520303483L204.17002666666667,122.20839213929985L204.69568,122.66402148622862L204.92266666666666,124.53181153189296L205.36469333333332,124.9790107025062L205.72309333333334,123.79989292701214L205.80672,126.00206996488649L205.92618666666667,125.46746448995091L206.14122666666668,123.84266894736453L206.416,125.04351536184545L206.61909333333332,123.20104203075168L206.69077333333334,122.70597684566462L206.7744,123.61428075968367L207.33589333333333,121.18694282393284L207.39562666666666,122.61001398711919L207.58677333333333,120.53266082989032L207.65845333333334,120.86577000405785L207.77792,122.08946676535672L207.99296,124.57750993318461L208.07658666666669,124.41192082288413L208.1960533333333,123.99853074044655L208.21994666666666,123.09775531839873L208.60224,123.31777295543534L208.84117333333336,124.15272966411837L208.97258666666667,121.52051872841793L209.53408,122.96132246070754L209.67744,123.92746159680874L209.80885333333333,123.87705146988574L210.57344,122.9178643652732L210.94378666666665,121.84019392049774L211.38581333333335,120.30260883843495L211.67253333333335,122.23744171306845L211.78005333333334,122.60546356790194L211.85173333333333,124.19033062838697L212.03093333333334,123.13090468192296L212.23402666666667,122.40690502542205L212.40128,121.6650852332163L212.43712000000002,122.21615698156643L212.66410666666667,120.62430837795156L212.89109333333332,122.1739002000563L213.84682666666666,121.72796788998082L214.24106666666665,121.43562668929223L214.33664,123.63375765305594L214.40832,124.17181923351359L214.69504,122.62967780022254L214.70698666666667,122.18262944521139L215.16096,124.86162515990344L215.48352,124.27055862936534L215.62688,121.72886388961938L215.82997333333333,123.65208638927874L215.87776,123.800688790041L216.58261333333334,123.38964194632467L216.73792,124.29285336054926L216.85738666666666,123.46277737755686L216.90517333333332,122.46453335538402L217.20383999999999,121.51192336983702L217.46666666666664,123.45777248480536L218.32682666666668,123.42779459950782L218.58965333333333,123.84847955940637L218.63744,123.84901344884236L218.66133333333335,123.44971612756729L218.67328,124.46001239474921L218.7927466666667,123.17862842508228L219.03168,126.17166629024616L219.34229333333334,126.22084055297536L219.74848,124.87546858589201L219.856,122.92414417760921L220.52501333333333,123.25164632991508L221.17013333333333,122.39722240905155L221.48074666666665,123.29298615845724L221.54048,125.28503333223614L221.7794133333333,124.40142425030407L222.38869333333335,126.12399403274873L222.43648000000002,126.43487936270725L222.81877333333333,125.94802209657213L223.40416000000002,124.13965641979871L223.64309333333333,125.05208113250688L224.02538666666666,123.95622072151974L224.14485333333332,123.31735771445011L224.1568,123.2278712501126L224.45546666666667,122.85040918052181L224.5152,122.47129730107093L224.56298666666666,122.66813567200043L224.73024,122.44412445888447L225.232,123.05063419602487L225.53066666666666,121.95173016908782L226.42666666666665,123.76723476312937L227.22709333333333,123.83545718741134L227.59744,123.50150554270573L228.00362666666666,122.7124578988869L228.01557333333335,122.75641912949283L228.2784,121.46357668734055L228.73237333333336,120.9587107429123L228.79210666666665,121.26467462526486L228.85184,120.92129855924597L228.97130666666666,121.06573541591528L229.29386666666667,122.27892845818805L229.30581333333333,123.33274700952074L229.38943999999998,123.29067131705582L229.55669333333333,122.69513042296043L229.68810666666667,121.3070435121021L229.90314666666666,121.62977372544604L229.92704,121.24920521171023L230.20181333333332,122.24672766237421L230.21376,123.50722349027458L230.22570666666667,124.43292717114315L230.26154666666667,123.61671485375214L230.48853333333332,121.67058505083489L230.90666666666667,121.71113146565435L231.06197333333336,122.05856261470875L231.10976,123.80301258966985L231.26506666666668,122.34281874217274L231.27701333333334,124.4443714853898L231.39648,123.97037755470129L231.52789333333334,123.87154129500436L231.64736000000002,121.91882508438547L231.74293333333333,122.99124509444582L231.8624,123.14211334880355L232.44778666666664,122.35483243182142L232.54336,121.78764792067994L232.59114666666667,123.12942912279054L232.92565333333334,124.37724135832224L233.09290666666666,124.39800751176361L233.16458666666665,123.53159755108031L233.33184,123.2947588217777L233.35573333333335,121.34331484324296L233.43936,122.86637061817811L233.48714666666666,122.81965394521062L233.52298666666667,122.13062827921776L233.53493333333333,123.30150828017344L233.58272,123.92680426050497L233.88138666666666,124.26628424377519L234.00085333333334,127.54933455804326L234.04863999999998,126.9856154293123L234.23978666666667,124.35471181181603L234.40704,124.6266067715651L234.83712,123.66948992903882L234.84906666666666,124.41201621998292L234.93269333333333,123.61952344431415L235.06410666666665,122.8318713400854L235.42250666666666,124.51909695573069L235.64949333333334,125.02008620632708L235.66144,125.22531361080165L235.72117333333333,123.66316692052457L236.0437333333333,121.92552200736932L236.25877333333335,123.06152491439778L236.49770666666666,122.5188909195881L237.82378666666668,123.40420010908286L237.93130666666667,123.3133742763033L238.12245333333334,125.7516121019126L238.15829333333332,125.97231376379224L238.26581333333334,126.11793768360482L238.60032,125.35190245567037L239.00650666666664,123.51028270330423L239.01845333333335,124.02786077741618L239.12597333333332,123.56915511726214L239.16181333333333,124.46730718295242L239.62773333333334,124.10847546284818L239.80693333333332,125.08515663094005L239.9264,124.60806178367713L240.10559999999998,122.06835273607804L240.12949333333333,122.6026600070763L240.22506666666666,122.53721992012244L240.41621333333333,123.16140462743782L240.42816,123.61166591347353L240.65514666666667,123.39888005282853L240.94186666666667,122.26273623005375L241.20469333333332,122.36749685685189L241.5392,122.58242934956078L241.68256,123.00361206880422L242.18432,124.72105039635596L242.22016,124.11146591932015L242.70997333333332,125.03178160344962L242.80554666666666,123.96372640872667L243.77322666666666,123.13984085424687L243.78517333333332,124.20681234523877L244.82453333333333,123.89546252682939L244.92010666666667,122.90089703778364L245.44576,122.21266411224397L245.45770666666667,123.02144713006336L246.06698666666665,123.80904583387158L246.17450666666667,124.32416481611395L246.78378666666666,124.88744816768241L246.90325333333334,124.91630139786558L246.98687999999999,124.71153869106931L247.0466133333333,124.69530705819976L247.33333333333331,125.7726501409268L247.77536,125.46476780592025L247.97845333333333,124.69434911568703L248.48021333333332,124.20643321439044L249.05365333333333,123.15257254187628L249.07754666666665,123.26967015659004L249.53152,123.63222242727136L249.83018666666666,123.93886404492156L249.86602666666667,124.79177310024319L250.05717333333334,125.68236253915713L250.11690666666667,124.00905900155595L250.17664,124.15795833101072L250.39168,125.08821921996676L250.45141333333333,124.52211376953706L250.51114666666666,124.30804119833886L250.65450666666666,123.95376114019331L250.9053866666667,123.51722312636036L251.46688,125.5194810634579L251.62218666666666,125.94406715835913L251.71776,126.2535667629246L252.15978666666666,125.83596374033543L252.35093333333333,124.94044119977147L252.75712,122.94676163881365L252.88853333333336,122.1052193263815L253.04384,123.76105658954828L253.48586666666668,122.53059096100087L253.56949333333336,121.6250174733018L253.61728,121.75054062812758L253.91594666666668,121.74901657263266L254.22656,121.62734033611738L254.70442666666665,121.78719013557372L255.19424,122.5164522949106L255.20618666666667,121.3389591554465L255.23008000000002,121.3531926483566L255.2898133333333,121.75364098952991L255.88714666666667,122.84053320207552L256.12608,122.65795008082773L256.30528,122.59929004071194L256.34112,121.39689942028375L256.36501333333337,122.17725999081455L256.6039466666667,121.10537457506166L256.6756266666667,120.40078630471412" style="fill: none;" fill="none"></path></g></g></g></g><g opacity="0.2"><g><g><g><path stroke="rgb(255, 112, 67)" stroke-width="2px" d="M23.560319999999997,22.212217603410977L23.84704,24.14332124165125L23.88288,24.231032541819985L24.193493333333333,23.753371988024014L24.46826666666667,24.42911427361625L25.197013333333334,30.589040841375066L25.23285333333333,33.054301295961636L25.340373333333336,30.0813626221248L26.08106666666667,31.23913056509835L26.1408,33.010536585535306L26.39168,33.15688123021806L26.535040000000002,34.145933372633806L26.60672,36.67714781420571L27.024853333333333,37.310845664569314L27.048746666666666,35.109423892838606L27.14432,38.3932625225612L27.490773333333333,37.85956040450503L27.729706666666665,37.22920458657401L28.374826666666664,35.971418176378506L28.840746666666668,39.31924801213401L29.008,36.92853534221649L29.748693333333332,39.704347150666365L30.07125333333333,38.371368799890774L30.2624,38.538750818797524L30.346026666666667,38.09463184220451L30.35797333333333,38.08728846481867L30.752213333333334,41.910247700554976L30.91946666666667,49.74419907161166L31.074773333333333,41.445258072444375L31.242026666666668,47.32370366368974L31.361493333333332,45.970885310854214L31.8752,43.31410593645913L31.970773333333334,45.28729190145219L32.06634666666667,51.3013436794281L32.48448,44.99260193961007L32.532266666666665,43.509148768016274L32.55616,51.84648145948138L32.72341333333333,45.635818140847334L32.74730666666667,47.276225583893904L32.830933333333334,48.616410902568276L32.92650666666667,42.51070710590906L32.99818666666667,40.68723813125064L33.33269333333333,42.90356642859322L34.63488,47.300089665821616L34.94549333333333,52.03674238068717L34.95744,41.79947561877114L35.02912,43.25564689295632L35.1008,48.583308867045815L35.315839999999994,53.7011957849775L35.35168,55.366399441446575L35.4592,45.11507492406028L36.04458666666667,40.64990740162986L36.08042666666667,52.37781156812396L36.15210666666666,50.78551878247943L36.22378666666666,44.28002151421137L36.40298666666666,47.9999233824866L36.474666666666664,47.146788137299666L36.534400000000005,45.480371952056885L37.15562666666666,46.37559710230147L37.215360000000004,49.583736045019975L37.227306666666664,46.92147755622864L37.442346666666666,56.99812972545624L37.597653333333334,49.99942880017417L38.20693333333334,51.52615409237998L38.41002666666667,54.013194595064434L39.06709333333333,50.005726371492656L39.10293333333333,46.88125949246543L39.27018666666667,53.29455152579716L39.317973333333335,53.71009271485465L39.89141333333333,59.36002968038831L39.97504,57.28064892973218L40.23786666666667,64.2646403653281L40.38122666666666,60.02213101727622L40.50069333333333,63.927330017089844L40.859093333333334,50.13734636987958L40.99050666666667,50.043148040771484L41.08608,61.133466686521245L41.15776,52.087509444781716L41.54005333333333,51.26988613605499L41.88650666666666,53.16732694421496L42.07765333333334,60.36761835643223L42.268800000000006,53.42896791866846L42.316586666666666,51.303306460380554L42.519679999999994,58.10785879407611L42.93781333333334,53.552812576293945L43.43957333333333,52.64315833364215L43.54709333333333,58.622296861239846L43.67850666666667,55.41230123383659L43.76213333333334,57.77805854593005L43.86965333333333,61.91140999112811L44.03690666666667,59.26342902864728L44.0608,72.02321791648865L44.096639999999994,55.98010572365351L44.62229333333333,60.90143414906092L45.159893333333336,62.19025371755872L45.37493333333333,56.76889358248029L45.48245333333333,65.36974666799817L45.63776,60.16979428700037L45.67359999999999,64.92271762234824L45.76917333333333,67.89682335512978L46.247040000000005,58.88436222076416L46.45013333333333,63.302529096603394L46.5696,60.6335107598986L46.60544,60.59128444535392L47.25056000000001,65.30935515676227L47.39392,60.53783466134753L47.66869333333333,65.70900464057922L48.11072,72.36143766130719L48.14656,68.13729054587228L48.15850666666666,76.04582001481738L48.254079999999995,60.49859419890812L48.30186666666667,66.1215978690556L48.385493333333336,77.76064641135079L49.01866666666667,70.56249965940204L49.102293333333336,68.95633099760327L49.472640000000006,69.38026894841876L49.520426666666665,72.8819989987782L49.616,69.53583639008659L49.711573333333334,75.38030086244855L49.75936,67.16179599080768L49.99829333333333,71.88408023970467L50.05802666666667,73.60418113640377L50.06997333333333,67.72216616358075L50.12970666666667,70.74875165734973L50.30890666666667,71.14408150741032L50.36864,78.07147816249302L50.59562666666667,73.17642371995109L50.786773333333336,74.01307615212032L50.90624,68.73138417516437L51.049600000000005,73.56666852746692L51.360213333333334,78.29322694029126L51.467733333333335,77.29548248222896L51.88586666666667,75.41707837581635L51.89781333333333,86.74909947599683L51.921706666666665,74.03967600209373L52.44736,79.00398857252938L52.54293333333334,78.31773517813001L52.65045333333333,77.69966379233769L52.674346666666665,78.27006006240845L52.73408,73.01176989078522L53.03274666666667,79.97285968916756L53.044693333333335,80.29882531506675L53.16416,74.18614189965385L53.188053333333336,80.31006394113813L53.24778666666666,78.3438424382891L53.41504,78.54517526285989L53.48672,77.6617192200252L53.59424,78.57268450941358L53.77344,81.27147800581795L53.84512,75.37533707278115L54.47829333333333,80.052280323846L55.42208,78.84542770045144L55.637119999999996,85.41849313463483L56.07914666666667,78.07922319003514L56.2464,81.83745612416949L56.66453333333333,77.42530642236981L57.656106666666666,83.84892768519265L57.94282666666666,87.2615065574646L58.791039999999995,75.68993524142674L58.88661333333333,80.21447120394025L59.31669333333333,71.69682032721383L59.54368,82.56343499251774L59.639253333333336,73.71524119377136L59.675093333333336,83.07416726861682L60.368,83.43523560251508L61.108693333333335,84.47438033989498L61.29984,87.56735178402492L61.51488,91.8249381695475L61.526826666666665,86.94896968773433L61.93301333333333,94.90082053627287L62.05248,79.63191175460815L62.088319999999996,81.26897716522217L62.10026666666666,85.37006776673454L62.12416,94.17218547207969L62.13610666666667,87.51942658424377L62.43477333333333,86.24719592503139L62.829013333333336,84.22198489734104L63.30688,83.80468554156167L63.67722666666666,93.0981918999127L63.999786666666665,86.27860042027065L64.05951999999999,86.30235082762582L64.32234666666666,86.84438150269645L64.54933333333334,81.69007325172424L64.72853333333333,91.41068150315965L64.91968,88.32747849396297L65.26613333333334,83.35401133128575L65.30197333333334,88.10954918180194L65.60064,92.10514978000096L66.35328,92.33673519747597L66.56832,85.24800401074546L66.59221333333333,96.24089975867952L66.61610666666667,91.65858680009842L66.68778666666667,91.00819394418171L67.02229333333334,91.6551879303796L67.18954666666666,85.5662852355412L67.85856,90.23494539942061L67.90634666666666,87.9271924325398L68.03776,88.25141504832676L68.65898666666666,91.16898662703377L68.90986666666667,87.12868918691363L68.9696,91.20437731061662L68.99349333333333,89.21628860916411L69.11296,92.86401849133628L69.5072,88.34930401188987L69.65056,91.33657326017106L70.27178666666667,88.83558867658887L70.60629333333334,94.35846778324672L70.9408,92.5787786756243L71.39477333333333,91.10411633763994L71.52618666666666,94.62995297568185L71.56202666666667,86.33428580420357L72.24298666666667,90.6789961712701L72.30272000000001,88.88647699356079L72.43413333333334,96.96022487538201L73.30624,97.22981928076064L73.4496,95.94732001849583L73.47349333333334,93.15990961449486L73.53322666666666,90.31306635481971L73.54517333333334,94.13610516275679L73.84384,95.74689280135291L73.90357333333333,95.06268176010677L73.93941333333333,95.16525032690593L74.03498666666667,100.11286031348365L74.27392,94.99729993513652L74.30976000000001,96.21018867833274L74.50090666666667,97.79298963717052L74.76373333333333,96.74184086493084L74.91904,97.57226771967751L74.94293333333334,96.93323853186199L75.54026666666667,95.54133128268379L75.82698666666666,98.17451939412526L75.91061333333333,99.56262612342834L75.98229333333333,92.83183721985137L76.26901333333333,96.85142694200789L76.30485333333333,99.42592866080147L77.00970666666666,100.70188405684063L77.2128,102.42546339545932L77.46368000000001,100.81296305997031L78.03712,102.76470242227828L78.07296000000001,101.19635707991463L78.26410666666668,103.72978817565101L78.63445333333333,96.63237604073116L78.96896,95.16054798875535L79.06453333333333,99.91295221022197L79.11232000000001,98.85475561448506L79.20789333333333,98.56071738685881L79.64992,96.42880761623383L79.70965333333334,103.91053453513554L80.09194666666667,100.2209004163742L80.18752,92.05069965975625L80.29504,91.43990344660622L80.54592,97.98111726556505L80.68928,99.69278350898198L80.71317333333333,100.68216151850564L81.16714666666667,98.2674748812403L81.31050666666667,101.16419475419181L81.81226666666666,99.02259612083435L82.62464,97.61154228448868L82.73216000000001,104.6833245924541L82.76799999999999,95.42969906330109L83.67594666666666,99.2286274944033L83.69984000000001,105.60430840083531L83.71178666666667,101.7947097165244L84.34496,107.2355574624879L84.67946666666667,95.85858943632671L85.25290666666666,96.92824821812766L85.46794666666666,104.8261188013213L85.93386666666666,102.55831486838204L86.5312,103.70504122120994L87.00906666666667,103.86435613461903L87.20021333333334,102.22893900530678L87.36746666666667,98.08563724585942L88.09621333333332,105.40932998486927L88.35904000000001,103.37098954405104L88.99221333333334,107.12315604516438L89.23114666666666,102.84317955800465L89.25504,100.22096104281289L89.63733333333333,103.30697560310364L89.92405333333333,105.72886162996292L90.09130666666667,103.09008830785751L90.60501333333333,100.49673555578505L90.93952,100.78112660135542L90.96341333333334,107.15989945616042L91.0112,98.50859759535109L91.19040000000001,104.41407878909793L91.68021333333334,103.09826529877526L91.71605333333332,102.45924368926457L92.34922666666667,96.57855113063539L92.71957333333333,105.16025762898582L92.73151999999999,100.03599356753486L92.93461333333333,100.18519144398826L92.97045333333334,104.88435428483146L93.37664000000001,106.18083930867058L93.40053333333333,99.47019732849938L93.48416,98.94057612759727L93.91423999999999,103.13733524935586L94.16512,101.60822658027922L94.45184,101.6683793749128L94.51157333333335,108.23992914812905L94.58325333333333,105.4917402608054L94.90581333333333,109.87298942463738L95.14474666666666,105.0136439544814L95.20447999999999,105.28050259181431L95.38368,99.64684382506779L95.44341333333334,100.51447257825306L95.95712,105.19791801486697L96.25578666666667,104.3961712547711L96.27968,105.64470455476216L96.47082666666667,104.5528375506401L96.59029333333334,105.67713969945908L97.18762666666666,108.03073383229119L97.41461333333334,103.0401965379715L97.56992,110.56194069555828L97.6416,101.3770011322839L97.79690666666667,106.5571438244411L98.47786666666667,100.44153139420918L98.75264,107.78866761922836L98.81237333333334,101.87295192480087L99.09909333333333,108.38196931566512L99.23050666666667,107.79078196627754L99.36192,103.15112776415688L99.51722666666666,106.38366505929402L99.80394666666668,111.22845260586058L100.93888,106.15259496654784L100.95082666666667,104.3804121698652L100.99861333333334,104.32895926918303L101.23754666666666,103.61731855358397L101.24949333333333,98.64545041322708L101.35701333333333,106.27739827973502L101.88266666666667,105.19902823652541L102.00213333333335,104.6514653989247L102.22912,113.65305166585105L102.87424,99.33941852194923L102.98176000000001,105.64778892483031L103.05344,104.92829708542143L103.12512000000001,103.16888752153942L103.16095999999999,106.82347955874035L103.24458666666666,104.25712451764515L103.34016,107.03471343857902L103.37599999999999,106.26323063884463L103.51935999999999,100.47351941892079L103.84192,103.89280888012478L103.88970666666667,104.32970952136176L104.02112,104.31806166682925L104.96490666666668,104.60445717402867L105.13216,102.26694420405796L105.22773333333333,103.39350468771798L105.40693333333333,106.81410140650613L106.18346666666666,106.61658425842013L106.52992,105.42666535718101L106.56576,98.38851177692413L106.87637333333333,106.7652668101447L107.13919999999999,102.3981625522886L108.05909333333334,102.87792987482888L108.23829333333333,103.32475809540068L108.33386666666667,98.85912450722286L108.60864000000001,102.5327039871897L108.82368,112.77658660922732L109.30154666666667,106.69490603889739L109.55242666666666,106.80412835734231L109.92277333333334,100.57461779458183L110.55594666666667,104.63201189041138L110.68736,106.06194707325527L110.9024,105.12465096371514L111.02186666666667,103.0577592594283L111.03381333333333,109.05280085972377L111.2608,106.83345260790416L111.53557333333333,102.86640706232616L111.76256000000001,100.50871685573033L112.22848,105.61531209945679L112.26432000000001,108.68179736818587L112.34794666666667,109.50339549779892L112.46741333333333,109.52383039678847L112.50325333333333,103.4697196994509L112.56298666666667,104.43885226760592L112.68245333333333,105.03228279522487L113.07669333333334,103.82463823897498L113.30368,108.18919239725386L114.24746666666667,104.13904316084725L114.6656,107.99527494396483L114.86869333333334,102.60165898289L115.04789333333333,106.6699885725975L115.17930666666666,105.3192731993539L115.25098666666668,106.72143010582244L115.54965333333334,103.09667006560734L115.60938666666667,103.591828925269L115.66912,108.3938445193427L115.88416000000001,108.2665365764073L116.01557333333334,108.16118298258101L116.05141333333334,99.80306679010391L116.29034666666666,109.63539820058006L116.38592,105.9354500089373L116.50538666666667,107.56914686305183L116.92352,104.91439847435271L116.98325333333334,108.71599067960467L117.712,110.43698202712196L117.72394666666668,107.00221008913857L118.10624,104.56631935494286L118.71552000000001,108.823049392019L118.81109333333333,109.59511572122574L119.22922666666668,109.24855226278305L119.36064,107.77119962658202L119.504,110.28707936831883L119.70709333333333,105.7998059306826L120.42389333333333,112.51888635328838L120.71061333333334,105.46201436008727L121.06901333333333,108.75803511483329L121.1168,107.83906334638596L121.28405333333333,110.1398897426469L121.48714666666667,98.43353069680077L121.55882666666668,105.8839743733406L122.06058666666667,109.05647254841668L122.25173333333333,106.78997587306159L122.38314666666668,105.72296570880073L122.58623999999999,108.6404880285263L122.82517333333334,105.15283846855164L122.88490666666668,106.87800546203341L122.9088,108.09796476364136L122.98048,113.30733318839755L123.21941333333332,103.78892926658904L123.25525333333333,110.46601451294762L123.31498666666667,108.28189401115691L123.42250666666666,111.85374990531376L124.49770666666667,107.73331946986062L124.50965333333333,108.18927575860705L124.53354666666667,106.7982097012656L124.86805333333334,112.76793597425734L124.92778666666666,107.41868340969086L124.98752,106.08241228546416L125.68042666666668,112.24584760836193L125.99104,106.8481166277613L126.09855999999999,117.27469702277864L126.4928,109.92185433421817L126.50474666666668,111.68121084996632L126.61226666666667,109.93538918665477L127.06624,110.94594476904189L127.16181333333334,113.61289043937411L127.22154666666667,108.78481684412276L127.60384,110.69891097715923L128.16533333333334,106.87372750895364L128.21312,111.15817140681403L128.48789333333332,112.98188667637962L128.70293333333333,111.54884438855308L128.73877333333334,107.44373349632536L128.98965333333334,116.78246338878358L129.12106666666665,115.76255617822919L129.40778666666668,112.22255947760173L129.49141333333333,109.33266765730721L129.69450666666665,112.20717172963279L129.7184,116.76228615215847L129.75424,115.61562421492168L130.00512,115.43228986433574L130.02901333333332,111.27123592581069L130.08874666666668,115.56734662396568L130.22016,114.64086854457855L130.36352,110.78102948835918L130.56661333333335,107.62322564635959L130.78165333333334,114.49502027886254L130.85333333333332,110.8753377028874L130.9728,119.26619217225482L131.19978666666668,114.60618264334542L131.52234666666666,111.60829997914178L131.61792,109.54364008562905L131.8688,108.95836381401335L132.71701333333334,110.74355098179409L133.44576,106.21469917467662L133.56522666666666,109.95651750053679L133.64885333333334,110.68283360345023L133.97141333333335,112.10928276606968L134.22229333333334,112.04797427994865L134.53290666666666,106.77344380106246L134.64042666666666,112.68091808898109L135.02272,111.03654719250542L135.2736,107.88578359569823L135.78730666666667,106.41314087595259L135.82314666666667,110.91435839448657L136.06207999999998,112.00421335867473L136.14570666666665,110.62740588188171L136.45632,108.75228697061539L137.29258666666666,111.60998994112015L137.40010666666666,105.59843142543521L137.48373333333333,111.54826843738556L137.63904,109.86029955318996L137.90186666666665,110.1229408638818L138.03328000000002,114.17676178898131L138.16469333333333,112.22776198387146L138.35584,112.33768150636128L138.64256,109.62566386801856L138.71424000000002,114.03418356180191L138.98901333333333,109.85620347942626L139.20405333333335,111.0701607636043L139.9328,110.32669874600002L140.04032,109.61091269765582L140.56597333333332,116.21253697361264L140.90048,111.75721366916385L140.93632,114.3273995433535L141.41418666666667,109.0082631622042L141.70090666666667,116.81497810568128L142.47744,111.11088278463909L143.40928,109.34283774239677L143.46901333333335,112.45187898193088L143.50485333333336,111.45394127709525L143.67210666666668,106.7132796389716L143.81546666666668,110.63511680705207L144.09024,113.75521858249392L144.16192,115.26235774585177L144.34112,112.86831820011139L144.4128,110.42954771007811L144.53226666666666,109.4050139444215L144.8189866666667,105.92739806004933L145.02208,116.1302706854684L145.28490666666667,114.15986595835005L145.73888,115.3427711384637L145.8702933333333,111.42061568158013L146.10922666666667,119.69129339286258L146.19285333333332,109.36561433758055L146.25258666666667,114.3476563521794L147.54282666666666,114.1901678102357L147.57866666666666,111.75308349302837L147.75786666666667,111.87969044276646L147.8295466666667,115.03835442236492L147.88927999999999,107.90382375035968L148.40298666666666,110.52534885065896L148.53439999999998,112.79084140062332L148.65386666666666,110.64605230093002L148.70165333333333,113.55545825617654L148.7136,116.00689209359032L149.04810666666668,111.90403953620365L149.15562666666665,109.34173888819558L149.43040000000002,115.16339645215442L149.44234666666668,107.15526911190578L149.58570666666665,110.80050952093941L149.95605333333333,109.05781769752502L150.06357333333335,106.36981570720673L150.26666666666665,115.16632546697343L150.3264,107.22427715573993L150.43392,109.82615171160018L150.52949333333333,115.39144659042358L150.62506666666667,110.21247095721108L150.82816000000003,118.13569097008023L151.18656,110.30469134875706L151.30602666666667,105.06649505240577L151.74805333333333,111.79526433774403L151.85557333333333,107.22321998221534L151.86751999999998,103.5558585013662L152.13034666666664,110.80460559470313L152.2139733333333,109.51474400929042L152.54847999999998,111.00812854937145L152.66794666666667,112.54545589004245L152.72768000000002,110.54589742422104L152.85909333333333,107.63984486886433L152.96661333333333,111.32036607606071L153.13386666666668,113.18345821755273L153.58784,108.95668900864464L153.62368,110.22901060751506L154.02986666666666,108.38850939273834L154.07765333333333,108.1247010231018L154.35242666666667,103.97880748340062L154.4241066666667,108.65608417987823L154.448,104.84392402853285L154.92586666666665,105.29063478537968L154.99754666666666,114.06874063185283L155.02144,106.45493143796921L155.15285333333333,107.25329448495593L155.21258666666665,107.52344968489238L155.37984,113.18996419225421L155.48736,107.23940345219204L155.67850666666666,111.99482004983085L155.97717333333333,109.92693558761052L156.20416,101.47263176100594L156.31168,111.0298820734024L156.52671999999998,106.83834440367562L156.84928,107.4305927157402L157.1240533333333,112.67441590343203L157.14794666666666,108.12800137485777L157.15989333333332,112.65405678749084L157.86474666666666,108.49763698237282L157.90058666666667,108.6635639667511L158.00810666666666,99.4074375970023L158.46208,112.0303395645959L158.83242666666666,103.00873520544597L159.07136,110.88913400684085L159.66869333333335,115.16890966892242L159.76426666666669,103.8749543939318L160.19434666666666,112.85557528053012L160.39744000000002,114.16597407204765L160.63637333333332,114.552134173257L160.97088,113.18568623917443L161.00672,114.82300931215286L161.09034666666668,108.55940774508885L161.11424,114.83178877830505L161.31733333333335,115.69635210718427L161.4129066666667,116.00135993106025L161.52042666666665,109.78225816999164L161.6996266666667,115.5398866363934L161.89077333333333,112.49179391350066L162.35669333333334,112.92621265990394L162.5000533333333,110.56964404242379L162.64341333333334,110.6800068957465L162.77482666666666,115.62643466676984L162.94208,113.30075521980014L162.96597333333332,115.14253337894166L163.39605333333336,114.79565163169588L163.82613333333333,114.00671599592482L164.1486933333333,114.67515658480781L164.22037333333333,109.26187492268426L164.32789333333335,113.57587799855641L164.68629333333334,109.25425114801952L164.97301333333334,111.44174778461456L165.18805333333333,114.20791241100856L165.58229333333333,115.46870740822384L165.90485333333334,111.33007767370769L166.06016000000002,108.53840447323662L166.08405333333332,107.55428959642138L166.09599999999998,113.85786293234145L166.33493333333334,114.663360953331L166.3946666666667,113.66569606746947L166.56192,113.2178106733731L166.68138666666667,113.59148172821318L166.74112000000002,115.36763555662972L166.82474666666667,113.11604919603893L167.05173333333335,117.71493590729577L167.19509333333332,107.07932691914695L167.61322666666666,110.4401724934578L168.35392000000002,112.71686577796936L168.53312,115.1940810084343L168.66453333333334,113.35530764716012L168.71231999999998,120.9175654223987L168.90346666666667,117.77106462206159L169.29770666666667,118.05215910502841L169.40522666666666,116.19171179192406L169.93088,111.7521968313626L170.16981333333334,117.91731453793389L170.20565333333334,115.8791105066027L170.39679999999998,112.39775093964168L170.58794666666668,116.23286198718208L171.43616,113.9421033688954L171.54368,115.88478665692466L171.91402666666667,117.21712464094162L172.14101333333332,113.72744030611855L172.17685333333333,115.90694940941674L172.43967999999998,113.60322810070855L173.21621333333334,117.64305568592889L173.31178666666668,112.2972588283675L173.56266666666667,115.3759679027966L173.82549333333333,115.3441503899438L174.17194666666666,112.0422147682735L174.7214933333333,120.34945401123592L175.05599999999998,114.02347920622145L175.76085333333333,115.26818546227047L175.952,109.29004348175866L176.32234666666668,113.84557092189789L176.41791999999998,114.98742821386882L176.66879999999998,111.68369653395244L176.96746666666667,116.11395080600465L177.0272,112.01125739301955L177.18250666666665,118.50298488140106L177.33781333333332,118.76988519941057L177.40949333333333,113.77797623191562L177.91125333333335,112.7810578090804L177.9232,121.65474881444658L178.16213333333334,116.18257235629218L178.85504,117.66184609276908L179.05813333333333,115.32867549146924L179.3806933333333,112.75242697341102L179.39264,119.18699509756905L179.48821333333333,117.10139634779522L179.63157333333334,118.78862634726931L179.77493333333334,119.65714934042522L179.95413333333335,119.9856423309871L180.00191999999998,116.88804812090737L180.20501333333334,120.51738166809082L180.42005333333333,117.77550171954292L180.63509333333334,124.17023827348436L180.81429333333332,119.05381775753838L180.93376,114.85360671792711L180.9696,118.77301503930772L181.11296,120.2677030478205L181.12490666666667,121.27531256420272L181.17269333333334,121.21330308488437L181.5072,120.80099972656795L181.81781333333333,124.25212375181061L182.21205333333333,121.55933037825992L182.39125333333334,121.27454147168567L182.82133333333334,117.13169819968087L183.45450666666667,121.83628900136266L183.50229333333334,122.10500811253274L183.74122666666665,120.10141988311494L184.3266133333333,118.56923063312257L184.67306666666664,121.47056190456662L185.17482666666666,124.85841655731201L185.78410666666667,122.51262239473206L185.96330666666665,121.3091610627515L186.05888,120.93369584424156L186.13056,124.67261546850204L186.72789333333333,123.49399392519678L186.76373333333333,119.06542014224189L186.79957333333334,119.05961894989014L186.95487999999997,122.24868329933712L187.27744,122.05973342486789L187.57610666666667,117.99695873260498L187.65973333333332,123.98199697051729L187.92256,119.96327875341687L188.17344,125.93331763148308L188.32874666666666,119.99631258419582L188.74688,119.36926090717316L189.02165333333332,122.55084168059486L189.05749333333333,122.62823511872972L189.21280000000002,122.96159148641993L189.26058666666668,121.82253437808582L189.84597333333335,122.98701290999139L189.85792,125.15561872720718L190.08490666666665,123.00598140699523L190.12074666666666,122.02400929587228L190.22826666666668,126.27386012673378L190.24021333333334,126.51013083117348L190.31189333333333,125.61082476377487L190.55082666666667,121.04470095889909L190.57472,121.5681496305125L191.55434666666667,126.47374928423335L191.62602666666666,119.69045977933067L192.52202666666668,118.84354632241386L192.85653333333335,122.76558810472488L193.23882666666668,115.67315870523453L193.31050666666667,126.27056924785886L193.58528,124.33481253044945L194.02730666666668,118.43645873240062L194.03925333333333,120.67086507592882L194.11093333333335,121.43218347430229L194.21845333333334,118.09736748252595L194.42154666666667,121.05144375562668L194.56490666666667,121.36372675214494L194.63658666666666,122.94417085817882L194.87552000000002,121.22997346094677L194.9233066666667,122.35568138531276L195.21002666666666,116.8920835682324L195.34144,119.95883028847831L195.93877333333333,120.83423627700124L196.2254933333333,125.62003240415027L196.50026666666668,119.79562391553605L196.93034666666665,126.01334831970078L197.21706666666668,124.88464696492467L197.24095999999997,120.27072300229753L197.25290666666666,122.84832993149757L197.96970666666667,122.98772337606975L198.14890666666668,123.3554056755134L198.2205866666667,121.22055173345973L198.57898666666665,120.93753236106464L198.68650666666667,121.43687633957181L198.73429333333334,121.8075766989163L198.80597333333333,120.44358034644807L198.99712,120.80787324905396L199.51082666666667,122.43325101903507L199.65418666666667,116.42055007389614L199.90506666666664,120.900275519916L199.91701333333333,119.54259568452835L199.9648,120.74790612288882L200.01258666666666,123.12362701126506L200.06037333333333,123.54108172229358L200.26346666666666,126.52844948853765L200.33514666666667,124.97407475113869L200.38293333333334,123.27527457475662L200.70549333333332,125.33391729422976L201.02805333333333,122.62793198653628L201.25503999999998,118.13841537066867L201.63733333333332,123.8204976107393L201.64928,117.26886551720756L201.66122666666666,122.2125575201852L201.94794666666667,119.56342465536935L202.72448,122.72624912432262L202.86783999999997,128.3975493311882L203.62048,120.66553752762931L204.12224,127.282657542399L204.17002666666667,118.64974254369736L204.69568,123.34746550662177L204.92266666666666,127.33349660038948L205.36469333333332,125.64980945842606L205.72309333333334,122.03121626377106L205.80672,129.305335521698L205.92618666666667,124.66555627754757L206.14122666666668,121.40547563348497L206.416,126.84478498356683L206.61909333333332,120.43733203411102L206.69077333333334,121.96337906803403L206.7744,124.97673663071224L207.33589333333333,117.54593592030662L207.39562666666666,124.74462073189872L207.58677333333333,117.416631094047L207.65845333333334,121.36543376530919L207.77792,123.92501190730502L207.99296,128.30957468492645L208.07658666666669,124.16353715743337L208.1960533333333,123.37844561679023L208.21994666666666,121.74659218532699L208.60224,123.6477994109903L208.84117333333336,125.40516472714287L208.97258666666667,117.57220232486725L209.53408,125.12252805914197L209.67744,125.37667030096054L209.80885333333333,123.80143627950122L210.57344,121.47908370835441L210.94378666666665,120.22368825333459L211.38581333333335,117.99623121534074L211.67253333333335,125.13969102501869L211.78005333333334,123.15749635015214L211.85173333333333,126.56763121911456L212.03093333333334,121.54176576222692L212.23402666666667,121.32090554067065L212.40128,120.5523555449077L212.43712000000002,123.04276460409164L212.66410666666667,118.23653547252927L212.89109333333332,124.49828793321336L213.84682666666666,121.05906942486763L214.24106666666665,120.99711488825935L214.33664,126.93095409870148L214.40832,124.97891160420009L214.69504,120.31646565028598L214.70698666666667,121.51205691269466L215.16096,128.88011873194148L215.48352,123.38395883355821L215.62688,117.91632178000042L215.82997333333333,126.53692013876778L215.87776,124.0235923911844L216.58261333333334,122.77307168075015L216.73792,125.64767048188617L216.85738666666666,122.21766340306827L216.90517333333332,120.96716732212474L217.20383999999999,120.08300839151654L217.46666666666664,126.37654615725789L218.32682666666668,123.38282777156148L218.58965333333333,124.47950699925423L218.63744,123.8498142829963L218.66133333333335,122.85077014565468L218.67328,125.97545679552215L218.7927466666667,121.25655247058187L219.03168,130.66122308799197L219.34229333333334,126.29460194706917L219.74848,122.85741063526699L219.856,119.997157565185L220.52501333333333,123.74289955837386L221.17013333333333,121.11558652775628L221.48074666666665,124.6366317825658L221.54048,128.2731040929045L221.7794133333333,123.07601062740598L222.38869333333335,128.70784870641572L222.43648000000002,126.90120735764503L222.81877333333333,125.21773619736943L223.40416000000002,121.42710790463855L223.64309333333333,126.42071820156914L224.02538666666666,122.31243010503906L224.14485333333332,122.35906320384571L224.1568,123.09364155360629L224.45546666666667,122.28421607613564L224.5152,121.90262948189462L224.56298666666666,122.96339322839464L224.73024,122.10810763921056L225.232,123.96039880173547L225.53066666666666,120.30337412868226L226.42666666666665,126.4904916541917L227.22709333333333,123.93779082383428L227.59744,123.00057807564735L228.00362666666666,121.5288864331586L228.01557333333335,122.82236097540174L228.2784,119.52431302411216L228.73237333333336,120.20141182626996L228.79210666666665,121.72362044879367L228.85184,120.4062344602176L228.97130666666666,121.28239070091928L229.29386666666667,124.09871802159716L229.30581333333333,124.91347483651978L229.38943999999998,123.22755777835846L229.55669333333333,121.80181908181736L229.68810666666667,119.22491314581463L229.90314666666666,122.11386904546191L229.92704,120.67835244110653L230.20181333333332,123.74301133837018L230.21376,125.39796723212514L230.22570666666667,125.82148269244601L230.26154666666667,122.39239637766565L230.48853333333332,118.75139034645898L230.90666666666667,121.77195108788354L231.06197333333336,122.57970933829034L231.10976,126.41968755211148L231.26506666666668,120.1525279709271L231.27701333333334,127.59670060021537L231.39648,123.25938665866852L231.52789333333334,123.72328690545899L231.64736000000002,118.98975076845714L231.74293333333333,124.5998751095363L231.8624,123.36841573034013L232.44778666666664,121.17391105634826L232.54336,120.93687115396772L232.59114666666667,125.14210092595646L232.92565333333334,126.24895971161979L233.09290666666666,124.42915674192565L233.16458666666665,122.23198261005538L233.33184,122.9395007278238L233.35573333333335,118.41614887544085L233.43936,125.15095428058078L233.48714666666666,122.7495789357594L233.52298666666667,121.09708978022847L233.53493333333333,125.05782828160693L233.58272,124.86474823100227L233.88138666666666,124.77550421868051L234.00085333333334,132.4739100294454L234.04863999999998,126.14003673621585L234.23978666666667,120.40835638557161L234.40704,125.03444921118873L234.83712,122.23381466524941L234.84906666666666,125.52580565639903L234.93269333333333,122.43078428081104L235.06410666666665,121.65039318374225L235.42250666666666,127.04993537919862L235.64949333333334,125.77157008222171L235.66144,125.5331547175135L235.72117333333333,121.31994688510895L236.0437333333333,119.31905463763644L236.25877333333335,124.76552927494049L236.49770666666666,121.70493992737362L237.82378666666668,124.73216389332498L237.93130666666667,123.17713552713394L238.12245333333334,129.40896884032657L238.15829333333332,126.30336625661168L238.26581333333334,126.3363735633237L238.60032,124.2028496137687L239.00650666666664,120.74785307475497L239.01845333333335,124.80422788858414L239.12597333333332,122.88109662703106L239.16181333333333,125.81453528148788L239.62773333333334,123.5702278826918L239.80693333333332,126.55017838307788L239.9264,123.89241951278278L240.10559999999998,118.25878916467938L240.12949333333333,123.40412091357368L240.22506666666666,122.43905978969165L240.41621333333333,124.09768168841089L240.42816,124.28705784252712L240.65514666666667,123.07970126186098L240.94186666666667,120.55852049589157L241.20469333333332,122.52463779704911L241.5392,122.90482808862413L241.68256,123.63538614766938L242.18432,127.2972078876836L242.22016,123.19708920376641L242.70997333333332,126.41225512964385L242.80554666666666,122.36164361664225L243.77322666666666,121.90401252252715L243.78517333333332,125.80726958172662L244.82453333333333,123.42843779921532L244.92010666666667,121.40904880421502L245.44576,121.18031472393443L245.45770666666667,124.2346216567925L246.06698666666665,124.99044388958384L246.17450666666667,125.09684328947748L246.78378666666666,125.73237319503511L246.90325333333334,124.95958124314035L246.98687999999999,124.40439463087489L247.0466133333333,124.67095960889543L247.33333333333331,127.38866476501737L247.77536,125.00294430341039L247.97845333333333,123.53872108033725L248.48021333333332,123.47455936244556L249.05365333333333,121.57178153310502L249.07754666666665,123.4453165786607L249.53152,124.17605083329337L249.83018666666666,124.39882647139686L249.86602666666667,126.07113668322563L250.05717333333334,127.01824669752801L250.11690666666667,121.49910369515419L250.17664,124.38130732519286L250.39168,126.48361055340085L250.45141333333333,123.67295559389251L250.51114666666666,123.98693234154155L250.65450666666666,123.42234105297496L250.9053866666667,122.86241610561098L251.46688,128.52286796910423L251.62218666666666,126.58094630071093L251.71776,126.71781616977283L252.15978666666666,125.20955920645167L252.35093333333333,123.59715738892555L252.75712,119.95624229737689L252.88853333333336,120.84290585773331L253.04384,126.24481248429844L253.48586666666668,120.68489251817975L253.56949333333336,120.26665724175317L253.61728,121.93882536036628L253.91594666666668,121.74673048939023L254.22656,121.44482598134448L254.70442666666665,122.02696483475822L255.19424,123.61034553391593L255.20618666666667,119.57271944625037L255.23008000000002,121.37454288772174L255.2898133333333,122.35431350128991L255.88714666666667,124.47087152089391L256.12608,122.38407539895603L256.30528,122.51129998053823L256.34112,119.59331348964145L256.36501333333337,123.34780084661075L256.6039466666667,119.49754645143236L256.6756266666667,119.34390389919281" style="fill: none;" fill="none"></path></g></g></g></g></g></g><g transform="translate(50, 178)" clip-path="url(#clip_1)"><clipPath id="clip_1"><rect width="280" height="22"></rect></clipPath><g><g><line x1="0" y1="0" x2="0" y2="5" style="visibility: inherit;" fill="rgb(0, 0, 0)" stroke="rgb(204, 204, 204)" stroke-width="1px"></line><line x1="23.333333333333332" y1="0" x2="23.333333333333332" y2="5" style="visibility: inherit;" fill="rgb(0, 0, 0)" stroke="rgb(204, 204, 204)" stroke-width="1px"></line><line x1="46.666666666666664" y1="0" x2="46.666666666666664" y2="5" style="visibility: inherit;" fill="rgb(0, 0, 0)" stroke="rgb(204, 204, 204)" stroke-width="1px"></line><line x1="70" y1="0" x2="70" y2="5" style="visibility: inherit;" fill="rgb(0, 0, 0)" stroke="rgb(204, 204, 204)" stroke-width="1px"></line><line x1="93.33333333333333" y1="0" x2="93.33333333333333" y2="5" style="visibility: inherit;" fill="rgb(0, 0, 0)" stroke="rgb(204, 204, 204)" stroke-width="1px"></line><line x1="116.66666666666667" y1="0" x2="116.66666666666667" y2="5" style="visibility: inherit;" fill="rgb(0, 0, 0)" stroke="rgb(204, 204, 204)" stroke-width="1px"></line><line x1="140" y1="0" x2="140" y2="5" style="visibility: inherit;" fill="rgb(0, 0, 0)" stroke="rgb(204, 204, 204)" stroke-width="1px"></line><line x1="163.33333333333334" y1="0" x2="163.33333333333334" y2="5" style="visibility: inherit;" fill="rgb(0, 0, 0)" stroke="rgb(204, 204, 204)" stroke-width="1px"></line><line x1="186.66666666666666" y1="0" x2="186.66666666666666" y2="5" style="visibility: inherit;" fill="rgb(0, 0, 0)" stroke="rgb(204, 204, 204)" stroke-width="1px"></line><line x1="210" y1="0" x2="210" y2="5" style="visibility: inherit;" fill="rgb(0, 0, 0)" stroke="rgb(204, 204, 204)" stroke-width="1px"></line><line x1="233.33333333333334" y1="0" x2="233.33333333333334" y2="5" style="visibility: inherit;" fill="rgb(0, 0, 0)" stroke="rgb(204, 204, 204)" stroke-width="1px"></line><line x1="256.66666666666663" y1="0" x2="256.66666666666663" y2="5" style="visibility: inherit;" fill="rgb(0, 0, 0)" stroke="rgb(204, 204, 204)" stroke-width="1px"></line><line x1="280" y1="0" x2="280" y2="5" style="visibility: inherit;" fill="rgb(0, 0, 0)" stroke="rgb(204, 204, 204)" stroke-width="1px"></line></g><g transform="translate(0, 8)"><text x="0" y="0" dx="0em" dy="0.95em" style="text-anchor: middle; visibility: hidden; font-family: &quot;Helvetica Neue&quot;, sans-serif; font-size: 12px; font-weight: 200;" fill="rgb(50, 49, 63)" stroke="none" stroke-width="1px">-1M</text><text x="23.333333333333332" y="0" dx="0em" dy="0.95em" style="text-anchor: middle; visibility: inherit; font-family: &quot;Helvetica Neue&quot;, sans-serif; font-size: 12px; font-weight: 200;" fill="rgb(50, 49, 63)" stroke="none" stroke-width="1px">0</text><text x="46.666666666666664" y="0" dx="0em" dy="0.95em" style="text-anchor: middle; visibility: hidden; font-family: &quot;Helvetica Neue&quot;, sans-serif; font-size: 12px; font-weight: 200;" fill="rgb(50, 49, 63)" stroke="none" stroke-width="1px">1M</text><text x="70" y="0" dx="0em" dy="0.95em" style="text-anchor: middle; visibility: inherit; font-family: &quot;Helvetica Neue&quot;, sans-serif; font-size: 12px; font-weight: 200;" fill="rgb(50, 49, 63)" stroke="none" stroke-width="1px">2M</text><text x="93.33333333333333" y="0" dx="0em" dy="0.95em" style="text-anchor: middle; visibility: hidden; font-family: &quot;Helvetica Neue&quot;, sans-serif; font-size: 12px; font-weight: 200;" fill="rgb(50, 49, 63)" stroke="none" stroke-width="1px">3M</text><text x="116.66666666666667" y="0" dx="0em" dy="0.95em" style="text-anchor: middle; visibility: inherit; font-family: &quot;Helvetica Neue&quot;, sans-serif; font-size: 12px; font-weight: 200;" fill="rgb(50, 49, 63)" stroke="none" stroke-width="1px">4M</text><text x="140" y="0" dx="0em" dy="0.95em" style="text-anchor: middle; visibility: hidden; font-family: &quot;Helvetica Neue&quot;, sans-serif; font-size: 12px; font-weight: 200;" fill="rgb(50, 49, 63)" stroke="none" stroke-width="1px">5M</text><text x="163.33333333333334" y="0" dx="0em" dy="0.95em" style="text-anchor: middle; visibility: inherit; font-family: &quot;Helvetica Neue&quot;, sans-serif; font-size: 12px; font-weight: 200;" fill="rgb(50, 49, 63)" stroke="none" stroke-width="1px">6M</text><text x="186.66666666666666" y="0" dx="0em" dy="0.95em" style="text-anchor: middle; visibility: hidden; font-family: &quot;Helvetica Neue&quot;, sans-serif; font-size: 12px; font-weight: 200;" fill="rgb(50, 49, 63)" stroke="none" stroke-width="1px">7M</text><text x="210" y="0" dx="0em" dy="0.95em" style="text-anchor: middle; visibility: inherit; font-family: &quot;Helvetica Neue&quot;, sans-serif; font-size: 12px; font-weight: 200;" fill="rgb(50, 49, 63)" stroke="none" stroke-width="1px">8M</text><text x="233.33333333333334" y="0" dx="0em" dy="0.95em" style="text-anchor: middle; visibility: hidden; font-family: &quot;Helvetica Neue&quot;, sans-serif; font-size: 12px; font-weight: 200;" fill="rgb(50, 49, 63)" stroke="none" stroke-width="1px">9M</text><text x="256.66666666666663" y="0" dx="0em" dy="0.95em" style="text-anchor: middle; visibility: inherit; font-family: &quot;Helvetica Neue&quot;, sans-serif; font-size: 12px; font-weight: 200;" fill="rgb(50, 49, 63)" stroke="none" stroke-width="1px">10M</text><text x="280" y="0" dx="0em" dy="0.95em" style="text-anchor: middle; visibility: hidden; font-family: &quot;Helvetica Neue&quot;, sans-serif; font-size: 12px; font-weight: 200;" fill="rgb(50, 49, 63)" stroke="none" stroke-width="1px">11M</text></g><line x1="0" y1="0" x2="280" y2="0" fill="rgb(0, 0, 0)" stroke="rgb(204, 204, 204)" stroke-width="1px"></line></g></g></g></g></svg>