<svg viewBox="0 0 1281 400" xmlns="http://www.w3.org/2000/svg"><g><g><g><g><g><line x1="40" y1="377" x2="35" y2="377" style="visibility: inherit;" fill="rgb(0, 0, 0)" stroke="rgb(204, 204, 204)" stroke-width="1px"></line><line x1="40" y1="348" x2="35" y2="348" style="visibility: inherit;" fill="rgb(0, 0, 0)" stroke="rgb(204, 204, 204)" stroke-width="1px"></line><line x1="40" y1="319" x2="35" y2="319" style="visibility: inherit;" fill="rgb(0, 0, 0)" stroke="rgb(204, 204, 204)" stroke-width="1px"></line><line x1="40" y1="290" x2="35" y2="290" style="visibility: inherit;" fill="rgb(0, 0, 0)" stroke="rgb(204, 204, 204)" stroke-width="1px"></line><line x1="40" y1="261" x2="35" y2="261" style="visibility: inherit;" fill="rgb(0, 0, 0)" stroke="rgb(204, 204, 204)" stroke-width="1px"></line><line x1="40" y1="232" x2="35" y2="232" style="visibility: inherit;" fill="rgb(0, 0, 0)" stroke="rgb(204, 204, 204)" stroke-width="1px"></line><line x1="40" y1="203" x2="35" y2="203" style="visibility: inherit;" fill="rgb(0, 0, 0)" stroke="rgb(204, 204, 204)" stroke-width="1px"></line><line x1="40" y1="174" x2="35" y2="174" style="visibility: inherit;" fill="rgb(0, 0, 0)" stroke="rgb(204, 204, 204)" stroke-width="1px"></line><line x1="40" y1="145" x2="35" y2="145" style="visibility: inherit;" fill="rgb(0, 0, 0)" stroke="rgb(204, 204, 204)" stroke-width="1px"></line><line x1="40" y1="116" x2="35" y2="116" style="visibility: inherit;" fill="rgb(0, 0, 0)" stroke="rgb(204, 204, 204)" stroke-width="1px"></line><line x1="40" y1="86.99999999999999" x2="35" y2="86.99999999999999" style="visibility: inherit;" fill="rgb(0, 0, 0)" stroke="rgb(204, 204, 204)" stroke-width="1px"></line><line x1="40" y1="58" x2="35" y2="58" style="visibility: inherit;" fill="rgb(0, 0, 0)" stroke="rgb(204, 204, 204)" stroke-width="1px"></line><line x1="40" y1="28.999999999999982" x2="35" y2="28.999999999999982" style="visibility: inherit;" fill="rgb(0, 0, 0)" stroke="rgb(204, 204, 204)" stroke-width="1px"></line><line x1="40" y1="0" x2="35" y2="0" style="visibility: inherit;" fill="rgb(0, 0, 0)" stroke="rgb(204, 204, 204)" stroke-width="1px"></line></g><g transform="translate(30, 0)"><text x="0" y="377" dx="0em" dy="0.3em" style="text-anchor: end; visibility: hidden; font-family: Roboto, sans-serif; font-size: 12px; font-weight: 200;" fill="rgb(33, 33, 33)" stroke="none" stroke-width="1px">-24</text><text x="0" y="348" dx="0em" dy="0.3em" style="text-anchor: end; visibility: inherit; font-family: Roboto, sans-serif; font-size: 12px; font-weight: 200;" fill="rgb(33, 33, 33)" stroke="none" stroke-width="1px">-22</text><text x="0" y="319" dx="0em" dy="0.3em" style="text-anchor: end; visibility: inherit; font-family: Roboto, sans-serif; font-size: 12px; font-weight: 200;" fill="rgb(33, 33, 33)" stroke="none" stroke-width="1px">-20</text><text x="0" y="290" dx="0em" dy="0.3em" style="text-anchor: end; visibility: inherit; font-family: Roboto, sans-serif; font-size: 12px; font-weight: 200;" fill="rgb(33, 33, 33)" stroke="none" stroke-width="1px">-18</text><text x="0" y="261" dx="0em" dy="0.3em" style="text-anchor: end; visibility: inherit; font-family: Roboto, sans-serif; font-size: 12px; font-weight: 200;" fill="rgb(33, 33, 33)" stroke="none" stroke-width="1px">-16</text><text x="0" y="232" dx="0em" dy="0.3em" style="text-anchor: end; visibility: inherit; font-family: Roboto, sans-serif; font-size: 12px; font-weight: 200;" fill="rgb(33, 33, 33)" stroke="none" stroke-width="1px">-14</text><text x="0" y="203" dx="0em" dy="0.3em" style="text-anchor: end; visibility: inherit; font-family: Roboto, sans-serif; font-size: 12px; font-weight: 200;" fill="rgb(33, 33, 33)" stroke="none" stroke-width="1px">-12</text><text x="0" y="174" dx="0em" dy="0.3em" style="text-anchor: end; visibility: inherit; font-family: Roboto, sans-serif; font-size: 12px; font-weight: 200;" fill="rgb(33, 33, 33)" stroke="none" stroke-width="1px">-10</text><text x="0" y="145" dx="0em" dy="0.3em" style="text-anchor: end; visibility: inherit; font-family: Roboto, sans-serif; font-size: 12px; font-weight: 200;" fill="rgb(33, 33, 33)" stroke="none" stroke-width="1px">-8</text><text x="0" y="116" dx="0em" dy="0.3em" style="text-anchor: end; visibility: inherit; font-family: Roboto, sans-serif; font-size: 12px; font-weight: 200;" fill="rgb(33, 33, 33)" stroke="none" stroke-width="1px">-6</text><text x="0" y="86.99999999999999" dx="0em" dy="0.3em" style="text-anchor: end; visibility: inherit; font-family: Roboto, sans-serif; font-size: 12px; font-weight: 200;" fill="rgb(33, 33, 33)" stroke="none" stroke-width="1px">-4</text><text x="0" y="58" dx="0em" dy="0.3em" style="text-anchor: end; visibility: inherit; font-family: Roboto, sans-serif; font-size: 12px; font-weight: 200;" fill="rgb(33, 33, 33)" stroke="none" stroke-width="1px">-2</text><text x="0" y="28.999999999999982" dx="0em" dy="0.3em" style="text-anchor: end; visibility: inherit; font-family: Roboto, sans-serif; font-size: 12px; font-weight: 200;" fill="rgb(33, 33, 33)" stroke="none" stroke-width="1px">0</text><text x="0" y="0" dx="0em" dy="0.3em" style="text-anchor: end; visibility: hidden; font-family: Roboto, sans-serif; font-size: 12px; font-weight: 200;" fill="rgb(33, 33, 33)" stroke="none" stroke-width="1px">2</text></g><line x1="40" y1="0" x2="40" y2="377" fill="rgb(0, 0, 0)" stroke="rgb(204, 204, 204)" stroke-width="1px"></line></g></g><g transform="translate(40, 0)" clip-path="url(#clip_0)"><clipPath id="clip_0"><rect width="1241" height="377"></rect></clipPath><g><g><g><line x1="0" y1="0" x2="0" y2="377" fill="rgb(0, 0, 0)" stroke="rgb(66, 66, 66)" stroke-width="1px" opacity="0.25"></line><line x1="103.41666666666666" y1="0" x2="103.41666666666666" y2="377" fill="rgb(0, 0, 0)" stroke="rgb(66, 66, 66)" stroke-width="1px" opacity="0.25"></line><line x1="206.83333333333331" y1="0" x2="206.83333333333331" y2="377" fill="rgb(0, 0, 0)" stroke="rgb(66, 66, 66)" stroke-width="1px" opacity="0.25"></line><line x1="310.25" y1="0" x2="310.25" y2="377" fill="rgb(0, 0, 0)" stroke="rgb(66, 66, 66)" stroke-width="1px" opacity="0.25"></line><line x1="413.66666666666663" y1="0" x2="413.66666666666663" y2="377" fill="rgb(0, 0, 0)" stroke="rgb(66, 66, 66)" stroke-width="1px" opacity="0.25"></line><line x1="517.0833333333334" y1="0" x2="517.0833333333334" y2="377" fill="rgb(0, 0, 0)" stroke="rgb(66, 66, 66)" stroke-width="1px" opacity="0.25"></line><line x1="620.5" y1="0" x2="620.5" y2="377" fill="rgb(0, 0, 0)" stroke="rgb(66, 66, 66)" stroke-width="1px" opacity="0.25"></line><line x1="723.9166666666667" y1="0" x2="723.9166666666667" y2="377" fill="rgb(0, 0, 0)" stroke="rgb(66, 66, 66)" stroke-width="1px" opacity="0.25"></line><line x1="827.3333333333333" y1="0" x2="827.3333333333333" y2="377" fill="rgb(0, 0, 0)" stroke="rgb(66, 66, 66)" stroke-width="1px" opacity="0.25"></line><line x1="930.75" y1="0" x2="930.75" y2="377" fill="rgb(0, 0, 0)" stroke="rgb(66, 66, 66)" stroke-width="1px" opacity="0.25"></line><line x1="1034.1666666666667" y1="0" x2="1034.1666666666667" y2="377" fill="rgb(0, 0, 0)" stroke="rgb(66, 66, 66)" stroke-width="1px" opacity="0.25"></line><line x1="1137.5833333333333" y1="0" x2="1137.5833333333333" y2="377" fill="rgb(0, 0, 0)" stroke="rgb(66, 66, 66)" stroke-width="1px" opacity="0.25"></line><line x1="1241" y1="0" x2="1241" y2="377" fill="rgb(0, 0, 0)" stroke="rgb(66, 66, 66)" stroke-width="1px" opacity="0.25"></line></g><g><line x1="0" y1="377" x2="1241" y2="377" fill="rgb(0, 0, 0)" stroke="rgb(66, 66, 66)" stroke-width="1px" opacity="0.25"></line><line x1="0" y1="348" x2="1241" y2="348" fill="rgb(0, 0, 0)" stroke="rgb(66, 66, 66)" stroke-width="1px" opacity="0.25"></line><line x1="0" y1="319" x2="1241" y2="319" fill="rgb(0, 0, 0)" stroke="rgb(66, 66, 66)" stroke-width="1px" opacity="0.25"></line><line x1="0" y1="290" x2="1241" y2="290" fill="rgb(0, 0, 0)" stroke="rgb(66, 66, 66)" stroke-width="1px" opacity="0.25"></line><line x1="0" y1="261" x2="1241" y2="261" fill="rgb(0, 0, 0)" stroke="rgb(66, 66, 66)" stroke-width="1px" opacity="0.25"></line><line x1="0" y1="232" x2="1241" y2="232" fill="rgb(0, 0, 0)" stroke="rgb(66, 66, 66)" stroke-width="1px" opacity="0.25"></line><line x1="0" y1="203" x2="1241" y2="203" fill="rgb(0, 0, 0)" stroke="rgb(66, 66, 66)" stroke-width="1px" opacity="0.25"></line><line x1="0" y1="174" x2="1241" y2="174" fill="rgb(0, 0, 0)" stroke="rgb(66, 66, 66)" stroke-width="1px" opacity="0.25"></line><line x1="0" y1="145" x2="1241" y2="145" fill="rgb(0, 0, 0)" stroke="rgb(66, 66, 66)" stroke-width="1px" opacity="0.25"></line><line x1="0" y1="116" x2="1241" y2="116" fill="rgb(0, 0, 0)" stroke="rgb(66, 66, 66)" stroke-width="1px" opacity="0.25"></line><line x1="0" y1="86.99999999999999" x2="1241" y2="86.99999999999999" fill="rgb(0, 0, 0)" stroke="rgb(66, 66, 66)" stroke-width="1px" opacity="0.25"></line><line x1="0" y1="58" x2="1241" y2="58" fill="rgb(0, 0, 0)" stroke="rgb(66, 66, 66)" stroke-width="1px" opacity="0.25"></line><line x1="0" y1="28.999999999999982" x2="1241" y2="28.999999999999982" fill="rgb(0, 0, 0)" stroke="rgb(66, 66, 66)" stroke-width="1px" opacity="0.25"></line><line x1="0" y1="0" x2="1241" y2="0" fill="rgb(0, 0, 0)" stroke="rgb(66, 66, 66)" stroke-width="1px" opacity="0.25"></line></g></g></g><g><g><line x1="0" y1="28.999999999999982" x2="1241" y2="28.999999999999982" fill="rgb(0, 0, 0)" stroke="rgb(153, 153, 153)" stroke-width="1.5px"></line></g></g><g><g><line x1="103.41666666666666" y1="0" x2="103.41666666666666" y2="377" fill="rgb(0, 0, 0)" stroke="rgb(153, 153, 153)" stroke-width="1.5px"></line></g></g><g><g><g><g><g><path stroke="rgb(255, 112, 67)" stroke-width="2px" d="M115.39231666666667,203.00000000000003L135.46549166666665,350.71876037120825L135.80676666666665,270.91326756380045L142.9632,271.02206512759716L155.776525,218.87856372638677L167.63841666666667,204.91568738343764L181.70308333333332,131.92617324485684L182.47870833333332,87.10284413952837L184.133375,60.69558212494162L189.75924166666667,47.35669419824707L190.94853333333336,37.07672107911444L192.355,30.93265836027102L192.820375,37.12768642933124L193.254725,30.971787839125877L193.627025,27.281337509144077L196.39859166666668,25.068178148906647L196.52269166666665,23.74068218862365L197.039775,22.944328435521527L198.98400833333332,22.466567948512306L200.24569166666666,22.179930289180383L203.63775833333332,22.007954400881644L203.69980833333332,21.904771282415215L205.79916666666668,131.4637257771004L206.9160666666667,87.5780275190866L207.78476666666666,61.24674165084779L211.69391666666667,45.44801804077295L213.43131666666665,35.968801122576515L214.4241166666667,30.28127718087031L214.87915,28.028765582281675L214.94119999999998,25.51725879414033L217.0509,24.010355076601932L217.9196,23.106212974003537L218.416,22.563727758497386L218.72625,22.23823664577274L218.85035000000002,22.042941984106356L219.59494999999998,21.925765189255227L220.21545,21.85545911311801L222.8836,21.81327546771416L223.48341666666667,27.587965293494037L223.97981666666666,25.252779172974854L225.6138,23.85166750266114L226.17225,23.011000501192154L226.42045,22.50660030056968L226.54455,22.203960180289364L227.41325,22.022376108154738L227.53735,21.913425664886024L227.9717,21.848055398929212L228.46810000000002,21.808833239356645L228.84040000000002,21.78529994361368L230.66053333333335,21.771179966168116L235.19018333333332,21.762707979700807L237.33090833333333,21.75762478782047L237.51705833333332,21.754574872692277L238.57190833333334,21.752744923615367L239.13035833333333,21.75164695416924L239.19240833333333,21.750988172501504L239.56470833333333,21.75059290350088L239.93700833333332,21.75035574210053L241.09527500000002,21.750213445260346L241.28142499999998,21.75012806715621L241.86055833333333,21.750076840293737L244.90100833333332,21.750046104176246L245.08715833333335,21.75002766250575L245.45945833333334,21.750016597503436L245.83175833333334,21.75000995850208L246.76250833333333,21.75000597510126L247.13480833333332,21.750003585060774L247.44505833333332,21.750002151036444L250.67165833333334,21.750001290621892L250.9819083333333,21.750000774373106L251.04395833333334,21.750000464623874L252.16085833333332,21.75000027877431L252.96750833333334,21.7500001672646L253.77415833333333,21.75000010035877L256.13205833333336,21.75000006021529L257.18690833333335,21.750000036129176L258.42790833333333,21.750000021677508L260.5996583333333,21.750000013006492L260.78580833333336,21.750000007803905L261.71655833333335,21.750000004682327L261.96475833333335,21.750000002809383L264.9431583333333,21.75000000168565L265.37750833333337,21.7500000010114L266.74260833333335,21.750000000606825L267.48720833333334,21.750000000364107L268.10770833333333,21.750000000218492L270.01057499999996,21.750000000131056L270.71380833333336,21.750000000078654L271.21020833333336,21.750000000047176L271.5825083333333,21.750000000028344L273.5681083333333,21.750000000017L273.8163083333333,21.750000000010218L275.3675583333333,21.750000000006118L276.36035833333335,21.75000000000365L277.3738416666667,21.750000000002224L277.6220416666667,21.750000000001346L278.6768916666667,21.75000000000076L280.84864166666665,21.750000000000465L281.3450416666667,21.7500000000003L283.5167916666667,21.750000000000174L284.07524166666667,21.75000000000009L284.44754166666667,21.75000000000005L284.75779166666666,21.75000000000005L285.19214166666666,21.750000000000007L285.75059166666665,21.750000000000007L286.61929166666664,21.750000000000007L286.7433916666667,21.750000000000007L286.92954166666664,21.750000000000007L287.4879916666667,21.750000000000007L289.65974166666666,21.750000000000007L291.14894166666664,21.750000000000007L292.4519916666667,21.750000000000007L293.5688916666667,21.750000000000007L294.12734166666667,21.750000000000007L294.93399166666666,21.750000000000007L295.12014166666665,21.750000000000007L295.61654166666665,21.750000000000007L298.0985416666667,21.750000000000007L299.15339166666666,21.750000000000007L299.77389166666666,21.750000000000007L299.96004166666665,21.750000000000007L301.20104166666664,21.750000000000007L302.1938416666667,21.750000000000007L303.3107416666667,21.750000000000007L304.05534166666666,21.750000000000007L305.1101916666667,21.750000000000007L305.48249166666665,21.750000000000007L307.7783416666667,21.750000000000007L307.9644916666667,21.750000000000007L308.0265416666667,21.750000000000007L308.52294166666667,21.750000000000007L308.77114166666667,21.750000000000007L309.20549166666666,21.750000000000007L312.2459416666667,21.750000000000007L312.4941416666667,21.750000000000007L312.9284916666667,21.750000000000007L313.48694166666667,21.750000000000007L314.85204166666665,21.750000000000007L315.1002416666667,21.750000000000007L315.5966416666667,21.750000000000007L316.09304166666664,21.750000000000007L316.3412416666667,21.750000000000007L317.5822416666667,21.750000000000007L317.8924916666667,21.750000000000007L317.95454166666667,21.750000000000007L318.26479166666667,21.750000000000007L319.00939166666666,21.750000000000007L319.19554166666666,21.750000000000007L319.50579166666665,21.750000000000007L320.6847416666667,21.750000000000007L321.6775416666666,21.750000000000007L322.2980416666667,21.750000000000007L323.0426416666666,21.750000000000007L324.65594166666665,21.750000000000007L325.2143916666667,21.750000000000007L327.3861416666666,21.750000000000007L327.4481916666666,21.750000000000007L327.5722916666667,21.750000000000007L330.30249166666664,21.750000000000007L330.7988916666667,21.750000000000007L331.3573416666667,21.750000000000007L331.4814416666667,21.750000000000007L331.7916916666666,21.750000000000007L333.34294166666666,21.750000000000007L333.40499166666666,21.750000000000007L334.02549166666665,21.750000000000007L334.14959166666665,21.750000000000007L334.4598416666667,21.750000000000007L335.32854166666664,21.750000000000007L335.7008416666667,21.750000000000007L336.2592916666667,21.750000000000007L337.1900416666667,21.750000000000007L337.56234166666667,21.750000000000007L340.47869166666663,21.750000000000007L340.8509916666667,21.750000000000007L341.9058416666667,21.750000000000007L342.27814166666667,21.750000000000007L345.7529416666667,21.750000000000007L346.0631916666666,21.750000000000007L346.8698416666667,21.750000000000007L349.16569166666665,21.750000000000007L350.0343916666667,21.750000000000007L352.20614166666667,21.750000000000007L357.37697499999996,21.750000000000007L357.935425,21.750000000000007L358.493875,21.750000000000007L358.866175,21.750000000000007L360.355375,21.750000000000007L363.271725,21.750000000000007L363.76812500000005,21.750000000000007L366.0226083333333,21.750000000000007L367.01540833333337,21.750000000000007L367.2015583333333,21.750000000000007L367.69795833333336,21.750000000000007L367.8841083333333,21.750000000000007L369.62150833333334,21.750000000000007L371.4830083333333,21.750000000000007L375.0198583333334,21.750000000000007L375.3921583333333,21.750000000000007L376.3849583333334,21.750000000000007L377.50185833333336,21.750000000000007L377.56390833333336,21.750000000000007L379.67360833333333,21.750000000000007L380.2941083333333,21.750000000000007L380.4802583333333,21.750000000000007L380.5423083333333,21.750000000000007L380.6664083333334,21.750000000000007L380.7284583333334,21.750000000000007L382.2797083333333,21.750000000000007L384.3273583333333,21.750000000000007L386.8093583333333,21.750000000000007L388.7329083333333,21.750000000000007L390.4082583333333,21.750000000000007L390.7185083333334,21.750000000000007L392.08360833333336,21.750000000000007L393.26255833333335,21.750000000000007L394.19330833333333,21.750000000000007L395.1861083333333,21.750000000000007L396.98555833333336,21.750000000000007L397.17170833333336,21.750000000000007L398.7229583333333,21.750000000000007L401.39110833333336,21.750000000000007L402.63210833333335,21.750000000000007L403.7490083333333,21.750000000000007L403.87310833333333,21.750000000000007L403.99720833333333,21.750000000000007L404.36950833333333,21.750000000000007L406.1069083333333,21.750000000000007L406.97560833333335,21.750000000000007L410.4504083333333,21.750000000000007L410.69860833333337,21.750000000000007L411.38115833333336,21.750000000000007L413.3253916666667,21.750000000000007L413.8217916666667,21.750000000000007L414.6284416666667,21.750000000000007L414.9386916666666,21.750000000000007L415.93149166666666,21.750000000000007L416.24174166666666,21.750000000000007L416.3658416666667,21.750000000000007L416.9863416666667,21.750000000000007L417.23454166666664,21.750000000000007L419.0339916666667,21.750000000000007L419.77859166666667,21.750000000000007L423.00519166666663,21.750000000000007L423.6877416666666,21.750000000000007L424.74259166666667,21.750000000000007L426.4799916666667,21.750000000000007L428.09329166666663,21.750000000000007L428.8378916666667,21.750000000000007L429.52044166666667,21.750000000000007L429.70659166666667,21.750000000000007L433.2434416666667,21.750000000000007L433.5536916666667,21.750000000000007L433.6157416666667,21.750000000000007L434.2362416666667,21.750000000000007L438.9417,46.6900011062622L439.62425,36.71400066375734L439.6863,30.728400398254365L439.8104,27.13704023895264L440.12065,24.982224143371585L440.1827,23.68933448602298L441.73395,22.913600691613773L442.04420000000005,22.448160414968292L442.23035,22.168896248980978L442.72675000000004,22.00133774938859L443.96775,21.900802649633157L444.1539,21.840481589779912L444.21594999999996,21.8042889538679L445.1467,21.782573372320744L446.5118,21.769544023392456L447.31845,21.76172641403545L447.44255,21.757035848421264L448.24920000000003,21.754221509052726L450.54505,21.752532905431657L452.03425000000004,21.75151974325904L452.4686,21.750911845955407L452.8409,21.750547107573272L454.33009999999996,21.75032826454396L454.51625,21.75019695872636L458.17719999999997,21.750118175235837L459.23205,21.750070905141506L460.5351,21.750042543084895L460.72125000000005,21.75002552585096L463.5135,21.750015315510584L463.69964999999996,21.750009189306372L464.69245,21.750005513583776L466.616,21.750003308150294L468.3534,21.750001984890186L468.8498,21.750001190934114L469.098,21.75000071456047L469.5944,21.75000042873625L470.27695,21.750000257241755L471.9109333333333,21.750000154345088L472.22118333333333,21.75000009260702L473.2139833333334,21.75000005556419L474.2067833333333,21.75000003333855L474.70318333333336,21.750000020003124L475.26163333333335,21.750000012001877L475.82008333333334,21.750000007201145L476.50263333333334,21.750000004320658L476.56468333333333,21.750000002592405L477.3092833333333,21.75000000155544L477.4333833333333,21.750000000933298L479.79128333333335,21.750000000559947L480.53588333333335,21.75000000033598L481.71483333333333,21.75000000020158L483.1419833333333,21.75000000012097L484.3829833333333,21.750000000072582L487.3613833333333,21.750000000043535L487.9198333333333,21.750000000026123L488.1059833333333,21.75000000001566L491.3946333333334,21.750000000009425L491.58078333333333,21.750000000005656L492.8217833333333,21.750000000003396L492.9458833333333,21.750000000002014L493.0079333333333,21.75000000000122L494.55918333333335,21.750000000000718L496.3172666666666,21.750000000000465L497.5582666666666,21.750000000000256L498.05466666666666,21.750000000000174L499.97821666666664,21.75000000000009L501.0330666666667,21.75000000000005L502.14996666666667,21.75000000000005L502.6463666666667,21.750000000000007L504.5699166666667,21.750000000000007L507.6724166666667,21.750000000000007L509.47186666666664,21.750000000000007L510.1544166666667,21.750000000000007L511.1472166666667,21.750000000000007L512.0159166666667,21.750000000000007L513.3189666666667,21.750000000000007L526.835525,21.750000000000007L528.200625,21.750000000000007L528.510875,21.750000000000007L530.8274083333333,21.750000000000007L531.5099583333333,21.750000000000007L532.7509583333333,21.750000000000007L532.8750583333333,21.750000000000007L534.8606583333333,21.750000000000007L536.3498583333333,21.750000000000007L537.0944583333334,21.750000000000007L537.2185583333334,21.750000000000007L537.5908583333334,21.750000000000007L539.8867083333333,21.750000000000007L541.6241083333333,21.750000000000007L541.7482083333333,21.750000000000007L541.9964083333333,21.750000000000007L542.9271583333333,21.750000000000007L545.4712083333334,21.750000000000007L545.6573583333333,21.750000000000007L548.9460083333333,21.750000000000007L549.1321583333333,21.750000000000007L549.7526583333333,21.750000000000007L550.8695583333333,21.750000000000007L550.9316083333333,21.750000000000007L551.9864583333333,21.750000000000007L552.1726083333333,21.750000000000007L554.2823083333333,21.750000000000007L554.4064083333333,21.750000000000007L554.8407583333334,21.750000000000007L557.0745583333334,21.750000000000007L558.3776083333333,21.750000000000007L559.8874916666666,21.750000000000007L560.1977416666667,21.750000000000007L560.5700416666666,21.750000000000007L562.2453916666667,21.750000000000007L563.4863916666667,21.750000000000007L563.7966416666667,21.750000000000007L564.748075,21.750000000000007L565.058325,21.750000000000007L567.726475,21.750000000000007L569.277725,21.750000000000007L569.401825,21.750000000000007L570.394625,21.750000000000007L570.518725,21.750000000000007L570.891025,21.750000000000007L571.015125,21.750000000000007L572.132025,21.750000000000007L573.559175,21.750000000000007L574.117625,21.750000000000007L575.296575,21.750000000000007L575.9791250000001,21.750000000000007L576.103225,21.750000000000007L576.4755250000001,21.750000000000007L577.282175,21.750000000000007L578.399075,21.750000000000007L580.819025,21.750000000000007L582.246175,21.750000000000007L582.494375,21.750000000000007L582.556425,21.750000000000007L584.045625,21.750000000000007L584.728175,21.750000000000007L585.410725,21.750000000000007L585.8450750000001,21.750000000000007L586.217375,21.750000000000007L587.706575,21.750000000000007L591.367525,21.750000000000007L593.6220083333334,21.750000000000007L593.6840583333333,21.750000000000007L593.9322583333334,21.750000000000007L595.1732583333334,21.750000000000007L595.2353083333334,21.750000000000007L595.2973583333334,21.750000000000007L595.7937583333334,21.750000000000007L598.5239583333333,21.750000000000007L598.9583083333333,21.750000000000007L599.1444583333333,21.750000000000007L600.3234083333333,21.750000000000007L603.6741083333334,21.750000000000007L604.2325583333334,21.750000000000007L604.3566583333334,21.750000000000007L604.6048583333334,21.750000000000007L604.9771583333334,21.750000000000007L605.1633083333332,21.750000000000007L605.5976583333334,21.750000000000007L606.0940583333334,21.750000000000007L606.2802083333333,21.750000000000007L607.0248083333333,21.750000000000007L608.7001583333333,21.750000000000007L608.9483583333333,21.750000000000007L609.6309083333333,21.750000000000007L610.3134583333333,21.750000000000007L614.5328583333333,21.750000000000007L615.4015583333334,21.750000000000007L615.8979583333333,21.750000000000007L616.7666583333333,21.750000000000007L616.8287083333333,21.750000000000007L618.4420083333333,21.750000000000007L619.3107083333333,21.750000000000007L620.8619583333334,21.750000000000007L622.6614083333333,21.750000000000007L622.8475583333333,21.750000000000007L624.4608583333334,21.750000000000007L625.5777583333333,21.750000000000007L625.8259583333333,21.750000000000007L627.3772083333333,21.750000000000007L630.6038083333334,21.750000000000007L631.5345583333333,21.750000000000007L632.0309583333334,21.750000000000007L632.0930083333334,21.750000000000007L633.4581083333334,21.750000000000007L634.5750083333334,21.750000000000007L637.0570083333333,21.750000000000007L638.3807416666667,22.91000010371206L639.5596916666667,22.44600006222723L639.7458416666667,22.16760003733635L640.3456583333333,22.000560022401814L643.6343083333334,21.900336013441066L644.3168583333334,21.840201608064625L645.4337583333332,21.804120964838813L646.0542583333333,21.782472578903274L646.1163083333333,21.769483547341924L647.2952583333333,21.761690128405174L648.7224083333333,21.75701407704315L648.9706083333333,21.754208446225867L649.9013583333333,21.75252506773553L651.7628583333333,21.751515040641294L652.3213083333334,21.75090902438479L652.5074583333334,21.750545414630842L652.9418083333333,21.750327248778543L653.5623083333334,21.750196349267085L653.7484583333334,21.750117809560287L654.0587083333332,21.750070685736166L654.6792083333333,21.750042411441687L656.1684083333333,21.75002544686503L656.7268583333333,21.750015268119046L657.9058083333333,21.750009160871397L658.9606583333333,21.750005496522842L662.8077583333333,21.750003297913715L664.9795083333333,21.75000197874824L666.0343583333333,21.750001187248913L666.6548583333333,21.750000712349376L666.9651083333334,21.750000427409603L667.6476583333333,21.75000025644579L668.0199583333333,21.750000153867475L668.4543083333333,21.75000009232048L669.5712083333334,21.75000005539229L669.8814583333333,21.750000033235377L670.1917083333333,21.750000019941222L671.3086083333333,21.75000001196471L671.9911583333334,21.750000007178837L672.1773083333334,21.750000004307303L673.4183083333334,21.75000000258437L673.9147083333334,21.750000001550625L674.5352083333333,21.75000000093041L675.2798083333333,21.75000000055819L676.7069583333333,21.750000000334932L677.0172083333334,21.750000000200956L680.8022583333334,21.750000000120593L680.8643083333334,21.750000000072333L682.8499083333332,21.75000000004341L685.5180583333332,21.750000000026084L686.0144583333333,21.750000000015618L686.5108583333333,21.750000000009383L686.5729083333333,21.750000000005613L688.6826083333333,21.750000000003396L689.3651583333334,21.750000000002014L690.1097583333333,21.75000000000122L691.1646083333334,21.750000000000718L694.9082916666666,21.750000000000426L696.3974916666666,21.750000000000256L698.2589916666667,21.750000000000174L698.5071916666667,21.75000000000009L699.3758916666667,21.75000000000005L700.4307416666666,21.75000000000005L700.8030416666667,21.750000000000007L703.4091416666666,21.750000000000007L704.4019416666667,21.750000000000007L705.0844916666666,21.750000000000007L705.6429416666667,21.750000000000007L706.1393416666667,21.750000000000007L707.3803416666667,21.750000000000007L707.5044416666667,21.750000000000007L707.6905916666666,21.750000000000007L707.8146916666666,21.750000000000007L708.1869916666667,21.750000000000007L709.4279916666667,21.750000000000007L709.6141416666667,21.750000000000007L709.9243916666667,21.750000000000007L710.4828416666666,21.750000000000007L714.8263416666667,21.750000000000007L716.0673416666667,21.750000000000007L716.1293916666667,21.750000000000007L716.2534916666666,21.750000000000007L717.1221916666667,21.750000000000007L717.3703916666667,21.750000000000007L717.9288416666666,21.750000000000007L717.9908916666666,21.750000000000007L718.3011416666667,21.750000000000007L718.6113916666667,21.750000000000007L719.5421416666667,21.750000000000007L721.4656916666667,21.750000000000007L722.2102916666666,21.750000000000007L722.6446416666666,21.750000000000007L722.9548916666666,21.750000000000007L723.8235916666666,21.750000000000007L724.3820416666667,21.750000000000007L725.9953416666667,21.750000000000007L726.4296916666666,21.750000000000007L726.4917416666666,21.750000000000007L727.0501916666667,21.750000000000007L729.4080916666667,21.750000000000007L729.9044916666667,21.750000000000007L729.9665416666667,21.750000000000007L730.2147416666667,21.750000000000007L732.2003416666666,21.750000000000007L735.1166916666666,21.750000000000007L735.3648916666666,21.750000000000007L736.7920416666666,21.750000000000007L737.9089416666666,21.750000000000007L738.0950916666667,21.750000000000007L739.3981416666667,21.750000000000007L740.0806916666667,21.750000000000007L741.5698916666666,21.750000000000007L742.0042416666668,21.750000000000007L743.0590916666666,21.750000000000007L743.1831916666667,21.750000000000007L743.3693416666667,21.750000000000007L744.6723916666667,21.750000000000007L744.7964916666667,21.750000000000007L745.1067416666666,21.750000000000007L745.7892916666667,21.750000000000007L746.5338916666666,21.750000000000007L747.5887416666667,21.750000000000007L748.7056416666667,21.750000000000007L749.0779416666667,21.750000000000007L749.6984416666667,21.750000000000007L750.8153416666668,21.750000000000007L750.8773916666667,21.750000000000007L752.5527416666666,21.750000000000007L753.0491416666666,21.750000000000007L753.6696416666666,21.750000000000007L754.3521916666666,21.750000000000007L755.6552416666667,21.750000000000007L756.7721416666666,21.750000000000007L758.7577416666667,21.750000000000007L759.1920916666667,21.750000000000007L762.4186916666666,21.750000000000007L762.5427916666666,21.750000000000007L763.1632916666667,21.750000000000007L763.5976416666667,21.750000000000007L765.2729916666666,21.750000000000007L766.5760416666666,21.750000000000007L767.1965416666667,21.750000000000007L768.1893416666667,21.750000000000007L768.3134416666667,21.750000000000007L768.7477916666667,21.750000000000007L770.7333916666668,21.750000000000007L771.0436416666666,21.750000000000007L771.7261916666666,21.750000000000007L772.0364416666667,21.750000000000007L774.7045916666667,21.750000000000007L774.8907416666667,21.750000000000007L776.1317416666667,21.750000000000007L776.5040416666667,21.750000000000007L776.5660916666666,21.750000000000007L778.2000750000001,21.750000000000007L778.634425,21.750000000000007L782.543575,21.750000000000007L783.1227083333333,21.750000000000007L783.5570583333333,21.750000000000007L783.7432083333333,21.750000000000007L784.1775583333333,21.750000000000007L784.3637083333333,21.750000000000007L785.7288083333334,21.750000000000007L786.4113583333333,21.750000000000007L787.0939083333334,21.750000000000007L787.8385083333333,21.750000000000007L787.9005583333333,21.750000000000007L788.0867083333333,21.750000000000007L789.5759083333334,21.750000000000007L789.9482083333334,21.750000000000007L791.3753583333333,21.750000000000007L791.9958583333334,21.750000000000007L792.4922583333333,21.750000000000007L796.2773083333333,21.750000000000007L796.8357583333333,21.750000000000007L797.3942083333334,21.750000000000007L799.5659583333334,21.750000000000007L801.3033583333333,21.750000000000007L801.4895083333333,21.750000000000007L803.9715083333333,21.750000000000007L805.4607083333333,21.750000000000007L809.5146416666668,21.750000000000007L810.3212916666666,21.750000000000007L812.1207416666667,21.750000000000007L814.3545416666666,21.750000000000007L814.6647916666667,21.750000000000007L814.7268416666667,21.750000000000007L814.8509416666667,21.750000000000007L815.7196416666667,21.750000000000007L816.4642416666667,21.750000000000007L817.8913916666667,21.750000000000007L818.2636916666668,21.750000000000007L819.1944416666666,21.750000000000007L819.5667416666668,21.750000000000007L820.1872416666666,21.750000000000007L821.6971249999999,21.750000000000007L822.751975,21.750000000000007L824.117075,21.750000000000007L826.040625,21.750000000000007L826.474975,21.750000000000007L827.1575250000001,21.750000000000007L828.150325,21.750000000000007L828.3985250000001,21.750000000000007L828.832875,21.750000000000007L829.1431249999999,21.750000000000007L831.7492249999999,21.750000000000007L833.983025,21.750000000000007L835.7204250000001,21.750000000000007L835.8445250000001,21.750000000000007L835.9065750000001,21.750000000000007L836.030675,21.750000000000007L836.402975,21.750000000000007L836.9614250000001,21.750000000000007L837.3337250000001,21.750000000000007L837.643975,21.750000000000007L839.443425,21.750000000000007L840.3121249999999,21.750000000000007L840.994675,21.750000000000007L841.615175,21.750000000000007L841.8633749999999,21.750000000000007L841.9254249999999,21.750000000000007L843.662825,21.750000000000007L844.221275,21.750000000000007L844.717675,21.750000000000007L845.648425,21.750000000000007L845.7104750000001,21.750000000000007L846.455075,21.750000000000007L848.3993083333334,21.750000000000007L848.9577583333333,21.750000000000007L849.7644083333333,21.750000000000007L850.0126083333333,21.750000000000007L850.3228583333333,21.750000000000007L850.8813083333334,21.750000000000007L851.3777083333333,21.750000000000007L851.8741083333333,21.750000000000007L852.9289583333333,21.750000000000007L854.7904583333334,21.750000000000007L855.4109583333333,21.750000000000007L857.7068083333334,21.750000000000007L858.2652583333333,21.750000000000007L858.3273083333333,21.750000000000007L858.6996083333333,21.750000000000007L859.6924083333333,21.750000000000007L860.1267583333333,21.750000000000007L861.8641583333333,21.750000000000007L861.9262083333333,21.750000000000007L862.4846583333333,21.750000000000007L862.7949083333333,21.750000000000007L863.4774583333334,21.750000000000007L864.0359083333333,21.750000000000007L864.9046083333334,21.750000000000007L867.2625083333334,21.750000000000007L867.4486583333334,21.750000000000007L868.0071083333332,21.750000000000007L869.5583583333334,21.750000000000007L869.8065583333333,21.750000000000007L870.3650083333333,21.750000000000007L871.2337083333333,21.750000000000007L871.6060083333333,21.750000000000007L871.7301083333333,21.750000000000007L873.8398083333333,21.750000000000007L874.2121083333333,21.750000000000007L874.5844083333334,21.750000000000007L874.7085083333334,21.750000000000007L874.7705583333334,21.750000000000007L875.3910583333333,21.750000000000007L875.7013083333333,21.750000000000007L876.5700083333334,21.750000000000007L877.1284583333334,21.750000000000007L878.1212583333332,21.750000000000007L879.6725083333333,21.750000000000007L880.8514583333334,21.750000000000007L881.4099083333333,21.750000000000007L882.5268083333333,21.750000000000007L884.2021583333333,21.750000000000007L885.6293083333333,21.750000000000007L885.7534083333334,21.750000000000007L885.8154583333334,21.750000000000007L888.9800083333333,21.750000000000007L889.4764083333334,21.750000000000007L889.6625583333334,21.750000000000007L890.2210083333333,21.750000000000007L892.5789083333333,21.750000000000007L894.5024583333334,21.750000000000007L895.7434583333334,21.750000000000007L896.9224083333332,21.750000000000007L898.8459583333333,21.750000000000007L899.3423583333333,21.750000000000007L899.4664583333333,21.750000000000007L901.5761583333333,21.750000000000007L901.7623083333333,21.750000000000007L902.6310083333333,21.750000000000007L903.4997083333334,21.750000000000007L903.8720083333334,21.750000000000007L905.6094083333332,21.750000000000007L905.7955583333334,21.750000000000007L905.8576083333334,21.750000000000007L906.2299083333334,21.750000000000007L906.3540083333334,21.750000000000007L907.4088583333333,21.750000000000007L907.9052583333333,21.750000000000007L908.4637083333333,21.750000000000007L909.3944583333333,21.750000000000007L910.3872583333333,21.750000000000007L912.8072083333333,21.750000000000007L913.5518083333334,21.750000000000007L913.6759083333334,21.750000000000007L914.2964083333333,21.750000000000007L914.9789583333334,21.750000000000007L915.4133083333332,21.750000000000007L915.8476583333334,21.750000000000007L915.9717583333334,21.750000000000007L917.0266083333333,21.750000000000007L918.2055583333332,21.750000000000007L920.4393583333333,21.750000000000007L922.1147083333334,21.750000000000007L922.4870083333334,21.750000000000007L923.0454583333333,21.750000000000007L924.9069583333334,21.750000000000007L926.3341083333333,21.750000000000007L926.3961583333333,21.750000000000007L927.5130583333333,21.750000000000007L929.2504583333333,21.750000000000007L929.5607083333334,21.750000000000007L930.3673583333333,21.750000000000007L931.2360583333334,21.750000000000007L931.7324583333333,21.750000000000007L932.0427083333334,21.750000000000007L932.1668083333334,21.750000000000007L932.2288583333334,21.750000000000007L933.4698583333334,21.750000000000007L933.7801083333334,21.750000000000007L934.6488083333334,21.750000000000007L935.2693083333334,21.750000000000007L935.5795583333332,21.750000000000007L936.0139083333333,21.750000000000007L937.1928583333333,21.750000000000007L937.9374583333333,21.750000000000007L940.1092083333333,21.750000000000007L940.6676583333333,21.750000000000007L943.6460583333334,21.750000000000007L943.9563083333334,21.750000000000007L944.8870583333334,21.750000000000007L945.5696083333332,21.750000000000007L945.8178083333333,21.750000000000007L946.8106083333333,21.750000000000007L947.6172583333333,21.750000000000007L948.8582583333333,21.750000000000007L949.4167083333333,21.750000000000007L949.9131083333334,21.750000000000007L952.1469083333334,21.750000000000007L953.3879083333334,21.750000000000007L953.5740583333334,21.750000000000007L954.5668583333334,21.750000000000007L955.5596583333332,21.750000000000007L959.9858916666667,21.750000000000007L960.5443416666666,21.750000000000007L960.6063916666666,21.750000000000007L962.4678916666667,21.750000000000007L963.6468416666667,21.750000000000007L963.8329916666667,21.750000000000007L965.1980916666666,21.750000000000007L967.9282916666666,21.750000000000007L969.2313416666666,21.750000000000007L969.6036416666667,21.750000000000007L969.7277416666667,21.750000000000007L971.0307916666667,21.750000000000007L972.3958916666667,21.750000000000007L974.1953416666666,21.750000000000007L977.0496416666667,21.750000000000007L978.0424416666666,21.750000000000007L978.7870416666667,21.750000000000007L982.4479916666667,21.750000000000007L983.4407916666668,21.750000000000007L985.3643416666666,21.750000000000007L985.8607416666667,21.750000000000007L987.1637916666667,21.750000000000007L988.7150416666667,21.750000000000007L989.0252916666667,21.750000000000007L989.8319416666667,21.750000000000007L990.6385916666666,21.750000000000007L991.0108916666667,21.750000000000007L993.6169916666666,21.750000000000007L993.6790416666666,21.750000000000007L993.9892916666666,21.750000000000007L994.9200416666667,21.750000000000007L998.5189416666667,21.750000000000007L999.5737916666667,21.750000000000007L1001.269825,21.750000000000007L1001.331875,21.750000000000007L1001.828275,21.750000000000007L1002.5728750000001,21.750000000000007L1002.759025,21.750000000000007L1003.3174750000001,21.750000000000007L1004.2482249999999,21.750000000000007L1004.4964249999999,21.750000000000007L1004.620525,21.750000000000007L1005.5512749999999,21.750000000000007L1006.668175,21.750000000000007L1007.785075,21.750000000000007L1008.715825,21.750000000000007L1009.336325,21.750000000000007L1009.522475,21.750000000000007L1010.267075,21.750000000000007L1010.329125,21.750000000000007L1010.577325,21.750000000000007L1012.3147250000001,21.750000000000007L1013.928025,21.750000000000007L1015.975675,21.750000000000007L1016.9064249999999,21.750000000000007L1019.140225,21.750000000000007L1019.450475,21.750000000000007L1022.4288750000001,21.750000000000007L1022.6770750000001,21.750000000000007L1023.918075,21.750000000000007L1026.958525,21.750000000000007L1028.571825,21.750000000000007L1028.757975,21.750000000000007L1031.364075,21.750000000000007L1032.356875,21.750000000000007L1034.528625,21.750000000000007L1035.459375,21.750000000000007L1035.9557750000001,21.750000000000007L1036.3280750000001,21.750000000000007L1038.375725,21.750000000000007L1039.4305749999999,21.750000000000007L1039.616725,21.750000000000007L1039.802875,21.750000000000007L1040.6095249999998,21.750000000000007L1042.284875,21.750000000000007L1043.401775,21.750000000000007L1043.836125,21.750000000000007L1044.270475,21.750000000000007L1045.635575,21.750000000000007L1046.938625,21.750000000000007L1047.745275,21.750000000000007L1049.917025,21.750000000000007L1051.344175,21.750000000000007L1051.530325,21.750000000000007L1052.336975,21.750000000000007L1052.585175,21.750000000000007L1052.957475,21.750000000000007L1055.625625,21.750000000000007L1055.687675,21.750000000000007L1056.8666249999999,21.750000000000007L1057.0527749999999,21.750000000000007L1057.549175,21.750000000000007L1057.611225,21.750000000000007L1057.673275,21.750000000000007L1058.0455749999999,21.750000000000007L1059.2865749999999,21.750000000000007L1059.4106749999999,21.750000000000007L1060.527575,21.750000000000007L1063.6507583333334,21.750000000000007L1064.5194583333332,21.750000000000007L1064.8917583333334,21.750000000000007L1067.0014583333332,21.750000000000007L1069.5455083333334,21.750000000000007L1071.2829083333334,21.750000000000007L1072.9582583333333,21.750000000000007L1073.2685083333333,21.750000000000007L1073.6408083333333,21.750000000000007L1075.0679583333333,21.750000000000007L1076.6192083333333,21.750000000000007L1077.3638083333333,21.750000000000007L1077.4258583333333,21.750000000000007L1077.7981583333333,21.750000000000007L1078.3566083333333,21.750000000000007L1079.4114583333333,21.750000000000007L1080.1560583333332,21.750000000000007L1080.5283583333332,21.750000000000007L1081.7693583333332,21.750000000000007L1082.0175583333332,21.750000000000007L1083.5067583333334,21.750000000000007L1083.6308583333334,21.750000000000007L1084.1893083333332,21.750000000000007L1087.2918083333334,21.750000000000007L1088.7810083333334,21.750000000000007L1088.8430583333334,21.750000000000007L1090.2081583333334,21.750000000000007L1092.3799083333333,21.750000000000007L1092.4419583333333,21.750000000000007L1093.9518416666667,21.750000000000007L1094.0759416666667,21.750000000000007L1094.1379916666667,21.750000000000007L1095.9994916666667,21.750000000000007L1097.571425,21.750000000000007L1097.881675,21.750000000000007L1098.812425,21.750000000000007L1099.184725,21.750000000000007L1101.046225,21.750000000000007L1101.108275,21.750000000000007L1101.604675,21.750000000000007L1101.852875,21.750000000000007L1102.225175,21.750000000000007L1103.217975,21.750000000000007L1105.886125,21.750000000000007L1106.630725,21.750000000000007L1107.313275,21.750000000000007L1107.933775,21.750000000000007L1107.995825,21.750000000000007L1108.244025,21.750000000000007L1108.492225,21.750000000000007L1108.740425,21.750000000000007L1109.795275,21.750000000000007L1110.167575,21.750000000000007L1110.415775,21.750000000000007L1110.539875,21.750000000000007L1112.091125,21.750000000000007L1113.270075,21.750000000000007L1113.7044250000001,21.750000000000007L1113.7664750000001,21.750000000000007L1114.7592750000001,21.750000000000007L1114.9454250000001,21.750000000000007L1116.9310249999999,21.750000000000007L1116.9930749999999,21.750000000000007L1117.0551249999999,21.750000000000007L1118.544325,21.750000000000007L1119.413025,21.750000000000007L1122.577575,21.750000000000007L1123.322175,21.750000000000007L1127.231325,21.750000000000007L1127.851825,21.750000000000007L1129.837425,21.750000000000007L1130.085625,21.750000000000007L1131.326625,21.750000000000007L1132.815825,21.750000000000007L1132.939925,21.750000000000007L1133.9947750000001,21.750000000000007L1136.290625,21.750000000000007L1137.0352249999999,21.750000000000007L1138.152125,21.750000000000007L1138.462375,21.750000000000007L1138.586475,21.750000000000007L1139.206975,21.750000000000007L1140.323875,21.750000000000007L1140.820275,21.750000000000007L1141.316675,21.750000000000007L1141.751025,21.750000000000007L1142.805875,21.750000000000007L1143.178175,21.750000000000007L1143.612525,21.750000000000007L1146.528875,21.750000000000007L1146.839125,21.750000000000007L1147.831925,21.750000000000007L1148.204225,21.750000000000007L1148.824725,21.750000000000007L1149.321125,21.750000000000007L1149.941625,21.750000000000007L1150.375975,21.750000000000007L1150.9964750000001,21.750000000000007L1151.0585250000001,21.750000000000007L1151.1205750000001,21.750000000000007L1151.927225,21.750000000000007L1153.106175,21.750000000000007L1154.3471749999999,21.750000000000007L1155.0504083333333,21.750000000000007L1155.6709083333333,21.750000000000007" style="fill: none;" fill="none"></path></g></g></g></g><g opacity="0.2"><g><g><g><path stroke="rgb(255, 112, 67)" stroke-width="2px" d="M115.39231666666667,203L135.46549166666665,439.35001659393305L135.80676666666665,194.29999446868894L142.9632,271.15001106262207L155.776525,150.80000829696658L167.63841666666667,185.60000276565552L181.70308333333332,27.55000019446017L182.47870833333332,21.750000000000007L184.133375,21.750000000000007L189.75924166666667,27.55000019446017L190.94853333333336,21.750000000000007L192.355,21.750000000000007L192.820375,46.40000069141388L193.254725,21.750000000000007L193.627025,21.750000000000007L196.39859166666668,21.750000000000007L196.52269166666665,21.750000000000007L197.039775,21.750000000000007L198.98400833333332,21.750000000000007L200.24569166666666,21.750000000000007L203.63775833333332,21.750000000000007L203.69980833333332,21.750000000000007L205.79916666666668,295.79999446868896L206.9160666666667,21.750000000000007L207.78476666666666,21.750000000000007L211.69391666666667,21.750000000000007L213.43131666666665,21.750000000000007L214.4241166666667,21.750000000000007L214.87915,24.650000259280187L214.94119999999998,21.750000000000007L217.0509,21.750000000000007L217.9196,21.750000000000007L218.416,21.750000000000007L218.72625,21.750000000000007L218.85035000000002,21.750000000000007L219.59494999999998,21.750000000000007L220.21545,21.750000000000007L222.8836,21.750000000000007L223.48341666666667,36.25L223.97981666666666,21.750000000000007L225.6138,21.750000000000007L226.17225,21.750000000000007L226.42045,21.750000000000007L226.54455,21.750000000000007L227.41325,21.750000000000007L227.53735,21.750000000000007L227.9717,21.750000000000007L228.46810000000002,21.750000000000007L228.84040000000002,21.750000000000007L230.66053333333335,21.750000000000007L235.19018333333332,21.750000000000007L237.33090833333333,21.750000000000007L237.51705833333332,21.750000000000007L238.57190833333334,21.750000000000007L239.13035833333333,21.750000000000007L239.19240833333333,21.750000000000007L239.56470833333333,21.750000000000007L239.93700833333332,21.750000000000007L241.09527500000002,21.750000000000007L241.28142499999998,21.750000000000007L241.86055833333333,21.750000000000007L244.90100833333332,21.750000000000007L245.08715833333335,21.750000000000007L245.45945833333334,21.750000000000007L245.83175833333334,21.750000000000007L246.76250833333333,21.750000000000007L247.13480833333332,21.750000000000007L247.44505833333332,21.750000000000007L250.67165833333334,21.750000000000007L250.9819083333333,21.750000000000007L251.04395833333334,21.750000000000007L252.16085833333332,21.750000000000007L252.96750833333334,21.750000000000007L253.77415833333333,21.750000000000007L256.13205833333336,21.750000000000007L257.18690833333335,21.750000000000007L258.42790833333333,21.750000000000007L260.5996583333333,21.750000000000007L260.78580833333336,21.750000000000007L261.71655833333335,21.750000000000007L261.96475833333335,21.750000000000007L264.9431583333333,21.750000000000007L265.37750833333337,21.750000000000007L266.74260833333335,21.750000000000007L267.48720833333334,21.750000000000007L268.10770833333333,21.750000000000007L270.01057499999996,21.750000000000007L270.71380833333336,21.750000000000007L271.21020833333336,21.750000000000007L271.5825083333333,21.750000000000007L273.5681083333333,21.750000000000007L273.8163083333333,21.750000000000007L275.3675583333333,21.750000000000007L276.36035833333335,21.750000000000007L277.3738416666667,21.750000000000007L277.6220416666667,21.750000000000007L278.6768916666667,21.750000000000007L280.84864166666665,21.750000000000007L281.3450416666667,21.750000000000007L283.5167916666667,21.750000000000007L284.07524166666667,21.750000000000007L284.44754166666667,21.750000000000007L284.75779166666666,21.750000000000007L285.19214166666666,21.750000000000007L285.75059166666665,21.750000000000007L286.61929166666664,21.750000000000007L286.7433916666667,21.750000000000007L286.92954166666664,21.750000000000007L287.4879916666667,21.750000000000007L289.65974166666666,21.750000000000007L291.14894166666664,21.750000000000007L292.4519916666667,21.750000000000007L293.5688916666667,21.750000000000007L294.12734166666667,21.750000000000007L294.93399166666666,21.750000000000007L295.12014166666665,21.750000000000007L295.61654166666665,21.750000000000007L298.0985416666667,21.750000000000007L299.15339166666666,21.750000000000007L299.77389166666666,21.750000000000007L299.96004166666665,21.750000000000007L301.20104166666664,21.750000000000007L302.1938416666667,21.750000000000007L303.3107416666667,21.750000000000007L304.05534166666666,21.750000000000007L305.1101916666667,21.750000000000007L305.48249166666665,21.750000000000007L307.7783416666667,21.750000000000007L307.9644916666667,21.750000000000007L308.0265416666667,21.750000000000007L308.52294166666667,21.750000000000007L308.77114166666667,21.750000000000007L309.20549166666666,21.750000000000007L312.2459416666667,21.750000000000007L312.4941416666667,21.750000000000007L312.9284916666667,21.750000000000007L313.48694166666667,21.750000000000007L314.85204166666665,21.750000000000007L315.1002416666667,21.750000000000007L315.5966416666667,21.750000000000007L316.09304166666664,21.750000000000007L316.3412416666667,21.750000000000007L317.5822416666667,21.750000000000007L317.8924916666667,21.750000000000007L317.95454166666667,21.750000000000007L318.26479166666667,21.750000000000007L319.00939166666666,21.750000000000007L319.19554166666666,21.750000000000007L319.50579166666665,21.750000000000007L320.6847416666667,21.750000000000007L321.6775416666666,21.750000000000007L322.2980416666667,21.750000000000007L323.0426416666666,21.750000000000007L324.65594166666665,21.750000000000007L325.2143916666667,21.750000000000007L327.3861416666666,21.750000000000007L327.4481916666666,21.750000000000007L327.5722916666667,21.750000000000007L330.30249166666664,21.750000000000007L330.7988916666667,21.750000000000007L331.3573416666667,21.750000000000007L331.4814416666667,21.750000000000007L331.7916916666666,21.750000000000007L333.34294166666666,21.750000000000007L333.40499166666666,21.750000000000007L334.02549166666665,21.750000000000007L334.14959166666665,21.750000000000007L334.4598416666667,21.750000000000007L335.32854166666664,21.750000000000007L335.7008416666667,21.750000000000007L336.2592916666667,21.750000000000007L337.1900416666667,21.750000000000007L337.56234166666667,21.750000000000007L340.47869166666663,21.750000000000007L340.8509916666667,21.750000000000007L341.9058416666667,21.750000000000007L342.27814166666667,21.750000000000007L345.7529416666667,21.750000000000007L346.0631916666666,21.750000000000007L346.8698416666667,21.750000000000007L349.16569166666665,21.750000000000007L350.0343916666667,21.750000000000007L352.20614166666667,21.750000000000007L357.37697499999996,21.750000000000007L357.935425,21.750000000000007L358.493875,21.750000000000007L358.866175,21.750000000000007L360.355375,21.750000000000007L363.271725,21.750000000000007L363.76812500000005,21.750000000000007L366.0226083333333,21.750000000000007L367.01540833333337,21.750000000000007L367.2015583333333,21.750000000000007L367.69795833333336,21.750000000000007L367.8841083333333,21.750000000000007L369.62150833333334,21.750000000000007L371.4830083333333,21.750000000000007L375.0198583333334,21.750000000000007L375.3921583333333,21.750000000000007L376.3849583333334,21.750000000000007L377.50185833333336,21.750000000000007L377.56390833333336,21.750000000000007L379.67360833333333,21.750000000000007L380.2941083333333,21.750000000000007L380.4802583333333,21.750000000000007L380.5423083333333,21.750000000000007L380.6664083333334,21.750000000000007L380.7284583333334,21.750000000000007L382.2797083333333,21.750000000000007L384.3273583333333,21.750000000000007L386.8093583333333,21.750000000000007L388.7329083333333,21.750000000000007L390.4082583333333,21.750000000000007L390.7185083333334,21.750000000000007L392.08360833333336,21.750000000000007L393.26255833333335,21.750000000000007L394.19330833333333,21.750000000000007L395.1861083333333,21.750000000000007L396.98555833333336,21.750000000000007L397.17170833333336,21.750000000000007L398.7229583333333,21.750000000000007L401.39110833333336,21.750000000000007L402.63210833333335,21.750000000000007L403.7490083333333,21.750000000000007L403.87310833333333,21.750000000000007L403.99720833333333,21.750000000000007L404.36950833333333,21.750000000000007L406.1069083333333,21.750000000000007L406.97560833333335,21.750000000000007L410.4504083333333,21.750000000000007L410.69860833333337,21.750000000000007L411.38115833333336,21.750000000000007L413.3253916666667,21.750000000000007L413.8217916666667,21.750000000000007L414.6284416666667,21.750000000000007L414.9386916666666,21.750000000000007L415.93149166666666,21.750000000000007L416.24174166666666,21.750000000000007L416.3658416666667,21.750000000000007L416.9863416666667,21.750000000000007L417.23454166666664,21.750000000000007L419.0339916666667,21.750000000000007L419.77859166666667,21.750000000000007L423.00519166666663,21.750000000000007L423.6877416666666,21.750000000000007L424.74259166666667,21.750000000000007L426.4799916666667,21.750000000000007L428.09329166666663,21.750000000000007L428.8378916666667,21.750000000000007L429.52044166666667,21.750000000000007L429.70659166666667,21.750000000000007L433.2434416666667,21.750000000000007L433.5536916666667,21.750000000000007L433.6157416666667,21.750000000000007L434.2362416666667,21.750000000000007L438.9417,84.10000276565552L439.62425,21.750000000000007L439.6863,21.750000000000007L439.8104,21.750000000000007L440.12065,21.750000000000007L440.1827,21.750000000000007L441.73395,21.750000000000007L442.04420000000005,21.750000000000007L442.23035,21.750000000000007L442.72675000000004,21.750000000000007L443.96775,21.750000000000007L444.1539,21.750000000000007L444.21594999999996,21.750000000000007L445.1467,21.750000000000007L446.5118,21.750000000000007L447.31845,21.750000000000007L447.44255,21.750000000000007L448.24920000000003,21.750000000000007L450.54505,21.750000000000007L452.03425000000004,21.750000000000007L452.4686,21.750000000000007L452.8409,21.750000000000007L454.33009999999996,21.750000000000007L454.51625,21.750000000000007L458.17719999999997,21.750000000000007L459.23205,21.750000000000007L460.5351,21.750000000000007L460.72125000000005,21.750000000000007L463.5135,21.750000000000007L463.69964999999996,21.750000000000007L464.69245,21.750000000000007L466.616,21.750000000000007L468.3534,21.750000000000007L468.8498,21.750000000000007L469.098,21.750000000000007L469.5944,21.750000000000007L470.27695,21.750000000000007L471.9109333333333,21.750000000000007L472.22118333333333,21.750000000000007L473.2139833333334,21.750000000000007L474.2067833333333,21.750000000000007L474.70318333333336,21.750000000000007L475.26163333333335,21.750000000000007L475.82008333333334,21.750000000000007L476.50263333333334,21.750000000000007L476.56468333333333,21.750000000000007L477.3092833333333,21.750000000000007L477.4333833333333,21.750000000000007L479.79128333333335,21.750000000000007L480.53588333333335,21.750000000000007L481.71483333333333,21.750000000000007L483.1419833333333,21.750000000000007L484.3829833333333,21.750000000000007L487.3613833333333,21.750000000000007L487.9198333333333,21.750000000000007L488.1059833333333,21.750000000000007L491.3946333333334,21.750000000000007L491.58078333333333,21.750000000000007L492.8217833333333,21.750000000000007L492.9458833333333,21.750000000000007L493.0079333333333,21.750000000000007L494.55918333333335,21.750000000000007L496.3172666666666,21.750000000000007L497.5582666666666,21.750000000000007L498.05466666666666,21.750000000000007L499.97821666666664,21.750000000000007L501.0330666666667,21.750000000000007L502.14996666666667,21.750000000000007L502.6463666666667,21.750000000000007L504.5699166666667,21.750000000000007L507.6724166666667,21.750000000000007L509.47186666666664,21.750000000000007L510.1544166666667,21.750000000000007L511.1472166666667,21.750000000000007L512.0159166666667,21.750000000000007L513.3189666666667,21.750000000000007L526.835525,21.750000000000007L528.200625,21.750000000000007L528.510875,21.750000000000007L530.8274083333333,21.750000000000007L531.5099583333333,21.750000000000007L532.7509583333333,21.750000000000007L532.8750583333333,21.750000000000007L534.8606583333333,21.750000000000007L536.3498583333333,21.750000000000007L537.0944583333334,21.750000000000007L537.2185583333334,21.750000000000007L537.5908583333334,21.750000000000007L539.8867083333333,21.750000000000007L541.6241083333333,21.750000000000007L541.7482083333333,21.750000000000007L541.9964083333333,21.750000000000007L542.9271583333333,21.750000000000007L545.4712083333334,21.750000000000007L545.6573583333333,21.750000000000007L548.9460083333333,21.750000000000007L549.1321583333333,21.750000000000007L549.7526583333333,21.750000000000007L550.8695583333333,21.750000000000007L550.9316083333333,21.750000000000007L551.9864583333333,21.750000000000007L552.1726083333333,21.750000000000007L554.2823083333333,21.750000000000007L554.4064083333333,21.750000000000007L554.8407583333334,21.750000000000007L557.0745583333334,21.750000000000007L558.3776083333333,21.750000000000007L559.8874916666666,21.750000000000007L560.1977416666667,21.750000000000007L560.5700416666666,21.750000000000007L562.2453916666667,21.750000000000007L563.4863916666667,21.750000000000007L563.7966416666667,21.750000000000007L564.748075,21.750000000000007L565.058325,21.750000000000007L567.726475,21.750000000000007L569.277725,21.750000000000007L569.401825,21.750000000000007L570.394625,21.750000000000007L570.518725,21.750000000000007L570.891025,21.750000000000007L571.015125,21.750000000000007L572.132025,21.750000000000007L573.559175,21.750000000000007L574.117625,21.750000000000007L575.296575,21.750000000000007L575.9791250000001,21.750000000000007L576.103225,21.750000000000007L576.4755250000001,21.750000000000007L577.282175,21.750000000000007L578.399075,21.750000000000007L580.819025,21.750000000000007L582.246175,21.750000000000007L582.494375,21.750000000000007L582.556425,21.750000000000007L584.045625,21.750000000000007L584.728175,21.750000000000007L585.410725,21.750000000000007L585.8450750000001,21.750000000000007L586.217375,21.750000000000007L587.706575,21.750000000000007L591.367525,21.750000000000007L593.6220083333334,21.750000000000007L593.6840583333333,21.750000000000007L593.9322583333334,21.750000000000007L595.1732583333334,21.750000000000007L595.2353083333334,21.750000000000007L595.2973583333334,21.750000000000007L595.7937583333334,21.750000000000007L598.5239583333333,21.750000000000007L598.9583083333333,21.750000000000007L599.1444583333333,21.750000000000007L600.3234083333333,21.750000000000007L603.6741083333334,21.750000000000007L604.2325583333334,21.750000000000007L604.3566583333334,21.750000000000007L604.6048583333334,21.750000000000007L604.9771583333334,21.750000000000007L605.1633083333332,21.750000000000007L605.5976583333334,21.750000000000007L606.0940583333334,21.750000000000007L606.2802083333333,21.750000000000007L607.0248083333333,21.750000000000007L608.7001583333333,21.750000000000007L608.9483583333333,21.750000000000007L609.6309083333333,21.750000000000007L610.3134583333333,21.750000000000007L614.5328583333333,21.750000000000007L615.4015583333334,21.750000000000007L615.8979583333333,21.750000000000007L616.7666583333333,21.750000000000007L616.8287083333333,21.750000000000007L618.4420083333333,21.750000000000007L619.3107083333333,21.750000000000007L620.8619583333334,21.750000000000007L622.6614083333333,21.750000000000007L622.8475583333333,21.750000000000007L624.4608583333334,21.750000000000007L625.5777583333333,21.750000000000007L625.8259583333333,21.750000000000007L627.3772083333333,21.750000000000007L630.6038083333334,21.750000000000007L631.5345583333333,21.750000000000007L632.0309583333334,21.750000000000007L632.0930083333334,21.750000000000007L633.4581083333334,21.750000000000007L634.5750083333334,21.750000000000007L637.0570083333333,21.750000000000007L638.3807416666667,24.650000259280187L639.5596916666667,21.750000000000007L639.7458416666667,21.750000000000007L640.3456583333333,21.750000000000007L643.6343083333334,21.750000000000007L644.3168583333334,21.750000000000007L645.4337583333332,21.750000000000007L646.0542583333333,21.750000000000007L646.1163083333333,21.750000000000007L647.2952583333333,21.750000000000007L648.7224083333333,21.750000000000007L648.9706083333333,21.750000000000007L649.9013583333333,21.750000000000007L651.7628583333333,21.750000000000007L652.3213083333334,21.750000000000007L652.5074583333334,21.750000000000007L652.9418083333333,21.750000000000007L653.5623083333334,21.750000000000007L653.7484583333334,21.750000000000007L654.0587083333332,21.750000000000007L654.6792083333333,21.750000000000007L656.1684083333333,21.750000000000007L656.7268583333333,21.750000000000007L657.9058083333333,21.750000000000007L658.9606583333333,21.750000000000007L662.8077583333333,21.750000000000007L664.9795083333333,21.750000000000007L666.0343583333333,21.750000000000007L666.6548583333333,21.750000000000007L666.9651083333334,21.750000000000007L667.6476583333333,21.750000000000007L668.0199583333333,21.750000000000007L668.4543083333333,21.750000000000007L669.5712083333334,21.750000000000007L669.8814583333333,21.750000000000007L670.1917083333333,21.750000000000007L671.3086083333333,21.750000000000007L671.9911583333334,21.750000000000007L672.1773083333334,21.750000000000007L673.4183083333334,21.750000000000007L673.9147083333334,21.750000000000007L674.5352083333333,21.750000000000007L675.2798083333333,21.750000000000007L676.7069583333333,21.750000000000007L677.0172083333334,21.750000000000007L680.8022583333334,21.750000000000007L680.8643083333334,21.750000000000007L682.8499083333332,21.750000000000007L685.5180583333332,21.750000000000007L686.0144583333333,21.750000000000007L686.5108583333333,21.750000000000007L686.5729083333333,21.750000000000007L688.6826083333333,21.750000000000007L689.3651583333334,21.750000000000007L690.1097583333333,21.750000000000007L691.1646083333334,21.750000000000007L694.9082916666666,21.750000000000007L696.3974916666666,21.750000000000007L698.2589916666667,21.750000000000007L698.5071916666667,21.750000000000007L699.3758916666667,21.750000000000007L700.4307416666666,21.750000000000007L700.8030416666667,21.750000000000007L703.4091416666666,21.750000000000007L704.4019416666667,21.750000000000007L705.0844916666666,21.750000000000007L705.6429416666667,21.750000000000007L706.1393416666667,21.750000000000007L707.3803416666667,21.750000000000007L707.5044416666667,21.750000000000007L707.6905916666666,21.750000000000007L707.8146916666666,21.750000000000007L708.1869916666667,21.750000000000007L709.4279916666667,21.750000000000007L709.6141416666667,21.750000000000007L709.9243916666667,21.750000000000007L710.4828416666666,21.750000000000007L714.8263416666667,21.750000000000007L716.0673416666667,21.750000000000007L716.1293916666667,21.750000000000007L716.2534916666666,21.750000000000007L717.1221916666667,21.750000000000007L717.3703916666667,21.750000000000007L717.9288416666666,21.750000000000007L717.9908916666666,21.750000000000007L718.3011416666667,21.750000000000007L718.6113916666667,21.750000000000007L719.5421416666667,21.750000000000007L721.4656916666667,21.750000000000007L722.2102916666666,21.750000000000007L722.6446416666666,21.750000000000007L722.9548916666666,21.750000000000007L723.8235916666666,21.750000000000007L724.3820416666667,21.750000000000007L725.9953416666667,21.750000000000007L726.4296916666666,21.750000000000007L726.4917416666666,21.750000000000007L727.0501916666667,21.750000000000007L729.4080916666667,21.750000000000007L729.9044916666667,21.750000000000007L729.9665416666667,21.750000000000007L730.2147416666667,21.750000000000007L732.2003416666666,21.750000000000007L735.1166916666666,21.750000000000007L735.3648916666666,21.750000000000007L736.7920416666666,21.750000000000007L737.9089416666666,21.750000000000007L738.0950916666667,21.750000000000007L739.3981416666667,21.750000000000007L740.0806916666667,21.750000000000007L741.5698916666666,21.750000000000007L742.0042416666668,21.750000000000007L743.0590916666666,21.750000000000007L743.1831916666667,21.750000000000007L743.3693416666667,21.750000000000007L744.6723916666667,21.750000000000007L744.7964916666667,21.750000000000007L745.1067416666666,21.750000000000007L745.7892916666667,21.750000000000007L746.5338916666666,21.750000000000007L747.5887416666667,21.750000000000007L748.7056416666667,21.750000000000007L749.0779416666667,21.750000000000007L749.6984416666667,21.750000000000007L750.8153416666668,21.750000000000007L750.8773916666667,21.750000000000007L752.5527416666666,21.750000000000007L753.0491416666666,21.750000000000007L753.6696416666666,21.750000000000007L754.3521916666666,21.750000000000007L755.6552416666667,21.750000000000007L756.7721416666666,21.750000000000007L758.7577416666667,21.750000000000007L759.1920916666667,21.750000000000007L762.4186916666666,21.750000000000007L762.5427916666666,21.750000000000007L763.1632916666667,21.750000000000007L763.5976416666667,21.750000000000007L765.2729916666666,21.750000000000007L766.5760416666666,21.750000000000007L767.1965416666667,21.750000000000007L768.1893416666667,21.750000000000007L768.3134416666667,21.750000000000007L768.7477916666667,21.750000000000007L770.7333916666668,21.750000000000007L771.0436416666666,21.750000000000007L771.7261916666666,21.750000000000007L772.0364416666667,21.750000000000007L774.7045916666667,21.750000000000007L774.8907416666667,21.750000000000007L776.1317416666667,21.750000000000007L776.5040416666667,21.750000000000007L776.5660916666666,21.750000000000007L778.2000750000001,21.750000000000007L778.634425,21.750000000000007L782.543575,21.750000000000007L783.1227083333333,21.750000000000007L783.5570583333333,21.750000000000007L783.7432083333333,21.750000000000007L784.1775583333333,21.750000000000007L784.3637083333333,21.750000000000007L785.7288083333334,21.750000000000007L786.4113583333333,21.750000000000007L787.0939083333334,21.750000000000007L787.8385083333333,21.750000000000007L787.9005583333333,21.750000000000007L788.0867083333333,21.750000000000007L789.5759083333334,21.750000000000007L789.9482083333334,21.750000000000007L791.3753583333333,21.750000000000007L791.9958583333334,21.750000000000007L792.4922583333333,21.750000000000007L796.2773083333333,21.750000000000007L796.8357583333333,21.750000000000007L797.3942083333334,21.750000000000007L799.5659583333334,21.750000000000007L801.3033583333333,21.750000000000007L801.4895083333333,21.750000000000007L803.9715083333333,21.750000000000007L805.4607083333333,21.750000000000007L809.5146416666668,21.750000000000007L810.3212916666666,21.750000000000007L812.1207416666667,21.750000000000007L814.3545416666666,21.750000000000007L814.6647916666667,21.750000000000007L814.7268416666667,21.750000000000007L814.8509416666667,21.750000000000007L815.7196416666667,21.750000000000007L816.4642416666667,21.750000000000007L817.8913916666667,21.750000000000007L818.2636916666668,21.750000000000007L819.1944416666666,21.750000000000007L819.5667416666668,21.750000000000007L820.1872416666666,21.750000000000007L821.6971249999999,21.750000000000007L822.751975,21.750000000000007L824.117075,21.750000000000007L826.040625,21.750000000000007L826.474975,21.750000000000007L827.1575250000001,21.750000000000007L828.150325,21.750000000000007L828.3985250000001,21.750000000000007L828.832875,21.750000000000007L829.1431249999999,21.750000000000007L831.7492249999999,21.750000000000007L833.983025,21.750000000000007L835.7204250000001,21.750000000000007L835.8445250000001,21.750000000000007L835.9065750000001,21.750000000000007L836.030675,21.750000000000007L836.402975,21.750000000000007L836.9614250000001,21.750000000000007L837.3337250000001,21.750000000000007L837.643975,21.750000000000007L839.443425,21.750000000000007L840.3121249999999,21.750000000000007L840.994675,21.750000000000007L841.615175,21.750000000000007L841.8633749999999,21.750000000000007L841.9254249999999,21.750000000000007L843.662825,21.750000000000007L844.221275,21.750000000000007L844.717675,21.750000000000007L845.648425,21.750000000000007L845.7104750000001,21.750000000000007L846.455075,21.750000000000007L848.3993083333334,21.750000000000007L848.9577583333333,21.750000000000007L849.7644083333333,21.750000000000007L850.0126083333333,21.750000000000007L850.3228583333333,21.750000000000007L850.8813083333334,21.750000000000007L851.3777083333333,21.750000000000007L851.8741083333333,21.750000000000007L852.9289583333333,21.750000000000007L854.7904583333334,21.750000000000007L855.4109583333333,21.750000000000007L857.7068083333334,21.750000000000007L858.2652583333333,21.750000000000007L858.3273083333333,21.750000000000007L858.6996083333333,21.750000000000007L859.6924083333333,21.750000000000007L860.1267583333333,21.750000000000007L861.8641583333333,21.750000000000007L861.9262083333333,21.750000000000007L862.4846583333333,21.750000000000007L862.7949083333333,21.750000000000007L863.4774583333334,21.750000000000007L864.0359083333333,21.750000000000007L864.9046083333334,21.750000000000007L867.2625083333334,21.750000000000007L867.4486583333334,21.750000000000007L868.0071083333332,21.750000000000007L869.5583583333334,21.750000000000007L869.8065583333333,21.750000000000007L870.3650083333333,21.750000000000007L871.2337083333333,21.750000000000007L871.6060083333333,21.750000000000007L871.7301083333333,21.750000000000007L873.8398083333333,21.750000000000007L874.2121083333333,21.750000000000007L874.5844083333334,21.750000000000007L874.7085083333334,21.750000000000007L874.7705583333334,21.750000000000007L875.3910583333333,21.750000000000007L875.7013083333333,21.750000000000007L876.5700083333334,21.750000000000007L877.1284583333334,21.750000000000007L878.1212583333332,21.750000000000007L879.6725083333333,21.750000000000007L880.8514583333334,21.750000000000007L881.4099083333333,21.750000000000007L882.5268083333333,21.750000000000007L884.2021583333333,21.750000000000007L885.6293083333333,21.750000000000007L885.7534083333334,21.750000000000007L885.8154583333334,21.750000000000007L888.9800083333333,21.750000000000007L889.4764083333334,21.750000000000007L889.6625583333334,21.750000000000007L890.2210083333333,21.750000000000007L892.5789083333333,21.750000000000007L894.5024583333334,21.750000000000007L895.7434583333334,21.750000000000007L896.9224083333332,21.750000000000007L898.8459583333333,21.750000000000007L899.3423583333333,21.750000000000007L899.4664583333333,21.750000000000007L901.5761583333333,21.750000000000007L901.7623083333333,21.750000000000007L902.6310083333333,21.750000000000007L903.4997083333334,21.750000000000007L903.8720083333334,21.750000000000007L905.6094083333332,21.750000000000007L905.7955583333334,21.750000000000007L905.8576083333334,21.750000000000007L906.2299083333334,21.750000000000007L906.3540083333334,21.750000000000007L907.4088583333333,21.750000000000007L907.9052583333333,21.750000000000007L908.4637083333333,21.750000000000007L909.3944583333333,21.750000000000007L910.3872583333333,21.750000000000007L912.8072083333333,21.750000000000007L913.5518083333334,21.750000000000007L913.6759083333334,21.750000000000007L914.2964083333333,21.750000000000007L914.9789583333334,21.750000000000007L915.4133083333332,21.750000000000007L915.8476583333334,21.750000000000007L915.9717583333334,21.750000000000007L917.0266083333333,21.750000000000007L918.2055583333332,21.750000000000007L920.4393583333333,21.750000000000007L922.1147083333334,21.750000000000007L922.4870083333334,21.750000000000007L923.0454583333333,21.750000000000007L924.9069583333334,21.750000000000007L926.3341083333333,21.750000000000007L926.3961583333333,21.750000000000007L927.5130583333333,21.750000000000007L929.2504583333333,21.750000000000007L929.5607083333334,21.750000000000007L930.3673583333333,21.750000000000007L931.2360583333334,21.750000000000007L931.7324583333333,21.750000000000007L932.0427083333334,21.750000000000007L932.1668083333334,21.750000000000007L932.2288583333334,21.750000000000007L933.4698583333334,21.750000000000007L933.7801083333334,21.750000000000007L934.6488083333334,21.750000000000007L935.2693083333334,21.750000000000007L935.5795583333332,21.750000000000007L936.0139083333333,21.750000000000007L937.1928583333333,21.750000000000007L937.9374583333333,21.750000000000007L940.1092083333333,21.750000000000007L940.6676583333333,21.750000000000007L943.6460583333334,21.750000000000007L943.9563083333334,21.750000000000007L944.8870583333334,21.750000000000007L945.5696083333332,21.750000000000007L945.8178083333333,21.750000000000007L946.8106083333333,21.750000000000007L947.6172583333333,21.750000000000007L948.8582583333333,21.750000000000007L949.4167083333333,21.750000000000007L949.9131083333334,21.750000000000007L952.1469083333334,21.750000000000007L953.3879083333334,21.750000000000007L953.5740583333334,21.750000000000007L954.5668583333334,21.750000000000007L955.5596583333332,21.750000000000007L959.9858916666667,21.750000000000007L960.5443416666666,21.750000000000007L960.6063916666666,21.750000000000007L962.4678916666667,21.750000000000007L963.6468416666667,21.750000000000007L963.8329916666667,21.750000000000007L965.1980916666666,21.750000000000007L967.9282916666666,21.750000000000007L969.2313416666666,21.750000000000007L969.6036416666667,21.750000000000007L969.7277416666667,21.750000000000007L971.0307916666667,21.750000000000007L972.3958916666667,21.750000000000007L974.1953416666666,21.750000000000007L977.0496416666667,21.750000000000007L978.0424416666666,21.750000000000007L978.7870416666667,21.750000000000007L982.4479916666667,21.750000000000007L983.4407916666668,21.750000000000007L985.3643416666666,21.750000000000007L985.8607416666667,21.750000000000007L987.1637916666667,21.750000000000007L988.7150416666667,21.750000000000007L989.0252916666667,21.750000000000007L989.8319416666667,21.750000000000007L990.6385916666666,21.750000000000007L991.0108916666667,21.750000000000007L993.6169916666666,21.750000000000007L993.6790416666666,21.750000000000007L993.9892916666666,21.750000000000007L994.9200416666667,21.750000000000007L998.5189416666667,21.750000000000007L999.5737916666667,21.750000000000007L1001.269825,21.750000000000007L1001.331875,21.750000000000007L1001.828275,21.750000000000007L1002.5728750000001,21.750000000000007L1002.759025,21.750000000000007L1003.3174750000001,21.750000000000007L1004.2482249999999,21.750000000000007L1004.4964249999999,21.750000000000007L1004.620525,21.750000000000007L1005.5512749999999,21.750000000000007L1006.668175,21.750000000000007L1007.785075,21.750000000000007L1008.715825,21.750000000000007L1009.336325,21.750000000000007L1009.522475,21.750000000000007L1010.267075,21.750000000000007L1010.329125,21.750000000000007L1010.577325,21.750000000000007L1012.3147250000001,21.750000000000007L1013.928025,21.750000000000007L1015.975675,21.750000000000007L1016.9064249999999,21.750000000000007L1019.140225,21.750000000000007L1019.450475,21.750000000000007L1022.4288750000001,21.750000000000007L1022.6770750000001,21.750000000000007L1023.918075,21.750000000000007L1026.958525,21.750000000000007L1028.571825,21.750000000000007L1028.757975,21.750000000000007L1031.364075,21.750000000000007L1032.356875,21.750000000000007L1034.528625,21.750000000000007L1035.459375,21.750000000000007L1035.9557750000001,21.750000000000007L1036.3280750000001,21.750000000000007L1038.375725,21.750000000000007L1039.4305749999999,21.750000000000007L1039.616725,21.750000000000007L1039.802875,21.750000000000007L1040.6095249999998,21.750000000000007L1042.284875,21.750000000000007L1043.401775,21.750000000000007L1043.836125,21.750000000000007L1044.270475,21.750000000000007L1045.635575,21.750000000000007L1046.938625,21.750000000000007L1047.745275,21.750000000000007L1049.917025,21.750000000000007L1051.344175,21.750000000000007L1051.530325,21.750000000000007L1052.336975,21.750000000000007L1052.585175,21.750000000000007L1052.957475,21.750000000000007L1055.625625,21.750000000000007L1055.687675,21.750000000000007L1056.8666249999999,21.750000000000007L1057.0527749999999,21.750000000000007L1057.549175,21.750000000000007L1057.611225,21.750000000000007L1057.673275,21.750000000000007L1058.0455749999999,21.750000000000007L1059.2865749999999,21.750000000000007L1059.4106749999999,21.750000000000007L1060.527575,21.750000000000007L1063.6507583333334,21.750000000000007L1064.5194583333332,21.750000000000007L1064.8917583333334,21.750000000000007L1067.0014583333332,21.750000000000007L1069.5455083333334,21.750000000000007L1071.2829083333334,21.750000000000007L1072.9582583333333,21.750000000000007L1073.2685083333333,21.750000000000007L1073.6408083333333,21.750000000000007L1075.0679583333333,21.750000000000007L1076.6192083333333,21.750000000000007L1077.3638083333333,21.750000000000007L1077.4258583333333,21.750000000000007L1077.7981583333333,21.750000000000007L1078.3566083333333,21.750000000000007L1079.4114583333333,21.750000000000007L1080.1560583333332,21.750000000000007L1080.5283583333332,21.750000000000007L1081.7693583333332,21.750000000000007L1082.0175583333332,21.750000000000007L1083.5067583333334,21.750000000000007L1083.6308583333334,21.750000000000007L1084.1893083333332,21.750000000000007L1087.2918083333334,21.750000000000007L1088.7810083333334,21.750000000000007L1088.8430583333334,21.750000000000007L1090.2081583333334,21.750000000000007L1092.3799083333333,21.750000000000007L1092.4419583333333,21.750000000000007L1093.9518416666667,21.750000000000007L1094.0759416666667,21.750000000000007L1094.1379916666667,21.750000000000007L1095.9994916666667,21.750000000000007L1097.571425,21.750000000000007L1097.881675,21.750000000000007L1098.812425,21.750000000000007L1099.184725,21.750000000000007L1101.046225,21.750000000000007L1101.108275,21.750000000000007L1101.604675,21.750000000000007L1101.852875,21.750000000000007L1102.225175,21.750000000000007L1103.217975,21.750000000000007L1105.886125,21.750000000000007L1106.630725,21.750000000000007L1107.313275,21.750000000000007L1107.933775,21.750000000000007L1107.995825,21.750000000000007L1108.244025,21.750000000000007L1108.492225,21.750000000000007L1108.740425,21.750000000000007L1109.795275,21.750000000000007L1110.167575,21.750000000000007L1110.415775,21.750000000000007L1110.539875,21.750000000000007L1112.091125,21.750000000000007L1113.270075,21.750000000000007L1113.7044250000001,21.750000000000007L1113.7664750000001,21.750000000000007L1114.7592750000001,21.750000000000007L1114.9454250000001,21.750000000000007L1116.9310249999999,21.750000000000007L1116.9930749999999,21.750000000000007L1117.0551249999999,21.750000000000007L1118.544325,21.750000000000007L1119.413025,21.750000000000007L1122.577575,21.750000000000007L1123.322175,21.750000000000007L1127.231325,21.750000000000007L1127.851825,21.750000000000007L1129.837425,21.750000000000007L1130.085625,21.750000000000007L1131.326625,21.750000000000007L1132.815825,21.750000000000007L1132.939925,21.750000000000007L1133.9947750000001,21.750000000000007L1136.290625,21.750000000000007L1137.0352249999999,21.750000000000007L1138.152125,21.750000000000007L1138.462375,21.750000000000007L1138.586475,21.750000000000007L1139.206975,21.750000000000007L1140.323875,21.750000000000007L1140.820275,21.750000000000007L1141.316675,21.750000000000007L1141.751025,21.750000000000007L1142.805875,21.750000000000007L1143.178175,21.750000000000007L1143.612525,21.750000000000007L1146.528875,21.750000000000007L1146.839125,21.750000000000007L1147.831925,21.750000000000007L1148.204225,21.750000000000007L1148.824725,21.750000000000007L1149.321125,21.750000000000007L1149.941625,21.750000000000007L1150.375975,21.750000000000007L1150.9964750000001,21.750000000000007L1151.0585250000001,21.750000000000007L1151.1205750000001,21.750000000000007L1151.927225,21.750000000000007L1153.106175,21.750000000000007L1154.3471749999999,21.750000000000007L1155.0504083333333,21.750000000000007L1155.6709083333333,21.750000000000007" style="fill: none;" fill="none"></path></g></g></g></g></g></g><g transform="translate(40, 377)" clip-path="url(#clip_1)"><clipPath id="clip_1"><rect width="1241" height="23"></rect></clipPath><g><g><line x1="0" y1="0" x2="0" y2="5" style="visibility: inherit;" fill="rgb(0, 0, 0)" stroke="rgb(204, 204, 204)" stroke-width="1px"></line><line x1="103.41666666666666" y1="0" x2="103.41666666666666" y2="5" style="visibility: inherit;" fill="rgb(0, 0, 0)" stroke="rgb(204, 204, 204)" stroke-width="1px"></line><line x1="206.83333333333331" y1="0" x2="206.83333333333331" y2="5" style="visibility: inherit;" fill="rgb(0, 0, 0)" stroke="rgb(204, 204, 204)" stroke-width="1px"></line><line x1="310.25" y1="0" x2="310.25" y2="5" style="visibility: inherit;" fill="rgb(0, 0, 0)" stroke="rgb(204, 204, 204)" stroke-width="1px"></line><line x1="413.66666666666663" y1="0" x2="413.66666666666663" y2="5" style="visibility: inherit;" fill="rgb(0, 0, 0)" stroke="rgb(204, 204, 204)" stroke-width="1px"></line><line x1="517.0833333333334" y1="0" x2="517.0833333333334" y2="5" style="visibility: inherit;" fill="rgb(0, 0, 0)" stroke="rgb(204, 204, 204)" stroke-width="1px"></line><line x1="620.5" y1="0" x2="620.5" y2="5" style="visibility: inherit;" fill="rgb(0, 0, 0)" stroke="rgb(204, 204, 204)" stroke-width="1px"></line><line x1="723.9166666666667" y1="0" x2="723.9166666666667" y2="5" style="visibility: inherit;" fill="rgb(0, 0, 0)" stroke="rgb(204, 204, 204)" stroke-width="1px"></line><line x1="827.3333333333333" y1="0" x2="827.3333333333333" y2="5" style="visibility: inherit;" fill="rgb(0, 0, 0)" stroke="rgb(204, 204, 204)" stroke-width="1px"></line><line x1="930.75" y1="0" x2="930.75" y2="5" style="visibility: inherit;" fill="rgb(0, 0, 0)" stroke="rgb(204, 204, 204)" stroke-width="1px"></line><line x1="1034.1666666666667" y1="0" x2="1034.1666666666667" y2="5" style="visibility: inherit;" fill="rgb(0, 0, 0)" stroke="rgb(204, 204, 204)" stroke-width="1px"></line><line x1="1137.5833333333333" y1="0" x2="1137.5833333333333" y2="5" style="visibility: inherit;" fill="rgb(0, 0, 0)" stroke="rgb(204, 204, 204)" stroke-width="1px"></line><line x1="1241" y1="0" x2="1241" y2="5" style="visibility: inherit;" fill="rgb(0, 0, 0)" stroke="rgb(204, 204, 204)" stroke-width="1px"></line></g><g transform="translate(0, 8)"><text x="0" y="0" dx="0em" dy="0.95em" style="text-anchor: middle; visibility: hidden; font-family: Roboto, sans-serif; font-size: 12px; font-weight: 200;" fill="rgb(33, 33, 33)" stroke="none" stroke-width="1px">-10k</text><text x="103.41666666666666" y="0" dx="0em" dy="0.95em" style="text-anchor: middle; visibility: inherit; font-family: Roboto, sans-serif; font-size: 12px; font-weight: 200;" fill="rgb(33, 33, 33)" stroke="none" stroke-width="1px">0</text><text x="206.83333333333331" y="0" dx="0em" dy="0.95em" style="text-anchor: middle; visibility: inherit; font-family: Roboto, sans-serif; font-size: 12px; font-weight: 200;" fill="rgb(33, 33, 33)" stroke="none" stroke-width="1px">10k</text><text x="310.25" y="0" dx="0em" dy="0.95em" style="text-anchor: middle; visibility: inherit; font-family: Roboto, sans-serif; font-size: 12px; font-weight: 200;" fill="rgb(33, 33, 33)" stroke="none" stroke-width="1px">20k</text><text x="413.66666666666663" y="0" dx="0em" dy="0.95em" style="text-anchor: middle; visibility: inherit; font-family: Roboto, sans-serif; font-size: 12px; font-weight: 200;" fill="rgb(33, 33, 33)" stroke="none" stroke-width="1px">30k</text><text x="517.0833333333334" y="0" dx="0em" dy="0.95em" style="text-anchor: middle; visibility: inherit; font-family: Roboto, sans-serif; font-size: 12px; font-weight: 200;" fill="rgb(33, 33, 33)" stroke="none" stroke-width="1px">40k</text><text x="620.5" y="0" dx="0em" dy="0.95em" style="text-anchor: middle; visibility: inherit; font-family: Roboto, sans-serif; font-size: 12px; font-weight: 200;" fill="rgb(33, 33, 33)" stroke="none" stroke-width="1px">50k</text><text x="723.9166666666667" y="0" dx="0em" dy="0.95em" style="text-anchor: middle; visibility: inherit; font-family: Roboto, sans-serif; font-size: 12px; font-weight: 200;" fill="rgb(33, 33, 33)" stroke="none" stroke-width="1px">60k</text><text x="827.3333333333333" y="0" dx="0em" dy="0.95em" style="text-anchor: middle; visibility: inherit; font-family: Roboto, sans-serif; font-size: 12px; font-weight: 200;" fill="rgb(33, 33, 33)" stroke="none" stroke-width="1px">70k</text><text x="930.75" y="0" dx="0em" dy="0.95em" style="text-anchor: middle; visibility: inherit; font-family: Roboto, sans-serif; font-size: 12px; font-weight: 200;" fill="rgb(33, 33, 33)" stroke="none" stroke-width="1px">80k</text><text x="1034.1666666666667" y="0" dx="0em" dy="0.95em" style="text-anchor: middle; visibility: inherit; font-family: Roboto, sans-serif; font-size: 12px; font-weight: 200;" fill="rgb(33, 33, 33)" stroke="none" stroke-width="1px">90k</text><text x="1137.5833333333333" y="0" dx="0em" dy="0.95em" style="text-anchor: middle; visibility: inherit; font-family: Roboto, sans-serif; font-size: 12px; font-weight: 200;" fill="rgb(33, 33, 33)" stroke="none" stroke-width="1px">100k</text><text x="1241" y="0" dx="0em" dy="0.95em" style="text-anchor: middle; visibility: hidden; font-family: Roboto, sans-serif; font-size: 12px; font-weight: 200;" fill="rgb(33, 33, 33)" stroke="none" stroke-width="1px">110k</text></g><line x1="0" y1="0" x2="1241" y2="0" fill="rgb(0, 0, 0)" stroke="rgb(204, 204, 204)" stroke-width="1px"></line></g></g></g></g></svg>