<svg viewBox="0 0 1281 400" xmlns="http://www.w3.org/2000/svg"><g><g><g><g><g><line x1="40" y1="377" x2="35" y2="377" style="visibility: inherit;" fill="rgb(0, 0, 0)" stroke="rgb(204, 204, 204)" stroke-width="1px"></line><line x1="40" y1="348" x2="35" y2="348" style="visibility: inherit;" fill="rgb(0, 0, 0)" stroke="rgb(204, 204, 204)" stroke-width="1px"></line><line x1="40" y1="319" x2="35" y2="319" style="visibility: inherit;" fill="rgb(0, 0, 0)" stroke="rgb(204, 204, 204)" stroke-width="1px"></line><line x1="40" y1="290" x2="35" y2="290" style="visibility: inherit;" fill="rgb(0, 0, 0)" stroke="rgb(204, 204, 204)" stroke-width="1px"></line><line x1="40" y1="261" x2="35" y2="261" style="visibility: inherit;" fill="rgb(0, 0, 0)" stroke="rgb(204, 204, 204)" stroke-width="1px"></line><line x1="40" y1="232" x2="35" y2="232" style="visibility: inherit;" fill="rgb(0, 0, 0)" stroke="rgb(204, 204, 204)" stroke-width="1px"></line><line x1="40" y1="203" x2="35" y2="203" style="visibility: inherit;" fill="rgb(0, 0, 0)" stroke="rgb(204, 204, 204)" stroke-width="1px"></line><line x1="40" y1="174" x2="35" y2="174" style="visibility: inherit;" fill="rgb(0, 0, 0)" stroke="rgb(204, 204, 204)" stroke-width="1px"></line><line x1="40" y1="145" x2="35" y2="145" style="visibility: inherit;" fill="rgb(0, 0, 0)" stroke="rgb(204, 204, 204)" stroke-width="1px"></line><line x1="40" y1="116" x2="35" y2="116" style="visibility: inherit;" fill="rgb(0, 0, 0)" stroke="rgb(204, 204, 204)" stroke-width="1px"></line><line x1="40" y1="86.99999999999999" x2="35" y2="86.99999999999999" style="visibility: inherit;" fill="rgb(0, 0, 0)" stroke="rgb(204, 204, 204)" stroke-width="1px"></line><line x1="40" y1="58" x2="35" y2="58" style="visibility: inherit;" fill="rgb(0, 0, 0)" stroke="rgb(204, 204, 204)" stroke-width="1px"></line><line x1="40" y1="28.999999999999982" x2="35" y2="28.999999999999982" style="visibility: inherit;" fill="rgb(0, 0, 0)" stroke="rgb(204, 204, 204)" stroke-width="1px"></line><line x1="40" y1="0" x2="35" y2="0" style="visibility: inherit;" fill="rgb(0, 0, 0)" stroke="rgb(204, 204, 204)" stroke-width="1px"></line></g><g transform="translate(30, 0)"><text x="0" y="377" dx="0em" dy="0.3em" style="text-anchor: end; visibility: hidden; font-family: Roboto, sans-serif; font-size: 12px; font-weight: 200;" fill="rgb(33, 33, 33)" stroke="none" stroke-width="1px">-11</text><text x="0" y="348" dx="0em" dy="0.3em" style="text-anchor: end; visibility: inherit; font-family: Roboto, sans-serif; font-size: 12px; font-weight: 200;" fill="rgb(33, 33, 33)" stroke="none" stroke-width="1px">-10</text><text x="0" y="319" dx="0em" dy="0.3em" style="text-anchor: end; visibility: inherit; font-family: Roboto, sans-serif; font-size: 12px; font-weight: 200;" fill="rgb(33, 33, 33)" stroke="none" stroke-width="1px">-9</text><text x="0" y="290" dx="0em" dy="0.3em" style="text-anchor: end; visibility: inherit; font-family: Roboto, sans-serif; font-size: 12px; font-weight: 200;" fill="rgb(33, 33, 33)" stroke="none" stroke-width="1px">-8</text><text x="0" y="261" dx="0em" dy="0.3em" style="text-anchor: end; visibility: inherit; font-family: Roboto, sans-serif; font-size: 12px; font-weight: 200;" fill="rgb(33, 33, 33)" stroke="none" stroke-width="1px">-7</text><text x="0" y="232" dx="0em" dy="0.3em" style="text-anchor: end; visibility: inherit; font-family: Roboto, sans-serif; font-size: 12px; font-weight: 200;" fill="rgb(33, 33, 33)" stroke="none" stroke-width="1px">-6</text><text x="0" y="203" dx="0em" dy="0.3em" style="text-anchor: end; visibility: inherit; font-family: Roboto, sans-serif; font-size: 12px; font-weight: 200;" fill="rgb(33, 33, 33)" stroke="none" stroke-width="1px">-5</text><text x="0" y="174" dx="0em" dy="0.3em" style="text-anchor: end; visibility: inherit; font-family: Roboto, sans-serif; font-size: 12px; font-weight: 200;" fill="rgb(33, 33, 33)" stroke="none" stroke-width="1px">-4</text><text x="0" y="145" dx="0em" dy="0.3em" style="text-anchor: end; visibility: inherit; font-family: Roboto, sans-serif; font-size: 12px; font-weight: 200;" fill="rgb(33, 33, 33)" stroke="none" stroke-width="1px">-3</text><text x="0" y="116" dx="0em" dy="0.3em" style="text-anchor: end; visibility: inherit; font-family: Roboto, sans-serif; font-size: 12px; font-weight: 200;" fill="rgb(33, 33, 33)" stroke="none" stroke-width="1px">-2</text><text x="0" y="86.99999999999999" dx="0em" dy="0.3em" style="text-anchor: end; visibility: inherit; font-family: Roboto, sans-serif; font-size: 12px; font-weight: 200;" fill="rgb(33, 33, 33)" stroke="none" stroke-width="1px">-1</text><text x="0" y="58" dx="0em" dy="0.3em" style="text-anchor: end; visibility: inherit; font-family: Roboto, sans-serif; font-size: 12px; font-weight: 200;" fill="rgb(33, 33, 33)" stroke="none" stroke-width="1px">0</text><text x="0" y="28.999999999999982" dx="0em" dy="0.3em" style="text-anchor: end; visibility: inherit; font-family: Roboto, sans-serif; font-size: 12px; font-weight: 200;" fill="rgb(33, 33, 33)" stroke="none" stroke-width="1px">1</text><text x="0" y="0" dx="0em" dy="0.3em" style="text-anchor: end; visibility: hidden; font-family: Roboto, sans-serif; font-size: 12px; font-weight: 200;" fill="rgb(33, 33, 33)" stroke="none" stroke-width="1px">2</text></g><line x1="40" y1="0" x2="40" y2="377" fill="rgb(0, 0, 0)" stroke="rgb(204, 204, 204)" stroke-width="1px"></line></g></g><g transform="translate(40, 0)" clip-path="url(#clip_0)"><clipPath id="clip_0"><rect width="1241" height="377"></rect></clipPath><g><g><g><line x1="0" y1="0" x2="0" y2="377" fill="rgb(0, 0, 0)" stroke="rgb(66, 66, 66)" stroke-width="1px" opacity="0.25"></line><line x1="103.41666666666666" y1="0" x2="103.41666666666666" y2="377" fill="rgb(0, 0, 0)" stroke="rgb(66, 66, 66)" stroke-width="1px" opacity="0.25"></line><line x1="206.83333333333331" y1="0" x2="206.83333333333331" y2="377" fill="rgb(0, 0, 0)" stroke="rgb(66, 66, 66)" stroke-width="1px" opacity="0.25"></line><line x1="310.25" y1="0" x2="310.25" y2="377" fill="rgb(0, 0, 0)" stroke="rgb(66, 66, 66)" stroke-width="1px" opacity="0.25"></line><line x1="413.66666666666663" y1="0" x2="413.66666666666663" y2="377" fill="rgb(0, 0, 0)" stroke="rgb(66, 66, 66)" stroke-width="1px" opacity="0.25"></line><line x1="517.0833333333334" y1="0" x2="517.0833333333334" y2="377" fill="rgb(0, 0, 0)" stroke="rgb(66, 66, 66)" stroke-width="1px" opacity="0.25"></line><line x1="620.5" y1="0" x2="620.5" y2="377" fill="rgb(0, 0, 0)" stroke="rgb(66, 66, 66)" stroke-width="1px" opacity="0.25"></line><line x1="723.9166666666667" y1="0" x2="723.9166666666667" y2="377" fill="rgb(0, 0, 0)" stroke="rgb(66, 66, 66)" stroke-width="1px" opacity="0.25"></line><line x1="827.3333333333333" y1="0" x2="827.3333333333333" y2="377" fill="rgb(0, 0, 0)" stroke="rgb(66, 66, 66)" stroke-width="1px" opacity="0.25"></line><line x1="930.75" y1="0" x2="930.75" y2="377" fill="rgb(0, 0, 0)" stroke="rgb(66, 66, 66)" stroke-width="1px" opacity="0.25"></line><line x1="1034.1666666666667" y1="0" x2="1034.1666666666667" y2="377" fill="rgb(0, 0, 0)" stroke="rgb(66, 66, 66)" stroke-width="1px" opacity="0.25"></line><line x1="1137.5833333333333" y1="0" x2="1137.5833333333333" y2="377" fill="rgb(0, 0, 0)" stroke="rgb(66, 66, 66)" stroke-width="1px" opacity="0.25"></line><line x1="1241" y1="0" x2="1241" y2="377" fill="rgb(0, 0, 0)" stroke="rgb(66, 66, 66)" stroke-width="1px" opacity="0.25"></line></g><g><line x1="0" y1="377" x2="1241" y2="377" fill="rgb(0, 0, 0)" stroke="rgb(66, 66, 66)" stroke-width="1px" opacity="0.25"></line><line x1="0" y1="348" x2="1241" y2="348" fill="rgb(0, 0, 0)" stroke="rgb(66, 66, 66)" stroke-width="1px" opacity="0.25"></line><line x1="0" y1="319" x2="1241" y2="319" fill="rgb(0, 0, 0)" stroke="rgb(66, 66, 66)" stroke-width="1px" opacity="0.25"></line><line x1="0" y1="290" x2="1241" y2="290" fill="rgb(0, 0, 0)" stroke="rgb(66, 66, 66)" stroke-width="1px" opacity="0.25"></line><line x1="0" y1="261" x2="1241" y2="261" fill="rgb(0, 0, 0)" stroke="rgb(66, 66, 66)" stroke-width="1px" opacity="0.25"></line><line x1="0" y1="232" x2="1241" y2="232" fill="rgb(0, 0, 0)" stroke="rgb(66, 66, 66)" stroke-width="1px" opacity="0.25"></line><line x1="0" y1="203" x2="1241" y2="203" fill="rgb(0, 0, 0)" stroke="rgb(66, 66, 66)" stroke-width="1px" opacity="0.25"></line><line x1="0" y1="174" x2="1241" y2="174" fill="rgb(0, 0, 0)" stroke="rgb(66, 66, 66)" stroke-width="1px" opacity="0.25"></line><line x1="0" y1="145" x2="1241" y2="145" fill="rgb(0, 0, 0)" stroke="rgb(66, 66, 66)" stroke-width="1px" opacity="0.25"></line><line x1="0" y1="116" x2="1241" y2="116" fill="rgb(0, 0, 0)" stroke="rgb(66, 66, 66)" stroke-width="1px" opacity="0.25"></line><line x1="0" y1="86.99999999999999" x2="1241" y2="86.99999999999999" fill="rgb(0, 0, 0)" stroke="rgb(66, 66, 66)" stroke-width="1px" opacity="0.25"></line><line x1="0" y1="58" x2="1241" y2="58" fill="rgb(0, 0, 0)" stroke="rgb(66, 66, 66)" stroke-width="1px" opacity="0.25"></line><line x1="0" y1="28.999999999999982" x2="1241" y2="28.999999999999982" fill="rgb(0, 0, 0)" stroke="rgb(66, 66, 66)" stroke-width="1px" opacity="0.25"></line><line x1="0" y1="0" x2="1241" y2="0" fill="rgb(0, 0, 0)" stroke="rgb(66, 66, 66)" stroke-width="1px" opacity="0.25"></line></g></g></g><g><g><line x1="0" y1="58" x2="1241" y2="58" fill="rgb(0, 0, 0)" stroke="rgb(153, 153, 153)" stroke-width="1.5px"></line></g></g><g><g><line x1="103.41666666666666" y1="0" x2="103.41666666666666" y2="377" fill="rgb(0, 0, 0)" stroke="rgb(153, 153, 153)" stroke-width="1.5px"></line></g></g><g><g><g><g><g><path stroke="rgb(255, 112, 67)" stroke-width="2px" d="M104.39912500000001,51.418307691812515L105.64012500000001,58.8632222339511L105.79525000000001,65.73650378110457L107.13966666666667,64.23624294240247L108.32895833333333,75.00052745620633L111.48316666666666,79.42193228101995L111.63829166666667,79.41817240514452L112.10366666666667,73.22171420011188L115.30958333333332,68.49261286732693L115.568125,73.12452152721221L116.654,72.90110049918891L117.2745,69.05326232555996L117.58475,135.22203421877168L119.39454166666667,109.33107045361146L119.49795833333333,91.69574447207235L119.911625,81.78140849196666L121.41116666666666,79.20082460838145L122.44533333333334,77.58390555633132L125.23758333333333,81.89554253381458L127.25420833333334,82.03682545300516L127.97812499999999,82.13899032762514L131.18404166666667,86.20526969334492L132.58016666666666,87.62667235842257L133.4075,92.74655594382847L133.76945833333332,95.70192413096954L133.82116666666667,97.84704076333857L135.52754166666668,96.94709077209671L136.25145833333332,102.75156944247345L136.92366666666666,108.19044056812278L137.64758333333333,111.76994559790715L138.16466666666668,107.5814184690381L140.388125,118.4977252793773L140.80179166666667,127.38225041808235L143.02525,136.1135074910615L143.23208333333332,139.55789594712837L143.3355,145.59919085095694L144.05941666666666,151.88722212624035L144.16283333333334,154.82933197822766L144.52479166666666,158.4222896322583L144.93845833333333,163.28102509581694L145.24870833333333,162.88740015238932L146.69654166666666,158.43593749911193L152.33275,204.16584851578395L153.67716666666666,230.2132401167905L153.728875,247.4361805754656L154.039125,260.34201554365507L154.349375,272.1578336476191L155.28012499999997,263.7257964560823L155.43525,257.61444687533714L155.900625,271.4453809243863L158.43433333333334,276.2399996270427L158.58945833333334,290.9352797597889L159.98558333333335,289.4934312301994L160.29583333333335,291.8676625131465L160.554375,307.6260517620483L163.24320833333334,317.99751292368796L163.50175000000002,320.84756209076124L163.55345833333334,331.4507117844875L164.48420833333333,330.26846860511625L165.15641666666667,329.6527235428305L167.79354166666667,304.7857636880754L168.67258333333334,311.883801047318L171.51654166666665,316.8358184244114L171.67166666666668,321.4122816888021L172.39558333333332,327.5054657082276L172.60241666666667,258.35432751301016L175.08441666666667,266.5727956731503L175.446375,267.55853069063335L176.58395833333336,193.09590196750347L177.20445833333335,231.37439775551428L177.72154166666667,253.32328043034718L179.27279166666665,251.9319149592581L179.84158333333332,246.65400371188298L180.5655,226.01457000514495L182.22016666666667,242.39590650046247L183.71970833333333,192.21353476789218L184.54704166666667,190.17260023085254L185.37437500000001,213.5310276754378L185.5812083333333,148.7008650605487L186.46025,109.12106538442418L188.27004166666666,151.47320323364522L190.44179166666666,178.61528294787757L190.90716666666665,122.74296179715364L191.83791666666664,88.01372048439724L192.30329166666667,66.93483975638236L193.02720833333333,54.624872893746385L193.130625,47.84993947187405L193.28575,43.27709858798592L195.56091666666666,80.60990663280252L197.8877916666667,65.59957044071055L198.81854166666668,53.7290270134574L199.28391666666667,47.35962024955544L199.956125,42.898983237913804L200.11125,40.2709412323067L200.52491666666666,38.779636320270846L202.59325,37.39438925790654L203.47229166666668,36.808383885668924L203.989375,38.369120135097L204.14450000000002,36.94821391951341L206.93675000000002,36.54281446010648L207.55725,36.297626380150206L208.74654166666664,36.397948434367585L210.814875,35.96537652636457L210.86658333333332,36.956607312112396L211.28025000000002,36.063847643226L211.48708333333332,36.31345616703602L211.84904166666666,36.436928885730374L214.58958333333334,36.73229399773616L214.95154166666666,36.165983864385694L216.5545,36.072531955670605L216.76133333333334,37.97129872872309L217.17499999999998,38.019797393285515L217.58866666666668,37.727806752087666L217.79549999999998,38.00696186134935L218.82966666666667,37.673788999973034L219.08820833333334,37.72636197534699L219.13991666666666,37.5052866371125L220.17408333333333,36.87492300460638L220.432625,36.74432710045514L222.24241666666668,36.91608922024928L222.7595,37.52699344361046L223.38,83.69043293597831L224.72441666666668,65.57770985962466L225.18979166666668,53.47323338151884L226.99958333333333,46.455172490840646L227.05129166666666,41.99971096024838L227.15470833333333,40.318897821342524L229.429875,38.59779385199285L229.84354166666668,36.34444787186464L230.30891666666665,36.20904108334824L230.41233333333335,37.10033769875315L230.67087500000002,36.38681008499593L231.96358333333333,37.20948542405203L232.01529166666668,37.447821314627156L232.53237500000003,36.5953002545203L232.63579166666668,37.07932749825511L232.89433333333335,37.62493641041395L233.61825,37.44445480622454L233.9285,37.336165843710944L234.39387499999998,36.52830697197056L235.1695,36.78647714315852L235.47975,36.9413799372852L238.22029166666667,36.53662807509542L242.30525,36.04858431080124L243.23600000000002,35.75575805222476L245.14920833333335,36.830796125623486L245.873125,36.96797132676419L247.68291666666667,37.30292391887648L251.97470833333335,37.759093571372894L253.21570833333334,38.03284445325617L256.887,36.94631413769773L257.3006666666667,37.28985562415151L259.1621666666667,37.49614922101038L260.55829166666666,36.869269084302964L260.71341666666666,37.230706066708784L263.7125,36.46503110576928L266.91841666666664,37.001161860521215L267.74575,36.327304582056705L268.6765,35.92299021497809L268.7282083333333,36.931138880344896L270.48629166666666,36.45013976531783L271.003375,36.68721258901095L271.1585,36.1389350191506L271.21020833333336,37.029016190514085L271.313625,37.08366754874295L271.36533333333335,36.867236156610865L274.36441666666667,37.24247590264574L276.43275,36.47209300733144L278.03570833333333,36.748190964082085L279.4318333333333,36.175522044193286L279.690375,36.07707600289078L280.82795833333336,36.5157330303996L281.81041666666664,36.52881035027563L282.5860416666667,37.29462750445402L283.413375,36.65307438189146L284.91291666666666,36.61036817916843L285.06804166666666,37.35303595476513L289.618375,36.783568446714675L290.549125,36.441892090367666L290.65254166666665,37.24248138840641L290.75595833333335,37.21498801574496L291.06620833333335,37.198499597700774L292.5140416666666,37.69643690442583L293.2379583333333,37.48735648545945L296.133625,36.864166987856144L296.34045833333334,36.987996609759335L296.90925,37.31489483818528L299.59808333333336,36.51554436865517L300.6839583333333,36.78189222444934L300.9425,37.14399550217294L301.0459166666667,36.89963430081548L301.563,37.01439207741467L303.269375,36.589421665363595L303.889875,36.3161404584009L306.57870833333334,36.66402266348352L308.0265416666667,37.208783280402116L309.474375,36.68820961210112L311.4392916666667,37.22238969739068L312.00808333333333,36.46004128417843L312.16320833333333,36.729993414649236L315.11058333333335,36.16460351453354L315.369125,36.0650004881986L315.93791666666664,36.36287734141158L319.712625,36.19016330975418L320.333125,36.08595064603169L320.43654166666664,36.8272304017715L320.69508333333334,36.2229457068069L320.7467916666667,37.40140367553374L322.03950000000003,38.36674643162336L322.2980416666667,37.87330158116486L322.4531666666667,37.29138412214555L322.8668333333333,36.50143793903133L323.901,36.80072607804742L324.056125,36.45051137333751L324.8834583333333,36.78280503586318L326.02104166666663,37.98257345578306L326.69325,38.53606027735013L326.7966666666666,37.800063814954385L329.38208333333336,36.80664575471664L330.62308333333334,36.21059491857402L330.98504166666663,36.135879913714575L331.2952916666667,37.91134936794463L332.69141666666667,37.34272047987475L335.74220833333334,37.24535020059882L336.62125,38.23700733105263L337.707125,37.300736970424204L340.189125,36.75317639512986L340.34425,37.09376620294558L342.77454166666666,36.82500631238163L344.222375,36.467952338606985L344.63604166666664,37.459373597950204L344.842875,36.85070295611057L345.2565416666667,37.595665809387164L347.16975,37.91625928692468L347.4282916666666,37.69435613043575L349.08295833333335,37.54734032563845L349.496625,36.895637519434L351.047875,36.50699706511196L351.66837499999997,36.275049040535066L351.7717916666666,37.2829648910874L353.73670833333335,36.91291624658789L354.35720833333335,36.507557286938905L356.5289583333333,36.276295074296534L360.04512500000004,37.14310243634735L360.5105,36.90523061101643L360.66562500000003,37.52054050531993L364.59545833333334,36.88407809118637L364.698875,39.97188419449447L364.75058333333334,40.739857020068904L367.491125,39.31360906487031L368.93895833333335,38.96550673321081L372.3517083333333,40.19428285405156L374.36833333333334,38.73603081968494L379.02208333333334,37.86099248091624L379.8494166666666,37.83873868560936L380.5733333333333,37.322615817643104L383.72754166666664,36.765323969994085L384.865125,36.92869010762817L388.6398333333333,36.77656523702411L388.74325,36.19254660795852L390.3979166666667,36.837664247695926L391.63891666666666,37.22474036284944L392.3628333333333,36.95421613257328L394.5862916666667,36.5446471512389L396.034125,37.00004092097713L396.13754166666666,36.58034772420184L396.344375,36.5638393088833L397.12,36.06491105107398L399.2400416666666,36.01209292619191L399.3951666666667,36.746877204231964L402.13570833333335,37.40278716734201L403.73866666666663,37.78734822184531L403.79037500000004,37.574537319604715L404.6694166666667,36.7242064253474L404.8245416666667,36.39522193527134L406.582625,36.749170199965896L406.68604166666665,36.42590428348512L407.048,35.982150035835055L408.90950000000004,35.71589748724506L409.99537499999997,36.34765098490838L411.23637499999995,36.803983795634075L411.49491666666665,36.75593723535007L411.80516666666665,37.37548888730685L413.2012916666667,37.45794890527536L414.2354583333333,37.34225167158011L414.494,37.529889949099825L415.269625,36.88968291755714L415.52816666666666,36.75318235681177L417.751625,36.423661127839814L419.0443333333333,35.98080414244788L419.14775,36.71062360828672L419.9750833333333,36.15298163071604L420.49216666666666,36.311161584707094L423.0775833333333,35.913304416568295L424.0600416666667,36.92532740129899L424.73225,37.27733272370023L425.0425,37.4885518196602L425.71470833333336,37.36262889166949L428.6620833333333,36.544184800745676L429.85137499999996,36.29825913713076L430.1099166666667,36.39832877996981L431.3509166666667,36.45836987425935L431.91970833333335,36.744523181498366L432.4885,37.16885019181985L433.1607083333333,37.1708141376902L434.4017083333333,37.17185767950592L439.31399999999996,38.1717994955896L439.3657083333333,38.70948340581168L439.57254166666667,37.352297509231065L440.6067083333333,37.53351686270109L443.3989583333333,37.64225677174971L443.9160416666667,36.711961528793836L444.89849999999996,37.40452305146208L447.69075000000004,37.82005305092425L448.156125,37.31140443683202L448.466375,37.00621734261833L448.77662499999997,36.82310301184848L448.93175,37.471189964534005L449.2937083333333,37.60491041464875L449.707375,37.18231885506669L449.8625,37.686725001776L450.483,37.98937076404318L451.879125,37.4129874591507L452.08595833333334,37.569948117999886L452.65475000000004,37.91930601660527L456.73970833333334,37.87373994388652L457.463625,37.343616572609406L457.8772916666667,36.532777409309666L458.65291666666667,36.78916078838975L462.01395833333333,37.20431829710763L463.5135,37.1020390344856L463.66862499999996,36.82111230809676L465.01304166666665,36.21927485060205L466.150625,36.34847539181421L470.9077916666667,35.93569270083255L471.32145833333334,36.465260787659524L472.51075,36.73999016514641L473.4415,36.91329069752228L476.59570833333333,36.76734702479085L478.1986666666667,36.432160620041095L480.93920833333334,36.47866897830212L481.50800000000004,36.75669434695747L482.43874999999997,36.923504036839624L482.9558333333333,37.53144371639244L483.00754166666667,37.64100735265348L483.99,37.45409737156824L485.1792916666667,37.59460162000057L486.16175,37.426253931976554L488.17837499999996,36.58235982492996L488.3335,36.818898483725995L488.6954583333333,36.71069164551056L489.21254166666665,37.14805345223398L489.36766666666665,36.66058447650701L490.1432916666667,37.11956350023527L491.8496666666666,36.64358661183703L492.832125,36.112759432846254L496.9170833333333,36.377665020021155L498.72687499999995,36.948399959202035L499.6059166666667,37.54640339505398L500.3815416666667,37.14721464330984L500.95033333333333,37.15782174596209L501.26058333333333,37.16418600755345L502.5532916666666,36.91788421080957L503.07037499999996,37.272913134136495L504.001125,37.48587310078066L504.5699166666667,37.86887276030972L504.7250416666667,37.34069487963553L505.7592083333334,36.53102439352535L506.172875,37.04076682155525L506.6899583333333,36.35106755867719L508.49975,36.18239155754519L508.75829166666665,36.32880200949352L511.91249999999997,36.16902807955176L511.9642083333333,35.828024313475034L513.618875,36.61901517249664L516.256,146.5125166627021L516.6696666666667,218.25862922979897L518.4794583333334,269.29004730411475L519.04825,300.3792365886456L519.66875,319.264799719911L520.5477916666666,330.71485059610677L523.6502916666667,337.6285231658916L526.4425416666667,280.3496757357777L526.649375,224.50204081591727L527.3732916666667,150.9574917987392L528.2523333333334,105.64856357785496L528.5625833333334,78.52156681664245L530.7343333333333,61.73293289451275L531.5616666666667,52.16186490600391L532.1304583333333,46.67445816364934L533.0095,42.13128236393366L534.0436666666667,40.40091054117816L534.3022083333333,39.6178862361678L534.405625,38.64022470167686L534.715875,38.05362778098234L535.7500416666667,37.20392769092825L535.9051666666667,37.44449981161658L536.1637083333334,37.84404463832797L536.6290833333334,37.32579800644648L541.2828333333333,37.01484449600656L541.3345416666666,36.58065979418442L541.4379583333333,37.32589412174992L542.8857916666667,36.767359402432255L543.1443333333333,36.680608264597794L543.402875,36.87569517612012L546.4019583333334,37.51676437091559L547.7463750000001,37.38536222476799L548.2117499999999,36.557824800604834L549.918125,36.549820822593105L549.9698333333333,36.44596994049343L550.4352083333333,37.228695083421414L552.400125,37.162010102726214L552.8137916666667,36.650738328252544L553.0723333333333,36.39089184376854L554.727,35.96114257200516L557.1572916666667,35.91771773829431L557.364125,35.85014620026573L558.5534166666666,36.491473571065846L559.4841666666666,36.426895222427675L559.6392916666667,38.37444062314168L560.7251666666666,37.64910642672616L561.2939583333333,37.45822391729974L562.5349583333333,37.34452410829916L562.8969166666667,37.026077391462636L563.7759583333333,56.30747959718534L563.879375,50.84981163564583L564.0345,45.217539311786034L565.120375,42.33130612453194L565.4823333333334,40.56922213125452L566.671625,39.71965725355282L567.5506666666666,37.95840181787574L568.4814166666666,36.901648556469446L568.7916666666666,36.26759659962565L569.30875,36.37992434332794L570.2912083333333,36.19970562833565L571.6873333333333,36.843405406344026L572.101,36.724310970704614L573.186875,33.045084343195484L576.8581666666666,33.9536580716613L580.5294583333333,34.7440917536642L580.8914166666667,34.973062517942545L582.2875416666667,36.363327719391314L583.3734166666667,35.94460409737881L584.7178333333334,36.71941982422628L585.1832083333334,36.40452162453147L586.8378749999999,36.502936387232644L587.92375,36.51723901282052L590.1472083333333,36.262922214569436L590.3023333333333,35.31661389297357L591.3365,35.861437595046226L591.6984583333333,35.88221523532671L593.042875,35.52563620429869L596.6624583333333,36.6924609710076L597.1278333333333,36.63487891967886L597.4897916666666,36.35268252262944L598.162,35.938216979321695L599.2995833333333,36.17520473898462L599.868375,36.50693468154076L601.2645,36.03076827466848L602.5055,35.745068430545125L602.81575,35.57364852407107L604.0050416666667,35.71595258223137L604.9357916666667,35.80175332252453L608.09,35.607659459258734L608.555375,36.24832553872206L610.8305416666667,36.06068322186913L612.278375,36.50663717463757L612.4335,36.03058977052657L614.5018333333333,36.311063355953L615.7428333333334,36.43421477481756L619.103875,36.9994796419444L623.1371250000001,37.21235527421842L623.3956666666667,35.31881998673565L623.5507916666667,35.529916684004604L624.2747083333334,36.69854302416616L624.8952083333334,37.352889366211706L626.0844999999999,36.53834108547107L626.39475,36.04961211702667L627.170375,36.580433602460865L627.9977083333333,36.17364370544472L629.2387083333333,37.17443349194356L630.11775,36.43126756091016L633.22025,35.98536800229014L633.7890416666667,35.963183396359995L634.8232083333334,37.06424927312183L635.1851666666666,37.180632684219134L635.4437083333332,38.40026257848038L641.0282083333334,38.44206131944236L641.1833333333334,37.68558705716835L642.2692083333334,37.988449459490205L642.5277500000001,36.91967714143815L644.7512083333334,37.52910955138815L645.32,36.644073196576926L645.8370833333333,36.60582482119017L646.0439166666666,37.08559591352707L647.5434583333333,37.628685705541166L648.0088333333333,37.19658610384382L649.1981249999999,37.18743355966039L649.2498333333333,36.93182444510712L649.8703333333333,36.77841196023138L651.4732916666667,36.40513325668997L651.9386666666667,40.23164865337386L652.8177083333333,39.79727199651345L653.07625,38.00497066365212L653.5416250000001,37.66759259335116L653.9552916666667,36.973320882510656L654.3689583333334,37.55647041856737L655.248,36.66048971688446L656.79925,36.12290129587468L657.3163333333333,36.29516066029915L659.2295416666666,36.21469767639189L659.6949166666666,36.85916473715991L659.746625,36.99599634557658L660.8842083333334,37.489793556628776L661.2461666666667,37.705341707288135L662.6940000000001,36.74981249011688L663.2110833333334,36.89568639181337L663.4696250000001,36.66348574389386L664.0384166666666,36.915448914941386L664.5037916666668,36.52312503515256L665.2277083333333,37.33610428725823L667.192625,37.71466434809649L667.3477499999999,36.755406074601915L669.1058333333334,36.66374541096598L669.3126666666667,37.20030544264742L670.5019583333333,38.48293477334755L670.8122083333334,36.778086602915394L670.915625,36.730096852915885L672.9839583333332,37.39972712763396L673.2942083333334,37.832880271483916L673.3976250000001,37.571226914530676L673.9664166666666,37.693759012106504L674.2249583333332,37.913715581824405L674.948875,37.56967250152234L675.41425,36.66841096665743L676.2415833333334,36.55232114187647L677.5342916666666,36.30385862941607L678.51675,35.90892264339362L678.982125,36.326533634025054L679.912875,37.01796715173618L681.3090000000001,36.337387756785716L682.4982916666667,36.17269160525858L682.6017083333334,36.8459066520742L682.6534166666667,37.06348995987246L685.7042083333334,37.7066638745288L685.8593333333333,37.253271286333785L686.3247083333333,37.91901973762824L688.289625,37.833121155969565L690.92675,36.82648015932579L693.5121666666666,36.76352899620731L693.9258333333333,36.18472486346843L695.7873333333333,35.837442383825056L696.6663749999999,35.87421437839223L697.7005416666666,36.90187337839337L699.148375,36.51287643220266L699.3035,37.02984070841217L699.6654583333334,37.08740222492067L699.768875,36.62419235729128L700.6479166666667,36.593887329238356L701.0615833333333,36.08293986328703L701.5269583333333,36.51926171784558L702.3025833333332,36.03816449645136L703.1299166666666,36.24420173169956L705.1465416666666,37.446487803469786L705.7670416666667,37.8146762485568L706.3875416666666,38.04250967712788L706.9563333333333,36.95211327202072L707.68025,37.27483494357436L707.7836666666667,36.98182665870292L709.6451666666667,36.59743110874714L711.5066666666667,36.59095638119829L712.9027916666666,37.04255011751446L713.6784166666666,36.727012461866096L715.2296666666667,36.66606053498097L716.4706666666667,36.61329093448346L717.4014166666666,36.623386424017106L719.1077916666666,37.18470230175982L720.5039166666667,36.91815716310697L721.176125,36.52489241531109L721.2795416666667,37.755230883184765L721.3312500000001,38.11583694185234L722.3654166666666,37.29067337730781L722.6239583333333,37.53938930165324L723.347875,36.90334139425487L723.8649583333333,37.01441418027238L724.1235,37.33428818521119L724.4854583333334,37.26851364694367L725.4679166666667,36.988126449121985L726.0884166666666,36.860875613888496L727.8982083333333,36.96848891222503L731.1041250000001,36.51246856477273L731.87975,37.25179013506421L732.4485416666666,37.70903366145998L732.6553749999999,36.99775200687351L733.4827083333333,37.07117393971983L735.1890833333334,36.36931182957594L735.6544583333334,36.30030606995167L737.929625,36.151787393153555L738.9637916666667,35.99017660192302L739.1189166666667,36.10551705581934L739.94625,37.932235947984424L740.7735833333334,36.88594903453466L744.444875,36.46281672659085L744.9102499999999,37.013807398930616L746.5132083333333,37.054644765171645L747.4956666666667,36.94575547082021L747.6507916666667,35.77555565180062L748.788375,35.858940697560755L752.1494166666666,36.22088442853096L752.5630833333333,35.85913812286261L753.6489583333333,36.41105319956901L754.7865416666667,37.26533566653707L756.2860833333334,36.485808865666236L758.6646666666666,36.5048177340268L760.1125000000001,37.20533106914997L763.1632916666667,37.67267388219735L763.990625,36.97567685911121L765.5935833333333,36.312013581210735L767.0931250000001,36.1605445830908L768.3858333333333,35.82293421559849L768.644375,35.86686257441831L769.3165833333334,35.646725010394974L769.9887916666667,38.35890898199079L770.2990416666667,37.7397990768623L772.4707916666666,38.05728557976909L772.5225,37.98389730020065L773.5566666666666,37.37009020545303L776.55575,37.63998026787172L777.4347916666667,37.60897802793343L778.8309166666668,36.69199428250407L778.882625,37.33715353780994L779.2962916666667,37.27615550979381L779.9167916666667,37.2350134123826L780.5372916666666,37.21048579630041L781.3129166666668,36.45289894352424L781.51975,36.49111335521982L782.3987916666666,36.76416373876361L783.3295416666667,36.28137541191354L784.2602916666666,36.136543943742375L785.0359166666667,36.80200776711673L785.553,36.207812126014005L785.7081250000001,36.59428602190818L786.328625,36.82606941301828L786.3803333333334,36.715017019743954L786.5871666666667,37.151148569008825L788.035,36.41729660714929L789.3794166666667,36.97256541183749L791.0857916666666,36.55528957802749L791.8614166666666,37.05528997873479L793.7229166666666,37.35544371304047L796.4634583333333,38.28058211622909L796.6702916666666,37.28882780443595L797.7044583333333,37.67778369647843L800.2381666666668,37.72837505854714L801.7377083333333,38.0158411152217L803.9094583333333,37.20295709890444L806.5465833333334,36.94508239342162L807.3222083333334,37.5351769489848L807.735875,37.392595241236926L808.046125,36.528014296155135L810.6315416666666,37.29629463783559L810.7866666666666,36.99724480409416L810.9417916666667,37.57486539422867L811.614,37.667211778994776L813.0101249999999,36.97207808973573L814.3028333333333,36.30985431958546L814.6647916666667,37.16309555226156L815.8023750000001,36.66960420521249L817.5604583333334,36.874635114146166L819.37025,37.133206733389414L820.5595416666666,38.36034751434549L820.7146666666666,37.142815974351315L821.386875,37.66971270262988L821.5937083333333,36.98135981571548L824.1274166666667,36.31542335517336L824.179125,37.16644803623635L825.1615833333334,37.422079777361624L825.3167083333333,36.82500165441135L825.7820833333333,37.21709509932101L825.8337916666667,37.19973549987734L826.1440416666667,37.1893473967663L827.1782083333334,36.68535946039865L827.2816250000001,37.38856042759723L831.5217083333333,36.809868224484354L831.8319583333333,36.4349507141248L835.7100833333333,36.984485390671246L838.8125833333334,37.305361630253906L839.1228333333333,37.52592973812394L840.3121249999999,40.891391735696615L842.2253333333333,39.57777332152355L842.2770416666667,38.59814700415987L842.5872916666667,38.03630753118548L843.0526666666667,36.948391984455355L843.9317083333333,36.54075440797359L844.5522083333334,36.2958330692837L844.8624583333334,36.150275539278354L845.8966250000001,34.857071656536675L846.1034583333334,35.283569227785804L847.9132500000001,35.296749002415496L850.4986666666667,36.30008957784092L851.7396666666667,36.90223842859695L852.9289583333333,37.51867328882476L854.7904583333334,37.887052505017834L856.0314583333334,38.07176697778795L856.1865833333333,37.458150175381256L859.2890833333333,37.09934114645039L860.0647083333333,37.65215847033328L860.3749583333333,37.95101431094448L861.9262083333333,38.46550867010858L862.3915833333333,37.617813498078L862.5984166666667,38.97414497750889L862.9086666666667,36.6499993098849L865.9594583333334,37.540701156441784L866.5799583333333,38.46369824742341L867.6658333333334,37.551438414663444L867.7175416666666,36.867786171204074L867.9243749999999,37.19651990065946L868.1312083333332,37.59535775738936L868.3380416666668,36.91533237789861L869.2170833333333,36.76096164044614L869.5273333333333,36.68524634156746L869.7341666666666,37.03520495482758L871.1302916666667,36.602835886409736L872.5264166666666,37.20548586412122L873.508875,37.203935601495814L875.1635416666667,36.70512384067959L875.2152500000001,36.149681770151766L875.2669583333333,38.695286919680775L876.5079583333334,38.53753264546843L879.8689999999999,37.24912705302507L880.4895,36.4760836975591L883.747125,36.46532737116912L885.9188750000001,36.7339097195917L886.1257083333334,37.54153940284573L888.400875,37.196547777678525L889.3833333333333,36.93658496810552L891.2965416666667,36.53938404246302L892.8477916666667,36.31475348188955L893.20975,35.91545955487774L893.7268333333333,36.17817533104827L894.6575833333333,36.310555053289036L895.8468750000001,36.49036304505779L896.7259166666666,37.734862425041875L897.0361666666666,37.45773020870251L897.398125,37.366186496536535L899.8284166666666,37.00591668899094L900.0869583333333,39.134206518025564L900.9142916666667,37.887538423831074L901.2245416666667,37.085704774078664L901.741625,37.13238015795761L902.672375,37.12858034983287L903.5514166666667,37.68371142038706L903.6548333333333,37.26659839802386L905.3095000000001,36.486566504558354L906.3436666666666,37.01080372376464L906.9124583333332,37.60740350749027L909.34275,36.69104957023823L909.9632499999999,36.141237207886974L910.5320416666666,36.05804902829963L913.841375,36.22870544504073L915.4443333333334,36.351905321544066L917.3575416666667,36.19434610334973L918.5985416666667,36.072234912681196L919.0639166666667,36.80625059841137L919.3741666666667,37.12447473191053L920.1497916666667,36.64630449284814L921.0288333333333,36.649955203948664L921.75275,36.116580588113194L921.907875,36.26128965764695L922.8903333333334,36.397412217554205L923.8727916666667,36.21004140192073L929.7158333333333,36.40702593215584L930.1295000000001,35.97082302503757L930.43975,35.70910128076653L931.68075,35.55206823420393L931.7324583333333,36.73122396511955L933.697375,36.92833434607455L935.0935,36.283608073388784L935.714,35.89677230977726L936.7998749999999,36.3859717873556L939.8506666666666,36.50153260396857L940.522875,36.75995419601763L941.0399583333334,37.468497098566054L941.2467916666667,36.852726209808L942.5395,36.238243191628776L943.6770833333333,36.51302462171862L947.4000833333333,36.41623688549605L948.5376666666666,36.61985679156073L948.7444999999999,36.098521540680416L948.8479166666666,36.906947559189135L948.899625,37.04239319924791L949.4167083333333,37.57495471933055L950.450875,37.422141177049674L951.7952916666666,36.810052789802164L953.5533750000001,36.93643884513072L954.0187500000001,36.288470772822436L956.9144166666666,37.659426062059296L959.7066666666666,39.82975848242748L961.0510833333333,38.024462555200536L961.309625,37.185735758752L962.3437916666667,37.68826488054416L964.9809166666666,37.23232876894844L965.18775,37.461538384187065L966.8424166666667,37.096292871134175L969.376125,36.62952536219162L970.4102916666667,37.35367990656975L972.0649583333334,37.296514446284085L972.5820416666667,39.52270918771369L972.63375,40.083768687753334L973.9264583333334,38.85247683650759L974.3918333333334,37.438093567648565L975.1157499999999,37.62498034522477L977.2875,37.692554935726776L978.5802083333334,37.47634038025927L982.4583333333333,36.612411693899574L985.9227916666667,36.94954709778355L987.5257499999999,37.18421209198314L989.2838333333334,36.437134720933884L989.3355416666666,36.62887343052174L990.473125,36.3766707914063L992.4380416666667,37.31056685072116L992.6965833333334,36.51294757617673L992.955125,36.2804833989928L993.4722083333334,36.58501152644092L994.8683333333333,36.077614381608605L994.9200416666667,37.2578235356195L995.282,37.323653882037625L996.0059166666666,37.02055443840683L996.5747083333333,37.09782217453397L997.5054583333333,37.08365298813869L997.608875,36.6258866399901L998.7981666666666,36.48535420956476L998.849875,36.23554069079314L998.9015833333333,35.86793188021995L999.0567083333333,36.540613864460084L1000.0391666666666,36.050975784420054L1001.8489583333333,36.001515093302196L1002.7280000000001,36.22022634914842L1003.4002083333334,36.103893745966744L1003.4519166666666,35.788943713324066L1003.969,36.09273883427188L1004.5377916666666,36.52514594033363L1005.054875,37.29242471000551L1005.4685416666666,37.244950551635L1005.985625,37.72431369951128L1008.5193333333333,37.756603505198726L1008.9329999999999,37.27335960029635L1009.1398333333334,37.48599094366479L1010.5876666666667,36.61820203194291L1011.3115833333333,37.09169334250254L1011.6218333333334,37.38022977159951L1012.34575,37.05009497431837L1012.4491666666667,36.35666445033502L1012.811125,37.3981480785415L1013.1730833333334,37.13159764934812L1013.2247916666666,37.09799838739177L1013.431625,39.48913228915655L1014.7243333333333,38.58918729070736L1015.2414166666667,37.28011984016841L1015.44825,36.98240202895612L1016.2755833333333,37.291437305401615L1016.9995,36.99221052967959L1018.861,36.781273902913604L1018.9127083333333,36.44666479913039L1019.2746666666667,35.99460634522225L1019.8434583333334,35.999766736820845L1022.3771666666667,35.72646750783651L1022.4288750000001,36.95877686605291L1022.6874166666666,36.3018735853758L1024.0835416666666,36.43014735030692L1025.0142916666666,36.81029866962172L1026.0484583333334,36.457616322210676L1031.7880833333334,37.34230031548215L1032.2534583333334,36.783479082454875L1033.0807916666665,37.14953722230771L1033.2359166666668,36.41632979912865L1033.7012916666667,36.77553874136986L1035.149125,37.504696809542125L1036.9072083333333,36.881680299813695L1036.9589166666667,36.25561564563224L1037.4242916666667,36.37489298223557L1037.5794166666667,35.951543255085355L1039.5960416666667,36.4187997838465L1040.3716666666667,35.977887336051914L1040.88875,36.13019951798702L1041.664375,37.96590443025937L1041.7677916666667,37.853255770033115L1042.1814583333335,37.06809028472036L1043.0087916666666,37.11380281737765L1044.0429583333332,36.63977204973291L1045.2839583333334,36.34660236367458L1046.4215416666666,36.828793122344436L1047.869375,37.59331702826813L1048.489875,38.098699043025945L1050.661625,37.69522237171555L1050.81675,37.17380377882614L1052.9367916666667,37.16594012519058L1053.3504583333333,36.67015697920521L1057.5388333333333,36.96949757554651L1057.5905416666667,37.02531879793719L1062.0891666666666,45.88127056599327L1062.5028333333332,41.86435587311189L1064.778,39.24522098961111L1064.8297083333334,38.924534732476715L1067.4668333333334,37.97409206293573L1067.9322083333334,38.16179998911945L1070.5693333333334,37.516452599749194L1071.0864166666665,37.63200784277033L1071.448375,37.44870734543272L1071.7069166666668,37.59136069018047L1072.9479166666667,37.67694025157931L1074.8611250000001,37.47563429426577L1075.7401666666667,37.607538293310554L1077.9119166666667,37.69290272623813L1080.3939166666667,37.73264875549385L1082.46225,36.76619671904033L1083.7549583333334,37.37428516818873L1084.7374166666666,37.85845967932811L1084.9959583333334,37.194264941240995L1085.2545,36.44316643048858L1086.18525,35.99250732403718L1086.4437916666666,35.954953781019015L1086.7023333333334,36.186592311412255L1087.3228333333334,36.31841099903L1088.4087083333334,37.00173433211455L1090.839,36.32764806501276L1091.924875,36.66312531323553L1093.8380833333333,36.12448265368533L1094.6654166666667,36.294187344400854L1096.4234999999999,36.71079015570208L1096.9922916666667,36.919904493315975L1097.6644999999999,36.77083062113759L1099.5777083333332,36.434248012193684L1099.9396666666667,35.987156273060215L1100.1464999999998,36.21166637011357L1101.4392083333335,36.09875084440705L1102.783625,37.036470803503924L1106.972,36.841254396965944L1107.127125,37.48209185822659L1107.3856666666666,36.615862580679945L1109.9710833333334,37.092658455695585L1111.00525,36.87327717275969L1111.780875,37.836229172537045L1111.936,37.35576999615987L1112.0394166666667,36.540069463439906L1113.0735833333333,37.5716760173965L1113.3838333333333,37.691087890596904L1114.573125,37.998287277777L1115.8658333333333,37.90848758063261L1115.96925,37.36304360772098L1116.6414583333333,36.78974727478576L1117.7273333333333,36.978166459125L1118.7097916666667,37.31688439734086L1119.0200416666667,37.0427747719723L1119.7439583333335,36.592162522866616L1120.31275,36.588414045092065L1120.778125,37.41987527127065L1120.9849583333335,36.82481909224389L1123.1567083333332,36.472061779671904L1123.5186666666666,36.009844533547145L1123.7255,36.11931945797467L1123.9840416666666,36.71277445505059L1124.03575,36.72067631453277L1126.1040833333334,37.236834151566015L1127.0865416666666,37.16945454062224L1128.4826666666665,36.428280190117356L1129.6719583333334,36.228055379085085L1131.1715,36.33711589651839L1133.2915416666667,36.75011144445861L1133.8086250000001,37.37713960627628L1134.4291249999999,37.73760402095265L1135.3081666666667,36.76916987831561L1136.1354999999999,36.719308847994604L1136.5491666666667,36.15819277454076L1137.0145416666667,36.35311461739932L1137.3765,36.511145313103185L1139.4448333333335,37.12323327035854L1139.8067916666666,37.12357828123061L1140.1170416666666,37.171295792476464L1140.3755833333335,37.14811589158543L1140.6858333333334,37.872958098870285L1140.8409583333332,37.09034373463499L1144.7707916666668,37.15243228734321L1144.8225,36.93406002796164L1144.9259166666666,36.28704348252102L1145.287875,37.90357772735287L1145.908375,39.41267318861204L1147.0976666666668,37.77421137891124L1147.2527916666668,37.53751765013881L1148.85575,37.15686613512724L1149.9933333333333,38.19100803251678L1150.251875,37.047531808111756L1150.4070000000002,36.742269924100476L1150.6655416666665,37.10372567821514L1152.7855833333333,37.44088855176552L1153.5612083333333,36.835249798234585L1154.3368333333333,36.68207365079895L1154.8022083333333,36.08801964404688L1154.905625,36.3424991099984L1155.68125,35.93210693174308" style="fill: none;" fill="none"></path></g></g></g></g><g opacity="0.2"><g><g><g><path stroke="rgb(255, 112, 67)" stroke-width="2px" d="M104.39912500000001,51.418307691812515L105.64012500000001,63.33017095923422L105.79525000000001,72.3348540663719L107.13966666666667,62.4719361960888L108.32895833333333,89.0543773174286L111.48316666666666,85.53832685947418L111.63829166666667,79.41279572248457L112.10366666666667,64.18721865117548L115.30958333333332,61.51810698211193L115.568125,80.00236606597899L116.654,72.56799536943437L117.2745,63.30244483053686L117.58475,234.25913953781128L119.39454166666667,70.54534789919855L119.49795833333333,65.26348516345023L119.911625,66.916896879673L121.41116666666666,75.33104079961775L122.44533333333334,75.15893751382829L125.23758333333333,88.3623411655426L127.25420833333334,82.24873691797256L127.97812499999999,82.29223203659059L131.18404166666667,92.30455493927002L132.58016666666666,89.75874829292299L133.4075,100.42632067203522L133.76945833333332,100.13495540618896L133.82116666666667,101.06470656394957L135.52754166666668,95.59716808795928L136.25145833333332,111.45827853679656L136.92366666666666,116.34874224662781L137.64758333333333,117.13920116424562L138.16466666666668,101.29862916469573L140.388125,134.8721833229065L140.80179166666667,140.70903706550598L143.02525,149.21039247512817L143.23208333333332,144.72447848320007L143.3355,154.66113305091858L144.05941666666666,161.31926894187927L144.16283333333334,159.2424967288971L144.52479166666666,163.81172609329226L144.93845833333333,170.5691282749176L145.24870833333333,162.29696273803708L146.69654166666666,151.7587435245514L152.33275,272.760715007782L153.67716666666666,269.28432750701904L153.728875,273.2705912590027L154.039125,279.700767993927L154.349375,289.8815608024597L155.28012499999997,251.0777406692505L155.43525,248.44742250442505L155.900625,292.19178199768066L158.43433333333334,283.43192768096924L158.58945833333334,312.97819995880127L159.98558333333335,287.33065843582153L160.29583333333335,295.42900943756104L160.554375,331.263635635376L163.24320833333334,333.5547046661377L163.50175000000002,325.12263584136963L163.55345833333334,347.35543632507324L164.48420833333333,328.49510383605957L165.15641666666667,328.72910594940186L167.79354166666667,267.4853239059448L168.67258333333334,322.53085708618164L171.51654166666665,324.26384449005127L171.67166666666668,328.2769765853882L172.39558333333332,336.6452417373657L172.60241666666667,154.62762022018435L175.08441666666667,278.9004979133606L175.446375,269.0371332168579L176.58395833333336,81.4019588828087L177.20445833333335,288.7921414375305L177.72154166666667,286.24660444259644L179.27279166666665,249.84486675262448L179.84158333333332,238.7371368408203L180.5655,195.05541944503784L182.22016666666667,266.9679112434387L183.71970833333333,116.93997716903685L184.54704166666667,187.11119842529297L185.37437500000001,248.56866884231567L185.5812083333333,51.45562113821508L186.46025,49.751365870237365L188.27004166666666,215.00141000747678L190.44179166666666,219.32840251922607L190.90716666666665,38.93448007106782L191.83791666666664,35.919858515262625L192.30329166666667,35.316518664360046L193.02720833333333,36.159922599792466L193.130625,37.68753933906553L193.28575,36.41783726215365L195.56091666666666,136.60911870002744L197.8877916666667,43.084066152572646L198.81854166666668,35.92321187257767L199.28391666666667,37.805510103702545L199.956125,36.208027720451355L200.11125,36.328878223896005L200.52491666666666,36.542678952217116L202.59325,35.316518664360046L203.47229166666668,35.92937582731248L203.989375,40.710224509239204L204.14450000000002,34.816854596138L206.93675000000002,35.93471527099607L207.55725,35.929844260215766L208.74654166666664,36.54843151569368L210.814875,35.316518664360046L210.86658333333332,38.44345349073409L211.28025000000002,34.7247081398964L211.48708333333332,36.68786895275116L211.84904166666666,36.62213796377181L214.58958333333334,37.17534166574479L214.95154166666666,35.316518664360046L216.5545,35.93235409259796L216.76133333333334,40.81944888830185L217.17499999999998,38.092545390129104L217.58866666666668,37.28982079029083L217.79549999999998,38.42569452524184L218.82966666666667,37.17402970790865L219.08820833333334,37.8052214384079L219.13991666666666,37.17367362976072L220.17408333333333,35.92937755584716L220.432625,36.548433244228356L222.24241666666668,37.173732399940484L222.7595,38.44334977865217L223.38,152.93559217453003L224.72441666666668,38.40862524509431L225.18979166666668,35.316518664360046L226.99958333333333,35.9280811548233L227.05129166666666,35.316518664360046L227.15470833333333,37.79767811298371L229.429875,36.016137897968285L229.84354166666668,32.964428901672356L230.30891666666665,36.00593090057374L230.41233333333335,38.43728262186048L230.67087500000002,35.316518664360046L231.96358333333333,38.443498432636254L232.01529166666668,37.80532515048982L232.53237500000003,35.316518664360046L232.63579166666668,37.80536836385726L232.89433333333335,38.44334977865217L233.61825,37.173732399940484L233.9285,37.173732399940484L234.39387499999998,35.316518664360046L235.1695,37.173732399940484L235.47975,37.1737341284752L238.22029166666667,35.92950028181076L242.30525,35.316518664360046L243.23600000000002,35.316518664360046L245.14920833333335,38.443353235721574L245.873125,37.1737341284752L247.68291666666667,37.80535280704498L251.97470833333335,38.44334805011749L253.21570833333334,38.44347077608109L256.887,35.316518664360046L257.3006666666667,37.80516785383226L259.1621666666667,37.80558961629867L260.55829166666666,35.92894887924195L260.71341666666666,37.772861540317514L263.7125,35.316518664360046L266.91841666666664,37.805357992649064L267.74575,35.316518664360046L268.6765,35.316518664360046L268.7282083333333,38.443361878395095L270.48629166666666,35.72864109277724L271.003375,37.04282182455065L271.1585,35.316518664360046L271.21020833333336,38.36413794755936L271.313625,37.16564458608629L271.36533333333335,36.542589068412795L274.36441666666667,37.805335521697984L276.43275,35.316518664360046L278.03570833333333,37.16233789920808L279.4318333333333,35.316518664360046L279.690375,35.92940694093704L280.82795833333336,37.17371857166288L281.81041666666664,36.548426330089555L282.5860416666667,38.443353235721574L283.413375,35.69074469804766L284.91291666666666,36.54630887508392L285.06804166666666,38.467037618160234L289.618375,35.929367184638956L290.549125,35.92937755584716L290.65254166666665,38.44336533546449L290.75595833333335,37.17374795675276L291.06620833333335,37.173766970634446L292.5140416666666,38.44334286451341L293.2379583333333,37.17373585700989L296.133625,35.92938274145128L296.34045833333334,37.17374104261396L296.90925,37.80524218082426L299.59808333333336,35.316518664360046L300.6839583333333,37.18141400814056L300.9425,37.68715041875841L301.0459166666667,36.5330924987793L301.563,37.186528742313385L303.269375,35.951966047287L303.889875,35.90621864795687L306.57870833333334,37.1858459711075L308.0265416666667,38.02592420578003L309.474375,35.907349109649644L311.4392916666667,38.02365982532499L312.00808333333333,35.316518664360046L312.16320833333333,37.13492161035537L315.11058333333335,35.316518664360046L315.369125,35.91559594869612L315.93791666666664,36.809692621231065L319.712625,35.931092262268066L320.333125,35.929631650447845L320.43654166666664,37.9391500353813L320.69508333333334,35.316518664360046L320.7467916666667,39.169090628623984L322.03950000000003,39.81476056575776L322.2980416666667,37.13313430547714L322.4531666666667,36.41850793361665L322.8668333333333,35.316518664360046L323.901,37.249658286571496L324.056125,35.925189316272736L324.8834583333333,37.28124552965163L326.02104166666663,39.782226085662856L326.69325,39.36629050970077L326.7966666666666,36.69606912136079L329.38208333333336,35.316518664360046L330.62308333333334,35.316518664360046L330.98504166666663,36.023807406425476L331.2952916666667,40.574553549289696L332.69141666666667,36.489777147769914L335.74220833333334,37.099294781684854L336.62125,39.724493026733384L337.707125,35.89633142948153L340.189125,35.93183553218844L340.34425,37.60465091466902L342.77454166666666,36.42186647653578L344.222375,35.93237137794496L344.63604166666664,38.94650548696519L344.842875,35.937696993351L345.2565416666667,38.713110089302084L347.16975,38.39714950323103L347.4282916666666,37.361501395702376L349.08295833333335,37.32681661844252L349.496625,35.91808331012728L351.047875,35.924036383628845L351.66837499999997,35.927127003669725L351.7717916666666,38.794838666915894L353.73670833333335,36.35784327983854L354.35720833333335,35.89951884746553L356.5289583333333,35.92940175533296L360.04512500000004,38.44331347942353L360.5105,36.54842287302016L360.66562500000003,38.443505346775055L364.59545833333334,35.92938446998596L364.698875,44.6035933494568L364.75058333333334,41.89181625843047L367.491125,37.17423713207245L368.93895833333335,38.443353235721574L372.3517083333333,42.03744703531264L374.36833333333334,36.54865276813508L379.02208333333334,36.548434972763076L379.8494166666666,37.805357992649064L380.5733333333333,36.54843151569368L383.72754166666664,35.92938619852068L384.865125,37.173739314079285L388.6398333333333,36.548377931118L388.74325,35.316518664360046L390.3979166666667,37.8053407073021L391.63891666666666,37.80535453557966L392.3628333333333,36.54842978715896L394.5862916666667,35.93029367923737L396.034125,37.68313157558443L396.13754166666666,35.95080792903899L396.344375,36.539076685905464L397.12,35.316518664360046L399.2400416666666,35.93286573886873L399.3951666666667,37.84905362129213L402.13570833333335,38.38665211200716L403.73866666666663,38.36418980360032L403.79037500000004,37.25532096624374L404.6694166666667,35.44871008396151L404.8245416666667,35.901745200157166L406.582625,37.28009259700777L406.68604166666665,35.941005408763885L407.048,35.316518664360046L408.90950000000004,35.316518664360046L409.99537499999997,37.29528123140335L411.23637499999995,37.48848301172256L411.49491666666665,36.68386739492418L411.80516666666665,38.30481636524198L413.2012916666667,37.581638932228095L414.2354583333333,37.16870582103729L414.494,37.81134736537935L415.269625,35.92937237024308L415.52816666666666,36.54843151569368L417.751625,35.92937928438188L419.0443333333333,35.316518664360046L419.14775,37.80535280704498L419.9750833333333,35.316518664360046L420.49216666666666,36.54843151569368L423.0775833333333,35.316518664360046L424.0600416666667,38.443361878395095L424.73225,37.8053407073021L425.0425,37.805380463600144L425.71470833333336,37.173744499683366L428.6620833333333,35.316518664360046L429.85137499999996,35.92937064170836L430.1099166666667,36.548433244228356L431.3509166666667,36.54843151569368L431.91970833333335,37.17375314235689L432.4885,37.8053407073021L433.1607083333333,37.17376005649569L434.4017083333333,37.17342299222948L439.31399999999996,39.67171221971511L439.3657083333333,39.516009271144874L439.57254166666667,35.316518664360046L440.6067083333333,37.80534589290618L443.3989583333333,37.805366635322585L443.9160416666667,35.316518664360046L444.89849999999996,38.44336533546449L447.69075000000004,38.44334805011749L448.156125,36.54843151569368L448.466375,36.54843670129776L448.77662499999997,36.54843151569368L448.93175,38.44332039356233L449.2937083333333,37.80549108982086L449.707375,36.54843151569368L449.8625,38.44333422183989L450.483,38.443339407444014L451.879125,36.548412501811995L452.08595833333334,37.805389106273665L452.65475000000004,38.44334286451341L456.73970833333334,37.80539083480834L457.463625,36.54843151569368L457.8772916666667,35.316518664360046L458.65291666666667,37.17373585700989L462.01395833333333,37.82705456018449L463.5135,36.948620140552535L463.66862499999996,36.3997222185135L465.01304166666665,35.316518664360046L466.150625,36.54227620363235L470.9077916666667,35.316518664360046L471.32145833333334,37.25961291790008L472.51075,37.152084231376655L473.4415,37.17324149608612L476.59570833333333,36.54843151569368L478.1986666666667,35.92938101291656L480.93920833333334,36.54843151569368L481.50800000000004,37.173732399940484L482.43874999999997,37.17371857166288L482.9558333333333,38.443353235721574L483.00754166666667,37.80535280704498L483.99,37.173732399940484L485.1792916666667,37.805357992649064L486.16175,37.173732399940484L488.17837499999996,35.316518664360046L488.3335,37.173706471920006L488.6954583333333,36.548381388187394L489.21254166666665,37.80409616231916L489.36766666666665,35.92938101291656L490.1432916666667,37.80803203582762L491.8496666666666,35.92962127923964L492.832125,35.316518664360046L496.9170833333333,36.775023400783525L498.72687499999995,37.80450236797333L499.6059166666667,38.44340854883193L500.3815416666667,36.54843151569368L500.95033333333333,37.173732399940484L501.26058333333333,37.173732399940484L502.5532916666666,36.54843151569368L503.07037499999996,37.805456519126906L504.001125,37.8053130507469L504.5699166666667,38.44337224960325L504.7250416666667,36.548428058624275L505.7592083333334,35.316518664360046L506.172875,37.805380463600144L506.6899583333333,35.316518664360046L508.49975,35.92937755584716L508.75829166666665,36.54841768741608L511.91249999999997,35.929367184638956L511.9642083333333,35.316518664360046L513.618875,37.80550146102907L516.256,311.35276889801025L516.6696666666667,325.87779808044434L518.4794583333334,345.8371744155884L519.04825,347.0130205154419L519.66875,347.5931444168091L520.5477916666666,347.8899269104004L523.6502916666667,347.99903202056885L526.4425416666667,194.43140459060666L526.649375,140.7305884361267L527.3732916666667,40.64066827297213L528.2523333333334,37.68517124652862L528.5625833333334,37.831071674823754L530.7343333333333,36.54998201131822L531.5616666666667,37.80526292324066L532.1304583333333,38.44334805011749L533.0095,35.316518664360046L534.0436666666667,37.80535280704498L534.3022083333333,38.44334977865217L534.405625,37.173732399940484L534.715875,37.173732399940484L535.7500416666667,35.92937755584716L535.9051666666667,37.805357992649064L536.1637083333334,38.443361878395095L536.6290833333334,36.548428058624275L541.2828333333333,36.54841423034668L541.3345416666666,35.92938274145128L541.4379583333333,38.44374561309814L542.8857916666667,35.9295573234558L543.1443333333333,36.55048155784607L543.402875,37.168325543403604L546.4019583333334,38.47836816310883L547.7463750000001,37.18825900554657L548.2117499999999,35.316518664360046L549.918125,36.53781485557556L549.9698333333333,36.290193617343895L550.4352083333333,38.40278279781343L552.400125,37.061982631683364L552.8137916666667,35.88383066654207L553.0723333333333,36.00112211704255L554.727,35.316518664360046L557.1572916666667,35.85258048772814L557.364125,35.74878889322281L558.5534166666666,37.45346462726594L559.4841666666666,36.330027699470506L559.6392916666667,41.29575872421264L560.7251666666666,36.56110513210298L561.2939583333333,37.171900153160095L562.5349583333333,37.173974394798286L562.8969166666667,36.54840731620788L563.7759583333333,85.22958290576935L563.879375,42.663309693336494L564.0345,36.7691308259964L565.120375,38.001956343650804L565.4823333333334,37.926096141338355L566.671625,38.44530993700028L567.5506666666666,35.316518664360046L568.4814166666666,35.316518664360046L568.7916666666666,35.316518664360046L569.30875,36.5484159588814L570.2912083333333,35.92937755584716L571.6873333333333,37.808955073356636L572.101,36.545669317245476L573.186875,27.526244401931766L576.8581666666666,35.316518664360046L580.5294583333333,35.92974227666856L580.8914166666667,35.316518664360046L582.2875416666667,38.44872552156449L583.3734166666667,35.316518664360046L584.7178333333334,37.881643414497354L585.1832083333334,35.93217432498932L586.8378749999999,36.65055853128434L587.92375,36.53869295120238L590.1472083333333,35.88144701719283L590.3023333333333,33.897151410579696L591.3365,36.67867314815523L591.6984583333333,35.91338169574737L593.042875,34.99076765775682L596.6624583333333,38.44269812107084L597.1278333333333,36.54850584268572L597.4897916666666,35.92938792705536L598.162,35.316518664360046L599.2995833333333,36.530686378479025L599.868375,37.00452959537506L601.2645,35.316518664360046L602.5055,35.316518664360046L602.81575,35.316518664360046L604.0050416666667,35.92940866947176L604.9357916666667,35.93045443296433L608.09,35.316518664360046L608.555375,37.20932465791704L610.8305416666667,35.779219746589646L612.278375,37.17556810379027L612.4335,35.316518664360046L614.5018333333333,36.731773734092705L615.7428333333334,36.618941903114326L619.103875,37.84737694263458L623.1371250000001,37.53166872262954L623.3956666666667,32.47851705551147L623.5507916666667,35.84656172990797L624.2747083333334,38.45148253440857L624.8952083333334,38.33440887928009L626.0844999999999,35.316518664360046L626.39475,35.316518664360046L627.170375,37.3766658306122L627.9977083333333,35.56345885992051L629.2387083333333,38.6756181716919L630.11775,35.316518664360046L633.22025,35.316518664360046L633.7890416666667,35.92990648746488L634.8232083333334,38.71584808826448L635.1851666666666,37.355207800865166L635.4437083333332,40.22970741987227L641.0282083333334,38.504759430885336L641.1833333333334,36.55087566375731L642.2692083333334,38.442743062973L642.5277500000001,35.316518664360046L644.7512083333334,38.44325816631317L645.32,35.316518664360046L645.8370833333333,36.54845225811004L646.0439166666666,37.805252552032464L647.5434583333333,38.44332039356233L648.0088333333333,36.54843670129776L649.1981249999999,37.17370474338532L649.2498333333333,36.548410773277276L649.8703333333333,36.54829323291779L651.4732916666667,35.84521520137787L651.9386666666667,45.97142174839971L652.8177083333333,39.14570701122285L653.07625,35.316518664360046L653.5416250000001,37.16152548789979L653.9552916666667,35.93191331624983L654.3689583333334,38.431194722652435L655.248,35.316518664360046L656.79925,35.316518664360046L657.3163333333333,36.55354970693587L659.2295416666666,36.094003200531L659.6949166666666,37.82586532831192L659.746625,37.2012437582016L660.8842083333334,38.23048937320708L661.2461666666667,38.028663933277144L662.6940000000001,35.316518664360046L663.2110833333334,37.11449724435808L663.4696250000001,36.31518477201461L664.0384166666666,37.293393671512604L664.5037916666668,35.93463921546935L665.2277083333333,38.5555731654167L667.192625,38.28250443935394L667.3477499999999,35.316518664360046L669.1058333333334,36.52625441551208L669.3126666666667,38.005145490169525L670.5019583333333,40.406878769397736L670.8122083333334,34.22081434726714L670.915625,36.65811222791673L672.9839583333332,38.40417253971101L673.2942083333334,38.4826099872589L673.3976250000001,37.1787468791008L673.9664166666666,37.87755715847014L674.2249583333332,38.243650436401346L674.948875,37.053607881069205L675.41425,35.316518664360046L676.2415833333334,36.37818640470503L677.5342916666666,35.93116486072538L678.51675,35.316518664360046L678.982125,36.952950119972236L679.912875,38.055117428302765L681.3090000000001,35.316518664360046L682.4982916666667,35.92564737796783L682.6017083333334,37.85572922229767L682.6534166666667,37.389864921569824L685.7042083333334,38.67142474651337L685.8593333333333,36.57318240404127L686.3247083333333,38.917642414569855L688.289625,37.70427328348161L690.92675,35.316518664360046L693.5121666666666,36.66910225152969L693.9258333333333,35.316518664360046L695.7873333333333,35.316518664360046L696.6663749999999,35.92937237024308L697.7005416666666,38.443361878395095L699.148375,35.92938101291656L699.3035,37.80528712272642L699.6654583333334,37.173744499683366L699.768875,35.92937755584716L700.6479166666667,36.54842978715896L701.0615833333333,35.316518664360046L701.5269583333333,37.173744499683366L702.3025833333332,35.316518664360046L703.1299166666666,36.553257584571824L705.1465416666666,39.24991691112518L705.7670416666667,38.36695891618728L706.3875416666666,38.38425981998444L706.9563333333333,35.316518664360046L707.68025,37.75891745090484L707.7836666666667,36.54231423139571L709.6451666666667,36.02083778381347L711.5066666666667,36.58124428987503L712.9027916666666,37.71994072198868L713.6784166666666,36.25370597839357L715.2296666666667,36.574632644653335L716.4706666666667,36.53413653373719L717.4014166666666,36.638529658317566L719.1077916666666,38.02667611837388L720.5039166666667,36.51833945512772L721.176125,35.93499529361724L721.2795416666667,39.60073858499525L721.3312500000001,38.656746029853835L722.3654166666666,36.05292803049089L722.6239583333333,37.9124631881714L723.347875,35.94926953315736L723.8649583333333,37.181023359298706L724.1235,37.81409919261931L724.4854583333334,37.16985183954239L725.4679166666667,36.56754565238951L726.0884166666666,36.66999936103822L727.8982083333333,37.129908859729774L731.1041250000001,35.82843804359435L731.87975,38.36077249050139L732.4485416666666,38.39489895105364L732.6553749999999,35.9308295249939L733.4827083333333,37.18130683898927L735.1890833333334,35.316518664360046L735.6544583333334,36.196797430515275L737.929625,35.92900937795639L738.9637916666667,35.747760415077195L739.1189166666667,36.278527736663804L739.94625,40.67231428623198L740.7735833333334,35.316518664360046L744.444875,35.82811826467515L744.9102499999999,37.84029340744021L746.5132083333333,37.11590081453321L747.4956666666667,36.782421529293075L747.6507916666667,34.02025592327118L748.788375,35.98401826620102L752.1494166666666,36.76380002498629L752.5630833333333,35.316518664360046L753.6489583333333,37.23892581462862L754.7865416666667,38.546759366989136L756.2860833333334,35.316518664360046L758.6646666666666,36.5333310365677L760.1125000000001,38.256101071834564L763.1632916666667,38.373688101768494L763.990625,35.93018132448197L765.5935833333333,35.316518664360046L767.0931250000001,35.93334108591082L768.3858333333333,35.316518664360046L768.644375,35.93275511264801L769.3165833333334,35.316518664360046L769.9887916666667,42.42718493938447L770.2990416666667,36.8111342191696L772.4707916666666,38.53351533412935L772.5225,37.873814880847924L773.5566666666666,36.44937956333162L776.55575,38.04481536149978L777.4347916666667,37.56247466802598L778.8309166666668,35.316518664360046L778.882625,38.304892420768745L779.2962916666667,37.184658467769644L779.9167916666667,37.173300266265876L780.5372916666666,37.173694372177124L781.3129166666668,35.316518664360046L781.51975,36.548434972763076L782.3987916666666,37.173739314079285L783.3295416666667,35.5571929216385L784.2602916666666,35.91929674148562L785.0359166666667,37.80020350217819L785.553,35.316518664360046L785.7081250000001,37.173996865749366L786.328625,37.173744499683366L786.3803333333334,36.54843842983248L786.5871666666667,37.80534589290618L788.035,35.316518664360046L789.3794166666667,37.80546861886978L791.0857916666666,35.92937582731248L791.8614166666666,37.80529057979582L793.7229166666666,37.80567431449891L796.4634583333333,39.6682897210121L796.6702916666666,35.8011963367462L797.7044583333333,38.261217534542084L800.2381666666668,37.804262101650245L801.7377083333333,38.44704020023347L803.9094583333333,35.98363107442858L806.5465833333334,36.558270335197456L807.3222083333334,38.42031878232956L807.735875,37.178722679615035L808.046125,35.231142878532424L810.6315416666666,38.44871515035629L810.7866666666666,36.54867005348204L810.9417916666667,38.44129627943038L811.614,37.80573135614395L813.0101249999999,35.92937755584716L814.3028333333333,35.316518664360046L814.6647916666667,38.44295740127565L815.8023750000001,35.929367184638956L817.5604583333334,37.182181477546685L819.37025,37.52106416225435L820.5595416666666,40.20105868577958L820.7146666666666,35.316518664360046L821.386875,38.460057795047774L821.5937083333333,35.94883048534392L824.1274166666667,35.316518664360046L824.179125,38.44298505783081L825.1615833333334,37.805527389049544L825.3167083333333,35.92938446998596L825.7820833333333,37.8052352666855L825.8337916666667,37.1736961007118L826.1440416666667,37.17376524209976L827.1782083333334,35.92937755584716L827.2816250000001,38.443361878395095L831.5217083333333,35.941829919815056L831.8319583333333,35.8725744485855L835.7100833333333,37.808787405490875L838.8125833333334,37.78667598962784L839.1228333333333,37.85678189992904L840.3121249999999,45.93958473205568L842.2253333333333,37.607345700263984L842.2770416666667,37.12870752811432L842.5872916666667,37.19354832172393L843.0526666666667,35.316518664360046L843.9317083333333,35.92929804325104L844.5522083333334,35.928451061248786L844.8624583333334,35.93193924427032L845.8966250000001,32.917265832424164L846.1034583333334,35.92331558465959L847.9132500000001,35.316518664360046L850.4986666666667,37.80510044097902L851.7396666666667,37.80546170473099L852.9289583333333,38.44332557916641L854.7904583333334,38.439621329307556L856.0314583333334,38.348838686943054L856.1865833333333,36.53772497177124L859.2890833333333,36.56112760305406L860.0647083333333,38.48138445615768L860.3749583333333,38.39929807186126L861.9262083333333,39.237250208854675L862.3915833333333,36.346270740032175L862.5984166666667,41.00864219665528L862.9086666666667,33.16378080844878L865.9594583333334,38.876753926277146L866.5799583333333,39.84819388389588L867.6658333333334,36.183048665523515L867.7175416666666,35.84230780601503L867.9243749999999,37.68962049484252L868.1312083333332,38.19361454248427L868.3380416666668,35.89529430866243L869.2170833333333,36.52940553426745L869.5273333333333,36.57167339324953L869.7341666666666,37.560142874717705L871.1302916666667,35.95428228378296L872.5264166666666,38.10946083068846L873.508875,37.201610207557685L875.1635416666667,35.956906199455275L875.2152500000001,35.316518664360046L875.2669583333333,42.513694643974304L876.5079583333334,38.30090123414993L879.8689999999999,35.316518664360046L880.4895,35.316518664360046L883.747125,36.449192881584175L885.9188750000001,37.13678324222563L886.1257083333334,38.75298392772673L888.400875,36.67906033992767L889.3833333333333,36.546640753746054L891.2965416666667,35.94358265399932L892.8477916666667,35.97780764102937L893.20975,35.316518664360046L893.7268333333333,36.5722489953041L894.6575833333333,36.50912463665007L895.8468750000001,36.76007503271103L896.7259166666666,39.60161149501803L897.0361666666666,37.042031884193435L897.398125,37.22887092828751L899.8284166666666,36.46551197767257L900.0869583333333,42.32664126157763L900.9142916666667,36.01753628253938L901.2245416666667,35.882954299449935L901.741625,37.20239323377609L902.672375,37.122880637645714L903.5514166666667,38.51640802621842L903.6548333333333,36.640928864479086L905.3095000000001,35.316518664360046L906.3436666666666,37.79715955257414L906.9124583333332,38.50230318307878L909.34275,35.316518664360046L909.9632499999999,35.316518664360046L910.5320416666666,35.933266758918776L913.841375,36.48469007015228L915.4443333333334,36.53670513629915L917.3575416666667,35.95800727605821L918.5985416666667,35.88906812667846L919.0639166666667,37.907274127006524L919.3741666666667,37.601810932159424L920.1497916666667,35.92904913425448L921.0288333333333,36.65543127059937L921.75275,35.316518664360046L921.907875,36.47835326194763L922.8903333333334,36.601596057415L923.8727916666667,35.92898517847059L929.7158333333333,36.702502727508524L930.1295000000001,35.316518664360046L930.43975,35.316518664360046L931.68075,35.316518664360046L931.7324583333333,38.499957561492906L933.697375,37.223999917507165L935.0935,35.316518664360046L935.714,35.316518664360046L936.7998749999999,37.11977100372315L939.8506666666666,36.67487382888793L940.522875,37.14758658409119L941.0399583333334,38.531311452388756L941.2467916666667,35.92906987667084L942.5395,35.316518664360046L943.6770833333333,36.92519676685332L947.4000833333333,36.27105528116226L948.5376666666666,36.92528665065764L948.7444999999999,35.316518664360046L948.8479166666666,38.11958658695221L948.899625,37.245561659336076L949.4167083333333,38.3737969994545L950.450875,37.1929208636284L951.7952916666666,35.89192020893098L953.5533750000001,37.12601792812348L954.0187500000001,35.316518664360046L956.9144166666666,39.71585899591446L959.7066666666666,43.0852571129799L961.0510833333333,35.316518664360046L961.309625,35.92764556407929L962.3437916666667,38.442058563232436L964.9809166666666,36.54842460155488L965.18775,37.80535280704498L966.8424166666667,36.54842460155488L969.376125,35.92937409877776L970.4102916666667,38.43991172313688L972.0649583333334,37.210766255855575L972.5820416666667,42.8620012998581L972.63375,40.925357937812805L973.9264583333334,37.00553905963899L974.3918333333334,35.316518664360046L975.1157499999999,37.90531051158906L977.2875,37.793916821479776L978.5802083333334,37.15201854705809L982.4583333333333,35.316518664360046L985.9227916666667,37.45525020360948L987.5257499999999,37.536209583282485L989.2838333333334,35.316518664360046L989.3355416666666,36.91648149490356L990.473125,35.99836683273315L992.4380416666667,38.71141093969346L992.6965833333334,35.316518664360046L992.955125,35.93178713321687L993.4722083333334,37.041803717613234L994.8683333333333,35.316518664360046L994.9200416666667,39.02813726663588L995.282,37.422399401664734L996.0059166666666,36.56590527296065L996.5747083333333,37.213723778724656L997.5054583333333,37.062399208545685L997.608875,35.93923711776734L998.7981666666666,36.27455556392671L998.849875,35.86082041263582L998.9015833333333,35.316518664360046L999.0567083333333,37.54963684082031L1000.0391666666666,35.316518664360046L1001.8489583333333,35.927324056625366L1002.7280000000001,36.54829323291779L1003.4002083333334,35.92939484119416L1003.4519166666666,35.316518664360046L1003.969,36.54843151569368L1004.5377916666666,37.173756599426284L1005.054875,38.44334286451341L1005.4685416666666,37.173739314079285L1005.985625,38.44335842132569L1008.5193333333333,37.80503821372986L1008.9329999999999,36.548493742942796L1009.1398333333334,37.80493795871734L1010.5876666666667,35.316518664360046L1011.3115833333333,37.80193030834197L1011.6218333333334,37.813034415245056L1012.34575,36.554892778396606L1012.4491666666667,35.316518664360046L1012.811125,38.96037352085115L1013.1730833333334,36.73177200555803L1013.2247916666666,37.04759949445724L1013.431625,43.07583314180373L1014.7243333333333,37.239269793033586L1015.2414166666667,35.316518664360046L1015.44825,36.53582531213762L1016.2755833333333,37.7549902200699L1016.9995,36.54337036609648L1018.861,36.46486896276476L1018.9127083333333,35.9447511434555L1019.2746666666667,35.316518664360046L1019.8434583333334,36.00750732421876L1022.3771666666667,35.316518664360046L1022.4288750000001,38.807240903377554L1022.6874166666666,35.316518664360046L1024.0835416666666,36.62255799770354L1025.0142916666666,37.38052564859389L1026.0484583333334,35.92859280109407L1031.7880833333334,38.66932630538941L1032.2534583333334,35.945247232913985L1033.0807916666665,37.69862443208693L1033.2359166666668,35.316518664360046L1033.7012916666667,37.31435215473174L1035.149125,38.5984339118004L1036.9072083333333,35.94715553522109L1036.9589166666667,35.316518664360046L1037.4242916666667,36.55380898714068L1037.5794166666667,35.316518664360046L1039.5960416666667,37.11968457698823L1040.3716666666667,35.316518664360046L1040.88875,36.358667790889754L1041.664375,40.71946179866789L1041.7677916666667,37.6842827796936L1042.1814583333335,35.89034205675124L1043.0087916666666,37.182371616363525L1044.0429583333332,35.92872589826583L1045.2839583333334,35.90684783458712L1046.4215416666666,37.552079260349274L1047.869375,38.740102887153625L1048.489875,38.85677206516266L1050.661625,37.09000736474992L1050.81675,36.39167588949203L1052.9367916666667,37.154144644737244L1053.3504583333333,35.926482260227196L1057.5388333333333,37.418508470058434L1057.5905416666667,37.10905063152312L1062.0891666666666,59.16519821807742L1062.5028333333332,35.838983833789825L1064.778,35.316518664360046L1064.8297083333334,38.443505346775055L1067.4668333333334,36.548428058624275L1067.9322083333334,38.443361878395095L1070.5693333333334,36.54843151569368L1071.0864166666665,37.8053407073021L1071.448375,37.173756599426284L1071.7069166666668,37.8053407073021L1072.9479166666667,37.8053095936775L1074.8611250000001,37.17367535829544L1075.7401666666667,37.80539429187775L1077.9119166666667,37.820949375629404L1080.3939166666667,37.792267799377434L1082.46225,35.316518664360046L1083.7549583333334,38.28641784191132L1084.7374166666666,38.58472144603728L1084.9959583333334,36.19797283411025L1085.2545,35.316518664360046L1086.18525,35.316518664360046L1086.4437916666666,35.89862346649172L1086.7023333333334,36.53405010700227L1087.3228333333334,36.516139030456536L1088.4087083333334,38.02671933174132L1090.839,35.316518664360046L1091.924875,37.16634118556978L1093.8380833333333,35.316518664360046L1094.6654166666667,36.54874438047408L1096.4234999999999,37.33569437265397L1096.9922916666667,37.233575999736786L1097.6644999999999,36.54721981287002L1099.5777083333332,35.92937409877776L1099.9396666666667,35.316518664360046L1100.1464999999998,36.54843151569368L1101.4392083333335,35.92937755584716L1102.783625,38.44305074214937L1106.972,36.54842978715896L1107.127125,38.44334805011749L1107.3856666666666,35.316518664360046L1109.9710833333334,37.80785226821898L1111.00525,36.54420524835586L1111.780875,39.280657172203064L1111.936,36.63508123159408L1112.0394166666667,35.316518664360046L1113.0735833333333,39.119085848331466L1113.3838333333333,37.87020570039747L1114.573125,38.4590863585472L1115.8658333333333,37.77378803491593L1115.96925,36.544877648353584L1116.6414583333333,35.929802775383L1117.7273333333333,37.26079523563385L1118.7097916666667,37.824961304664626L1119.0200416666667,36.63161033391951L1119.7439583333335,35.91624414920805L1120.31275,36.58279132843017L1120.778125,38.667067110538504L1120.9849583333335,35.93223482370376L1123.1567083333332,35.94292581081391L1123.5186666666666,35.316518664360046L1123.7255,36.283531844615915L1123.9840416666666,37.60295695066452L1124.03575,36.73252910375596L1126.1040833333334,38.011070907115936L1127.0865416666666,37.068385124206536L1128.4826666666665,35.316518664360046L1129.6719583333334,35.927718162536614L1131.1715,36.50070667266847L1133.2915416666667,37.36960476636885L1133.8086250000001,38.31768184900285L1134.4291249999999,38.2783006429672L1135.3081666666667,35.316518664360046L1136.1354999999999,36.64451730251314L1136.5491666666667,35.316518664360046L1137.0145416666667,36.64549738168715L1137.3765,36.74819135665894L1139.4448333333335,38.04136520624161L1139.8067916666666,37.12409579753877L1140.1170416666666,37.24287205934524L1140.3755833333335,37.11334604024886L1140.6858333333334,38.96022140979767L1140.8409583333332,35.91642218828201L1144.7707916666668,37.24556511640547L1144.8225,36.60650163888931L1144.9259166666666,35.316518664360046L1145.287875,40.328379094600685L1145.908375,41.67631638050078L1147.0976666666668,35.316518664360046L1147.2527916666668,37.18247705698013L1148.85575,36.585888862609856L1149.9933333333333,39.74222087860108L1150.251875,35.3323174715042L1150.4070000000002,36.28437709808349L1150.6655416666665,37.645909309387214L1152.7855833333333,37.94663286209105L1153.5612083333333,35.92679166793824L1154.3368333333333,36.45230942964554L1154.8022083333333,35.196938633918776L1154.905625,36.724218308925636L1155.68125,35.316518664360046" style="fill: none;" fill="none"></path></g></g></g></g></g></g><g transform="translate(40, 377)" clip-path="url(#clip_1)"><clipPath id="clip_1"><rect width="1241" height="23"></rect></clipPath><g><g><line x1="0" y1="0" x2="0" y2="5" style="visibility: inherit;" fill="rgb(0, 0, 0)" stroke="rgb(204, 204, 204)" stroke-width="1px"></line><line x1="103.41666666666666" y1="0" x2="103.41666666666666" y2="5" style="visibility: inherit;" fill="rgb(0, 0, 0)" stroke="rgb(204, 204, 204)" stroke-width="1px"></line><line x1="206.83333333333331" y1="0" x2="206.83333333333331" y2="5" style="visibility: inherit;" fill="rgb(0, 0, 0)" stroke="rgb(204, 204, 204)" stroke-width="1px"></line><line x1="310.25" y1="0" x2="310.25" y2="5" style="visibility: inherit;" fill="rgb(0, 0, 0)" stroke="rgb(204, 204, 204)" stroke-width="1px"></line><line x1="413.66666666666663" y1="0" x2="413.66666666666663" y2="5" style="visibility: inherit;" fill="rgb(0, 0, 0)" stroke="rgb(204, 204, 204)" stroke-width="1px"></line><line x1="517.0833333333334" y1="0" x2="517.0833333333334" y2="5" style="visibility: inherit;" fill="rgb(0, 0, 0)" stroke="rgb(204, 204, 204)" stroke-width="1px"></line><line x1="620.5" y1="0" x2="620.5" y2="5" style="visibility: inherit;" fill="rgb(0, 0, 0)" stroke="rgb(204, 204, 204)" stroke-width="1px"></line><line x1="723.9166666666667" y1="0" x2="723.9166666666667" y2="5" style="visibility: inherit;" fill="rgb(0, 0, 0)" stroke="rgb(204, 204, 204)" stroke-width="1px"></line><line x1="827.3333333333333" y1="0" x2="827.3333333333333" y2="5" style="visibility: inherit;" fill="rgb(0, 0, 0)" stroke="rgb(204, 204, 204)" stroke-width="1px"></line><line x1="930.75" y1="0" x2="930.75" y2="5" style="visibility: inherit;" fill="rgb(0, 0, 0)" stroke="rgb(204, 204, 204)" stroke-width="1px"></line><line x1="1034.1666666666667" y1="0" x2="1034.1666666666667" y2="5" style="visibility: inherit;" fill="rgb(0, 0, 0)" stroke="rgb(204, 204, 204)" stroke-width="1px"></line><line x1="1137.5833333333333" y1="0" x2="1137.5833333333333" y2="5" style="visibility: inherit;" fill="rgb(0, 0, 0)" stroke="rgb(204, 204, 204)" stroke-width="1px"></line><line x1="1241" y1="0" x2="1241" y2="5" style="visibility: inherit;" fill="rgb(0, 0, 0)" stroke="rgb(204, 204, 204)" stroke-width="1px"></line></g><g transform="translate(0, 8)"><text x="0" y="0" dx="0em" dy="0.95em" style="text-anchor: middle; visibility: hidden; font-family: Roboto, sans-serif; font-size: 12px; font-weight: 200;" fill="rgb(33, 33, 33)" stroke="none" stroke-width="1px">-10k</text><text x="103.41666666666666" y="0" dx="0em" dy="0.95em" style="text-anchor: middle; visibility: inherit; font-family: Roboto, sans-serif; font-size: 12px; font-weight: 200;" fill="rgb(33, 33, 33)" stroke="none" stroke-width="1px">0</text><text x="206.83333333333331" y="0" dx="0em" dy="0.95em" style="text-anchor: middle; visibility: inherit; font-family: Roboto, sans-serif; font-size: 12px; font-weight: 200;" fill="rgb(33, 33, 33)" stroke="none" stroke-width="1px">10k</text><text x="310.25" y="0" dx="0em" dy="0.95em" style="text-anchor: middle; visibility: inherit; font-family: Roboto, sans-serif; font-size: 12px; font-weight: 200;" fill="rgb(33, 33, 33)" stroke="none" stroke-width="1px">20k</text><text x="413.66666666666663" y="0" dx="0em" dy="0.95em" style="text-anchor: middle; visibility: inherit; font-family: Roboto, sans-serif; font-size: 12px; font-weight: 200;" fill="rgb(33, 33, 33)" stroke="none" stroke-width="1px">30k</text><text x="517.0833333333334" y="0" dx="0em" dy="0.95em" style="text-anchor: middle; visibility: inherit; font-family: Roboto, sans-serif; font-size: 12px; font-weight: 200;" fill="rgb(33, 33, 33)" stroke="none" stroke-width="1px">40k</text><text x="620.5" y="0" dx="0em" dy="0.95em" style="text-anchor: middle; visibility: inherit; font-family: Roboto, sans-serif; font-size: 12px; font-weight: 200;" fill="rgb(33, 33, 33)" stroke="none" stroke-width="1px">50k</text><text x="723.9166666666667" y="0" dx="0em" dy="0.95em" style="text-anchor: middle; visibility: inherit; font-family: Roboto, sans-serif; font-size: 12px; font-weight: 200;" fill="rgb(33, 33, 33)" stroke="none" stroke-width="1px">60k</text><text x="827.3333333333333" y="0" dx="0em" dy="0.95em" style="text-anchor: middle; visibility: inherit; font-family: Roboto, sans-serif; font-size: 12px; font-weight: 200;" fill="rgb(33, 33, 33)" stroke="none" stroke-width="1px">70k</text><text x="930.75" y="0" dx="0em" dy="0.95em" style="text-anchor: middle; visibility: inherit; font-family: Roboto, sans-serif; font-size: 12px; font-weight: 200;" fill="rgb(33, 33, 33)" stroke="none" stroke-width="1px">80k</text><text x="1034.1666666666667" y="0" dx="0em" dy="0.95em" style="text-anchor: middle; visibility: inherit; font-family: Roboto, sans-serif; font-size: 12px; font-weight: 200;" fill="rgb(33, 33, 33)" stroke="none" stroke-width="1px">90k</text><text x="1137.5833333333333" y="0" dx="0em" dy="0.95em" style="text-anchor: middle; visibility: inherit; font-family: Roboto, sans-serif; font-size: 12px; font-weight: 200;" fill="rgb(33, 33, 33)" stroke="none" stroke-width="1px">100k</text><text x="1241" y="0" dx="0em" dy="0.95em" style="text-anchor: middle; visibility: hidden; font-family: Roboto, sans-serif; font-size: 12px; font-weight: 200;" fill="rgb(33, 33, 33)" stroke="none" stroke-width="1px">110k</text></g><line x1="0" y1="0" x2="1241" y2="0" fill="rgb(0, 0, 0)" stroke="rgb(204, 204, 204)" stroke-width="1px"></line></g></g></g></g></svg>