<svg viewBox="0 0 1281 400" xmlns="http://www.w3.org/2000/svg"><g><g><g><g><g><line x1="30.78125" y1="377" x2="25.78125" y2="377" style="visibility: inherit;" fill="rgb(0, 0, 0)" stroke="rgb(204, 204, 204)" stroke-width="1px"></line><line x1="30.78125" y1="348" x2="25.78125" y2="348" style="visibility: inherit;" fill="rgb(0, 0, 0)" stroke="rgb(204, 204, 204)" stroke-width="1px"></line><line x1="30.78125" y1="319" x2="25.78125" y2="319" style="visibility: inherit;" fill="rgb(0, 0, 0)" stroke="rgb(204, 204, 204)" stroke-width="1px"></line><line x1="30.78125" y1="290" x2="25.78125" y2="290" style="visibility: inherit;" fill="rgb(0, 0, 0)" stroke="rgb(204, 204, 204)" stroke-width="1px"></line><line x1="30.78125" y1="261" x2="25.78125" y2="261" style="visibility: inherit;" fill="rgb(0, 0, 0)" stroke="rgb(204, 204, 204)" stroke-width="1px"></line><line x1="30.78125" y1="232" x2="25.78125" y2="232" style="visibility: inherit;" fill="rgb(0, 0, 0)" stroke="rgb(204, 204, 204)" stroke-width="1px"></line><line x1="30.78125" y1="203" x2="25.78125" y2="203" style="visibility: inherit;" fill="rgb(0, 0, 0)" stroke="rgb(204, 204, 204)" stroke-width="1px"></line><line x1="30.78125" y1="174" x2="25.78125" y2="174" style="visibility: inherit;" fill="rgb(0, 0, 0)" stroke="rgb(204, 204, 204)" stroke-width="1px"></line><line x1="30.78125" y1="145" x2="25.78125" y2="145" style="visibility: inherit;" fill="rgb(0, 0, 0)" stroke="rgb(204, 204, 204)" stroke-width="1px"></line><line x1="30.78125" y1="116" x2="25.78125" y2="116" style="visibility: inherit;" fill="rgb(0, 0, 0)" stroke="rgb(204, 204, 204)" stroke-width="1px"></line><line x1="30.78125" y1="86.99999999999999" x2="25.78125" y2="86.99999999999999" style="visibility: inherit;" fill="rgb(0, 0, 0)" stroke="rgb(204, 204, 204)" stroke-width="1px"></line><line x1="30.78125" y1="58" x2="25.78125" y2="58" style="visibility: inherit;" fill="rgb(0, 0, 0)" stroke="rgb(204, 204, 204)" stroke-width="1px"></line><line x1="30.78125" y1="28.999999999999982" x2="25.78125" y2="28.999999999999982" style="visibility: inherit;" fill="rgb(0, 0, 0)" stroke="rgb(204, 204, 204)" stroke-width="1px"></line><line x1="30.78125" y1="0" x2="25.78125" y2="0" style="visibility: inherit;" fill="rgb(0, 0, 0)" stroke="rgb(204, 204, 204)" stroke-width="1px"></line></g><g transform="translate(20.78125, 0)"><text x="0" y="377" dx="0em" dy="0.3em" style="text-anchor: end; visibility: hidden; font-family: Roboto, sans-serif; font-size: 12px; font-weight: 200;" fill="rgb(33, 33, 33)" stroke="none" stroke-width="1px">-2</text><text x="0" y="348" dx="0em" dy="0.3em" style="text-anchor: end; visibility: inherit; font-family: Roboto, sans-serif; font-size: 12px; font-weight: 200;" fill="rgb(33, 33, 33)" stroke="none" stroke-width="1px">-1</text><text x="0" y="319" dx="0em" dy="0.3em" style="text-anchor: end; visibility: inherit; font-family: Roboto, sans-serif; font-size: 12px; font-weight: 200;" fill="rgb(33, 33, 33)" stroke="none" stroke-width="1px">0</text><text x="0" y="290" dx="0em" dy="0.3em" style="text-anchor: end; visibility: inherit; font-family: Roboto, sans-serif; font-size: 12px; font-weight: 200;" fill="rgb(33, 33, 33)" stroke="none" stroke-width="1px">1</text><text x="0" y="261" dx="0em" dy="0.3em" style="text-anchor: end; visibility: inherit; font-family: Roboto, sans-serif; font-size: 12px; font-weight: 200;" fill="rgb(33, 33, 33)" stroke="none" stroke-width="1px">2</text><text x="0" y="232" dx="0em" dy="0.3em" style="text-anchor: end; visibility: inherit; font-family: Roboto, sans-serif; font-size: 12px; font-weight: 200;" fill="rgb(33, 33, 33)" stroke="none" stroke-width="1px">3</text><text x="0" y="203" dx="0em" dy="0.3em" style="text-anchor: end; visibility: inherit; font-family: Roboto, sans-serif; font-size: 12px; font-weight: 200;" fill="rgb(33, 33, 33)" stroke="none" stroke-width="1px">4</text><text x="0" y="174" dx="0em" dy="0.3em" style="text-anchor: end; visibility: inherit; font-family: Roboto, sans-serif; font-size: 12px; font-weight: 200;" fill="rgb(33, 33, 33)" stroke="none" stroke-width="1px">5</text><text x="0" y="145" dx="0em" dy="0.3em" style="text-anchor: end; visibility: inherit; font-family: Roboto, sans-serif; font-size: 12px; font-weight: 200;" fill="rgb(33, 33, 33)" stroke="none" stroke-width="1px">6</text><text x="0" y="116" dx="0em" dy="0.3em" style="text-anchor: end; visibility: inherit; font-family: Roboto, sans-serif; font-size: 12px; font-weight: 200;" fill="rgb(33, 33, 33)" stroke="none" stroke-width="1px">7</text><text x="0" y="86.99999999999999" dx="0em" dy="0.3em" style="text-anchor: end; visibility: inherit; font-family: Roboto, sans-serif; font-size: 12px; font-weight: 200;" fill="rgb(33, 33, 33)" stroke="none" stroke-width="1px">8</text><text x="0" y="58" dx="0em" dy="0.3em" style="text-anchor: end; visibility: inherit; font-family: Roboto, sans-serif; font-size: 12px; font-weight: 200;" fill="rgb(33, 33, 33)" stroke="none" stroke-width="1px">9</text><text x="0" y="28.999999999999982" dx="0em" dy="0.3em" style="text-anchor: end; visibility: inherit; font-family: Roboto, sans-serif; font-size: 12px; font-weight: 200;" fill="rgb(33, 33, 33)" stroke="none" stroke-width="1px">10</text><text x="0" y="0" dx="0em" dy="0.3em" style="text-anchor: end; visibility: hidden; font-family: Roboto, sans-serif; font-size: 12px; font-weight: 200;" fill="rgb(33, 33, 33)" stroke="none" stroke-width="1px">11</text></g><line x1="30.78125" y1="0" x2="30.78125" y2="377" fill="rgb(0, 0, 0)" stroke="rgb(204, 204, 204)" stroke-width="1px"></line></g></g><g transform="translate(30, 0)" clip-path="url(#clip_0)"><clipPath id="clip_0"><rect width="1250" height="377"></rect></clipPath><g><g><g><line x1="0" y1="0" x2="0" y2="377" fill="rgb(0, 0, 0)" stroke="rgb(66, 66, 66)" stroke-width="1px" opacity="0.25"></line><line x1="125.02187500000001" y1="0" x2="125.02187500000001" y2="377" fill="rgb(0, 0, 0)" stroke="rgb(66, 66, 66)" stroke-width="1px" opacity="0.25"></line><line x1="250.04375000000002" y1="0" x2="250.04375000000002" y2="377" fill="rgb(0, 0, 0)" stroke="rgb(66, 66, 66)" stroke-width="1px" opacity="0.25"></line><line x1="375.065625" y1="0" x2="375.065625" y2="377" fill="rgb(0, 0, 0)" stroke="rgb(66, 66, 66)" stroke-width="1px" opacity="0.25"></line><line x1="500.08750000000003" y1="0" x2="500.08750000000003" y2="377" fill="rgb(0, 0, 0)" stroke="rgb(66, 66, 66)" stroke-width="1px" opacity="0.25"></line><line x1="625.109375" y1="0" x2="625.109375" y2="377" fill="rgb(0, 0, 0)" stroke="rgb(66, 66, 66)" stroke-width="1px" opacity="0.25"></line><line x1="750.13125" y1="0" x2="750.13125" y2="377" fill="rgb(0, 0, 0)" stroke="rgb(66, 66, 66)" stroke-width="1px" opacity="0.25"></line><line x1="875.1531249999999" y1="0" x2="875.1531249999999" y2="377" fill="rgb(0, 0, 0)" stroke="rgb(66, 66, 66)" stroke-width="1px" opacity="0.25"></line><line x1="1000.1750000000001" y1="0" x2="1000.1750000000001" y2="377" fill="rgb(0, 0, 0)" stroke="rgb(66, 66, 66)" stroke-width="1px" opacity="0.25"></line><line x1="1125.196875" y1="0" x2="1125.196875" y2="377" fill="rgb(0, 0, 0)" stroke="rgb(66, 66, 66)" stroke-width="1px" opacity="0.25"></line><line x1="1250.21875" y1="0" x2="1250.21875" y2="377" fill="rgb(0, 0, 0)" stroke="rgb(66, 66, 66)" stroke-width="1px" opacity="0.25"></line></g><g><line x1="0" y1="377" x2="1250.21875" y2="377" fill="rgb(0, 0, 0)" stroke="rgb(66, 66, 66)" stroke-width="1px" opacity="0.25"></line><line x1="0" y1="348" x2="1250.21875" y2="348" fill="rgb(0, 0, 0)" stroke="rgb(66, 66, 66)" stroke-width="1px" opacity="0.25"></line><line x1="0" y1="319" x2="1250.21875" y2="319" fill="rgb(0, 0, 0)" stroke="rgb(66, 66, 66)" stroke-width="1px" opacity="0.25"></line><line x1="0" y1="290" x2="1250.21875" y2="290" fill="rgb(0, 0, 0)" stroke="rgb(66, 66, 66)" stroke-width="1px" opacity="0.25"></line><line x1="0" y1="261" x2="1250.21875" y2="261" fill="rgb(0, 0, 0)" stroke="rgb(66, 66, 66)" stroke-width="1px" opacity="0.25"></line><line x1="0" y1="232" x2="1250.21875" y2="232" fill="rgb(0, 0, 0)" stroke="rgb(66, 66, 66)" stroke-width="1px" opacity="0.25"></line><line x1="0" y1="203" x2="1250.21875" y2="203" fill="rgb(0, 0, 0)" stroke="rgb(66, 66, 66)" stroke-width="1px" opacity="0.25"></line><line x1="0" y1="174" x2="1250.21875" y2="174" fill="rgb(0, 0, 0)" stroke="rgb(66, 66, 66)" stroke-width="1px" opacity="0.25"></line><line x1="0" y1="145" x2="1250.21875" y2="145" fill="rgb(0, 0, 0)" stroke="rgb(66, 66, 66)" stroke-width="1px" opacity="0.25"></line><line x1="0" y1="116" x2="1250.21875" y2="116" fill="rgb(0, 0, 0)" stroke="rgb(66, 66, 66)" stroke-width="1px" opacity="0.25"></line><line x1="0" y1="86.99999999999999" x2="1250.21875" y2="86.99999999999999" fill="rgb(0, 0, 0)" stroke="rgb(66, 66, 66)" stroke-width="1px" opacity="0.25"></line><line x1="0" y1="58" x2="1250.21875" y2="58" fill="rgb(0, 0, 0)" stroke="rgb(66, 66, 66)" stroke-width="1px" opacity="0.25"></line><line x1="0" y1="28.999999999999982" x2="1250.21875" y2="28.999999999999982" fill="rgb(0, 0, 0)" stroke="rgb(66, 66, 66)" stroke-width="1px" opacity="0.25"></line><line x1="0" y1="0" x2="1250.21875" y2="0" fill="rgb(0, 0, 0)" stroke="rgb(66, 66, 66)" stroke-width="1px" opacity="0.25"></line></g></g></g><g><g><line x1="0" y1="319" x2="1250.21875" y2="319" fill="rgb(0, 0, 0)" stroke="rgb(153, 153, 153)" stroke-width="1.5px"></line></g></g><g><g><line x1="125.02187500000001" y1="0" x2="125.02187500000001" y2="377" fill="rgb(0, 0, 0)" stroke="rgb(153, 153, 153)" stroke-width="1.5px"></line></g></g><g><g><g><g><g><path stroke="rgb(255, 112, 67)" stroke-width="2px" d="M126.36586015625,325.17976823449135L126.4596265625,328.3409103304148L127.27226875,327.9407926901263L127.99114453124999,332.1980288270861L129.99149453125,334.2022485178142L130.27279375,335.4982687080465L132.2106328125,331.4189767731102L132.36691015625,331.6440498995993L133.02327499999998,330.1169078940894L133.5858734375,255.8442124238483L134.67981484375,288.5235934272171L134.74232578125,306.6848600734807L134.99236953125,306.0563096703335L138.2116828125,322.17068661769537L139.43064609375,323.62808705582785L139.86822265625,326.5162028837568L141.80606171875,330.61601044493693L142.64995937499998,330.16502323995155L143.15004687500002,330.03197977005743L143.36883515625,330.2554417239338L144.86909765625,329.22584480362366L145.27541875,329.5661986702812L145.7129953125,328.7764468429187L146.02555,323.19098140065705L147.36953515624998,326.15362209313156L147.61957890625,330.57010215627855L149.151096875,331.82693639947604L149.5886734375,329.5272534288293L150.12001640625,327.6490870706506L150.30754921875,325.9298192450699L151.18270234375,325.56635621073514L154.58954843749999,324.73744843491755L155.402190625,321.78634873745597L156.46487656250002,323.15413116987054L156.74617578124997,329.2090186180981L158.37146015625,326.2543035829667L159.55916796875,318.9302035167309L161.93458359375,319.37406581176185L164.4662765625,320.441587715935L166.18532734374998,320.54378558535603L166.27909375000002,320.54692329817806L166.71667031249999,318.0633562961416L166.84169218750003,42.54608712342565L168.3419546875,150.00118036788942L168.56074296875,222.12091462004156L169.93598359375,262.5380752719097L170.87364765625,278.3979753879672L172.655209375,298.63513360235623L173.56161796875,281.1561561690213L174.06170546874998,319.36889349649095L174.56179296875,316.05339558855917L176.31209921875,329.9151731487691L177.906128125,324.9097698096295L178.4687265625,322.5615373606182L178.75002578125,321.15070032202607L179.18760234375,320.2989689451544L179.25011328125,319.78325234965286L179.3438796875,319.48559938877924L180.71912031250002,319.2151581533855L182.68821484375002,319.1370669541543L182.9695140625,319.09036639290235L183.37583515625,319.0600377027187L183.4696015625,319.04083895399754L183.7196453125,319.0319836420923L184.9698640625,319.02648386705573L185.50120703125,319.0236736196153L185.907528125,318.9971676743625L187.59532343749999,319.0053162576885L188.68926484375,319.0103639717087L189.9707390625,319.0118960550351L190.56459296875002,319.0132956952081L193.408840625,319.01118215657954L193.78390625,319.0082333291496L194.158971875,319.00755319709094L194.78408124999999,319.0076786896776L194.9716140625,319.00777713510325L195.5967234375,319.00788989733087L195.75300078125,319.0079244785483L197.159496875,319.0077523170672L197.5345625,347.2450806962706L198.62850390625,335.9433443340049L199.7224453125,329.16836850211854L199.75370078125,325.1033180580219L201.19145234375003,322.6605009832418L201.72279531249998,321.1975315034738L201.78530625,320.3195023387344L201.94158359375,319.7931741875575L202.7229703125,319.47729199881246L202.75422578125003,319.28796412813836L203.12929140625002,319.17438050360425L203.28556874999998,319.1060330979262L204.19197734375,319.06520642724513L204.660809375,319.04076330719494L204.84834218749998,319.02610516579995L208.9740640625,319.01678978641763L210.69311484375,319.0110825664608L211.13069140625,319.00784320120357L212.2246328125,319.0059216597756L215.56896796875,319.0046707554445L217.78810625,319.0041457932074L219.163346875,319.00392167323616L220.00724453125,319.0038165750336L220.1010109375,319.003768318716L221.91382812499998,319.003304164199L223.85166718749997,319.0031085967593L224.94560859375,319.0028473582295L226.00829453125,319.0004406471586L226.44587109375001,319.0007737435822L226.50838203125,319.0010534796582L226.5396375,319.00119109414396L228.3524546875,319.0013143540024L231.57176796875,319.0013043139766L232.8532421875,319.001281689698L233.82216171875,318.99601969525725L237.57281796875,318.9980233080903L238.13541640625002,318.9992274979141L238.19792734375,318.9999073065356L239.76070078125,319.00037029276103L241.51100703125002,319.00064860938676L241.9798390625,319.00082115907423L243.6051234375,319.00091211953605L244.26148828125,319.00099187359217L244.4802765625,319.00101352914567L247.82461171875002,319.0010684305398L248.69976484375,319.00104862528354L249.57491796875,319.0007406696672L251.20020234375,319.00091766780645L253.13804140624998,319.0009222234059L253.48185156250003,319.0004895431373L256.20107734375,319.00073198948286L256.38861015625,319.0008839828885L257.169996875,318.99620355138507L257.32627421875003,318.9980076777579L258.29519375,318.99899240574626L259.57666796875003,318.99984553759384L259.9829890625,318.9974866888102L260.0455,318.99881312304205L262.57719296875,318.99970244633005L265.45269609375003,319.00035914311735L265.9840390625,318.99640652563335L266.64040390625,318.99836982045844L269.70343984375,318.99938054355954L270.82863671875003,319.0001555176558L270.95365859375,319.0006773054099L271.20370234375,319.0009389614979L273.51660703125,319.00112082756664L274.70431484375,319.0012789205711L275.14189140625,319.00132922980646L276.32959921875,318.9931337079333L276.70466484375,318.9962965574921L278.01739453125,318.99827377640526L280.14276640625,318.99942434696135L280.424065625,319.0001400265078L280.51783203125,319.0005459704321L282.89324765625,319.00085034373393L282.95575859375,323.72294893504977L284.64355390624996,321.83421047367415L285.51870703125,320.70092307537925L288.80053125,320.02089457456964L291.6135234375,319.61288438402374L292.11361093749997,319.3681021943931L292.5511875,319.2212114754597L294.45777109375,319.1331012527641L297.427040625,319.0802253678646L297.48955156249997,319.0485105664581L298.4897265625,319.0294981476284L299.677434375,319.0180708091505L302.08410546875,319.01031326138053L302.5529375,319.00600889536156L303.928178125,319.0040126049324L306.58489296875,319.0028098607579L307.1162359375,318.9958219394639L307.21000234375,318.99759308205705L308.27268828125,318.99895778166024L308.33519921875,318.99979068564613L308.5539875,319.00028517183205L309.679184375,319.0005505808636L310.33554921875,319.0007261561246L311.08568046875,319.0006309462703L312.27338828125,318.99978141274516L312.89849765625,319.0002176529937L316.36785468749997,319.0004752856061L316.680409375,319.0006211027771L318.2431828125,319.000722575537L318.83703671875,319.0007565676283L319.24335781250005,319.0008194020603L319.430890625,319.00085765790993L319.83721171875004,319.000882698828L321.61877343749995,319.0008894698788L322.33764921875,319.0009041807641L322.4939265625,319.0008949888826L323.2440578125,319.00089174735064L324.33799921875004,319.00091747983373L325.08813046875,319.00093540556924L328.08865546875,318.9947494572953L328.83878671875,318.99722043937294L330.52658203125003,318.9987076889111L331.432990625,318.999550546647L333.12078593750005,319.00006074718635L334.33974921875006,319.00039970764357L334.43351562500004,319.00057391360775L334.80858125,319.0006795098611L335.77750078125,319.0007997984817L339.02806953125,319.000858536348L339.27811328124994,319.0009063478276L339.7469453125,319.00095120368894L342.77872578125,319.0008108259799L343.59136796875,319.0003458422171L344.27898828124995,319.0006063668219L347.15449140625003,319.00034635336823L347.40453515625,318.99562440375644L348.68600937499997,318.99785639314564L350.59259296874995,318.99916645607425L351.5615125,318.9999917183181L353.5618625,319.0005029941238L354.1244609375,319.0008129968962L354.43701562499996,319.00092843011777L354.46827109375005,319.00106908182534L355.062125,319.0011581344075L355.78100078125004,319.0012146748295L356.37485468750003,319.00125337584774L357.90637265625,319.001243885501L358.21892734374995,319.00128127691926L358.31269375000005,319.00130011628306L358.78152578124997,319.00131831800394L359.81295625,319.00133109746446L362.8759921875,319.00071672576513L363.96993359375006,319.0008518454433L365.31391875,319.0009391269774L365.5014515625,319.0009922252078L367.59556796875,319.00099723944516L368.47072109375,319.00103801794774L368.78327578125,319.0010513698031L369.8772171875,319.00107349105144L371.97133359375,319.00108662082494L372.97150859375,319.0011120832802L374.81558125000004,318.9997337011251L375.90952265625003,319.00064131008105L376.2533328125,319.0011951691139L376.62839843750004,319.0015313669846L377.15974140625,319.00173965515165L380.72286484374996,336.8033637012331L381.81680625,329.6826188137516L382.0043390625,325.41018015438596L384.16096640625,322.8465281793984L385.53620703125,321.3084516568564L386.442615625,320.38560561322686L386.59889296875,319.83179383409805L386.88019218750003,319.49957336145843L389.693184375,319.30025712248323L389.78695078125,319.18060031296454L390.66210390625,319.10891658803257L390.97465859374995,319.0659164980866L392.78747578124995,319.0400135198371L393.8814171875,319.0245392773641L394.91284765625,319.014384272908L394.944103125,319.00864755305486L396.81943125000004,319.0039130165385L400.695109375,319.0023029849587L400.78887578125,319.0015891194493L402.53918203125,319.0014259336285L403.35182421875,318.9812504304993L403.44559062499997,318.9822172465521L404.10195546874996,318.98963108163485L404.32074375,318.99414526304577L406.1335609375,318.9968834134772L406.32109375,318.99852695012186L408.07140000000004,318.99952027751567L408.32144375,319.00009692748773L413.41608515625,319.0004850034928L413.63487343749995,319.0006352243988L414.47877109375,318.9968675381064L416.22907734375,318.9985476800803L417.22925234375,318.99789193448146L419.22960234375,318.9982226103978L419.32336875,318.9825502523854L419.94847812499995,318.98982712192156L420.16726640625,318.9943484236054L420.97990859375,318.98584285216145L423.16779140625005,318.9918327135161L423.449090625,318.99548548883445L423.66787890625,318.997700621838L424.0742,318.999028731998L424.7618203125,318.9998074196989L425.94952812500003,319.0000822741755L426.8871921875,319.00046821838293L427.60606796875004,319.00070655721015L428.16866640624994,319.0008487792054L430.35654921875,319.0009534039639L432.70070937500003,319.0010181594176L433.950928125,319.0007899869742L434.701059375,319.000850326514L436.73266484375,318.99948256582513L439.17059140625,318.9996104349783L439.32686874999996,318.9688615703451L439.42063515625,318.9794607410417L440.23327734375005,318.9880662484852L442.85873671875004,318.99324047002364L443.3900796875,318.9964013744469L445.60921796875,318.99835881933706L446.23432734375,318.9994301663052L446.45311562499995,318.99999147251367L449.98498359375,319.0002316851236L450.07874999999996,319.0004221330095L450.73511484374995,319.0004938384942L452.5791875,319.0006026675357L452.89174218750003,319.0006497644313L453.0167640625,319.00069513107417L453.92317265624996,319.0006623980831L454.954603125,319.00068960003836L456.57988750000004,318.9246611211839L457.11123046874997,318.9550365112253L457.54880703125,318.9733437167882L458.04889453125,318.98425900385956L458.5802375,318.9908749945608L459.83045625,318.99482730846654L461.2682078125,318.99721487745194L461.29946328125,318.99865226030175L461.98708359375,318.9994484790724L462.20587187499996,318.999926578197L463.081025,318.9927105958933L463.3935796875,318.9937721588713L463.8936671875,318.9962960219369L464.17496640625,318.99811046547546L464.61254296875,318.99913158946396L465.80025078125,318.99662495011904L465.89401718749997,318.99139758224675L466.956703125,318.9951559357491L467.081725,318.99737629499197L467.80060078124995,318.9986492177674L467.98813359375004,318.9992604539457L468.05064453125004,318.99893998437875L469.30086328125003,318.9996401303121L469.48839609375,319.0000600916292L469.8947171875,319.0003733778065L470.05099453125,319.0005015613081L472.05134453125,319.0006583286782L472.64519843749997,319.00054052482625L472.92649765625,319.0004742306764L474.33299375,319.00064472806935L475.05186953125,319.00074941104737L475.11438046875,319.00073704700367L475.1456359375,319.0006363500128L476.98970859375,319.00067574475895L481.959328125,319.0006012396813L483.61586796874997,319.0006612288879L484.24097734375,319.0006283437856L485.209896875,319.0006782283409L485.49119609375,319.00071139406305L486.02253906249996,319.0007153675769L486.55388203125,319.0007408984571L487.52280156250004,319.0007355573663L489.11683046875,319.0006773757711L489.83570625,319.0007181208024L490.2732828125,319.0007435909103L492.5861875,319.00074224217985L496.1493109375,319.000697380838L499.1498359375,318.9990273429396L499.30611328124996,318.998463580636L500.43131015625,318.9994251057448L501.40022968750003,318.9998683888307L504.43201015625,318.9991027307084L505.24465234375003,318.99973424134475L505.36967421875,319.0001963395358L505.86976171875,319.0004813620442L507.18249140625,318.9984555257292L509.18284140625,318.999287030016L509.2766078125,318.999447847406L509.7766953125,318.9902159477118L512.7772203125,318.99450313181495L514.43376015625,318.99680498595166L517.4030296875,318.98085578412076L521.091175,318.9889013430243L521.966328125,318.9934881382883L523.81040078125,318.9964157878138L524.31048828125,318.99826949661855L525.2794078125,318.98428479087136L527.5298015625,318.98793934992176L528.12365546875,318.9925156093234L529.467640625,318.9959419221604L530.09275,318.99793035347375L531.9055671875,318.99912743511396L532.43691015625,318.99982344668484L533.2808078125,319.00033010785324L533.93717265625,319.0006837579373L534.31223828125,319.0008979214122L534.7810703125,319.00102008827463L534.9060921875,319.0010689613187L535.43743515625,319.0011351014994L536.56263203125,319.0010618928376L537.81285078125,319.0010289653159L538.84428125,319.0010054640946L542.2823828125,319.00100198604304L543.93892265625,318.9957120285303L544.06394453125,318.9972182598504L544.68905390625,318.99862513789344L546.220571875,318.99958922475304L547.1269804687499,319.0000543856198L548.4397101562499,319.0002795503169L550.0337390625,319.0005822683437L550.75261484375,319.0007926441939L552.5966875,319.00074918891397L552.69045390625,319.0006500227615L554.722059375,319.0006809141883L555.62846796875,319.000700486334L556.69115390625,319.00071906558367L557.7850953125,319.00067208961394L558.50397109375,318.9784792907413L559.00405859375,318.9871907042223L560.6605984375,318.9925392680355L561.2857078125,318.9957468872722L561.69202890625,318.9976771721152L561.87956171875,318.99883557649554L562.56718203125,318.9994662512937L565.13013046875,318.9998766434542L569.5371515625,319.0001604253642L571.6000125,319.00029513419213L571.8188007812499,319.00041881164066L572.1001,319.00049134302213L572.63144296875,319.0005352890683L573.00650859375,319.0005624734878L573.19404140625,319.0005732162827L575.0381140625001,319.00050681523646L576.6008875,319.00049054465217L578.0698945312499,319.00043113424636L579.19509140625,319.0003962024161L579.9452226562499,319.00037576246905L580.0389890624999,319.00040912663684L582.38314921875,319.00038499518143L582.5706820312499,319.0003707037736L583.50834609375,319.0003565502267L583.7896453124999,319.00012085105345L583.9146671875001,318.9885877587817L584.1022,318.9690652109487L586.977703125,318.9806347532849L587.00895859375,318.98793540971855L587.25900234375,318.9926297343135L587.38402421875,318.99573512798264L587.9153671875,318.99763022077053L589.9157171875,318.9986478683189L590.50957109375,318.9993914039018L591.57225703125,318.999639298804L592.32238828125,318.9998419492637L594.729059375,319.0000484541548L596.69815390625,318.9988155329323L598.13590546875,318.99943969379586L599.51114609375,318.99929357748044L600.105,318.9997806304973L602.19911640625,319.00000140628237L604.0119335937501,318.9996403238444L604.730809375,318.99932247184006L607.26250234375,318.99974223097377L608.13765546875,319.0000616722979L608.6689984375,318.9996551453343L608.731509375,318.9999468795558L609.731684375,319.00006538095727L610.70060390625,319.0002008759508L612.5446765625,319.0001214967529L617.01420859375,318.9996869226681L617.76433984375,318.9999892500832L618.0456390625,319.0002111092043L618.233171875,319.0003218426214L619.6709234374999,318.9944031841401L619.76468984375,318.995616960136L620.35854375,318.99757623788497L620.95239765625,318.99878490483434L624.484265625,318.9993393084314L624.9218421875,318.9958229069579L628.1098999999999,318.9976282385436L628.7662648437499,318.99882241881227L631.01665859375,318.99955013662225L631.32921328125,318.9999124185196L632.9232421875,318.9991462835503L635.1736359375,318.99922001957793L635.8612562500001,318.9989018104886L636.39259921875,318.9995299087692L637.8303507812501,318.99923314816493L638.89303671875,318.9998036880024L640.9246421875,318.9957453697883L642.6124375,316.8565697067954L643.4250796875001,317.7142145835188L643.5813570312499,318.22880061804506L645.8004953125,318.5375418918813L646.9256921875,318.722788694744L648.45721015625,318.8339540129193L650.39504921875,318.9004031452848L650.4263046875,318.9293691513893L651.488990625,318.9579015587992L651.9265671874999,318.9750082302136L653.2392968749999,318.9852925516795L658.45896015625,318.99073140655196L659.4278796875,318.9946714063954L660.490565625,318.996412727482L662.39714921875,318.998067935599L662.70970390625,318.9991304460717L663.86615625,318.9995919465885L664.1162,318.99990524607927L664.89758671875,319.00026058764325L665.4601851562501,319.00042603151365L665.52269609375,319.0004577360991L666.2415718750001,318.9999905733767L666.27282734375,318.9999320543201L666.3040828125,318.9998094148222L666.3978492187499,318.99986928877235L666.991703125,322.8587888608992L668.0856445312501,321.3155188565815L669.0545640625,320.38955954235604L669.71092890625,319.8339867896347L670.27352734375,319.50064397093536L670.58608203125,319.30056501005856L673.36781875,319.180593753605L673.8053953125001,319.10860780236567L674.4305046874999,319.06540639454624L674.71180390625,319.0394230531761L674.9305921875001,319.0226673653401L674.96184765625,319.0137390990133L675.86825625,319.0081750313571L676.1808109375,319.00516104086194L676.8059203125,319.0033524667694L678.96254765625,319.0016016038877L680.494065625,319.0011980771605L680.5253210937499,319.00090800287416L681.52549609375,318.99995939302073L682.71320390625,319.00024577118137L686.1825609374999,318.9995288867749L686.9639476562501,318.9993230306807L687.0577140624999,318.99952170257774L687.33901328125,318.9999456578407L688.2141664062501,319.00016714319935L689.3081078125,318.99434977912927L689.6831734374999,318.99662137033584L690.9021367187501,318.9982510257467L691.6835234375001,318.99897839170507L692.21486640625,318.9990392793097L694.34023828125,318.9994918197448L695.02785859375,318.9996490065207L695.90301171875,318.99999964089085L697.59080703125,318.9999522567723L698.96604765625,319.00027508449165L701.747784375,319.0003232228136L701.77903984375,319.00049033968276L704.748309375,318.9959554324953L706.15480546875,318.9977577583998L709.9367171875,318.99892981506L710.15550546875,318.99963834372755L714.0624390625001,319.00006499209076L715.5627015625,319.0003193744281L716.8129203125001,319.0004809985832L717.59430703125,319.0004877372349L718.1881609375,318.9998506282506L718.34443828125,319.00007894976477L719.0633140625,319.00024219013085L719.750934375,319.00041883028155L720.40729921875,319.00045294452826L722.5326710937501,319.00057779093527L724.1892109375001,319.0005991660894L726.002028125,319.00054186360916L727.37726875,319.000521717634L727.502290625,319.00049770558593L728.2836773437499,319.0004946911985L734.0659390625,319.00048765189183L734.53477109375,319.00042965980106L734.6285375,319.00038922013806L735.3161578124999,318.99823429348953L735.5036906250001,318.9991362128621L737.0039531250001,318.9996855127585L737.4727851562501,319.0000155544337L738.72300390625,318.99913268696L738.91053671875,318.9989893142794L739.34811328125,318.9995931399649L739.6919234375,318.99994418827436L739.9732226562501,319.00011345746753L741.4109742187501,318.99991506392223L741.7547843750001,318.99962061161216L741.9423171875001,318.999701089324L743.78638984375,318.99999051384225L744.6302875,318.9998509806431L745.34916328125,319.00012510530235L747.5370460937501,319.0002008602481L748.22466640625,319.0002751303282L749.256096875,319.0003049795012L749.7874398437499,318.99967028371526L750.006228125,318.9996931253476L751.2564468749999,318.99996234276085L751.66276796875,319.00018783061734L751.8190453125001,318.99981989632425L752.006578125,318.99855229757645L752.10034453125,318.9991606967268L754.47576015625,318.9997084879745L754.507015625,319.00001365709886L754.5695265625001,318.9999035589981L755.8822562500001,319.00014316999784L755.9760226562499,319.000315014863L756.9449421875,319.00039531280464L757.78883984375,319.0003379694848L757.88260625,318.9999133956108L758.03888359375,318.9996249626895L759.7891898437499,319.00000182907695L760.2580218749999,318.99822368167696L760.53932109375,318.9947402753954L760.60183203125,318.9965116040866L762.1333500000001,318.9981072755903L762.5709265625,318.9990786146981L763.9149117187501,318.99960336951744L765.3214078125,318.9998761257527L766.60288203125,319.00007303352L767.0092031250001,319.0001913557919L767.04045859375,319.00022153871885L767.66556796875,319.0002819875102L767.7280789062501,319.00031712338375L767.88435625,319.0003288425461L768.22816640625,319.000346659735L771.6975234375,319.00035807281716L772.35388828125,319.0003665081353L774.47926015625,319.000359820924L774.510515625,319.000211682279L774.60428203125,319.00025032480943L774.6355375,319.000248172904L775.85450078125,319.0002529268951L776.1358,319.00029135494776L776.8859312499999,319.000318047336L777.91736171875,319.0003015759489L778.6987484375001,318.9927972118376L779.8239453125001,318.99573402674895L781.0116531250001,318.9975620902063L782.261871875,318.9979693787375L782.511915625,318.9989240014148L783.512090625,318.99949316508037L783.9184117187501,318.9998078746738L785.91876171875,319.0000418300929L787.9503671875,319.0001111302946L788.6692429687499,319.00022863180266L791.2947023437499,319.00029766655473L791.38846875,319.00032465032206L791.5447460937501,319.00035572508716L793.6388625000001,319.00030043436436L794.2014609375,319.000344113818L796.54562109375,319.0002504743429L797.764584375,319.000292730614L797.7958398437501,319.0002955890653L802.7029484375,319.00033354261706L804.015678125,319.0000645019146L804.0469335937499,319.00018632835116L806.0785390625001,319.0002810252103L806.2660718750001,319.000329950419L806.8911812499999,319.0003549594568L807.0787140624999,319.0003557679379L807.7350789062499,319.00025842764234L807.9226117187501,319.0000636032054L809.79793984375,319.00016325946297L811.6420125,318.914476339806L812.6421875,318.948806384466L812.86097578125,318.9694133992204L819.5496460937501,318.98178054631825L820.3310328125,318.98919193992396L820.7373539062501,318.9936480612538L821.5812515625,318.9963195317314L821.80003984375,318.9979251696086L822.1438499999999,318.9988810368171L822.30012734375,318.99942159646275L822.55017109375,318.9997614935884L822.9877476562501,318.9991673899075L823.86290078125,318.99961423088274L826.019528125,318.9998689243216L826.11329453125,319.000050917384L827.42602421875,319.00014045776464L828.5199656249999,319.00015520585663L829.67641796875,318.99997729922944L832.5206656250001,318.99996988323556L833.020753125,318.9944340860795L836.36508828125,318.99635699769635L836.5838765625,318.99708379100434L836.9589421875,318.9976673539591L838.55297109375,318.9986557933918L838.89678125,318.9992670033319L838.9280367187499,318.9996156191708L841.74102890625,318.9998250734804L841.8347953125,318.9999641645341L846.42934921875,319.0000347055278L846.55437109375,319.00009595167086L846.5856265625,319.00013219070286L847.11696953125,319.0001545190323L847.5858015625,319.0001665320786L847.89835625,319.0001745802355L848.24216640625,319.0001780787466L848.39844375,319.0001721400034L848.55472109375,319.00016070601123L848.67974296875,319.00013734755987L848.86727578125,319.00006920035855L849.6174070312501,319.00007174411485L849.9299617187501,319.00011077325735L850.7426039062501,319.000123120282L850.8051148437501,319.0001499204269L852.1491,319.00015947761636L852.8679757812499,319.0001185614699L854.4620046875,319.0001353762324L855.2121359375001,319.0001430503003L855.80598984375,319.0001412125575L856.24356640625,319.0000346930594L857.2749968749999,319.0000892889883L860.8068648437501,319.00012890198883L862.3383828125,318.9999954248747L864.24496640625,319.0000554584408L864.8700757812501,319.0001114247357L865.2138859375001,319.000119407297L865.8389953125,319.0001075239408L867.7143234375,319.00013540160523L868.1206445312499,319.0001582198591L869.277096875,318.99909455385284L869.90220625,318.9973000223506L870.24601640625,318.99841492497404L872.93398671875,318.99867723152965L873.24654140625,318.9991249344286L877.6535624999999,318.99954925502817L878.8100148437501,318.99978985335184L878.87252578125,318.9999314844389L879.778934375,318.99981448627506L880.9978976562501,318.9999676216612L882.49816015625,318.9998677990105L883.99842265625,319.00000249827855L884.06093359375,319.0000828692158L884.31097734375,319.00011053208493L885.24864140625,319.00012662187L885.9675171875,318.9980080737207L886.40509375,318.99667088864123L888.18665546875,318.99807920328874L891.1871804687501,318.99893003439047L892.5936765624999,318.9946657001669L892.7186984374999,318.99506934862626L894.5940265625001,318.9971117751615L896.031778125,318.99807424411836L896.9694421875,318.99892193305595L897.6570624999999,318.99943235512904L897.90710625,318.99973679864956L899.8762007812501,318.9998384730627L901.7202734374999,318.99991791138217L902.6579375,318.9988335091021L903.3455578125,318.9993690202586L904.37698828125,318.99968491013163L905.283396875,318.99980352215744L906.68989296875,318.99995846906234L907.90885625,319.0000456062228L910.5968265625,319.00011124853404L912.87847578125,318.9997644452186L913.6598625,318.9999388949739L914.06618359375,319.00004838133464L914.3474828125,319.00008827196433L916.81666484375,319.0001338073816L918.6607375,319.0000262943165L922.2238609375,318.9992876857025L922.6926929687501,318.99943137967085L924.31797734375,318.9997483657417L925.161875,318.9999199984139L927.0997140625001,319.0000341547654L927.88110078125,319.00010892678966L930.6628374999999,319.0000715171015L931.81928984375,319.0001005693792L932.91323125,319.0001134863626L933.41331875,319.0001250899222L933.94466171875,319.00011798026736L935.2261359375,319.00012797772894L938.6017265625001,319.0001342773438L939.1018140625,319.0001342128321L939.75817890625,319.00012382966946L940.039478125,319.0001280227469L940.5395656249999,319.00013438833895L942.5086601562499,318.9999389724107L942.539915625,318.9998721213404L942.9774921874999,318.9998815649732L946.41559375,318.9999140878229L946.82191484375,318.9997112201685L947.1657250000001,318.99975864974664L949.9787171875,318.99983348650386L950.291271875,318.9965721126501L952.38538828125,318.99800242940677L953.69811796875,318.9987295036261L958.63648203125,318.9992978438471L959.82418984375,318.9996232988531L961.26194140625,318.99967820190477L961.32445234375,318.9997384128265L962.57467109375,318.9999027929142L962.6059265625,318.9999953135127L962.63718203125,319.00004170030263L963.13726953125,319.0000831020492L963.5435906250001,319.0000615792209L963.6061015625,318.9999520737622L966.7003929687501,319.0000316351335L971.3887132812499,318.9999527734008L973.3890632812501,319.00003321044176L973.57659609375,319.00008149862487L973.76412890625,319.00011031421116L973.88915078125,319.00011192439007L973.92040625,319.000121078154L976.26456640625,319.0001330667762L977.51478515625,319.0001398981853L979.2338359375,319.00002261209L982.64068203125,318.99984440339966L982.9844921875,318.999871425862L983.2345359375,318.9999730402632L984.7347984375,319.0000324485965L985.4849296875,318.9998622067672L986.7351484375,318.99994854579745L986.8289148437501,318.99999836639876L987.797834375,319.0000600515414L988.1103890625,319.0000978165505L988.3291773437501,319.00010552223796L988.89177578125,319.0001099769537L990.6733375,319.000123581209L991.2984468750001,319.00013191539176L991.39221328125,319.00014126938447L992.048578125,319.00013558268193L994.7365484375,319.00014444773007L997.58079609375,319.00001702697307L997.64330703125,319.00002884423117L998.64348203125,319.0000645317968L999.20608046875,319.0000863036106L1008.051378125,318.9970436496918L1008.8640203125,318.99827475797923L1010.2392609375,318.99902898738117L1011.9583117187499,318.999418757337L1013.89615078125,318.99971608246625L1014.302471875,318.99988749890673L1017.177975,318.99999773982347L1018.08438359375,319.0000642801726L1019.303346875,318.9958550232564L1021.33495234375,318.99756250706446L1028.054878125,318.9985981640643L1030.52406015625,318.99917398825687L1031.33670234375,318.9995647773895L1032.02432265625,318.99978946508804L1032.6181765625,318.99993963610825L1033.2432859375,319.0000255444232L1033.39956328125,319.0000811424219L1033.89965078125,319.00009552726647L1034.27471640625,319.0000849982037L1034.77480390625,319.0000557842488L1035.6187015625,319.0000788738512L1037.7440734375,319.000008904251L1039.27559140625,319.00007465306254L1039.6819125,319.00011277899284L1039.93195625,319.0001342809599L1041.1196640625,319.00013561539026L1042.90122578125,319.0001327226401L1045.15161953125,319.000124478119L1046.18305,319.000117593272L1046.40183828125,319.0001373290613L1046.6831375000002,319.00014974400875L1048.2459109375,319.0001537844227L1048.33967734375,319.0001443039369L1048.9960421875,319.0001043433674L1049.3711078125,318.99989710631365L1049.9649617187501,318.9999779574685L1050.558815625,319.0000500108247L1054.809559375,319.000095745078L1057.3412523437498,319.0000090236833L1057.3725078125,318.99778727745985L1058.43519375,318.9987388716058L1059.02904765625,318.99929625726026L1060.46679921875,318.999552794295L1062.71719296875,318.99980410390583L1062.8734703124999,318.99994917493126L1063.6861125,319.0000275795257L1065.1238640625,318.99997157346655L1065.59269609375,319.00003096488706L1066.9991921875,319.0000844750817L1068.15564453125,319.0000313634884L1069.4996296875001,319.0000906409411L1070.1247390624999,319.0001267424577L1070.312271875,319.00014745968423L1070.71859296875,319.0001620576252L1071.59374609375,319.0001512919657L1072.9377312499998,318.9994961862515L1074.18795,318.99976753663486L1075.8757453125002,318.999227993109L1076.28206640625,318.99954593800885L1077.063453125,318.9997552556688L1077.28224140625,318.9999271837023L1077.40726328125,319.0000110410221L1080.5015546875,318.9999489673887L1080.59532109375,318.99994329309516L1081.2829414062498,319.00003992809235L1081.84553984375,319.0000988359731L1082.84571484375,319.00011471084815L1084.78355390625,319.00013739901755L1085.22113046875,319.00015826924346L1085.7524734375002,319.00016484754696L1085.78372890625,319.00017493778506L1087.09645859375,317.98182776459475L1090.19075,318.38914672899693L1091.03464765625,318.633538851365L1095.5979460937501,318.7801744210918L1097.2544859375,318.8681517123604L1100.6300765624999,318.92093830631126L1100.97388671875,318.9526144993747L1104.8183093750001,318.97161974166454L1106.66238203125,318.98272619443355L1107.818834375,318.98967522331554L1108.47519921875,318.9938449501594L1109.6316515624999,318.99634632291685L1110.7568484375,318.99784719015133L1110.78810390625,318.99873909062785L1111.569490625,318.9992831203155L1113.5073296875,318.99960663058897L1113.6948625,318.99980074387446L1114.16369453125,318.9999113352234L1115.72646796875,318.99998696264447L1116.53911015625,319.000032349096L1117.0704531249999,319.00005631069297L1117.78932890625,319.00007403553724L1119.22708046875,319.00007548273953L1121.2586859375,318.9999338219018L1121.4774742187499,318.99998174460586L1121.7275179687501,318.9996666512201L1123.22778046875,318.9998400183084L1123.5090796875,318.9999437129552L1125.35315234375,319.000006634991L1125.7594734375,319.00003345303344L1130.29151640625,319.0000486032613L1130.66658203125,319.00004801878646L1131.6980125,319.0000605192649L1131.7605234375,319.00007389831336L1133.0107421875,319.0000819089677L1135.04234765625,318.9999653401652L1137.35525234375,319.0000195823885L1138.824259375,319.0000051121141L1139.9494562500001,319.00001965554804L1140.85586484375,319.00005312301914L1141.7622734375,319.00007182711227L1142.16859453125,319.0000842820828L1142.2623609375,319.000088241724L1144.325221875,319.00008590906623L1144.41898828125,319.0000890678594L1145.7629734375,319.0000908246779L1146.9819367187501,319.0000846364576L1147.29449140625,319.0000220706695L1147.3882578125,318.9985754068958L1149.04479765625,318.9991773190959L1152.576665625,318.9994687149136L1152.6391765625,318.9990122967388L1153.17051953125,318.99943915807L1153.3893078125,318.99968518962993L1153.42056328125,318.99985157081886L1153.6393515625,318.9999483707404L1155.6709570312498,318.99998455422104L1155.79597890625,319.0000191646628L1156.54611015625,318.9999974170372L1156.92117578125,319.0000101932703L1157.327496875,319.000034307143L1157.54628515625,319.00006261354L1160.0779781249998,318.9998237777956L1161.10940859375,318.99988186157384L1161.23443046875,318.9999372146689L1162.078328125,319.0000004116048L1162.1408390625,319.0000393068516L1164.23495546875,319.00005033699665L1164.42248828125,319.0000512164835L1164.95383125,318.99986061946686L1167.1417140625,318.99995547637263L1167.45426875,319.00001469286485L1167.98561171875,319.0000416236878L1168.2044,319.00003273924125L1168.29816640625,319.00005731033775L1168.73574296875,319.00006371193217L1169.079553125,318.9988701382708L1173.330296875,318.99921982411996L1174.48674921875,318.99957457082684L1176.2058,318.9997859266209L1176.42458828125,318.99990469493093L1178.45619375,318.9999787991107L1179.23758046875,319.00002028556435L1179.5188796875,319.0000512073892L1179.8939453125,319.00006976902984L1180.48779921875,319.00008280957303L1181.0191421875,319.0000774651026L1181.48797421875,319.0000730838998L1182.7069374999999,319.00007883246025L1183.082003125,319.0000869768302L1183.86338984375,319.00009568395797L1184.80105390625,319.0001007563469L1185.0198421875,319.000100964122L1186.832659375,319.0000261458911L1187.17646953125,319.00005471435657L1188.2704109375,319.00006613655387L1188.86426484375,319.00008262655876L1189.0830531249999,319.0000884913266L1190.5208046875,318.9979296906938L1191.2709359374999,318.9985410499616L1192.1460890625,318.9991679365443L1192.23985546875,318.99954471697407L1193.333796875,318.9997697848599L1195.4591687500001,318.99976803499806L1196.24055546875,318.999903996006L1197.30324140625,318.9999859348762L1197.3970078125,319.0000323974181L1199.0222921875,318.9999881112625L1199.05354765625,318.99995633839563L1199.30359140625,318.99998803082894L1199.7099125,318.9987631270967L1201.42896328125,318.9993023386037L1201.96030625,318.9996252531435" style="fill: none;" fill="none"></path></g></g></g></g><g opacity="0.2"><g><g><g><path stroke="rgb(255, 112, 67)" stroke-width="2px" d="M126.36586015625,325.17976823449135L126.4596265625,330.2375955879688L127.27226875,327.5566797554493L127.99114453124999,337.20453852415085L129.99149453125,336.8189577460289L130.27279375,337.2911311984062L132.2106328125,325.58552403748035L132.36691015625,331.9722086787224L133.02327499999998,327.8646700680256L133.5858734375,145.55791568756104L134.67981484375,337.2462653517723L134.74232578125,333.82792723178864L134.99236953125,305.1155363917351L138.2116828125,346.31068229675293L139.43064609375,325.81247459352016L139.86822265625,330.8463397026062L141.80606171875,336.76398688554764L142.64995937499998,329.488656938076L143.15004687500002,329.8324348330498L143.36883515625,330.5906142294407L144.86909765625,327.6815058887005L145.27541875,330.07671827077866L145.7129953125,327.5918346941471L146.02555,314.8128494024277L147.36953515624998,330.59756207466125L147.61957890625,337.194803416729L149.151096875,333.712184548378L149.5886734375,326.07773250341415L150.12001640625,324.8318392634392L150.30754921875,323.35091845691204L151.18270234375,325.0211617797613L154.58954843749999,323.4940869361162L155.402190625,317.3596995435655L156.46487656250002,325.205804720521L156.74617578124997,338.29134953022003L158.37146015625,321.8222311064601L159.55916796875,307.94405353069305L161.93458359375,320.0398592501879L164.4662765625,322.0428705662489L166.18532734374998,320.6970823891461L166.27909375000002,320.5516298674047L166.71667031249999,314.33800579607487L166.84169218750003,-370.7298164367676L168.3419546875,311.1838201880455L168.56074296875,330.3005159795284L169.93598359375,323.1638162434101L170.87364765625,302.18782556056976L172.655209375,328.9908709228039L173.56161796875,254.93769001960754L174.06170546874998,376.6879994869232L174.56179296875,311.08014872670174L176.31209921875,350.70783948898315L177.906128125,317.40166480094194L178.4687265625,319.0391886871075L178.75002578125,319.03444476414006L179.18760234375,319.0213718798477L179.25011328125,319.0096774564008L179.3438796875,319.03911994746886L180.71912031250002,318.809496300295L182.68821484375002,319.0199301553075L182.9695140625,319.0203155510244L183.37583515625,319.01454466744326L183.4696015625,319.0120408309158L183.7196453125,319.0187006742344L184.9698640625,319.0182342045009L185.50120703125,319.0194582484546L185.907528125,318.95740875648335L187.59532343749999,319.0175391326775L188.68926484375,319.017935542739L189.9707390625,319.0141941800248L190.56459296875002,319.01539515546756L193.408840625,319.00801184863667L193.78390625,319.0038100880047L194.158971875,319.00653299900296L194.78408124999999,319.00786692855763L194.9716140625,319.0079248032416L195.5967234375,319.0080590406724L195.75300078125,319.0079763503745L197.159496875,319.00749407484545L197.5345625,389.6010732650757L198.62850390625,318.9907397906063L199.7224453125,319.0059047542891L199.75370078125,319.005742391877L201.19145234375003,318.99627537107153L201.72279531249998,319.00307728382177L201.78530625,319.0024585916253L201.94158359375,319.00368196079216L202.7229703125,319.0034687156949L202.75422578125003,319.0039723221271L203.12929140625002,319.0040050668031L203.28556874999998,319.00351198940916L204.19197734375,319.0039664212236L204.660809375,319.0040986271197L204.84834218749998,319.00411795370746L208.9740640625,319.0028167173441L210.69311484375,319.0025217365255L211.13069140625,319.0029841533178L212.2246328125,319.0030393476336L215.56896796875,319.002794398948L217.78810625,319.0033583498516L219.163346875,319.0035854932794L220.00724453125,319.0036589277297L220.1010109375,319.00369593423966L221.91382812499998,319.0026079324234L223.85166718749997,319.0028152455998L224.94560859375,319.00245550043473L226.00829453125,318.99683058055234L226.44587109375001,319.00127338821767L226.50838203125,319.001473083772L226.5396375,319.00139751587267L228.3524546875,319.00149924379L231.57176796875,319.001289253938L232.8532421875,319.00124775328004L233.82216171875,318.9881267035962L237.57281796875,319.0010287273399L238.13541640625002,319.00103378264976L238.19792734375,319.0009270194678L239.76070078125,319.0010647720992L241.51100703125002,319.00106608432543L241.9798390625,319.00107998360545L243.6051234375,319.0010485602288L244.26148828125,319.0011115046764L244.4802765625,319.00104601247585L247.82461171875002,319.00115078263116L248.69976484375,319.00101891739905L249.57491796875,319.00027873624276L251.20020234375,319.0011831650154L253.13804140624998,319.00092905680503L253.48185156250003,318.9998405227343L256.20107734375,319.0010956590013L256.38861015625,319.001111972997L257.169996875,318.98918290412985L257.32627421875003,319.00071386731724L258.29519375,319.0004694977288L259.57666796875003,319.0011252353652L259.9829890625,318.9939484156348L260.0455,319.00080277438974L262.57719296875,319.00103643126204L265.45269609375003,319.0013441882984L265.9840390625,318.9904775994073L266.64040390625,319.001314762696L269.70343984375,319.0008966282112L270.82863671875003,319.0013179788002L270.95365859375,319.001459987041L271.20370234375,319.00133144563006L273.51660703125,319.0013936266696L274.70431484375,319.00151606007785L275.14189140625,319.0014046936594L276.32959921875,318.98084042512346L276.70466484375,319.0010408318303L278.01739453125,319.00123960477504L280.14276640625,319.00115020279554L280.424065625,319.00121354582734L280.51783203125,319.00115488631855L282.89324765625,319.0013069036868L282.95575859375,330.8060968220234L284.64355390624996,319.0011027816108L285.51870703125,319.0009919779368L288.80053125,319.00085182335533L291.6135234375,319.00086909820493L292.11361093749997,319.0009289099471L292.5511875,319.00087539705964L294.45777109375,319.00093591872064L297.427040625,319.0009115405155L297.48955156249997,319.00093836434826L298.4897265625,319.0009795193837L299.677434375,319.0009298014338L302.08410546875,318.99867693972556L302.5529375,318.9995523463331L303.928178125,319.0010181692887L306.58489296875,319.00100574449607L307.1162359375,318.985340057523L307.21000234375,319.00024979594673L308.27268828125,319.0010048310651L308.33519921875,319.00104004162495L308.5539875,319.0010269011109L309.679184375,319.0009486944109L310.33554921875,319.000989519016L311.08568046875,319.00048813148896L312.27338828125,318.99850711245745L312.89849765625,319.00087201336646L316.36785468749997,319.00086173452473L316.680409375,319.00083982853357L318.2431828125,319.00087478467685L318.83703671875,319.0008075557653L319.24335781250005,319.00091365370827L319.430890625,319.0009150416845L319.83721171875004,319.000920260205L321.61877343749995,319.00089962645507L322.33764921875,319.00092624709214L322.4939265625,319.0008812010601L323.2440578125,319.00088688505275L324.33799921875004,319.0009560785584L325.08813046875,319.0009622941725L328.08865546875,318.98547053488437L328.83878671875,319.0009269124894L330.52658203125003,319.00093856321837L331.432990625,319.00081483325084L333.12078593750005,319.00082604799536L334.33974921875006,319.0009081483295L334.43351562500004,319.0008352225541L334.80858125,319.00083790424105L335.77750078125,319.00098023141254L339.02806953125,319.0009466431475L339.27811328124994,319.0009780650471L339.7469453125,319.0010184874809L342.77872578125,319.0006002594164L343.59136796875,318.9996483665727L344.27898828124995,319.00099715372926L347.15449140625003,318.9999563331876L347.40453515625,318.9885414793389L348.68600937499997,319.00120437722944L350.59259296874995,319.0011315504671L351.5615125,319.0012296116838L353.5618625,319.00126990783247L354.1244609375,319.00127800105474L354.43701562499996,319.00110157995005L354.46827109375005,319.0012800593868L355.062125,319.0012917132808L355.78100078125004,319.00129948546237L356.37485468750003,319.0013114273752L357.90637265625,319.0012296499808L358.21892734374995,319.0013373640468L358.31269375000005,319.00132837532874L358.78152578124997,319.0013456205852L359.81295625,319.0013502666552L362.8759921875,318.9997951682162L363.96993359375006,319.00105452496064L365.31391875,319.0010700492785L365.5014515625,319.00107187255344L367.59556796875,319.00100476080115L368.47072109375,319.0010991857016L368.78327578125,319.0010713975862L369.8772171875,319.0011066729239L371.97133359375,319.00110631548523L372.97150859375,319.001150276963L374.81558125000004,318.99766612789244L375.90952265625003,319.00200272351503L376.2533328125,319.00202595766314L376.62839843750004,319.0020356637906L377.15974140625,319.00205208740226L380.72286484374996,363.5057997703552L381.81680625,319.0015014825294L382.0043390625,319.0015221653375L384.16096640625,319.00105021691706L385.53620703125,319.00133687304333L386.442615625,319.00133654778256L386.59889296875,319.0010761654048L386.88019218750003,319.00124265249906L389.693184375,319.0012827640203L389.78695078125,319.00111509868657L390.66210390625,319.0013910006346L390.97465859374995,319.00141636316766L392.78747578124995,319.00115905246275L393.8814171875,319.0013279136547L394.91284765625,318.9991517662238L394.944103125,319.00004247327524L396.81943125000004,318.996811211764L400.695109375,318.99988793758894L400.78887578125,319.00051832118515L402.53918203125,319.0011811548975L403.35182421875,318.9509871758055L403.44559062499997,318.9836674706312L404.10195546874996,319.00075183425906L404.32074375,319.0009165351621L406.1335609375,319.0009906391242L406.32109375,319.00099225508893L408.07140000000004,319.0010102686065L408.32144375,319.00096190244585L413.41608515625,319.0010671175005L413.63487343749995,319.00086055575775L414.47877109375,318.99121600866783L416.22907734375,319.0010678930412L417.22925234375,318.99690831608314L419.22960234375,318.99871862427244L419.32336875,318.95904171536677L419.94847812499995,319.00074242622577L420.16726640625,319.0011303761312L420.97990859375,318.9730844949954L423.16779140625005,319.0008175055482L423.449090625,319.00096465181196L423.66787890625,319.0010233213434L424.0742,319.00102089723805L424.7618203125,319.00097545125027L425.94952812500003,319.0004945558903L426.8871921875,319.0010471346941L427.60606796875004,319.0010640654509L428.16866640624994,319.00106211219827L430.35654921875,319.0011103411016L432.70070937500003,319.0011152925981L433.950928125,319.00044772830915L434.701059375,319.0009408358237L436.73266484375,318.99743092479184L439.17059140625,318.99980223870807L439.32686874999996,318.9227382733952L439.42063515625,318.9953594970866L440.23327734375005,319.0009745096504L442.85873671875004,319.0010018023313L443.3900796875,319.0011427310819L445.60921796875,319.0012949866723L446.23432734375,319.00103718675746L446.45311562499995,319.0008334318263L449.98498359375,319.0005920040385L450.07874999999996,319.0007078048384L450.73511484374995,319.0006013967213L452.5791875,319.0007659110979L452.89174218750003,319.00072040977466L453.0167640625,319.00076318103856L453.92317265624996,319.00061329859636L454.954603125,319.0007304029714L456.57988750000004,318.81061840290204L457.11123046874997,319.00059959628743L457.54880703125,319.0008045251325L458.04889453125,319.0006319344666L458.5802375,319.0007989806127L459.83045625,319.0007557793251L461.2682078125,319.00079623093006L461.29946328125,319.0008083345765L461.98708359375,319.00064280722836L462.20587187499996,319.00064372688394L463.081025,318.98188662243774L463.3935796875,318.99536450333835L463.8936671875,319.0000818165354L464.17496640625,319.00083213078324L464.61254296875,319.00066327544664L465.80025078125,318.99286499110167L465.89401718749997,318.98355653043836L466.956703125,319.0007934660025L467.081725,319.0007068338564L467.80060078124995,319.0005586019306L467.98813359375004,319.0001773082131L468.05064453125004,318.9984592800283L469.30086328125003,319.00069034921216L469.48839609375,319.00069003360477L469.8947171875,319.0008433070725L470.05099453125,319.00069383656046L472.05134453125,319.00089347973335L472.64519843749997,319.0003638190483L472.92649765625,319.0003747894516L474.33299375,319.0009004741587L475.05186953125,319.0009064355145L475.11438046875,319.0007185009381L475.1456359375,319.0004853045266L476.98970859375,319.0007348368781L481.959328125,319.00048948206495L483.61586796874997,319.00075121269765L484.24097734375,319.0005790161322L485.209896875,319.00075305517385L485.49119609375,319.0007611426463L486.02253906249996,319.0007213278477L486.55388203125,319.00077919477735L487.52280156250004,319.0007275457301L489.11683046875,319.0005901033783L489.83570625,319.0007792383494L490.2732828125,319.00078179607226L492.5861875,319.00074021908404L496.1493109375,319.00063008882535L499.1498359375,318.99652228609193L499.30611328124996,318.9976179371806L500.43131015625,319.00086739340804L501.40022968750003,319.0005333134595L504.43201015625,318.9979542435249L505.24465234375003,319.0006815072993L505.36967421875,319.0008894868224L505.86976171875,319.0009088958068L507.18249140625,318.9954167712567L509.18284140625,319.00053428644605L509.2766078125,318.999689073491L509.7766953125,318.9763680981705L512.7772203125,319.00093390796974L514.43376015625,319.00025776715665L517.4030296875,318.9569319813745L521.091175,319.0009696813795L521.966328125,319.0003683311843L523.81040078125,319.00080726210217L524.31048828125,319.0010500598255L525.2794078125,318.96330773225054L527.5298015625,318.99342118849745L528.12365546875,318.99937999842587L529.467640625,319.00108139141594L530.09275,319.0009130004437L531.9055671875,319.00092305757425L532.43691015625,319.0008674640412L533.2808078125,319.0010900996058L533.93717265625,319.00121423306337L534.31223828125,319.00121916662465L534.7810703125,319.0012033385683L534.9060921875,319.0011422708849L535.43743515625,319.00123431177053L536.56263203125,319.00095207984486L537.81285078125,319.0009795740334L538.84428125,319.0009702122625L542.2823828125,319.0009967689657L543.93892265625,318.98777709226124L544.06394453125,318.9994776068306L544.68905390625,319.000735454958L546.220571875,319.0010353550424L547.1269804687499,319.0007521269199L548.4397101562499,319.0006172973626L550.0337390625,319.0010363453839L550.75261484375,319.0011082079691L552.5966875,319.0006840059941L552.69045390625,319.0005012735328L554.722059375,319.0007272513285L555.62846796875,319.00072984455255L556.69115390625,319.0007469344582L557.7850953125,319.0006016256593L558.50397109375,318.9451900924323L559.00405859375,319.0002578244439L560.6605984375,319.0005621137552L561.2857078125,319.00055831612735L561.69202890625,319.00057259937967L561.87956171875,319.0005731830661L562.56718203125,319.00041226349094L565.13013046875,319.0004922316948L569.5371515625,319.0005860982292L571.6000125,319.000497197434L571.8188007812499,319.00060432781356L572.1001,319.0006001400943L572.63144296875,319.0006012081376L573.00650859375,319.0006032501169L573.19404140625,319.0005893304751L575.0381140625001,319.00040721366713L576.6008875,319.00046613877566L578.0698945312499,319.00034201863764L579.19509140625,319.0003438046706L579.9452226562499,319.00034510254864L580.0389890624999,319.00045917288844L582.38314921875,319.0003487979984L582.5706820312499,319.00034926666194L583.50834609375,319.0003353199063L583.7896453124999,318.99976730229355L583.9146671875001,318.9712881203741L584.1022,318.9397813891992L586.977703125,318.99798906678916L587.00895859375,318.99888639436904L587.25900234375,318.999671221206L587.38402421875,319.00039321848635L587.9153671875,319.0004728599524L589.9157171875,319.0001743396415L590.50957109375,319.00050670727614L591.57225703125,319.0000111411573L592.32238828125,319.00014592495336L594.729059375,319.0003582114914L596.69815390625,318.9969661510986L598.13590546875,319.00037593509114L599.51114609375,318.9990744030074L600.105,319.0005112100225L602.19911640625,319.00033256995994L604.0119335937501,318.99909870018746L604.730809375,318.9988456938336L607.26250234375,319.0003718696744L608.13765546875,319.00054083428404L608.6689984375,318.99904535488895L608.731509375,319.000384480888L609.731684375,319.0002431330595L610.70060390625,319.0004041184411L612.5446765625,319.00000242795613L617.01420859375,318.9990350615408L617.76433984375,319.0004427412059L618.0456390625,319.000543897886L618.233171875,319.000487942747L619.6709234374999,318.98552519641817L619.76468984375,318.9974376241298L620.35854375,319.0005151545083L620.95239765625,319.0005979052585L624.484265625,319.0001709138269L624.9218421875,318.9905483047478L628.1098999999999,319.0003362359221L628.7662648437499,319.00061368921524L631.01665859375,319.00064171333725L631.32921328125,319.0004558413657L632.9232421875,318.9979970810964L635.1736359375,318.99933062361924L635.8612562500001,318.99842449685457L636.39259921875,319.0004720561901L637.8303507812501,318.99878800725855L638.89303671875,319.00065949775853L640.9246421875,318.9896578924672L642.6124375,313.647806212306L643.4250796875001,319.00068189860394L643.5813570312499,319.0006796698344L645.8004953125,319.0006538026355L646.9256921875,319.00065889903817L648.45721015625,319.0007019901823L650.39504921875,319.0000768438331L650.4263046875,318.972818160546L651.488990625,319.0007001699141L651.9265671874999,319.00066823733505L653.2392968749999,319.00071903387834L658.45896015625,318.9988896888608L659.4278796875,319.00058140616056L660.490565625,318.99902470911184L662.39714921875,319.00055074777447L662.70970390625,319.00072421178083L663.86615625,319.0002841973637L664.1162,319.0003751953154L664.89758671875,319.00079359998927L665.4601851562501,319.0006741973193L665.52269609375,319.0005052929773L666.2415718750001,318.99928982929305L666.27282734375,318.9998442757351L666.3040828125,318.99962545557537L666.3978492187499,318.99995909969766L666.991703125,328.6471682190895L668.0856445312501,319.00061385010486L669.0545640625,319.00062057101786L669.71092890625,319.0006276605527L670.27352734375,319.0006297428863L670.58608203125,319.0004465687434L673.36781875,319.00063686892463L673.8053953125001,319.00062887550666L674.4305046874999,319.0006042828172L674.71180390625,319.00044804112076L674.9305921875001,318.9975338335862L674.96184765625,319.0003466995231L675.86825625,318.9998289298728L676.1808109375,319.0006400551192L676.8059203125,319.00063960563057L678.96254765625,318.99897530956514L680.494065625,319.00059278706976L680.5253210937499,319.0004728914446L681.52549609375,318.99853647824057L682.71320390625,319.0006753384223L686.1825609374999,318.9984535601652L686.9639476562501,318.99901424653945L687.0577140624999,318.99981971042325L687.33901328125,319.00058159073524L688.2141664062501,319.0004993712373L689.3081078125,318.9856237330241L689.6831734374999,319.0000287571456L690.9021367187501,319.0006955088629L691.6835234375001,319.0000694406426L692.21486640625,318.99913061071675L694.34023828125,319.0001706303974L695.02785859375,318.99988478668456L695.90301171875,319.00052559244614L697.59080703125,318.99988118059446L698.96604765625,319.0007593260707L701.747784375,319.0003954302965L701.77903984375,319.0007410149865L704.748309375,318.9891530717141L706.15480546875,319.0004612472567L709.9367171875,319.00068790005025L710.15550546875,319.0007011367288L714.0624390625001,319.0007049646356L715.5627015625,319.0007009479341L716.8129203125001,319.0007234348159L717.59430703125,319.0004978452125L718.1881609375,318.9988949647741L718.34443828125,319.0004214320361L719.0633140625,319.00048705068L719.750934375,319.00068379050754L720.40729921875,319.00050411589837L722.5326710937501,319.00076506054575L724.1892109375001,319.00063122882057L726.002028125,319.00045590988884L727.37726875,319.0004914986712L727.502290625,319.00046168751396L728.2836773437499,319.0004901696175L734.0659390625,319.00047709293176L734.53477109375,319.00034267166484L734.6285375,319.00032856064354L735.3161578124999,318.9950019035168L735.5036906250001,319.0004890919208L737.0039531250001,319.0005094626031L737.4727851562501,319.0005106169465L738.72300390625,318.9978083857495L738.91053671875,318.99877425525847L739.34811328125,319.0004988784931L739.6919234375,319.0004707607386L739.9732226562501,319.0003673612573L741.4109742187501,318.9996174736043L741.7547843750001,318.99917893314705L741.9423171875001,318.99982180589177L743.78638984375,319.0004246506196L744.6302875,318.99964168084443L745.34916328125,319.00053629229114L747.5370460937501,319.0003144926668L748.22466640625,319.00038653544834L749.256096875,319.0003497532607L749.7874398437499,318.9987182400364L750.006228125,318.99972738779616L751.2564468749999,319.00036616888065L751.66276796875,319.00052606240206L751.8190453125001,318.9992679948846L752.006578125,318.99665089945483L752.10034453125,319.00007329545224L754.47576015625,319.00053017484606L754.507015625,319.0004714107854L754.5695265625001,318.9997384118469L755.8822562500001,319.00050258649753L755.9760226562499,319.0005727821608L756.9449421875,319.000515759717L757.78883984375,319.0002519545051L757.88260625,318.9992765347997L758.03888359375,318.9991923133075L759.7891898437499,319.0005671286581L760.2580218749999,318.99555646057706L760.53932109375,318.989515165973L760.60183203125,318.99916859712357L762.1333500000001,319.00050078284585L762.5709265625,319.0005356233596L763.9149117187501,319.00039050174655L765.3214078125,319.00028526010556L766.60288203125,319.0003683951709L767.0092031250001,319.00036883919984L767.04045859375,319.0002668131092L767.66556796875,319.0003726606974L767.7280789062501,319.00036982719394L767.88435625,319.0003464212896L768.22816640625,319.0003733855183L771.6975234375,319.0003751924405L772.35388828125,319.0003791611125L774.47926015625,319.00034979010707L774.510515625,318.9999894743114L774.60428203125,319.0003082886051L774.6355375,319.0002449450458L775.85450078125,319.00026005788186L776.1358,319.0003489970268L776.8859312499999,319.0003580859184L777.91736171875,319.00027686886824L778.6987484375001,318.98154066567076L779.8239453125001,319.0001392491158L781.0116531250001,319.00030418539245L782.261871875,318.99858031153417L782.511915625,319.0003559354309L783.512090625,319.0003469105786L783.9184117187501,319.00027993906406L785.91876171875,319.0003927632215L787.9503671875,319.0002150805972L788.6692429687499,319.00040488406466L791.2947023437499,319.0004012186828L791.38846875,319.0003651259731L791.5447460937501,319.00040233723485L793.6388625000001,319.0002174982801L794.2014609375,319.0004096329985L796.54562109375,319.0001100151303L797.764584375,319.0003561150206L797.7958398437501,319.00029987674225L802.7029484375,319.0003904729447L804.015678125,318.99966094086085L804.0469335937499,319.00036906800597L806.0785390625001,319.000423070499L806.2660718750001,319.000403338232L806.8911812499999,319.00039247301356L807.0787140624999,319.0003569806595L807.7350789062499,319.00011241719903L807.9226117187501,318.9997713665498L809.79793984375,319.00031274384946L811.6420125,318.78594596032053L812.6421875,319.0003014514559L812.86097578125,319.000323921352L819.5496460937501,319.0003312669651L820.3310328125,319.0003090303326L820.7373539062501,319.0003322432485L821.5812515625,319.0003267374477L821.80003984375,319.00033362642444L822.1438499999999,319.00031483762996L822.30012734375,319.00023243593114L822.55017109375,319.0002713392769L822.9877476562501,318.99827623438614L823.86290078125,319.0002844923456L826.019528125,319.0002509644801L826.11329453125,319.0003239069774L827.42602421875,319.00027476833566L828.5199656249999,319.0001773279946L829.67641796875,318.9997104392887L832.5206656250001,318.9999587592447L833.020753125,318.98613039034535L836.36508828125,318.99924136512163L836.5838765625,318.9981739809664L836.9589421875,318.99854269839125L838.55297109375,319.0001384525408L838.89678125,319.000183818242L838.9280367187499,319.0001385429291L841.74102890625,319.00013925494477L841.8347953125,319.0001728011148L846.42934921875,319.0001405170183L846.55437109375,319.00018782088546L846.5856265625,319.0001865492509L847.11696953125,319.00018801152646L847.5858015625,319.0001845516481L847.89835625,319.0001866524708L848.24216640625,319.00018332651325L848.39844375,319.00016323188856L848.55472109375,319.000143555023L848.67974296875,319.0001023098828L848.86727578125,318.9999669795566L849.6174070312501,319.00007555974935L849.9299617187501,319.0001693169711L850.7426039062501,319.00014164081904L850.8051148437501,319.0001901206442L852.1491,319.0001738134006L852.8679757812499,319.00005718725015L854.4620046875,319.00016059837617L855.2121359375001,319.00015456140227L855.80598984375,319.0001384559432L856.24356640625,318.99987491381216L857.2749968749999,319.0001711828818L860.8068648437501,319.00018832148953L862.3383828125,318.9997952092035L864.24496640625,319.00014550878996L864.8700757812501,319.000195374178L865.2138859375001,319.000131381139L865.8389953125,319.00008969890655L867.7143234375,319.0001772181017L868.1206445312499,319.0001924472399L869.277096875,318.9974990548435L869.90220625,318.9946082250972L870.24601640625,319.0000872789092L872.93398671875,318.99907069136316L873.24654140625,318.99979648877706L877.6535624999999,319.0001857359275L878.8100148437501,319.0001507508373L878.87252578125,319.0001439310695L879.778934375,318.99963898902934L880.9978976562501,319.0001973247404L882.49816015625,318.99971806503436L883.99842265625,319.0002045471806L884.06093359375,319.00020342562175L884.31097734375,319.0001520263886L885.24864140625,319.00015075654755L885.9675171875,318.99483025149675L886.40509375,318.9946651110222L888.18665546875,319.0001916752599L891.1871804687501,319.0002062810431L892.5936765624999,318.9882691988314L892.7186984374999,318.99567482131533L894.5940265625001,319.00017541496436L896.031778125,318.9995179475536L896.9694421875,319.0001934664624L897.6570624999999,319.0001979882386L897.90710625,319.0001934639304L899.8762007812501,318.9999909846824L901.7202734374999,319.0000370688613L902.6579375,318.9972069056821L903.3455578125,319.00017228699335L904.37698828125,319.000158744941L905.283396875,318.9999814401963L906.68989296875,319.0001908894196L907.90885625,319.0001763119635L910.5968265625,319.0002097120009L912.87847578125,318.9992442402454L913.6598625,319.00020056960693L914.06618359375,319.0002126108757L914.3474828125,319.0001481079089L916.81666484375,319.0002021105074L918.6607375,318.99986502471893L922.2238609375,318.99817977278144L922.6926929687501,318.9996469206235L924.31797734375,319.0002238448478L925.161875,319.0001774474222L927.0997140625001,319.00020538929266L927.88110078125,319.0002210848261L930.6628374999999,319.00001540256926L931.81928984375,319.0001441477957L932.91323125,319.00013286183776L933.41331875,319.00014249526157L933.94466171875,319.00010731578504L935.2261359375,319.00014297392136L938.6017265625001,319.00014372676605L939.1018140625,319.0001341160646L939.75817890625,319.0001082549254L940.039478125,319.0001343123631L940.5395656249999,319.000143936727L942.5086601562499,318.9996458485184L942.539915625,318.9997718447348L942.9774921874999,318.9998957304224L946.41559375,318.9999628720975L946.82191484375,318.9994069186869L947.1657250000001,318.9998297941138L949.9787171875,318.99994574163975L950.291271875,318.9916800518695L952.38538828125,319.0001479045418L953.69811796875,318.9998201149551L958.63648203125,319.00015035417846L959.82418984375,319.0001114813622L961.26194140625,318.9997605564822L961.32445234375,318.9998287292092L962.57467109375,319.0001493630457L962.6059265625,319.00013409441044L962.63718203125,319.00011128048754L963.13726953125,319.000145204669L963.5435906250001,319.0000292949785L963.6061015625,318.9997878155741L966.7003929687501,319.0001509771905L971.3887132812499,318.99983448080184L973.3890632812501,319.0001538660031L973.57659609375,319.0001539308996L973.76412890625,319.00015353759045L973.88915078125,319.00011433965847L973.92040625,319.0001348087999L976.26456640625,319.00015104970953L977.51478515625,319.0001501452989L979.2338359375,318.999846682947L982.64068203125,318.99957709036426L982.9844921875,318.99991195955545L983.2345359375,319.0001254618651L984.7347984375,319.0001215610964L985.4849296875,318.9996068440232L986.7351484375,319.0000780543428L986.8289148437501,319.00007309730086L987.797834375,319.0001525792554L988.1103890625,319.00015446406405L988.3291773437501,319.0001170807691L988.89177578125,319.0001166590273L990.6733375,319.00014398759185L991.2984468750001,319.000144416666L991.39221328125,319.00015530037354L992.048578125,319.00012705262816L994.7365484375,319.0001577453022L997.58079609375,318.9998258958376L997.64330703125,319.00004657011823L998.64348203125,319.00011806314524L999.20608046875,319.0001189613313L1008.051378125,318.99247966881376L1008.8640203125,319.0001214204103L1010.2392609375,319.00016033148404L1011.9583117187499,319.00000341227087L1013.89615078125,319.00016207016006L1014.302471875,319.0001446235674L1017.177975,319.0001631011987L1018.08438359375,319.0001640906962L1019.303346875,318.98954113788204L1021.33495234375,319.0001237327765L1028.054878125,319.00015164956403L1030.52406015625,319.0000377245458L1031.33670234375,319.00015096108837L1032.02432265625,319.00012649663586L1032.6181765625,319.0001648926386L1033.2432859375,319.0001544068955L1033.39956328125,319.00016453942L1033.89965078125,319.0001171045333L1034.27471640625,319.00006920460964L1034.77480390625,319.0000119633164L1035.6187015625,319.0001135082548L1037.7440734375,318.9999039498507L1039.27559140625,319.00017327627984L1039.6819125,319.00016996788827L1039.93195625,319.0001665339105L1041.1196640625,319.00013761703576L1042.90122578125,319.00012838351495L1045.15161953125,319.00011211133733L1046.18305,319.0001072660016L1046.40183828125,319.0001669327453L1046.6831375000002,319.00016836643L1048.2459109375,319.0001598450435L1048.33967734375,319.0001300832082L1048.9960421875,319.00004440251314L1049.3711078125,318.99958625073305L1049.9649617187501,319.0000992342009L1050.558815625,319.0001580908588L1054.809559375,319.00016434645795L1057.3412523437498,318.9998789415913L1057.3725078125,318.9944546581246L1058.43519375,319.0001662628247L1059.02904765625,319.0001323357419L1060.46679921875,318.99993759984727L1062.71719296875,319.00018106832204L1062.8734703124999,319.0001667814695L1063.6861125,319.0001451864173L1065.1238640625,318.9998875643778L1065.59269609375,319.0001200520178L1066.9991921875,319.00016474037375L1068.15564453125,318.9999516960984L1069.4996296875001,319.0001795571202L1070.1247390624999,319.0001808947327L1070.312271875,319.0001785355239L1070.71859296875,319.0001839545366L1071.59374609375,319.00013514347665L1072.9377312499998,318.9985135276802L1074.18795,319.00017456220985L1075.8757453125002,318.99841867782015L1076.28206640625,319.00002285535857L1077.063453125,319.0000692321587L1077.28224140625,319.0001850757526L1077.40726328125,319.0001368270018L1080.5015546875,318.99985585693867L1080.59532109375,318.9999347816547L1081.2829414062498,319.0001848805882L1081.84553984375,319.0001871977943L1082.84571484375,319.0001385231608L1084.78355390625,319.0001714312716L1085.22113046875,319.00018957458224L1085.7524734375002,319.00017471500223L1085.78372890625,319.0001900731422L1087.09645859375,316.4543070048094L1090.19075,319.00012517560026L1091.03464765625,319.0001270349171L1095.5979460937501,319.0001277756819L1097.2544859375,319.0001176492633L1100.6300765624999,319.0001181972375L1100.97388671875,319.00012878896996L1104.8183093750001,319.00012760509935L1106.66238203125,318.999385873587L1107.818834375,319.00009876663853L1108.47519921875,319.00009954042525L1109.6316515624999,319.000098382053L1110.7568484375,319.000098491003L1110.78810390625,319.00007694134274L1111.569490625,319.0000991648469L1113.5073296875,319.0000918959993L1113.6948625,319.00009191380263L1114.16369453125,319.0000772222468L1115.72646796875,319.00010040377606L1116.53911015625,319.0001004287733L1117.0704531249999,319.0000922530885L1117.78932890625,319.00010062280353L1119.22708046875,319.00007765354303L1121.2586859375,318.9997213306451L1121.4774742187499,319.00005362866204L1121.7275179687501,318.9991940111413L1123.22778046875,319.00010006894104L1123.5090796875,319.0000992549253L1125.35315234375,319.0001010180447L1125.7594734375,319.0000736800971L1130.29151640625,319.0000713286031L1130.66658203125,319.0000471420742L1131.6980125,319.0000792699825L1131.7605234375,319.00009396688597L1133.0107421875,319.00009392494917L1135.04234765625,318.9997904869615L1137.35525234375,319.0001009457235L1138.824259375,318.99998340670254L1139.9494562500001,319.0000414706989L1140.85586484375,319.00010332422585L1141.7622734375,319.000099883252L1142.16859453125,319.00010296453866L1142.2623609375,319.00009418118566L1144.325221875,319.0000824100796L1144.41898828125,319.0000938060491L1145.7629734375,319.00009345990566L1146.9819367187501,319.00007535412715L1147.29449140625,318.9999282219874L1147.3882578125,318.9964054112352L1149.04479765625,319.0000801873962L1152.576665625,318.99990580864005L1152.6391765625,318.99832766947657L1153.17051953125,319.0000794500668L1153.3893078125,319.00005423696985L1153.42056328125,319.00010114260226L1153.6393515625,319.00009357062277L1155.6709570312498,319.000038829442L1155.79597890625,319.00007108032537L1156.54611015625,318.99996479559877L1156.92117578125,319.00002935761995L1157.327496875,319.000070477952L1157.54628515625,319.0001050731355L1160.0779781249998,318.99946552417896L1161.10940859375,318.99996898724135L1161.23443046875,319.0000202443114L1162.078328125,319.0000952070086L1162.1408390625,319.00009764972174L1164.23495546875,319.00006688221424L1164.42248828125,319.00005253571385L1164.95383125,318.9995747239418L1167.1417140625,319.00009776173124L1167.45426875,319.0001035176033L1167.98561171875,319.0000820199223L1168.2044,319.0000194125714L1168.29816640625,319.00009416698254L1168.73574296875,319.0000733143238L1169.079553125,318.9970797777787L1173.330296875,318.9997443528937L1174.48674921875,319.00010669088715L1176.2058,319.000102960312L1176.42458828125,319.000082847396L1178.45619375,319.0000899553804L1179.23758046875,319.0000825152447L1179.5188796875,319.00009759012664L1179.8939453125,319.0000976114907L1180.48779921875,319.0001023703878L1181.0191421875,319.00006944839697L1181.48797421875,319.0000665120956L1182.7069374999999,319.0000874553009L1183.082003125,319.00009919338504L1183.86338984375,319.00010874464965L1184.80105390625,319.0001083649304L1185.0198421875,319.0001012757846L1186.832659375,318.99991391854473L1187.17646953125,319.0000975670548L1188.2704109375,319.00008326984994L1188.86426484375,319.00010736156605L1189.0830531249999,319.0000972884784L1190.5208046875,318.9946914897446L1191.2709359374999,318.9994580888633L1192.1460890625,319.00010826641847L1192.23985546875,319.0001098876187L1193.333796875,319.00010738668857L1195.4591687500001,318.9997654102053L1196.24055546875,319.0001079375179L1197.30324140625,319.00010884318135L1197.3970078125,319.00010209123116L1199.0222921875,318.999921682029L1199.05354765625,318.99990867909537L1199.30359140625,319.0000355694789L1199.7099125,318.99692577149835L1201.42896328125,319.00011115586403L1201.96030625,319.0001096249532" style="fill: none;" fill="none"></path></g></g></g></g></g></g><g transform="translate(30, 377)" clip-path="url(#clip_1)"><clipPath id="clip_1"><rect width="1250" height="23"></rect></clipPath><g><g><line x1="0" y1="0" x2="0" y2="5" style="visibility: inherit;" fill="rgb(0, 0, 0)" stroke="rgb(204, 204, 204)" stroke-width="1px"></line><line x1="125.02187500000001" y1="0" x2="125.02187500000001" y2="5" style="visibility: inherit;" fill="rgb(0, 0, 0)" stroke="rgb(204, 204, 204)" stroke-width="1px"></line><line x1="250.04375000000002" y1="0" x2="250.04375000000002" y2="5" style="visibility: inherit;" fill="rgb(0, 0, 0)" stroke="rgb(204, 204, 204)" stroke-width="1px"></line><line x1="375.065625" y1="0" x2="375.065625" y2="5" style="visibility: inherit;" fill="rgb(0, 0, 0)" stroke="rgb(204, 204, 204)" stroke-width="1px"></line><line x1="500.08750000000003" y1="0" x2="500.08750000000003" y2="5" style="visibility: inherit;" fill="rgb(0, 0, 0)" stroke="rgb(204, 204, 204)" stroke-width="1px"></line><line x1="625.109375" y1="0" x2="625.109375" y2="5" style="visibility: inherit;" fill="rgb(0, 0, 0)" stroke="rgb(204, 204, 204)" stroke-width="1px"></line><line x1="750.13125" y1="0" x2="750.13125" y2="5" style="visibility: inherit;" fill="rgb(0, 0, 0)" stroke="rgb(204, 204, 204)" stroke-width="1px"></line><line x1="875.1531249999999" y1="0" x2="875.1531249999999" y2="5" style="visibility: inherit;" fill="rgb(0, 0, 0)" stroke="rgb(204, 204, 204)" stroke-width="1px"></line><line x1="1000.1750000000001" y1="0" x2="1000.1750000000001" y2="5" style="visibility: inherit;" fill="rgb(0, 0, 0)" stroke="rgb(204, 204, 204)" stroke-width="1px"></line><line x1="1125.196875" y1="0" x2="1125.196875" y2="5" style="visibility: inherit;" fill="rgb(0, 0, 0)" stroke="rgb(204, 204, 204)" stroke-width="1px"></line><line x1="1250.21875" y1="0" x2="1250.21875" y2="5" style="visibility: inherit;" fill="rgb(0, 0, 0)" stroke="rgb(204, 204, 204)" stroke-width="1px"></line></g><g transform="translate(0, 8)"><text x="0" y="0" dx="0em" dy="0.95em" style="text-anchor: middle; visibility: hidden; font-family: Roboto, sans-serif; font-size: 12px; font-weight: 200;" fill="rgb(33, 33, 33)" stroke="none" stroke-width="1px">-20k</text><text x="125.02187500000001" y="0" dx="0em" dy="0.95em" style="text-anchor: middle; visibility: inherit; font-family: Roboto, sans-serif; font-size: 12px; font-weight: 200;" fill="rgb(33, 33, 33)" stroke="none" stroke-width="1px">0</text><text x="250.04375000000002" y="0" dx="0em" dy="0.95em" style="text-anchor: middle; visibility: inherit; font-family: Roboto, sans-serif; font-size: 12px; font-weight: 200;" fill="rgb(33, 33, 33)" stroke="none" stroke-width="1px">20k</text><text x="375.065625" y="0" dx="0em" dy="0.95em" style="text-anchor: middle; visibility: inherit; font-family: Roboto, sans-serif; font-size: 12px; font-weight: 200;" fill="rgb(33, 33, 33)" stroke="none" stroke-width="1px">40k</text><text x="500.08750000000003" y="0" dx="0em" dy="0.95em" style="text-anchor: middle; visibility: inherit; font-family: Roboto, sans-serif; font-size: 12px; font-weight: 200;" fill="rgb(33, 33, 33)" stroke="none" stroke-width="1px">60k</text><text x="625.109375" y="0" dx="0em" dy="0.95em" style="text-anchor: middle; visibility: inherit; font-family: Roboto, sans-serif; font-size: 12px; font-weight: 200;" fill="rgb(33, 33, 33)" stroke="none" stroke-width="1px">80k</text><text x="750.13125" y="0" dx="0em" dy="0.95em" style="text-anchor: middle; visibility: inherit; font-family: Roboto, sans-serif; font-size: 12px; font-weight: 200;" fill="rgb(33, 33, 33)" stroke="none" stroke-width="1px">100k</text><text x="875.1531249999999" y="0" dx="0em" dy="0.95em" style="text-anchor: middle; visibility: inherit; font-family: Roboto, sans-serif; font-size: 12px; font-weight: 200;" fill="rgb(33, 33, 33)" stroke="none" stroke-width="1px">120k</text><text x="1000.1750000000001" y="0" dx="0em" dy="0.95em" style="text-anchor: middle; visibility: inherit; font-family: Roboto, sans-serif; font-size: 12px; font-weight: 200;" fill="rgb(33, 33, 33)" stroke="none" stroke-width="1px">140k</text><text x="1125.196875" y="0" dx="0em" dy="0.95em" style="text-anchor: middle; visibility: inherit; font-family: Roboto, sans-serif; font-size: 12px; font-weight: 200;" fill="rgb(33, 33, 33)" stroke="none" stroke-width="1px">160k</text><text x="1250.21875" y="0" dx="0em" dy="0.95em" style="text-anchor: middle; visibility: hidden; font-family: Roboto, sans-serif; font-size: 12px; font-weight: 200;" fill="rgb(33, 33, 33)" stroke="none" stroke-width="1px">180k</text></g><line x1="0" y1="0" x2="1250.21875" y2="0" fill="rgb(0, 0, 0)" stroke="rgb(204, 204, 204)" stroke-width="1px"></line></g></g></g></g></svg>