<svg viewBox="0 0 1281 400" xmlns="http://www.w3.org/2000/svg"><g><g><g><g><g><line x1="40" y1="377" x2="35" y2="377" style="visibility: inherit;" fill="rgb(0, 0, 0)" stroke="rgb(204, 204, 204)" stroke-width="1px"></line><line x1="40" y1="348" x2="35" y2="348" style="visibility: inherit;" fill="rgb(0, 0, 0)" stroke="rgb(204, 204, 204)" stroke-width="1px"></line><line x1="40" y1="319" x2="35" y2="319" style="visibility: inherit;" fill="rgb(0, 0, 0)" stroke="rgb(204, 204, 204)" stroke-width="1px"></line><line x1="40" y1="290" x2="35" y2="290" style="visibility: inherit;" fill="rgb(0, 0, 0)" stroke="rgb(204, 204, 204)" stroke-width="1px"></line><line x1="40" y1="261" x2="35" y2="261" style="visibility: inherit;" fill="rgb(0, 0, 0)" stroke="rgb(204, 204, 204)" stroke-width="1px"></line><line x1="40" y1="232" x2="35" y2="232" style="visibility: inherit;" fill="rgb(0, 0, 0)" stroke="rgb(204, 204, 204)" stroke-width="1px"></line><line x1="40" y1="203" x2="35" y2="203" style="visibility: inherit;" fill="rgb(0, 0, 0)" stroke="rgb(204, 204, 204)" stroke-width="1px"></line><line x1="40" y1="174" x2="35" y2="174" style="visibility: inherit;" fill="rgb(0, 0, 0)" stroke="rgb(204, 204, 204)" stroke-width="1px"></line><line x1="40" y1="145" x2="35" y2="145" style="visibility: inherit;" fill="rgb(0, 0, 0)" stroke="rgb(204, 204, 204)" stroke-width="1px"></line><line x1="40" y1="116" x2="35" y2="116" style="visibility: inherit;" fill="rgb(0, 0, 0)" stroke="rgb(204, 204, 204)" stroke-width="1px"></line><line x1="40" y1="86.99999999999999" x2="35" y2="86.99999999999999" style="visibility: inherit;" fill="rgb(0, 0, 0)" stroke="rgb(204, 204, 204)" stroke-width="1px"></line><line x1="40" y1="58" x2="35" y2="58" style="visibility: inherit;" fill="rgb(0, 0, 0)" stroke="rgb(204, 204, 204)" stroke-width="1px"></line><line x1="40" y1="28.999999999999982" x2="35" y2="28.999999999999982" style="visibility: inherit;" fill="rgb(0, 0, 0)" stroke="rgb(204, 204, 204)" stroke-width="1px"></line><line x1="40" y1="0" x2="35" y2="0" style="visibility: inherit;" fill="rgb(0, 0, 0)" stroke="rgb(204, 204, 204)" stroke-width="1px"></line></g><g transform="translate(30, 0)"><text x="0" y="377" dx="0em" dy="0.3em" style="text-anchor: end; visibility: hidden; font-family: Roboto, sans-serif; font-size: 12px; font-weight: 200;" fill="rgb(33, 33, 33)" stroke="none" stroke-width="1px">-24</text><text x="0" y="348" dx="0em" dy="0.3em" style="text-anchor: end; visibility: inherit; font-family: Roboto, sans-serif; font-size: 12px; font-weight: 200;" fill="rgb(33, 33, 33)" stroke="none" stroke-width="1px">-22</text><text x="0" y="319" dx="0em" dy="0.3em" style="text-anchor: end; visibility: inherit; font-family: Roboto, sans-serif; font-size: 12px; font-weight: 200;" fill="rgb(33, 33, 33)" stroke="none" stroke-width="1px">-20</text><text x="0" y="290" dx="0em" dy="0.3em" style="text-anchor: end; visibility: inherit; font-family: Roboto, sans-serif; font-size: 12px; font-weight: 200;" fill="rgb(33, 33, 33)" stroke="none" stroke-width="1px">-18</text><text x="0" y="261" dx="0em" dy="0.3em" style="text-anchor: end; visibility: inherit; font-family: Roboto, sans-serif; font-size: 12px; font-weight: 200;" fill="rgb(33, 33, 33)" stroke="none" stroke-width="1px">-16</text><text x="0" y="232" dx="0em" dy="0.3em" style="text-anchor: end; visibility: inherit; font-family: Roboto, sans-serif; font-size: 12px; font-weight: 200;" fill="rgb(33, 33, 33)" stroke="none" stroke-width="1px">-14</text><text x="0" y="203" dx="0em" dy="0.3em" style="text-anchor: end; visibility: inherit; font-family: Roboto, sans-serif; font-size: 12px; font-weight: 200;" fill="rgb(33, 33, 33)" stroke="none" stroke-width="1px">-12</text><text x="0" y="174" dx="0em" dy="0.3em" style="text-anchor: end; visibility: inherit; font-family: Roboto, sans-serif; font-size: 12px; font-weight: 200;" fill="rgb(33, 33, 33)" stroke="none" stroke-width="1px">-10</text><text x="0" y="145" dx="0em" dy="0.3em" style="text-anchor: end; visibility: inherit; font-family: Roboto, sans-serif; font-size: 12px; font-weight: 200;" fill="rgb(33, 33, 33)" stroke="none" stroke-width="1px">-8</text><text x="0" y="116" dx="0em" dy="0.3em" style="text-anchor: end; visibility: inherit; font-family: Roboto, sans-serif; font-size: 12px; font-weight: 200;" fill="rgb(33, 33, 33)" stroke="none" stroke-width="1px">-6</text><text x="0" y="86.99999999999999" dx="0em" dy="0.3em" style="text-anchor: end; visibility: inherit; font-family: Roboto, sans-serif; font-size: 12px; font-weight: 200;" fill="rgb(33, 33, 33)" stroke="none" stroke-width="1px">-4</text><text x="0" y="58" dx="0em" dy="0.3em" style="text-anchor: end; visibility: inherit; font-family: Roboto, sans-serif; font-size: 12px; font-weight: 200;" fill="rgb(33, 33, 33)" stroke="none" stroke-width="1px">-2</text><text x="0" y="28.999999999999982" dx="0em" dy="0.3em" style="text-anchor: end; visibility: inherit; font-family: Roboto, sans-serif; font-size: 12px; font-weight: 200;" fill="rgb(33, 33, 33)" stroke="none" stroke-width="1px">0</text><text x="0" y="0" dx="0em" dy="0.3em" style="text-anchor: end; visibility: hidden; font-family: Roboto, sans-serif; font-size: 12px; font-weight: 200;" fill="rgb(33, 33, 33)" stroke="none" stroke-width="1px">2</text></g><line x1="40" y1="0" x2="40" y2="377" fill="rgb(0, 0, 0)" stroke="rgb(204, 204, 204)" stroke-width="1px"></line></g></g><g transform="translate(40, 0)" clip-path="url(#clip_0)"><clipPath id="clip_0"><rect width="1241" height="377"></rect></clipPath><g><g><g><line x1="0" y1="0" x2="0" y2="377" fill="rgb(0, 0, 0)" stroke="rgb(66, 66, 66)" stroke-width="1px" opacity="0.25"></line><line x1="82.73333333333333" y1="0" x2="82.73333333333333" y2="377" fill="rgb(0, 0, 0)" stroke="rgb(66, 66, 66)" stroke-width="1px" opacity="0.25"></line><line x1="165.46666666666667" y1="0" x2="165.46666666666667" y2="377" fill="rgb(0, 0, 0)" stroke="rgb(66, 66, 66)" stroke-width="1px" opacity="0.25"></line><line x1="248.20000000000002" y1="0" x2="248.20000000000002" y2="377" fill="rgb(0, 0, 0)" stroke="rgb(66, 66, 66)" stroke-width="1px" opacity="0.25"></line><line x1="330.93333333333334" y1="0" x2="330.93333333333334" y2="377" fill="rgb(0, 0, 0)" stroke="rgb(66, 66, 66)" stroke-width="1px" opacity="0.25"></line><line x1="413.66666666666663" y1="0" x2="413.66666666666663" y2="377" fill="rgb(0, 0, 0)" stroke="rgb(66, 66, 66)" stroke-width="1px" opacity="0.25"></line><line x1="496.40000000000003" y1="0" x2="496.40000000000003" y2="377" fill="rgb(0, 0, 0)" stroke="rgb(66, 66, 66)" stroke-width="1px" opacity="0.25"></line><line x1="579.1333333333333" y1="0" x2="579.1333333333333" y2="377" fill="rgb(0, 0, 0)" stroke="rgb(66, 66, 66)" stroke-width="1px" opacity="0.25"></line><line x1="661.8666666666667" y1="0" x2="661.8666666666667" y2="377" fill="rgb(0, 0, 0)" stroke="rgb(66, 66, 66)" stroke-width="1px" opacity="0.25"></line><line x1="744.6" y1="0" x2="744.6" y2="377" fill="rgb(0, 0, 0)" stroke="rgb(66, 66, 66)" stroke-width="1px" opacity="0.25"></line><line x1="827.3333333333333" y1="0" x2="827.3333333333333" y2="377" fill="rgb(0, 0, 0)" stroke="rgb(66, 66, 66)" stroke-width="1px" opacity="0.25"></line><line x1="910.0666666666666" y1="0" x2="910.0666666666666" y2="377" fill="rgb(0, 0, 0)" stroke="rgb(66, 66, 66)" stroke-width="1px" opacity="0.25"></line><line x1="992.8000000000001" y1="0" x2="992.8000000000001" y2="377" fill="rgb(0, 0, 0)" stroke="rgb(66, 66, 66)" stroke-width="1px" opacity="0.25"></line><line x1="1075.5333333333333" y1="0" x2="1075.5333333333333" y2="377" fill="rgb(0, 0, 0)" stroke="rgb(66, 66, 66)" stroke-width="1px" opacity="0.25"></line><line x1="1158.2666666666667" y1="0" x2="1158.2666666666667" y2="377" fill="rgb(0, 0, 0)" stroke="rgb(66, 66, 66)" stroke-width="1px" opacity="0.25"></line><line x1="1241" y1="0" x2="1241" y2="377" fill="rgb(0, 0, 0)" stroke="rgb(66, 66, 66)" stroke-width="1px" opacity="0.25"></line></g><g><line x1="0" y1="377" x2="1241" y2="377" fill="rgb(0, 0, 0)" stroke="rgb(66, 66, 66)" stroke-width="1px" opacity="0.25"></line><line x1="0" y1="348" x2="1241" y2="348" fill="rgb(0, 0, 0)" stroke="rgb(66, 66, 66)" stroke-width="1px" opacity="0.25"></line><line x1="0" y1="319" x2="1241" y2="319" fill="rgb(0, 0, 0)" stroke="rgb(66, 66, 66)" stroke-width="1px" opacity="0.25"></line><line x1="0" y1="290" x2="1241" y2="290" fill="rgb(0, 0, 0)" stroke="rgb(66, 66, 66)" stroke-width="1px" opacity="0.25"></line><line x1="0" y1="261" x2="1241" y2="261" fill="rgb(0, 0, 0)" stroke="rgb(66, 66, 66)" stroke-width="1px" opacity="0.25"></line><line x1="0" y1="232" x2="1241" y2="232" fill="rgb(0, 0, 0)" stroke="rgb(66, 66, 66)" stroke-width="1px" opacity="0.25"></line><line x1="0" y1="203" x2="1241" y2="203" fill="rgb(0, 0, 0)" stroke="rgb(66, 66, 66)" stroke-width="1px" opacity="0.25"></line><line x1="0" y1="174" x2="1241" y2="174" fill="rgb(0, 0, 0)" stroke="rgb(66, 66, 66)" stroke-width="1px" opacity="0.25"></line><line x1="0" y1="145" x2="1241" y2="145" fill="rgb(0, 0, 0)" stroke="rgb(66, 66, 66)" stroke-width="1px" opacity="0.25"></line><line x1="0" y1="116" x2="1241" y2="116" fill="rgb(0, 0, 0)" stroke="rgb(66, 66, 66)" stroke-width="1px" opacity="0.25"></line><line x1="0" y1="86.99999999999999" x2="1241" y2="86.99999999999999" fill="rgb(0, 0, 0)" stroke="rgb(66, 66, 66)" stroke-width="1px" opacity="0.25"></line><line x1="0" y1="58" x2="1241" y2="58" fill="rgb(0, 0, 0)" stroke="rgb(66, 66, 66)" stroke-width="1px" opacity="0.25"></line><line x1="0" y1="28.999999999999982" x2="1241" y2="28.999999999999982" fill="rgb(0, 0, 0)" stroke="rgb(66, 66, 66)" stroke-width="1px" opacity="0.25"></line><line x1="0" y1="0" x2="1241" y2="0" fill="rgb(0, 0, 0)" stroke="rgb(66, 66, 66)" stroke-width="1px" opacity="0.25"></line></g></g></g><g><g><line x1="0" y1="28.999999999999982" x2="1241" y2="28.999999999999982" fill="rgb(0, 0, 0)" stroke="rgb(153, 153, 153)" stroke-width="1.5px"></line></g></g><g><g><line x1="82.73333333333333" y1="0" x2="82.73333333333333" y2="377" fill="rgb(0, 0, 0)" stroke="rgb(153, 153, 153)" stroke-width="1.5px"></line></g></g><g><g><g><g><g><path stroke="rgb(255, 112, 67)" stroke-width="2px" d="M87.34447566666667,218.950005531311L89.21135333333334,338.5749951601029L96.53408066666667,179.14897719922723L98.38730733333334,148.7955882132108L99.81197533333332,186.770264892793L101.44182199999999,231.90810560698847L119.13848200000001,255.81407758125178L120.303781,179.46609387531433L126.178675,192.49091876338827L129.18479066666666,127.86377565435753L136.67050266666666,110.87663710719785L138.29869466666668,174.54457572098718L140.268989,140.06170786086966L154.09703833333333,157.13040266905477L155.02944300000001,127.3242274619684L173.3681136666667,157.022912590142L180.31564533333332,171.93626967472628L182.65451666666667,124.61695633398885L185.41987833333334,143.2113079715835L190.180768,112.60566523902905L192.70413466666665,82.64274198653177L193.66756433333336,72.20550767697998L196.250499,55.50317271144352L202.110501,47.80186713514348L202.24618366666667,48.98112363374625L203.929807,103.62876850540702L205.22706566666668,139.31729873637337L207.23459,95.77035250853866L210.63948033333335,80.08220558644018L214.15978366666667,127.50933273050285L214.5473893333333,87.52559432604198L217.07572,73.97535579377316L218.25136066666664,57.725212769429L218.65137633333333,53.77512727191723L221.73071099999999,44.445076211402835L226.01092,44.647045867207666L229.26937233333334,113.20822573210165L231.206987,91.70493480628402L239.8253183333333,78.80296030189481L240.52524233333332,131.3817762514216L244.02982633333332,89.84906570889898L244.60854600000002,66.08943942254817L245.05241033333334,126.07366145832421L249.55062166666667,87.8241968770108L249.771106,62.55451805443836L253.13752533333334,46.23271083164508L260.2852716666667,102.55962428857042L261.4381606666667,135.19577346761278L270.83914933333335,167.53746186847897L273.5060583333333,119.66247684413486L274.295748,97.3174866595037L274.95389166666666,67.0904919956142L279.1302703333333,51.27429518869827L283.479148,49.90457683665194L288.31242933333334,45.60274603284707L289.8835353333333,43.021647550565866L291.3276456666667,40.3129885303389L292.77713366666666,37.52779318734435L305.2504246666667,33.53667590376364L305.870511,36.94200540397558L306.41117333333335,38.98520310410263L308.235857,34.411121853818834L309.31925,47.32667255916035L309.780902,37.09600353549612L311.03058899999996,34.437602129940345L311.21756633333337,40.96256127796422L312.37500566666665,37.91753683591992L312.786604,32.61052203241055L313.9796186666667,30.58631321080364L314.3374403333333,32.8517879264822L315.34844166666664,31.89107276453196L320.91019,31.31464366736183L321.08186166666667,32.128786269558525L325.8750173333333,27.977271761735135L326.2642776666667,26.64636298789969L326.6034843333333,27.007817784097124L327.85234399999996,27.22469066181564L327.9967136666667,25.034814397089377L330.46382166666666,21.980888569112253L331.1562996666667,28.848533072325978L331.365615,27.169119774254167L333.5055126666667,30.801471864552507L334.51651400000003,30.08088311873149L336.07976033333335,26.748529871238922L338.9142043333334,35.76911778446053L339.09994066666667,31.32147060153495L343.7689963333333,28.652882291779576L347.6839376666667,27.051729305926376L354.1239003333333,29.571037652697164L354.2413816666667,29.922622600260986L354.538808,28.973573551513947L355.45756166666666,26.084144130908378L358.030982,24.350486478544997L358.81612133333334,27.950291956268426L358.92615666666666,26.630175104619646L359.59795133333336,26.99810505412911L360.93078533333335,29.53886310161887L361.54011633333334,28.74331785232866L361.94757799999996,27.1059906422558L362.00300933333335,27.283594376710784L365.0930993333333,32.03015655688509L365.23871,96.35809504039328L367.44065766666665,69.99485703287864L369.5731093333333,54.17691422836987L370.5419166666666,47.00614853702187L371.5971803333333,38.06368905307175L371.636065,32.698213362701665L372.1692813333333,28.31892801762101L372.80674166666665,26.85135674143118L373.6212513333333,24.810814044858716L373.75197,25.906488418272534L375.1340303333333,25.403892981822136L375.19153,26.262335780450613L375.34210466666667,24.45740146827037L375.573758,23.374440880962226L375.74998,22.724664528577364L375.91296466666665,22.334798717146413L376.4453536666667,23.26087916114647L377.7686733333333,24.97652748804522L378.44625933333333,24.845916423685754L378.75899133333337,23.607549854211474L382.4728906666667,22.864529912526837L384.3658293333333,22.418717947516104L384.7315106666666,22.151230768509667L387.10347533333334,24.310738452463102L387.22674800000004,26.766443080120517L387.9833443333333,24.759865848072348L389.3472033333333,24.71591943970203L390.4107403333333,25.849551655178498L391.5028203333333,90.32972878058267L391.9417206666667,62.89783726834964L395.28993866666667,46.43870236100976L395.72428866666667,36.563221416605884L397.440178,31.7979327808221L398.98811866666665,30.098759659850632L401.9445943333333,27.919255726769013L402.7723413333333,26.61155336691999L403.02716,24.66693202015202L403.938054,36.26015948865675L404.795585,31.61609562405268L407.96840833333334,29.989657365788922L409.17590133333334,26.69379441947334L413.3464886666667,29.35627672082538L413.59137933333335,28.633766023852534L413.916935,25.88025961431154L414.561014,25.38815569944553L414.8394116666667,28.572893488808713L415.26176533333336,28.163736084642583L415.43095500000004,26.758241581644146L415.6055223333333,25.914944879845077L417.3933896666667,26.568966919264412L417.89806300000004,24.64138015155865L419.3119756666667,23.484828090935174L419.78355566666664,25.11089684591842L420.31139433333334,26.086538098908356L422.6593663333333,31.311922790203624L422.92411300000003,29.80715366547951L425.94843,26.584292199287702L427.430184,24.650575319572624L428.1731293333333,24.65034512260219L428.8891863333334,23.4902070735613L432.4856043333333,22.794124244136807L432.74042299999996,23.536474477340708L435.0519923333333,22.82188468640442L437.487248,22.39313081184264L438.50445433333334,22.135878487105593L438.80477633333334,24.3015270836207L440.65262533333333,23.280916250172417L442.2237313333333,22.668549750103434L443.43412,22.301129850062047L444.13487133333336,22.080677910037238L444.24738866666667,23.108406676880993L444.7301376666667,22.565044006128574L444.775641,22.23902640367712L445.8867496666667,22.043415842206258L446.63259066666666,25.406049513966433L447.11947633333335,25.10362963923851L450.00935166666665,23.76217778354309L451.51344366666666,22.957306670125817L452.938939,28.27438400207552L454.64241833333335,26.82463033210391L455.17563466666667,25.954778130120943L455.429626,24.27286687807256L455.975666,23.263720126843538L456.0790826666667,22.65823207610614L461.69502133333333,23.454939176522284L461.773618,22.772963505913374L461.8199486666667,22.363778103548025L463.29922066666666,22.118266862128802L463.4282846666667,21.9709601172773L463.7906566666667,21.882576070366408L464.39254166666666,21.829545642219806L465.9363456666667,22.957727316190496L465.9528923333333,23.634636320572923L466.27141566666666,22.880781792343782L466.76781566666665,22.428469075406245L468.8663466666667,22.157081445243794L469.06821599999995,21.994248867146243L471.485684,23.056549251146386L472.60672066666666,22.533929550687784L475.31085966666666,23.380357661271287L475.746037,22.7282145967628L476.274703,26.976928827199092L478.0609156666667,26.04615722717807L479.0624026666667,24.327694336306834L480.1474503333333,23.296616601784137L480.9921576666666,22.677969961070453L481.1075706666667,22.30678197664228L484.1778046666667,22.08406918598537L484.6692406666667,21.950441511591244L484.7883766666667,23.030264837813327L485.9019673333333,22.51815890268799L488.1167386666667,22.210895341612797L488.3715573333333,22.026537204967713L488.9283526666667,21.915922322980574L490.4465093333333,21.849553393788373L490.48456666666664,22.96973196713166L491.1906956666666,23.64183911113756L491.884001,22.885103466682583L492.395293,22.431062080009525L493.81168766666667,22.158637248005743L494.1186283333334,21.995182348803407L494.313879,21.897109409282038L495.1784423333333,21.838265645569226L496.279623,21.80295938734152L497.4978713333333,21.781775632404965L497.6294173333333,21.76906537944295L497.6848486666667,21.76143922766578L497.77171866666663,21.756863536599454L497.837078,21.754118121959674L498.4964626666667,21.752470873175792L498.7719646666667,21.75148252390547L499.5885426666667,21.750889514343285L500.31990533333334,21.750533708605964L503.3206433333333,21.750320225163616L506.64528233333334,21.750192135098146L508.527052,21.75011528105885L509.20298333333335,21.75006916863534L509.69690133333336,21.750041501181197L509.9980506666667,21.750024900708713L510.2925813333333,21.75001494042523L510.31161000000003,22.91000889511375L513.62508,22.446005337068254L515.084496,22.167603202240937L515.255754,22.00056192134455L515.4551413333334,21.900337152806713L515.4898893333334,21.840202291684065L515.5875146666667,21.804121375010425L515.6685933333333,22.942472755864845L517.181786,22.465483653518916L518.2837940000001,22.179290192111345L518.4608433333334,22.00757411526684L519.2013066666666,21.904544469160065L519.241846,21.842726681496043L519.6778506666667,21.805636008897636L519.7705119999999,21.783381605338594L520.7418013333333,21.770028963203185L520.7897866666666,21.762017377921914L525.1961640000001,21.75721042675314L525.2830339999999,21.754326256051886L526.551336,21.75259575363116L529.4561033333333,21.751557452178655L529.946712,21.750934471307197L531.2042586666666,21.75056068278433L532.282274,21.75033640967061L532.3641799999999,21.750201845802394L532.741444,21.750121107481405L533.5762233333334,21.750072664488837L535.5328666666667,21.750043598693313L535.7488006666666,21.75002615921599L536.112,22.9100156263882L537.102318,22.44600937583294L537.7981053333333,22.167605625499757L539.0068393333333,23.160563306158437L540.3731803333334,22.596337983695072L540.7289336666666,22.257802790217028L542.0898970000001,22.05468167413022L542.129609,21.932809004478127L543.6924416666667,21.85968540268691L543.852117,21.815811241612106L544.368373,21.78948674496726L547.0886449999999,21.77369204698039L547.9184603333333,21.764215228188213L547.9772009999999,21.758529136912937L549.1900716666667,22.915117413006396L550.749595,22.44907044780384L550.9001696666667,22.169442268682296L552.0021776666667,22.00166536120938L552.6392243333333,21.900999216725655L553.732959,21.84059953003538L555.3545323333334,21.804359718021256L555.9907516666667,22.94261576167131L556.691503,22.46556945700279L557.5089083333334,22.17934167420169L557.7695183333334,22.00760500452101L559.863499,21.9045630027126L560.459179,21.842737801627578L560.6263003333333,22.96564261183516L562.226363,22.479385567101083L563.6874336666667,22.187631340260644L564.1755603333334,22.012578804156405L564.7530390000001,21.907547282493855L565.4157329999999,21.84452836949628L566.902451,21.806717021697747L568.0582356666666,21.784030213018674L568.3353923333333,21.7704181278112L569.0253883333334,21.76225087668672L570.82277,21.757350526012L571.5607513333333,21.754410315607203L571.71629,21.75264618936435L571.9206413333334,21.751587713618612L572.1117553333333,22.91095255902978L572.78355,22.446571535417863L573.2021806666667,23.327942852109324L574.2835053333333,22.696765711265588L574.3356273333334,22.31805942675939L576.2364256666667,22.090835656055628L576.7295163333333,21.95450139363338L576.8114223333333,21.87270083618003L576.9495870000001,21.823620501708028L577.0381116666666,21.794172301024812L577.0645863333333,22.936503311473484L578.361845,22.461901986884087L579.4547523333333,22.177141192130453L580.287877,22.00628471527826L580.4376243333332,21.90377082916696L581.883803,21.842262497500176L581.9566083333333,22.965357429358736L582.385167,22.479214457615253L583.2629676666667,22.187528674569155L583.710555,22.012517204741464L584.1258763333334,21.90751032284489L584.1614516666667,23.00450612456558L585.9915129999999,22.502703674739294L586.3021766666667,22.201622204843613L586.7489366666667,22.020973322906162L587.0087193333334,23.072583924602313L590.0326226666667,22.543550354761408L591.9330073333333,22.226130212856837L593.6108393333334,22.03567812771412L593.6133213333334,21.921406876628424L593.761414,23.01284405683568L595.0884566666667,22.507706434101408L596.1255189999999,22.20462386046083L596.667836,22.022774316276518L597.2353866666666,21.913664589765922L598.64599,21.84819875385955L598.9777506666667,21.80891925231574L599.9407666666666,21.78535155138941L600.4959073333333,21.771210930833675L602.5071546666667,21.76272655850021L603.0134826666667,21.757635935100094L604.0873613333333,21.754581561060075L604.7707386666667,21.752748936636007L605.1595853333333,21.751649361981613L605.7759486666666,22.9109895480476L606.5768073333332,22.446593728828578L608.6319033333334,23.327956168155755L609.6743433333334,22.696773700893456L609.7041273333333,22.318064220536076L610.629086,22.09083853232168L611.04358,21.954503119393003L612.6713583333333,21.87270187163578L612.7681563333333,21.823621122981496L612.9526516666667,21.794172673788907L613.6294103333333,21.776503604273366L613.911531,22.9259020934226L615.1496353333333,22.455541256053554L615.632798,22.17332475363215L615.929397,22.003994852179275L616.5606523333333,21.90239691130755L617.748703,21.841438146784515L618.6389136666667,21.804862888070723L619.414125,22.942917663701074L621.1473883333333,22.46575059822062L624.252784,23.339450289790996L624.255266,22.70367017387461L624.60771,22.322202104324735L624.684652,22.093321262594834L624.7897233333333,21.955992757556885L625.9033139999999,21.87359565453416L626.8497833333333,21.824157392720455L627.9145613333334,21.794494435632302L627.946,21.77669666137934L629.0529720000001,21.766017996827618L630.499978,21.7596107980966L630.5860206666667,21.755766478857954L631.9403653333334,22.913459818173386L633.384062,22.448075890904L634.731788,22.16884553454242L640.5049200000001,23.161307251584073L640.7489833333333,22.59678435095044L641.366174,22.258070610570282L641.9659906666667,22.054842366342122L642.4565993333333,21.93290541980531L642.723828,23.0197431827418L644.61263,22.511845909645082L645.051944,22.207107545787043L645.2744966666667,22.024264527472244L645.51856,21.914558716483374L645.6269406666667,21.848735229890003L646.5899566666666,21.80924113793403L646.965566,21.785544682760403L651.0873406666667,21.77132680965622L651.2238506666666,21.762796085793735L651.584568,21.75767765147626L653.6413186666667,21.754606590885725L654.2535453333334,21.752763954531446L655.2926759999999,21.75165837271887L656.67515,21.7509950236313L657.0569643333334,21.750597014178766L657.996815,21.750358208507297L658.0299083333333,21.750214925104338L658.2474970000001,21.750128955062607L659.275045,21.750077373037573L659.543101,21.75004642382252L661.1514370000001,21.750027854293506L661.8083396666666,21.75001671257609L662.6687663333333,21.750010027545674L663.051408,21.750006016527397L663.8564033333332,21.75000360991644L663.8688133333334,21.7500021659499L664.7433046666667,21.75000129956991L664.8276926666666,21.75000077974194L666.1249513333333,21.75000046784519L666.4376833333333,21.75000028070711L667.146708,21.750000168424243L669.6291216666667,22.910000031913167L670.4448723333333,22.446000019147927L670.818827,23.327599942347348L670.9363083333334,22.696559965408387L672.2939623333333,22.317935979245007L672.3957243333333,22.090761587547018L672.471839,21.954456952528204L672.496659,21.872674171516923L672.6943916666667,21.823604502910175L672.7812616666666,21.794162701746064L674.273771,21.776497621047685L674.881861,21.765898572628586L675.4791956666667,21.75953914357713L677.1020100000001,21.75572348614628L677.1954986666667,21.75343409168778L677.9798106666667,21.75206045501267L677.9822926666667,21.751236273007578L679.4044786666667,21.750741763804584L679.762714,21.750445058282736L680.5139326666666,21.750267034969635L680.9118799999999,21.750160220981794L682.0552546666668,21.750096132589054L682.3770873333333,21.750057679553443L683.1613993333333,21.75003460773207L683.3119740000001,21.750020764639242L683.6156053333334,21.750012458783516L686.9572046666666,21.750007475270113L687.1607286666667,21.750004485162076L688.491908,21.750002691097233L689.4731253333333,21.750001614658384L691.5062969999999,21.750000968794993L693.3016103333333,21.75000058127699L693.5531196666667,21.75000034876622L693.8964629999999,21.750000209259717L694.2108496666667,21.750000125555808L694.358115,22.9100000061921L694.5318550000001,22.446000003715255L694.541783,22.167600002229204L696.4893256666667,22.000560001337494L697.1131349999999,21.90033600080249L697.6327003333333,23.000201531340107L697.9462596666667,23.660120849662647L699.878083,22.896072509797623L700.146139,22.43764350587855L700.620201,22.162586103527143L700.657431,23.157551592974883L700.7492649999999,22.594530955784933L700.8576456666666,22.256718573470987L701.0959176666668,22.05403114408256L701.2224996666666,21.93241868644954L701.9116683333333,21.859451211869718L704.4155926666667,21.81567072712186L705.0402293333333,21.78940243627311L707.062232,21.773641461763876L707.231008,21.764184877058312L707.3840646666666,21.75851092623499L709.9049493333333,21.755106555740962L711.2551573333334,21.75306393344459L712.266986,21.751838360066774L712.6111566666666,21.751103016040073L712.649214,21.75066180962403L714.9913946666666,21.750397085774377L716.0015686666667,21.750238251464648L716.0503813333333,21.750142950878782L716.21833,21.750085770527264L716.6286873333332,21.750051462316396L716.861168,21.750030877389797L716.9836133333333,21.750018526433898L717.476704,22.91001104671896L718.2519153333334,22.446006628031387L721.3618613333334,22.167603976818835L722.042343,22.000562386091303L722.3352189999999,23.060337362513362L722.9921216666667,22.53620241750803L724.0693096666666,22.221721450504795L724.1958916666666,22.03303287030288L724.6368603333333,21.919819722181746L724.732831,21.85189183330902L725.3657410000001,21.81113509998542L726.5115976666666,21.786681059991256L726.5835756666667,21.772008635994773L727.0427456666666,21.76320518159689L728.5385643333334,21.757923108958096L729.0308276666666,22.914753796233462L729.1962943333333,22.448852277740087L730.160965,22.169311366644074L730.6813576666667,22.001586819986453L731.980271,21.900952091991893L735.3648916666666,24.160571246552472L735.9680176666666,25.516342739288806L737.5217496666667,24.00980564357325L737.8634383333334,24.265883317002576L738.3834173333333,23.259529990201546L739.6463416666667,22.65571799412093L739.7059096666666,22.293430796472578L740.1940363333333,22.076058477883542L741.1098943333334,21.94563508673008L741.3067996666666,21.86738105203805L742.0439536666667,21.820428631222857L742.4559656666667,21.792257178733692L743.0863936666667,21.775354307240224L744.0907763333333,21.76521258434413L744.4556303333334,21.759127550606497L744.9958790000001,21.75547653036385L745.8463776666667,21.753285918218346L746.2509436666667,21.751971550930985L747.3893543333332,21.75118293055861L747.9933076666667,21.750709758335162L748.8165043333335,22.9104257858597L749.0473303333333,22.446255471515823L749.6190176666667,22.167753282909505L750.401675,22.00065196974572L752.2288406666668,21.900391181847404L753.26218,23.00023463996703L753.3606326666666,22.50014078398024L753.3862799999999,22.200084470388187L754.818394,22.02005068223288L755.2883193333333,21.912030409339756L756.702232,21.847218245603816L757.0116546666666,21.808330947362318L757.2168333333333,21.78499856841735L757.5303926666667,21.770999141050446L758.1947413333334,21.76259948463026L758.6812133333334,21.75755969077815L760.3913113333334,21.754535814466895L760.991128,21.752721488680162L762.3322353333334,21.751632893208093L762.601946,21.75097973592489L764.66697,22.910587772413518L765.1840533333333,22.44635266344809L765.955128,22.167811598068873L767.23584,22.000686958841325L768.769716,21.900412175304798L769.0055060000001,21.840247305182874L770.0661473333334,21.80414838310971L771.2632986666666,21.782489029865854L771.3625786666666,21.769493417919474L772.6408086666665,21.76169605075166L774.6115166666666,21.757017630451017L775.5025546666666,21.75421057827062L777.3988026666666,21.75252634696241L777.4087306666667,21.75151580817744L777.5485500000001,21.75090948490645L778.456962,24.07054568230121L778.896276,23.142327409380744L780.045442,22.585396445628408L781.1044286666666,22.25123786737704L781.9582366666667,22.050742720426243L782.095574,21.930445632255758L782.23953,21.85826737935344L782.2527673333333,21.814960427612057L782.9601373333333,21.788976256567253L783.0801006666667,21.77338575394033L783.0850646666668,21.764031452364225L783.6253133333333,21.75841887141853L783.9115706666666,21.755051322851138L785.3155553333334,22.913030724569282L786.8345393333334,22.447818434741553L787.6337433333333,22.168691060844953L789.062548,22.00121463650694L790.0669306666667,21.900728781904185L790.6411,21.840437269142512L790.6741933333333,22.964262292344124L791.4245846666666,23.638557306265096L791.8059853333333,22.883134383759085L791.8763086666667,22.429880630255454L792.4140753333332,22.15792837815329L792.8376700000001,21.994757026891953L792.9650793333333,21.89685421613515L794.1456840000001,21.838112529681116L794.3334886666667,21.802867517808696L795.0251393333333,21.781720510685197L795.1417933333333,21.769032306411162L798.307998,22.921419314705286L798.3609473333333,22.452851588823133L798.3791486666668,22.17171095329389L798.5404786666667,22.003026571976353L799.5671993333333,21.9018159431858L800.1016566666666,21.841089565911464L801.1341686666667,21.804653739546897L801.4051203333333,21.78279224372815L805.9434573333334,21.769675346236877L808.811822,21.76180520774213L809.829442,21.75708312464528L812.09799,21.75424987478717L813.8271166666667,21.752549924872298L814.093518,21.75152995492334L814.6618960000001,21.75091797295404L816.9122426666668,21.750550783772436L817.4996493333334,21.75033047026344L817.6262313333333,21.750198282158074L818.521406,21.75011896929483L821.266498,21.750071381576884L821.797646,21.750042828946118L822.9236466666666,21.75002569736768L822.934402,21.750015418420602L823.96195,21.75000925105239L824.0322733333333,21.75000555063142L824.9952893333333,21.750003330378863L825.0035626666667,21.750001998227287L826.3984466666667,21.75000119893641L826.5366113333334,21.750000719361832L829.455857,21.750000431617075L830.436247,21.750000258970257L830.7845543333333,21.750000155382182L831.8667063333334,21.750000093229286L832.171165,21.750000055937583L832.8098663333333,21.750000033562518L833.4659416666667,21.750000020137524L834.1385636666666,21.750000012082534L836.440205,21.75000000724953L838.028685,21.750000004349705L838.4324236666666,21.750000002609816L839.7743583333333,21.7500000015659L841.5051396666667,21.750000000939536L843.9027516666666,21.750000000563716L845.3348656666667,21.75000000033824L845.8552583333334,21.75000000020292L847.1930563333333,21.750000000121762L847.4189183333333,21.750000000073044L847.4536663333333,21.75000000004383L848.2528703333332,21.750000000026333L848.7269323333333,21.750000000015746L849.949731,21.750000000009464L851.4050103333333,21.750000000005656L851.433967,21.750000000003396L851.9543596666666,21.750000000002057L852.2555090000001,21.75000000000122L854.6316103333334,21.750000000000718L855.797323,21.750000000000465L859.3796763333334,21.750000000000256L859.5765816666666,21.750000000000174L861.352039,21.75000000000009L861.9055249999999,24.069999991357374L861.9957043333334,23.1419999948144L863.2491143333333,22.585199996888644L863.4079623333333,22.251119998133206L863.551091,22.050671998879935L865.0891036666667,21.930403199327937L866.67717,21.85824191959674L866.8542193333334,21.814945151758057L866.9311613333333,21.788967091054854L870.5023456666667,21.773380254632897L871.1352556666667,21.764028152779776L871.5605049999999,21.75841689166786L872.4594026666666,21.755050135000726L872.5164886666668,21.75303008100044L872.899544,21.751818048600267L875.158164,21.751090829160137L875.7753546666667,21.750654497496093L876.476106,21.750392698497624L876.6581193333334,21.750235619098593L877.694768,21.750141371459183L878.858826,21.750084822875497L879.1541840000001,21.750050893725327L880.2595013333333,22.91003046709375L881.9969013333334,22.446018280256286L882.244274,22.167610968153785L886.0549713333334,22.00056658089228L889.402362,21.900339948535347L890.3169790000001,21.8402039691212L892.9884383333334,21.804122381472723L893.2424296666667,22.942473359742284L893.273041,22.465484015845323L893.887336,22.179290409507203L895.9804893333334,22.007574245704365L896.2038693333333,21.904544547422606L897.4039163333333,21.842726728453542L897.4088803333334,21.805636037072144L897.9301003333333,21.78338162224328L898.9754360000001,21.770028973346005L898.982882,21.762017384007564L899.908668,21.757210430404566L900.0369046666667,21.754326258242724L900.787296,21.75259575494563L901.1761426666667,21.75155745296738L901.5087306666667,21.750934471780415L902.0448426666667,21.750560683068233L902.4427900000001,21.75033640984096L903.222138,21.750201845904602L903.552244,21.75012110754272L905.257378,21.75007266452563L907.9040173333333,22.910043529574008L908.1944113333334,22.446026117744392L908.2415693333334,22.16761567064663L908.868688,22.00056940238798L911.5244280000001,21.90034164143278L911.5302193333334,23.0002049157183L911.5633126666667,23.660122880289613L911.941404,22.896073728173768L912.398092,22.437644236904266L912.7248886666667,23.322586473001156L912.8638806666667,22.693551883800687L913.4537693333333,23.476131061139043L914.0701326666667,22.78567863668342L915.247428,22.37140718201002L915.6089726666667,22.12284430920604L916.0085746666666,21.973706585523637L916.2476740000001,21.8842239513142L918.4947113333333,21.830534370788524L919.516468,21.798320622473117L919.9127606666666,21.778992373483838L920.342974,21.76739542409033L921.6303046666667,22.92043718531284L921.737858,22.4522623111877L923.2684246666666,22.17135738671258L923.9286366666666,22.00281443202756L924.7170853333332,21.901688659216564L925.2242406666667,21.841013195529907L926.560384,21.804607917317938L926.8722886666667,21.782764750390747L928.5104086666666,21.769658850234485L930.630864,21.761795310140677L931.1835226666666,21.757077186084384L932.1804593333334,21.75424631165064L932.4311413333332,21.752547786990387L933.550937,21.75152867219425L934.2525156666667,21.750917203316547L937.3988643333333,21.75055032198992L937.6561650000001,21.75033019319399L940.2552326666666,21.750198115916387L940.8078913333333,22.91011880040843L942.8935986666667,22.44607128024506L943.750716,22.167642768147054L946.0184366666666,23.160585591746816L947.4778526666666,22.596351355048107L947.8038220000001,22.257810813028826L947.9552239999999,22.054686487817314L949.4857906666666,23.092811823548978L949.8489900000001,22.555687094129365L950.0756793333334,22.233412256477656L951.1909246666665,22.040047353886553L951.3927940000001,21.924028412331968L953.0259500000001,21.854417047399174L953.9161606666667,22.97265015929812L953.9674553333334,22.483590095578883L954.4721286666667,22.190154057347314L956.0680546666667,22.0140924344084L956.6165766666667,21.908455460645033L956.9028340000001,21.84507327638703L957.2205299999999,21.80704396583224L958.1852006666667,21.784226379499337L958.4408466666666,21.770535827699597L958.4739400000001,22.922321427478373L959.13167,22.453392856487024L959.834076,22.172035713892186L960.462022,22.003221428335365L961.4258653333334,21.901932857001214L961.62608,21.841159714200703L962.0289913333334,21.80469582852041L962.6370813333333,21.78281749711228L964.8278600000001,21.769690498267344L965.1505199999999,21.761814298960427L965.6005893333333,24.07708857073361L965.828106,23.146253142440163L966.9218406666666,22.587751885464073L967.6548580000001,22.25265113127849L967.808742,22.05159067876708L969.1597773333334,21.930954407260224L970.3594106666667,21.858572644356162L971.0436153333334,22.975143517472286L971.59131,22.485086110483365L974.4509876666667,22.191051666290022L974.8249423333333,22.014630999774017L975.1931056666667,21.908778599864394L975.3370616666667,21.845267159918624L975.752383,21.807160295951178L976.7493196666667,21.784296177570692L977.1373390000001,21.770577706542426L977.1662956666667,22.922346554784095L978.7448476666667,22.45340793287042L979.4501493333333,22.17204475972227L979.506408,22.003226855833358L979.8236903333333,21.9019361135L979.9610276666667,21.84116166810001L980.7726416666666,21.80469700086L981.8614123333333,21.78281820051602L985.3916436666666,22.92969085116821L985.8714970000001,22.457814510700945L985.9095543333333,22.17468870642053L986.092395,22.004813223852327L986.747643,23.062887865170012L986.772463,22.537732719102L987.8901903333334,22.222639631461202L989.5316196666666,22.03358377887675L990.210033,21.92015026732601L991.9391596666667,21.8520901603956L992.118691,21.811254096237345L992.922859,21.786752457742445L993.1007356666668,21.772051474645476L993.7663253333333,21.763230884787237L994.0079066666666,21.757938530872362L995.1190153333333,22.914763049382007L995.5963866666667,22.448857829629215L996.1151246666666,22.169314697777498L996.4841153333333,23.161588749525123L997.5670946666667,22.596953249715067L997.9311213333333,22.25817194982907L998.1346453333334,22.05490316989745L999.3694403333334,21.93294190193844L999.3851596666667,21.859765141163066L999.788071,21.815859084697852L999.793035,21.789515450818705L1000.0164149999999,21.773709270491217L1001.0232796666667,21.764225562294733L1002.0400723333332,21.758535337376852L1002.1128776666667,21.755121202426064L1003.3381583333334,21.753072721455656L1003.5441643333334,21.75184363287337L1004.1514269999999,21.751106179724076L1005.2137230000001,21.750663707834423L1005.2244783333333,22.910398155559225L1006.3074576666667,22.446238893335572L1006.962292,23.327743266859933L1007.6531153333333,22.69664596011597L1008.1445513333333,22.31798757606961L1008.4878946666666,22.090792545641737L1009.4310546666667,21.954475527385036L1010.7514786666667,21.87268531643105L1011.4464386666667,21.823611189858614L1012.4888786666667,21.794166713915196L1012.9695593333333,21.77650002834913L1014.5050900000001,21.765900017009496L1015.1338633333334,21.7595400102057L1017.463634,21.755724006123422L1019.2771486666667,21.753434403674056L1019.285422,21.75206064220445L1019.598154,22.91123631618127L1020.5454506666667,22.44674178970872L1022.7610493333334,22.16804507382526L1024.4794206666666,22.000827044295185L1026.0629366666667,21.900496226577054L1026.135742,21.840297735946237L1026.843112,21.80417864156776L1027.8102646666666,21.782507184940652L1028.146162,21.76950431096441L1028.575548,21.76170258657864L1029.6610093333334,21.757021551947187L1029.6841746666666,21.754212931168322L1029.7362966666667,21.752527758700996L1030.729924,21.75151665522061L1032.1661746666666,21.75090999313235L1032.5930786666665,21.750545995879406L1033.3145133333333,21.750327597527637L1034.2659466666667,21.750196558516585L1034.9236766666668,21.750117935109937L1035.347685,21.75007076106598L1036.702857,21.75004245663954L1037.7916276666667,21.750025473983737L1038.9747143333334,22.910015215248848L1040.4994896666667,22.446009129149303L1042.0399843333332,22.16760547748962L1043.101453,23.16056321735235L1043.2983583333332,22.596337930411423L1043.5374576666666,22.25780275824682L1045.1954336666668,22.054681654948137L1046.9295243333333,21.932808992968894L1046.9874376666667,21.859685395781355L1048.1787976666667,21.8158112374688L1049.286597,21.789486742481255L1049.306453,21.77369204548879L1049.931917,21.76421522729326L1053.4431196666667,21.758529136375934L1053.898153,21.755117481825554L1053.9916416666667,21.753070489095336L1054.702321,21.751842293457205L1054.990233,21.75110537607433L1056.2403336666666,22.910663156503233L1056.4653683333333,22.44639789390193L1056.573749,22.167838736341196L1058.693377,22.00070324180471L1058.8960736666666,23.06042187594144L1063.662341,22.53625312556485L1064.3258623333334,22.22175187533889L1065.1184476666667,22.033051125203368L1066.385095,21.919830675121982L1066.8335096666667,21.851898405073218L1067.407679,21.81113904304391L1070.4299276666666,21.78668342582634L1070.8518676666667,21.772010055495823L1074.1959490000002,21.76320603329752L1074.970333,21.757923619978474L1075.1573103333333,21.754754171987077L1075.2598996666666,21.752852503192283L1077.8974383333332,21.751711501915374L1077.9603156666667,21.7510269011492L1078.1191636666665,21.75061614068954L1079.7316363333334,21.750369684413734L1080.0468503333334,21.750221810648192L1080.862601,21.750133086388935L1081.0247583333335,21.750079851833373L1083.9981943333332,21.750047911100033L1084.18724,21.75002874665997L1084.303894,24.070017239353323L1084.7084599999998,23.142010343612004L1084.797812,22.58520620616722L1085.388528,22.251123723700317L1085.9924813333334,22.050674234220192L1086.8495986666667,21.930404540532127L1088.3925753333333,21.85824272431928L1088.5522506666666,21.81494563459154L1090.0025660000001,21.788967380754926L1092.4523,21.773380428452924L1093.11003,21.764028257071775L1093.886896,21.758416954243074L1095.7144753333334,21.755050172545822L1096.8719146666667,21.75303010352752L1098.0682386666667,21.751818062116506L1098.7929826666668,21.751090837269874L1100.7512806666666,21.75065450236195L1101.4561686666666,21.750392701417166L1102.9255126666667,21.750235620850283L1103.6543933333335,21.750141372510175L1103.9348593333334,21.75008482350609L1104.6372653333333,21.750050894103698L1104.7882536666666,23.490030519176887L1105.186201,22.794018311506075L1105.332639,22.376410986903657L1107.075003,22.12584659214224L1107.1188516666666,21.97550795528532L1107.5052163333332,21.885304773171235L1107.5771943333334,21.831182863902736L1107.9941703333334,21.79870971834162L1108.4731963333334,21.779225831005L1108.6767203333334,21.767535498602978L1111.9206943333334,21.760521299161812L1112.8770916666667,21.756312779497083L1113.289931,21.753787667698234L1114.3406443333333,21.752272600618934L1114.7708576666666,21.751363560371374L1114.9297056666667,21.750818136222826L1116.275777,21.750490881733707L1116.6811703333333,21.750294529040218L1117.304566,21.750176717424125L1117.4476946666666,21.750106030454443L1117.741398,21.75006361827272L1117.8464693333333,21.75003817096361L1118.7284066666666,21.75002290257816L1119.97768,21.75001374154688L1120.0852333333332,21.750008244928114L1120.9696526666667,21.750004946956853L1121.4437146666667,22.910002899032726L1122.042704,22.44600173941964L1123.6022273333333,23.327600974510414L1124.4701,22.696560584706276L1125.1435493333333,22.317936350823718L1126.0966373333333,22.090761810494243L1127.4402266666668,21.95445708629654L1127.4642193333334,21.872674251777934L1128.04418,21.823604551066747L1128.2386033333335,21.794162730640068L1129.1271593333333,21.77649763838407L1129.2661513333333,21.76589858303041L1130.3991843333333,21.759539149818274L1131.130547,21.755723489890958L1131.9578803333334,21.753434093934576L1133.2485203333333,21.75206045636075L1133.433843,21.751236273816435L1134.1230116666668,21.7507417642899L1134.4051323333333,22.91044498943252L1135.2001996666665,22.446266993659556L1135.295343,22.16776019619571L1135.5865643333334,22.000656117717405L1135.610557,21.900393670630447L1135.7636136666665,21.840236202378303L1135.8331096666666,21.804141721426994L1136.9326356666666,21.782485032856165L1139.5031603333334,21.76949101971371L1140.7176856666665,21.761694611828236L1140.8881163333333,21.75701676709696L1141.0899856666667,21.754210060258128L1141.1958843333332,21.752526036154904L1142.4654273333333,22.911515552551567" style="fill: none;" fill="none"></path></g></g></g></g><g opacity="0.2"><g><g><g><path stroke="rgb(255, 112, 67)" stroke-width="2px" d="M87.34447566666667,218.950005531311L89.21135333333334,410.349988937378L96.53408066666667,26.099999956786625L98.38730733333334,113.10000276565553L99.81197533333332,236.35000276565552L101.44182199999999,294.34998893737793L119.13848200000001,290L120.303781,68.1500006914139L126.178675,211.70000553131104L129.18479066666666,31.900000043213378L136.67050266666666,85.55000138282774L138.29869466666668,269.70000553131104L140.268989,88.44999861717226L154.09703833333333,182.700005531311L155.02944300000001,82.65000069141388L173.3681136666667,201.54999446868896L180.31564533333332,194.29999446868894L182.65451666666667,53.6500006914139L185.41987833333334,171.1000027656555L190.180768,66.69999861717226L192.70413466666665,37.700000345706954L193.66756433333336,56.549999654293046L196.250499,30.4500000216067L202.110501,36.25L202.24618366666667,50.749999999999986L203.929807,185.60000276565552L205.22706566666668,192.85000276565552L207.23459,30.4500000216067L210.63948033333335,56.549999654293046L214.15978366666667,198.64999723434448L214.5473893333333,27.549999978393302L217.07572,53.6500006914139L218.25136066666664,33.35000017285347L218.65137633333333,47.84999930858612L221.73071099999999,30.4500000216067L226.01092,44.950000345706925L229.26937233333334,216.04999446868894L231.206987,59.44999861717224L239.8253183333333,59.44999861717224L240.52524233333332,210.25L244.02982633333332,27.549999978393302L244.60854600000002,30.4500000216067L245.05241033333334,216.04999446868894L249.55062166666667,30.4500000216067L249.771106,24.649999827146537L253.13752533333334,21.750000000000007L260.2852716666667,187.04999446868896L261.4381606666667,184.14999723434448L270.83914933333335,216.04999446868894L273.5060583333333,47.84999930858612L274.295748,63.800001382827745L274.95389166666666,21.750000000000007L279.1302703333333,27.549999978393302L283.479148,47.84999930858612L288.31242933333334,39.14999982714653L289.8835353333333,39.14999982714653L291.3276456666667,36.25L292.77713366666666,33.35000017285347L305.2504246666667,27.549999978393302L305.870511,42.04999965429306L306.41117333333335,42.04999965429306L308.235857,27.549999978393302L309.31925,66.69999861717226L309.780902,21.750000000000007L311.03058899999996,30.4500000216067L311.21756633333337,50.749999999999986L312.37500566666665,33.35000017285347L312.786604,24.649999827146537L313.9796186666667,27.549999978393302L314.3374403333333,36.25L315.34844166666664,30.4500000216067L320.91019,30.4500000216067L321.08186166666667,33.35000017285347L325.8750173333333,21.750000000000007L326.2642776666667,24.649999827146537L326.6034843333333,27.549999978393302L327.85234399999996,27.549999978393302L327.9967136666667,21.750000000000007L330.46382166666666,17.39999982714652L331.1562996666667,39.14999982714653L331.365615,24.649999827146537L333.5055126666667,36.25L334.51651400000003,28.999999999999982L336.07976033333335,21.750000000000007L338.9142043333334,49.299999654293075L339.09994066666667,24.649999827146537L343.7689963333333,24.649999827146537L347.6839376666667,24.649999827146537L354.1239003333333,33.35000017285347L354.2413816666667,30.4500000216067L354.538808,27.549999978393302L355.45756166666666,21.750000000000007L358.030982,21.750000000000007L358.81612133333334,33.35000017285347L358.92615666666666,24.649999827146537L359.59795133333336,27.549999978393302L360.93078533333335,33.35000017285347L361.54011633333334,27.549999978393302L361.94757799999996,24.649999827146537L362.00300933333335,27.549999978393302L365.0930993333333,39.14999982714653L365.23871,192.85000276565552L367.44065766666665,30.4500000216067L369.5731093333333,30.4500000216067L370.5419166666666,36.25L371.5971803333333,24.649999827146537L371.636065,24.649999827146537L372.1692813333333,21.750000000000007L372.80674166666665,24.649999827146537L373.6212513333333,21.750000000000007L373.75197,27.549999978393302L375.1340303333333,24.649999827146537L375.19153,27.549999978393302L375.34210466666667,21.750000000000007L375.573758,21.750000000000007L375.74998,21.750000000000007L375.91296466666665,21.750000000000007L376.4453536666667,24.649999827146537L377.7686733333333,27.549999978393302L378.44625933333333,24.649999827146537L378.75899133333337,21.750000000000007L382.4728906666667,21.750000000000007L384.3658293333333,21.750000000000007L384.7315106666666,21.750000000000007L387.10347533333334,27.549999978393302L387.22674800000004,30.4500000216067L387.9833443333333,21.750000000000007L389.3472033333333,24.649999827146537L390.4107403333333,27.549999978393302L391.5028203333333,187.04999446868896L391.9417206666667,21.750000000000007L395.28993866666667,21.750000000000007L395.72428866666667,21.750000000000007L397.440178,24.649999827146537L398.98811866666665,27.549999978393302L401.9445943333333,24.649999827146537L402.7723413333333,24.649999827146537L403.02716,21.750000000000007L403.938054,53.6500006914139L404.795585,24.649999827146537L407.96840833333334,27.549999978393302L409.17590133333334,21.750000000000007L413.3464886666667,33.35000017285347L413.59137933333335,27.549999978393302L413.916935,21.750000000000007L414.561014,24.649999827146537L414.8394116666667,33.35000017285347L415.26176533333336,27.549999978393302L415.43095500000004,24.649999827146537L415.6055223333333,24.649999827146537L417.3933896666667,27.549999978393302L417.89806300000004,21.750000000000007L419.3119756666667,21.750000000000007L419.78355566666664,27.549999978393302L420.31139433333334,27.549999978393302L422.6593663333333,39.14999982714653L422.92411300000003,27.549999978393302L425.94843,21.750000000000007L427.430184,21.750000000000007L428.1731293333333,24.649999827146537L428.8891863333334,21.750000000000007L432.4856043333333,21.750000000000007L432.74042299999996,24.649999827146537L435.0519923333333,21.750000000000007L437.487248,21.750000000000007L438.50445433333334,21.750000000000007L438.80477633333334,27.549999978393302L440.65262533333333,21.750000000000007L442.2237313333333,21.750000000000007L443.43412,21.750000000000007L444.13487133333336,21.750000000000007L444.24738866666667,24.649999827146537L444.7301376666667,21.750000000000007L444.775641,21.750000000000007L445.8867496666667,21.750000000000007L446.63259066666666,30.4500000216067L447.11947633333335,24.649999827146537L450.00935166666665,21.750000000000007L451.51344366666666,21.750000000000007L452.938939,36.25L454.64241833333335,24.649999827146537L455.17563466666667,24.649999827146537L455.429626,21.750000000000007L455.975666,21.750000000000007L456.0790826666667,21.750000000000007L461.69502133333333,24.649999827146537L461.773618,21.750000000000007L461.8199486666667,21.750000000000007L463.29922066666666,21.750000000000007L463.4282846666667,21.750000000000007L463.7906566666667,21.750000000000007L464.39254166666666,21.750000000000007L465.9363456666667,24.649999827146537L465.9528923333333,24.649999827146537L466.27141566666666,21.750000000000007L466.76781566666665,21.750000000000007L468.8663466666667,21.750000000000007L469.06821599999995,21.750000000000007L471.485684,24.649999827146537L472.60672066666666,21.750000000000007L475.31085966666666,24.649999827146537L475.746037,21.750000000000007L476.274703,33.35000017285347L478.0609156666667,24.649999827146537L479.0624026666667,21.750000000000007L480.1474503333333,21.750000000000007L480.9921576666666,21.750000000000007L481.1075706666667,21.750000000000007L484.1778046666667,21.750000000000007L484.6692406666667,21.750000000000007L484.7883766666667,24.649999827146537L485.9019673333333,21.750000000000007L488.1167386666667,21.750000000000007L488.3715573333333,21.750000000000007L488.9283526666667,21.750000000000007L490.4465093333333,21.750000000000007L490.48456666666664,24.649999827146537L491.1906956666666,24.649999827146537L491.884001,21.750000000000007L492.395293,21.750000000000007L493.81168766666667,21.750000000000007L494.1186283333334,21.750000000000007L494.313879,21.750000000000007L495.1784423333333,21.750000000000007L496.279623,21.750000000000007L497.4978713333333,21.750000000000007L497.6294173333333,21.750000000000007L497.6848486666667,21.750000000000007L497.77171866666663,21.750000000000007L497.837078,21.750000000000007L498.4964626666667,21.750000000000007L498.7719646666667,21.750000000000007L499.5885426666667,21.750000000000007L500.31990533333334,21.750000000000007L503.3206433333333,21.750000000000007L506.64528233333334,21.750000000000007L508.527052,21.750000000000007L509.20298333333335,21.750000000000007L509.69690133333336,21.750000000000007L509.9980506666667,21.750000000000007L510.2925813333333,21.750000000000007L510.31161000000003,24.649999827146537L513.62508,21.750000000000007L515.084496,21.750000000000007L515.255754,21.750000000000007L515.4551413333334,21.750000000000007L515.4898893333334,21.750000000000007L515.5875146666667,21.750000000000007L515.6685933333333,24.649999827146537L517.181786,21.750000000000007L518.2837940000001,21.750000000000007L518.4608433333334,21.750000000000007L519.2013066666666,21.750000000000007L519.241846,21.750000000000007L519.6778506666667,21.750000000000007L519.7705119999999,21.750000000000007L520.7418013333333,21.750000000000007L520.7897866666666,21.750000000000007L525.1961640000001,21.750000000000007L525.2830339999999,21.750000000000007L526.551336,21.750000000000007L529.4561033333333,21.750000000000007L529.946712,21.750000000000007L531.2042586666666,21.750000000000007L532.282274,21.750000000000007L532.3641799999999,21.750000000000007L532.741444,21.750000000000007L533.5762233333334,21.750000000000007L535.5328666666667,21.750000000000007L535.7488006666666,21.750000000000007L536.112,24.649999827146537L537.102318,21.750000000000007L537.7981053333333,21.750000000000007L539.0068393333333,24.649999827146537L540.3731803333334,21.750000000000007L540.7289336666666,21.750000000000007L542.0898970000001,21.750000000000007L542.129609,21.750000000000007L543.6924416666667,21.750000000000007L543.852117,21.750000000000007L544.368373,21.750000000000007L547.0886449999999,21.750000000000007L547.9184603333333,21.750000000000007L547.9772009999999,21.750000000000007L549.1900716666667,24.649999827146537L550.749595,21.750000000000007L550.9001696666667,21.750000000000007L552.0021776666667,21.750000000000007L552.6392243333333,21.750000000000007L553.732959,21.750000000000007L555.3545323333334,21.750000000000007L555.9907516666667,24.649999827146537L556.691503,21.750000000000007L557.5089083333334,21.750000000000007L557.7695183333334,21.750000000000007L559.863499,21.750000000000007L560.459179,21.750000000000007L560.6263003333333,24.649999827146537L562.226363,21.750000000000007L563.6874336666667,21.750000000000007L564.1755603333334,21.750000000000007L564.7530390000001,21.750000000000007L565.4157329999999,21.750000000000007L566.902451,21.750000000000007L568.0582356666666,21.750000000000007L568.3353923333333,21.750000000000007L569.0253883333334,21.750000000000007L570.82277,21.750000000000007L571.5607513333333,21.750000000000007L571.71629,21.750000000000007L571.9206413333334,21.750000000000007L572.1117553333333,24.649999827146537L572.78355,21.750000000000007L573.2021806666667,24.649999827146537L574.2835053333333,21.750000000000007L574.3356273333334,21.750000000000007L576.2364256666667,21.750000000000007L576.7295163333333,21.750000000000007L576.8114223333333,21.750000000000007L576.9495870000001,21.750000000000007L577.0381116666666,21.750000000000007L577.0645863333333,24.649999827146537L578.361845,21.750000000000007L579.4547523333333,21.750000000000007L580.287877,21.750000000000007L580.4376243333332,21.750000000000007L581.883803,21.750000000000007L581.9566083333333,24.649999827146537L582.385167,21.750000000000007L583.2629676666667,21.750000000000007L583.710555,21.750000000000007L584.1258763333334,21.750000000000007L584.1614516666667,24.649999827146537L585.9915129999999,21.750000000000007L586.3021766666667,21.750000000000007L586.7489366666667,21.750000000000007L587.0087193333334,24.649999827146537L590.0326226666667,21.750000000000007L591.9330073333333,21.750000000000007L593.6108393333334,21.750000000000007L593.6133213333334,21.750000000000007L593.761414,24.649999827146537L595.0884566666667,21.750000000000007L596.1255189999999,21.750000000000007L596.667836,21.750000000000007L597.2353866666666,21.750000000000007L598.64599,21.750000000000007L598.9777506666667,21.750000000000007L599.9407666666666,21.750000000000007L600.4959073333333,21.750000000000007L602.5071546666667,21.750000000000007L603.0134826666667,21.750000000000007L604.0873613333333,21.750000000000007L604.7707386666667,21.750000000000007L605.1595853333333,21.750000000000007L605.7759486666666,24.649999827146537L606.5768073333332,21.750000000000007L608.6319033333334,24.649999827146537L609.6743433333334,21.750000000000007L609.7041273333333,21.750000000000007L610.629086,21.750000000000007L611.04358,21.750000000000007L612.6713583333333,21.750000000000007L612.7681563333333,21.750000000000007L612.9526516666667,21.750000000000007L613.6294103333333,21.750000000000007L613.911531,24.649999827146537L615.1496353333333,21.750000000000007L615.632798,21.750000000000007L615.929397,21.750000000000007L616.5606523333333,21.750000000000007L617.748703,21.750000000000007L618.6389136666667,21.750000000000007L619.414125,24.649999827146537L621.1473883333333,21.750000000000007L624.252784,24.649999827146537L624.255266,21.750000000000007L624.60771,21.750000000000007L624.684652,21.750000000000007L624.7897233333333,21.750000000000007L625.9033139999999,21.750000000000007L626.8497833333333,21.750000000000007L627.9145613333334,21.750000000000007L627.946,21.750000000000007L629.0529720000001,21.750000000000007L630.499978,21.750000000000007L630.5860206666667,21.750000000000007L631.9403653333334,24.649999827146537L633.384062,21.750000000000007L634.731788,21.750000000000007L640.5049200000001,24.649999827146537L640.7489833333333,21.750000000000007L641.366174,21.750000000000007L641.9659906666667,21.750000000000007L642.4565993333333,21.750000000000007L642.723828,24.649999827146537L644.61263,21.750000000000007L645.051944,21.750000000000007L645.2744966666667,21.750000000000007L645.51856,21.750000000000007L645.6269406666667,21.750000000000007L646.5899566666666,21.750000000000007L646.965566,21.750000000000007L651.0873406666667,21.750000000000007L651.2238506666666,21.750000000000007L651.584568,21.750000000000007L653.6413186666667,21.750000000000007L654.2535453333334,21.750000000000007L655.2926759999999,21.750000000000007L656.67515,21.750000000000007L657.0569643333334,21.750000000000007L657.996815,21.750000000000007L658.0299083333333,21.750000000000007L658.2474970000001,21.750000000000007L659.275045,21.750000000000007L659.543101,21.750000000000007L661.1514370000001,21.750000000000007L661.8083396666666,21.750000000000007L662.6687663333333,21.750000000000007L663.051408,21.750000000000007L663.8564033333332,21.750000000000007L663.8688133333334,21.750000000000007L664.7433046666667,21.750000000000007L664.8276926666666,21.750000000000007L666.1249513333333,21.750000000000007L666.4376833333333,21.750000000000007L667.146708,21.750000000000007L669.6291216666667,24.649999827146537L670.4448723333333,21.750000000000007L670.818827,24.649999827146537L670.9363083333334,21.750000000000007L672.2939623333333,21.750000000000007L672.3957243333333,21.750000000000007L672.471839,21.750000000000007L672.496659,21.750000000000007L672.6943916666667,21.750000000000007L672.7812616666666,21.750000000000007L674.273771,21.750000000000007L674.881861,21.750000000000007L675.4791956666667,21.750000000000007L677.1020100000001,21.750000000000007L677.1954986666667,21.750000000000007L677.9798106666667,21.750000000000007L677.9822926666667,21.750000000000007L679.4044786666667,21.750000000000007L679.762714,21.750000000000007L680.5139326666666,21.750000000000007L680.9118799999999,21.750000000000007L682.0552546666668,21.750000000000007L682.3770873333333,21.750000000000007L683.1613993333333,21.750000000000007L683.3119740000001,21.750000000000007L683.6156053333334,21.750000000000007L686.9572046666666,21.750000000000007L687.1607286666667,21.750000000000007L688.491908,21.750000000000007L689.4731253333333,21.750000000000007L691.5062969999999,21.750000000000007L693.3016103333333,21.750000000000007L693.5531196666667,21.750000000000007L693.8964629999999,21.750000000000007L694.2108496666667,21.750000000000007L694.358115,24.649999827146537L694.5318550000001,21.750000000000007L694.541783,21.750000000000007L696.4893256666667,21.750000000000007L697.1131349999999,21.750000000000007L697.6327003333333,24.649999827146537L697.9462596666667,24.649999827146537L699.878083,21.750000000000007L700.146139,21.750000000000007L700.620201,21.750000000000007L700.657431,24.649999827146537L700.7492649999999,21.750000000000007L700.8576456666666,21.750000000000007L701.0959176666668,21.750000000000007L701.2224996666666,21.750000000000007L701.9116683333333,21.750000000000007L704.4155926666667,21.750000000000007L705.0402293333333,21.750000000000007L707.062232,21.750000000000007L707.231008,21.750000000000007L707.3840646666666,21.750000000000007L709.9049493333333,21.750000000000007L711.2551573333334,21.750000000000007L712.266986,21.750000000000007L712.6111566666666,21.750000000000007L712.649214,21.750000000000007L714.9913946666666,21.750000000000007L716.0015686666667,21.750000000000007L716.0503813333333,21.750000000000007L716.21833,21.750000000000007L716.6286873333332,21.750000000000007L716.861168,21.750000000000007L716.9836133333333,21.750000000000007L717.476704,24.649999827146537L718.2519153333334,21.750000000000007L721.3618613333334,21.750000000000007L722.042343,21.750000000000007L722.3352189999999,24.649999827146537L722.9921216666667,21.750000000000007L724.0693096666666,21.750000000000007L724.1958916666666,21.750000000000007L724.6368603333333,21.750000000000007L724.732831,21.750000000000007L725.3657410000001,21.750000000000007L726.5115976666666,21.750000000000007L726.5835756666667,21.750000000000007L727.0427456666666,21.750000000000007L728.5385643333334,21.750000000000007L729.0308276666666,24.649999827146537L729.1962943333333,21.750000000000007L730.160965,21.750000000000007L730.6813576666667,21.750000000000007L731.980271,21.750000000000007L735.3648916666666,27.549999978393302L735.9680176666666,27.549999978393302L737.5217496666667,21.750000000000007L737.8634383333334,24.649999827146537L738.3834173333333,21.750000000000007L739.6463416666667,21.750000000000007L739.7059096666666,21.750000000000007L740.1940363333333,21.750000000000007L741.1098943333334,21.750000000000007L741.3067996666666,21.750000000000007L742.0439536666667,21.750000000000007L742.4559656666667,21.750000000000007L743.0863936666667,21.750000000000007L744.0907763333333,21.750000000000007L744.4556303333334,21.750000000000007L744.9958790000001,21.750000000000007L745.8463776666667,21.750000000000007L746.2509436666667,21.750000000000007L747.3893543333332,21.750000000000007L747.9933076666667,21.750000000000007L748.8165043333335,24.649999827146537L749.0473303333333,21.750000000000007L749.6190176666667,21.750000000000007L750.401675,21.750000000000007L752.2288406666668,21.750000000000007L753.26218,24.649999827146537L753.3606326666666,21.750000000000007L753.3862799999999,21.750000000000007L754.818394,21.750000000000007L755.2883193333333,21.750000000000007L756.702232,21.750000000000007L757.0116546666666,21.750000000000007L757.2168333333333,21.750000000000007L757.5303926666667,21.750000000000007L758.1947413333334,21.750000000000007L758.6812133333334,21.750000000000007L760.3913113333334,21.750000000000007L760.991128,21.750000000000007L762.3322353333334,21.750000000000007L762.601946,21.750000000000007L764.66697,24.649999827146537L765.1840533333333,21.750000000000007L765.955128,21.750000000000007L767.23584,21.750000000000007L768.769716,21.750000000000007L769.0055060000001,21.750000000000007L770.0661473333334,21.750000000000007L771.2632986666666,21.750000000000007L771.3625786666666,21.750000000000007L772.6408086666665,21.750000000000007L774.6115166666666,21.750000000000007L775.5025546666666,21.750000000000007L777.3988026666666,21.750000000000007L777.4087306666667,21.750000000000007L777.5485500000001,21.750000000000007L778.456962,27.549999978393302L778.896276,21.750000000000007L780.045442,21.750000000000007L781.1044286666666,21.750000000000007L781.9582366666667,21.750000000000007L782.095574,21.750000000000007L782.23953,21.750000000000007L782.2527673333333,21.750000000000007L782.9601373333333,21.750000000000007L783.0801006666667,21.750000000000007L783.0850646666668,21.750000000000007L783.6253133333333,21.750000000000007L783.9115706666666,21.750000000000007L785.3155553333334,24.649999827146537L786.8345393333334,21.750000000000007L787.6337433333333,21.750000000000007L789.062548,21.750000000000007L790.0669306666667,21.750000000000007L790.6411,21.750000000000007L790.6741933333333,24.649999827146537L791.4245846666666,24.649999827146537L791.8059853333333,21.750000000000007L791.8763086666667,21.750000000000007L792.4140753333332,21.750000000000007L792.8376700000001,21.750000000000007L792.9650793333333,21.750000000000007L794.1456840000001,21.750000000000007L794.3334886666667,21.750000000000007L795.0251393333333,21.750000000000007L795.1417933333333,21.750000000000007L798.307998,24.649999827146537L798.3609473333333,21.750000000000007L798.3791486666668,21.750000000000007L798.5404786666667,21.750000000000007L799.5671993333333,21.750000000000007L800.1016566666666,21.750000000000007L801.1341686666667,21.750000000000007L801.4051203333333,21.750000000000007L805.9434573333334,21.750000000000007L808.811822,21.750000000000007L809.829442,21.750000000000007L812.09799,21.750000000000007L813.8271166666667,21.750000000000007L814.093518,21.750000000000007L814.6618960000001,21.750000000000007L816.9122426666668,21.750000000000007L817.4996493333334,21.750000000000007L817.6262313333333,21.750000000000007L818.521406,21.750000000000007L821.266498,21.750000000000007L821.797646,21.750000000000007L822.9236466666666,21.750000000000007L822.934402,21.750000000000007L823.96195,21.750000000000007L824.0322733333333,21.750000000000007L824.9952893333333,21.750000000000007L825.0035626666667,21.750000000000007L826.3984466666667,21.750000000000007L826.5366113333334,21.750000000000007L829.455857,21.750000000000007L830.436247,21.750000000000007L830.7845543333333,21.750000000000007L831.8667063333334,21.750000000000007L832.171165,21.750000000000007L832.8098663333333,21.750000000000007L833.4659416666667,21.750000000000007L834.1385636666666,21.750000000000007L836.440205,21.750000000000007L838.028685,21.750000000000007L838.4324236666666,21.750000000000007L839.7743583333333,21.750000000000007L841.5051396666667,21.750000000000007L843.9027516666666,21.750000000000007L845.3348656666667,21.750000000000007L845.8552583333334,21.750000000000007L847.1930563333333,21.750000000000007L847.4189183333333,21.750000000000007L847.4536663333333,21.750000000000007L848.2528703333332,21.750000000000007L848.7269323333333,21.750000000000007L849.949731,21.750000000000007L851.4050103333333,21.750000000000007L851.433967,21.750000000000007L851.9543596666666,21.750000000000007L852.2555090000001,21.750000000000007L854.6316103333334,21.750000000000007L855.797323,21.750000000000007L859.3796763333334,21.750000000000007L859.5765816666666,21.750000000000007L861.352039,21.750000000000007L861.9055249999999,27.549999978393302L861.9957043333334,21.750000000000007L863.2491143333333,21.750000000000007L863.4079623333333,21.750000000000007L863.551091,21.750000000000007L865.0891036666667,21.750000000000007L866.67717,21.750000000000007L866.8542193333334,21.750000000000007L866.9311613333333,21.750000000000007L870.5023456666667,21.750000000000007L871.1352556666667,21.750000000000007L871.5605049999999,21.750000000000007L872.4594026666666,21.750000000000007L872.5164886666668,21.750000000000007L872.899544,21.750000000000007L875.158164,21.750000000000007L875.7753546666667,21.750000000000007L876.476106,21.750000000000007L876.6581193333334,21.750000000000007L877.694768,21.750000000000007L878.858826,21.750000000000007L879.1541840000001,21.750000000000007L880.2595013333333,24.649999827146537L881.9969013333334,21.750000000000007L882.244274,21.750000000000007L886.0549713333334,21.750000000000007L889.402362,21.750000000000007L890.3169790000001,21.750000000000007L892.9884383333334,21.750000000000007L893.2424296666667,24.649999827146537L893.273041,21.750000000000007L893.887336,21.750000000000007L895.9804893333334,21.750000000000007L896.2038693333333,21.750000000000007L897.4039163333333,21.750000000000007L897.4088803333334,21.750000000000007L897.9301003333333,21.750000000000007L898.9754360000001,21.750000000000007L898.982882,21.750000000000007L899.908668,21.750000000000007L900.0369046666667,21.750000000000007L900.787296,21.750000000000007L901.1761426666667,21.750000000000007L901.5087306666667,21.750000000000007L902.0448426666667,21.750000000000007L902.4427900000001,21.750000000000007L903.222138,21.750000000000007L903.552244,21.750000000000007L905.257378,21.750000000000007L907.9040173333333,24.649999827146537L908.1944113333334,21.750000000000007L908.2415693333334,21.750000000000007L908.868688,21.750000000000007L911.5244280000001,21.750000000000007L911.5302193333334,24.649999827146537L911.5633126666667,24.649999827146537L911.941404,21.750000000000007L912.398092,21.750000000000007L912.7248886666667,24.649999827146537L912.8638806666667,21.750000000000007L913.4537693333333,24.649999827146537L914.0701326666667,21.750000000000007L915.247428,21.750000000000007L915.6089726666667,21.750000000000007L916.0085746666666,21.750000000000007L916.2476740000001,21.750000000000007L918.4947113333333,21.750000000000007L919.516468,21.750000000000007L919.9127606666666,21.750000000000007L920.342974,21.750000000000007L921.6303046666667,24.649999827146537L921.737858,21.750000000000007L923.2684246666666,21.750000000000007L923.9286366666666,21.750000000000007L924.7170853333332,21.750000000000007L925.2242406666667,21.750000000000007L926.560384,21.750000000000007L926.8722886666667,21.750000000000007L928.5104086666666,21.750000000000007L930.630864,21.750000000000007L931.1835226666666,21.750000000000007L932.1804593333334,21.750000000000007L932.4311413333332,21.750000000000007L933.550937,21.750000000000007L934.2525156666667,21.750000000000007L937.3988643333333,21.750000000000007L937.6561650000001,21.750000000000007L940.2552326666666,21.750000000000007L940.8078913333333,24.649999827146537L942.8935986666667,21.750000000000007L943.750716,21.750000000000007L946.0184366666666,24.649999827146537L947.4778526666666,21.750000000000007L947.8038220000001,21.750000000000007L947.9552239999999,21.750000000000007L949.4857906666666,24.649999827146537L949.8489900000001,21.750000000000007L950.0756793333334,21.750000000000007L951.1909246666665,21.750000000000007L951.3927940000001,21.750000000000007L953.0259500000001,21.750000000000007L953.9161606666667,24.649999827146537L953.9674553333334,21.750000000000007L954.4721286666667,21.750000000000007L956.0680546666667,21.750000000000007L956.6165766666667,21.750000000000007L956.9028340000001,21.750000000000007L957.2205299999999,21.750000000000007L958.1852006666667,21.750000000000007L958.4408466666666,21.750000000000007L958.4739400000001,24.649999827146537L959.13167,21.750000000000007L959.834076,21.750000000000007L960.462022,21.750000000000007L961.4258653333334,21.750000000000007L961.62608,21.750000000000007L962.0289913333334,21.750000000000007L962.6370813333333,21.750000000000007L964.8278600000001,21.750000000000007L965.1505199999999,21.750000000000007L965.6005893333333,27.549999978393302L965.828106,21.750000000000007L966.9218406666666,21.750000000000007L967.6548580000001,21.750000000000007L967.808742,21.750000000000007L969.1597773333334,21.750000000000007L970.3594106666667,21.750000000000007L971.0436153333334,24.649999827146537L971.59131,21.750000000000007L974.4509876666667,21.750000000000007L974.8249423333333,21.750000000000007L975.1931056666667,21.750000000000007L975.3370616666667,21.750000000000007L975.752383,21.750000000000007L976.7493196666667,21.750000000000007L977.1373390000001,21.750000000000007L977.1662956666667,24.649999827146537L978.7448476666667,21.750000000000007L979.4501493333333,21.750000000000007L979.506408,21.750000000000007L979.8236903333333,21.750000000000007L979.9610276666667,21.750000000000007L980.7726416666666,21.750000000000007L981.8614123333333,21.750000000000007L985.3916436666666,24.649999827146537L985.8714970000001,21.750000000000007L985.9095543333333,21.750000000000007L986.092395,21.750000000000007L986.747643,24.649999827146537L986.772463,21.750000000000007L987.8901903333334,21.750000000000007L989.5316196666666,21.750000000000007L990.210033,21.750000000000007L991.9391596666667,21.750000000000007L992.118691,21.750000000000007L992.922859,21.750000000000007L993.1007356666668,21.750000000000007L993.7663253333333,21.750000000000007L994.0079066666666,21.750000000000007L995.1190153333333,24.649999827146537L995.5963866666667,21.750000000000007L996.1151246666666,21.750000000000007L996.4841153333333,24.649999827146537L997.5670946666667,21.750000000000007L997.9311213333333,21.750000000000007L998.1346453333334,21.750000000000007L999.3694403333334,21.750000000000007L999.3851596666667,21.750000000000007L999.788071,21.750000000000007L999.793035,21.750000000000007L1000.0164149999999,21.750000000000007L1001.0232796666667,21.750000000000007L1002.0400723333332,21.750000000000007L1002.1128776666667,21.750000000000007L1003.3381583333334,21.750000000000007L1003.5441643333334,21.750000000000007L1004.1514269999999,21.750000000000007L1005.2137230000001,21.750000000000007L1005.2244783333333,24.649999827146537L1006.3074576666667,21.750000000000007L1006.962292,24.649999827146537L1007.6531153333333,21.750000000000007L1008.1445513333333,21.750000000000007L1008.4878946666666,21.750000000000007L1009.4310546666667,21.750000000000007L1010.7514786666667,21.750000000000007L1011.4464386666667,21.750000000000007L1012.4888786666667,21.750000000000007L1012.9695593333333,21.750000000000007L1014.5050900000001,21.750000000000007L1015.1338633333334,21.750000000000007L1017.463634,21.750000000000007L1019.2771486666667,21.750000000000007L1019.285422,21.750000000000007L1019.598154,24.649999827146537L1020.5454506666667,21.750000000000007L1022.7610493333334,21.750000000000007L1024.4794206666666,21.750000000000007L1026.0629366666667,21.750000000000007L1026.135742,21.750000000000007L1026.843112,21.750000000000007L1027.8102646666666,21.750000000000007L1028.146162,21.750000000000007L1028.575548,21.750000000000007L1029.6610093333334,21.750000000000007L1029.6841746666666,21.750000000000007L1029.7362966666667,21.750000000000007L1030.729924,21.750000000000007L1032.1661746666666,21.750000000000007L1032.5930786666665,21.750000000000007L1033.3145133333333,21.750000000000007L1034.2659466666667,21.750000000000007L1034.9236766666668,21.750000000000007L1035.347685,21.750000000000007L1036.702857,21.750000000000007L1037.7916276666667,21.750000000000007L1038.9747143333334,24.649999827146537L1040.4994896666667,21.750000000000007L1042.0399843333332,21.750000000000007L1043.101453,24.649999827146537L1043.2983583333332,21.750000000000007L1043.5374576666666,21.750000000000007L1045.1954336666668,21.750000000000007L1046.9295243333333,21.750000000000007L1046.9874376666667,21.750000000000007L1048.1787976666667,21.750000000000007L1049.286597,21.750000000000007L1049.306453,21.750000000000007L1049.931917,21.750000000000007L1053.4431196666667,21.750000000000007L1053.898153,21.750000000000007L1053.9916416666667,21.750000000000007L1054.702321,21.750000000000007L1054.990233,21.750000000000007L1056.2403336666666,24.649999827146537L1056.4653683333333,21.750000000000007L1056.573749,21.750000000000007L1058.693377,21.750000000000007L1058.8960736666666,24.649999827146537L1063.662341,21.750000000000007L1064.3258623333334,21.750000000000007L1065.1184476666667,21.750000000000007L1066.385095,21.750000000000007L1066.8335096666667,21.750000000000007L1067.407679,21.750000000000007L1070.4299276666666,21.750000000000007L1070.8518676666667,21.750000000000007L1074.1959490000002,21.750000000000007L1074.970333,21.750000000000007L1075.1573103333333,21.750000000000007L1075.2598996666666,21.750000000000007L1077.8974383333332,21.750000000000007L1077.9603156666667,21.750000000000007L1078.1191636666665,21.750000000000007L1079.7316363333334,21.750000000000007L1080.0468503333334,21.750000000000007L1080.862601,21.750000000000007L1081.0247583333335,21.750000000000007L1083.9981943333332,21.750000000000007L1084.18724,21.750000000000007L1084.303894,27.549999978393302L1084.7084599999998,21.750000000000007L1084.797812,21.750000000000007L1085.388528,21.750000000000007L1085.9924813333334,21.750000000000007L1086.8495986666667,21.750000000000007L1088.3925753333333,21.750000000000007L1088.5522506666666,21.750000000000007L1090.0025660000001,21.750000000000007L1092.4523,21.750000000000007L1093.11003,21.750000000000007L1093.886896,21.750000000000007L1095.7144753333334,21.750000000000007L1096.8719146666667,21.750000000000007L1098.0682386666667,21.750000000000007L1098.7929826666668,21.750000000000007L1100.7512806666666,21.750000000000007L1101.4561686666666,21.750000000000007L1102.9255126666667,21.750000000000007L1103.6543933333335,21.750000000000007L1103.9348593333334,21.750000000000007L1104.6372653333333,21.750000000000007L1104.7882536666666,26.099999956786625L1105.186201,21.750000000000007L1105.332639,21.750000000000007L1107.075003,21.750000000000007L1107.1188516666666,21.750000000000007L1107.5052163333332,21.750000000000007L1107.5771943333334,21.750000000000007L1107.9941703333334,21.750000000000007L1108.4731963333334,21.750000000000007L1108.6767203333334,21.750000000000007L1111.9206943333334,21.750000000000007L1112.8770916666667,21.750000000000007L1113.289931,21.750000000000007L1114.3406443333333,21.750000000000007L1114.7708576666666,21.750000000000007L1114.9297056666667,21.750000000000007L1116.275777,21.750000000000007L1116.6811703333333,21.750000000000007L1117.304566,21.750000000000007L1117.4476946666666,21.750000000000007L1117.741398,21.750000000000007L1117.8464693333333,21.750000000000007L1118.7284066666666,21.750000000000007L1119.97768,21.750000000000007L1120.0852333333332,21.750000000000007L1120.9696526666667,21.750000000000007L1121.4437146666667,24.649999827146537L1122.042704,21.750000000000007L1123.6022273333333,24.649999827146537L1124.4701,21.750000000000007L1125.1435493333333,21.750000000000007L1126.0966373333333,21.750000000000007L1127.4402266666668,21.750000000000007L1127.4642193333334,21.750000000000007L1128.04418,21.750000000000007L1128.2386033333335,21.750000000000007L1129.1271593333333,21.750000000000007L1129.2661513333333,21.750000000000007L1130.3991843333333,21.750000000000007L1131.130547,21.750000000000007L1131.9578803333334,21.750000000000007L1133.2485203333333,21.750000000000007L1133.433843,21.750000000000007L1134.1230116666668,21.750000000000007L1134.4051323333333,24.649999827146537L1135.2001996666665,21.750000000000007L1135.295343,21.750000000000007L1135.5865643333334,21.750000000000007L1135.610557,21.750000000000007L1135.7636136666665,21.750000000000007L1135.8331096666666,21.750000000000007L1136.9326356666666,21.750000000000007L1139.5031603333334,21.750000000000007L1140.7176856666665,21.750000000000007L1140.8881163333333,21.750000000000007L1141.0899856666667,21.750000000000007L1141.1958843333332,21.750000000000007L1142.4654273333333,24.649999827146537" style="fill: none;" fill="none"></path></g></g></g></g></g><g><g opacity="0.4705"><span fill="rgb(0, 0, 0)" stroke="none" stroke-width="1px">Alt + Scroll to Zoom</span></g></g></g><g transform="translate(40, 377)" clip-path="url(#clip_1)"><clipPath id="clip_1"><rect width="1241" height="23"></rect></clipPath><g><g><line x1="0" y1="0" x2="0" y2="5" style="visibility: inherit;" fill="rgb(0, 0, 0)" stroke="rgb(204, 204, 204)" stroke-width="1px"></line><line x1="82.73333333333333" y1="0" x2="82.73333333333333" y2="5" style="visibility: inherit;" fill="rgb(0, 0, 0)" stroke="rgb(204, 204, 204)" stroke-width="1px"></line><line x1="165.46666666666667" y1="0" x2="165.46666666666667" y2="5" style="visibility: inherit;" fill="rgb(0, 0, 0)" stroke="rgb(204, 204, 204)" stroke-width="1px"></line><line x1="248.20000000000002" y1="0" x2="248.20000000000002" y2="5" style="visibility: inherit;" fill="rgb(0, 0, 0)" stroke="rgb(204, 204, 204)" stroke-width="1px"></line><line x1="330.93333333333334" y1="0" x2="330.93333333333334" y2="5" style="visibility: inherit;" fill="rgb(0, 0, 0)" stroke="rgb(204, 204, 204)" stroke-width="1px"></line><line x1="413.66666666666663" y1="0" x2="413.66666666666663" y2="5" style="visibility: inherit;" fill="rgb(0, 0, 0)" stroke="rgb(204, 204, 204)" stroke-width="1px"></line><line x1="496.40000000000003" y1="0" x2="496.40000000000003" y2="5" style="visibility: inherit;" fill="rgb(0, 0, 0)" stroke="rgb(204, 204, 204)" stroke-width="1px"></line><line x1="579.1333333333333" y1="0" x2="579.1333333333333" y2="5" style="visibility: inherit;" fill="rgb(0, 0, 0)" stroke="rgb(204, 204, 204)" stroke-width="1px"></line><line x1="661.8666666666667" y1="0" x2="661.8666666666667" y2="5" style="visibility: inherit;" fill="rgb(0, 0, 0)" stroke="rgb(204, 204, 204)" stroke-width="1px"></line><line x1="744.6" y1="0" x2="744.6" y2="5" style="visibility: inherit;" fill="rgb(0, 0, 0)" stroke="rgb(204, 204, 204)" stroke-width="1px"></line><line x1="827.3333333333333" y1="0" x2="827.3333333333333" y2="5" style="visibility: inherit;" fill="rgb(0, 0, 0)" stroke="rgb(204, 204, 204)" stroke-width="1px"></line><line x1="910.0666666666666" y1="0" x2="910.0666666666666" y2="5" style="visibility: inherit;" fill="rgb(0, 0, 0)" stroke="rgb(204, 204, 204)" stroke-width="1px"></line><line x1="992.8000000000001" y1="0" x2="992.8000000000001" y2="5" style="visibility: inherit;" fill="rgb(0, 0, 0)" stroke="rgb(204, 204, 204)" stroke-width="1px"></line><line x1="1075.5333333333333" y1="0" x2="1075.5333333333333" y2="5" style="visibility: inherit;" fill="rgb(0, 0, 0)" stroke="rgb(204, 204, 204)" stroke-width="1px"></line><line x1="1158.2666666666667" y1="0" x2="1158.2666666666667" y2="5" style="visibility: inherit;" fill="rgb(0, 0, 0)" stroke="rgb(204, 204, 204)" stroke-width="1px"></line><line x1="1241" y1="0" x2="1241" y2="5" style="visibility: inherit;" fill="rgb(0, 0, 0)" stroke="rgb(204, 204, 204)" stroke-width="1px"></line></g><g transform="translate(0, 8)"><text x="0" y="0" dx="0em" dy="0.95em" style="text-anchor: middle; visibility: hidden; font-family: Roboto, sans-serif; font-size: 12px; font-weight: 200;" fill="rgb(33, 33, 33)" stroke="none" stroke-width="1px">-200k</text><text x="82.73333333333333" y="0" dx="0em" dy="0.95em" style="text-anchor: middle; visibility: inherit; font-family: Roboto, sans-serif; font-size: 12px; font-weight: 200;" fill="rgb(33, 33, 33)" stroke="none" stroke-width="1px">0</text><text x="165.46666666666667" y="0" dx="0em" dy="0.95em" style="text-anchor: middle; visibility: inherit; font-family: Roboto, sans-serif; font-size: 12px; font-weight: 200;" fill="rgb(33, 33, 33)" stroke="none" stroke-width="1px">200k</text><text x="248.20000000000002" y="0" dx="0em" dy="0.95em" style="text-anchor: middle; visibility: inherit; font-family: Roboto, sans-serif; font-size: 12px; font-weight: 200;" fill="rgb(33, 33, 33)" stroke="none" stroke-width="1px">400k</text><text x="330.93333333333334" y="0" dx="0em" dy="0.95em" style="text-anchor: middle; visibility: inherit; font-family: Roboto, sans-serif; font-size: 12px; font-weight: 200;" fill="rgb(33, 33, 33)" stroke="none" stroke-width="1px">600k</text><text x="413.66666666666663" y="0" dx="0em" dy="0.95em" style="text-anchor: middle; visibility: inherit; font-family: Roboto, sans-serif; font-size: 12px; font-weight: 200;" fill="rgb(33, 33, 33)" stroke="none" stroke-width="1px">800k</text><text x="496.40000000000003" y="0" dx="0em" dy="0.95em" style="text-anchor: middle; visibility: inherit; font-family: Roboto, sans-serif; font-size: 12px; font-weight: 200;" fill="rgb(33, 33, 33)" stroke="none" stroke-width="1px">1M</text><text x="579.1333333333333" y="0" dx="0em" dy="0.95em" style="text-anchor: middle; visibility: inherit; font-family: Roboto, sans-serif; font-size: 12px; font-weight: 200;" fill="rgb(33, 33, 33)" stroke="none" stroke-width="1px">1.2M</text><text x="661.8666666666667" y="0" dx="0em" dy="0.95em" style="text-anchor: middle; visibility: inherit; font-family: Roboto, sans-serif; font-size: 12px; font-weight: 200;" fill="rgb(33, 33, 33)" stroke="none" stroke-width="1px">1.4M</text><text x="744.6" y="0" dx="0em" dy="0.95em" style="text-anchor: middle; visibility: inherit; font-family: Roboto, sans-serif; font-size: 12px; font-weight: 200;" fill="rgb(33, 33, 33)" stroke="none" stroke-width="1px">1.6M</text><text x="827.3333333333333" y="0" dx="0em" dy="0.95em" style="text-anchor: middle; visibility: inherit; font-family: Roboto, sans-serif; font-size: 12px; font-weight: 200;" fill="rgb(33, 33, 33)" stroke="none" stroke-width="1px">1.8M</text><text x="910.0666666666666" y="0" dx="0em" dy="0.95em" style="text-anchor: middle; visibility: inherit; font-family: Roboto, sans-serif; font-size: 12px; font-weight: 200;" fill="rgb(33, 33, 33)" stroke="none" stroke-width="1px">2M</text><text x="992.8000000000001" y="0" dx="0em" dy="0.95em" style="text-anchor: middle; visibility: inherit; font-family: Roboto, sans-serif; font-size: 12px; font-weight: 200;" fill="rgb(33, 33, 33)" stroke="none" stroke-width="1px">2.2M</text><text x="1075.5333333333333" y="0" dx="0em" dy="0.95em" style="text-anchor: middle; visibility: inherit; font-family: Roboto, sans-serif; font-size: 12px; font-weight: 200;" fill="rgb(33, 33, 33)" stroke="none" stroke-width="1px">2.4M</text><text x="1158.2666666666667" y="0" dx="0em" dy="0.95em" style="text-anchor: middle; visibility: inherit; font-family: Roboto, sans-serif; font-size: 12px; font-weight: 200;" fill="rgb(33, 33, 33)" stroke="none" stroke-width="1px">2.6M</text><text x="1241" y="0" dx="0em" dy="0.95em" style="text-anchor: middle; visibility: hidden; font-family: Roboto, sans-serif; font-size: 12px; font-weight: 200;" fill="rgb(33, 33, 33)" stroke="none" stroke-width="1px">2.8M</text></g><line x1="0" y1="0" x2="1241" y2="0" fill="rgb(0, 0, 0)" stroke="rgb(204, 204, 204)" stroke-width="1px"></line></g></g></g></g></svg>