<svg viewBox="0 0 1281 400" xmlns="http://www.w3.org/2000/svg"><g><g><g><g><g><line x1="50" y1="377" x2="45" y2="377" style="visibility: inherit;" fill="rgb(0, 0, 0)" stroke="rgb(204, 204, 204)" stroke-width="1px"></line><line x1="50" y1="339.3" x2="45" y2="339.3" style="visibility: inherit;" fill="rgb(0, 0, 0)" stroke="rgb(204, 204, 204)" stroke-width="1px"></line><line x1="50" y1="301.6" x2="45" y2="301.6" style="visibility: inherit;" fill="rgb(0, 0, 0)" stroke="rgb(204, 204, 204)" stroke-width="1px"></line><line x1="50" y1="263.90000000000003" x2="45" y2="263.90000000000003" style="visibility: inherit;" fill="rgb(0, 0, 0)" stroke="rgb(204, 204, 204)" stroke-width="1px"></line><line x1="50" y1="226.20000000000005" x2="45" y2="226.20000000000005" style="visibility: inherit;" fill="rgb(0, 0, 0)" stroke="rgb(204, 204, 204)" stroke-width="1px"></line><line x1="50" y1="188.5" x2="45" y2="188.5" style="visibility: inherit;" fill="rgb(0, 0, 0)" stroke="rgb(204, 204, 204)" stroke-width="1px"></line><line x1="50" y1="150.8" x2="45" y2="150.8" style="visibility: inherit;" fill="rgb(0, 0, 0)" stroke="rgb(204, 204, 204)" stroke-width="1px"></line><line x1="50" y1="113.10000000000002" x2="45" y2="113.10000000000002" style="visibility: inherit;" fill="rgb(0, 0, 0)" stroke="rgb(204, 204, 204)" stroke-width="1px"></line><line x1="50" y1="75.40000000000002" x2="45" y2="75.40000000000002" style="visibility: inherit;" fill="rgb(0, 0, 0)" stroke="rgb(204, 204, 204)" stroke-width="1px"></line><line x1="50" y1="37.70000000000003" x2="45" y2="37.70000000000003" style="visibility: inherit;" fill="rgb(0, 0, 0)" stroke="rgb(204, 204, 204)" stroke-width="1px"></line><line x1="50" y1="0" x2="45" y2="0" style="visibility: inherit;" fill="rgb(0, 0, 0)" stroke="rgb(204, 204, 204)" stroke-width="1px"></line></g><g transform="translate(40, 0)"><text x="0" y="377" dx="0em" dy="0.3em" style="text-anchor: end; visibility: hidden; font-family: Roboto, sans-serif; font-size: 12px; font-weight: 200;" fill="rgb(33, 33, 33)" stroke="none" stroke-width="1px">-0.7</text><text x="0" y="339.3" dx="0em" dy="0.3em" style="text-anchor: end; visibility: inherit; font-family: Roboto, sans-serif; font-size: 12px; font-weight: 200;" fill="rgb(33, 33, 33)" stroke="none" stroke-width="1px">-0.6</text><text x="0" y="301.6" dx="0em" dy="0.3em" style="text-anchor: end; visibility: inherit; font-family: Roboto, sans-serif; font-size: 12px; font-weight: 200;" fill="rgb(33, 33, 33)" stroke="none" stroke-width="1px">-0.5</text><text x="0" y="263.90000000000003" dx="0em" dy="0.3em" style="text-anchor: end; visibility: inherit; font-family: Roboto, sans-serif; font-size: 12px; font-weight: 200;" fill="rgb(33, 33, 33)" stroke="none" stroke-width="1px">-0.4</text><text x="0" y="226.20000000000005" dx="0em" dy="0.3em" style="text-anchor: end; visibility: inherit; font-family: Roboto, sans-serif; font-size: 12px; font-weight: 200;" fill="rgb(33, 33, 33)" stroke="none" stroke-width="1px">-0.3</text><text x="0" y="188.5" dx="0em" dy="0.3em" style="text-anchor: end; visibility: inherit; font-family: Roboto, sans-serif; font-size: 12px; font-weight: 200;" fill="rgb(33, 33, 33)" stroke="none" stroke-width="1px">-0.2</text><text x="0" y="150.8" dx="0em" dy="0.3em" style="text-anchor: end; visibility: inherit; font-family: Roboto, sans-serif; font-size: 12px; font-weight: 200;" fill="rgb(33, 33, 33)" stroke="none" stroke-width="1px">-0.1</text><text x="0" y="113.10000000000002" dx="0em" dy="0.3em" style="text-anchor: end; visibility: inherit; font-family: Roboto, sans-serif; font-size: 12px; font-weight: 200;" fill="rgb(33, 33, 33)" stroke="none" stroke-width="1px">0</text><text x="0" y="75.40000000000002" dx="0em" dy="0.3em" style="text-anchor: end; visibility: inherit; font-family: Roboto, sans-serif; font-size: 12px; font-weight: 200;" fill="rgb(33, 33, 33)" stroke="none" stroke-width="1px">0.1</text><text x="0" y="37.70000000000003" dx="0em" dy="0.3em" style="text-anchor: end; visibility: inherit; font-family: Roboto, sans-serif; font-size: 12px; font-weight: 200;" fill="rgb(33, 33, 33)" stroke="none" stroke-width="1px">0.2</text><text x="0" y="0" dx="0em" dy="0.3em" style="text-anchor: end; visibility: hidden; font-family: Roboto, sans-serif; font-size: 12px; font-weight: 200;" fill="rgb(33, 33, 33)" stroke="none" stroke-width="1px">0.3</text></g><line x1="50" y1="0" x2="50" y2="377" fill="rgb(0, 0, 0)" stroke="rgb(204, 204, 204)" stroke-width="1px"></line></g></g><g transform="translate(50, 0)" clip-path="url(#clip_0)"><clipPath id="clip_0"><rect width="1231" height="377"></rect></clipPath><g><g><g><line x1="0" y1="0" x2="0" y2="377" fill="rgb(0, 0, 0)" stroke="rgb(66, 66, 66)" stroke-width="1px" opacity="0.25"></line><line x1="82.06666666666666" y1="0" x2="82.06666666666666" y2="377" fill="rgb(0, 0, 0)" stroke="rgb(66, 66, 66)" stroke-width="1px" opacity="0.25"></line><line x1="164.13333333333333" y1="0" x2="164.13333333333333" y2="377" fill="rgb(0, 0, 0)" stroke="rgb(66, 66, 66)" stroke-width="1px" opacity="0.25"></line><line x1="246.20000000000002" y1="0" x2="246.20000000000002" y2="377" fill="rgb(0, 0, 0)" stroke="rgb(66, 66, 66)" stroke-width="1px" opacity="0.25"></line><line x1="328.26666666666665" y1="0" x2="328.26666666666665" y2="377" fill="rgb(0, 0, 0)" stroke="rgb(66, 66, 66)" stroke-width="1px" opacity="0.25"></line><line x1="410.3333333333333" y1="0" x2="410.3333333333333" y2="377" fill="rgb(0, 0, 0)" stroke="rgb(66, 66, 66)" stroke-width="1px" opacity="0.25"></line><line x1="492.40000000000003" y1="0" x2="492.40000000000003" y2="377" fill="rgb(0, 0, 0)" stroke="rgb(66, 66, 66)" stroke-width="1px" opacity="0.25"></line><line x1="574.4666666666667" y1="0" x2="574.4666666666667" y2="377" fill="rgb(0, 0, 0)" stroke="rgb(66, 66, 66)" stroke-width="1px" opacity="0.25"></line><line x1="656.5333333333333" y1="0" x2="656.5333333333333" y2="377" fill="rgb(0, 0, 0)" stroke="rgb(66, 66, 66)" stroke-width="1px" opacity="0.25"></line><line x1="738.6" y1="0" x2="738.6" y2="377" fill="rgb(0, 0, 0)" stroke="rgb(66, 66, 66)" stroke-width="1px" opacity="0.25"></line><line x1="820.6666666666666" y1="0" x2="820.6666666666666" y2="377" fill="rgb(0, 0, 0)" stroke="rgb(66, 66, 66)" stroke-width="1px" opacity="0.25"></line><line x1="902.7333333333332" y1="0" x2="902.7333333333332" y2="377" fill="rgb(0, 0, 0)" stroke="rgb(66, 66, 66)" stroke-width="1px" opacity="0.25"></line><line x1="984.8000000000001" y1="0" x2="984.8000000000001" y2="377" fill="rgb(0, 0, 0)" stroke="rgb(66, 66, 66)" stroke-width="1px" opacity="0.25"></line><line x1="1066.8666666666668" y1="0" x2="1066.8666666666668" y2="377" fill="rgb(0, 0, 0)" stroke="rgb(66, 66, 66)" stroke-width="1px" opacity="0.25"></line><line x1="1148.9333333333334" y1="0" x2="1148.9333333333334" y2="377" fill="rgb(0, 0, 0)" stroke="rgb(66, 66, 66)" stroke-width="1px" opacity="0.25"></line><line x1="1231" y1="0" x2="1231" y2="377" fill="rgb(0, 0, 0)" stroke="rgb(66, 66, 66)" stroke-width="1px" opacity="0.25"></line></g><g><line x1="0" y1="377" x2="1231" y2="377" fill="rgb(0, 0, 0)" stroke="rgb(66, 66, 66)" stroke-width="1px" opacity="0.25"></line><line x1="0" y1="339.3" x2="1231" y2="339.3" fill="rgb(0, 0, 0)" stroke="rgb(66, 66, 66)" stroke-width="1px" opacity="0.25"></line><line x1="0" y1="301.6" x2="1231" y2="301.6" fill="rgb(0, 0, 0)" stroke="rgb(66, 66, 66)" stroke-width="1px" opacity="0.25"></line><line x1="0" y1="263.90000000000003" x2="1231" y2="263.90000000000003" fill="rgb(0, 0, 0)" stroke="rgb(66, 66, 66)" stroke-width="1px" opacity="0.25"></line><line x1="0" y1="226.20000000000005" x2="1231" y2="226.20000000000005" fill="rgb(0, 0, 0)" stroke="rgb(66, 66, 66)" stroke-width="1px" opacity="0.25"></line><line x1="0" y1="188.5" x2="1231" y2="188.5" fill="rgb(0, 0, 0)" stroke="rgb(66, 66, 66)" stroke-width="1px" opacity="0.25"></line><line x1="0" y1="150.8" x2="1231" y2="150.8" fill="rgb(0, 0, 0)" stroke="rgb(66, 66, 66)" stroke-width="1px" opacity="0.25"></line><line x1="0" y1="113.10000000000002" x2="1231" y2="113.10000000000002" fill="rgb(0, 0, 0)" stroke="rgb(66, 66, 66)" stroke-width="1px" opacity="0.25"></line><line x1="0" y1="75.40000000000002" x2="1231" y2="75.40000000000002" fill="rgb(0, 0, 0)" stroke="rgb(66, 66, 66)" stroke-width="1px" opacity="0.25"></line><line x1="0" y1="37.70000000000003" x2="1231" y2="37.70000000000003" fill="rgb(0, 0, 0)" stroke="rgb(66, 66, 66)" stroke-width="1px" opacity="0.25"></line><line x1="0" y1="0" x2="1231" y2="0" fill="rgb(0, 0, 0)" stroke="rgb(66, 66, 66)" stroke-width="1px" opacity="0.25"></line></g></g></g><g><g><line x1="0" y1="113.10000000000002" x2="1231" y2="113.10000000000002" fill="rgb(0, 0, 0)" stroke="rgb(153, 153, 153)" stroke-width="1.5px"></line></g></g><g><g><line x1="82.06666666666666" y1="0" x2="82.06666666666666" y2="377" fill="rgb(0, 0, 0)" stroke="rgb(153, 153, 153)" stroke-width="1.5px"></line></g></g><g><g><g><g><g><path stroke="rgb(255, 112, 67)" stroke-width="2px" d="M82.67190833333333,137.84062668532135L83.497499,145.94023535810413L84.32062766666667,148.41970740079273L85.23115733333333,150.59642786161754L85.539728,150.68472275238622L86.277097,151.7217160606407L86.97712566666668,200.30943006002587L87.38869,276.0274333291565L89.09034233333333,273.50731389882947L90.70951766666667,225.07403124942303L91.64015366666668,243.02580264078983L92.62372266666667,206.05500442868748L92.839558,184.86783118795537L95.58181566666667,171.2300117742983L96.09268066666667,163.05416312801887L97.23012466666665,204.8180317208335L97.51982,184.14982104428458L97.97323833333333,171.75113386585718L98.41475700000001,163.370169842018L100.52920466666666,253.53790577120253L101.52221133333333,259.09661720157584L105.66986066666666,216.71991300096352L106.58285233333334,191.29424745583194L108.95252733333332,175.09647194697146L109.88234266666667,212.03174446809285L109.97836066666666,187.53900512542717L110.15029033333333,172.84338825914347L111.46992233333333,164.0260277655055L111.78669966666666,205.38938369757807L118.086137,184.4961260490115L118.12101533333333,218.61393554796987L118.33767133333333,191.48835939465877L121.00812066666666,176.1555153540408L122.884575,213.60956567855553L124.30802133333334,235.1394960691144L125.28912833333334,294.711207244297L125.88000833333334,278.61673323535547L126.72652599999999,222.30628928270275L128.156948,188.52002304492967L129.87829633333334,173.43201403149843L130.505696,164.37920863634778L130.974707,159.8900256290674L132.20652766666666,203.8502707831617L135.84987733333332,183.5726629158031L137.62169666666668,264.71359236488786L137.656575,359.10941261552426L139.69798333333333,275.7856477909061L139.94664533333332,225.79138889813066L140.231827,195.79483356318383L141.110761,224.45065643000825L141.68235533333333,194.99039408257156L142.671669,178.25673689891326L144.33844299999998,208.74404213940122L144.55099566666667,234.10518427204772L146.95308699999998,243.1956096643963L147.15538133333334,207.17986624804323L148.23414766666667,180.38667064765792L149.27516333333332,168.5520026133027L151.099095,162.39370201740013L152.91892333333334,157.75622143514937L153.45358766666666,149.78998353521794L153.503238,145.0102407952592L153.69322233333332,193.97989627483216L155.80438733333335,171.52418843902768L157.67961066666666,209.88826486109284L157.81378966666665,279.5604679050363L158.89460766666667,269.5262807430218L160.57943633333332,268.68952473767933L162.61427933333334,222.47621529202664L162.74640666666667,198.51822827637795L163.20064566666667,169.06343752760054L164.25150933333336,161.75806274126984L164.63065733333335,157.3748378694714L165.118954,154.7449029463924L167.05121366666665,148.92569266667346L168.13367300000002,144.49166515058508L168.64248633333332,147.95749953977005L168.72578399999998,139.66949994857154L171.09012466666667,190.77545176681903L171.11884799999999,174.78527128480093L171.13074766666668,206.6611672650708L171.87550266666668,230.97045665090877L172.55132166666667,196.5460242152548L172.69370733333335,178.2476147538624L172.85948199999999,169.1535684028984L174.2020926666667,161.81214126644855L175.35430866666667,137.61478475986914L175.791724,185.30137445127366L176.56274033333332,212.97082467076424L177.69936366666664,281.41000379083897L178.99396533333334,270.6360067686936L180.15602933333332,218.46035496005422L180.68576966666666,186.21246365016108L181.62584333333334,220.58622819009665L181.91800066666667,187.48798646463896L183.439927,173.75529232820242L184.63399700000002,154.20567539692146L184.92779566666667,147.65965591228138L185.41732333333334,143.7320442214974L185.60197333333335,141.375477207027L186.47188,145.1452865489257L187.91050866666666,148.34967237877447L190.19483433333332,133.77855443845746L190.230123,136.34588356191253L193.510738,136.9437796877285L193.62070733333334,137.30251848676565L193.69908099999998,132.33401109205937L196.31988,140.66290710465466L196.91075999999998,144.71774448750233L196.98010633333334,149.0356462430824L199.64275933333334,144.55763841997793L203.69315966666665,232.82208125431072L203.76086466666666,190.58824897729596L205.236013,267.9804493863776L205.36608866666666,215.92451918240752L209.028724,179.5072126329921L209.27410333333333,158.59932780450475L209.64627566666667,145.1120978062504L211.441484,142.20350823433125L211.80175666666668,176.7446058394368L213.55223866666668,166.36676372837158L213.75986733333332,202.55255733818493L214.35156800000001,276.1015379982631L215.55015166666666,210.42967409103755L217.906696,181.39405400520351L218.02323066666668,169.15643262783163L218.28502333333333,208.46761586856528L219.223866,165.6080712064605L219.712573,232.2573445215524L220.510261,194.4906562635124L221.47208233333333,177.01439398281698L221.53527366666665,161.34488706381873L223.24841533333336,151.94318291241976L225.34891166666668,187.7721579497758L225.82900166666667,167.79954432044642L230.11124033333334,160.99972681697741L231.975795,151.73608676431496L233.60974233333332,140.99415262036277L236.57768333333334,129.36524230252354L238.33349966666668,137.93914560622366L243.00842733333332,137.89973691431518L244.807739,137.8760916991701L245.32188666666667,143.0456552442116L245.58901366666666,187.61739314652695L246.69198966666667,146.97168723617324L249.00996266666667,186.6742677347322L251.565929,161.95706176438688L252.1953803333333,153.2529879574702L252.77230899999998,235.21178917912994L253.02671566666666,197.205824406316L253.21916199999998,164.03474503703129L254.4838093333333,153.55709769634728L255.84570566666667,152.45425884251787L257.122663,151.79255553022026L257.7127223333333,146.21178286871313L258.9744973333333,173.96582331658004L259.77095433333335,211.35324578762413L261.46891366666665,171.5806976411066L262.329793,158.08466813524495L262.54193533333336,156.113301330566L264.10571566666664,196.40048439369178L264.27723499999996,167.79279119798886L266.715846,156.75442561763137L268.17293966666665,201.02641166244516L269.456052,175.7520976715956L270.59431666666666,155.40375972650492L271.38092566666666,132.82725617296722L272.5983846666667,134.8326043779089L274.75961033333334,136.0358121773263L276.220397,188.5952435982621L276.42063966666666,157.9258963274894L277.583114,248.38303779649365L278.068128,209.34982290260572L278.164146,175.56239486511097L278.26057433333335,212.31118871674266L279.04308,172.1554645221253L279.093551,163.61327893798472L281.4763566666667,148.12046848633838L282.1152456666667,138.82478165357682L287.28216299999997,143.6148692168556L291.22710766666665,182.77517422662748L291.652213,263.2926045359765L292.48929300000003,207.92806384513347L293.577497,169.52558903738597L294.46545833333334,146.4841041527375L294.594303,148.210462716352L295.4432826666667,133.69502864100403L299.71321133333333,130.16951718460243L300.171964,112.50296165901854L300.702525,164.10803418611547L301.048436,138.04982141050732L301.146916,179.43615003700873L301.3619306666667,152.43044047162428L304.0307386666667,141.41076428297458L304.7332293333333,134.79895856978473L306.1661133333333,178.42812693954693L307.03068566666667,208.8468806579184L307.9403946666667,232.2818801924271L308.049133,199.68912834016578L311.00517433333334,169.76597812764706L311.046618,250.30333507891214L311.231268,200.13450160912106L313.29729633333335,175.2169505160536L314.1331453333333,155.08267143317974L314.290303,179.28835645526001L316.4646593333333,157.5255144349298L318.027619,144.46780922273166L321.753856,178.10318643247706L322.39972066666667,167.18191208419577L322.604477,155.445397924646L322.83180166666665,200.2409950466539L323.25403466666666,217.69335331985863L323.97252833333334,180.56851311546274L324.2454,204.94735607160158L324.29094699999996,172.92091420473471L324.473135,153.70504908461464L326.05168733333335,142.17552945076878L327.16574233333336,124.89031856929932L328.60314,124.88669114157958L329.25762166666664,130.0682653590763L331.46685633333334,117.62595955251005L334.7979423333333,110.1605766303441L338.7703793333334,121.23259665233499L342.09202766666664,112.32455889023903L344.94384433333335,122.53098488472442L345.721426,170.12483913315856L346.35826333333335,152.02740404166892L347.3307533333333,125.61769264971088L347.656558,120.13936632013242L348.80795333333333,127.21986934266044L349.44971466666664,126.28442160559628L350.000382,172.3769101540621L350.7065656666667,148.19489626096941L351.64540833333336,138.86943775658168L352.95724399999995,128.0904139460287L354.3216023333334,116.43924926645528L355.6978603333333,124.99980023400171L356.24729666666667,171.60613283691518L356.30064,142.54868116276091L356.60797966666667,135.4817086976566L356.757341,136.42527589272248L360.04329033333335,126.62391682771317L360.4339276666667,100.0081000966279L360.9755676666667,110.89986084446002L362.0830573333333,121.67616718080457L364.46750433333335,107.40695165673982L364.662823,114.39667155581766L364.86552766666665,108.22300327055488L366.54461166666664,114.88630308588048L367.01321233333334,124.06803140210926L367.469503,124.39331940303937L367.6164023333333,83.11849074298559L368.96598866666665,89.45609478285564L371.321302,77.70740686971338L371.56093666666663,143.23069232415193L372.8346113333333,135.89091651803872L373.69302866666663,131.48705103437078L374.572373,113.29348196887955L375.0996513333333,112.74483934985986L375.471003,117.59940417168971L375.7853183333333,90.35214430068993L376.9387653333333,104.16378714218774L377.492305,96.89952251002215L377.90633133333336,108.09221462956084L379.6026493333333,109.62407866538176L381.44340466666665,137.40445124400028L382.85413066666666,116.84392097110967L384.8614813333333,104.5076039309229L384.9135936666667,112.65706235855373L387.6144076666667,112.36298786455126L388.187233,153.65654181989274L389.6746913333333,152.51392531664516L392.97992633333337,131.09335665059893L393.373436,113.05726421506886L394.414862,107.41935998965316L394.91013433333336,109.2203670049847L395.733263,110.30097093329674L397.10541766666665,105.76558233526855L397.34792466666664,108.22810013146704L398.448849,109.70561052829926L398.660581,120.95961586756054L398.973255,122.52827008231013L400.18579,118.2857122179182L401.72043666666667,110.55642879136275L402.88947633333333,111.10260744334977L406.925515,116.61406446600989L407.14094,114.73718997168561L408.72893,113.61106471331728L409.64807666666667,112.9353892774094L409.7822556666667,122.89748424057416L413.27870600000006,144.42599324085865L413.96888666666666,131.424346955708L415.19701433333336,123.6233589037307L416.098927,118.94276607254434L418.56626133333333,121.31816076707418L422.87722333333335,117.55964634788974L423.244882,99.75328960640995L431.1758046666667,99.43697410091022L431.77407066666666,94.06343468525567L432.964858,106.39056193470097L433.52537333333333,113.78683828436812L435.4498366666666,92.30585297062088L435.91146166666664,115.70351200708205L435.9151546666667,119.37460720424923L438.9508006666667,111.2097652213876L439.004144,90.75960913283255L441.866219,94.0407663785376L442.6044086666667,132.29571207421765L443.2125226666667,93.04367814336865L444.2157876666667,100.59495761632708L444.98064899999997,99.9419754686343L445.7176076666667,94.36643662943766L445.988838,70.28611287650065L446.4004023333333,92.12416884944795L449.09588199999996,89.6757515343783L449.423328,88.20670226888406L449.8668983333333,76.95777136133043L450.14633533333335,65.02466326621729L450.68140999999997,73.41604930798746L451.72940133333327,73.26713138246855L453.78968499999996,83.54527972831919L454.30301199999997,74.1609178369915L457.1934,68.53030070219492L457.674721,65.15193042131695L458.154811,73.49240735395216L458.6020743333333,73.31294396295229L460.6324036666666,78.38901772602843L460.9832386666667,91.80216052326233L461.160913,89.48254766221444L463.74437166666667,104.5845288220382L463.99549566666667,107.51946802352882L466.006129,98.91293216237437L467.4521436666667,83.38151154451973L467.85632200000003,84.43015715142135L469.55264,90.24309462791709L470.31914266666666,88.54710812500731L471.97606866666666,92.71326521206866L472.55997299999996,90.02921047549826L474.60999833333335,103.97002684707276L474.95796099999995,112.33451610824368L481.7264093333333,117.35320966494618L482.6943856666666,99.62942647309625L484.57412266666665,99.36265734446957L485.6315516666666,99.20259530551978L485.68776733333334,88.73905785744041L485.7357763333333,103.19593583801179L486.396413,96.31881172751662L486.8535243333333,81.8250392836051L486.973752,83.49627379487258L487.58679,84.4990156251806L488.40499466666665,90.28440971217262L489.74719500000003,93.75564672614165L490.1205983333333,85.47088870981352L490.3598226666667,75.31628322588811L490.8875113333333,84.77476971082338L491.67781333333335,85.2661131747511L491.9859736666666,85.56091925310774L493.733173,96.10530228217056L493.7512276666667,92.06443271755938L496.12993,89.6399087316976L496.4126496666667,103.73644636256613L497.3084073333333,112.19436781753967L497.82337566666666,112.0853719826035L502.89263366666665,86.10122363898111L503.20776966666665,70.51073687990281L505.90201833333333,71.52394280207022L506.9422133333333,87.68311613066119L506.988581,76.64361967839669L507.285252,75.20367360471411L507.3796286666667,79.52345438753797L508.77804466666663,82.11532398077986L509.0599436666667,88.85419472553217L509.8227533333333,72.16251728473834L513.9568616666667,72.51501104497153L515.461554,77.91025797523999L515.644973,75.96365433572497L516.0975706666667,85.16319237672548L516.7963683333334,75.13166542603528L516.990456,74.29649880620214L517.0848326666667,89.3466500140272L518.2468966666667,77.64174000841632L519.3966506666667,70.61879400504978L521.0765553333333,66.4050264030299L521.3916913333334,58.69301853833206L521.5718276666666,74.80081202183729L522.2394400000001,63.73048990961651L523.2455773333334,67.45579461989847L523.2665043333334,54.139729917872216L523.399042,46.150088849561406L523.4429476666667,72.45880375915584L523.694482,93.42778225549354L524.3534773333333,85.2741711509722L524.7814549999999,95.93325314000234L524.9706186666666,91.9612032322585L525.037503,89.57797328761215L525.613611,93.3317854331791L525.8331393333333,100.76782255198718L526.567636,94.8619437559018L527.7957636666666,106.8696662535411L528.3714613333334,93.33930042625319L528.4321906666667,100.77233042428405L528.7296823333334,120.78339847927995L529.0989823333333,117.2387892561001L529.289377,89.19327625017421L532.2593696666667,93.10096664894259L533.5974666666667,100.6293298770108L534.127207,68.86009927446352L534.305702,65.34980956467815L534.7669166666667,73.61113708706394L535.9449836666666,94.11918281401218L536.166974,85.68900923898828L536.6614256666667,75.44715554339297L538.2785493333333,95.2207933260358L539.6133636666666,75.98247644504049L540.9276613333333,85.17448676586237L541.1533446666666,80.32219273364596L541.3597423333333,82.59456698844464L543.28954,78.7742419907429L543.5127613333333,92.03329620563852L546.4417206666667,89.6212290716402L546.4917813333334,98.54148789240313L548.442506,77.9748931848609L549.2520936666666,70.81868591091656L549.4810596666666,87.25996227685586L551.9360839999999,86.75722871437058L555.8047066666667,91.6393375656866L556.627425,68.64985343825002L557.8173916666667,60.03991475946414L558.0447163333333,75.60895031629033L560.1021276666667,64.21537288628832L560.3081149999999,78.11422519238481L560.5555459999999,70.90228736252602L560.5978103333333,76.94262376577267L563.1956306666667,85.7505745965279L565.2214463333333,80.66784543204528L565.5308376666667,77.61820793335569L566.2493313333333,75.78842543414196L566.7737373333333,85.05805559754945L567.376517,100.98733448207723L567.4630973333334,79.44240113866537L567.7897226666666,87.25044158203727L568.0445396666667,102.30276607276993L568.394554,85.41540964366196L568.5295536666666,85.65049713445427L568.6120306666667,75.42405052776768L570.330917,79.65567941782255L570.341996,82.19465787540304L572.124484,78.5342953993704L572.3641186666667,76.33807791375075L573.8852243333333,75.02034742237899L574.5819703333333,94.96470957697494L575.4133056666667,86.19632642031353L578.393967,101.67029641396188L581.5408133333334,90.21967852250566L581.6766336666667,98.90055756292244L584.2666576666667,93.74158476246299L585.9810303333334,85.46245265515388L587.3823186666667,101.22997271663989L591.5525363333334,100.32298452882196L594.6509633333334,84.22754071729322L594.9172696666667,90.1215247674402L597.043617,93.65791519752838L597.9401953333333,100.96349928704916L597.9836906666667,79.42810002164853L598.025955,92.42561074329504L598.1757266666667,89.85661667068652L599.4375016666667,77.94772000241194L601.5572836666666,70.80238424854228L603.46082,92.43393054912538L605.8920449999999,79.49410832947522L606.2038983333333,82.09771634594219L606.8501733333333,78.47613048169386L609.986351,81.48692963727339L610.2501953333333,93.66090879355684L611.365071,80.2302952761341L612.934596,82.53942851393755L613.7979373333334,83.92490845661958L614.7039533333333,89.93994541103604L614.9739526666667,103.91646780839541L617.4712413333333,107.11863113445628L620.241812,103.85617957951182L620.412921,101.89870808477134L621.4711706666667,105.90797586205564L622.343129,108.31353652842617L624.885144,114.94062247882951L625.3549756666667,103.36562483555477L626.0923446666667,101.60437580017091L626.2400646666667,105.73137592952159L627.3791500000001,92.65632623184148L627.942948,84.81129641323344L629.7069710000001,85.28802919619712L630.945357,95.94156824802421L631.1587303333333,112.70119162294304L632.5292436666666,102.02196519847534L633.6441193333334,95.61442934379473L634.132416,91.7699089545339L634.6055303333334,79.09569537272037L634.9403623333333,71.49116722363222L635.9514236666666,61.74470078359838L636.7011026666668,61.080570470159024L636.9907979999999,71.04959363035249L637.6698996666668,97.76600685234004L638.2472386666666,103.42835456082305L638.4991833333333,91.27451453416992L638.8528906666667,78.79845872050197L640.1392856666666,76.49657702997729L641.9139773333334,80.29919756624345L646.0722953333333,103.31576809032707L646.2282220000001,80.83946130361525L646.8933723333333,93.27242751247506L648.0061963333333,100.73220751867785L648.0812873333333,79.28932271353062L650.6360226666667,87.15859396518265L650.946645,102.2476563791096L653.2900586666666,90.56609562514186L654.4410436666667,83.55715917276119L654.5949186666667,89.71929640249478L655.209598,98.60032913357655L656.896068,88.37769703072692L657.0622529999999,92.61161799372665L657.9432386666666,89.96822214449305L658.445897,78.01468328669586L658.7318993333332,86.39381030908179L659.8315926666667,75.8700361854491L659.8447233333333,74.739522385398L661.4023486666666,79.24496365594833L662.1060703333334,66.3969808900831L663.148317,53.504439432887914L665.5828246666667,71.687663996797L667.7555396666668,72.23009907220677L669.719395,77.73930966803356L670.0562786666666,70.67733580082015L670.1522966666666,76.80765282874916L672.1362583333333,85.66959203431378L672.351273,75.43550522058824L673.4632763333334,95.21380425590051L673.4940513333332,81.16203255354031L673.7755400000001,72.73096953212419L675.0405976666667,67.67233171927452L676.5715513333333,75.00464925627422L676.7036786666667,79.40404090202162L676.84073,87.22742487827723L679.715115,91.9214558258044L680.107804,94.73787495609444L681.0413123333333,101.61147626573637L682.4278286666666,90.18438643357037L682.5730866666667,93.69563275898027L683.0224016666666,90.61862988009767L684.1828243333333,99.13992865836451L684.2653013333334,93.8852074197282L685.265694,90.73237467654647L685.6464833333334,83.65692660360398L688.3276013333333,89.77915686100043L689.8249076666667,93.45249501543832L691.5614383333333,74.92149745868198L692.183914,58.61914937404726L692.3940046666665,85.1239907479759L695.2511556666666,80.29189624646165L696.5067756666666,72.20888774787701L697.1825946666667,88.0940839408059L697.590466,97.62520109478943L697.8346143333333,72.24137155571172L699.1082889999999,72.56232248400802L699.7451263333334,88.3061445015976L700.8850323333332,92.56868703802284L701.1734966666667,100.30996323400649L701.6088603333334,115.32222861453243L702.057765,82.85958806755752L702.8394499999999,78.93325463821058L704.0511643333333,81.76120300763587L704.6256310000001,78.27422247871009L704.626862,65.81453393664508L704.6670746666666,73.88997171024411L705.950187,68.36773302614647L706.7938323333333,75.4218900403974L707.8241793333333,95.20563458601224L708.08351,70.78963165044539L708.2665186666667,82.05877932733151L710.4490816666668,88.82026905701072L711.232408,66.9584123330445L711.7190633333333,74.57629874808374L711.8991996666667,84.33077958591456L712.9804280000001,95.36721792008088L713.4584663333334,96.80533108911277L713.6377819999999,92.48444887817719L714.6131443333334,105.44316932690634L715.9413933333333,102.85090249498184L717.1682900000001,106.4792925081819L718.43622,87.92132550490915L718.9905803333334,56.05154710062158L720.421823,73.215929159211L720.7217766666666,88.69830850671939L721.5978383333334,97.98773583433757L723.0036403333332,72.45889239944059L724.9662646666667,83.06033633850238L725.2358536666666,68.68620225252045L725.676962,80.79672281212409L726.3154406666666,82.87928503553151L726.5550753333333,89.31257192015696L727.1816543333333,67.25379629802735L727.5267446666666,59.202278228235436L728.6305413333332,69.92261716165078L729.31826,86.72232046552263L729.378579,86.43464250402307L730.1360543333334,91.4457858394781L731.2328753333334,99.63622251487968L732.6571423333332,104.55048395834682L732.8828256666666,102.31529183561993L733.549207,80.23917555079099L734.6144323333333,66.99350577989361L736.737497,64.22985346793615L737.4211123333333,78.12291354137353L738.1687396666666,70.90749812482413L738.1753050000001,51.02699797605643L740.5187186666667,54.649948785633875L740.7320920000001,62.00746994550885L743.249487,50.870730619048246L744.1177523333333,59.739940169105076L744.9761696666667,70.2452154497201L745.3315183333334,76.54838061808913L746.2391756666666,64.77902882027249L747.0586113333333,83.6361680224694L748.5448386666667,84.58295216173873L750.283421,85.15102152175275L752.3207259999999,85.49186426130872L753.0634293333334,85.69636990504232L756.7662773333334,80.6353237407015L757.0805926666667,98.3336942444209L757.8286303333333,93.4014678949096L759.2684899999999,85.25838141107428L759.5643403333333,80.37253064432069L759.8774246666667,72.25726838659241L760.520417,67.38811103195546L760.6636233333334,69.6503672933018L760.7846716666667,65.82397262307622L761.2795336666667,89.44688469739326L762.6397886666666,93.253131717274L764.2285993333332,85.1693808280405L765.7989449999999,85.50287984508138L767.052103,90.88672936766066L767.1916163333333,104.48453818237017L767.905186,81.54072111174601L768.1838023333333,67.77443536356175L768.7131323333333,80.24966267874888L769.728297,92.91854833755526L773.480385,100.51987973283907L775.4069000000001,89.52942851383196L776.5139793333334,103.67015767007297L777.343263,96.60334595030085L777.80735,102.73075830048643L778.0654496666667,106.40720514882398L778.8738063333333,113.79682308929442L782.5179766666666,118.23059497712421L783.8425326666667,110.52335844688633L784.3817106666667,111.08276636021148L785.0608123333333,106.23466071496495L785.4731973333334,98.1420466536885L786.6024346666667,82.9189802393082L787.9146806666668,84.15263949184198L788.988523,95.26033386363733L790.7127436666667,91.55745166643949L791.7406286666667,89.33572234812078L791.8107956666666,88.00268475712951L792.034017,76.8353631013728L792.13619,64.95121831024271L792.5518576666667,57.82073143556467L793.769727,74.27743919840307L793.980228,68.60021351904187L796.8587163333333,80.74512901026316L797.2715116666667,98.39957740615789L797.600599,98.62474734253279L798.164397,103.94359829316494L799.4224790000001,101.95115931296321L799.8291193333333,100.75569592484219L801.382231,105.22216856609815L803.911936,92.35080069023985L804.154443,94.99548187475575L804.219686,101.76604013604623L804.4790166666667,90.27712363220876L804.8762193333333,104.11877530287282L805.6521596666666,96.87251652998074L806.5885403333334,113.25976059211698L807.5466686666667,76.43835545643215L811.310246,75.08051282444029L811.7427373333333,84.6333085935022L813.5153773333333,95.54873532463345L813.5256356666667,91.73049141948958L813.8099966666666,99.80704586288657L814.2076096666666,78.73422796715094L814.702882,40.17178498261449L815.2276983333334,68.87182115810083L815.6885026666667,70.54059336898904L816.2420423333334,81.90935635845771L816.8341533333333,104.28186448920314L817.7491966666666,86.60286869352193L818.1587093333333,75.99547121611315L819.708128,79.9985329543774L820.2021693333332,92.76787050293237L822.8299440000001,100.42947275117845L824.9242853333334,79.10768410012611L825.2184943333333,87.04961135891374L826.2611513333334,91.81476659063871L828.5684556666668,84.30636062851175L829.46011,74.61756637710708L833.7640963333333,68.80428982626424L836.302008,70.50007456988709L836.4205943333334,81.88504507899653L840.5842466666667,93.89977777770383L841.40081,101.108617958702L843.1824773333333,105.43392122464023L844.4692826666667,87.29410273478415L845.6506323333333,102.32896220264425L846.8397783333334,100.98237765865082L847.3596706666667,105.35817648283574L849.1089216666667,113.16740588970146L850.9381876666666,102.30169488207797L851.4666970000001,100.96601782808483L854.1597146666667,115.71586137097941L855.6763066666666,93.46326906968277L857.2987646666667,74.9279618912287L858.2708443333333,79.35802848299429L858.626193,82.01606843805362L858.980721,88.79464139989645L860.3430276666667,82.4942855140664L860.5436806666667,73.53032130843987L861.711079,62.968193234482946L862.0500143333333,51.44716683952782L862.0693,70.45330100255475L862.9437203333333,87.04073133183877L864.0356173333333,96.99318981029607L864.267866,102.96466517825735L867.750365,80.62879955637341L867.9153190000001,72.41102973382407L868.314163,83.0316181773587L868.812718,73.85272090641523L868.816411,57.97788344268716L870.2414986666668,64.00423073974085L871.322727,72.80378866855402L872.4696086666667,72.89977275171339L876.0382776666667,57.406114549866075L876.560632,74.02866794343636L877.4933196666667,89.18595177725464L877.767012,87.91282241460985L877.9721786666667,76.78144344876591L878.7157026666667,80.4701174175166L879.0685893333334,61.948321349348035L879.739074,71.57024303431834L880.2815346666666,82.52714671942906L880.8473843333333,83.9175393799145L881.096867,79.56802317852969L881.4805286666667,71.77456390711784L881.853932,82.6497381195612L881.8715763333333,89.17484320880101L882.3812103333333,87.90615727353766L883.0352816666667,81.9611939147036L883.9655073333333,93.94546679824116L884.548591,90.76853142720176L884.569518,88.86237020457816L885.624485,92.90242302158492L886.1923863333334,84.95895561062706L886.8649226666666,90.56037370344052L887.570696,88.73747557032138L887.8681876666667,72.09248803870699L888.4598883333334,98.39174237380517L888.9531089999999,98.62004576134736L889.6465723333333,103.94077790622745L890.3273153333333,101.94946708080076L891.978907,100.7546811473185L892.4253496666666,94.85406003664815L893.326852,86.12993557256989L893.516426,86.07921156825145L894.908687,60.13002604211284L895.3625156666667,75.66301708587955L896.56192,95.35031081330149L896.800734,91.61143783623797L897.114639,104.91936382529035L898.1330863333333,92.16912009285029L898.2352593333334,84.51897385338627L898.6090730000001,69.56138476145078L898.6812916666667,60.58683130628949L900.0111820000001,60.38584878377372L903.472754,49.89776016910229L903.6077536666667,59.156157899137455L903.9372513333333,54.343695188901485L904.473557,72.19121745040516L906.4538256666666,82.89973136908117L906.5297373333334,73.77359106854384L907.0721980000001,83.84915553996433L908.5411913333332,105.44574399810713L909.93058,82.1174468482833L910.8460336666666,83.67171833367951L911.757384,69.05303144962674L912.1176566666667,65.46556886977604L913.9493846666667,84.04809205217155L914.3531526666666,69.27885568072196L914.9977863333334,86.33606413873908L916.512737,70.65163893266248L920.6296113333333,76.79223470785455L921.7194566666666,85.66034228532459L922.9090130000001,85.79745671945182L924.0505603333334,91.06347493050912L924.5700423333334,99.4068354077245L926.946693,94.04535259289177L928.8580256666667,85.64471222986361L929.4082826666668,96.15557778733721L930.6872916666666,112.8295962229833L932.5407673333334,96.9152584079185L932.6236546666667,87.36665571887964L932.953973,92.00499433016581L933.6572843333333,94.78799749693758L934.106189,101.64154950935536L935.0212323333334,90.20243037974173L935.8193306666667,93.70645912668309L936.1923236666667,80.25762547600985L939.9017369999999,77.37207595973446L940.0535603333333,91.1919957443728L940.1696846666666,104.66769857017124L943.1511666666667,97.20187049035981L944.840509,92.72237364247296L945.7719656666667,84.85092373606476L947.3583143333333,74.94430424163889L949.2675953333332,89.73533355617612L951.0028950000001,98.60995114489847L953.455047,88.38347248461518L954.3352120000001,87.43133371547862L956.0274266666667,76.49255022928716L956.0504053333333,101.03177968815329L958.6030890000001,105.38781854319791L958.8037419999999,118.36894180004727L959.6334360000001,74.32011687770446L959.9588303333334,84.17707046368695L964.4766003333333,95.27499328940499L965.0949726666666,91.56624732190006L965.4946373333333,89.34099861784955L966.7518986666666,72.45459962012876L966.9402416666667,93.42525977207728L967.0756516666667,85.27265766092246L967.6271396666666,90.74859605716527L970.6032873333332,78.48290988139429L970.7883476666667,91.85849722091626L973.9963336666666,89.51634968080684L975.9002803333334,82.92731160616017L976.9741226666667,73.79013696369613L978.082433,94.22658273999144L978.1263386666667,101.30470037430078L978.950288,69.26531932574244L979.5936906666666,75.96044294370255L980.1607713333333,74.79376644035007L980.9576386666666,68.91000986421005L982.8213726666667,86.11475664883193L983.7286196666666,91.25385488813721L983.955534,99.52106338230136L985.756487,99.29763892821884L987.69285,104.34733464901099L987.882424,107.3771515197125L988.435143,93.64379270950361L988.513927,80.22002562570215L989.31777,92.90076582484033L990.0436496666667,84.95796016903272L990.579545,85.37602744967674L990.842979,80.44311714393454L991.441245,77.4833709604893L994.1707823333334,86.07502235158404L994.409186,101.59751341095046L995.8515076666667,100.54350894540833L995.96517,73.99235626608302L996.029182,78.79666398435933L996.7374173333334,71.31174839061562L999.090679,66.82079903436939L999.142381,84.86123015092753L999.1641286666667,95.6854893826362L1000.9564646666668,91.81254497783878L1004.6088416666666,84.30502878437936L1004.6424890000001,69.43301772004664L1006.420053,81.24481153086603L1006.6498396666667,62.41313781735765L1008.981764,71.84913403867169L1011.5061346666666,51.591979524364966L1012.0933216666666,75.72393900669866L1012.5344299999999,90.20311441521203L1012.5865423333333,93.70686898619148L1013.4987133333334,111.36037094229589L1014.3497446666668,96.03372323950605L1015.4190733333334,92.0214852919607L1016.6828999999999,84.43039184930497L1016.8322613333333,79.8757369072591L1020.3615383333333,61.59169304319347L1022.4062293333334,86.9075158259161L1022.4965026666666,86.54575972025917L1022.6282196666667,91.51245673099355L1022.6413503333333,78.94122403859613L1025.340523,102.50098509728622L1025.4829086666666,90.71809173250028L1025.6503246666666,88.8321052642097L1026.4385750000001,82.51676270910679L1026.7221153333335,83.91130897372116L1028.052416,79.56428605836123L1030.9103876666666,76.95607230914528L1031.0921653333332,85.75864428432523L1034.184027,85.85643791885218L1034.6575516666667,70.36386320073034L1035.5200723333335,71.43581859456674L1038.6644566666666,92.81399228028761L1038.8339243333332,90.08964671642963L1038.9377386666667,83.27128870398634L1039.9762923333333,73.99652322239179L1040.345182,89.16666466374099L1042.2167123333334,77.53375104533971L1042.2421530000001,75.7377524248799L1043.0907223333334,85.02765179199223L1043.2224393333333,80.2340917493239L1043.2519833333333,82.54170527430385L1044.1099903333334,78.74252383871085L1044.611828,86.83051464029077L1045.019289,86.49956013243155L1045.0578603333333,101.85223720300648L1045.6241203333334,85.14509232180392L1045.8855026666665,85.48830561779185L1047.6995863333334,101.24548337067512L1049.2436706666667,89.96479182008117L1049.6384113333334,103.93137509204871L1049.7508426666666,91.57632685290531L1050.8521773333334,78.9795483588383L1052.5349543333334,76.60523081297906L1052.6301516666667,75.180639161916L1052.754893,74.32588417127813L1053.8373523333332,68.62928050276689L1054.1635673333333,91.13006830166013L1054.5722593333332,68.34429187983416L1054.777426,65.04032737499558L1056.0186843333333,78.6091973238354L1056.5759170000001,86.7505192931393L1059.652186,81.2678122500121L1059.8454530000001,88.34568712529777L1061.796588,97.77616328637144L1064.6615353333334,82.699450218918L1067.2088846666668,94.38842029988295L1067.5506923333332,80.66680217992976L1068.6315103333334,67.25008400447199L1069.0467676666667,54.016301301521274L1069.1423753333333,82.36228078091276L1070.8202283333333,83.81861981680473L1071.863706,84.69242323833991L1073.8283820000001,80.03295461713248L1074.1866029999999,72.05352277027949L1074.630994,82.8171134374582L1076.113118,84.091519410732L1077.83898,58.93741074760118L1077.942384,80.1311971788666L1077.9760313333334,82.4799685320295L1079.681787,83.88923246747474L1083.350167,89.91854037932292L1084.2455143333332,88.35237445230327L1084.4227783333333,87.41267601963905L1086.7411616666666,92.03260651062146L1086.7928636666666,74.06956660288701L1088.38865,84.02674029879648L1091.3262263333334,79.63354485340642L1093.2724373333333,66.63012736146291L1093.4878623333334,84.74682770895743L1093.5801873333332,85.24934797363152L1094.1365993333334,69.99960923359797L1095.4599243333334,86.76851598957779L1097.845192,91.64611105435851L1098.258808,84.20516730674366L1100.173013,74.55685263114128L1101.5734806666667,58.400362477522854L1103.3342209999998,69.44146771122321L1105.5483796666667,76.06613085144345L1107.2360806666668,69.67342851086606L1107.4289373333334,71.0215577806482L1109.7013633333333,66.6466846683889L1109.9885966666668,69.20551035161432L1112.6139093333334,86.29205694127451L1112.826462,65.44148506360276L1112.888012,73.66614238641874L1114.2745283333334,73.41718498243223L1114.4903636666666,68.08406098945936L1116.3315293333333,75.25168794193269L1116.7357076666667,84.73601422577144L1118.0221026666666,100.79410909723663L1119.871475,100.06146635718004L1120.9059253333332,104.80563026372705L1122.0606033333333,102.46837961884808L1122.324858,106.24977793984098L1122.3511193333334,108.51861749421052L1123.1328043333333,94.32867117065483L1123.1931233333335,90.99845292710242L1123.778669,94.18407153155196L1123.7794896666667,80.54419516602627L1125.5086343333335,77.5440177737443L1125.559926,75.74391133837513L1127.022354,74.66384860070117L1128.5393563333334,94.7508097221945L1129.7498396666667,101.6192368445095L1130.071541,110.92404266847947L1131.025566,90.5881756010877L1131.3386503333334,88.75415670890969L1133.1117006666666,92.83749548595763L1133.2606516666667,79.73624729157457" style="fill: none;" fill="none"></path></g></g></g></g><g opacity="0.2"><g><g><g><path stroke="rgb(255, 112, 67)" stroke-width="2px" d="M82.67190833333333,137.84062668532135L83.497499,150.8000005617738L84.32062766666667,150.8000005617738L85.23115733333333,153.15625112354758L85.539728,150.8000005617738L86.277097,153.15625112354758L86.97712566666668,269.79063848257067L87.38869,386.42500898838045L89.09034233333333,269.79062724709513L90.70951766666667,153.15625112354758L91.64015366666668,269.79063848257067L92.62372266666667,150.8000005617738L92.839558,153.15625112354758L95.58181566666667,150.8000005617738L96.09268066666667,150.8000005617738L97.23012466666665,267.43437949419024L97.51982,153.15625112354758L97.97323833333333,153.15625112354758L98.41475700000001,150.8000005617738L100.52920466666666,388.7812679767609L101.52221133333333,267.43437949419024L105.66986066666666,153.15625112354758L106.58285233333334,153.15625112354758L108.95252733333332,150.8000005617738L109.88234266666667,267.4343907296658L109.97836066666666,150.8000005617738L110.15029033333333,150.8000005617738L111.46992233333333,150.8000005617738L111.78669966666666,267.43437949419024L118.086137,153.15625112354758L118.12101533333333,269.79063848257067L118.33767133333333,150.8000005617738L121.00812066666666,153.15625112354758L122.884575,269.79063848257067L124.30802133333334,267.4343907296658L125.28912833333334,384.0687724709511L125.88000833333334,254.4750224709511L126.72652599999999,137.84062387645247L128.156948,137.84062387645247L129.87829633333334,150.8000005617738L130.505696,150.8000005617738L130.974707,153.15625112354758L132.20652766666666,269.79063848257067L135.84987733333332,153.15625112354758L137.62169666666668,386.4249865174294L137.656575,500.7031429767609L139.69798333333333,150.8000005617738L139.94664533333332,150.8000005617738L140.231827,150.8000005617738L141.110761,267.4343907296658L141.68235533333333,150.8000005617738L142.671669,153.15625112354758L144.33844299999998,254.47500000000002L144.55099566666667,272.1468974709511L146.95308699999998,256.8312477529049L147.15538133333334,153.15625112354758L148.23414766666667,140.19687724709513L149.27516333333332,150.8000005617738L151.099095,153.15625112354758L152.91892333333334,150.8000005617738L153.45358766666666,137.84062668532135L153.503238,137.84062668532135L153.69322233333332,267.43437949419024L155.80438733333335,137.84062668532135L157.67961066666666,267.43437949419024L157.81378966666665,384.0687724709511L158.89460766666667,254.47500000000002L160.57943633333332,267.4343907296658L162.61427933333334,153.15625112354758L162.74640666666667,162.58124775290491L163.20064566666667,124.88125140443447L164.25150933333336,150.8000005617738L164.63065733333335,150.8000005617738L165.118954,150.8000005617738L167.05121366666665,140.19687724709513L168.13367300000002,137.84062387645247L168.64248633333332,153.15625112354758L168.72578399999998,127.2375005617738L171.09012466666667,267.43437949419024L171.11884799999999,150.8000005617738L171.13074766666668,254.47501123547556L171.87550266666668,267.4343907296658L172.55132166666667,144.9093755617738L172.69370733333335,150.8000005617738L172.85948199999999,155.51249887645247L174.2020926666667,150.8000005617738L175.35430866666667,101.31875000000002L175.791724,256.83125898838045L176.56274033333332,254.47500000000002L177.69936366666664,384.0687724709511L178.99396533333334,254.47501123547556L180.15602933333332,140.19687724709513L180.68576966666666,137.84062668532135L181.62584333333334,272.146875L181.91800066666667,137.84062387645247L183.439927,153.15625112354758L184.63399700000002,124.88125000000002L184.92779566666667,137.84062668532135L185.41732333333334,137.84062668532135L185.60197333333335,137.84062668532135L186.47188,150.8000005617738L187.91050866666666,153.15625112354758L190.19483433333332,111.92187752798202L190.230123,140.19687724709513L193.510738,137.84062387645247L193.62070733333334,137.84062668532135L193.69908099999998,124.88125000000002L196.31988,153.15625112354758L196.91075999999998,150.8000005617738L196.98010633333334,155.51249887645247L199.64275933333334,137.84062668532135L203.69315966666665,365.2187455058098L203.76086466666666,127.2375005617738L205.236013,384.06875L205.36608866666666,137.84062387645247L209.028724,124.88125280886891L209.27410333333333,127.2375005617738L209.64627566666667,124.88125280886891L211.441484,137.84062387645247L211.80175666666668,228.55625224709513L213.55223866666668,150.8000005617738L213.75986733333332,256.8312477529049L214.35156800000001,386.42500898838045L215.55015166666666,111.92187823019924L217.906696,137.84062387645247L218.02323066666668,150.8000005617738L218.28502333333333,267.4343907296658L219.223866,101.31875421330335L219.712573,332.23125449419024L220.510261,137.84062387645247L221.47208233333333,150.8000005617738L221.53527366666665,137.84062668532135L223.24841533333336,137.84062668532135L225.34891166666668,241.5156205058098L225.82900166666667,137.84062387645247L230.11124033333334,150.8000005617738L231.975795,137.84062668532135L233.60974233333332,124.88125140443447L236.57768333333334,111.9218768257648L238.33349966666668,150.8000005617738L243.00842733333332,137.84062387645247L244.807739,137.84062387645247L245.32188666666667,150.8000005617738L245.58901366666666,254.47500000000002L246.69198966666667,86.00312837064268L249.00996266666667,246.22813848257067L251.565929,124.88125280886891L252.1953803333333,140.19687724709513L252.77230899999998,358.1499910116196L253.02671566666666,140.19687724709513L253.21916199999998,114.27812598310413L254.4838093333333,137.84062668532135L255.84570566666667,150.8000005617738L257.122663,150.8000005617738L257.7127223333333,137.84062387645247L258.9744973333333,215.59688398838045L259.77095433333335,267.43437949419024L261.46891366666665,111.92187542133036L262.329793,137.84062387645247L262.54193533333336,153.15625112354758L264.10571566666664,256.83125898838045L264.27723499999996,124.88125140443447L266.715846,140.19687724709513L268.17293966666665,267.4343907296658L269.456052,137.84062668532135L270.59431666666666,124.88125280886891L271.38092566666666,98.96250084266069L272.5983846666667,137.84062668532135L274.75961033333334,137.84062387645247L276.220397,267.4343907296658L276.42063966666666,111.92187542133036L277.583114,384.06875L278.068128,150.8000005617738L278.164146,124.88125280886891L278.26057433333335,267.43437949419024L279.04308,111.92187823019924L279.093551,150.8000005617738L281.4763566666667,124.88125280886891L282.1152456666667,124.88125140443447L287.28216299999997,150.8000005617738L291.22710766666665,241.51563174128535L291.652213,384.06875L292.48929300000003,124.88125280886891L293.577497,111.9218768257648L294.46545833333334,111.9218768257648L294.594303,150.8000005617738L295.4432826666667,111.92187752798202L299.71321133333333,124.88125000000002L300.171964,86.00312837064268L300.702525,241.5156429767609L301.048436,98.96250224709513L301.146916,241.5156429767609L301.3619306666667,111.92187612354758L304.0307386666667,124.88125000000002L304.7332293333333,124.88125000000002L306.1661133333333,243.87187949419024L307.03068566666667,254.47501123547556L307.9403946666667,267.43437949419024L308.049133,150.8000005617738L311.00517433333334,124.88125280886891L311.046618,371.1093705058098L311.231268,124.88125140443447L313.29729633333335,137.84062387645247L314.1331453333333,124.88125280886891L314.290303,215.59688398838045L316.4646593333333,124.88125140443447L318.027619,124.88125140443447L321.753856,228.55625224709513L322.39972066666667,150.8000005617738L322.604477,137.84062668532135L322.83180166666665,267.4343907296658L323.25403466666666,243.87189072966578L323.97252833333334,124.88125280886891L324.2454,241.5156205058098L324.29094699999996,124.88125140443447L324.473135,124.88125140443447L326.05168733333335,124.88125000000002L327.16574233333336,98.96250224709513L328.60314,124.88125000000002L329.25762166666664,137.84062668532135L331.46685633333334,98.96250084266069L334.7979423333333,98.96250224709513L338.7703793333334,137.84062668532135L342.09202766666664,98.96250224709513L344.94384433333335,137.84062387645247L345.721426,241.5156205058098L346.35826333333335,124.88125140443447L347.3307533333333,86.0031255617738L347.656558,111.9218768257648L348.80795333333333,137.84062387645247L349.44971466666664,124.88125000000002L350.000382,241.5156429767609L350.7065656666667,111.92187542133036L351.64540833333336,124.88125000000002L352.95724399999995,111.92187823019924L354.3216023333334,98.96250224709513L355.6978603333333,137.84062668532135L356.24729666666667,241.51563174128535L356.30064,98.96250365152957L356.60797966666667,124.88125000000002L356.757341,137.84062668532135L360.04329033333335,111.92187823019924L360.4339276666667,60.084375000000016L360.9755676666667,127.23750196620824L362.0830573333333,137.84062668532135L364.46750433333335,86.00312837064268L364.662823,124.88125140443447L364.86552766666665,98.96250084266069L366.54461166666664,124.88125280886891L367.01321233333334,137.84062387645247L367.469503,124.88125140443447L367.6164023333333,21.206247752904908L368.96598866666665,98.96250084266069L371.321302,60.084375000000016L371.56093666666663,241.5156205058098L372.8346113333333,124.88125280886891L373.69302866666663,124.88125280886891L374.572373,86.00312837064268L375.0996513333333,111.92187542133036L375.471003,124.88125140443447L375.7853183333333,49.48125449419023L376.9387653333333,124.88125140443447L377.492305,86.0031255617738L377.90633133333336,124.88125280886891L379.6026493333333,111.92187471911313L381.44340466666665,179.075010111928L382.85413066666666,86.0031255617738L384.8614813333333,86.00312837064268L384.9135936666667,124.88125000000002L387.6144076666667,111.92187612354758L388.187233,215.59687275290491L389.6746913333333,150.8000005617738L392.97992633333337,98.96250365152957L393.373436,86.0031255617738L394.414862,98.96250365152957L394.91013433333336,111.92187752798202L395.733263,111.9218768257648L397.10541766666665,98.96249943822625L397.34792466666664,111.9218768257648L398.448849,111.92187612354758L398.660581,137.84062387645247L398.973255,124.88125140443447L400.18579,111.92187542133036L401.72043666666667,98.96250365152957L402.88947633333333,111.92187542133036L406.925515,124.88125000000002L407.14094,111.92187823019924L408.72893,111.9218768257648L409.64807666666667,111.92187612354758L409.7822556666667,137.84062668532135L413.27870600000006,176.71875674128535L413.96888666666666,111.92187752798202L415.19701433333336,111.9218768257648L416.098927,111.9218768257648L418.56626133333333,124.88125280886891L422.87722333333335,111.92187471911313L423.244882,73.04375449419024L431.1758046666667,98.96250084266069L431.77407066666666,86.0031255617738L432.964858,124.88125280886891L433.52537333333333,124.88125280886891L435.4498366666666,60.084375000000016L435.91146166666664,150.8000005617738L435.9151546666667,124.88125000000002L438.9508006666667,98.96250224709513L439.004144,60.084375000000016L441.866219,98.96250224709513L442.6044086666667,189.6781306177378L443.2125226666667,34.165627247095124L444.2157876666667,111.9218768257648L444.98064899999997,98.96250224709513L445.7176076666667,86.00312837064268L445.988838,34.165627247095124L446.4004023333333,124.88125280886891L449.09588199999996,86.0031255617738L449.423328,86.00312837064268L449.8668983333333,60.084375000000016L450.14633533333335,47.12500112354757L450.68140999999997,86.00312837064268L451.72940133333327,73.04375449419024L453.78968499999996,98.96250224709513L454.30301199999997,60.084375000000016L457.1934,60.084375000000016L457.674721,60.084375000000016L458.154811,86.00312275290491L458.6020743333333,73.04374887645247L460.6324036666666,86.00312837064268L460.9832386666667,111.92187471911313L461.160913,86.00312837064268L463.74437166666667,127.2375005617738L463.99549566666667,111.9218768257648L466.006129,86.00312837064268L467.4521436666667,60.084380617737786L467.85632200000003,86.0031255617738L469.55264,98.96250084266069L470.31914266666666,86.00312837064268L471.97606866666666,98.96250084266069L472.55997299999996,86.00312837064268L474.60999833333335,124.88125140443447L474.95796099999995,124.88125000000002L481.7264093333333,124.88125000000002L482.6943856666666,73.04375168532135L484.57412266666665,98.96250365152957L485.6315516666666,98.96250224709513L485.68776733333334,73.04375168532135L485.7357763333333,124.88125280886891L486.396413,86.0031255617738L486.8535243333333,60.084380617737786L486.973752,86.0031255617738L487.58679,86.00312837064268L488.40499466666665,98.96250084266069L489.74719500000003,98.96250224709513L490.1205983333333,73.04375168532135L490.3598226666667,60.084375000000016L490.8875113333333,98.96249943822625L491.67781333333335,86.00312837064268L491.9859736666666,86.00312837064268L493.733173,111.9218768257648L493.7512276666667,86.00312837064268L496.12993,86.00312275290491L496.4126496666667,124.88125280886891L497.3084073333333,124.88125000000002L497.82337566666666,111.92187823019924L502.89263366666665,47.12500112354757L503.20776966666665,47.12500674128534L505.90201833333333,73.04375168532135L506.9422133333333,111.92187612354758L506.988581,60.084375000000016L507.285252,73.04375449419024L507.3796286666667,86.0031255617738L508.77804466666663,86.00312837064268L509.0599436666667,98.96250084266069L509.8227533333333,47.12500112354757L513.9568616666667,73.04375168532135L515.461554,86.00312837064268L515.644973,73.04374887645247L516.0975706666667,98.96249943822625L516.7963683333334,60.084375000000016L516.990456,73.04374887645247L517.0848326666667,111.9218768257648L518.2468966666667,60.084375000000016L519.3966506666667,60.084375000000016L521.0765553333333,60.084375000000016L521.3916913333334,47.12500674128534L521.5718276666666,98.96250224709513L522.2394400000001,47.12500674128534L523.2455773333334,73.04375168532135L523.2665043333334,34.165632864832894L523.399042,34.165627247095124L523.4429476666667,111.92187612354758L523.694482,124.88125000000002L524.3534773333333,73.04375449419024L524.7814549999999,111.92187612354758L524.9706186666666,86.00312837064268L525.037503,86.00312837064268L525.613611,98.96250365152957L525.8331393333333,111.92187823019924L526.567636,86.0031255617738L527.7957636666666,124.88125000000002L528.3714613333334,73.04375168532135L528.4321906666667,111.92187542133036L528.7296823333334,150.8000005617738L529.0989823333333,111.92187542133036L529.289377,47.12500674128534L532.2593696666667,98.96250224709513L533.5974666666667,111.92187471911313L534.127207,21.206253370642678L534.305702,60.084375000000016L534.7669166666667,86.00312837064268L535.9449836666666,124.88125140443447L536.166974,73.04374887645247L536.6614256666667,60.084375000000016L538.2785493333333,124.88125000000002L539.6133636666666,47.12500112354757L540.9276613333333,98.96250224709513L541.1533446666666,73.04375168532135L541.3597423333333,86.00312837064268L543.28954,73.04375449419024L543.5127613333333,111.92187752798202L546.4417206666667,86.00312837064268L546.4917813333334,111.92187612354758L548.442506,47.12500112354757L549.2520936666666,60.084375000000016L549.4810596666666,111.9218768257648L551.9360839999999,86.00312837064268L555.8047066666667,98.96250084266069L556.627425,34.165627247095124L557.8173916666667,47.12500674128534L558.0447163333333,98.96250365152957L560.1021276666667,47.12500674128534L560.3081149999999,98.96250365152957L560.5555459999999,60.084380617737786L560.5978103333333,86.00312837064268L563.1956306666667,98.96250084266069L565.2214463333333,73.04375168532135L565.5308376666667,73.04375168532135L566.2493313333333,73.04375168532135L566.7737373333333,98.96250084266069L567.376517,124.88125280886891L567.4630973333334,47.12500112354757L567.7897226666666,98.96250224709513L568.0445396666667,124.88125280886891L568.394554,60.084375000000016L568.5295536666666,86.00312837064268L568.6120306666667,60.084380617737786L570.330917,86.00312275290491L570.341996,86.0031255617738L572.124484,73.04375168532135L572.3641186666667,73.04375168532135L573.8852243333333,73.04375168532135L574.5819703333333,124.88125280886891L575.4133056666667,73.04375168532135L578.393967,124.88125140443447L581.5408133333334,73.04375168532135L581.6766336666667,111.92187612354758L584.2666576666667,86.0031255617738L585.9810303333334,73.04375449419024L587.3823186666667,124.88125280886891L591.5525363333334,98.96250224709513L594.6509633333334,60.084375000000016L594.9172696666667,98.96250084266069L597.043617,98.96250084266069L597.9401953333333,111.92187542133036L597.9836906666667,47.12500112354757L598.025955,111.9218768257648L598.1757266666667,86.0031255617738L599.4375016666667,60.084375000000016L601.5572836666666,60.084380617737786L603.46082,124.88125000000002L605.8920449999999,60.084375000000016L606.2038983333333,86.00312837064268L606.8501733333333,73.04375168532135L609.986351,86.00312837064268L610.2501953333333,111.92187752798202L611.365071,60.084375000000016L612.934596,86.00312837064268L613.7979373333334,86.00312837064268L614.7039533333333,98.96250084266069L614.9739526666667,124.88125140443447L617.4712413333333,111.92187612354758L620.241812,98.96250224709513L620.412921,98.96250084266069L621.4711706666667,111.92187752798202L622.343129,111.92187752798202L624.885144,124.88125140443447L625.3549756666667,86.00312837064268L626.0923446666667,98.96250224709513L626.2400646666667,111.92187612354758L627.3791500000001,73.04375168532135L627.942948,73.04375168532135L629.7069710000001,86.00312837064268L630.945357,111.9218768257648L631.1587303333333,137.84062668532135L632.5292436666666,86.0031255617738L633.6441193333334,86.0031255617738L634.132416,86.00312837064268L634.6055303333334,60.084375000000016L634.9403623333333,60.084375000000016L635.9514236666666,47.12500112354757L636.7011026666668,60.084375000000016L636.9907979999999,86.00312837064268L637.6698996666668,137.84062668532135L638.2472386666666,111.92187612354758L638.4991833333333,73.04375449419024L638.8528906666667,60.084375000000016L640.1392856666666,73.04375449419024L641.9139773333334,86.00312837064268L646.0722953333333,137.84062387645247L646.2282220000001,47.12500112354757L646.8933723333333,111.9218768257648L648.0061963333333,111.92187752798202L648.0812873333333,47.1249955058098L650.6360226666667,98.96250084266069L650.946645,124.88125000000002L653.2900586666666,73.04375449419024L654.4410436666667,73.04375449419024L654.5949186666667,98.96250224709513L655.209598,111.92187823019924L656.896068,73.04374887645247L657.0622529999999,98.96249943822625L657.9432386666666,86.00312837064268L658.445897,60.084375000000016L658.7318993333332,98.96250084266069L659.8315926666667,60.084375000000016L659.8447233333333,73.04375168532135L661.4023486666666,86.0031255617738L662.1060703333334,47.12500674128534L663.148317,34.165627247095124L665.5828246666667,98.96250084266069L667.7555396666668,73.04375168532135L669.719395,86.0031255617738L670.0562786666666,60.084375000000016L670.1522966666666,86.00312837064268L672.1362583333333,98.96250084266069L672.351273,60.084375000000016L673.4632763333334,124.88125280886891L673.4940513333332,60.084375000000016L673.7755400000001,60.084375000000016L675.0405976666667,60.084375000000016L676.5715513333333,86.0031255617738L676.7036786666667,86.00312837064268L676.84073,98.96250084266069L679.715115,98.96250224709513L680.107804,98.96250365152957L681.0413123333333,111.92187823019924L682.4278286666666,73.04375168532135L682.5730866666667,98.96250224709513L683.0224016666666,86.0031255617738L684.1828243333333,111.9218768257648L684.2653013333334,86.0031255617738L685.265694,86.0031255617738L685.6464833333334,73.04375449419024L688.3276013333333,98.96250224709513L689.8249076666667,98.96250224709513L691.5614383333333,47.12500112354757L692.183914,34.165627247095124L692.3940046666665,124.88125280886891L695.2511556666666,73.04375449419024L696.5067756666666,60.084375000000016L697.1825946666667,111.92187823019924L697.590466,111.9218768257648L697.8346143333333,34.165627247095124L699.1082889999999,73.04374887645247L699.7451263333334,111.92187752798202L700.8850323333332,98.96250084266069L701.1734966666667,111.92187752798202L701.6088603333334,137.84062668532135L702.057765,34.165627247095124L702.8394499999999,73.04375449419024L704.0511643333333,86.0031255617738L704.6256310000001,73.04375168532135L704.626862,47.12500112354757L704.6670746666666,86.00312837064268L705.950187,60.084375000000016L706.7938323333333,86.0031255617738L707.8241793333333,124.88125140443447L708.08351,34.165627247095124L708.2665186666667,98.96250084266069L710.4490816666668,98.96250365152957L711.232408,34.165627247095124L711.7190633333333,86.00312837064268L711.8991996666667,98.96250084266069L712.9804280000001,111.92187542133036L713.4584663333334,98.96250084266069L713.6377819999999,86.0031255617738L714.6131443333334,124.88125000000002L715.9413933333333,98.96250224709513L717.1682900000001,111.92187752798202L718.43622,60.084375000000016L718.9905803333334,8.246879494190233L720.421823,98.96250224709513L720.7217766666666,111.92187752798202L721.5978383333334,111.9218768257648L723.0036403333332,34.165627247095124L724.9662646666667,98.96250224709513L725.2358536666666,47.12500112354757L725.676962,98.96250365152957L726.3154406666666,86.00312837064268L726.5550753333333,98.96250224709513L727.1816543333333,34.165632864832894L727.5267446666666,47.12500112354757L728.6305413333332,86.0031255617738L729.31826,111.92187542133036L729.378579,86.0031255617738L730.1360543333334,98.96250084266069L731.2328753333334,111.92187752798202L732.6571423333332,111.92187612354758L732.8828256666666,98.96250365152957L733.549207,47.12500112354757L734.6144323333333,47.12500112354757L736.737497,60.084375000000016L737.4211123333333,98.96250365152957L738.1687396666666,60.084375000000016L738.1753050000001,21.206247752904908L740.5187186666667,60.084375000000016L740.7320920000001,73.04375168532135L743.249487,34.165621629357354L744.1177523333333,73.04375449419024L744.9761696666667,86.00312837064268L745.3315183333334,86.00312837064268L746.2391756666666,47.12500112354757L747.0586113333333,111.9218768257648L748.5448386666667,86.00312837064268L750.283421,86.0031255617738L752.3207259999999,86.00312837064268L753.0634293333334,86.00312837064268L756.7662773333334,73.04375449419024L757.0805926666667,124.88125000000002L757.8286303333333,86.00312837064268L759.2684899999999,73.04375168532135L759.5643403333333,73.04375449419024L759.8774246666667,60.084375000000016L760.520417,60.084375000000016L760.6636233333334,73.04375168532135L760.7846716666667,60.084380617737786L761.2795336666667,124.88125280886891L762.6397886666666,98.96250224709513L764.2285993333332,73.04375449419024L765.7989449999999,86.00312837064268L767.052103,98.96250365152957L767.1916163333333,124.88125140443447L767.905186,47.1249955058098L768.1838023333333,47.12500674128534L768.7131323333333,98.96250365152957L769.728297,111.9218768257648L773.480385,111.9218768257648L775.4069000000001,73.04375168532135L776.5139793333334,124.88125140443447L777.343263,86.00312837064268L777.80735,111.9218768257648L778.0654496666667,111.92187542133036L778.8738063333333,124.88125000000002L782.5179766666666,124.88125280886891L783.8425326666667,98.96250365152957L784.3817106666667,111.92187823019924L785.0608123333333,98.96250224709513L785.4731973333334,86.0031255617738L786.6024346666667,60.084380617737786L787.9146806666668,86.00312837064268L788.988523,111.92187542133036L790.7127436666667,86.00312837064268L791.7406286666667,86.00312837064268L791.8107956666666,86.00312837064268L792.034017,60.084380617737786L792.13619,47.12500112354757L792.5518576666667,47.12500112354757L793.769727,98.96250084266069L793.980228,60.084375000000016L796.8587163333333,98.96250224709513L797.2715116666667,124.88125000000002L797.600599,98.96250224709513L798.164397,111.92187471911313L799.4224790000001,98.96250084266069L799.8291193333333,98.96250084266069L801.382231,111.92187752798202L803.911936,73.04374887645247L804.154443,98.96250365152957L804.219686,111.92187752798202L804.4790166666667,73.04374887645247L804.8762193333333,124.88125280886891L805.6521596666666,86.00312837064268L806.5885403333334,137.84062668532135L807.5466686666667,21.206247752904908L811.310246,73.04374887645247L811.7427373333333,98.96250224709513L813.5153773333333,111.92187542133036L813.5256356666667,86.0031255617738L813.8099966666666,111.92187752798202L814.2076096666666,47.12500112354757L814.702882,-17.6718794941902L815.2276983333334,111.92187542133036L815.6885026666667,73.04375168532135L816.2420423333334,98.96250084266069L816.8341533333333,137.84062668532135L817.7491966666666,60.084375000000016L818.1587093333333,60.084375000000016L819.708128,86.0031255617738L820.2021693333332,111.9218768257648L822.8299440000001,111.92187612354758L824.9242853333334,47.12500112354757L825.2184943333333,98.96250224709513L826.2611513333334,98.96249943822625L828.5684556666668,73.04375168532135L829.46011,60.084375000000016L833.7640963333333,60.084375000000016L836.302008,73.04375168532135L836.4205943333334,98.96250084266069L840.5842466666667,111.9218768257648L841.40081,111.92187823019924L843.1824773333333,111.92187612354758L844.4692826666667,60.084375000000016L845.6506323333333,124.88125140443447L846.8397783333334,98.96250084266069L847.3596706666667,111.92187471911313L849.1089216666667,124.88125000000002L850.9381876666666,86.00312837064268L851.4666970000001,98.96250224709513L854.1597146666667,137.84062668532135L855.6763066666666,60.084380617737786L857.2987646666667,47.12500112354757L858.2708443333333,86.00312837064268L858.626193,86.00312837064268L858.980721,98.96250084266069L860.3430276666667,73.04375168532135L860.5436806666667,60.084375000000016L861.711079,47.12500112354757L862.0500143333333,34.165627247095124L862.0693,98.96250224709513L862.9437203333333,111.9218768257648L864.0356173333333,111.92187752798202L864.267866,111.92187823019924L867.750365,47.12500112354757L867.9153190000001,60.084375000000016L868.314163,98.96250084266069L868.812718,60.084375000000016L868.816411,34.165627247095124L870.2414986666668,73.04375168532135L871.322727,86.0031255617738L872.4696086666667,73.04374887645247L876.0382776666667,34.165627247095124L876.560632,98.9624980337918L877.4933196666667,111.92187752798202L877.767012,86.00312837064268L877.9721786666667,60.084375000000016L878.7157026666667,86.00312837064268L879.0685893333334,34.165627247095124L879.739074,86.0031255617738L880.2815346666666,98.96250224709513L880.8473843333333,86.00312837064268L881.096867,73.04374887645247L881.4805286666667,60.084375000000016L881.853932,98.96249943822625L881.8715763333333,98.96250084266069L882.3812103333333,86.00312837064268L883.0352816666667,73.04374887645247L883.9655073333333,111.92187612354758L884.548591,86.00312837064268L884.569518,86.00312837064268L885.624485,98.96250224709513L886.1923863333334,73.04375449419024L886.8649226666666,98.96250084266069L887.570696,86.00312837064268L887.8681876666667,47.12500674128534L888.4598883333334,137.84062387645247L888.9531089999999,98.96250084266069L889.6465723333333,111.92187612354758L890.3273153333333,98.96250084266069L891.978907,98.96250224709513L892.4253496666666,86.00312837064268L893.326852,73.04374887645247L893.516426,86.0031255617738L894.908687,21.206247752904908L895.3625156666667,98.96250365152957L896.56192,124.88125140443447L896.800734,86.00312837064268L897.114639,124.88125280886891L898.1330863333333,73.04375449419024L898.2352593333334,73.04375449419024L898.6090730000001,47.12500112354757L898.6812916666667,47.12500112354757L900.0111820000001,60.084375000000016L903.472754,34.165627247095124L903.6077536666667,73.04375449419024L903.9372513333333,47.12500112354757L904.473557,98.96250084266069L906.4538256666666,98.96250224709513L906.5297373333334,60.084380617737786L907.0721980000001,98.96250224709513L908.5411913333332,137.84062668532135L909.93058,47.12500112354757L910.8460336666666,86.0031255617738L911.757384,47.12500112354757L912.1176566666667,60.084375000000016L913.9493846666667,111.9218768257648L914.3531526666666,47.12500112354757L914.9977863333334,111.9218768257648L916.512737,47.12500112354757L920.6296113333333,86.00312837064268L921.7194566666666,98.96250365152957L922.9090130000001,86.00312837064268L924.0505603333334,98.96250224709513L924.5700423333334,111.92187612354758L926.946693,86.00312837064268L928.8580256666667,73.04375168532135L929.4082826666668,111.92187612354758L930.6872916666666,137.84062387645247L932.5407673333334,73.04375168532135L932.6236546666667,73.04375168532135L932.953973,98.96250224709513L933.6572843333333,98.96250224709513L934.106189,111.92187752798202L935.0212323333334,73.04375168532135L935.8193306666667,98.96250224709513L936.1923236666667,60.084375000000016L939.9017369999999,73.04375168532135L940.0535603333333,111.92187542133036L940.1696846666666,124.88125280886891L943.1511666666667,86.00312837064268L944.840509,86.00312837064268L945.7719656666667,73.04374887645247L947.3583143333333,60.084375000000016L949.2675953333332,111.92187752798202L951.0028950000001,111.92187752798202L953.455047,73.04375449419024L954.3352120000001,86.0031255617738L956.0274266666667,60.084375000000016L956.0504053333333,137.84062387645247L958.6030890000001,111.9218768257648L958.8037419999999,137.84062668532135L959.6334360000001,8.246879494190233L959.9588303333334,98.96250084266069L964.4766003333333,111.92187752798202L965.0949726666666,86.00312837064268L965.4946373333333,86.0031255617738L966.7518986666666,47.12500112354757L966.9402416666667,124.88125000000002L967.0756516666667,73.04375449419024L967.6271396666666,98.96250365152957L970.6032873333332,60.084380617737786L970.7883476666667,111.92187823019924L973.9963336666666,86.00312837064268L975.9002803333334,73.04375449419024L976.9741226666667,60.084375000000016L978.082433,124.88125140443447L978.1263386666667,111.9218768257648L978.950288,21.206247752904908L979.5936906666666,86.00312837064268L980.1607713333333,73.04375168532135L980.9576386666666,60.084375000000016L982.8213726666667,111.9218768257648L983.7286196666666,98.96250224709513L983.955534,111.92187612354758L985.756487,98.96250224709513L987.69285,111.92187823019924L987.882424,111.9218768257648L988.435143,73.04375449419024L988.513927,60.084375000000016L989.31777,111.92187612354758L990.0436496666667,73.04375168532135L990.579545,86.00312837064268L990.842979,73.04375168532135L991.441245,73.04375168532135L994.1707823333334,98.96249943822625L994.409186,124.88125000000002L995.8515076666667,98.96250224709513L995.96517,34.165627247095124L996.029182,86.0031255617738L996.7374173333334,60.084375000000016L999.090679,60.084375000000016L999.142381,111.9218768257648L999.1641286666667,111.92187823019924L1000.9564646666668,86.00312837064268L1004.6088416666666,73.04375449419024L1004.6424890000001,47.12500112354757L1006.420053,98.96250224709513L1006.6498396666667,34.165627247095124L1008.981764,86.00312837064268L1011.5061346666666,21.206247752904908L1012.0933216666666,111.92187823019924L1012.5344299999999,111.92187752798202L1012.5865423333333,98.96250084266069L1013.4987133333334,137.84062387645247L1014.3497446666668,73.04375168532135L1015.4190733333334,86.00312837064268L1016.6828999999999,73.04375168532135L1016.8322613333333,73.04375449419024L1020.3615383333333,34.165627247095124L1022.4062293333334,124.88125000000002L1022.4965026666666,86.0031255617738L1022.6282196666667,98.96250224709513L1022.6413503333333,60.084375000000016L1025.340523,137.84062668532135L1025.4829086666666,73.04375168532135L1025.6503246666666,86.0031255617738L1026.4385750000001,73.04374887645247L1026.7221153333335,86.00312837064268L1028.052416,73.04375168532135L1030.9103876666666,73.04375168532135L1031.0921653333332,98.96250224709513L1034.184027,86.00312837064268L1034.6575516666667,47.12500112354757L1035.5200723333335,73.04375168532135L1038.6644566666666,124.88125280886891L1038.8339243333332,86.00312837064268L1038.9377386666667,73.04375168532135L1039.9762923333333,60.084375000000016L1040.345182,111.9218768257648L1042.2167123333334,60.084380617737786L1042.2421530000001,73.04375449419024L1043.0907223333334,98.96250084266069L1043.2224393333333,73.04375168532135L1043.2519833333333,86.0031255617738L1044.1099903333334,73.04375168532135L1044.611828,98.96250084266069L1045.019289,86.00312837064268L1045.0578603333333,124.88125280886891L1045.6241203333334,60.084375000000016L1045.8855026666665,86.0031255617738L1047.6995863333334,124.88125000000002L1049.2436706666667,73.04375449419024L1049.6384113333334,124.88125000000002L1049.7508426666666,73.04375449419024L1050.8521773333334,60.084380617737786L1052.5349543333334,73.04375449419024L1052.6301516666667,73.04375168532135L1052.754893,73.04375168532135L1053.8373523333332,60.084375000000016L1054.1635673333333,124.88125000000002L1054.5722593333332,34.165627247095124L1054.777426,60.084380617737786L1056.0186843333333,98.96250224709513L1056.5759170000001,98.96250224709513L1059.652186,73.04375168532135L1059.8454530000001,98.96249943822625L1061.796588,111.92187752798202L1064.6615353333334,60.084380617737786L1067.2088846666668,111.92187542133036L1067.5506923333332,60.084375000000016L1068.6315103333334,47.12500674128534L1069.0467676666667,34.165627247095124L1069.1423753333333,124.88125000000002L1070.8202283333333,86.00312837064268L1071.863706,86.00312837064268L1073.8283820000001,73.04375168532135L1074.1866029999999,60.084375000000016L1074.630994,98.96249943822625L1076.113118,86.00312837064268L1077.83898,21.206247752904908L1077.942384,111.9218768257648L1077.9760313333334,86.0031255617738L1079.681787,86.00312837064268L1083.350167,98.96250224709513L1084.2455143333332,86.0031255617738L1084.4227783333333,86.00312837064268L1086.7411616666666,98.96250224709513L1086.7928636666666,47.12500674128534L1088.38865,98.96250084266069L1091.3262263333334,73.04375168532135L1093.2724373333333,47.12500112354757L1093.4878623333334,111.92187823019924L1093.5801873333332,86.00312837064268L1094.1365993333334,47.12500112354757L1095.4599243333334,111.92187612354758L1097.845192,98.96250365152957L1098.258808,73.04375168532135L1100.173013,60.084380617737786L1101.5734806666667,34.165627247095124L1103.3342209999998,86.0031255617738L1105.5483796666667,86.0031255617738L1107.2360806666668,60.084375000000016L1107.4289373333334,73.04375168532135L1109.7013633333333,60.084375000000016L1109.9885966666668,73.04374887645247L1112.6139093333334,111.9218768257648L1112.826462,34.165627247095124L1112.888012,86.00312837064268L1114.2745283333334,73.04374887645247L1114.4903636666666,60.084375000000016L1116.3315293333333,86.00312837064268L1116.7357076666667,98.96250365152957L1118.0221026666666,124.88125140443447L1119.871475,98.96250224709513L1120.9059253333332,111.92187612354758L1122.0606033333333,98.96250365152957L1122.324858,111.92187542133036L1122.3511193333334,111.9218768257648L1123.1328043333333,73.04375168532135L1123.1931233333335,86.0031255617738L1123.778669,98.96249943822625L1123.7794896666667,60.084380617737786L1125.5086343333335,73.04375168532135L1125.559926,73.04375168532135L1127.022354,73.04375449419024L1128.5393563333334,124.88125140443447L1129.7498396666667,111.92187752798202L1130.071541,124.88125140443447L1131.025566,60.084375000000016L1131.3386503333334,86.00312837064268L1133.1117006666666,98.96250365152957L1133.2606516666667,60.084375000000016" style="fill: none;" fill="none"></path></g></g></g></g></g></g><g transform="translate(50, 377)" clip-path="url(#clip_1)"><clipPath id="clip_1"><rect width="1231" height="23"></rect></clipPath><g><g><line x1="0" y1="0" x2="0" y2="5" style="visibility: inherit;" fill="rgb(0, 0, 0)" stroke="rgb(204, 204, 204)" stroke-width="1px"></line><line x1="82.06666666666666" y1="0" x2="82.06666666666666" y2="5" style="visibility: inherit;" fill="rgb(0, 0, 0)" stroke="rgb(204, 204, 204)" stroke-width="1px"></line><line x1="164.13333333333333" y1="0" x2="164.13333333333333" y2="5" style="visibility: inherit;" fill="rgb(0, 0, 0)" stroke="rgb(204, 204, 204)" stroke-width="1px"></line><line x1="246.20000000000002" y1="0" x2="246.20000000000002" y2="5" style="visibility: inherit;" fill="rgb(0, 0, 0)" stroke="rgb(204, 204, 204)" stroke-width="1px"></line><line x1="328.26666666666665" y1="0" x2="328.26666666666665" y2="5" style="visibility: inherit;" fill="rgb(0, 0, 0)" stroke="rgb(204, 204, 204)" stroke-width="1px"></line><line x1="410.3333333333333" y1="0" x2="410.3333333333333" y2="5" style="visibility: inherit;" fill="rgb(0, 0, 0)" stroke="rgb(204, 204, 204)" stroke-width="1px"></line><line x1="492.40000000000003" y1="0" x2="492.40000000000003" y2="5" style="visibility: inherit;" fill="rgb(0, 0, 0)" stroke="rgb(204, 204, 204)" stroke-width="1px"></line><line x1="574.4666666666667" y1="0" x2="574.4666666666667" y2="5" style="visibility: inherit;" fill="rgb(0, 0, 0)" stroke="rgb(204, 204, 204)" stroke-width="1px"></line><line x1="656.5333333333333" y1="0" x2="656.5333333333333" y2="5" style="visibility: inherit;" fill="rgb(0, 0, 0)" stroke="rgb(204, 204, 204)" stroke-width="1px"></line><line x1="738.6" y1="0" x2="738.6" y2="5" style="visibility: inherit;" fill="rgb(0, 0, 0)" stroke="rgb(204, 204, 204)" stroke-width="1px"></line><line x1="820.6666666666666" y1="0" x2="820.6666666666666" y2="5" style="visibility: inherit;" fill="rgb(0, 0, 0)" stroke="rgb(204, 204, 204)" stroke-width="1px"></line><line x1="902.7333333333332" y1="0" x2="902.7333333333332" y2="5" style="visibility: inherit;" fill="rgb(0, 0, 0)" stroke="rgb(204, 204, 204)" stroke-width="1px"></line><line x1="984.8000000000001" y1="0" x2="984.8000000000001" y2="5" style="visibility: inherit;" fill="rgb(0, 0, 0)" stroke="rgb(204, 204, 204)" stroke-width="1px"></line><line x1="1066.8666666666668" y1="0" x2="1066.8666666666668" y2="5" style="visibility: inherit;" fill="rgb(0, 0, 0)" stroke="rgb(204, 204, 204)" stroke-width="1px"></line><line x1="1148.9333333333334" y1="0" x2="1148.9333333333334" y2="5" style="visibility: inherit;" fill="rgb(0, 0, 0)" stroke="rgb(204, 204, 204)" stroke-width="1px"></line><line x1="1231" y1="0" x2="1231" y2="5" style="visibility: inherit;" fill="rgb(0, 0, 0)" stroke="rgb(204, 204, 204)" stroke-width="1px"></line></g><g transform="translate(0, 8)"><text x="0" y="0" dx="0em" dy="0.95em" style="text-anchor: middle; visibility: hidden; font-family: Roboto, sans-serif; font-size: 12px; font-weight: 200;" fill="rgb(33, 33, 33)" stroke="none" stroke-width="1px">-200k</text><text x="82.06666666666666" y="0" dx="0em" dy="0.95em" style="text-anchor: middle; visibility: inherit; font-family: Roboto, sans-serif; font-size: 12px; font-weight: 200;" fill="rgb(33, 33, 33)" stroke="none" stroke-width="1px">0</text><text x="164.13333333333333" y="0" dx="0em" dy="0.95em" style="text-anchor: middle; visibility: inherit; font-family: Roboto, sans-serif; font-size: 12px; font-weight: 200;" fill="rgb(33, 33, 33)" stroke="none" stroke-width="1px">200k</text><text x="246.20000000000002" y="0" dx="0em" dy="0.95em" style="text-anchor: middle; visibility: inherit; font-family: Roboto, sans-serif; font-size: 12px; font-weight: 200;" fill="rgb(33, 33, 33)" stroke="none" stroke-width="1px">400k</text><text x="328.26666666666665" y="0" dx="0em" dy="0.95em" style="text-anchor: middle; visibility: inherit; font-family: Roboto, sans-serif; font-size: 12px; font-weight: 200;" fill="rgb(33, 33, 33)" stroke="none" stroke-width="1px">600k</text><text x="410.3333333333333" y="0" dx="0em" dy="0.95em" style="text-anchor: middle; visibility: inherit; font-family: Roboto, sans-serif; font-size: 12px; font-weight: 200;" fill="rgb(33, 33, 33)" stroke="none" stroke-width="1px">800k</text><text x="492.40000000000003" y="0" dx="0em" dy="0.95em" style="text-anchor: middle; visibility: inherit; font-family: Roboto, sans-serif; font-size: 12px; font-weight: 200;" fill="rgb(33, 33, 33)" stroke="none" stroke-width="1px">1M</text><text x="574.4666666666667" y="0" dx="0em" dy="0.95em" style="text-anchor: middle; visibility: inherit; font-family: Roboto, sans-serif; font-size: 12px; font-weight: 200;" fill="rgb(33, 33, 33)" stroke="none" stroke-width="1px">1.2M</text><text x="656.5333333333333" y="0" dx="0em" dy="0.95em" style="text-anchor: middle; visibility: inherit; font-family: Roboto, sans-serif; font-size: 12px; font-weight: 200;" fill="rgb(33, 33, 33)" stroke="none" stroke-width="1px">1.4M</text><text x="738.6" y="0" dx="0em" dy="0.95em" style="text-anchor: middle; visibility: inherit; font-family: Roboto, sans-serif; font-size: 12px; font-weight: 200;" fill="rgb(33, 33, 33)" stroke="none" stroke-width="1px">1.6M</text><text x="820.6666666666666" y="0" dx="0em" dy="0.95em" style="text-anchor: middle; visibility: inherit; font-family: Roboto, sans-serif; font-size: 12px; font-weight: 200;" fill="rgb(33, 33, 33)" stroke="none" stroke-width="1px">1.8M</text><text x="902.7333333333332" y="0" dx="0em" dy="0.95em" style="text-anchor: middle; visibility: inherit; font-family: Roboto, sans-serif; font-size: 12px; font-weight: 200;" fill="rgb(33, 33, 33)" stroke="none" stroke-width="1px">2M</text><text x="984.8000000000001" y="0" dx="0em" dy="0.95em" style="text-anchor: middle; visibility: inherit; font-family: Roboto, sans-serif; font-size: 12px; font-weight: 200;" fill="rgb(33, 33, 33)" stroke="none" stroke-width="1px">2.2M</text><text x="1066.8666666666668" y="0" dx="0em" dy="0.95em" style="text-anchor: middle; visibility: inherit; font-family: Roboto, sans-serif; font-size: 12px; font-weight: 200;" fill="rgb(33, 33, 33)" stroke="none" stroke-width="1px">2.4M</text><text x="1148.9333333333334" y="0" dx="0em" dy="0.95em" style="text-anchor: middle; visibility: inherit; font-family: Roboto, sans-serif; font-size: 12px; font-weight: 200;" fill="rgb(33, 33, 33)" stroke="none" stroke-width="1px">2.6M</text><text x="1231" y="0" dx="0em" dy="0.95em" style="text-anchor: middle; visibility: hidden; font-family: Roboto, sans-serif; font-size: 12px; font-weight: 200;" fill="rgb(33, 33, 33)" stroke="none" stroke-width="1px">2.8M</text></g><line x1="0" y1="0" x2="1231" y2="0" fill="rgb(0, 0, 0)" stroke="rgb(204, 204, 204)" stroke-width="1px"></line></g></g></g></g></svg>