<svg viewBox="0 0 1281 400" xmlns="http://www.w3.org/2000/svg"><g><g><g><g><g><line x1="61.953125" y1="377" x2="56.953125" y2="377" style="visibility: inherit;" fill="rgb(0, 0, 0)" stroke="rgb(204, 204, 204)" stroke-width="1px"></line><line x1="61.953125" y1="345.5833333333333" x2="56.953125" y2="345.5833333333333" style="visibility: inherit;" fill="rgb(0, 0, 0)" stroke="rgb(204, 204, 204)" stroke-width="1px"></line><line x1="61.953125" y1="314.1666666666667" x2="56.953125" y2="314.1666666666667" style="visibility: inherit;" fill="rgb(0, 0, 0)" stroke="rgb(204, 204, 204)" stroke-width="1px"></line><line x1="61.953125" y1="282.75" x2="56.953125" y2="282.75" style="visibility: inherit;" fill="rgb(0, 0, 0)" stroke="rgb(204, 204, 204)" stroke-width="1px"></line><line x1="61.953125" y1="251.33333333333337" x2="56.953125" y2="251.33333333333337" style="visibility: inherit;" fill="rgb(0, 0, 0)" stroke="rgb(204, 204, 204)" stroke-width="1px"></line><line x1="61.953125" y1="219.91666666666663" x2="56.953125" y2="219.91666666666663" style="visibility: inherit;" fill="rgb(0, 0, 0)" stroke="rgb(204, 204, 204)" stroke-width="1px"></line><line x1="61.953125" y1="188.5" x2="56.953125" y2="188.5" style="visibility: inherit;" fill="rgb(0, 0, 0)" stroke="rgb(204, 204, 204)" stroke-width="1px"></line><line x1="61.953125" y1="157.08333333333331" x2="56.953125" y2="157.08333333333331" style="visibility: inherit;" fill="rgb(0, 0, 0)" stroke="rgb(204, 204, 204)" stroke-width="1px"></line><line x1="61.953125" y1="125.66666666666669" x2="56.953125" y2="125.66666666666669" style="visibility: inherit;" fill="rgb(0, 0, 0)" stroke="rgb(204, 204, 204)" stroke-width="1px"></line><line x1="61.953125" y1="94.24999999999996" x2="56.953125" y2="94.24999999999996" style="visibility: inherit;" fill="rgb(0, 0, 0)" stroke="rgb(204, 204, 204)" stroke-width="1px"></line><line x1="61.953125" y1="62.8333333333334" x2="56.953125" y2="62.8333333333334" style="visibility: inherit;" fill="rgb(0, 0, 0)" stroke="rgb(204, 204, 204)" stroke-width="1px"></line><line x1="61.953125" y1="31.416666666666682" x2="56.953125" y2="31.416666666666682" style="visibility: inherit;" fill="rgb(0, 0, 0)" stroke="rgb(204, 204, 204)" stroke-width="1px"></line><line x1="61.953125" y1="0" x2="56.953125" y2="0" style="visibility: inherit;" fill="rgb(0, 0, 0)" stroke="rgb(204, 204, 204)" stroke-width="1px"></line></g><g transform="translate(51.953125, 0)"><text x="0" y="377" dx="0em" dy="0.3em" style="text-anchor: end; visibility: hidden; font-family: Roboto, sans-serif; font-size: 12px; font-weight: 200;" fill="rgb(33, 33, 33)" stroke="none" stroke-width="1px">-1e-3</text><text x="0" y="345.5833333333333" dx="0em" dy="0.3em" style="text-anchor: end; visibility: inherit; font-family: Roboto, sans-serif; font-size: 12px; font-weight: 200;" fill="rgb(33, 33, 33)" stroke="none" stroke-width="1px">0</text><text x="0" y="314.1666666666667" dx="0em" dy="0.3em" style="text-anchor: end; visibility: inherit; font-family: Roboto, sans-serif; font-size: 12px; font-weight: 200;" fill="rgb(33, 33, 33)" stroke="none" stroke-width="1px">1e-3</text><text x="0" y="282.75" dx="0em" dy="0.3em" style="text-anchor: end; visibility: inherit; font-family: Roboto, sans-serif; font-size: 12px; font-weight: 200;" fill="rgb(33, 33, 33)" stroke="none" stroke-width="1px">2e-3</text><text x="0" y="251.33333333333337" dx="0em" dy="0.3em" style="text-anchor: end; visibility: inherit; font-family: Roboto, sans-serif; font-size: 12px; font-weight: 200;" fill="rgb(33, 33, 33)" stroke="none" stroke-width="1px">3e-3</text><text x="0" y="219.91666666666663" dx="0em" dy="0.3em" style="text-anchor: end; visibility: inherit; font-family: Roboto, sans-serif; font-size: 12px; font-weight: 200;" fill="rgb(33, 33, 33)" stroke="none" stroke-width="1px">4e-3</text><text x="0" y="188.5" dx="0em" dy="0.3em" style="text-anchor: end; visibility: inherit; font-family: Roboto, sans-serif; font-size: 12px; font-weight: 200;" fill="rgb(33, 33, 33)" stroke="none" stroke-width="1px">5e-3</text><text x="0" y="157.08333333333331" dx="0em" dy="0.3em" style="text-anchor: end; visibility: inherit; font-family: Roboto, sans-serif; font-size: 12px; font-weight: 200;" fill="rgb(33, 33, 33)" stroke="none" stroke-width="1px">6e-3</text><text x="0" y="125.66666666666669" dx="0em" dy="0.3em" style="text-anchor: end; visibility: inherit; font-family: Roboto, sans-serif; font-size: 12px; font-weight: 200;" fill="rgb(33, 33, 33)" stroke="none" stroke-width="1px">7e-3</text><text x="0" y="94.24999999999996" dx="0em" dy="0.3em" style="text-anchor: end; visibility: inherit; font-family: Roboto, sans-serif; font-size: 12px; font-weight: 200;" fill="rgb(33, 33, 33)" stroke="none" stroke-width="1px">8e-3</text><text x="0" y="62.8333333333334" dx="0em" dy="0.3em" style="text-anchor: end; visibility: inherit; font-family: Roboto, sans-serif; font-size: 12px; font-weight: 200;" fill="rgb(33, 33, 33)" stroke="none" stroke-width="1px">9e-3</text><text x="0" y="31.416666666666682" dx="0em" dy="0.3em" style="text-anchor: end; visibility: inherit; font-family: Roboto, sans-serif; font-size: 12px; font-weight: 200;" fill="rgb(33, 33, 33)" stroke="none" stroke-width="1px">0.01</text><text x="0" y="0" dx="0em" dy="0.3em" style="text-anchor: end; visibility: hidden; font-family: Roboto, sans-serif; font-size: 12px; font-weight: 200;" fill="rgb(33, 33, 33)" stroke="none" stroke-width="1px">0.011</text></g><line x1="61.953125" y1="0" x2="61.953125" y2="377" fill="rgb(0, 0, 0)" stroke="rgb(204, 204, 204)" stroke-width="1px"></line></g></g><g transform="translate(61, 0)" clip-path="url(#clip_0)"><clipPath id="clip_0"><rect width="1219" height="377"></rect></clipPath><g><g><g><line x1="0" y1="0" x2="0" y2="377" fill="rgb(0, 0, 0)" stroke="rgb(66, 66, 66)" stroke-width="1px" opacity="0.25"></line><line x1="81.26979166666666" y1="0" x2="81.26979166666666" y2="377" fill="rgb(0, 0, 0)" stroke="rgb(66, 66, 66)" stroke-width="1px" opacity="0.25"></line><line x1="162.53958333333333" y1="0" x2="162.53958333333333" y2="377" fill="rgb(0, 0, 0)" stroke="rgb(66, 66, 66)" stroke-width="1px" opacity="0.25"></line><line x1="243.80937500000002" y1="0" x2="243.80937500000002" y2="377" fill="rgb(0, 0, 0)" stroke="rgb(66, 66, 66)" stroke-width="1px" opacity="0.25"></line><line x1="325.07916666666665" y1="0" x2="325.07916666666665" y2="377" fill="rgb(0, 0, 0)" stroke="rgb(66, 66, 66)" stroke-width="1px" opacity="0.25"></line><line x1="406.3489583333333" y1="0" x2="406.3489583333333" y2="377" fill="rgb(0, 0, 0)" stroke="rgb(66, 66, 66)" stroke-width="1px" opacity="0.25"></line><line x1="487.61875000000003" y1="0" x2="487.61875000000003" y2="377" fill="rgb(0, 0, 0)" stroke="rgb(66, 66, 66)" stroke-width="1px" opacity="0.25"></line><line x1="568.8885416666667" y1="0" x2="568.8885416666667" y2="377" fill="rgb(0, 0, 0)" stroke="rgb(66, 66, 66)" stroke-width="1px" opacity="0.25"></line><line x1="650.1583333333333" y1="0" x2="650.1583333333333" y2="377" fill="rgb(0, 0, 0)" stroke="rgb(66, 66, 66)" stroke-width="1px" opacity="0.25"></line><line x1="731.428125" y1="0" x2="731.428125" y2="377" fill="rgb(0, 0, 0)" stroke="rgb(66, 66, 66)" stroke-width="1px" opacity="0.25"></line><line x1="812.6979166666666" y1="0" x2="812.6979166666666" y2="377" fill="rgb(0, 0, 0)" stroke="rgb(66, 66, 66)" stroke-width="1px" opacity="0.25"></line><line x1="893.9677083333332" y1="0" x2="893.9677083333332" y2="377" fill="rgb(0, 0, 0)" stroke="rgb(66, 66, 66)" stroke-width="1px" opacity="0.25"></line><line x1="975.2375000000001" y1="0" x2="975.2375000000001" y2="377" fill="rgb(0, 0, 0)" stroke="rgb(66, 66, 66)" stroke-width="1px" opacity="0.25"></line><line x1="1056.5072916666668" y1="0" x2="1056.5072916666668" y2="377" fill="rgb(0, 0, 0)" stroke="rgb(66, 66, 66)" stroke-width="1px" opacity="0.25"></line><line x1="1137.7770833333334" y1="0" x2="1137.7770833333334" y2="377" fill="rgb(0, 0, 0)" stroke="rgb(66, 66, 66)" stroke-width="1px" opacity="0.25"></line><line x1="1219.046875" y1="0" x2="1219.046875" y2="377" fill="rgb(0, 0, 0)" stroke="rgb(66, 66, 66)" stroke-width="1px" opacity="0.25"></line></g><g><line x1="0" y1="377" x2="1219.046875" y2="377" fill="rgb(0, 0, 0)" stroke="rgb(66, 66, 66)" stroke-width="1px" opacity="0.25"></line><line x1="0" y1="345.5833333333333" x2="1219.046875" y2="345.5833333333333" fill="rgb(0, 0, 0)" stroke="rgb(66, 66, 66)" stroke-width="1px" opacity="0.25"></line><line x1="0" y1="314.1666666666667" x2="1219.046875" y2="314.1666666666667" fill="rgb(0, 0, 0)" stroke="rgb(66, 66, 66)" stroke-width="1px" opacity="0.25"></line><line x1="0" y1="282.75" x2="1219.046875" y2="282.75" fill="rgb(0, 0, 0)" stroke="rgb(66, 66, 66)" stroke-width="1px" opacity="0.25"></line><line x1="0" y1="251.33333333333337" x2="1219.046875" y2="251.33333333333337" fill="rgb(0, 0, 0)" stroke="rgb(66, 66, 66)" stroke-width="1px" opacity="0.25"></line><line x1="0" y1="219.91666666666663" x2="1219.046875" y2="219.91666666666663" fill="rgb(0, 0, 0)" stroke="rgb(66, 66, 66)" stroke-width="1px" opacity="0.25"></line><line x1="0" y1="188.5" x2="1219.046875" y2="188.5" fill="rgb(0, 0, 0)" stroke="rgb(66, 66, 66)" stroke-width="1px" opacity="0.25"></line><line x1="0" y1="157.08333333333331" x2="1219.046875" y2="157.08333333333331" fill="rgb(0, 0, 0)" stroke="rgb(66, 66, 66)" stroke-width="1px" opacity="0.25"></line><line x1="0" y1="125.66666666666669" x2="1219.046875" y2="125.66666666666669" fill="rgb(0, 0, 0)" stroke="rgb(66, 66, 66)" stroke-width="1px" opacity="0.25"></line><line x1="0" y1="94.24999999999996" x2="1219.046875" y2="94.24999999999996" fill="rgb(0, 0, 0)" stroke="rgb(66, 66, 66)" stroke-width="1px" opacity="0.25"></line><line x1="0" y1="62.8333333333334" x2="1219.046875" y2="62.8333333333334" fill="rgb(0, 0, 0)" stroke="rgb(66, 66, 66)" stroke-width="1px" opacity="0.25"></line><line x1="0" y1="31.416666666666682" x2="1219.046875" y2="31.416666666666682" fill="rgb(0, 0, 0)" stroke="rgb(66, 66, 66)" stroke-width="1px" opacity="0.25"></line><line x1="0" y1="0" x2="1219.046875" y2="0" fill="rgb(0, 0, 0)" stroke="rgb(66, 66, 66)" stroke-width="1px" opacity="0.25"></line></g></g></g><g><g><line x1="0" y1="345.5833333333333" x2="1219.046875" y2="345.5833333333333" fill="rgb(0, 0, 0)" stroke="rgb(153, 153, 153)" stroke-width="1.5px"></line></g></g><g><g><line x1="81.26979166666666" y1="0" x2="81.26979166666666" y2="377" fill="rgb(0, 0, 0)" stroke="rgb(153, 153, 153)" stroke-width="1.5px"></line></g></g><g><g><g><g><g><path stroke="rgb(255, 112, 67)" stroke-width="2px" d="M81.86915638020834,248.80418015550822L82.686730484375,284.1313021783717L83.50186649479167,248.03230997224398L84.40355483333333,171.8151993813911L84.70912924999999,35.562111652951586L85.43933832812499,144.76245316428617L86.13256965104168,211.71645046890444L86.54013765625,218.73526339750785L88.22526678645833,251.11799736609262L89.82871977604167,206.04489543040344L90.75031921354167,234.64872497386375L91.72433766666667,253.24374142359116L91.93807721875,263.62304283233163L94.65370730729167,289.91478465492713L95.15961176041667,278.4624167571114L96.28601107291666,273.1937435312577L96.5728934375,288.06915439709627L97.02190903645833,294.0830527570677L97.45914051562501,309.5877368438257L99.55305669791666,318.37808324534154L100.53642117708333,321.6240854813467L104.64379644791666,328.35153129195777L105.54792288020833,332.46559861891836L107.89458811458333,332.85869828777015L109.08072072395832,333.4031098267957L110.38753897395833,335.4384016632783L110.70124036979166,338.11869628525506L116.939509578125,339.8874435182373L116.97404923958334,340.97481712764227L117.18860148958333,341.91420271638407L119.83312051041666,342.09379695641167L121.69135429687499,342.2098950583844L123.10097883333334,342.49432660386003L124.07255919270833,343.11275251772776L124.65770169270834,341.87525759952626L125.49599959375,342.6716284357923L126.9125320625,340.8047547021733L128.6171659427083,338.878599023826L129.70293035937502,340.20860738059383L130.92278993229166,331.2226580554981L134.53076233333334,335.2489215530927L136.28537713541667,337.1354642469314L136.319916796875,338.442790375133L138.34150286458333,341.0942823455624L138.58775033333333,340.5013622487011L138.870162859375,340.88218302374185L139.740562328125,341.95042039843923L140.30660642708332,342.8467151094475L141.286313765625,342.1511380442201L142.936903234375,342.8431571314122L143.14739199479166,339.87495087143526L145.526158796875,341.0884370599313L145.72648883333332,335.83410262674784L146.79478024479167,339.19736555084114L147.82568755208334,341.3872748385247L149.631908671875,340.6565952150536L151.43406630208335,341.6654969080107L151.96353899479166,343.0915766797349L152.01270721875,343.49439137852113L152.20084678645833,343.31149397271497L154.29151217708335,343.42051109748286L156.14852691666667,343.6170417857689L156.28140302604166,341.7602942848157L157.35172618229169,342.70719220465605L159.02019500520834,339.7639786386141L161.03527948958336,341.50233876770596L161.16612385416667,343.0650683364946L161.61595215104168,343.216332317099L162.65661183333336,343.74221892085643L163.51563353125002,344.15538721584386L165.42913077604166,343.33857919577497L166.501079328125,343.7522149396286L167.00495203645832,343.80109781222467L167.087440875,344.1432611247238L169.42882357291668,342.77938384669505L169.457268,343.15478218168465L169.46905211979168,342.9070761926209L170.20657547916667,343.68382370980135L170.87583221354166,343.87722417744516L171.01683530208334,344.2751746818402L171.18100028125,344.4905850611399L172.51057407291668,342.7531047108314L173.65160194791667,343.6127456157611L174.08476993749997,344.06038313188714L174.84829963020832,341.0830951846774L175.97388624479166,341.4686516626998L177.25591720833333,342.355833118364L178.40669745833333,343.290387125657L178.93129396354166,343.8163336044451L179.86223942708332,344.2289515690774L180.15155988541667,344.08544294781166L181.65870817187502,343.93977421081854L182.84118364062502,344.51874996125656L183.13212949479168,344.6582959779833L183.61690380208333,344.43555290544157L183.79976083333335,344.58231460487593L184.661220625,344.4882834074206L186.08588007291667,344.6861660266231L188.34802472395833,343.54605135836175L188.382970734375,342.9650418952092L191.63173065625,343.843953008474L191.74063217708334,343.9007993372234L191.818244828125,344.443920853772L194.413595625,344.7469432221529L194.998738125,344.95314259914215L195.06741109895836,345.0392271082335L197.70420948958335,345.0277429537077L201.71528005729166,344.919506012031L201.78232763541666,345.03263879671516L203.243152140625,345.058845235663L203.37196476041666,345.20131290133713L206.9990355625,345.13200757262223L207.24203223958335,344.82464695220125L209.3883674375,344.59121385206225L209.74514182291665,341.94197098135396L211.47862647916668,343.05974781911675L211.6842390520833,343.78005971925484L212.27019425,343.0571958109292L213.45713955729164,343.2231559776264L215.790801625,343.36663491776073L215.90620472916666,341.88638909879273L216.16545536458332,341.75428213286L217.09518178125,342.6655494731318L217.579143390625,343.55981116697154L218.36908576562502,344.1923310011616L219.32156772395834,344.49983135997553L219.38414546354167,344.1732192505402L221.08065236458333,341.4966388373398L223.16075268229167,342.75400963095444L223.63618096354168,343.7647602398265L227.87683869270833,344.3039457044141L229.723288359375,344.6549466158088L231.34136991145832,345.0065217443911L234.28049192708335,344.64138882601753L236.01925911979168,344.8568726135648L240.64879280208334,342.1649136051363L242.430632984375,343.4775480757342L242.93978822916668,344.1222070950895L243.20432140104165,344.35963052592103L244.29658740104168,344.69892226622886L246.59205266666666,343.8453326224713L249.12320032812502,344.1283145739822L249.74653963020833,344.67550395003497L250.31786626562499,343.9115429581507L250.56980261979166,344.49249161333887L250.76038028125,344.7397596633022L252.01274777083333,344.6831338114908L253.36141996354166,344.50425655399044L254.625977921875,344.767657860938L255.21030772395832,344.63795340078696L256.4598307708333,344.61247845837426L257.2485540989583,344.8776658629707L258.93002608854164,344.9089745200143L259.782546203125,344.1250202577674L259.99262861458334,344.4149471093101L261.54122449479166,342.6278346730165L261.711078359375,343.7214673672793L264.12601021875,344.39697201548114L265.56895536979164,344.72560714192645L266.8396085625,344.86245162029206L267.9668205729167,343.8608115201945L268.74579152604167,344.50427153514704L269.9514288854167,344.88636122987907L272.0916688489583,345.046650515147L273.538271140625,344.5787309237633L273.7365694322917,344.9561508264841L274.88775603125,343.07907249074407L275.3680605,339.6765706282859L275.46314615625,341.91726503379687L275.55863816145836,343.1971049173801L276.333545625,344.0926547372333L276.38352654687503,344.6453052167963L278.74319494791666,344.53915652460154L279.37588027604164,344.80131307248473L284.492626359375,345.03267516845915L288.39926524479165,345.0647745639471L288.820242765625,341.69919432765477L289.649194640625,342.9697836535866L290.726832078125,343.9762328727192L291.6061712239583,344.34086017140817L291.733764796875,344.65637580771204L292.57450079166665,342.5125213259261L296.8029680520834,342.1040249663513L297.2572661875,343.4332052688996L297.782675390625,316.7125193971739L298.1252275625,328.23760775487364L298.2227513125,335.1644356916404L298.43567816666666,339.17620799493284L301.07857179166666,341.6764650770731L301.77424120833336,343.15476268962306L303.19321177083333,322.7108786266475L304.0493890260417,331.7522856313378L304.95026466666667,337.15121918447784L305.057947140625,340.25269434752346L307.9852850364584,342.3224028687688L308.02632628125,343.4555365621491L308.2091833125,344.28947014423943L310.25515031770834,343.1923704234819L311.0828831458333,343.89014530589674L311.238514796875,344.2847671131701L313.39175792708335,344.4586875045255L314.939541109375,344.6351354122395L318.629596,344.83987734740117L319.2691892604167,345.064921001594L319.471957390625,345.2276676646622L319.69707471354167,345.17971752782L320.11520779166665,345.1087456765281L320.82672481770834,345.2526919381979L321.096946875,344.70058697653326L321.14205160937496,344.98916235159606L321.322470546875,345.20113653730283L322.8856949895833,345.28162379209675L323.98893241145834,345.3828983700273L325.4123728125,345.28434527170424L326.0604994010417,345.34881981042076L328.2482821927083,345.3207015658956L331.5470230364583,345.37420256824583L335.4808873020834,344.85322321672874L338.77028211979166,344.9918060330654L341.59440738020834,345.19389561626764L342.36443865625,345.1313040744915L342.99509223958336,345.26368405971976L343.9581392708333,345.18002012394726L344.28078034375,345.319008662516L345.42099552083334,345.37683664708584L346.0565252916667,344.35219712827063L346.60184559375,344.826502588198L347.30117215104167,345.079604238331L348.2308985677083,345.14670786696433L349.5299961875,345.24261697582534L350.88110647395837,345.18276560836716L352.2440008802083,345.1836606852055L352.7881021354167,344.6577204503261L352.84092749999996,344.9923359857799L353.1452828697917,345.16769876168L353.293193890625,344.8064316984463L356.54723634895834,345.05701099930906L356.9340805572917,345.24391749103364L357.4704611822917,345.3421315876844L358.5671970208333,345.3974801436523L360.92849081770834,345.4501886831057L361.12191292187504,345.47064797006453L361.32264930729167,345.4772907234863L362.98542924479165,345.5055638322197L363.44947975520836,345.46606991433043L363.901339796875,345.473981779104L364.04681272395834,345.5044589730096L365.3832944479166,345.4445130934228L367.71573746875004,345.45507486563383L367.9530452604166,324.2576523384725L369.2143524270833,332.75017061155387L370.06443444791665,337.76954382748335L370.93524026562505,340.8560213555047L371.45739867708335,341.8452674153204L371.82514448437496,343.2806339704017L372.1364077864583,342.5188762951013L373.2786547083333,343.69949060202754L373.82681945312504,344.3170639252817L374.23682555208336,344.7615428320745L375.91667214583333,345.07468892294105L377.7395535729167,342.36059853205455L379.13658129166663,343.57604859870605L381.12444039583335,344.3494685834985L381.1760467135417,344.7630293531907L383.85063555729164,344.92390384451573L384.417898703125,345.0578610717736L385.89091367708335,344.2555766371341L389.16405453645837,344.7743347820359L389.5537431875,344.96468647326105L390.58505684375,343.7919963785808L391.0755200364584,344.41438183228473L391.890656046875,344.8292272451883L393.24948696354164,345.0288293119478L393.4896391979167,345.2025517794714L394.579873453125,345.2664646020406L394.789549515625,345.36878241574567L395.09918742187494,345.3081282595183L396.29994859375,345.30550680232994L397.81969369791665,345.31401506542375L398.9773818802083,345.4167184299684L402.974230234375,344.88232062487714L404.76013390624996,345.14657024902243L405.8032316822917,345.3100025119044L409.26573115625,344.4870579080891L409.9492101041667,344.8849669933834L411.16541253645835,345.15089955175966L412.058567546875,345.20248966307247L414.50194383333337,345.32467952520403L418.77104598958334,345.36912587426923L419.13513465625005,345.45168172396956L426.9890473229167,345.42296102642416L427.58150410416664,345.431438993083L428.76072878124995,345.4751743005524L429.31580145833334,345.3137155576839L431.22157807291666,345.4107334196085L431.67872065104166,345.47677832442866L431.6823777916667,345.50357599320364L434.68854738541665,345.4901501132922L434.74137275,345.5158394430434L437.575656734375,345.52958120329953L438.3066785104167,344.2840121819809L438.90888766666666,344.7824827648337L439.9024108697917,344.999538668329L440.659845328125,345.208151978837L441.3896480572917,345.3477232879765L441.65824471875,345.4306133542816L442.06581272395835,345.452904298743L444.73511903124995,345.484677543798L445.0593855,345.4920981272633L445.4986487239583,345.515390043043L445.77537236458335,345.4422048600771L446.30525140624997,345.4900785693013L447.3430666458333,345.5096989047283L449.383344765625,345.51156357418444L449.8916873125,345.3967453754242L452.754009375,345.4335014855768L453.23065670312496,345.4904563676315L453.70608498437497,345.51540953562926L454.1490053489583,345.53273768508257L456.1596199947916,345.5494795788794L456.50704835416667,345.54472250738223L456.682997453125,345.55362012655564L459.2413704947917,345.54421892971334L459.49005605729167,345.5505316961135L461.48116595312496,345.40805210120743L462.91313968229167,345.3787493910362L463.31339340625,345.45648314738503L464.99324,345.4739209700722L465.75229985416667,345.485921135374L467.3931369479167,345.5225937593619L470.00149091145835,345.5442768664279L470.346074828125,345.5232832082443L477.0488008958333,345.5411995723918L478.00737808854166,345.55522208519074L479.86886266666664,345.5621891355086L480.91602393229164,345.560912176256L480.9716937395834,345.5662095346884L481.01923656770833,345.5721292426191L481.673458390625,345.5678362316962L482.12613113020836,345.57085003929296L482.245191375,344.62782496371113L482.85227671875,345.0092526682113L483.6625365416666,345.22127797465396L484.991703984375,345.29003106611475L485.3614815364583,345.4052006314598L485.5983829791667,345.4232184577975L486.1209477395833,345.48427787111217L486.9035758333333,345.52287886690726L487.20874390104166,345.53987111749393L488.93897776562505,345.2149551904271L488.95685711979166,345.35585623267525L491.31246203125,345.4340209250966L491.5924364635417,345.4786840461849L492.4794962395833,345.5200790611869L492.98946418229167,345.54331923382375L498.0094992135417,345.5583093727623L498.3215752135416,345.5637887308533L500.98966247395833,345.5692246456233L502.01975708333333,345.5729094376214L502.065674515625,345.5716624848298L502.3594648125,345.576108353228L502.4529250729167,345.5789486367663L503.83776232291666,345.57559672350783L504.11692405729167,345.577310796516L504.8723267708333,345.4149868173169L508.9662925260417,345.47487959245484L510.45637415625,345.5019823200993L510.638012140625,345.5313606784766L511.08621504166666,345.5513072727128L511.77822731770834,345.5637633146324L511.97043037500003,345.56948787833676L512.0638906354167,345.57103559011057L513.2146708854167,345.5757855623976L514.3532606666666,345.5709278371112L516.0168533020834,345.57529120467433L516.3289293020833,345.4376774437809L516.5073164947917,345.4421649557169L518.1648138958334,345.49309928273203L518.1855376927083,345.5086055975849L518.31678840625,345.5313858796056L518.3602677447917,345.54388470113446L518.60935965625,345.5493801190902L519.2619560833333,345.5616134088468L519.685778046875,345.56978986814215L519.8731049166666,345.57479407164936L519.939339796875,345.5595531211217L520.509853734375,345.5358527458839L520.7272504270834,345.55394391460374L521.4546150625,345.56565676727973L522.6708174947917,345.27179531230433L523.2409250833333,345.2262290914889L523.3010647291667,345.3681598729316L523.5956677239583,345.45147154100727L523.9613817864583,345.5039321571343L524.149927703125,345.5343864899386L527.0910814635416,345.1924262679156L528.4161854166666,345.34787171756267L528.940781921875,345.4039604852931L529.11754371875,345.47385561360625L529.5742799479167,345.50698846931414L530.7409078072917,345.5338607151615L530.96074259375,345.5447582197416L531.4503930885417,345.5577522147125L533.0518143333334,345.54755739863833L534.3736674947917,345.5316599254723L535.6752032083333,345.55126951870386L535.8986951354167,345.56404276637534L536.1030886614583,345.5245661442101L538.0141478125,345.5433801795462L538.2352016458333,345.5266080251593L541.1357205104167,345.5488812831641L541.1852950833334,345.52366430583845L543.11707803125,345.53491571125664L543.9188045260416,345.5541693816L544.1455472447917,345.56551193363885L546.5767330625,345.5722706209369L550.4077910416667,345.5759088335108L551.222520703125,345.57716767293687L552.4009326822917,345.5771125651728L552.6260500052083,345.57931918473736L554.6634836822917,345.58071028493845L554.867470859375,345.58167802401647L555.1124992812499,345.58072518028575L557.7269484791667,345.5594879542735L559.7330932864584,345.5670200695449L560.0394804010416,345.57226751922934L560.7509974270833,345.56944205768474L561.2703113958333,345.5744357016852L561.867238015625,345.0582585529585L561.9529776458334,345.26816452057494L562.2764314166667,345.3933273979348L562.5287741197916,345.46923959842366L562.87538978125,345.51315965360493L563.0907547291667,345.5353579204829L564.7929505156251,345.5543077645049L564.8039219375,345.56528242273265L566.5691018125,345.57243258418623L566.8064096041667,345.5765670511271L568.3127451927083,345.57888376626886L569.0027257239583,345.57951266661235L569.8259887135417,345.5809571378698L572.777707546875,345.5808304366142L575.8939977083334,345.56842940846707L576.0284992135416,345.547502930716L578.5933738385417,345.5556960071379L580.2910997864583,345.56604516650236L585.8085059427084,345.5659164388848L588.8768469270833,345.5613554213484L591.246267703125,345.52700135828854L592.1341401770834,344.8152943588044L592.1772131666667,345.1216824782268L592.219067109375,345.28178466736506L592.3673844791667,345.3999160611441L593.6169075260417,345.4353735521728L595.7161062447917,345.49195478419784L597.6011590625,345.52798751721514L600.008776640625,345.54298386577995L600.3176018489584,345.55904222884755L600.9576014583333,345.5019015907866L604.063326546875,345.534145418636L604.3246089270833,345.5296684495163L606.9829438125,345.55036197213593L607.8379020208333,345.563337482611L608.7351205208333,345.56884751438344L609.0024981354167,345.57439590532283L611.4755378958333,345.57789190292834L614.2192060625,345.5689163771302L614.388653578125,345.20726095943235L615.4366275416667,345.3553867257628L616.300119078125,345.4129159115999L618.817450875,345.48073793045484L619.2827204322917,345.5213292056337L620.0129295104167,345.5438758935924L620.1592151354167,345.51588413486957L621.2872398437501,345.5421445745845L621.8455633125,345.5506057861737L623.592457484375,345.55853306615916L624.818818640625,344.6722033671704L625.0301200989584,345.0359524004288L626.3873256197917,345.2495021548488L627.4913757395833,345.3810327099802L627.9749310000001,345.4347566429498L628.4434513489583,345.49192376542186L628.7750320989583,345.5281450021429L629.7762759322916,345.525308181487L630.5186754791667,345.5475903173391L630.80555784375,345.54903404696995L631.4780653697917,345.5017251703164L632.0497983541667,345.5313763195097L632.2992966145833,345.5513209636849L632.6495694166667,345.5624184723423L633.9234734010416,345.5700107682522L635.6809326458333,345.5551395712821L639.7988729895833,345.5520827656254L639.95328559375,345.56443682183726L640.6119772552083,345.5630742961033L641.7139956302083,345.5685943043L641.7883574895833,345.5740777317127L644.3182861041668,345.5768741422189L644.625892265625,345.5560296737357L646.9465511666666,345.5634525779996L648.0863599947917,345.57079053582964L648.2387408541667,345.535217205007L648.8474515937501,345.55417560683907L650.5175458125,345.5656372749267L650.682117140625,345.572270395679L651.5545483541666,345.57349371587134L652.052325828125,345.57597116168006L652.3355510520832,345.53208937384437L653.4245662604167,345.54403396917183L653.4375694270833,345.55799415134254L654.9800700729166,345.56769477826884L655.6769585364584,345.5693347400275L656.709084890625,345.5660845516804L659.1199532604168,345.57236755913834L661.2715709947918,345.57315041740105L663.216357109375,345.5754717813219L663.5499696041666,345.5783221171544L663.6450552604166,345.57981549154556L665.6097524739583,345.5809080940664L665.822679328125,345.56923156506684L666.9238850052084,345.5745874745379L666.9543611770832,345.57761469456557L667.2331165625001,345.5749024972517L668.4858904010417,345.57788853551125L670.0019783645834,345.5795710978728L670.1328227291667,345.57734145173606L670.26854328125,345.5787382091637L673.115017734375,345.5798566384665L673.5038936875,345.5812152439953L674.4283375677082,345.5806353686306L675.8013906979166,345.5777969018926L675.9452382291666,345.5732728707482L676.3901903385416,345.57207253186857L677.5393451927083,345.5710727220929L677.6210213333333,345.5756668302932L678.61170009375,345.5784353599733L678.9887919270834,345.574689334057L681.6438760208333,345.5772012542411L683.1266433697916,345.57924541262065L684.8463121614583,345.5643122404582L685.46274353125,345.5674289971987L685.6707941979166,345.573693095799L688.5002019947916,345.57591362736935L689.7436298072917,345.5786393977611L690.4128865416667,345.58015011373624L690.81679740625,345.5809310853632L691.0585750364584,345.5774118491803L692.319882203125,345.5783677992922L692.9505357864583,345.57973444835415L694.0793731927083,345.57539639165014L694.3650365104166,345.57819747915545L694.7961727552083,345.58017474623574L695.2407185156251,345.58137587789355L696.01481328125,345.15819283543584L697.2147617552083,345.318570708456L697.7836502968751,345.42435510464605L697.78486934375,345.4878800100396L697.8246915416667,345.52555655215343L699.095344734375,345.54836844980434L699.9307981927084,345.56232104539333L700.9511404270833,345.57019881030016L701.20795296875,345.5752374803053L701.3891846041666,345.5783551969205L703.5505547135417,345.57990088332224L704.326274875,345.4933923095753L704.8082047395834,345.5292486871663L704.9865919322917,345.5507578516757L706.0573214375,345.56086440886247L706.5307179739584,345.5412608770373L706.70829246875,345.5517732726411L707.6741839427084,345.56429092915573L708.9895355208333,345.4422201651149L710.2045189062501,345.1581313399246L711.4601371875,345.31948770978306L712.0091146302084,345.424929735685L713.426459796875,345.46336846378085L713.7235008854167,345.4993731974309L714.5910559114583,345.472348196523L715.9832074427082,345.51587606252946L717.9267745104166,345.5428361859277L718.1937457760416,345.5556273855282L718.63057090625,345.56562134099386L719.2628498854166,345.57126136291004L719.5001576770833,345.5748168533135L720.1206525364582,345.5780463897575L720.4623920104166,345.5787254226678L721.5554707083332,345.5777989995392L722.2365115625,345.57933153265253L722.296244859375,345.55285016736224L723.0463650364584,345.56464599479733L724.1325358020833,345.5176088896816L725.5429730364583,345.5421369293995L725.7664649635416,345.5306159622226L726.426375671875,345.5502232811422L727.4812575677083,345.56181219551513L729.583707078125,345.5681918992306L730.2606844427083,345.56965004835837L731.0010522447916,345.5744309128623L731.0075538281251,345.57760309069704L733.3282127291667,345.579680104306L733.5395141875,345.5768499653517L736.032465046875,345.57867579392183L736.8922994427083,345.5772041332984L737.7423814635416,345.5669961706143L738.0942796614584,345.56492265862187L738.9931235572916,345.57161265033926L739.8046024270833,345.2226828921207L741.2763983541666,345.36072426735365L742.998098890625,345.44972569320896L745.0156214687499,345.50154682920504L745.7511130833334,345.5286320919726L749.4180060833334,345.5499173144303L749.7292693854166,344.4605398103279L750.4700435364583,344.8753878790582L751.8959220312499,345.158251046431L752.1888996302083,345.32826052014883L752.4989438854167,345.411204059393L753.135692703125,345.4790623971362L753.2775084895834,345.52044922049L753.3973814322917,345.52141803421074L753.8874382760417,345.54192799452323L755.2344850729166,345.5376518925816L756.8078682395833,345.5558386271404L758.3629657031249,345.50608337066706L759.6039554218751,345.53532968878824L759.7421140677084,345.5505916011309L760.44875490625,345.5635333805503L760.7246658489582,345.4727292094207L761.2488560052084,345.514494988066L762.2541633281251,345.53163297171653L765.969818203125,345.54367218287445L767.8776265625,345.55854196613996L768.9739560520834,345.5455557566354L769.7951872968749,345.55247603746864L770.25476796875,345.5633214961985L770.5103614635417,345.57033920579414L771.3108689114583,345.5740621548386L774.9196540104167,345.4819694760358L776.2313484479166,345.52117750262613L776.7652909791667,345.54582480276144L777.4377985052083,345.5546648002071L777.8461792083334,345.56386676054524L778.9644515416667,345.5716101936824L780.2639555104167,345.5757251807545L781.327370734375,345.57303425285056L783.0348490572917,345.5690871790011L784.0527531979168,345.571873981753L784.1222388697917,345.5754009028433L784.3432927031249,345.57765383906013L784.44447359375,345.57486981885734L784.8561050885417,345.578045612809L786.062148796875,345.57818326635277L786.2706058125,345.57866978285534L789.1211437552083,345.5764635703861L789.5299308072917,345.5787936893473L789.855822671875,345.5082189290929L790.414146140625,345.5381375593513L791.6600120468751,345.55606854991754L792.0627038645833,345.56504766299133L793.6007346718751,345.4451998215443L796.105876,345.49787351178264L796.346028234375,345.53029895644374L796.4106377187501,345.5476286710583L796.6674502604167,345.55953629149724L797.0607960520833,345.5560876383169L797.8292019322917,345.5642022715833L798.7564902552084,345.5517734453248L799.7053150729167,345.5614094721093L803.4323477187501,345.5698153274357L803.8606395208333,345.57357510414926L805.6160670208333,345.5773348246523L805.6262257447917,345.57943077123764L805.9078255729166,345.54845167979806L806.3015777135416,345.5617902574168L806.79204090625,345.57004789022636L807.3117612239583,345.5744209831531L807.7680911041667,345.57796874815847L808.3162558489583,345.54737544440064L808.9026173958333,345.5565866016281L809.8087755729166,345.5671144843322L810.2143118333333,345.5735204690496L811.7486855000001,345.5771524677224L812.2379296458333,345.57891008834054L814.840188375,345.58062768003055L816.9141934583333,345.5807922749021L817.2055456614584,345.5795636225839L818.2380783645834,345.5771008243778L820.5229785572917,345.57813931453745L821.4059748437501,345.5792676208647L825.6681690677084,345.57144626547097L828.181437375,345.5712970906754L828.2988722239584,345.55309400243993L832.4220951041667,345.5598206668148L833.23072953125,345.55754147861643L834.9950967083333,345.5611563177473L836.2694070416667,345.568663086995L837.4392856927084,345.5669685273575L838.6168849739583,345.5713722493373L839.1317291041667,345.57585746695014L840.8639947135417,345.5780587815137L842.6754983697916,345.5546041551438L843.1988758281251,345.563599818651L845.8657440416666,345.5695002665243L847.3676097916666,345.5748880283936L848.9743135729167,345.5781944114558L849.9369542552084,345.5802179111736L850.288852453125,345.5781450707425L850.639937953125,345.57902871128283L851.9890164947916,345.57053337453857L852.1877211354166,345.5750426977879L853.343783921875,345.5777289134203L853.6794281614583,345.57985116182806L853.6985265625001,345.57951088830214L854.5644561927082,345.5800646275392L855.6457507708334,345.5803091730411L855.87574428125,345.5731337274946L859.324427890625,345.5732470997418L859.4877801718751,345.57715655705584L859.882751359375,345.5736768638174L860.37646534375,345.5774736803816L860.380122484375,345.5162218858182L861.7913724166667,345.53640978287444L862.862101921875,345.5546509381626L863.9978472604167,345.5658171745773L867.5318641510416,345.56771482064L868.0491463750001,345.57392181684617L869.2438123125,345.57749663376546L869.4469867916666,345.57971580291263L870.1832911041668,345.581137924585L870.5327512083334,345.5794313522082L871.19672540625,345.5809026560882L871.7339187291667,345.58090649035086L872.2942739427083,345.58124318235747L872.5413341093749,345.58199861461605L872.9212703854167,345.5796086048239L873.2910479375,345.58090412060574L873.3085209427084,345.5757189341975L873.8132063489584,345.57855192098106L874.4609265885417,345.5770874121263L875.3821196770833,345.5673337959236L875.959541546875,345.5729263419942L875.98026534375,345.5736540484508L877.0249885156251,345.5746364264857L877.5873754739583,345.5744363107479L878.2533814166667,345.5777935360115L878.952301625,345.5727488464645L879.2469046197917,345.57640020934684L879.8328598177084,345.57880963934565L880.321291265625,345.5777267886846L881.0080210052083,345.57387522627585L881.6821539270834,345.5731742295317L883.3177084843751,345.5664044824472L883.7598161510417,345.5730766398922L884.6525648125,345.5669565170523L884.84029803125,345.5733490216174L886.219040046875,345.5767242697666L886.6684619947916,345.5782632799453L887.85622,345.5725679440768L888.09271509375,345.5765651354796L888.403572046875,345.57821253970144L889.4121301614583,345.5743500567016L889.5133110520834,345.5773296155449L889.883494953125,345.56451910351905L889.9550123697917,345.56994374432475L891.2719893437501,345.5741025931208L894.69994915625,345.5767422545797L894.8336379635416,345.57929308436053L895.1599361770833,345.57516176450855L895.691034265625,345.5770775393525L897.6520743385416,345.45674629248936L897.7272488958333,344.5338533949832L898.26444221875,344.9533758138835L899.7191714895832,345.2053081069611L901.0950690625,345.35458199571156L902.0016335885416,345.44587718558364L902.904134625,345.50012783057684L903.2609090104168,345.5290008020038L905.0748507604167,345.45937921715876L905.4746981354166,345.50852694028714L906.1130723489583,345.48262176546285L907.6133127031251,345.52279670552514L911.6902118020834,345.54401911544824L912.7694746354166,345.5596198335265L913.947480265625,345.5480612954267L915.0779430677082,345.56036276255077L915.5923808489583,345.2726542811913L917.9459540156249,345.3949080886776L919.8387274635417,345.46252592886015L920.3836414166667,345.51047928779707L921.6502311197916,345.5000482511308L923.4857093645834,345.53170958445094L923.5677918541667,345.54782495011165L923.8949027656249,345.5453664625698L924.5913848802084,345.5579581078944L925.035930640625,345.55160446469273L925.9420888177084,345.55761217414255L926.7324375416667,345.5639159779729L927.1018087447916,345.5711223832511L930.7752033281249,345.5747637318668L930.9255524427083,345.5762718635162L931.0405491979167,345.57855125995275L933.9930807291666,345.580013175927L935.6660193906249,345.5769406844225L936.5884315260417,345.5790756794097L938.1593765989583,345.57934393812775L940.0501183020833,345.5792089876334L941.7685680468751,345.57913629894836L944.196909421875,345.5790596157236L945.0685279375001,345.57916773869715L946.7443110416667,345.57963574841335L946.7670665833333,345.5802680699337L949.2949634531251,345.5807800316696L949.49366809375,345.5817568844883L950.3153056875001,345.5821245228393L955.1114424427083,345.5136528646468L955.7238103229166,345.54000476940996L956.1195942083333,345.55715396667847L957.3646474166666,345.5600561897199L957.5511615885417,345.5692466688688L957.6852567447917,345.57469232902565L958.2313897447916,345.57801097125184L961.1786387395833,345.5800365432384L961.3619021197917,345.5804933391407L964.5387382760416,345.5797305262076L966.4241974427083,345.58112982196644L967.4876126666667,345.5797718324431L968.585161203125,345.58073054411426L968.6286405416666,345.5804861219521L969.4445892499999,345.57949660127935L970.0817444166667,345.56955986317377L970.6433186770832,345.57498137455275L971.4324483541666,345.57615624860836L973.2780853229166,345.578520605497L974.1765228697916,345.5803171557045L974.40123384375,345.58141982149345L976.1846994218749,345.5688622131291L978.10226015625,345.5737086108496L978.289993375,345.57591373454966L978.837345421875,345.5780331063225L978.915364421875,345.5796223888066L979.71140203125,345.5788895716734L980.4302333385417,345.57966542173216L980.9609250781251,345.3854729928173L981.221801109375,345.45974528810905L981.814257890625,345.49937319379137L984.5172911614584,345.5155557948319L984.7533799062501,345.54195950116133L986.1816964947917,345.5571065345352L986.29425515625,345.56394793679107L986.35764559375,345.56562544271134L987.0590038958334,345.5719755150831L989.389415171875,345.5633481978035L989.440615140625,345.5661755761598L989.4621516354167,345.5227509082561L991.2370838854167,345.5387729614116L994.8539959635417,345.43434861244936L994.887316578125,345.4816747008004L996.647620265625,344.60601069580275L996.8751756822917,344.99472447688925L999.1844568125,344.7401250458515L1001.6843156041667,345.06848554183034L1002.2658009635417,345.225282539511L1002.7026260937499,345.36821443729417L1002.7542324114584,345.4539088333045L1003.6575461458333,345.5040993401493L1004.5003138854167,345.53535161417926L1005.5592592708333,345.53533714216894L1006.8108140625,345.55442015044633L1006.9587250833334,345.500917494705L1010.4537324739583,345.32783501053177L1012.4785693333333,345.42896952887514L1012.5679661041667,345.47450035612985L1012.6984041197917,345.5094449033609L1012.7114072864583,345.5358312808376L1015.384370734375,345.2900960036931L1015.5253738229167,345.40600499231255L1015.6911641979167,345.468482894602L1016.4717605468751,345.514306980359L1016.7525476770834,345.53798342321426L1018.069931,345.5559383716253L1020.9001514947917,345.5654582492237L1021.0801640833333,345.5703605743267L1024.142003484375,345.57498805380493L1024.6109301822917,345.5624829581701L1025.4650756927083,345.5655483849767L1028.5789277604167,345.5707748553391L1028.7467498802082,345.5272712248706L1028.8495561666666,345.54158027115466L1029.8780253802083,345.55755144966867L1030.2433330937502,345.465962392243L1032.0966906927083,345.51176942550035L1032.1218843281251,345.5392718025317L1032.9622139739583,345.5532666010036L1033.0926519895834,345.56440554407965L1033.1219091145833,345.34391280452155L1033.9715847864584,345.40363232811177L1034.872054078125,345.4713006258796L1034.9102508802084,345.4704019422107L1035.4710124427083,345.5154316551706L1035.7298567291666,345.4846427817405L1037.5263254739584,345.52167682454797L1039.0554166041668,345.5413602733636L1039.4463243020834,345.5560548362911L1039.5576639166666,345.5623454905677L1040.6483045208333,345.5702225921956L1042.3147415989583,345.5516040582323L1042.4090145572916,345.5633748808988L1042.532544640625,345.57128933163534L1043.6044931927083,345.5752116364309L1043.9275406145834,345.57833268640024L1044.3322641770833,345.57873570030034L1044.53543865625,344.7596312527833L1045.7646442552084,345.0861449497261L1046.3164661406252,345.28492796297877L1049.36286428125,345.3997548025089L1049.554254640625,345.47304794888015L1051.4864439374999,345.514778426861L1054.3235723645832,345.5406762204137L1056.8461866979167,345.55555218404294L1057.1846753802083,345.5588237888732L1058.2549985364583,345.56846153966706L1058.6662236822917,345.56844056141176L1058.7609029895832,345.5656703310569L1060.4224638802084,345.57185799759924L1061.45580928125,345.57346706302843L1063.40140809375,345.2245718646453L1063.756150734375,345.35399268655317L1064.19622665625,345.44546757956044L1065.66395909375,345.5001164670253L1067.3730628125,345.5309716089083L1067.47546275,345.5281743118546L1067.5087833645835,345.51734904428224L1069.197975984375,345.5407949898168L1072.830735671875,345.5572263940549L1073.7173890989582,345.56142541260107L1073.8929318489584,345.56836703996555L1076.1888034635417,345.57407693347L1076.2400034322916,345.5741994963867L1077.82029453125,345.5774774366276L1080.7293467239583,345.57932257842134L1082.6566598333334,345.56115464386465L1082.8699930364583,345.5693369776585L1082.9614215520833,345.57422325968616L1083.5124307395834,345.5775719540375L1084.8229061302084,345.57981478995674L1087.185012625,345.5803372874575L1087.594612375,345.58112830504416L1089.490230265625,345.5275718120537L1090.8770992604166,345.53789171330965L1092.620742640625,345.5552504903059L1094.8134016197916,345.565209751499L1096.4847148854167,345.56430886416615L1096.6756988958334,345.57188094465863L1098.9260594270834,345.57597724709495L1099.2105036979167,345.5784698318978L1101.8103243333335,345.5783416438572L1102.02081309375,345.58002417668416L1102.0817654375,345.5808022317104L1103.4548185677083,345.5806865488821L1103.6685581197917,345.5805973500375L1105.4918458958332,345.58136784531433L1105.8920996197917,345.58055868059313L1107.1660036041667,345.5811549225703L1108.997418359375,345.5813987660432L1110.0218240833333,345.5815698375812L1111.1652900520833,345.5787842446576L1111.42697878125,345.58060096850016L1111.4529851145833,345.5811061810618L1112.2270798802083,345.5536294606473L1112.2868131770833,345.56532715141503L1112.866673140625,345.566767448779L1112.8674858385416,345.57095828663404L1114.5798403489584,345.57587047091573L1116.07886165625,345.5786594152311L1117.5811337552084,345.579059551023L1118.7798631822916,345.5803333216924L1119.0984407656251,345.5785857643122L1120.04320209375,345.2540338349692L1120.3532463489585,345.3848154652783L1122.1090801979167,345.43203397057124L1122.7088512604166,345.2900985704007L1123.2813969427084,344.99902888554226L1123.29074296875,345.11727881455784L1125.4598337083335,344.98484840064214L1125.7211160885417,345.16092697053597L1125.9750841875,345.2640909448267L1126.0624492135416,344.6392939374868L1126.1355920260416,344.9889134558609L1126.8580804739584,345.2201781334755L1127.52327371875,345.3259971241299L1127.5744736875,345.4023669126286L1127.6996291666667,342.81951564296367L1128.0848479791666,336.1426450224408L1128.84472053125,339.8446484176943L1133.5031049895833,342.1370158863703L1133.898888875,343.4829741612992L1134.4007298385418,344.1495775075614L1135.1878277708333,344.6926950478588L1135.2524372552084,345.0439190728789" style="fill: none;" fill="none"></path></g></g></g></g><g opacity="0.2"><g><g><g><path stroke="rgb(255, 112, 67)" stroke-width="2px" d="M81.86915638020834,248.80418015550822L82.686730484375,305.3275753920898L83.50186649479167,213.37727745436132L84.40355483333333,82.18387732654806L84.70912924999999,-142.32991968529925L85.43933832812499,295.8258375974062L86.13256965104168,307.4617378784654L86.54013765625,228.96876002801582L88.22526678645833,298.876239947509L89.82871977604167,139.11659205549705L90.75031921354167,277.2950346603369L91.72433766666667,281.0350728398189L91.93807721875,279.15810472549254L94.65370730729167,329.3008891295564L95.15961176041667,261.29732673894614L96.28601107291666,265.2944495690366L96.5728934375,310.3759759205083L97.02190903645833,303.10237336888287L97.45914051562501,332.8424009913967L99.55305669791666,331.5627993751356L100.53642117708333,326.49291081687744L104.64379644791666,338.4424786384043L105.54792288020833,338.6366183842765L107.89458811458333,333.4483431344076L109.08072072395832,334.21972326588974L110.38753897395833,338.4913307384122L110.70124036979166,342.13913136008097L116.939509578125,342.54056165226694L116.97404923958334,342.6058765401249L117.18860148958333,343.3232805803127L119.83312051041666,342.3631882568977L121.69135429687499,342.3840421882439L123.10097883333334,342.92097388811817L124.07255919270833,344.04039134423266L124.65770169270834,340.0190152754076L125.49599959375,343.8661846696559L126.9125320625,338.0044441306284L128.6171659427083,335.98936552418553L129.70293035937502,342.2036199083377L130.92278993229166,317.7437340978843L134.53076233333334,341.2883167914115L136.28537713541667,339.96527828541974L136.319916796875,340.4037795664917L138.34150286458333,345.0715203000582L138.58775033333333,339.6119821035633L138.870162859375,341.4534141862435L139.740562328125,343.5527764603855L140.30660642708332,344.1911571759095L141.286313765625,341.1077724464024L142.936903234375,343.8811857621865L143.14739199479166,335.4226414815057L145.526158796875,342.90866634266666L145.72648883333332,327.9526009769955L146.79478024479167,344.2422599369723L147.82568755208334,344.6721387700466L149.631908671875,339.56057577984757L151.43406630208335,343.1788494474458L151.96353899479166,345.2306963373206L152.01270721875,344.09861342670047L152.20084678645833,343.0371478640057L154.29151217708335,343.58403678463463L156.14852691666667,343.9118378181981L156.28140302604166,338.97517303338583L157.35172618229169,344.12753908441664L159.02019500520834,335.34915828955127L161.03527948958336,344.10987896134367L161.16612385416667,345.40916268967766L161.61595215104168,343.4432282880055L162.65661183333336,344.5310488264925L163.51563353125002,344.77513965832503L165.42913077604166,342.11336716567166L166.501079328125,344.372668555409L167.00495203645832,343.8744221211188L167.087440875,344.6565060934724L169.42882357291668,340.73356792965205L169.457268,343.717879684169L169.46905211979168,342.53551720902516L170.20657547916667,344.84894498557213L170.87583221354166,344.16732487891085L171.01683530208334,344.8721004384327L171.18100028125,344.81370063008944L172.51057407291668,340.1468841853687L173.65160194791667,344.9022069731557L174.08476993749997,344.73183940607606L174.84829963020832,336.6171632638628L175.97388624479166,342.0469863797334L177.25591720833333,343.68660530186025L178.40669745833333,344.6922181365965L178.93129396354166,344.6052533226272L179.86223942708332,344.84787851602596L180.15155988541667,343.87018001591304L181.65870817187502,343.7212711053289L182.84118364062502,345.38721358691356L183.13212949479168,344.8676150030733L183.61690380208333,344.10143829662894L183.79976083333335,344.80245715402754L184.661220625,344.34723661123763L186.08588007291667,344.9829899554267L188.34802472395833,341.8358793559698L188.382970734375,342.09352770048037L191.63173065625,345.1623196783712L191.74063217708334,343.9860688303476L191.818244828125,345.25860312859487L194.413595625,345.20147677472414L194.998738125,345.2624416646261L195.06741109895836,345.16835387187047L197.70420948958335,345.010516721919L201.71528005729166,344.7571505995159L201.78232763541666,345.2023379737414L203.243152140625,345.09815489408476L203.37196476041666,345.4150143998483L206.9990355625,345.0280495795499L207.24203223958335,344.36360602156975L209.3883674375,344.2410642018537L209.74514182291665,337.9681066752916L211.47862647916668,344.7364130757608L211.6842390520833,344.860527569462L212.27019425,341.9728999484408L213.45713955729164,343.4720962276721L215.790801625,343.5818533279623L215.90620472916666,339.66602037034073L216.16545536458332,341.55612168396084L217.09518178125,344.03245048353955L217.579143390625,344.9012037077312L218.36908576562502,345.14111075244665L219.32156772395834,344.9610818981964L219.38414546354167,343.6833010863872L221.08065236458333,337.48176821753924L223.16075268229167,344.64006582137637L223.63618096354168,345.28088615313453L227.87683869270833,345.1127239012955L229.723288359375,345.18144798290086L231.34136991145832,345.53388443726453L234.28049192708335,344.09368944845727L236.01925911979168,345.18009829488557L240.64879280208334,338.12697509249364L242.430632984375,345.44649978163096L242.93978822916668,345.0891956241224L243.20432140104165,344.71576567216835L244.29658740104168,345.2078598766905L246.59205266666666,342.564948156835L249.12320032812502,344.55278750124853L249.74653963020833,345.4962880141141L250.31786626562499,342.7656014703243L250.56980261979166,345.3639145961212L250.76038028125,345.1106617382472L252.01274777083333,344.59819503377366L253.36141996354166,344.23594066773995L254.625977921875,345.1627598213593L255.21030772395832,344.4433967105603L256.4598307708333,344.57426604475523L257.2485540989583,345.2754469698654L258.93002608854164,344.95593750557964L259.782546203125,342.9490888643971L259.99262861458334,344.84983738662413L261.54122449479166,339.94716601857607L261.711078359375,345.3619164086734L264.12601021875,345.410228987784L265.56895536979164,345.2185598315943L266.8396085625,345.0677183378405L267.9668205729167,342.35835137004807L268.74579152604167,345.46946155757587L269.9514288854167,345.45949577197706L272.0916688489583,345.287084443049L273.538271140625,343.87685153668764L273.7365694322917,345.5222806805653L274.88775603125,340.2634549871339L275.3680605,334.57281783459865L275.46314615625,345.2783066420634L275.55863816145836,345.11686474275484L276.333545625,345.4359794670133L276.38352654687503,345.4742809361408L278.74319494791666,344.3799334863094L279.37588027604164,345.19454789430955L284.492626359375,345.37971831242066L288.39926524479165,345.112923657179L288.820242765625,336.6508239732163L289.649194640625,344.8756676424843L290.726832078125,345.4859067014181L291.6061712239583,344.8878011194417L291.733764796875,345.12964926216773L292.57450079166665,339.29673960324726L296.8029680520834,341.49128042698914L297.2572661875,345.4269757227221L297.782675390625,276.63149058958516L298.1252275625,345.52524029142336L298.2227513125,345.55467759679055L298.43567816666666,345.19386644987145L301.07857179166666,345.42685070028347L301.77424120833336,345.372209108448L303.19321177083333,292.04505253218423L304.0493890260417,345.3143961383733L304.95026466666667,345.2496195141878L305.057947140625,344.9049070920919L307.9852850364584,345.4269656506367L308.02632628125,345.1552371022196L308.2091833125,345.54037051737487L310.25515031770834,341.5467208423458L311.0828831458333,344.9368076295189L311.238514796875,344.87669982408016L313.39175792708335,344.71956809155864L314.939541109375,344.89980727381044L318.629596,345.1469902501437L319.2691892604167,345.40248648288315L319.471957390625,345.47178765926463L319.69707471354167,345.10779232255663L320.11520779166665,345.00228789959027L320.82672481770834,345.4686113307027L321.096946875,343.8724295340362L321.14205160937496,345.4220254141904L321.322470546875,345.51909781586284L322.8856949895833,345.40235467428766L323.98893241145834,345.5348102369231L325.4123728125,345.1365156242197L326.0604994010417,345.4455316184955L328.2482821927083,345.2785241991078L331.5470230364583,345.4544540717713L335.4808873020834,344.0717541894531L338.77028211979166,345.19968025757044L341.59440738020834,345.49702999107103L342.36443865625,345.03741676182716L342.99509223958336,345.46225403756216L343.9581392708333,345.05452422028856L344.28078034375,345.5274914703691L345.42099552083334,345.4635786239405L346.0565252916667,342.8152378500478L346.60184559375,345.53796077808914L347.30117215104167,345.4592567135305L348.2308985677083,345.24736330991436L349.5299961875,345.3864806391169L350.88110647395837,345.0929885571798L352.2440008802083,345.185003300463L352.7881021354167,343.8688100980071L352.84092749999996,345.4942592889606L353.1452828697917,345.4307429255302L353.293193890625,344.2645311035958L356.54723634895834,345.4328799506032L356.9340805572917,345.5242772286205L357.4704611822917,345.48945273266037L358.5671970208333,345.4805029776042L360.92849081770834,345.52925149228577L361.12191292187504,345.5013369005028L361.32264930729167,345.48725485361894L362.98542924479165,345.54797349531987L363.44947975520836,345.4068290374965L363.901339796875,345.48584957626434L364.04681272395834,345.55017476386803L365.3832944479166,345.35459427404265L367.71573746875004,345.4709175239503L367.9530452604166,292.4615185477305L369.2143524270833,345.48894802117593L370.06443444791665,345.29860365137756L370.93524026562505,345.4857376475367L371.45739867708335,343.3291365050439L371.82514448437496,345.4336838030237L372.1364077864583,341.3762397821508L373.2786547083333,345.4704120624169L373.82681945312504,345.2434239101628L374.23682555208336,345.42826119226385L375.91667214583333,345.54440805924077L377.7395535729167,338.2894629457248L379.13658129166663,345.3992236986833L381.12444039583335,345.5095985606872L381.1760467135417,345.3833705077289L383.85063555729164,345.16521558150333L384.417898703125,345.25879691266044L385.89091367708335,343.05214998517476L389.16405453645837,345.5524719993887L389.5537431875,345.2502140100987L390.58505684375,342.03296123656037L391.0755200364584,345.3479600128406L391.890656046875,345.45149536454363L393.24948696354164,345.32823241208706L393.4896391979167,345.46313548075676L394.579873453125,345.3623338358945L394.789549515625,345.52225913630326L395.09918742187494,345.2171470251772L396.29994859375,345.30157461654744L397.81969369791665,345.3267774600645L398.9773818802083,345.57077347678535L402.974230234375,344.0807239172403L404.76013390624996,345.5429446852404L405.8032316822917,345.55515090622725L409.26573115625,343.25264100236626L409.9492101041667,345.48183062132483L411.16541253645835,345.54979838932405L412.058567546875,345.2798748300417L414.50194383333337,345.50796431840143L418.77104598958334,345.43579539786697L419.13513465625005,345.57551549852L426.9890473229167,345.3798799801061L427.58150410416664,345.4441559430713L428.76072878124995,345.54077726175643L429.31580145833334,345.07152744338117L431.22157807291666,345.55626021249543L431.67872065104166,345.57584568165896L431.6823777916667,345.5437724963661L434.68854738541665,345.470011293425L434.74137275,345.55437343767017L437.575656734375,345.5501938436837L438.3066785104167,342.415658650003L438.90888766666666,345.53018863911285L439.9024108697917,345.325122523572L440.659845328125,345.5210719445989L441.3896480572917,345.55708025168576L441.65824471875,345.5549484537393L442.06581272395835,345.4863407154351L444.73511903124995,345.5323374113805L445.0593855,345.5032290024612L445.4986487239583,345.55032791671255L445.77537236458335,345.3324270856283L446.30525140624997,345.56188913313764L447.3430666458333,345.53912940786876L449.383344765625,345.5143605783687L449.8916873125,345.2245180772837L452.754009375,345.48863565080575L453.23065670312496,345.5758886907136L453.70608498437497,345.55283928762583L454.1490053489583,345.5587299092625L456.1596199947916,345.5745924195746L456.50704835416667,345.53758690013655L456.682997453125,345.56696655531573L459.2413704947917,345.53011713444994L459.49005605729167,345.5600008457137L461.48116595312496,345.1943327088484L462.91313968229167,345.3347953257792L463.31339340625,345.5730837819083L464.99324,345.5000777041029L465.75229985416667,345.5039213833267L467.3931369479167,345.5776026953437L470.00149091145835,345.5768015270268L470.346074828125,345.491792720969L477.0488008958333,345.5680741186131L478.00737808854166,345.5762558543891L479.86886266666664,345.5726397109854L480.91602393229164,345.5589967373771L480.9716937395834,345.57415557233713L481.01923656770833,345.581008804515L481.673458390625,345.561396715312L482.12613113020836,345.57537075068797L482.245191375,343.2132873503385L482.85227671875,345.5813942249614L483.6625365416666,345.53931593431815L484.991703984375,345.3931607033058L485.3614815364583,345.57795497947745L485.5983829791667,345.45024519730396L486.1209477395833,345.5758669910843L486.9035758333333,345.5807803606L487.20874390104166,345.5653594933738L488.93897776562505,344.72758129982685L488.95685711979166,345.5672077960474L491.31246203125,345.5512679637288L491.5924364635417,345.54567872781735L492.4794962395833,345.5821715836899L492.98946418229167,345.578179492779L498.0094992135417,345.58079458117015L498.3215752135416,345.5720077679897L500.98966247395833,345.5773785177783L502.01975708333333,345.57843662561845L502.065674515625,345.5697920556425L502.3594648125,345.5827771558253L502.4529250729167,345.5832090620737L503.83776232291666,345.5705688536201L504.11692405729167,345.57988190602816L504.8723267708333,345.1715008485183L508.9662925260417,345.5647187551617L510.45637415625,345.542636411566L510.638012140625,345.5754282160425L511.08621504166666,345.5812271640671L511.77822731770834,345.58244737751187L511.97043037500003,345.5780747238933L512.0638906354167,345.5733571577712L513.2146708854167,345.582910520828L514.3532606666666,345.56364124918156L516.0168533020834,345.5818362560191L516.3289293020833,345.23125680244084L516.5073164947917,345.448896223621L518.1648138958334,345.5695007732546L518.1855376927083,345.5318650698641L518.31678840625,345.56555630263665L518.3602677447917,345.5626329334277L518.60935965625,345.55762324602387L519.2619560833333,345.5799633434817L519.685778046875,345.5820545570852L519.8731049166666,345.58230037691015L519.939339796875,345.53669169533026L520.509853734375,345.50030218302726L520.7272504270834,345.58108066768347L521.4546150625,345.5832260462937L522.6708174947917,344.83100312984124L523.2409250833333,345.15787976026576L523.3010647291667,345.58105604509564L523.5956677239583,345.57643904312084L523.9613817864583,345.5826230813247L524.149927703125,345.5800679891451L527.0910814635416,344.6794859348811L528.4161854166666,345.58103989203335L528.940781921875,345.4880936368888L529.11754371875,345.5786983060759L529.5742799479167,345.55668775287603L530.7409078072917,345.57416908393253L530.96074259375,345.5611044766118L531.4503930885417,345.57724320716875L533.0518143333334,345.532265174527L534.3736674947917,345.5078137157232L535.6752032083333,345.58068390855124L535.8986951354167,345.58320263788244L536.1030886614583,345.4653512109623L538.0141478125,345.57160123255034L538.2352016458333,345.501449793579L541.1357205104167,345.58229117017135L541.1852950833334,345.4858388398499L543.11707803125,345.551792819384L543.9188045260416,345.583049887115L544.1455472447917,345.58252576169707L546.5767330625,345.58240865188384L550.4077910416667,345.5813661523718L551.222520703125,345.57905593207585L552.4009326822917,345.57702990352675L552.6260500052083,345.58262911408417L554.6634836822917,345.58279693524014L554.867470859375,345.5831296326334L555.1124992812499,345.5792959146898L557.7269484791667,345.5276321152551L559.7330932864584,345.5783182424521L560.0394804010416,345.5801386937559L560.7509974270833,345.56520386536795L561.2703113958333,345.58192616768594L561.867238015625,344.2839928298684L561.9529776458334,345.5830234719996L562.2764314166667,345.58107171397455L562.5287741197916,345.58310789915697L562.87538978125,345.57903973637684L563.0907547291667,345.5686553207999L564.7929505156251,345.58273253053795L564.8039219375,345.5817444100743L566.5691018125,345.58315782636646L566.8064096041667,345.58276875153837L568.3127451927083,345.58235883898146L569.0027257239583,345.5804560171276L569.8259887135417,345.58312384475596L572.777707546875,345.5806403847309L575.8939977083334,345.5498278662463L576.0284992135416,345.51611321408944L578.5933738385417,345.5679856217707L580.2910997864583,345.581568905549L585.8085059427084,345.56572334745846L588.8768469270833,345.5545138950439L591.246267703125,345.47547026369875L592.1341401770834,343.74773385957815L592.1772131666667,345.5812646573603L592.219067109375,345.5219379510725L592.3673844791667,345.5771131518127L593.6169075260417,345.4885597887158L595.7161062447917,345.5768266322354L597.6011590625,345.58203661674116L600.008776640625,345.5654783886272L600.3176018489584,345.58312977344895L600.9576014583333,345.4161906336952L604.063326546875,345.58251116041015L604.3246089270833,345.52295299583665L606.9829438125,345.5814022560655L607.8379020208333,345.5828007483236L608.7351205208333,345.5771125620421L609.0024981354167,345.58271849173184L611.4755378958333,345.5831358993367L614.2192060625,345.555453088433L614.388653578125,344.6647778328855L615.4366275416667,345.57757537525856L616.300119078125,345.4992096903555L618.817450875,345.58247095873713L619.2827204322917,345.5822161184021L620.0129295104167,345.5776959255305L620.1592151354167,345.47389649678524L621.2872398437501,345.58153523415683L621.8455633125,345.5632976035576L623.592457484375,345.57042398613737L624.818818640625,343.34270881868724L625.0301200989584,345.58157595031645L626.3873256197917,345.56982678647876L627.4913757395833,345.57832854267735L627.9749310000001,345.51534254240414L628.4434513489583,345.57767444913003L628.7750320989583,345.5824768572245L629.7762759322916,345.52105295050313L630.5186754791667,345.5810135211172L630.80555784375,345.5511996414162L631.4780653697917,345.430761855336L632.0497983541667,345.57585304329973L632.2992966145833,345.58123792994775L632.6495694166667,345.5790647353285L633.9234734010416,345.58139921211693L635.6809326458333,345.5328327758269L639.7988729895833,345.54749755714033L639.95328559375,345.58296790615503L640.6119772552083,345.56103050750244L641.7139956302083,345.57687431659497L641.7883574895833,345.5823028728318L644.3182861041668,345.58106875797824L644.625892265625,345.52476297101083L646.9465511666666,345.5745869343955L648.0863599947917,345.58179747257475L648.2387408541667,345.4818572087729L648.8474515937501,345.58261320958724L650.5175458125,345.5828297770581L650.682117140625,345.5822200768076L651.5545483541666,345.5753286961598L652.052325828125,345.5796873303932L652.3355510520832,345.4662666920908L653.4245662604167,345.5619508621631L653.4375694270833,345.5789344245986L654.9800700729166,345.58224571865827L655.6769585364584,345.5717946826655L656.709084890625,345.56120926915975L659.1199532604168,345.58179207032515L661.2715709947918,345.57432470479506L663.216357109375,345.5789538272031L663.5499696041666,345.58259762090324L663.6450552604166,345.58205555313225L665.6097524739583,345.5825469978476L665.822679328125,345.55171677156767L666.9238850052084,345.58262133874456L666.9543611770832,345.58215552460695L667.2331165625001,345.570834201281L668.4858904010417,345.58236759290054L670.0019783645834,345.5820949414151L670.1328227291667,345.57399698253096L670.26854328125,345.58083334530517L673.115017734375,345.58153428242065L673.5038936875,345.5832531522885L674.4283375677082,345.57976555558366L675.8013906979166,345.5735392017855L675.9452382291666,345.5664868240317L676.3901903385416,345.5702720235491L677.5393451927083,345.5695730074294L677.6210213333333,345.5825579925936L678.61170009375,345.5825881544935L678.9887919270834,345.5690702951825L681.6438760208333,345.5809691345174L683.1266433697916,345.5823116501899L684.8463121614583,345.5419124822145L685.46274353125,345.5721041323095L685.6707941979166,345.58308924369936L688.5002019947916,345.5792444247249L689.7436298072917,345.58272805334866L690.4128865416667,345.5824161876989L690.81679740625,345.5821025428037L691.0585750364584,345.5721329949059L692.319882203125,345.57980172446014L692.9505357864583,345.58178442194696L694.0793731927083,345.5688893065942L694.3650365104166,345.5823991104134L694.7961727552083,345.5831406468561L695.2407185156251,345.5831775753803L696.01481328125,344.5234182717492L697.2147617552083,345.5591375179862L697.7836502968751,345.5830316989311L697.78486934375,345.5831673681299L697.8246915416667,345.5820713653241L699.095344734375,345.5825862962808L699.9307981927084,345.5832499387767L700.9511404270833,345.5820154576604L701.20795296875,345.582795485313L701.3891846041666,345.58303177184325L703.5505547135417,345.582219412925L704.326274875,345.3636294489549L704.8082047395834,345.5830332535526L704.9865919322917,345.58302159843987L706.0573214375,345.5760242446426L706.5307179739584,345.5118555792995L706.70829246875,345.56754186604695L707.6741839427084,345.5830674139276L708.9895355208333,345.2591140190537L710.2045189062501,344.7319981021392L711.4601371875,345.56152226457067L712.0091146302084,345.5830927745379L713.426459796875,345.5210265559247L713.7235008854167,345.55338029790596L714.5910559114583,345.4318106951611L715.9832074427082,345.58116786153914L717.9267745104166,345.583276371025L718.1937457760416,345.57481418492915L718.63057090625,345.5806122741924L719.2628498854166,345.57972139578425L719.5001576770833,345.5801500889186L720.1206525364582,345.5828906944235L720.4623920104166,345.57974397203327L721.5554707083332,345.5764093648462L722.2365115625,345.5816303323226L722.296244859375,345.5131281194267L723.0463650364584,345.58233973595L724.1325358020833,345.44705323200805L725.5429730364583,345.57892898897626L725.7664649635416,345.5133345114573L726.426375671875,345.57963425952164L727.4812575677083,345.5791955670745L729.583707078125,345.5777614548038L730.2606844427083,345.57183727204995L731.0010522447916,345.58160220961815L731.0075538281251,345.58236135744926L733.3282127291667,345.5827956247194L733.5395141875,345.57260475692027L736.032465046875,345.581414536777L736.8922994427083,345.5749966423632L737.7423814635416,345.5516842265882L738.0942796614584,345.5618123906331L738.9931235572916,345.5816476379154L739.8046024270833,344.6992882547929L741.2763983541666,345.5677863302031L742.998098890625,345.5832278319919L745.0156214687499,345.57927853319916L745.7511130833334,345.56925998612394L749.4180060833334,345.5818451481168L749.7292693854166,342.8264735541743L750.4700435364583,345.4976599821537L751.8959220312499,345.5825457974903L752.1888996302083,345.5832747307255L752.4989438854167,345.53561936825923L753.135692703125,345.5808499037511L753.2775084895834,345.58252945552056L753.3973814322917,345.5228712547919L753.8874382760417,345.57269293499195L755.2344850729166,345.5312377396692L756.8078682395833,345.5831187289787L758.3629657031249,345.431450485957L759.6039554218751,345.57919916596995L759.7421140677084,345.5734844696449L760.44875490625,345.5829460496795L760.7246658489582,345.3365229527262L761.2488560052084,345.577143656034L762.2541633281251,345.55733994719236L765.969818203125,345.5617309996112L767.8776265625,345.5808466410383L768.9739560520834,345.5260764423786L769.7951872968749,345.56285645871844L770.25476796875,345.5795896842934L770.5103614635417,345.58086577018753L771.3108689114583,345.5796465784053L774.9196540104167,345.34383045783153L776.2313484479166,345.5799895425116L776.7652909791667,345.5827957529644L777.4377985052083,345.56792479637556L777.8461792083334,345.5776697010525L778.9644515416667,345.58322534338794L780.2639555104167,345.5818976613627L781.327370734375,345.56899786099467L783.0348490572917,345.5631665682269L784.0527531979168,345.5760541858808L784.1222388697917,345.5806912844787L784.3432927031249,345.5810332433855L784.44447359375,345.57069378855306L784.8561050885417,345.58280930373644L786.062148796875,345.57838974666856L786.2706058125,345.57939955760924L789.1211437552083,345.5731542516823L789.5299308072917,345.58228886778903L789.855822671875,345.4023567887113L790.414146140625,345.5830155047389L791.6600120468751,345.58296503576696L792.0627038645833,345.578516332602L793.6007346718751,345.2654280593736L796.105876,345.57688404714025L796.346028234375,345.5789371234353L796.4106377187501,345.5736232429802L796.6674502604167,345.57739772215564L797.0607960520833,345.55091465854633L797.8292019322917,345.576374221483L798.7564902552084,345.5331302059371L799.7053150729167,345.575863512286L803.4323477187501,345.5824241104254L803.8606395208333,345.57921476921956L805.6160670208333,345.582974405407L805.6262257447917,345.58257469111555L805.9078255729166,345.50198304263876L806.3015777135416,345.5817981238449L806.79204090625,345.5824343394407L807.3117612239583,345.5809806225433L807.7680911041667,345.58329039566655L808.3162558489583,345.5014854887639L808.9026173958333,345.57040333746943L809.8087755729166,345.58290630838815L810.2143118333333,345.5831294461257L811.7486855000001,345.5826004657316L812.2379296458333,345.5815465192677L814.840188375,345.58320406756553L816.9141934583333,345.58103916720927L817.2055456614584,345.57772064410676L818.2380783645834,345.57340662706866L820.5229785572917,345.579697049777L821.4059748437501,345.5809600803555L825.6681690677084,345.5597142323804L828.181437375,345.571073328482L828.2988722239584,345.5257893700868L832.4220951041667,345.5699106633771L833.23072953125,345.5541226963189L834.9950967083333,345.5665785764436L836.2694070416667,345.57992324086655L837.4392856927084,345.5644266879013L838.6168849739583,345.577977832307L839.1317291041667,345.58258529336945L840.8639947135417,345.58136075335904L842.6754983697916,345.5194222155889L843.1988758281251,345.57709331391186L845.8657440416666,345.5783509383342L847.3676097916666,345.5829696711976L848.9743135729167,345.58315398604907L849.9369542552084,345.58325316075025L850.288852453125,345.5750358100959L850.639937953125,345.5803541720933L851.9890164947916,345.5577903694222L852.1877211354166,345.581806682662L853.343783921875,345.58175823686884L853.6794281614583,345.5830345344397L853.6985265625001,345.5790004780132L854.5644561927082,345.5808952363948L855.6457507708334,345.5806759912939L855.87574428125,345.562370559175L859.324427890625,345.57341715811253L859.4877801718751,345.58302074302696L859.882751359375,345.56845732395965L860.37646534375,345.5831689052279L860.380122484375,345.4243441939731L861.7913724166667,345.5666916284587L862.862101921875,345.5820126710948L863.9978472604167,345.58256652919937L867.5318641510416,345.57056128973403L868.0491463750001,345.5832323111554L869.2438123125,345.5828588591444L869.4469867916666,345.5830445566334L870.1832911041668,345.58327110709354L870.5327512083334,345.576871493643L871.19672540625,345.5831096119081L871.7339187291667,345.5809122417448L872.2942739427083,345.58174822036744L872.5413341093749,345.5831317630039L872.9212703854167,345.5760235901356L873.2910479375,345.5828473942784L873.3085209427084,345.5679411545852L873.8132063489584,345.58280140115636L874.4609265885417,345.574890648844L875.3821196770833,345.55270337161966L875.959541546875,345.5813151611002L875.98026534375,345.5747456081357L877.0249885156251,345.576109993538L877.5873754739583,345.5741361371411L878.2533814166667,345.58282937390686L878.952301625,345.5651818121441L879.2469046197917,345.58187725367026L879.8328598177084,345.58242378434386L880.321291265625,345.576102512693L881.0080210052083,345.5680978826628L881.6821539270834,345.5721227344154L883.3177084843751,345.55624986182045L883.7598161510417,345.5830848760596L884.6525648125,345.55777633279257L884.84029803125,345.5829377784649L886.219040046875,345.58178714199033L886.6684619947916,345.58057179521336L887.85622,345.5640249402741L888.09271509375,345.58256092258375L888.403572046875,345.5806836460341L889.4121301614583,345.56855633220187L889.5133110520834,345.58179895380977L889.883494953125,345.54530333548024L889.9550123697917,345.57808070553335L891.2719893437501,345.5803408663148L894.69994915625,345.5807017467681L894.8336379635416,345.58311932903183L895.1599361770833,345.56896478473055L895.691034265625,345.5799512016185L897.6520743385416,345.27624942219455L897.7272488958333,343.1495140487241L898.26444221875,345.5826594422338L899.7191714895832,345.5832065465777L901.0950690625,345.57849282883717L902.0016335885416,345.5828199703918L902.904134625,345.58150379806665L903.2609090104168,345.5723102591442L905.0748507604167,345.35494683989117L905.4746981354166,345.58224852497966L906.1130723489583,345.44376400322653L907.6133127031251,345.58305911561854L911.6902118020834,345.5758527303329L912.7694746354166,345.58302091064394L913.947480265625,345.5307234882769L915.0779430677082,345.5788149632369L915.5923808489583,344.8410915591521L917.9459540156249,345.5782887999071L919.8387274635417,345.56395268913394L920.3836414166667,345.58240932620237L921.6502311197916,345.4844016961315L923.4857093645834,345.5792015844312L923.5677918541667,345.5719979986026L923.8949027656249,345.541678731257L924.5913848802084,345.57684557588146L925.035930640625,345.5420739998902L925.9420888177084,345.5666237383172L926.7324375416667,345.5733716837185L927.1018087447916,345.58193199116835L930.7752033281249,345.5802257547904L930.9255524427083,345.57853406099025L931.0405491979167,345.5819703546076L933.9930807291666,345.5822060498884L935.6660193906249,345.57233194716565L936.5884315260417,345.58227817189066L938.1593765989583,345.57974632620466L940.0501183020833,345.5790065618921L941.7685680468751,345.5790272659208L944.196909421875,345.5789445908865L945.0685279375001,345.5793299231575L946.7443110416667,345.5803377629875L946.7670665833333,345.58121655221436L949.2949634531251,345.58154797427335L949.49366809375,345.5832221637163L950.3153056875001,345.5826759803659L955.1114424427083,345.4109453773581L955.7238103229166,345.5795326265547L956.1195942083333,345.5828777625813L957.3646474166666,345.564409524282L957.5511615885417,345.5830323875921L957.6852567447917,345.582860819261L958.2313897447916,345.58298893459107L961.1786387395833,345.58307490121825L961.3619021197917,345.581178532994L964.5387382760416,345.578586306808L966.4241974427083,345.5832287656047L967.4876126666667,345.577734848158L968.585161203125,345.58216861162106L968.6286405416666,345.5801194887088L969.4445892499999,345.57801232027026L970.0817444166667,345.5546547560154L970.6433186770832,345.58311364162125L971.4324483541666,345.57791855969174L973.2780853229166,345.5820671408299L974.1765228697916,345.58301198101583L974.40123384375,345.5830738201768L976.1846994218749,345.5500258005825L978.10226015625,345.58097820743046L978.289993375,345.5792214200997L978.837345421875,345.5812121639818L978.915364421875,345.5820063125328L979.71140203125,345.57779034597354L980.4302333385417,345.5808291968204L980.9609250781251,345.094184349445L981.221801109375,345.5711537310466L981.814257890625,345.55881505231486L984.5172911614584,345.5398296963928L984.7533799062501,345.5815650606554L986.1816964947917,345.57982708459605L986.29425515625,345.57421004017476L986.35764559375,345.56814170159174L987.0590038958334,345.58150062364086L989.389415171875,345.55040722188414L989.440615140625,345.5704166436943L989.4621516354167,345.45761390640047L991.2370838854167,345.56280604114494L994.8539959635417,345.27771208900595L994.887316578125,345.552663833327L996.647620265625,343.29251468830626L996.8751756822917,345.5777951485189L999.1844568125,344.35822589929495L1001.6843156041667,345.56102628579856L1002.2658009635417,345.46047803603204L1002.7026260937499,345.58261228396884L1002.7542324114584,345.5824504273201L1003.6575461458333,345.5793851004164L1004.5003138854167,345.58223002522413L1005.5592592708333,345.5353154341535L1006.8108140625,345.58304466286245L1006.9587250833334,345.42066351109287L1010.4537324739583,345.0682112842721L1012.4785693333333,345.5806713063902L1012.5679661041667,345.5427965970119L1012.6984041197917,345.5618617242074L1012.7114072864583,345.5754108470527L1015.384370734375,344.92149308797644L1015.5253738229167,345.57986847524165L1015.6911641979167,345.56219974803616L1016.4717605468751,345.5830431089944L1016.7525476770834,345.5734980874972L1018.069931,345.58287079424184L1020.9001514947917,345.5797380656213L1021.0801640833333,345.5777140619811L1024.142003484375,345.58192927302235L1024.6109301822917,345.5437253147179L1025.4650756927083,345.57014652518654L1028.5789277604167,345.5786145608826L1028.7467498802082,345.4620157791678L1028.8495561666666,345.56304384058075L1029.8780253802083,345.58150821743965L1030.2433330937502,345.32857880610453L1032.0966906927083,345.58047997538637L1032.1218843281251,345.58052536807867L1032.9622139739583,345.5742587987115L1033.0926519895834,345.5811139586937L1033.1219091145833,345.0131736951844L1033.9715847864584,345.4932116134972L1034.872054078125,345.5728030725313L1034.9102508802084,345.46905391670725L1035.4710124427083,345.58297622461043L1035.7298567291666,345.4384594715954L1037.5263254739584,345.5772278887591L1039.0554166041668,345.57088544658706L1039.4463243020834,345.5780966806823L1039.5576639166666,345.5717814719826L1040.6483045208333,345.5820382446375L1042.3147415989583,345.5236762572874L1042.4090145572916,345.58103111489845L1042.532544640625,345.5831610077402L1043.6044931927083,345.5810950936242L1043.9275406145834,345.58301426135426L1044.3322641770833,345.5793402211505L1044.53543865625,343.5309745815078L1045.7646442552084,345.5759154951402L1046.3164661406252,345.5831024828579L1049.36286428125,345.571995061804L1049.554254640625,345.58298766843706L1051.4864439374999,345.57737414383234L1054.3235723645832,345.5795229107425L1056.8461866979167,345.57786612948695L1057.1846753802083,345.56373119611857L1058.2549985364583,345.5829181658578L1058.6662236822917,345.5684090940288L1058.7609029895832,345.5615149855246L1060.4224638802084,345.5811394974127L1061.45580928125,345.57588066117216L1063.40140809375,344.70122906707064L1063.756150734375,345.548123919415L1064.19622665625,345.5826799190714L1065.66395909375,345.58208979822257L1067.3730628125,345.5772543217329L1067.47546275,345.5239783662741L1067.5087833645835,345.50111114292366L1069.197975984375,345.5759639081187L1072.830735671875,345.5818735004121L1073.7173890989582,345.5677239404203L1073.8929318489584,345.5787794810123L1076.1888034635417,345.5826417737267L1076.2400034322916,345.5743833407617L1077.82029453125,345.58239434698896L1080.7293467239583,345.58209029111185L1082.6566598333334,345.5339027420296L1082.8699930364583,345.5816104783493L1082.9614215520833,345.5815526827277L1083.5124307395834,345.5825949955646L1084.8229061302084,345.58317904383546L1087.185012625,345.58112103370865L1087.594612375,345.5823148314242L1089.490230265625,345.447237072568L1090.8770992604166,345.55337156519363L1092.620742640625,345.5812886558003L1094.8134016197916,345.5801486432886L1096.4847148854167,345.5629575331668L1096.6756988958334,345.5832390653975L1098.9260594270834,345.58212170074944L1099.2105036979167,345.58220870910196L1101.8103243333335,345.57814936179625L1102.02081309375,345.58254797592474L1102.0817654375,345.5819693142496L1103.4548185677083,345.5805130246398L1103.6685581197917,345.5804635517707L1105.4918458958332,345.58252358822944L1105.8920996197917,345.5793449335114L1107.1660036041667,345.5820492855361L1108.997418359375,345.58176453125253L1110.0218240833333,345.5818264448882L1111.1652900520833,345.5746058552722L1111.42697878125,345.58332605426415L1111.4529851145833,345.58186399990416L1112.2270798802083,345.5124143800255L1112.2868131770833,345.5828736875667L1112.866673140625,345.5689278948249L1112.8674858385416,345.5772445434166L1114.5798403489584,345.5832387473382L1116.07886165625,345.5828428317041L1117.5811337552084,345.57965975471103L1118.7798631822916,345.5822439776965L1119.0984407656251,345.5759644282419L1120.04320209375,344.76720594095485L1120.3532463489585,345.5809879107418L1122.1090801979167,345.50286172851065L1122.7088512604166,345.07719547014494L1123.2813969427084,344.56242435825453L1123.29074296875,345.2946537080813L1125.4598337083335,344.78620277976853L1125.7211160885417,345.4250448253767L1125.9750841875,345.4188369062628L1126.0624492135416,343.702098426477L1126.1355920260416,345.513342733422L1126.8580804739584,345.56707514989733L1127.52327371875,345.4847256101116L1127.5744736875,345.5169215953767L1127.6996291666667,338.9452387384663L1128.0848479791666,326.12733909165644L1128.84472053125,345.39765351057457L1133.5031049895833,345.5755670893844L1133.898888875,345.50191157369244L1134.4007298385418,345.14948252695467L1135.1878277708333,345.50737135830497L1135.2524372552084,345.5707551104091" style="fill: none;" fill="none"></path></g></g></g></g></g></g><g transform="translate(61, 377)" clip-path="url(#clip_1)"><clipPath id="clip_1"><rect width="1219" height="23"></rect></clipPath><g><g><line x1="0" y1="0" x2="0" y2="5" style="visibility: inherit;" fill="rgb(0, 0, 0)" stroke="rgb(204, 204, 204)" stroke-width="1px"></line><line x1="81.26979166666666" y1="0" x2="81.26979166666666" y2="5" style="visibility: inherit;" fill="rgb(0, 0, 0)" stroke="rgb(204, 204, 204)" stroke-width="1px"></line><line x1="162.53958333333333" y1="0" x2="162.53958333333333" y2="5" style="visibility: inherit;" fill="rgb(0, 0, 0)" stroke="rgb(204, 204, 204)" stroke-width="1px"></line><line x1="243.80937500000002" y1="0" x2="243.80937500000002" y2="5" style="visibility: inherit;" fill="rgb(0, 0, 0)" stroke="rgb(204, 204, 204)" stroke-width="1px"></line><line x1="325.07916666666665" y1="0" x2="325.07916666666665" y2="5" style="visibility: inherit;" fill="rgb(0, 0, 0)" stroke="rgb(204, 204, 204)" stroke-width="1px"></line><line x1="406.3489583333333" y1="0" x2="406.3489583333333" y2="5" style="visibility: inherit;" fill="rgb(0, 0, 0)" stroke="rgb(204, 204, 204)" stroke-width="1px"></line><line x1="487.61875000000003" y1="0" x2="487.61875000000003" y2="5" style="visibility: inherit;" fill="rgb(0, 0, 0)" stroke="rgb(204, 204, 204)" stroke-width="1px"></line><line x1="568.8885416666667" y1="0" x2="568.8885416666667" y2="5" style="visibility: inherit;" fill="rgb(0, 0, 0)" stroke="rgb(204, 204, 204)" stroke-width="1px"></line><line x1="650.1583333333333" y1="0" x2="650.1583333333333" y2="5" style="visibility: inherit;" fill="rgb(0, 0, 0)" stroke="rgb(204, 204, 204)" stroke-width="1px"></line><line x1="731.428125" y1="0" x2="731.428125" y2="5" style="visibility: inherit;" fill="rgb(0, 0, 0)" stroke="rgb(204, 204, 204)" stroke-width="1px"></line><line x1="812.6979166666666" y1="0" x2="812.6979166666666" y2="5" style="visibility: inherit;" fill="rgb(0, 0, 0)" stroke="rgb(204, 204, 204)" stroke-width="1px"></line><line x1="893.9677083333332" y1="0" x2="893.9677083333332" y2="5" style="visibility: inherit;" fill="rgb(0, 0, 0)" stroke="rgb(204, 204, 204)" stroke-width="1px"></line><line x1="975.2375000000001" y1="0" x2="975.2375000000001" y2="5" style="visibility: inherit;" fill="rgb(0, 0, 0)" stroke="rgb(204, 204, 204)" stroke-width="1px"></line><line x1="1056.5072916666668" y1="0" x2="1056.5072916666668" y2="5" style="visibility: inherit;" fill="rgb(0, 0, 0)" stroke="rgb(204, 204, 204)" stroke-width="1px"></line><line x1="1137.7770833333334" y1="0" x2="1137.7770833333334" y2="5" style="visibility: inherit;" fill="rgb(0, 0, 0)" stroke="rgb(204, 204, 204)" stroke-width="1px"></line><line x1="1219.046875" y1="0" x2="1219.046875" y2="5" style="visibility: inherit;" fill="rgb(0, 0, 0)" stroke="rgb(204, 204, 204)" stroke-width="1px"></line></g><g transform="translate(0, 8)"><text x="0" y="0" dx="0em" dy="0.95em" style="text-anchor: middle; visibility: hidden; font-family: Roboto, sans-serif; font-size: 12px; font-weight: 200;" fill="rgb(33, 33, 33)" stroke="none" stroke-width="1px">-200k</text><text x="81.26979166666666" y="0" dx="0em" dy="0.95em" style="text-anchor: middle; visibility: inherit; font-family: Roboto, sans-serif; font-size: 12px; font-weight: 200;" fill="rgb(33, 33, 33)" stroke="none" stroke-width="1px">0</text><text x="162.53958333333333" y="0" dx="0em" dy="0.95em" style="text-anchor: middle; visibility: inherit; font-family: Roboto, sans-serif; font-size: 12px; font-weight: 200;" fill="rgb(33, 33, 33)" stroke="none" stroke-width="1px">200k</text><text x="243.80937500000002" y="0" dx="0em" dy="0.95em" style="text-anchor: middle; visibility: inherit; font-family: Roboto, sans-serif; font-size: 12px; font-weight: 200;" fill="rgb(33, 33, 33)" stroke="none" stroke-width="1px">400k</text><text x="325.07916666666665" y="0" dx="0em" dy="0.95em" style="text-anchor: middle; visibility: inherit; font-family: Roboto, sans-serif; font-size: 12px; font-weight: 200;" fill="rgb(33, 33, 33)" stroke="none" stroke-width="1px">600k</text><text x="406.3489583333333" y="0" dx="0em" dy="0.95em" style="text-anchor: middle; visibility: inherit; font-family: Roboto, sans-serif; font-size: 12px; font-weight: 200;" fill="rgb(33, 33, 33)" stroke="none" stroke-width="1px">800k</text><text x="487.61875000000003" y="0" dx="0em" dy="0.95em" style="text-anchor: middle; visibility: inherit; font-family: Roboto, sans-serif; font-size: 12px; font-weight: 200;" fill="rgb(33, 33, 33)" stroke="none" stroke-width="1px">1M</text><text x="568.8885416666667" y="0" dx="0em" dy="0.95em" style="text-anchor: middle; visibility: inherit; font-family: Roboto, sans-serif; font-size: 12px; font-weight: 200;" fill="rgb(33, 33, 33)" stroke="none" stroke-width="1px">1.2M</text><text x="650.1583333333333" y="0" dx="0em" dy="0.95em" style="text-anchor: middle; visibility: inherit; font-family: Roboto, sans-serif; font-size: 12px; font-weight: 200;" fill="rgb(33, 33, 33)" stroke="none" stroke-width="1px">1.4M</text><text x="731.428125" y="0" dx="0em" dy="0.95em" style="text-anchor: middle; visibility: inherit; font-family: Roboto, sans-serif; font-size: 12px; font-weight: 200;" fill="rgb(33, 33, 33)" stroke="none" stroke-width="1px">1.6M</text><text x="812.6979166666666" y="0" dx="0em" dy="0.95em" style="text-anchor: middle; visibility: inherit; font-family: Roboto, sans-serif; font-size: 12px; font-weight: 200;" fill="rgb(33, 33, 33)" stroke="none" stroke-width="1px">1.8M</text><text x="893.9677083333332" y="0" dx="0em" dy="0.95em" style="text-anchor: middle; visibility: inherit; font-family: Roboto, sans-serif; font-size: 12px; font-weight: 200;" fill="rgb(33, 33, 33)" stroke="none" stroke-width="1px">2M</text><text x="975.2375000000001" y="0" dx="0em" dy="0.95em" style="text-anchor: middle; visibility: inherit; font-family: Roboto, sans-serif; font-size: 12px; font-weight: 200;" fill="rgb(33, 33, 33)" stroke="none" stroke-width="1px">2.2M</text><text x="1056.5072916666668" y="0" dx="0em" dy="0.95em" style="text-anchor: middle; visibility: inherit; font-family: Roboto, sans-serif; font-size: 12px; font-weight: 200;" fill="rgb(33, 33, 33)" stroke="none" stroke-width="1px">2.4M</text><text x="1137.7770833333334" y="0" dx="0em" dy="0.95em" style="text-anchor: middle; visibility: inherit; font-family: Roboto, sans-serif; font-size: 12px; font-weight: 200;" fill="rgb(33, 33, 33)" stroke="none" stroke-width="1px">2.6M</text><text x="1219.046875" y="0" dx="0em" dy="0.95em" style="text-anchor: middle; visibility: hidden; font-family: Roboto, sans-serif; font-size: 12px; font-weight: 200;" fill="rgb(33, 33, 33)" stroke="none" stroke-width="1px">2.8M</text></g><line x1="0" y1="0" x2="1219.046875" y2="0" fill="rgb(0, 0, 0)" stroke="rgb(204, 204, 204)" stroke-width="1px"></line></g></g></g></g></svg>