<svg viewBox="0 0 1492 400" xmlns="http://www.w3.org/2000/svg"><g><g><g><g><g><line x1="50" y1="359.0000000000005" x2="45" y2="359.0000000000005" style="visibility: inherit;" fill="rgb(0, 0, 0)" stroke="rgb(204, 204, 204)" stroke-width="1px"></line><line x1="50" y1="330.0000000000005" x2="45" y2="330.0000000000005" style="visibility: inherit;" fill="rgb(0, 0, 0)" stroke="rgb(204, 204, 204)" stroke-width="1px"></line><line x1="50" y1="301.0000000000004" x2="45" y2="301.0000000000004" style="visibility: inherit;" fill="rgb(0, 0, 0)" stroke="rgb(204, 204, 204)" stroke-width="1px"></line><line x1="50" y1="272.0000000000004" x2="45" y2="272.0000000000004" style="visibility: inherit;" fill="rgb(0, 0, 0)" stroke="rgb(204, 204, 204)" stroke-width="1px"></line><line x1="50" y1="243.00000000000034" x2="45" y2="243.00000000000034" style="visibility: inherit;" fill="rgb(0, 0, 0)" stroke="rgb(204, 204, 204)" stroke-width="1px"></line><line x1="50" y1="214.00000000000028" x2="45" y2="214.00000000000028" style="visibility: inherit;" fill="rgb(0, 0, 0)" stroke="rgb(204, 204, 204)" stroke-width="1px"></line><line x1="50" y1="185.00000000000026" x2="45" y2="185.00000000000026" style="visibility: inherit;" fill="rgb(0, 0, 0)" stroke="rgb(204, 204, 204)" stroke-width="1px"></line><line x1="50" y1="156.00000000000023" x2="45" y2="156.00000000000023" style="visibility: inherit;" fill="rgb(0, 0, 0)" stroke="rgb(204, 204, 204)" stroke-width="1px"></line><line x1="50" y1="127.00000000000017" x2="45" y2="127.00000000000017" style="visibility: inherit;" fill="rgb(0, 0, 0)" stroke="rgb(204, 204, 204)" stroke-width="1px"></line><line x1="50" y1="98.00000000000014" x2="45" y2="98.00000000000014" style="visibility: inherit;" fill="rgb(0, 0, 0)" stroke="rgb(204, 204, 204)" stroke-width="1px"></line><line x1="50" y1="69.00000000000007" x2="45" y2="69.00000000000007" style="visibility: inherit;" fill="rgb(0, 0, 0)" stroke="rgb(204, 204, 204)" stroke-width="1px"></line><line x1="50" y1="40.00000000000006" x2="45" y2="40.00000000000006" style="visibility: inherit;" fill="rgb(0, 0, 0)" stroke="rgb(204, 204, 204)" stroke-width="1px"></line><line x1="50" y1="10.99999999999999" x2="45" y2="10.99999999999999" style="visibility: inherit;" fill="rgb(0, 0, 0)" stroke="rgb(204, 204, 204)" stroke-width="1px"></line></g><g transform="translate(40, 0)"><text x="0" y="359.0000000000005" dx="0em" dy="0.3em" style="text-anchor: end; visibility: inherit; font-family: Roboto, sans-serif; font-size: 12px; font-weight: 200;" fill="rgb(33, 33, 33)" stroke="none" stroke-width="1px">-6</text><text x="0" y="330.0000000000005" dx="0em" dy="0.3em" style="text-anchor: end; visibility: inherit; font-family: Roboto, sans-serif; font-size: 12px; font-weight: 200;" fill="rgb(33, 33, 33)" stroke="none" stroke-width="1px">-5.5</text><text x="0" y="301.0000000000004" dx="0em" dy="0.3em" style="text-anchor: end; visibility: inherit; font-family: Roboto, sans-serif; font-size: 12px; font-weight: 200;" fill="rgb(33, 33, 33)" stroke="none" stroke-width="1px">-5</text><text x="0" y="272.0000000000004" dx="0em" dy="0.3em" style="text-anchor: end; visibility: inherit; font-family: Roboto, sans-serif; font-size: 12px; font-weight: 200;" fill="rgb(33, 33, 33)" stroke="none" stroke-width="1px">-4.5</text><text x="0" y="243.00000000000034" dx="0em" dy="0.3em" style="text-anchor: end; visibility: inherit; font-family: Roboto, sans-serif; font-size: 12px; font-weight: 200;" fill="rgb(33, 33, 33)" stroke="none" stroke-width="1px">-4</text><text x="0" y="214.00000000000028" dx="0em" dy="0.3em" style="text-anchor: end; visibility: inherit; font-family: Roboto, sans-serif; font-size: 12px; font-weight: 200;" fill="rgb(33, 33, 33)" stroke="none" stroke-width="1px">-3.5</text><text x="0" y="185.00000000000026" dx="0em" dy="0.3em" style="text-anchor: end; visibility: inherit; font-family: Roboto, sans-serif; font-size: 12px; font-weight: 200;" fill="rgb(33, 33, 33)" stroke="none" stroke-width="1px">-3</text><text x="0" y="156.00000000000023" dx="0em" dy="0.3em" style="text-anchor: end; visibility: inherit; font-family: Roboto, sans-serif; font-size: 12px; font-weight: 200;" fill="rgb(33, 33, 33)" stroke="none" stroke-width="1px">-2.5</text><text x="0" y="127.00000000000017" dx="0em" dy="0.3em" style="text-anchor: end; visibility: inherit; font-family: Roboto, sans-serif; font-size: 12px; font-weight: 200;" fill="rgb(33, 33, 33)" stroke="none" stroke-width="1px">-2</text><text x="0" y="98.00000000000014" dx="0em" dy="0.3em" style="text-anchor: end; visibility: inherit; font-family: Roboto, sans-serif; font-size: 12px; font-weight: 200;" fill="rgb(33, 33, 33)" stroke="none" stroke-width="1px">-1.5</text><text x="0" y="69.00000000000007" dx="0em" dy="0.3em" style="text-anchor: end; visibility: inherit; font-family: Roboto, sans-serif; font-size: 12px; font-weight: 200;" fill="rgb(33, 33, 33)" stroke="none" stroke-width="1px">-1</text><text x="0" y="40.00000000000006" dx="0em" dy="0.3em" style="text-anchor: end; visibility: inherit; font-family: Roboto, sans-serif; font-size: 12px; font-weight: 200;" fill="rgb(33, 33, 33)" stroke="none" stroke-width="1px">-0.5</text><text x="0" y="10.99999999999999" dx="0em" dy="0.3em" style="text-anchor: end; visibility: inherit; font-family: Roboto, sans-serif; font-size: 12px; font-weight: 200;" fill="rgb(33, 33, 33)" stroke="none" stroke-width="1px">0</text></g><line x1="50" y1="0" x2="50" y2="377" fill="rgb(0, 0, 0)" stroke="rgb(204, 204, 204)" stroke-width="1px"></line></g></g><g transform="translate(50, 0)" clip-path="url(#clip_0)"><clipPath id="clip_0"><rect width="1442" height="377"></rect></clipPath><g><g><g><line x1="112.16666666666663" y1="0" x2="112.16666666666663" y2="377" fill="rgb(0, 0, 0)" stroke="rgb(66, 66, 66)" stroke-width="1px" opacity="0.25"></line><line x1="232.33333333333326" y1="0" x2="232.33333333333326" y2="377" fill="rgb(0, 0, 0)" stroke="rgb(66, 66, 66)" stroke-width="1px" opacity="0.25"></line><line x1="352.4999999999999" y1="0" x2="352.4999999999999" y2="377" fill="rgb(0, 0, 0)" stroke="rgb(66, 66, 66)" stroke-width="1px" opacity="0.25"></line><line x1="472.66666666666646" y1="0" x2="472.66666666666646" y2="377" fill="rgb(0, 0, 0)" stroke="rgb(66, 66, 66)" stroke-width="1px" opacity="0.25"></line><line x1="592.8333333333333" y1="0" x2="592.8333333333333" y2="377" fill="rgb(0, 0, 0)" stroke="rgb(66, 66, 66)" stroke-width="1px" opacity="0.25"></line><line x1="712.9999999999999" y1="0" x2="712.9999999999999" y2="377" fill="rgb(0, 0, 0)" stroke="rgb(66, 66, 66)" stroke-width="1px" opacity="0.25"></line><line x1="833.1666666666664" y1="0" x2="833.1666666666664" y2="377" fill="rgb(0, 0, 0)" stroke="rgb(66, 66, 66)" stroke-width="1px" opacity="0.25"></line><line x1="953.3333333333331" y1="0" x2="953.3333333333331" y2="377" fill="rgb(0, 0, 0)" stroke="rgb(66, 66, 66)" stroke-width="1px" opacity="0.25"></line><line x1="1073.4999999999998" y1="0" x2="1073.4999999999998" y2="377" fill="rgb(0, 0, 0)" stroke="rgb(66, 66, 66)" stroke-width="1px" opacity="0.25"></line><line x1="1193.6666666666665" y1="0" x2="1193.6666666666665" y2="377" fill="rgb(0, 0, 0)" stroke="rgb(66, 66, 66)" stroke-width="1px" opacity="0.25"></line><line x1="1313.833333333333" y1="0" x2="1313.833333333333" y2="377" fill="rgb(0, 0, 0)" stroke="rgb(66, 66, 66)" stroke-width="1px" opacity="0.25"></line><line x1="1433.9999999999995" y1="0" x2="1433.9999999999995" y2="377" fill="rgb(0, 0, 0)" stroke="rgb(66, 66, 66)" stroke-width="1px" opacity="0.25"></line></g><g><line x1="0" y1="359.0000000000005" x2="1442" y2="359.0000000000005" fill="rgb(0, 0, 0)" stroke="rgb(66, 66, 66)" stroke-width="1px" opacity="0.25"></line><line x1="0" y1="330.0000000000005" x2="1442" y2="330.0000000000005" fill="rgb(0, 0, 0)" stroke="rgb(66, 66, 66)" stroke-width="1px" opacity="0.25"></line><line x1="0" y1="301.0000000000004" x2="1442" y2="301.0000000000004" fill="rgb(0, 0, 0)" stroke="rgb(66, 66, 66)" stroke-width="1px" opacity="0.25"></line><line x1="0" y1="272.0000000000004" x2="1442" y2="272.0000000000004" fill="rgb(0, 0, 0)" stroke="rgb(66, 66, 66)" stroke-width="1px" opacity="0.25"></line><line x1="0" y1="243.00000000000034" x2="1442" y2="243.00000000000034" fill="rgb(0, 0, 0)" stroke="rgb(66, 66, 66)" stroke-width="1px" opacity="0.25"></line><line x1="0" y1="214.00000000000028" x2="1442" y2="214.00000000000028" fill="rgb(0, 0, 0)" stroke="rgb(66, 66, 66)" stroke-width="1px" opacity="0.25"></line><line x1="0" y1="185.00000000000026" x2="1442" y2="185.00000000000026" fill="rgb(0, 0, 0)" stroke="rgb(66, 66, 66)" stroke-width="1px" opacity="0.25"></line><line x1="0" y1="156.00000000000023" x2="1442" y2="156.00000000000023" fill="rgb(0, 0, 0)" stroke="rgb(66, 66, 66)" stroke-width="1px" opacity="0.25"></line><line x1="0" y1="127.00000000000017" x2="1442" y2="127.00000000000017" fill="rgb(0, 0, 0)" stroke="rgb(66, 66, 66)" stroke-width="1px" opacity="0.25"></line><line x1="0" y1="98.00000000000014" x2="1442" y2="98.00000000000014" fill="rgb(0, 0, 0)" stroke="rgb(66, 66, 66)" stroke-width="1px" opacity="0.25"></line><line x1="0" y1="69.00000000000007" x2="1442" y2="69.00000000000007" fill="rgb(0, 0, 0)" stroke="rgb(66, 66, 66)" stroke-width="1px" opacity="0.25"></line><line x1="0" y1="40.00000000000006" x2="1442" y2="40.00000000000006" fill="rgb(0, 0, 0)" stroke="rgb(66, 66, 66)" stroke-width="1px" opacity="0.25"></line><line x1="0" y1="10.99999999999999" x2="1442" y2="10.99999999999999" fill="rgb(0, 0, 0)" stroke="rgb(66, 66, 66)" stroke-width="1px" opacity="0.25"></line></g></g></g><g><g><line x1="0" y1="10.99999999999999" x2="1442" y2="10.99999999999999" fill="rgb(0, 0, 0)" stroke="rgb(153, 153, 153)" stroke-width="1.5px"></line></g></g><g><g><line x1="112.16666666666663" y1="0" x2="112.16666666666663" y2="377" fill="rgb(0, 0, 0)" stroke="rgb(153, 153, 153)" stroke-width="1.5px"></line></g></g><g><g><g><g><g><path style="fill: none;" stroke="rgb(255, 112, 67)" stroke-width="2px" d="M113.59652983333328,243.00000000000034L114.09137616666662,279.2500000000004L115.37595783333329,290.3469387755106L115.57915966666661,295.2426470588239L116.42272966666661,297.7397640527415L117.48392149999995,299.1076799140713L117.69265099999996,299.88640733229784L119.13645349999994,300.3394538410269L123.81946866666661,277.1701794002617L124.02134866666661,286.7600941876934L124.7255253333333,292.4767965404523L125.86434483333328,295.8935153774831L126.04699816666661,251.47809961099804L129.57340916666658,248.08420016566834L129.8693796666666,269.2604768667352L131.53693249999995,281.9598687580696L131.92627249999993,266.37328296654584L132.38951499999993,280.2253765979567L132.84939283333327,288.5357323583968L135.42877033333326,293.5216217070525L135.6128656666666,296.51303864679744L136.2224711666666,298.3078468116495L137.80458549999992,299.3847165913559L138.41046583333326,300.03083301635974L139.95665033333327,300.418500911967L143.9440206666666,300.6511009439535L144.04147583333327,277.5906369642095L145.52709633333325,263.7543736817565L145.7230881666666,278.65262969841376L146.7631306666666,287.59157979521717L146.97246099999992,292.954948588551L147.0176436666666,296.17296940924217L147.7172539999999,298.1037817377456L149.0393276666666,299.2622690758395L150.6190386666666,299.95736145745303L152.3930591666666,300.3744168787736L154.44658733333327,300.62465012881296L155.22694966666657,300.77479007784547L155.6547429999999,300.86487404690814L156.23719083333324,300.9189244282173L156.3030421666666,300.95135465695654L158.78484433333324,300.9708127941834L158.92712166666658,277.7824876698149L159.82704983333326,240.6694925954595L160.34869333333324,264.8016955597843L160.40457083333325,279.28101733677374L160.50911583333325,287.9686104023895L160.71387983333324,293.18116624155095L160.89893649999993,296.3086997449728L161.81304433333327,298.1852198469991L162.6395506666666,252.91113190797992L165.86410299999991,272.1466791448441L166.40208916666657,283.68800748692684L166.9996779999999,290.6128044921635L167.6851086666666,294.76768269530083L168.57926883333326,274.0606096171729L168.8483219999999,284.8363657703063L169.50755633333324,291.3018194621849L169.8119384999999,295.18109167731143L169.94868816666659,297.50865500638713L170.12160799999992,298.90519300383244L170.63315749999992,299.7431158022996L170.99606083333325,300.24586948137994L171.19998366666658,300.5475216888281L171.54582333333326,300.728513013297L171.7039626666666,300.8371078079784L172.00041383333325,300.90226468478716L172.30155149999993,324.14135881087253L172.7742871666666,314.8848152865237L172.85035266666657,309.3308891719144L174.56477049999992,305.9985335031488L174.84980583333325,303.99912010188945L177.4283421666666,302.7994720611339L177.97870549999993,302.07968323668047L178.44855716666657,301.64780994200845L179.4900416666666,301.38868596520524L179.7985094999999,301.2332115791233L180.30813633333327,301.1399269474742L180.45810433333327,301.0839561684847L181.0178406666666,301.050373701091L182.0243566666666,301.03022422065476L182.82394566666656,301.01813453239305L183.05082033333323,301.01088071943605L183.73168466666658,301.00652843166176L184.29706883333327,301.0039170589972L184.97276599999992,301.0023502353985L185.06060783333325,301.0014101412392L185.4345664999999,301.00084608474367L185.48816083333324,301.0005076508464L185.8690891666666,277.80030459050795L187.30003383333323,287.08018275430493L187.51332966666658,292.6481096525831L188.12053183333327,249.58886579155L191.3536159999999,270.15331947493013L191.7267334999999,282.4919916849583L191.9668264999999,289.89519501097516L192.10117283333327,294.33711700658523L192.4593896666666,273.80227020395125L192.90929366666657,284.68136212237096L193.26630883333326,291.2088172734227L194.01759083333326,295.1252903640538L194.46713433333326,297.4751742184325L194.84061233333324,298.88510453105965L195.6565439999999,276.53106271863595L198.77607066666656,286.31863763118173L199.09547366666658,292.19118257870923L199.14354033333325,295.7147095472257L199.1953321666666,297.8288257283355L200.48063483333323,299.0972954370015L201.47597533333325,299.8583772622011L202.5389696666666,300.3150263573208L205.34870666666657,300.58901581439267L206.12510349999988,300.7534094886358L206.35233866666658,300.8520456931816L206.57392599999991,277.7112274159091L208.11987016666657,263.8267364495456L208.5804689999999,278.69604186972754L209.1472951666666,264.41762512183664L209.58386066666657,255.8505750731021L210.77278966666657,273.91034504386147L211.03992016666658,261.546207026317L211.7907214999999,254.12772421579035L212.00654083333325,272.87663452947436L212.18967483333327,284.1259807176848L212.25276233333324,290.875588430611L215.77028099999993,294.92535305836674L216.0114554999999,297.3552118350202L216.24998633333323,229.21312710101216L216.32677283333322,257.92787626060743L217.94073133333325,275.1567257563647L218.70390983333323,285.494035453819L219.39919416666658,245.29642127229147L219.65887433333324,267.577852763375L221.29770733333325,280.94671165802515L221.39972883333323,288.96802699481526L222.16158549999992,270.5808161968893L222.76434149999992,282.7484897181338L223.21376483333324,290.04909383088045L225.64665916666655,294.4294562985284L225.9288104999999,297.05767377911724L227.75125816666656,298.6346042674705L228.96373983333325,299.58076256048247L229.05194216666658,276.9484575362896L230.2371459999999,286.5690745217739L230.55642883333323,292.34144471306456L231.86095816666653,295.8048668278389L231.9217624999999,297.8829200967035L233.66345816666654,252.72975205802217L234.4062083333332,272.03785123481344L234.64269633333325,283.62271074088824L234.9813259999999,290.5736264445331L235.20964266666658,294.74417586672L236.05465466666655,297.24650552003214L236.6262874999999,298.7479033120195L237.2208721666666,299.64874198721185L237.7176411666666,300.1892451923273L238.31210566666655,300.51354711539653L238.62033316666657,300.7081282692381L238.75912566666656,300.82487696154305L238.92820016666658,277.69492617692595L239.21660016666658,287.0169557061557L239.79171783333322,269.4101734236936L240.56426933333324,282.0461040542163L241.5903724999999,289.62766243253L241.71390383333323,294.1765974595181L241.9613269999999,296.90595847571103L242.3092094999999,298.5435750854268L242.53031616666658,299.5261450512562L242.60866483333322,276.9156870307539L244.12348583333323,286.5494122184525L244.80146616666656,292.3296473310716L245.28057066666656,295.79778839864315L245.8878929999999,274.67867303918604L245.96672233333325,285.2072038235118L246.61045516666655,291.52432229410726L247.12140383333323,295.3145933764645L248.84086866666658,297.5887560258788L249.16051199999993,298.9532536155275L249.99122416666654,299.77195216931665L250.24501616666657,300.2631713015902L250.96505483333323,300.55790278095424L251.91569333333322,300.7347416685727L252.1216589999999,300.8408450011438L252.5910299999999,277.70450700068636L252.7244149999999,287.022704200412L255.33671816666657,292.61362252024736L255.7774894999999,295.9681735121486L257.0232573333332,297.9809041072893L257.7998944999999,275.9885424643737L258.0133104999999,285.9931254786244L258.1510214999999,291.9958752871748L259.62847066666654,295.597525172305L260.7318409999999,297.75851510338316L260.8470808333332,299.05510906203006L262.2747809999999,299.83306543721824L262.6384053333332,277.0998392623311L263.25281749999994,286.65990355739876L264.6414634999999,292.39594213443945L265.05291416666654,295.8375652806638L266.75507499999986,297.90253916839845L267.7736076666666,299.1415235010393L268.0525144999999,299.88491410062375L268.12978166666653,300.3309484603744L268.44521916666656,300.59856907622486L268.73253766666653,300.75914144573505L269.0355979999999,300.8554848674412L269.55652049999986,300.9132909204649L270.73475466666656,277.74797455227906L273.2456371666666,263.8487847313675L273.58066183333324,278.70927083882066L274.05892516666654,264.42556250329255L274.8023963333332,279.05533750197566L275.70424716666656,287.8332025011856L276.4307748333332,293.0999215007115L276.6284489999999,296.2599529004271L276.7571474999999,298.1559717402564L277.12894316666655,299.29358304415393L277.33839366666655,299.97614982649253L277.8899586666666,300.38568989589567L278.22354133333323,300.6314139375376L279.8974629999999,300.77884836252275L280.28908616666655,300.8673090175138L280.3608256666665,300.92038541050846L280.5451613333332,300.95223124630525L280.77083433333326,300.97133874778336L281.0708904999999,300.9828032486701L281.14575433333323,300.98968194920224L281.6634323333332,300.99380916952146L281.87817016666656,300.99628550171303L282.2628236666666,254.59777130102793L283.69509016666655,273.1586627806169L284.4974429999999,261.0951976683703L284.9133398333332,277.05711860102235L285.3601194999999,286.6342711606136L285.6571714999999,292.3805626963683L286.62198966666654,295.82833761782115L286.68399566666653,297.89700257069285L288.6669859999999,299.13820154241586L289.41370166666655,299.8829209254497L292.0923368333332,300.3297525552699L292.1554243333332,300.59785153316216L292.2761918333332,300.75871091989745L295.5794533333332,277.6552265519386L296.1594978333332,286.99313593116335L296.7061359999999,246.19588155869815L296.86427533333324,268.117528935219L297.03166749999986,281.2705173611316L297.3632073333332,265.9623104166791L299.10958949999986,279.9773862500076L299.15657466666653,288.38643175000476L299.90677516666653,293.4318590500031L300.1340103333332,296.459115430002L300.4667518333332,298.27546925800135L301.55389966666655,299.365281554801L302.00296249999985,300.01916893288075L302.7025728333332,300.41150135972856L303.8691508333332,300.64690081583734L304.2592118333332,300.78814048950255L304.4365778333332,300.8728842937017L306.3606864999999,300.9237305762212L307.46573916666654,300.95423834573285L308.23853099999985,300.97254300743987L308.6969668333332,300.98352580446414L309.8931058333332,300.9901154826786L310.3779783333332,300.9940692896073L310.46569999999986,300.99644157376457L311.58769616666655,300.99786494425894L312.0640368333332,300.99871896655554L312.42790149999985,300.99923137993346L314.1682753333332,300.9995388279603L314.6406504999999,300.9997232967763L315.0880309999999,300.99983397806596L316.0893798333332,300.9999003868397L316.5216193333332,300.999940232104L317.6294358333332,300.9999641392626L318.55039316666654,277.7999784835577L318.7504706666665,287.07998709013486L319.8252413333332,292.64799225408103L322.5382441666665,388.788795352449L322.59796699999987,353.67327721146955L322.68040133333324,309.40396632688186L324.0513828333332,306.04237979612924L325.0849363333332,304.0254278776777L328.65689049999986,302.8152567266068L329.34460433333317,302.08915403596427L330.0190998333332,301.65349242157873L330.44689316666654,301.39209545294744L331.8933393333332,301.2352572717686L332.03008899999986,301.1411543630613L332.20000466666653,254.6846926178369L335.8620838333332,273.2108155707023L336.5455918333332,261.1264893424215L338.24667116666654,277.0758936054531L339.3447541666665,286.64553616327197L339.6318323333332,292.38732169796333L340.6524078333332,295.8323930187782L340.9004318333332,297.89943581126704L341.5201313333332,275.9396614867604L341.74280016666654,285.9637968920564L343.53833049999986,291.978278135234L343.8173574999999,295.5869668811406L344.0143106666665,297.75218012868453L346.26635416666653,299.0513080772109L348.0278773333332,299.8307848463267L349.22557849999987,300.29847090779623L349.8958681666665,300.5790825446779L350.24014566666654,300.7474495268069L350.62539999999984,300.8484697160843L351.2193838333332,300.90908182965075L352.45361566666656,300.9454490977906L353.98994649999986,231.36726945867446L354.05916249999984,259.22036167520486L354.6150534999999,252.7322170051231L354.7957841666665,272.03933020307403L356.5875893333332,283.62359812184457L357.3380301666665,290.5741588731069L357.5496436666665,294.7444953238643L357.6076841666665,297.24669719431876L357.7356616666665,298.74801831659147L357.78889549999985,299.64881098995505L359.74400716666656,300.1892865939731L360.4628441666665,300.5135719563841L362.3577523333332,300.70814317383065L363.0936529999999,277.62488590429854L364.11182516666656,286.97493154257927L364.22478183333317,292.5849589255477L365.53255566666655,295.9509753553288L367.6405193333332,297.9705852131974L367.82016849999985,299.1823511279186L368.5617169999998,299.9094106767513L369.99278183333314,300.34564640605095L370.4328321666665,300.60738784363076L372.0248001666665,277.56443270617854L372.64449966666655,263.73865962370724L373.4253426666665,278.6431957742245L373.5479126666665,287.5859174645349L374.1050053333332,292.95155047872106L374.5413304999999,272.9709302872328L375.14300499999985,284.18255817233984L375.6863986666665,290.9095349034041L375.9641038333332,294.94572094204267L377.29603116666647,297.3674325652257L378.2338118333332,298.8204595391356L378.44434383333316,299.6922757234815L380.22232983333316,300.2153654340891L380.34862499999986,300.5292192604536L380.7873534999999,300.7175315562723L381.08933233333323,300.8305189337636L382.24221133333316,300.8983113602583L383.59480733333316,300.93898681615514L385.0490643333332,300.9633920896933L386.37666566666655,277.77803525381614L386.55667533333315,287.06682115228983L386.71926083333324,292.64009269137404L387.0004508333332,272.7840556148246L387.2214373333332,237.67043336889483L388.58556933333324,263.00226002133707L389.3777079999998,278.2013560128024L390.4570449999999,287.32081360768166L392.8769613333332,292.79248816460915L394.5788818333332,296.0754928987657L394.91030149999983,298.0452957392596L395.0363563333332,299.2271774435559L395.4991181666665,299.9363064661337L395.7382498333332,300.36178387968033L395.8979513333332,300.6170703278084L396.59720116666654,277.5702421966852L397.13350499999984,286.9421453180112L398.14614949999986,269.36528719080684L398.76729099999983,282.0191723144843L399.67118466666653,289.6115033886908L399.80913599999985,294.1669020332146L400.02735866666654,296.9001412199289L401.1376986666665,298.54008473195756L401.5129791666665,299.52405083917466L401.6587413333332,300.114430503505L402.5286278333332,300.46865830210317L402.7657166666665,300.681194981262L404.91609916666647,277.60871698875735L405.3762173333332,286.9652301932546L405.9738061666665,292.5791381159529L409.2775483333332,295.94748286957196L409.8598759999998,274.7684897217433L410.43703649999986,285.2610938330461L410.71293916666656,291.55665629982786L411.4723924999999,295.33399377989684L411.96687833333317,297.60039626793827L412.47326066666653,298.9602377607631L414.0283374999998,299.7761426564581L414.9723668333332,300.265685593875L415.3699983333332,300.55941135632514L415.98044499999986,300.7356468137952L416.07044983333316,300.84138808827726L416.9141399999998,300.90483285296654L417.72214066666646,300.9428997117801L417.9555043333332,300.96573982706815L422.3259659999998,300.9794438962411L422.72636133333316,300.9876663377448L422.7735868333331,300.9925998026471L423.51453449999985,300.9955598815884L428.92660083333317,300.9973359289532L429.8517639999999,300.99840155737206L429.9221816666665,300.99904093442336L430.08680999999984,300.99942456065423L430.2437476666665,300.9996547363927L430.47867349999984,300.99979284183576L430.55461883333317,277.7998757051016L432.59120349999984,287.0799254230611L432.9301936666665,292.64795525383687L433.1314728333332,295.98877315230226L433.7484084999998,297.9932638913815L434.65782983333315,299.1959583348291L435.3152616666665,299.9175750008976L435.5983743333332,300.3505450005388L435.6710751666665,300.6103270003234L436.83861449999984,300.76619620019414L438.0559028333331,300.85971772011663L438.51794366666655,300.91583063207014L438.75791649999985,300.94949837924224L439.3499776666665,300.9696990275456L439.51893199999984,300.9818194165275L440.12793666666647,300.98909164991665L440.4225853333332,300.9934549899501L441.1629321666665,300.99607299397024L443.09869699999985,300.9976437963823L443.87136866666646,300.9985862778296L445.04059033333317,300.9991517666979L445.58746883333316,300.99949106001895L446.0938511666665,300.9996946360115L446.41193233333314,300.9998167816071L446.4746593333332,300.9998900689644L447.77029633333314,300.9999340413788L448.01964216666653,300.99996042482746L450.66703399999983,300.99997625489664L451.07860483333315,300.9999857529382L452.16539216666644,300.99999145176304L452.2815933333332,300.999994871058L453.5616086666665,277.79999692263493L453.6261381666665,287.07999815358113L455.02247483333315,292.64799889214885L455.10466883333316,295.9887993352895L455.36771366666653,297.99327960117387L456.0383638333331,299.1959677607045L456.94682383333316,253.51758065642284L458.9572121666665,272.5105483938538L459.1864901666665,260.7063290363124L460.07704533333316,276.8237974217876L460.32302649999986,286.4942784530727L460.49150016666647,292.29656707184375L460.6361808333332,295.77794024310646L461.6338044999998,297.866764145864L463.12242916666645,275.9200584875186L464.84874349999984,262.7520350925112L465.3630568333332,278.0512210555069L465.94298116666647,287.23073263330434L466.22465183333316,292.7384395799828L466.7526641666665,296.04306374798983L466.8265666666665,298.0258382487941L466.8798004999998,299.21550294927664L467.7532919999998,299.9293017695661L469.87134966666645,300.3575810617399L470.22247666666647,300.6145486370441L471.3941016666665,300.76872918222665L472.22337183333315,300.86123750933615L472.4939871666665,300.91674250560186L472.5724559999999,300.95004550336125L473.23409366666647,300.9700273020169L473.6955336666665,300.9820163812103L473.9228889999999,300.9892098287263L474.57347133333315,300.9935258972359L474.90873633333314,277.7961155383417L475.3957718333332,287.0776693230052L475.4493661666665,292.64660159380327L475.95454683333315,295.9879609562821L476.49469599999986,297.99277657376945L476.61161816666646,299.1956659442618L476.8794696666665,276.7173995665572L479.5964379999998,263.23043973993447L480.4738949999998,278.3382638439608L481.9733346666665,287.4029583063767L483.75636766666645,292.84177498382616L485.3208174999998,296.10506499029594L487.2150046666665,298.06303899417765L487.4508918333332,299.23782339650677L488.4726689999998,299.94269403790423L489.07951066666647,300.3656164227427L489.8339169999999,300.61936985364576L490.0958803333331,300.77162191218764L490.2441659999998,300.86297314731274L490.32443733333315,277.71778388838777L493.7255144999998,263.83067033303286L494.11317216666646,278.69840219981984L494.3164941666665,287.6190413198921L494.8466694999998,292.9714247919354L495.8191783333331,296.1828548751614L495.9752748333332,298.10971292509697L496.0822231666665,299.26582775505835L496.6425603333331,276.75949665303517L498.12794049999985,286.4556979918213L499.8500489999998,292.27341879509294L500.2511653333331,295.76405127705596L501.6359659999998,297.8584307662337L501.81369249999983,299.1150584597404L502.3586483333332,299.8690350758444L504.4988166666665,300.32142104550684L504.9555701666665,300.5928526273043L506.38975933333325,300.7557115763827L507.7447586666665,277.6534269458298L508.4235801666665,286.99205616749805L510.11925199999985,292.59523370049897L510.4540363333332,295.95714022029955L510.69929649999983,297.9742841321799L510.7611823333332,299.1845704793081L512.7611161666665,276.710742287585L514.4704869999998,286.42644537255114L516.6634085,292.2558672235309L517.4371616666666,295.75352033411866L518.6872554999999,297.85211220047137L519.8227103333332,299.11126732028293L519.9366283333331,299.8667603921699L521.5229484999999,300.3200562353021L523.4012736666665,300.5920337411814L524.6661479999998,300.755220244709L526.1803681666665,300.8531321468256L526.4142124999998,300.9118792880955L526.8183329999998,300.9471275728575L529.5970669999999,300.96827654371464L530.0920334999998,300.98096592622886L530.3652924999998,300.9885795557375L530.7803481666666,300.99314773344264L531.2272479999998,300.9958886400658L531.8434626666665,300.99753318403964L532.0031641666665,300.99851991042397L533.9211443333331,300.9991119462545L534.5700443333332,277.7994671677528L535.8843071666665,240.67968030065182L536.3717031666665,264.8078081803913L537.3133291666666,279.2846849082349L537.4785583333331,287.9708109449411L537.9729239999998,293.1824865669648L538.9036148333332,273.10949194017905L539.2975211666666,284.2656951641075L540.0716348333332,290.95941709846466L540.7493748333333,294.9756502590789L542.9407341666665,274.1853901554475L543.0837324999998,261.7112340932687L543.4002514999999,277.42674045596135L544.3933088333332,286.85604427357697L547.3794504999998,292.51362656414636L547.6004369999998,295.908175938488L548.8971554999998,297.944905563093L550.2650126666665,299.16694333785597L551.5459893333332,299.9001660027137L551.7346509999999,300.3400996016284L552.1360076666665,300.60405976097724L552.4847313333331,300.7624358565865L553.8876771666665,300.85746151395205L553.9645838333331,300.9144769083714L555.3601994999998,300.948686145023L555.6340593333332,300.96921168701397L556.1782941666665,300.9815270122086L558.2951501666665,300.98891620732536L558.4556928333332,300.99334972439533L558.9677229999999,300.9960098346374L560.3594933333333,300.99760590078256L560.9892868333332,300.99856354046966L561.7125699999999,300.999138124282L562.4065324999999,300.9994828745693L563.2597158333332,300.9996897247417L563.6621539999999,300.99981383484516L563.7338934999998,300.9998883009073L565.2815199999999,300.99993298054454L565.5963566666666,300.99995978832686L565.7726411666665,277.79997587299624L566.0791863333332,287.0799855237979L566.7596901666666,292.6479913142789L568.1712879999999,295.9887947885675L569.7703458333332,297.99327687314064L570.1476691666664,299.1959661238846L570.8246881666665,299.9175796743309L571.3594298333331,300.3505478045987L571.8476669999999,300.61032868275936L572.0628854999999,300.7661972096558L573.8500041666665,300.8597183257936L575.2719363333332,300.9158309954763L575.5925409999999,300.9494985972859L575.9908934999999,300.9696991583717L577.1495404999998,300.98181949502316L577.2983068333332,300.98909169701403L578.4871156666665,277.7934550182086L578.5970681666665,287.0760730109253L579.0208959999999,292.64564380655537L579.1888889999999,295.9873862839334L579.3676969999998,274.7924317703601L580.2721914999998,285.27545906221627L580.4017311666665,291.5652754373299L580.5591494999999,295.3391652623981L582.3550403333331,297.603499157439L582.9676499999998,298.9620994944636L583.2044984999999,299.7772596966783L584.3941484999998,300.2663558180071L585.3262813333332,300.55981349080446L585.4832189999998,300.7358880944828L585.8808504999998,300.84153285668987L586.9001041666664,300.90491971401406L587.3169623333331,300.94295182840864L587.8714113333332,300.9657710970454L588.3390999999999,300.9794626582274L589.2910603333331,300.9876775949366L591.4574249999998,277.79260655696214L593.4243129999999,287.07556393417747L593.8064429999998,292.6453383605066L593.8716934999999,295.98720301630414L594.4478926666665,297.99232180978265L595.8324529999999,299.1953930858697L596.8257506666665,299.91723585152204L597.7916503333331,253.95034151091332L598.4071439999999,272.7702049065482L598.8100628333332,284.06212294392907L600.9185071666665,290.8372737663576L605.0768746666665,294.90236425981476L605.3736863333332,297.341418555889L606.3638596666665,298.8048511335336L607.6479606666664,299.6829106801203L608.2716256666665,277.0097464080723L608.3472104999998,286.60584784484354L608.6494296666665,292.3635087069063L609.3498811666665,295.81810522414395L610.1694178333331,297.89086313448655L610.2292608333332,299.13451788069216L610.3143388333332,299.8807107284154L610.8967866666665,300.3284264370494L612.4960848333332,300.5970558622298L614.3392011666665,300.7582335173381L614.8797108333331,300.854940110403L615.0871184999999,300.91296406624195L615.8888704999998,300.9477784397453L616.5185438333332,300.96866706384736L616.7197028333331,300.9812002383086L617.4432263333332,300.9887201429853L617.8570803333331,300.9932320857913L620.7339904999999,300.99593925147497L621.3833711666665,300.9975635508851L621.5171166666665,300.99853813053124L621.8150098333332,300.99912287831893L622.2459274999998,300.99947372699154L622.4552578333332,300.9996842361951L623.1554689999998,300.9998105417172L623.8122999999998,300.9998863250305L624.0540753333331,300.9999317950185L624.7008123333331,300.9999590770113L624.9654193333332,300.9999754462069L627.2815116666665,300.9999852677243L627.5485219999998,300.99999116063475L628.1131851666665,300.999994696381L628.4852211666665,300.9999968178288L629.4060583333331,300.9999980906975L630.4191834999998,300.9999988544186L633.8891161666664,300.99999931265137L635.1681701666665,300.999999587591L636.2829563333331,300.99999975255474L636.9152733333332,277.79999985153296L637.9804306666665,287.0799999109199L638.0429173333332,292.6479999465521L640.3168311666665,295.9887999679314L641.4355828333331,297.99327998075904L643.4871883333332,275.9959679884555L645.0954989999998,285.99758079307344L646.1647419999998,291.99854847584425L646.4396833333332,295.5991290855067L646.9491899999998,274.5594774513042L648.4093351666666,285.13568647078273L648.5791306666665,291.4814118824698L650.1375721666665,295.288847129482L650.4975914999998,297.57330827768936L652.6262238333331,252.54398496661375L653.3014403333332,248.72639097996841L654.3733269999998,269.6358345879812L654.8497878333332,282.1815007527889L656.9560691666666,289.70890045167346L658.2068839999998,294.2253402710042L658.8688821666665,296.9352041626027L658.9511963333332,298.56112249756177L661.0006388333331,299.5366734985372L661.3619799999998,300.12200409912253L662.4896239999998,300.4732024594737L663.6253191666665,300.6839214756844L663.6873251666665,300.81035288541074L664.3733566666665,300.8862117312466L665.5841559999998,300.93172703874814L666.0693889999999,277.75903622324904L666.8692183333332,287.05542173394963L667.7242041666665,292.63325304036994L667.9616534999999,295.97995182422216L668.0800176666665,297.98797109453346L669.8256788333332,275.99278265672024L670.0532744999998,285.99566959403234L670.9083804999998,268.7974017564195L672.0806063333332,281.6784410538518L674.2114016666665,289.4070646323113L675.4506804999997,294.04423877938694L676.4557544999998,296.8265432676323L678.0870169999998,298.49592596057954L679.0682979999998,276.29755557634786L679.1777698333332,286.1785333458089L679.6726161666664,292.1071200074855L680.3104608333332,272.4642720044915L680.6746859999998,283.87856320269503L680.7834368333331,290.7271379216172L680.8301816666665,294.83628275297053L683.0483381666664,343.70176965178257L683.1418278333332,326.62106179106974L683.5398198333331,269.97263707464197L683.7848396666665,235.98358224478528L684.5881538333331,261.9901493468713L684.9369976666665,277.59408960812294L687.6354603333332,286.9564537648739L687.7266668333332,292.5738722589245L688.4205091666664,295.9443233553549L688.6855968333331,297.9665940132131L689.2702076666665,299.17995640792805L690.1279573333331,299.90797384475695L690.2162798333331,300.34478430685436L690.4250093333332,300.6068705841128L690.9792179999998,277.5641223504678L691.4979774999998,240.5384734102808L691.8576363333331,264.72308404616865L692.0376459999998,279.2338504277014L693.5952463333331,287.940310256621L694.0395024999998,293.16418615397276L694.1417643333332,296.29851169238384L694.8536316666665,274.97910701543043L696.6379864999998,285.38746420925844L698.1597771666665,291.63247852555526L700.7772474999998,295.3794871153333L702.8838893333332,297.62769226920017L704.1548921666665,298.9766153615203L704.4310351666664,299.7859692169123L707.4877146666664,300.2715815301475L707.6304726666665,277.36294891808865L709.1669236666664,286.8177693508534L709.2648594999998,292.4906616105122L710.2692124999998,295.89439696630745L710.5453554999998,297.9366381797846L710.7355793333331,299.16198290787094L711.7524296666664,299.89718974472277L712.2303324999998,300.33831384683384L712.4822018333332,300.60298830810046L712.8598856666664,300.76179298486045L714.5008816666665,300.85707579091644L714.6019418333332,300.91424547455006L714.9903204999998,300.9485472847302L715.3140494999998,277.7691283708383L715.5144874999999,263.8614770225031L716.8830656666664,255.51688621350203L717.2377976666666,250.51013172810133L718.1991309999999,270.706079036861L718.4645791666665,282.8236474221168L720.1846448333332,290.09418845327025L720.9158589999998,271.2565130719623L721.8680596666665,283.15390784317754L721.9740466666666,290.29234470590666L722.9824853333331,294.5754068235442L725.0244774999998,297.14524409412667L725.4050453333332,298.68714645647617L726.7185871666665,299.6122878738859L730.4572124999999,276.96737272433165L730.5337586666665,286.5804236345992L730.9770534999998,292.3482541807597L731.4375321666665,295.808952508456L733.0553359999998,297.8853715050738L733.6339384999998,299.13122290304443L738.0464584999999,299.87873374182686L738.9648923333332,277.1272402450963L739.8508811666665,286.6763441470579L739.9678033333331,292.4058064882349L741.6914739999997,295.8434838929411L742.9127278333332,297.9060903357648L743.4743868333333,299.14365420145907L744.5156309999998,299.88619252087557L745.7898783333331,300.3317155125255L746.1416061666665,277.39902930751543L746.3205343333332,286.8394175845094L746.7303026666665,292.50365055070586L747.5154716666664,295.90219033042365L753.4191398333331,297.94131419825436L753.9386203333331,299.1647885189528L754.0258613333331,299.8988731113718L755.9068301666665,300.33932386682324L756.5530864999998,277.4035943200941L758.9447636666664,286.8421565920566L759.4446569999998,292.50529395523415L760.6065484999997,295.90317637314064L760.9517873333331,297.94190582388455L762.3893411666664,299.1651434943309L762.8214604999998,299.8990860965987L764.178983333333,300.3394516579594L766.2052336666665,300.6036709947758L767.2210024999997,300.7622025968656L769.0183353333331,300.85732155811957L769.220936333333,300.91439293487184L770.2189204999999,300.94863576092325L771.2574008333331,300.9691814565541L772.0554276666663,300.9815088739326L774.4502291666665,300.9889053243598L774.6352858333331,300.99334319461605L774.9709113333331,300.99600591676983L775.2295099999998,300.997603550062L776.0200864999998,277.79856213003734L777.3965956666665,287.0791372780226L777.4868408333331,292.6474823668137L778.3610533333331,272.78848942008835L778.7657746666665,284.0730936520532L779.2529303333331,290.8438561912321L780.0111819999997,294.90631371473944L780.1915521666665,297.34378822884383L785.8047774999998,298.80627293730646L787.049103333333,299.68376376238405L787.4355593333331,277.01025825743056L788.0736443333332,263.4061549544585L790.3891358333331,255.24369297267523L790.8759309999997,273.54621578360536L791.0292636666663,284.5277294701634L791.3879611666664,291.1166376820982L792.4684998333331,295.0699826092591L792.8625263333331,297.4419895655556L793.5948219999997,298.8651937393335L794.6683909999998,299.71911624360024L794.8316974999997,300.23146974616037L795.6749069999997,300.53888184769636L796.1061851666665,300.723329108618L796.2215451666665,300.8339974651709L797.6796474999998,300.90039847910276L801.5330319999998,300.9402390874618L803.6652693333332,300.96414345247723L804.7030286666665,300.97848607148654L805.3353456666665,300.98709164289204L807.1066023333331,277.7922549857354L808.3663094999997,287.07535299144143L810.4515616666665,292.645211794865L812.1338949999998,295.9871270769192L813.3737746666663,297.9922762461517L813.5015118333331,299.19536574769114L814.5279754999998,299.91721944861484L819.8594099999998,300.3503316691691L820.246106333333,277.4101990015016L820.465650833333,286.8461194009011L820.8251894999999,292.50767164054076L820.9547291666663,295.90460298432464L821.3522404999998,297.94276179059494L826.5411573333331,299.16565707435717L828.9249034999998,299.8993942446144L833.5832844999996,277.1396365467688L834.4508878333331,263.48378192806143L835.2276451666664,278.490269156837L838.1284684999997,287.49416149410234L838.9586999999998,292.89649689646154L840.8670668333331,296.1378981378771L841.2955811666665,298.0827388827264L841.9987964999998,276.04964332963596L845.2128943333331,286.0297859977818L847.1440928333332,292.0178715986692L849.9150159999997,272.4107229592016L850.0348221666665,283.8464337755212L851.6136919999998,267.50786026531284L852.184964333333,280.9047161591879L852.8529708333331,288.9428296955129L855.7412968333331,293.7656978173079L856.0534898333332,296.65941869038494L856.5323539999998,275.19565121423113L861.220536333333,239.11739072853877L861.5065329999998,263.87043443712344L862.5144909999998,255.52226066227416L863.9912191666664,227.3133563973646L865.3235069999997,256.7880138384189L865.9381594999996,251.2728083030515L869.2217136666665,271.16368498183107L870.323882333333,259.89821098909874L872.3790928333332,276.33892659345946L872.7708361666664,286.2033559560758L873.9576021666664,292.1220135736456L874.9380419999998,272.4732081441875L875.8382104999998,283.88392488651266L876.3283703333332,290.73035493190775L879.4363609999997,294.83821295914487L879.5582099999998,297.3029277754871L885.3319779999998,275.5817566652924L887.2391431666665,216.14905399917546L889.7359661666665,250.08943239950543L892.1942156666664,270.4536594397035L897.756129833333,236.27219566382217L902.3392864999998,262.16331739829343L902.4488784999998,277.69799043897626L912.2726236666665,287.01879426338587L912.6331236666664,269.41127655803166L914.3811881666664,282.04676593481906L929.8179183333331,243.22805956089158L930.526300833333,196.736835736535L932.9828679999998,168.84210144192107L934.0643679999997,175.30526086515277L936.5251409999997,155.98315651909175L945.2365033333331,167.58989391145514L951.825361833333,174.5539363468732L955.2173063333331,201.93236180812409L960.6893358333331,148.75941708487446L961.2214338333331,209.65565025092485L961.8651666666664,222.99339015055506L963.5325993333331,161.39603409033305L974.073619333333,194.03762045419998L975.8761193333331,213.6225722725201L979.4952989999998,202.17354336351218L979.7985996666664,218.50412601810746L980.1590996666664,181.90247561086454L981.184842333333,229.54148536651888L985.7468496666663,258.1248912199115L995.011819833333,275.2749347319471L996.0155719999998,239.16496083916832L1002.1060993333331,217.49897650350115L1003.7278686666664,227.69938590210083L1004.0883686666663,210.61963154126062L1012.7587541666663,153.97177892475636L1015.3765849999997,189.583067354854L1017.8689618333331,187.7498404129125L1028.8531564999996,140.24990424774754L1036.3317289999998,181.34994254864867L1036.6922289999998,90.0099655291891L1039.9367289999998,104.80597931751356L1042.3467916666664,160.0835875905083L1043.4178371666665,216.45015255430513L1045.912256833333,157.4700915325831L1046.850638333333,145.28205491954998L1053.585499333333,207.56923295173013L1054.666999333333,175.34153977103816L1058.632499333333,156.00492386262297L1062.3240193333331,144.40295431757383L1065.8405766666665,137.4417725905444L1066.5615766666663,110.06506355432666L1066.9220766666663,140.03903813259612L1068.0035766666663,158.02342287955776L1076.384600833333,145.61405372773473L1078.145643333333,184.56843223664097L1078.3881396666663,231.14105934198474L1079.8301396666664,212.68463560519095L1086.3676869999997,155.21078136311456L1086.7281869999997,190.32646881786889L1089.9164489999996,234.5958812907215L1092.8004489999996,168.35752877443292L1096.946439333333,128.61451726465978L1110.957271833333,151.168710358796L1113.922384333333,141.5012262152777L1114.2828843333332,135.7007357291667L1116.3179068333332,155.42044143750013L1117.038906833333,120.8522648625001L1120.0138729999996,100.11135891750011L1132.0554141666662,110.86681535050015L1142.1154069999998,94.12008921030011L1143.1054601666665,84.07205352618011L1144.1750636666663,170.84323211570825L1147.3416956666663,130.10593926942497L1156.8519259999996,152.0635635616551L1165.788600833333,142.03813813699313L1169.393600833333,136.02288288219594L1188.7226494999995,109.21372972931756L1190.8060991666664,93.12823783759055L1192.2480991666664,106.67694270255444L1193.1101748333328,184.40616562153284L1197.1011501666665,138.2436993729197L1202.7855141666664,87.34621962375186L1203.5065141666662,126.40773177425119L1205.3090141666664,126.64463906455079L1216.114761333333,149.98678343873058L1217.5421009999998,210.39207006323852L1217.9026009999995,177.0352420379432L1218.561474833333,226.6211452227661L1222.6338029999997,209.97268713365975L1223.3548029999997,176.7836122801959L1228.0349341666663,110.47016736811753L1231.6365694999997,186.68210042087065L1236.2819724999997,209.20926025252254L1238.0844724999995,153.12555615151356L1238.4449724999997,96.27533369090813L1243.6179071666663,178.16520021454508L1245.7809071666663,180.89912012872713L1249.3859071666664,159.33947207723634L1257.7847159999997,169.60368324634194L1263.555479833333,106.16220994780514L1266.439479833333,114.49732596868319L1271.4748236666662,96.29839558120996L1282.6002141666663,85.37903734872599L1285.2342674999998,102.02742240923564L1286.3157674999998,158.41645344554155L1289.1997674999998,99.4498720673249L1294.7998946666662,133.66992324039506L1296.2158184999996,107.80195394423706L1298.0183184999996,69.08117236654223L1298.7393184999996,69.04870341992536L1299.4603184999996,69.02922205195524L1300.528720333333,92.2175332311732L1312.7887244999997,129.33051993870404L1313.5097244999995,128.39831196322248" fill="none"></path></g></g></g></g><g opacity="0.2"><g><g><g><path style="fill: none;" stroke="rgb(255, 112, 67)" stroke-width="2px" d="M113.59652983333328,243.00000000000034L114.09137616666662,301.0000000000004L115.37595783333329,301.0000000000004L115.57915966666661,301.0000000000004L116.42272966666661,301.0000000000004L117.48392149999995,301.0000000000004L117.69265099999996,301.0000000000004L119.13645349999994,301.0000000000004L123.81946866666661,243.00000000000034L124.02134866666661,301.0000000000004L124.7255253333333,301.0000000000004L125.86434483333328,301.0000000000004L126.04699816666661,185.00000000000026L129.57340916666658,243.00000000000034L129.8693796666666,301.0000000000004L131.53693249999995,301.0000000000004L131.92627249999993,243.00000000000034L132.38951499999993,301.0000000000004L132.84939283333327,301.0000000000004L135.42877033333326,301.0000000000004L135.6128656666666,301.0000000000004L136.2224711666666,301.0000000000004L137.80458549999992,301.0000000000004L138.41046583333326,301.0000000000004L139.95665033333327,301.0000000000004L143.9440206666666,301.0000000000004L144.04147583333327,243.00000000000034L145.52709633333325,243.00000000000034L145.7230881666666,301.0000000000004L146.7631306666666,301.0000000000004L146.97246099999992,301.0000000000004L147.0176436666666,301.0000000000004L147.7172539999999,301.0000000000004L149.0393276666666,301.0000000000004L150.6190386666666,301.0000000000004L152.3930591666666,301.0000000000004L154.44658733333327,301.0000000000004L155.22694966666657,301.0000000000004L155.6547429999999,301.0000000000004L156.23719083333324,301.0000000000004L156.3030421666666,301.0000000000004L158.78484433333324,301.0000000000004L158.92712166666658,243.00000000000034L159.82704983333326,185.00000000000026L160.34869333333324,301.0000000000004L160.40457083333325,301.0000000000004L160.50911583333325,301.0000000000004L160.71387983333324,301.0000000000004L160.89893649999993,301.0000000000004L161.81304433333327,301.0000000000004L162.6395506666666,185.00000000000026L165.86410299999991,301.0000000000004L166.40208916666657,301.0000000000004L166.9996779999999,301.0000000000004L167.6851086666666,301.0000000000004L168.57926883333326,243.00000000000034L168.8483219999999,301.0000000000004L169.50755633333324,301.0000000000004L169.8119384999999,301.0000000000004L169.94868816666659,301.0000000000004L170.12160799999992,301.0000000000004L170.63315749999992,301.0000000000004L170.99606083333325,301.0000000000004L171.19998366666658,301.0000000000004L171.54582333333326,301.0000000000004L171.7039626666666,301.0000000000004L172.00041383333325,301.0000000000004L172.30155149999993,359.0000000000005L172.7742871666666,301.0000000000004L172.85035266666657,301.0000000000004L174.56477049999992,301.0000000000004L174.84980583333325,301.0000000000004L177.4283421666666,301.0000000000004L177.97870549999993,301.0000000000004L178.44855716666657,301.0000000000004L179.4900416666666,301.0000000000004L179.7985094999999,301.0000000000004L180.30813633333327,301.0000000000004L180.45810433333327,301.0000000000004L181.0178406666666,301.0000000000004L182.0243566666666,301.0000000000004L182.82394566666656,301.0000000000004L183.05082033333323,301.0000000000004L183.73168466666658,301.0000000000004L184.29706883333327,301.0000000000004L184.97276599999992,301.0000000000004L185.06060783333325,301.0000000000004L185.4345664999999,301.0000000000004L185.48816083333324,301.0000000000004L185.8690891666666,243.00000000000034L187.30003383333323,301.0000000000004L187.51332966666658,301.0000000000004L188.12053183333327,185.00000000000026L191.3536159999999,301.0000000000004L191.7267334999999,301.0000000000004L191.9668264999999,301.0000000000004L192.10117283333327,301.0000000000004L192.4593896666666,243.00000000000034L192.90929366666657,301.0000000000004L193.26630883333326,301.0000000000004L194.01759083333326,301.0000000000004L194.46713433333326,301.0000000000004L194.84061233333324,301.0000000000004L195.6565439999999,243.00000000000034L198.77607066666656,301.0000000000004L199.09547366666658,301.0000000000004L199.14354033333325,301.0000000000004L199.1953321666666,301.0000000000004L200.48063483333323,301.0000000000004L201.47597533333325,301.0000000000004L202.5389696666666,301.0000000000004L205.34870666666657,301.0000000000004L206.12510349999988,301.0000000000004L206.35233866666658,301.0000000000004L206.57392599999991,243.00000000000034L208.11987016666657,243.00000000000034L208.5804689999999,301.0000000000004L209.1472951666666,243.00000000000034L209.58386066666657,243.00000000000034L210.77278966666657,301.0000000000004L211.03992016666658,243.00000000000034L211.7907214999999,243.00000000000034L212.00654083333325,301.0000000000004L212.18967483333327,301.0000000000004L212.25276233333324,301.0000000000004L215.77028099999993,301.0000000000004L216.0114554999999,301.0000000000004L216.24998633333323,127.00000000000017L216.32677283333322,301.0000000000004L217.94073133333325,301.0000000000004L218.70390983333323,301.0000000000004L219.39919416666658,185.00000000000026L219.65887433333324,301.0000000000004L221.29770733333325,301.0000000000004L221.39972883333323,301.0000000000004L222.16158549999992,243.00000000000034L222.76434149999992,301.0000000000004L223.21376483333324,301.0000000000004L225.64665916666655,301.0000000000004L225.9288104999999,301.0000000000004L227.75125816666656,301.0000000000004L228.96373983333325,301.0000000000004L229.05194216666658,243.00000000000034L230.2371459999999,301.0000000000004L230.55642883333323,301.0000000000004L231.86095816666653,301.0000000000004L231.9217624999999,301.0000000000004L233.66345816666654,185.00000000000026L234.4062083333332,301.0000000000004L234.64269633333325,301.0000000000004L234.9813259999999,301.0000000000004L235.20964266666658,301.0000000000004L236.05465466666655,301.0000000000004L236.6262874999999,301.0000000000004L237.2208721666666,301.0000000000004L237.7176411666666,301.0000000000004L238.31210566666655,301.0000000000004L238.62033316666657,301.0000000000004L238.75912566666656,301.0000000000004L238.92820016666658,243.00000000000034L239.21660016666658,301.0000000000004L239.79171783333322,243.00000000000034L240.56426933333324,301.0000000000004L241.5903724999999,301.0000000000004L241.71390383333323,301.0000000000004L241.9613269999999,301.0000000000004L242.3092094999999,301.0000000000004L242.53031616666658,301.0000000000004L242.60866483333322,243.00000000000034L244.12348583333323,301.0000000000004L244.80146616666656,301.0000000000004L245.28057066666656,301.0000000000004L245.8878929999999,243.00000000000034L245.96672233333325,301.0000000000004L246.61045516666655,301.0000000000004L247.12140383333323,301.0000000000004L248.84086866666658,301.0000000000004L249.16051199999993,301.0000000000004L249.99122416666654,301.0000000000004L250.24501616666657,301.0000000000004L250.96505483333323,301.0000000000004L251.91569333333322,301.0000000000004L252.1216589999999,301.0000000000004L252.5910299999999,243.00000000000034L252.7244149999999,301.0000000000004L255.33671816666657,301.0000000000004L255.7774894999999,301.0000000000004L257.0232573333332,301.0000000000004L257.7998944999999,243.00000000000034L258.0133104999999,301.0000000000004L258.1510214999999,301.0000000000004L259.62847066666654,301.0000000000004L260.7318409999999,301.0000000000004L260.8470808333332,301.0000000000004L262.2747809999999,301.0000000000004L262.6384053333332,243.00000000000034L263.25281749999994,301.0000000000004L264.6414634999999,301.0000000000004L265.05291416666654,301.0000000000004L266.75507499999986,301.0000000000004L267.7736076666666,301.0000000000004L268.0525144999999,301.0000000000004L268.12978166666653,301.0000000000004L268.44521916666656,301.0000000000004L268.73253766666653,301.0000000000004L269.0355979999999,301.0000000000004L269.55652049999986,301.0000000000004L270.73475466666656,243.00000000000034L273.2456371666666,243.00000000000034L273.58066183333324,301.0000000000004L274.05892516666654,243.00000000000034L274.8023963333332,301.0000000000004L275.70424716666656,301.0000000000004L276.4307748333332,301.0000000000004L276.6284489999999,301.0000000000004L276.7571474999999,301.0000000000004L277.12894316666655,301.0000000000004L277.33839366666655,301.0000000000004L277.8899586666666,301.0000000000004L278.22354133333323,301.0000000000004L279.8974629999999,301.0000000000004L280.28908616666655,301.0000000000004L280.3608256666665,301.0000000000004L280.5451613333332,301.0000000000004L280.77083433333326,301.0000000000004L281.0708904999999,301.0000000000004L281.14575433333323,301.0000000000004L281.6634323333332,301.0000000000004L281.87817016666656,301.0000000000004L282.2628236666666,185.00000000000026L283.69509016666655,301.0000000000004L284.4974429999999,243.00000000000034L284.9133398333332,301.0000000000004L285.3601194999999,301.0000000000004L285.6571714999999,301.0000000000004L286.62198966666654,301.0000000000004L286.68399566666653,301.0000000000004L288.6669859999999,301.0000000000004L289.41370166666655,301.0000000000004L292.0923368333332,301.0000000000004L292.1554243333332,301.0000000000004L292.2761918333332,301.0000000000004L295.5794533333332,243.00000000000034L296.1594978333332,301.0000000000004L296.7061359999999,185.00000000000026L296.86427533333324,301.0000000000004L297.03166749999986,301.0000000000004L297.3632073333332,243.00000000000034L299.10958949999986,301.0000000000004L299.15657466666653,301.0000000000004L299.90677516666653,301.0000000000004L300.1340103333332,301.0000000000004L300.4667518333332,301.0000000000004L301.55389966666655,301.0000000000004L302.00296249999985,301.0000000000004L302.7025728333332,301.0000000000004L303.8691508333332,301.0000000000004L304.2592118333332,301.0000000000004L304.4365778333332,301.0000000000004L306.3606864999999,301.0000000000004L307.46573916666654,301.0000000000004L308.23853099999985,301.0000000000004L308.6969668333332,301.0000000000004L309.8931058333332,301.0000000000004L310.3779783333332,301.0000000000004L310.46569999999986,301.0000000000004L311.58769616666655,301.0000000000004L312.0640368333332,301.0000000000004L312.42790149999985,301.0000000000004L314.1682753333332,301.0000000000004L314.6406504999999,301.0000000000004L315.0880309999999,301.0000000000004L316.0893798333332,301.0000000000004L316.5216193333332,301.0000000000004L317.6294358333332,301.0000000000004L318.55039316666654,243.00000000000034L318.7504706666665,301.0000000000004L319.8252413333332,301.0000000000004L322.5382441666665,533.0000000000008L322.59796699999987,301.0000000000004L322.68040133333324,243.00000000000034L324.0513828333332,301.0000000000004L325.0849363333332,301.0000000000004L328.65689049999986,301.0000000000004L329.34460433333317,301.0000000000004L330.0190998333332,301.0000000000004L330.44689316666654,301.0000000000004L331.8933393333332,301.0000000000004L332.03008899999986,301.0000000000004L332.20000466666653,185.00000000000026L335.8620838333332,301.0000000000004L336.5455918333332,243.00000000000034L338.24667116666654,301.0000000000004L339.3447541666665,301.0000000000004L339.6318323333332,301.0000000000004L340.6524078333332,301.0000000000004L340.9004318333332,301.0000000000004L341.5201313333332,243.00000000000034L341.74280016666654,301.0000000000004L343.53833049999986,301.0000000000004L343.8173574999999,301.0000000000004L344.0143106666665,301.0000000000004L346.26635416666653,301.0000000000004L348.0278773333332,301.0000000000004L349.22557849999987,301.0000000000004L349.8958681666665,301.0000000000004L350.24014566666654,301.0000000000004L350.62539999999984,301.0000000000004L351.2193838333332,301.0000000000004L352.45361566666656,301.0000000000004L353.98994649999986,127.00000000000017L354.05916249999984,301.0000000000004L354.6150534999999,243.00000000000034L354.7957841666665,301.0000000000004L356.5875893333332,301.0000000000004L357.3380301666665,301.0000000000004L357.5496436666665,301.0000000000004L357.6076841666665,301.0000000000004L357.7356616666665,301.0000000000004L357.78889549999985,301.0000000000004L359.74400716666656,301.0000000000004L360.4628441666665,301.0000000000004L362.3577523333332,301.0000000000004L363.0936529999999,243.00000000000034L364.11182516666656,301.0000000000004L364.22478183333317,301.0000000000004L365.53255566666655,301.0000000000004L367.6405193333332,301.0000000000004L367.82016849999985,301.0000000000004L368.5617169999998,301.0000000000004L369.99278183333314,301.0000000000004L370.4328321666665,301.0000000000004L372.0248001666665,243.00000000000034L372.64449966666655,243.00000000000034L373.4253426666665,301.0000000000004L373.5479126666665,301.0000000000004L374.1050053333332,301.0000000000004L374.5413304999999,243.00000000000034L375.14300499999985,301.0000000000004L375.6863986666665,301.0000000000004L375.9641038333332,301.0000000000004L377.29603116666647,301.0000000000004L378.2338118333332,301.0000000000004L378.44434383333316,301.0000000000004L380.22232983333316,301.0000000000004L380.34862499999986,301.0000000000004L380.7873534999999,301.0000000000004L381.08933233333323,301.0000000000004L382.24221133333316,301.0000000000004L383.59480733333316,301.0000000000004L385.0490643333332,301.0000000000004L386.37666566666655,243.00000000000034L386.55667533333315,301.0000000000004L386.71926083333324,301.0000000000004L387.0004508333332,243.00000000000034L387.2214373333332,185.00000000000026L388.58556933333324,301.0000000000004L389.3777079999998,301.0000000000004L390.4570449999999,301.0000000000004L392.8769613333332,301.0000000000004L394.5788818333332,301.0000000000004L394.91030149999983,301.0000000000004L395.0363563333332,301.0000000000004L395.4991181666665,301.0000000000004L395.7382498333332,301.0000000000004L395.8979513333332,301.0000000000004L396.59720116666654,243.00000000000034L397.13350499999984,301.0000000000004L398.14614949999986,243.00000000000034L398.76729099999983,301.0000000000004L399.67118466666653,301.0000000000004L399.80913599999985,301.0000000000004L400.02735866666654,301.0000000000004L401.1376986666665,301.0000000000004L401.5129791666665,301.0000000000004L401.6587413333332,301.0000000000004L402.5286278333332,301.0000000000004L402.7657166666665,301.0000000000004L404.91609916666647,243.00000000000034L405.3762173333332,301.0000000000004L405.9738061666665,301.0000000000004L409.2775483333332,301.0000000000004L409.8598759999998,243.00000000000034L410.43703649999986,301.0000000000004L410.71293916666656,301.0000000000004L411.4723924999999,301.0000000000004L411.96687833333317,301.0000000000004L412.47326066666653,301.0000000000004L414.0283374999998,301.0000000000004L414.9723668333332,301.0000000000004L415.3699983333332,301.0000000000004L415.98044499999986,301.0000000000004L416.07044983333316,301.0000000000004L416.9141399999998,301.0000000000004L417.72214066666646,301.0000000000004L417.9555043333332,301.0000000000004L422.3259659999998,301.0000000000004L422.72636133333316,301.0000000000004L422.7735868333331,301.0000000000004L423.51453449999985,301.0000000000004L428.92660083333317,301.0000000000004L429.8517639999999,301.0000000000004L429.9221816666665,301.0000000000004L430.08680999999984,301.0000000000004L430.2437476666665,301.0000000000004L430.47867349999984,301.0000000000004L430.55461883333317,243.00000000000034L432.59120349999984,301.0000000000004L432.9301936666665,301.0000000000004L433.1314728333332,301.0000000000004L433.7484084999998,301.0000000000004L434.65782983333315,301.0000000000004L435.3152616666665,301.0000000000004L435.5983743333332,301.0000000000004L435.6710751666665,301.0000000000004L436.83861449999984,301.0000000000004L438.0559028333331,301.0000000000004L438.51794366666655,301.0000000000004L438.75791649999985,301.0000000000004L439.3499776666665,301.0000000000004L439.51893199999984,301.0000000000004L440.12793666666647,301.0000000000004L440.4225853333332,301.0000000000004L441.1629321666665,301.0000000000004L443.09869699999985,301.0000000000004L443.87136866666646,301.0000000000004L445.04059033333317,301.0000000000004L445.58746883333316,301.0000000000004L446.0938511666665,301.0000000000004L446.41193233333314,301.0000000000004L446.4746593333332,301.0000000000004L447.77029633333314,301.0000000000004L448.01964216666653,301.0000000000004L450.66703399999983,301.0000000000004L451.07860483333315,301.0000000000004L452.16539216666644,301.0000000000004L452.2815933333332,301.0000000000004L453.5616086666665,243.00000000000034L453.6261381666665,301.0000000000004L455.02247483333315,301.0000000000004L455.10466883333316,301.0000000000004L455.36771366666653,301.0000000000004L456.0383638333331,301.0000000000004L456.94682383333316,185.00000000000026L458.9572121666665,301.0000000000004L459.1864901666665,243.00000000000034L460.07704533333316,301.0000000000004L460.32302649999986,301.0000000000004L460.49150016666647,301.0000000000004L460.6361808333332,301.0000000000004L461.6338044999998,301.0000000000004L463.12242916666645,243.00000000000034L464.84874349999984,243.00000000000034L465.3630568333332,301.0000000000004L465.94298116666647,301.0000000000004L466.22465183333316,301.0000000000004L466.7526641666665,301.0000000000004L466.8265666666665,301.0000000000004L466.8798004999998,301.0000000000004L467.7532919999998,301.0000000000004L469.87134966666645,301.0000000000004L470.22247666666647,301.0000000000004L471.3941016666665,301.0000000000004L472.22337183333315,301.0000000000004L472.4939871666665,301.0000000000004L472.5724559999999,301.0000000000004L473.23409366666647,301.0000000000004L473.6955336666665,301.0000000000004L473.9228889999999,301.0000000000004L474.57347133333315,301.0000000000004L474.90873633333314,243.00000000000034L475.3957718333332,301.0000000000004L475.4493661666665,301.0000000000004L475.95454683333315,301.0000000000004L476.49469599999986,301.0000000000004L476.61161816666646,301.0000000000004L476.8794696666665,243.00000000000034L479.5964379999998,243.00000000000034L480.4738949999998,301.0000000000004L481.9733346666665,301.0000000000004L483.75636766666645,301.0000000000004L485.3208174999998,301.0000000000004L487.2150046666665,301.0000000000004L487.4508918333332,301.0000000000004L488.4726689999998,301.0000000000004L489.07951066666647,301.0000000000004L489.8339169999999,301.0000000000004L490.0958803333331,301.0000000000004L490.2441659999998,301.0000000000004L490.32443733333315,243.00000000000034L493.7255144999998,243.00000000000034L494.11317216666646,301.0000000000004L494.3164941666665,301.0000000000004L494.8466694999998,301.0000000000004L495.8191783333331,301.0000000000004L495.9752748333332,301.0000000000004L496.0822231666665,301.0000000000004L496.6425603333331,243.00000000000034L498.12794049999985,301.0000000000004L499.8500489999998,301.0000000000004L500.2511653333331,301.0000000000004L501.6359659999998,301.0000000000004L501.81369249999983,301.0000000000004L502.3586483333332,301.0000000000004L504.4988166666665,301.0000000000004L504.9555701666665,301.0000000000004L506.38975933333325,301.0000000000004L507.7447586666665,243.00000000000034L508.4235801666665,301.0000000000004L510.11925199999985,301.0000000000004L510.4540363333332,301.0000000000004L510.69929649999983,301.0000000000004L510.7611823333332,301.0000000000004L512.7611161666665,243.00000000000034L514.4704869999998,301.0000000000004L516.6634085,301.0000000000004L517.4371616666666,301.0000000000004L518.6872554999999,301.0000000000004L519.8227103333332,301.0000000000004L519.9366283333331,301.0000000000004L521.5229484999999,301.0000000000004L523.4012736666665,301.0000000000004L524.6661479999998,301.0000000000004L526.1803681666665,301.0000000000004L526.4142124999998,301.0000000000004L526.8183329999998,301.0000000000004L529.5970669999999,301.0000000000004L530.0920334999998,301.0000000000004L530.3652924999998,301.0000000000004L530.7803481666666,301.0000000000004L531.2272479999998,301.0000000000004L531.8434626666665,301.0000000000004L532.0031641666665,301.0000000000004L533.9211443333331,301.0000000000004L534.5700443333332,243.00000000000034L535.8843071666665,185.00000000000026L536.3717031666665,301.0000000000004L537.3133291666666,301.0000000000004L537.4785583333331,301.0000000000004L537.9729239999998,301.0000000000004L538.9036148333332,243.00000000000034L539.2975211666666,301.0000000000004L540.0716348333332,301.0000000000004L540.7493748333333,301.0000000000004L542.9407341666665,243.00000000000034L543.0837324999998,243.00000000000034L543.4002514999999,301.0000000000004L544.3933088333332,301.0000000000004L547.3794504999998,301.0000000000004L547.6004369999998,301.0000000000004L548.8971554999998,301.0000000000004L550.2650126666665,301.0000000000004L551.5459893333332,301.0000000000004L551.7346509999999,301.0000000000004L552.1360076666665,301.0000000000004L552.4847313333331,301.0000000000004L553.8876771666665,301.0000000000004L553.9645838333331,301.0000000000004L555.3601994999998,301.0000000000004L555.6340593333332,301.0000000000004L556.1782941666665,301.0000000000004L558.2951501666665,301.0000000000004L558.4556928333332,301.0000000000004L558.9677229999999,301.0000000000004L560.3594933333333,301.0000000000004L560.9892868333332,301.0000000000004L561.7125699999999,301.0000000000004L562.4065324999999,301.0000000000004L563.2597158333332,301.0000000000004L563.6621539999999,301.0000000000004L563.7338934999998,301.0000000000004L565.2815199999999,301.0000000000004L565.5963566666666,301.0000000000004L565.7726411666665,243.00000000000034L566.0791863333332,301.0000000000004L566.7596901666666,301.0000000000004L568.1712879999999,301.0000000000004L569.7703458333332,301.0000000000004L570.1476691666664,301.0000000000004L570.8246881666665,301.0000000000004L571.3594298333331,301.0000000000004L571.8476669999999,301.0000000000004L572.0628854999999,301.0000000000004L573.8500041666665,301.0000000000004L575.2719363333332,301.0000000000004L575.5925409999999,301.0000000000004L575.9908934999999,301.0000000000004L577.1495404999998,301.0000000000004L577.2983068333332,301.0000000000004L578.4871156666665,243.00000000000034L578.5970681666665,301.0000000000004L579.0208959999999,301.0000000000004L579.1888889999999,301.0000000000004L579.3676969999998,243.00000000000034L580.2721914999998,301.0000000000004L580.4017311666665,301.0000000000004L580.5591494999999,301.0000000000004L582.3550403333331,301.0000000000004L582.9676499999998,301.0000000000004L583.2044984999999,301.0000000000004L584.3941484999998,301.0000000000004L585.3262813333332,301.0000000000004L585.4832189999998,301.0000000000004L585.8808504999998,301.0000000000004L586.9001041666664,301.0000000000004L587.3169623333331,301.0000000000004L587.8714113333332,301.0000000000004L588.3390999999999,301.0000000000004L589.2910603333331,301.0000000000004L591.4574249999998,243.00000000000034L593.4243129999999,301.0000000000004L593.8064429999998,301.0000000000004L593.8716934999999,301.0000000000004L594.4478926666665,301.0000000000004L595.8324529999999,301.0000000000004L596.8257506666665,301.0000000000004L597.7916503333331,185.00000000000026L598.4071439999999,301.0000000000004L598.8100628333332,301.0000000000004L600.9185071666665,301.0000000000004L605.0768746666665,301.0000000000004L605.3736863333332,301.0000000000004L606.3638596666665,301.0000000000004L607.6479606666664,301.0000000000004L608.2716256666665,243.00000000000034L608.3472104999998,301.0000000000004L608.6494296666665,301.0000000000004L609.3498811666665,301.0000000000004L610.1694178333331,301.0000000000004L610.2292608333332,301.0000000000004L610.3143388333332,301.0000000000004L610.8967866666665,301.0000000000004L612.4960848333332,301.0000000000004L614.3392011666665,301.0000000000004L614.8797108333331,301.0000000000004L615.0871184999999,301.0000000000004L615.8888704999998,301.0000000000004L616.5185438333332,301.0000000000004L616.7197028333331,301.0000000000004L617.4432263333332,301.0000000000004L617.8570803333331,301.0000000000004L620.7339904999999,301.0000000000004L621.3833711666665,301.0000000000004L621.5171166666665,301.0000000000004L621.8150098333332,301.0000000000004L622.2459274999998,301.0000000000004L622.4552578333332,301.0000000000004L623.1554689999998,301.0000000000004L623.8122999999998,301.0000000000004L624.0540753333331,301.0000000000004L624.7008123333331,301.0000000000004L624.9654193333332,301.0000000000004L627.2815116666665,301.0000000000004L627.5485219999998,301.0000000000004L628.1131851666665,301.0000000000004L628.4852211666665,301.0000000000004L629.4060583333331,301.0000000000004L630.4191834999998,301.0000000000004L633.8891161666664,301.0000000000004L635.1681701666665,301.0000000000004L636.2829563333331,301.0000000000004L636.9152733333332,243.00000000000034L637.9804306666665,301.0000000000004L638.0429173333332,301.0000000000004L640.3168311666665,301.0000000000004L641.4355828333331,301.0000000000004L643.4871883333332,243.00000000000034L645.0954989999998,301.0000000000004L646.1647419999998,301.0000000000004L646.4396833333332,301.0000000000004L646.9491899999998,243.00000000000034L648.4093351666666,301.0000000000004L648.5791306666665,301.0000000000004L650.1375721666665,301.0000000000004L650.4975914999998,301.0000000000004L652.6262238333331,185.00000000000026L653.3014403333332,243.00000000000034L654.3733269999998,301.0000000000004L654.8497878333332,301.0000000000004L656.9560691666666,301.0000000000004L658.2068839999998,301.0000000000004L658.8688821666665,301.0000000000004L658.9511963333332,301.0000000000004L661.0006388333331,301.0000000000004L661.3619799999998,301.0000000000004L662.4896239999998,301.0000000000004L663.6253191666665,301.0000000000004L663.6873251666665,301.0000000000004L664.3733566666665,301.0000000000004L665.5841559999998,301.0000000000004L666.0693889999999,243.00000000000034L666.8692183333332,301.0000000000004L667.7242041666665,301.0000000000004L667.9616534999999,301.0000000000004L668.0800176666665,301.0000000000004L669.8256788333332,243.00000000000034L670.0532744999998,301.0000000000004L670.9083804999998,243.00000000000034L672.0806063333332,301.0000000000004L674.2114016666665,301.0000000000004L675.4506804999997,301.0000000000004L676.4557544999998,301.0000000000004L678.0870169999998,301.0000000000004L679.0682979999998,243.00000000000034L679.1777698333332,301.0000000000004L679.6726161666664,301.0000000000004L680.3104608333332,243.00000000000034L680.6746859999998,301.0000000000004L680.7834368333331,301.0000000000004L680.8301816666665,301.0000000000004L683.0483381666664,417.0000000000006L683.1418278333332,301.0000000000004L683.5398198333331,185.00000000000026L683.7848396666665,185.00000000000026L684.5881538333331,301.0000000000004L684.9369976666665,301.0000000000004L687.6354603333332,301.0000000000004L687.7266668333332,301.0000000000004L688.4205091666664,301.0000000000004L688.6855968333331,301.0000000000004L689.2702076666665,301.0000000000004L690.1279573333331,301.0000000000004L690.2162798333331,301.0000000000004L690.4250093333332,301.0000000000004L690.9792179999998,243.00000000000034L691.4979774999998,185.00000000000026L691.8576363333331,301.0000000000004L692.0376459999998,301.0000000000004L693.5952463333331,301.0000000000004L694.0395024999998,301.0000000000004L694.1417643333332,301.0000000000004L694.8536316666665,243.00000000000034L696.6379864999998,301.0000000000004L698.1597771666665,301.0000000000004L700.7772474999998,301.0000000000004L702.8838893333332,301.0000000000004L704.1548921666665,301.0000000000004L704.4310351666664,301.0000000000004L707.4877146666664,301.0000000000004L707.6304726666665,243.00000000000034L709.1669236666664,301.0000000000004L709.2648594999998,301.0000000000004L710.2692124999998,301.0000000000004L710.5453554999998,301.0000000000004L710.7355793333331,301.0000000000004L711.7524296666664,301.0000000000004L712.2303324999998,301.0000000000004L712.4822018333332,301.0000000000004L712.8598856666664,301.0000000000004L714.5008816666665,301.0000000000004L714.6019418333332,301.0000000000004L714.9903204999998,301.0000000000004L715.3140494999998,243.00000000000034L715.5144874999999,243.00000000000034L716.8830656666664,243.00000000000034L717.2377976666666,243.00000000000034L718.1991309999999,301.0000000000004L718.4645791666665,301.0000000000004L720.1846448333332,301.0000000000004L720.9158589999998,243.00000000000034L721.8680596666665,301.0000000000004L721.9740466666666,301.0000000000004L722.9824853333331,301.0000000000004L725.0244774999998,301.0000000000004L725.4050453333332,301.0000000000004L726.7185871666665,301.0000000000004L730.4572124999999,243.00000000000034L730.5337586666665,301.0000000000004L730.9770534999998,301.0000000000004L731.4375321666665,301.0000000000004L733.0553359999998,301.0000000000004L733.6339384999998,301.0000000000004L738.0464584999999,301.0000000000004L738.9648923333332,243.00000000000034L739.8508811666665,301.0000000000004L739.9678033333331,301.0000000000004L741.6914739999997,301.0000000000004L742.9127278333332,301.0000000000004L743.4743868333333,301.0000000000004L744.5156309999998,301.0000000000004L745.7898783333331,301.0000000000004L746.1416061666665,243.00000000000034L746.3205343333332,301.0000000000004L746.7303026666665,301.0000000000004L747.5154716666664,301.0000000000004L753.4191398333331,301.0000000000004L753.9386203333331,301.0000000000004L754.0258613333331,301.0000000000004L755.9068301666665,301.0000000000004L756.5530864999998,243.00000000000034L758.9447636666664,301.0000000000004L759.4446569999998,301.0000000000004L760.6065484999997,301.0000000000004L760.9517873333331,301.0000000000004L762.3893411666664,301.0000000000004L762.8214604999998,301.0000000000004L764.178983333333,301.0000000000004L766.2052336666665,301.0000000000004L767.2210024999997,301.0000000000004L769.0183353333331,301.0000000000004L769.220936333333,301.0000000000004L770.2189204999999,301.0000000000004L771.2574008333331,301.0000000000004L772.0554276666663,301.0000000000004L774.4502291666665,301.0000000000004L774.6352858333331,301.0000000000004L774.9709113333331,301.0000000000004L775.2295099999998,301.0000000000004L776.0200864999998,243.00000000000034L777.3965956666665,301.0000000000004L777.4868408333331,301.0000000000004L778.3610533333331,243.00000000000034L778.7657746666665,301.0000000000004L779.2529303333331,301.0000000000004L780.0111819999997,301.0000000000004L780.1915521666665,301.0000000000004L785.8047774999998,301.0000000000004L787.049103333333,301.0000000000004L787.4355593333331,243.00000000000034L788.0736443333332,243.00000000000034L790.3891358333331,243.00000000000034L790.8759309999997,301.0000000000004L791.0292636666663,301.0000000000004L791.3879611666664,301.0000000000004L792.4684998333331,301.0000000000004L792.8625263333331,301.0000000000004L793.5948219999997,301.0000000000004L794.6683909999998,301.0000000000004L794.8316974999997,301.0000000000004L795.6749069999997,301.0000000000004L796.1061851666665,301.0000000000004L796.2215451666665,301.0000000000004L797.6796474999998,301.0000000000004L801.5330319999998,301.0000000000004L803.6652693333332,301.0000000000004L804.7030286666665,301.0000000000004L805.3353456666665,301.0000000000004L807.1066023333331,243.00000000000034L808.3663094999997,301.0000000000004L810.4515616666665,301.0000000000004L812.1338949999998,301.0000000000004L813.3737746666663,301.0000000000004L813.5015118333331,301.0000000000004L814.5279754999998,301.0000000000004L819.8594099999998,301.0000000000004L820.246106333333,243.00000000000034L820.465650833333,301.0000000000004L820.8251894999999,301.0000000000004L820.9547291666663,301.0000000000004L821.3522404999998,301.0000000000004L826.5411573333331,301.0000000000004L828.9249034999998,301.0000000000004L833.5832844999996,243.00000000000034L834.4508878333331,243.00000000000034L835.2276451666664,301.0000000000004L838.1284684999997,301.0000000000004L838.9586999999998,301.0000000000004L840.8670668333331,301.0000000000004L841.2955811666665,301.0000000000004L841.9987964999998,243.00000000000034L845.2128943333331,301.0000000000004L847.1440928333332,301.0000000000004L849.9150159999997,243.00000000000034L850.0348221666665,301.0000000000004L851.6136919999998,243.00000000000034L852.184964333333,301.0000000000004L852.8529708333331,301.0000000000004L855.7412968333331,301.0000000000004L856.0534898333332,301.0000000000004L856.5323539999998,243.00000000000034L861.220536333333,185.00000000000026L861.5065329999998,301.0000000000004L862.5144909999998,243.00000000000034L863.9912191666664,185.00000000000026L865.3235069999997,301.0000000000004L865.9381594999996,243.00000000000034L869.2217136666665,301.0000000000004L870.323882333333,243.00000000000034L872.3790928333332,301.0000000000004L872.7708361666664,301.0000000000004L873.9576021666664,301.0000000000004L874.9380419999998,243.00000000000034L875.8382104999998,301.0000000000004L876.3283703333332,301.0000000000004L879.4363609999997,301.0000000000004L879.5582099999998,301.0000000000004L885.3319779999998,243.00000000000034L887.2391431666665,127.00000000000017L889.7359661666665,301.0000000000004L892.1942156666664,301.0000000000004L897.756129833333,185.00000000000026L902.3392864999998,301.0000000000004L902.4488784999998,301.0000000000004L912.2726236666665,301.0000000000004L912.6331236666664,243.00000000000034L914.3811881666664,301.0000000000004L929.8179183333331,185.00000000000026L930.526300833333,127.00000000000017L932.9828679999998,127.00000000000017L934.0643679999997,185.00000000000026L936.5251409999997,127.00000000000017L945.2365033333331,185.00000000000026L951.825361833333,185.00000000000026L955.2173063333331,243.00000000000034L960.6893358333331,69.00000000000007L961.2214338333331,301.0000000000004L961.8651666666664,243.00000000000034L963.5325993333331,69.00000000000007L974.073619333333,243.00000000000034L975.8761193333331,243.00000000000034L979.4952989999998,185.00000000000026L979.7985996666664,243.00000000000034L980.1590996666664,127.00000000000017L981.184842333333,301.0000000000004L985.7468496666663,301.0000000000004L995.011819833333,301.0000000000004L996.0155719999998,185.00000000000026L1002.1060993333331,185.00000000000026L1003.7278686666664,243.00000000000034L1004.0883686666663,185.00000000000026L1012.7587541666663,69.00000000000007L1015.3765849999997,243.00000000000034L1017.8689618333331,185.00000000000026L1028.8531564999996,69.00000000000007L1036.3317289999998,243.00000000000034L1036.6922289999998,-47.00000000000006L1039.9367289999998,127.00000000000017L1042.3467916666664,243.00000000000034L1043.4178371666665,301.0000000000004L1045.912256833333,69.00000000000007L1046.850638333333,127.00000000000017L1053.585499333333,301.0000000000004L1054.666999333333,127.00000000000017L1058.632499333333,127.00000000000017L1062.3240193333331,127.00000000000017L1065.8405766666665,127.00000000000017L1066.5615766666663,69.00000000000007L1066.9220766666663,185.00000000000026L1068.0035766666663,185.00000000000026L1076.384600833333,127.00000000000017L1078.145643333333,243.00000000000034L1078.3881396666663,301.0000000000004L1079.8301396666664,185.00000000000026L1086.3676869999997,69.00000000000007L1086.7281869999997,243.00000000000034L1089.9164489999996,301.0000000000004L1092.8004489999996,69.00000000000007L1096.946439333333,69.00000000000007L1110.957271833333,185.00000000000026L1113.922384333333,127.00000000000017L1114.2828843333332,127.00000000000017L1116.3179068333332,185.00000000000026L1117.038906833333,69.00000000000007L1120.0138729999996,69.00000000000007L1132.0554141666662,127.00000000000017L1142.1154069999998,69.00000000000007L1143.1054601666665,69.00000000000007L1144.1750636666663,301.0000000000004L1147.3416956666663,69.00000000000007L1156.8519259999996,185.00000000000026L1165.788600833333,127.00000000000017L1169.393600833333,127.00000000000017L1188.7226494999995,69.00000000000007L1190.8060991666664,69.00000000000007L1192.2480991666664,127.00000000000017L1193.1101748333328,301.0000000000004L1197.1011501666665,69.00000000000007L1202.7855141666664,10.99999999999999L1203.5065141666662,185.00000000000026L1205.3090141666664,127.00000000000017L1216.114761333333,185.00000000000026L1217.5421009999998,301.0000000000004L1217.9026009999995,127.00000000000017L1218.561474833333,301.0000000000004L1222.6338029999997,185.00000000000026L1223.3548029999997,127.00000000000017L1228.0349341666663,10.99999999999999L1231.6365694999997,301.0000000000004L1236.2819724999997,243.00000000000034L1238.0844724999995,69.00000000000007L1238.4449724999997,10.99999999999999L1243.6179071666663,301.0000000000004L1245.7809071666663,185.00000000000026L1249.3859071666664,127.00000000000017L1257.7847159999997,185.00000000000026L1263.555479833333,10.99999999999999L1266.439479833333,127.00000000000017L1271.4748236666662,69.00000000000007L1282.6002141666663,69.00000000000007L1285.2342674999998,127.00000000000017L1286.3157674999998,243.00000000000034L1289.1997674999998,10.99999999999999L1294.7998946666662,185.00000000000026L1296.2158184999996,69.00000000000007L1298.0183184999996,10.99999999999999L1298.7393184999996,69.00000000000007L1299.4603184999996,69.00000000000007L1300.528720333333,127.00000000000017L1312.7887244999997,185.00000000000026L1313.5097244999995,127.00000000000017" fill="none"></path></g></g></g></g></g></g><g transform="translate(50, 377)" clip-path="url(#clip_1)"><clipPath id="clip_1"><rect width="1442" height="23"></rect></clipPath><g><g><line x1="112.16666666666663" y1="0" x2="112.16666666666663" y2="5" style="visibility: inherit;" fill="rgb(0, 0, 0)" stroke="rgb(204, 204, 204)" stroke-width="1px"></line><line x1="232.33333333333326" y1="0" x2="232.33333333333326" y2="5" style="visibility: inherit;" fill="rgb(0, 0, 0)" stroke="rgb(204, 204, 204)" stroke-width="1px"></line><line x1="352.4999999999999" y1="0" x2="352.4999999999999" y2="5" style="visibility: inherit;" fill="rgb(0, 0, 0)" stroke="rgb(204, 204, 204)" stroke-width="1px"></line><line x1="472.66666666666646" y1="0" x2="472.66666666666646" y2="5" style="visibility: inherit;" fill="rgb(0, 0, 0)" stroke="rgb(204, 204, 204)" stroke-width="1px"></line><line x1="592.8333333333333" y1="0" x2="592.8333333333333" y2="5" style="visibility: inherit;" fill="rgb(0, 0, 0)" stroke="rgb(204, 204, 204)" stroke-width="1px"></line><line x1="712.9999999999999" y1="0" x2="712.9999999999999" y2="5" style="visibility: inherit;" fill="rgb(0, 0, 0)" stroke="rgb(204, 204, 204)" stroke-width="1px"></line><line x1="833.1666666666664" y1="0" x2="833.1666666666664" y2="5" style="visibility: inherit;" fill="rgb(0, 0, 0)" stroke="rgb(204, 204, 204)" stroke-width="1px"></line><line x1="953.3333333333331" y1="0" x2="953.3333333333331" y2="5" style="visibility: inherit;" fill="rgb(0, 0, 0)" stroke="rgb(204, 204, 204)" stroke-width="1px"></line><line x1="1073.4999999999998" y1="0" x2="1073.4999999999998" y2="5" style="visibility: inherit;" fill="rgb(0, 0, 0)" stroke="rgb(204, 204, 204)" stroke-width="1px"></line><line x1="1193.6666666666665" y1="0" x2="1193.6666666666665" y2="5" style="visibility: inherit;" fill="rgb(0, 0, 0)" stroke="rgb(204, 204, 204)" stroke-width="1px"></line><line x1="1313.833333333333" y1="0" x2="1313.833333333333" y2="5" style="visibility: inherit;" fill="rgb(0, 0, 0)" stroke="rgb(204, 204, 204)" stroke-width="1px"></line><line x1="1433.9999999999995" y1="0" x2="1433.9999999999995" y2="5" style="visibility: inherit;" fill="rgb(0, 0, 0)" stroke="rgb(204, 204, 204)" stroke-width="1px"></line></g><g transform="translate(0, 8)"><text x="112.16666666666663" y="0" dx="0em" dy="0.95em" style="text-anchor: middle; visibility: inherit; font-family: Roboto, sans-serif; font-size: 12px; font-weight: 200;" fill="rgb(33, 33, 33)" stroke="none" stroke-width="1px">0</text><text x="232.33333333333326" y="0" dx="0em" dy="0.95em" style="text-anchor: middle; visibility: inherit; font-family: Roboto, sans-serif; font-size: 12px; font-weight: 200;" fill="rgb(33, 33, 33)" stroke="none" stroke-width="1px">1M</text><text x="352.4999999999999" y="0" dx="0em" dy="0.95em" style="text-anchor: middle; visibility: inherit; font-family: Roboto, sans-serif; font-size: 12px; font-weight: 200;" fill="rgb(33, 33, 33)" stroke="none" stroke-width="1px">2M</text><text x="472.66666666666646" y="0" dx="0em" dy="0.95em" style="text-anchor: middle; visibility: inherit; font-family: Roboto, sans-serif; font-size: 12px; font-weight: 200;" fill="rgb(33, 33, 33)" stroke="none" stroke-width="1px">3M</text><text x="592.8333333333333" y="0" dx="0em" dy="0.95em" style="text-anchor: middle; visibility: inherit; font-family: Roboto, sans-serif; font-size: 12px; font-weight: 200;" fill="rgb(33, 33, 33)" stroke="none" stroke-width="1px">4M</text><text x="712.9999999999999" y="0" dx="0em" dy="0.95em" style="text-anchor: middle; visibility: inherit; font-family: Roboto, sans-serif; font-size: 12px; font-weight: 200;" fill="rgb(33, 33, 33)" stroke="none" stroke-width="1px">5M</text><text x="833.1666666666664" y="0" dx="0em" dy="0.95em" style="text-anchor: middle; visibility: inherit; font-family: Roboto, sans-serif; font-size: 12px; font-weight: 200;" fill="rgb(33, 33, 33)" stroke="none" stroke-width="1px">6M</text><text x="953.3333333333331" y="0" dx="0em" dy="0.95em" style="text-anchor: middle; visibility: inherit; font-family: Roboto, sans-serif; font-size: 12px; font-weight: 200;" fill="rgb(33, 33, 33)" stroke="none" stroke-width="1px">7M</text><text x="1073.4999999999998" y="0" dx="0em" dy="0.95em" style="text-anchor: middle; visibility: inherit; font-family: Roboto, sans-serif; font-size: 12px; font-weight: 200;" fill="rgb(33, 33, 33)" stroke="none" stroke-width="1px">8M</text><text x="1193.6666666666665" y="0" dx="0em" dy="0.95em" style="text-anchor: middle; visibility: inherit; font-family: Roboto, sans-serif; font-size: 12px; font-weight: 200;" fill="rgb(33, 33, 33)" stroke="none" stroke-width="1px">9M</text><text x="1313.833333333333" y="0" dx="0em" dy="0.95em" style="text-anchor: middle; visibility: inherit; font-family: Roboto, sans-serif; font-size: 12px; font-weight: 200;" fill="rgb(33, 33, 33)" stroke="none" stroke-width="1px">10M</text><text x="1433.9999999999995" y="0" dx="0em" dy="0.95em" style="text-anchor: middle; visibility: hidden; font-family: Roboto, sans-serif; font-size: 12px; font-weight: 200;" fill="rgb(33, 33, 33)" stroke="none" stroke-width="1px">11M</text></g><line x1="0" y1="0" x2="1442" y2="0" fill="rgb(0, 0, 0)" stroke="rgb(204, 204, 204)" stroke-width="1px"></line></g></g></g></g></svg>