<svg viewBox="0 0 1492 400" xmlns="http://www.w3.org/2000/svg"><g><g><g><g><g><line x1="50" y1="377" x2="45" y2="377" style="visibility: inherit;" fill="rgb(0, 0, 0)" stroke="rgb(204, 204, 204)" stroke-width="1px"></line><line x1="50" y1="342.72727272727275" x2="45" y2="342.72727272727275" style="visibility: inherit;" fill="rgb(0, 0, 0)" stroke="rgb(204, 204, 204)" stroke-width="1px"></line><line x1="50" y1="308.45454545454544" x2="45" y2="308.45454545454544" style="visibility: inherit;" fill="rgb(0, 0, 0)" stroke="rgb(204, 204, 204)" stroke-width="1px"></line><line x1="50" y1="274.1818181818182" x2="45" y2="274.1818181818182" style="visibility: inherit;" fill="rgb(0, 0, 0)" stroke="rgb(204, 204, 204)" stroke-width="1px"></line><line x1="50" y1="239.9090909090909" x2="45" y2="239.9090909090909" style="visibility: inherit;" fill="rgb(0, 0, 0)" stroke="rgb(204, 204, 204)" stroke-width="1px"></line><line x1="50" y1="205.63636363636363" x2="45" y2="205.63636363636363" style="visibility: inherit;" fill="rgb(0, 0, 0)" stroke="rgb(204, 204, 204)" stroke-width="1px"></line><line x1="50" y1="171.36363636363635" x2="45" y2="171.36363636363635" style="visibility: inherit;" fill="rgb(0, 0, 0)" stroke="rgb(204, 204, 204)" stroke-width="1px"></line><line x1="50" y1="137.09090909090915" x2="45" y2="137.09090909090915" style="visibility: inherit;" fill="rgb(0, 0, 0)" stroke="rgb(204, 204, 204)" stroke-width="1px"></line><line x1="50" y1="102.81818181818181" x2="45" y2="102.81818181818181" style="visibility: inherit;" fill="rgb(0, 0, 0)" stroke="rgb(204, 204, 204)" stroke-width="1px"></line><line x1="50" y1="68.54545454545458" x2="45" y2="68.54545454545458" style="visibility: inherit;" fill="rgb(0, 0, 0)" stroke="rgb(204, 204, 204)" stroke-width="1px"></line><line x1="50" y1="34.27272727272729" x2="45" y2="34.27272727272729" style="visibility: inherit;" fill="rgb(0, 0, 0)" stroke="rgb(204, 204, 204)" stroke-width="1px"></line><line x1="50" y1="0" x2="45" y2="0" style="visibility: inherit;" fill="rgb(0, 0, 0)" stroke="rgb(204, 204, 204)" stroke-width="1px"></line></g><g transform="translate(40, 0)"><text x="0" y="377" dx="0em" dy="0.3em" style="text-anchor: end; visibility: hidden; font-family: Roboto, sans-serif; font-size: 12px; font-weight: 200;" fill="rgb(33, 33, 33)" stroke="none" stroke-width="1px">-1.8</text><text x="0" y="342.72727272727275" dx="0em" dy="0.3em" style="text-anchor: end; visibility: inherit; font-family: Roboto, sans-serif; font-size: 12px; font-weight: 200;" fill="rgb(33, 33, 33)" stroke="none" stroke-width="1px">-1.6</text><text x="0" y="308.45454545454544" dx="0em" dy="0.3em" style="text-anchor: end; visibility: inherit; font-family: Roboto, sans-serif; font-size: 12px; font-weight: 200;" fill="rgb(33, 33, 33)" stroke="none" stroke-width="1px">-1.4</text><text x="0" y="274.1818181818182" dx="0em" dy="0.3em" style="text-anchor: end; visibility: inherit; font-family: Roboto, sans-serif; font-size: 12px; font-weight: 200;" fill="rgb(33, 33, 33)" stroke="none" stroke-width="1px">-1.2</text><text x="0" y="239.9090909090909" dx="0em" dy="0.3em" style="text-anchor: end; visibility: inherit; font-family: Roboto, sans-serif; font-size: 12px; font-weight: 200;" fill="rgb(33, 33, 33)" stroke="none" stroke-width="1px">-1</text><text x="0" y="205.63636363636363" dx="0em" dy="0.3em" style="text-anchor: end; visibility: inherit; font-family: Roboto, sans-serif; font-size: 12px; font-weight: 200;" fill="rgb(33, 33, 33)" stroke="none" stroke-width="1px">-0.8</text><text x="0" y="171.36363636363635" dx="0em" dy="0.3em" style="text-anchor: end; visibility: inherit; font-family: Roboto, sans-serif; font-size: 12px; font-weight: 200;" fill="rgb(33, 33, 33)" stroke="none" stroke-width="1px">-0.6</text><text x="0" y="137.09090909090915" dx="0em" dy="0.3em" style="text-anchor: end; visibility: inherit; font-family: Roboto, sans-serif; font-size: 12px; font-weight: 200;" fill="rgb(33, 33, 33)" stroke="none" stroke-width="1px">-0.4</text><text x="0" y="102.81818181818181" dx="0em" dy="0.3em" style="text-anchor: end; visibility: inherit; font-family: Roboto, sans-serif; font-size: 12px; font-weight: 200;" fill="rgb(33, 33, 33)" stroke="none" stroke-width="1px">-0.2</text><text x="0" y="68.54545454545458" dx="0em" dy="0.3em" style="text-anchor: end; visibility: inherit; font-family: Roboto, sans-serif; font-size: 12px; font-weight: 200;" fill="rgb(33, 33, 33)" stroke="none" stroke-width="1px">0</text><text x="0" y="34.27272727272729" dx="0em" dy="0.3em" style="text-anchor: end; visibility: inherit; font-family: Roboto, sans-serif; font-size: 12px; font-weight: 200;" fill="rgb(33, 33, 33)" stroke="none" stroke-width="1px">0.2</text><text x="0" y="0" dx="0em" dy="0.3em" style="text-anchor: end; visibility: hidden; font-family: Roboto, sans-serif; font-size: 12px; font-weight: 200;" fill="rgb(33, 33, 33)" stroke="none" stroke-width="1px">0.4</text></g><line x1="50" y1="0" x2="50" y2="377" fill="rgb(0, 0, 0)" stroke="rgb(204, 204, 204)" stroke-width="1px"></line></g></g><g transform="translate(50, 0)" clip-path="url(#clip_0)"><clipPath id="clip_0"><rect width="1442" height="377"></rect></clipPath><g><g><g><line x1="0" y1="0" x2="0" y2="377" fill="rgb(0, 0, 0)" stroke="rgb(66, 66, 66)" stroke-width="1px" opacity="0.25"></line><line x1="120.16666666666666" y1="0" x2="120.16666666666666" y2="377" fill="rgb(0, 0, 0)" stroke="rgb(66, 66, 66)" stroke-width="1px" opacity="0.25"></line><line x1="240.33333333333331" y1="0" x2="240.33333333333331" y2="377" fill="rgb(0, 0, 0)" stroke="rgb(66, 66, 66)" stroke-width="1px" opacity="0.25"></line><line x1="360.5" y1="0" x2="360.5" y2="377" fill="rgb(0, 0, 0)" stroke="rgb(66, 66, 66)" stroke-width="1px" opacity="0.25"></line><line x1="480.66666666666663" y1="0" x2="480.66666666666663" y2="377" fill="rgb(0, 0, 0)" stroke="rgb(66, 66, 66)" stroke-width="1px" opacity="0.25"></line><line x1="600.8333333333334" y1="0" x2="600.8333333333334" y2="377" fill="rgb(0, 0, 0)" stroke="rgb(66, 66, 66)" stroke-width="1px" opacity="0.25"></line><line x1="721" y1="0" x2="721" y2="377" fill="rgb(0, 0, 0)" stroke="rgb(66, 66, 66)" stroke-width="1px" opacity="0.25"></line><line x1="841.1666666666667" y1="0" x2="841.1666666666667" y2="377" fill="rgb(0, 0, 0)" stroke="rgb(66, 66, 66)" stroke-width="1px" opacity="0.25"></line><line x1="961.3333333333333" y1="0" x2="961.3333333333333" y2="377" fill="rgb(0, 0, 0)" stroke="rgb(66, 66, 66)" stroke-width="1px" opacity="0.25"></line><line x1="1081.5" y1="0" x2="1081.5" y2="377" fill="rgb(0, 0, 0)" stroke="rgb(66, 66, 66)" stroke-width="1px" opacity="0.25"></line><line x1="1201.6666666666667" y1="0" x2="1201.6666666666667" y2="377" fill="rgb(0, 0, 0)" stroke="rgb(66, 66, 66)" stroke-width="1px" opacity="0.25"></line><line x1="1321.8333333333333" y1="0" x2="1321.8333333333333" y2="377" fill="rgb(0, 0, 0)" stroke="rgb(66, 66, 66)" stroke-width="1px" opacity="0.25"></line><line x1="1442" y1="0" x2="1442" y2="377" fill="rgb(0, 0, 0)" stroke="rgb(66, 66, 66)" stroke-width="1px" opacity="0.25"></line></g><g><line x1="0" y1="377" x2="1442" y2="377" fill="rgb(0, 0, 0)" stroke="rgb(66, 66, 66)" stroke-width="1px" opacity="0.25"></line><line x1="0" y1="342.72727272727275" x2="1442" y2="342.72727272727275" fill="rgb(0, 0, 0)" stroke="rgb(66, 66, 66)" stroke-width="1px" opacity="0.25"></line><line x1="0" y1="308.45454545454544" x2="1442" y2="308.45454545454544" fill="rgb(0, 0, 0)" stroke="rgb(66, 66, 66)" stroke-width="1px" opacity="0.25"></line><line x1="0" y1="274.1818181818182" x2="1442" y2="274.1818181818182" fill="rgb(0, 0, 0)" stroke="rgb(66, 66, 66)" stroke-width="1px" opacity="0.25"></line><line x1="0" y1="239.9090909090909" x2="1442" y2="239.9090909090909" fill="rgb(0, 0, 0)" stroke="rgb(66, 66, 66)" stroke-width="1px" opacity="0.25"></line><line x1="0" y1="205.63636363636363" x2="1442" y2="205.63636363636363" fill="rgb(0, 0, 0)" stroke="rgb(66, 66, 66)" stroke-width="1px" opacity="0.25"></line><line x1="0" y1="171.36363636363635" x2="1442" y2="171.36363636363635" fill="rgb(0, 0, 0)" stroke="rgb(66, 66, 66)" stroke-width="1px" opacity="0.25"></line><line x1="0" y1="137.09090909090915" x2="1442" y2="137.09090909090915" fill="rgb(0, 0, 0)" stroke="rgb(66, 66, 66)" stroke-width="1px" opacity="0.25"></line><line x1="0" y1="102.81818181818181" x2="1442" y2="102.81818181818181" fill="rgb(0, 0, 0)" stroke="rgb(66, 66, 66)" stroke-width="1px" opacity="0.25"></line><line x1="0" y1="68.54545454545458" x2="1442" y2="68.54545454545458" fill="rgb(0, 0, 0)" stroke="rgb(66, 66, 66)" stroke-width="1px" opacity="0.25"></line><line x1="0" y1="34.27272727272729" x2="1442" y2="34.27272727272729" fill="rgb(0, 0, 0)" stroke="rgb(66, 66, 66)" stroke-width="1px" opacity="0.25"></line><line x1="0" y1="0" x2="1442" y2="0" fill="rgb(0, 0, 0)" stroke="rgb(66, 66, 66)" stroke-width="1px" opacity="0.25"></line></g></g></g><g><g><line x1="0" y1="68.54545454545458" x2="1442" y2="68.54545454545458" fill="rgb(0, 0, 0)" stroke="rgb(153, 153, 153)" stroke-width="1.5px"></line></g></g><g><g><line x1="120.16666666666666" y1="0" x2="120.16666666666666" y2="377" fill="rgb(0, 0, 0)" stroke="rgb(153, 153, 153)" stroke-width="1.5px"></line></g></g><g><g><g><g><g><path stroke="rgb(255, 112, 67)" stroke-width="2px" d="M120.4520625,125.89998323267156L121.66093916666667,164.998901873827L122.86621083333334,148.53516767811246L124.19946,162.40279776588045L124.65128666666666,174.45876541705917L125.73098416666667,191.8342889277935L126.75600583333333,183.3846952315487L127.35864166666667,193.1609772913473L129.85029749999998,218.0120260824314L132.22118583333332,207.81706948161568L132.50778333333332,197.42361220604246L133.58387583333334,206.12561147960812L135.02407333333335,183.5323584216775L135.34011166666667,197.36819465442485L139.35548083333333,194.84529578241322L140.10351833333334,192.1085907725869L141.76902833333332,230.90695162963107L142.19321666666667,256.72298070161736L142.8571375,289.3791681591058L143.50363416666667,238.054843586396L146.38703333333333,216.6785783086865L146.59972833333333,218.95186053202116L148.053745,226.34790734835568L151.95495583333334,225.284607680322L154.12696833333334,216.00938579694258L155.4638225,206.67133730809022L158.93363499999998,255.78966289036356L160.29512333333335,220.54072948484904L160.43571833333334,234.75019368924538L160.6874675,206.0103703725339L162.61974750000002,216.54179718533084L163.08359083333335,230.83230870732928L164.03350833333334,221.05391414042577L168.46825916666666,248.26138535220494L171.291575,226.2211794564055L172.30758416666666,207.04596381348793L172.358655,214.71818576845914L172.675895,235.49522297756536L173.122915,216.84263437891613L173.85953666666666,237.12696776335426L176.58611833333333,215.79428261270235L178.02811833333334,224.0868826923673L179.33372916666667,236.4339442722087L181.41802,237.13508033760758L182.8546125,248.27151710457605L183.7198125,249.9258674803254L184.95933166666666,261.7710972673971L185.4093558333333,276.2321357888525L187.05383666666665,240.86130273396353L189.5743325,236.23876450740826L190.49300666666664,207.93321990796954L191.17975916666666,232.2938201634722L192.98346083333334,212.7929561110449L198.31826,197.52233468451433L199.40276416666666,222.60583427200035L200.91265833333333,232.4575859141075L200.96372916666664,207.817111382419L203.95287499999998,228.15520511025332L204.2689133333333,209.97025100832255L204.31698,222.64444560836495L204.73455916666666,241.42956793164075L206.02154416666667,246.17929349942835L206.858505,254.18193037544722L208.30711416666668,230.61097876786377L210.74769916666668,236.48339015687114L211.05893083333333,260.2700212125837L214.57620916666664,229.75408089905127L214.87242,224.58405807681547L216.45201083333333,243.3951888310608L217.976325,226.269862303434L218.2809475,255.83379552051588L219.663465,248.2464865739437L220.64702916666667,232.1869804666704L223.31172499999997,251.89896809983756L224.09461083333332,259.31747447534775L224.16731166666665,263.49750508933073L224.44549750000002,241.96484570435877L227.536785,225.2042618058238L230.28259333333332,250.2671358091357L230.47906583333332,265.83268242386225L232.06166083333332,255.18441808569415L232.57717583333334,231.76792470532538L232.6072175,214.22704385795203L234.52868249999997,234.116302107604L237.508215,224.79187565950633L237.57010083333336,212.65604032873503L237.70168333333334,220.13698978196126L238.36680583333333,246.7135279008887L239.90553999999997,268.3584108164124L240.46070999999998,257.27635349963106L241.17570166666664,247.50069074385493L244.00502583333332,259.4525020307218L245.59002416666667,237.71968653226477L245.70177916666668,220.54525643623438L246.3350575,252.10570846167604L246.45702666666668,250.09517192398494L249.91902833333333,252.84047706078655L249.96108666666666,240.6943693543905L249.97851083333336,236.76067394689957L251.06902333333332,242.61945219768106L252.05859583333333,228.08948725313664L252.267085,242.07691309904942L252.50982166666665,232.1983526807562L254.4757483333333,237.01192248342736L255.26163833333334,249.7077520160574L256.1040066666667,218.07152973389452L256.16288833333334,219.7808683517489L256.8033766666666,227.8680455263747L257.9323425,227.04374834049415L259.59665083333334,207.44844487669L261.49228,212.1099124285206L263.19383999999997,247.61205291129713L263.96951583333333,328.6966406785105L264.4237458333333,280.2206376677708L265.28714333333335,252.12225419795254L265.346025,257.1562386771078L265.60738749999996,245.31984157464933L265.77381833333334,267.80842173864755L268.00230916666663,261.2274275977359L268.87772333333334,276.08522766258716L269.75073416666663,262.3420636782269L270.1809308333333,274.14646380501136L270.897725,278.76525806455646L271.1681,276.20994683490943L271.6169225,239.59154860336903L272.44186666666667,226.43543886799847L274.5483883333333,231.1654875821696L276.9565283333333,228.5771539168742L277.89322749999997,214.181318789878L277.9448991666667,197.56664642267572L279.7492016666667,217.40007261271077L282.74856166666666,209.0611024196488L282.909585,244.07626568214988L283.0243441666667,238.62201093776974L286.86186666666663,205.36855582030438L287.7270666666667,205.7198082620177L287.8286075,193.3062854406888L291.3362725,226.63832711400883L291.727415,250.32281260893845L297.6582408333333,231.56488032192922L297.75737833333335,214.63435501269876L299.91737416666666,225.56805895162506L300.10783833333335,204.89217303358515L305.47087666666664,233.52903284798592L305.830175,227.2345081978905L306.37513083333334,233.2621349299634L309.0037766666667,233.9221711649219L309.53130833333336,238.1279342945647L311.7297575,214.46260180765148L312.09446333333335,230.41923072643243L312.398485,208.88182494303246L313.26488666666665,201.5766412246592L315.01992083333334,222.3157642218852L315.25124166666666,225.15384612770092L318.47050666666667,214.2704336628065L318.64114333333333,241.2346584267627L319.024475,225.18024412577432L319.4264325,206.97753025273624L320.39918166666666,246.51065563125044L321.1147741666667,256.6188707246504L322.2827941666667,245.64182639574645L323.6911475,224.13314780376828L323.78367583333335,249.74417629274848L326.292155,260.4310666554431L327.287135,237.2735374351299L327.6224,259.12783535274326L329.3678208333333,257.09339150920624L330.07079583333336,255.60669365605781L336.3410925,225.31098603654547L339.07127916666667,224.79434398625926L341.4637975,209.5107792193028L342.97849833333333,195.78403401221829L345.80962500000004,225.94137179976482L348.3805908333333,231.394667400763L350.23296,243.78855575606508L351.7927233333333,254.18201690388707L353.0779058333333,266.8663985708642L354.26094666666665,259.2234926688247L355.225885,265.8166468985693L357.4441616666667,279.0731026634627L357.8605391666667,283.62618970088306L358.61338333333333,255.2767330924671L359.00452583333333,266.5658268566566L359.25988,267.7466556115151L359.4166975,263.1397842120864L360.6195658333333,259.5985341715223L362.3691925,265.1961593667024L364.0136733333333,281.75196490955835L367.2641816666666,257.8283273312164L367.75626416666665,225.02438674222248L368.67794250000003,194.92588062414202L369.5227141666667,204.99031416319468L369.8952308333333,179.6139289331269L370.1770216666667,194.17444452865644L372.02878999999996,234.1444035082844L373.4371433333333,252.98033498854886L374.0229558333333,267.92168133391357L375.89274916666665,285.04250468897146L376.7567475,253.9586268657774L378.60431,267.2759082552392L379.7705275,282.91087830393195L382.2567758333333,236.28242643508884L383.51732416666664,216.1822326216748L383.82795500000003,215.3480968755492L385.88580916666666,208.50272176646152L386.1177308333333,242.43377930132507L386.36887916666666,226.95295464141128L389.9396316666667,233.70010641410812L392.07319083333334,246.6205091233381L393.9519966666667,247.09740854452207L395.61870833333336,250.38157346283938L396.539185,250.7955055468684L396.77050583333335,230.510743168091L398.55317833333334,209.4756634418557L400.79308499999996,237.23570322355513L401.71776750000004,238.9393274485901L403.8567341666667,242.35333453036534L404.14994083333335,242.2619404199931L405.85210166666667,243.91525577109152L406.56228666666664,240.544048153602L406.7028816666667,260.2947518281325L406.84407749999997,260.00461761070403L407.9898666666666,243.0432576261023L408.06376916666665,227.73552272071973L411.55280833333336,243.5454922604864L411.6189,246.605329449455L412.4883058333333,227.44073886493558L414.88503,208.94441595024247L420.05399916666664,234.58809804364233L425.8304108333333,237.33170080287135L426.4528741666666,256.46707722551804L427.6785741666667,220.24932144722015L429.2719841666667,204.45313993424037L430.5721875,201.17110940143655L430.7608491666667,219.2998402723275L432.00397333333336,250.26015221582014L437.41628,229.39203302999394L438.256245,209.59127609639853L438.92797666666667,217.38559000481496L439.7048541666667,240.1451859564579L440.21135666666663,208.05507567904732L440.35555666666664,212.18118430116272L440.6703933333334,213.19213568423197L444.57821333333334,222.20069726369277L445.60684000000003,210.04158689578907L446.13196833333336,214.97906539115357L447.70495,247.3588138504481L448.9709058333333,220.50188855756528L450.3029533333333,207.83016868977185L450.4621741666666,207.42558746448037L452.6119558333333,239.47460049608603L454.7905775,222.47668009043377L454.85126166666663,200.816365939621L455.1216366666667,195.48331107034912L456.2608166666667,201.64557909677296L458.14683249999996,245.56295166709674L459.37073,232.26421141043855L459.60084916666665,244.9374178071299L462.784665,209.0828981335286L465.0732391666667,183.3084397169057L470.52940666666666,199.77798500263225L471.47511833333334,187.1437619928007L471.77493416666664,209.2311141948176L472.0254816666667,196.6888388626305L472.10779583333334,223.27152154964642L472.7260533333333,247.05689888615328L473.77811249999996,269.1609595318318L474.17766666666665,272.8727350922957L474.2443591666667,244.00382010946436L474.51112916666665,216.9279293108568L476.822535,192.75481080128083L478.45379749999995,205.33000462827172L480.55851666666666,234.16682509148555L481.5168458333334,232.92380078229513L483.1427008333334,233.01249194986457L484.7517325,225.2396790619954L487.13043166666665,202.98660514787605L488.1434366666666,245.96804195880532L489.6292975,212.24857963899916L495.445965,229.30340079371584L500.3097108333334,238.75098685944565L504.4855025,229.36100242450527L505.6240816666667,204.91663989861533L506.55657499999995,194.4666064694995L507.98055,218.34015794055145L508.45761166666665,234.4609761877609L509.1131208333333,210.2995689385657L509.36787416666664,225.43217709936212L510.14355,225.84829560196L511.08325333333335,230.89989455181444L511.88957166666665,213.5095150600883L512.9236058333333,219.37049384681276L514.2983125000001,240.20424602760335L516.2191766666667,248.30247070446237L518.2169475,237.10000723199454L518.8075666666667,227.78616991994625L519.895075,235.0448126017702L520.2321425,222.0688563705367L521.0366583333333,240.66038773780357L521.1147666666667,229.50772337782288L521.2854033333333,247.42456173644658L521.5647908333333,221.70610065308927L521.7834941666666,196.2456502055715L526.5949674999999,209.0723153704486L527.1669608333334,205.9708018513967L527.9600608333334,210.35753312510224L529.58171,241.42545736205668L529.873715,255.61892469151076L531.5674641666667,240.39031878907892L531.9207541666667,255.93413662357418L533.0731525,258.4561334533454L533.3591491666667,217.28375801667607L533.6559608333333,220.93180099263807L536.1145708333333,228.25619513689676L536.8007225,210.6557458313439L537.4688491666667,198.5789076739738L537.6839475,223.52240543146615L538.7972916666666,228.81732133430594L539.6600883333333,253.76845496211592L543.1088716666667,228.4863076245002L543.4597583333333,201.83839164857068L545.324745,211.16122778194818L546.5816883333333,239.2996547175074L547.8692741666666,250.81458043336255L548.641345,330.1805701472939L549.1850991666666,300.3066949974645L549.6453375,272.51239278014486L551.33428,266.60046745162435L552.1448041666666,237.09698592155277L552.751045,232.30965531729575L554.8461508333334,236.7201657411684L555.2348900000001,216.35422430303703L557.9302283333334,212.90641173261793L559.9958933333334,222.51855763842968L562.93517,221.72025818150337L563.0114758333333,241.75806579792064L566.9661608333333,261.72044828362857L567.8049241666666,226.38852200676286L569.9829450000001,220.16813043868657L570.8427375,229.70050609180996L574.8226575,244.13863598908418L575.3988566666667,215.0011374146612L576.9237716666667,210.80880854942356L577.6489775,231.139386141624L578.8542491666666,252.59061665142585L579.5980808333334,221.93117191296008L580.8634358333334,204.18357138466456L581.2185283333333,180.96339847659405L582.8305641666667,203.52323474784802L583.1405941666667,203.7521497885212L583.5984291666666,201.59835246952053L585.3738916666666,207.14262397791498L587.6210083333333,199.16445587156096L589.1717591666667,228.81250620476584L589.3327825,234.94808094204228L595.2425791666667,252.09763136642005L595.5580166666666,240.73014496375492L597.8832416666667,242.58179781691766L599.151,245.92311722171408L599.2291083333333,244.6862739755095L599.4255808333334,227.38014360106635L603.8507183333334,231.18471785794773L604.5452816666667,227.98351668472824L604.8384883333333,218.5418871374093L605.5558833333333,206.46751186112266L605.7535575,212.93713284918218L606.1344858333333,230.40202746785448L607.3541775,307.62799094263227L608.6748091666667,296.79076905010976L609.1777066666667,278.9767634221355L611.1442341666667,267.2197805233047L612.28762,255.50908267421994L618.0309858333334,234.88954849414293L618.5999750000001,218.39580574745207L619.1383216666667,241.31367750940376L625.6970183333334,243.0525005534314L630.3114183333333,235.6936688045223L630.7512283333333,222.59162302784026L631.6272433333334,203.78437855660425L633.3708616666667,202.82211636576574L634.1916,218.41505155878107L637.0095083333333,238.5819712883154L637.6854458333333,256.35267988803776L637.6908533333333,251.02975255337128L642.1358183333333,225.27404997725617L642.2139266666667,198.4602144034194L646.4047391666667,211.14107542138944L647.4856383333333,196.97484412947463L648.0119683333332,192.13462230658033L648.3760733333334,179.17045686681192L649.8451108333333,216.77333028231442L650.9650641666667,207.19237302555723L652.0441608333333,211.16264435321358L652.4413116666667,213.2367140679863L653.0439475000001,187.6368470328633L656.9908216666666,190.13741071827533L657.2996499999999,185.98541815166072L657.4702866666667,204.36905386552394L658.1197875,231.85892913751007L658.528955,215.8353371024859L659.3124416666667,223.16574165066834L660.8469699999999,203.16695411272937L663.8637541666667,199.79176704880814L664.6153966666667,221.95845992390102L666.68707,239.69939745407848L668.8476666666667,233.1258837864383L669.5524441666666,222.630602679152L670.2554191666667,217.9879170296672L670.9103275,210.77541387958374L672.3078658333334,216.65345395787924L673.8832508333334,214.4727667423964L674.3969633333334,232.35362328389388L674.6571241666667,246.57140197878L674.9527341666667,245.9665734896736L675.1419966666666,214.247658145571L678.4399708333333,203.59408826034647L678.8076808333333,214.96591954362134L681.7517641666667,231.00111953467083L683.4527233333333,229.50111661637345L683.8691008333334,221.0100598839899L684.4609216666666,210.56170949279058L686.9447666666666,200.3284925516772L688.0671233333333,199.65136090657714L690.4932883333333,178.65004873446856L691.3482741666667,173.78493332532025L694.3500375,199.74090956359382L694.8595441666666,196.63187284133764L697.0327583333334,212.91028115071018L697.5002066666666,213.08308800680464L699.16091,218.22540488180965L704.7702899999999,229.08841608096898L706.1876558333333,226.97466472898137L706.2363233333333,220.4180880336633L708.3837016666668,221.6277917462879L708.9400733333333,226.181675316102L710.4884208333333,236.2598533355796L710.570735,238.1736250019054L710.6410325,227.31456389132293L711.5663158333333,220.88505614190464L711.6083741666667,207.8108786497771L712.2777025,218.16993845645322L712.4537466666666,207.60572683842676L713.3513916666667,204.7162579776746L714.5494533333333,196.28232737942673L716.1662958333334,202.3119471952078L716.5147791666667,214.7201508659251L717.0615375,202.116081951745L717.4118233333334,198.39657771509147L718.184495,178.2339223640257L718.8862683333333,198.0710275075004L719.3417000000001,222.88303992809392L719.7929258333334,219.8078842673935L722.3512741666666,219.14788840281216L722.3777108333334,226.52955281449434L725.8607416666666,209.90655514372685L726.2747158333334,195.85121061395856L727.586335,187.01872369479256L728.3403808333334,186.7796652128167L728.9568358333333,205.14111145143366L735.7630758333332,207.26961492291974L736.2245158333333,199.57562286350444L739.8529483333334,182.80624272694718L740.1695875,203.22742399355272L741.6927,195.83449112316998L741.7605941666667,191.22037741940198L742.1949966666667,188.66365501198487L742.3331883333333,202.63235114598626L744.3808283333333,193.72689086980597L744.6001325000001,214.1329263788227L744.7936008333334,186.84418380346844L745.9105500000001,185.9657703188097L750.3374899999999,199.86877848569583L751.4268008333332,190.04670078348266L751.9639458333332,208.0648177204905L754.1672016666668,186.97992964398944L754.4357741666666,191.55637187195526L755.0984933333334,188.65879675624575L756.1217125,204.04193157805958L756.4059066666666,174.76914315299203L756.5440983333334,178.02435481203474L757.2458716666667,185.6396712044053L758.2456583333334,178.751094680325L759.9291933333334,170.23458528054053L761.5183974999999,186.2462623655012L762.389005,205.56887030997768L762.8504449999999,203.71215722798647L763.1142108333333,225.50330503216264L764.0551158333334,211.32838652011463L764.0917666666667,214.0955100039156L765.5650099999999,188.0533668072366L765.5956525,184.7070379418935L765.7897216666667,183.25234061257873L765.8540108333333,190.1713980433861L766.2223216666666,202.72410418105514L767.18726,194.31970523521917L767.8139291666666,199.32213256032995L768.0909133333333,192.88464961159724L768.1888491666666,210.67902105005953L768.2381174999999,212.99405184793258L769.0324191666667,213.58792550861057L769.3538649999999,201.59124065447472L770.4293566666666,214.5170246119363L772.2276508333333,217.87542422091795L773.07062,196.59708835332728L773.1595433333334,167.06370332031926L773.5951474999999,168.4997352340461L774.1358974999999,169.673667917279L774.4146841666667,196.09757949145836L778.7635158333334,168.78608534962166L780.4272233333334,195.4316750702709L780.7228333333334,192.43096084221898L780.9703766666667,193.94074036591255L781.4985091666667,211.64604227599398L781.7598716666668,208.25979885482025L782.4352083333333,204.79153801270806L784.1602008333333,190.5562360925855L784.4852516666666,192.3679123785127L785.2092558333334,211.29439376010848L786.78404,197.4873115693211L787.5771400000001,288.3855830995683L788.3582233333334,244.93506516463586L789.5316508333333,206.28958935949876L791.45612,210.85898646742132L791.7865783333333,187.68963865005443L792.0887974999999,178.33767644015126L794.9145166666666,172.3958206837388L795.24137,179.45924238137295L795.6228991666667,164.98746674141606L799.5301183333332,163.9252609912344L799.6034199999999,152.00379809217924L802.4597816666667,174.02284387092698L803.6452258333334,152.55758990631864L803.9804908333333,188.69433129031552L805.930195,190.7150661090233L807.5752766666666,180.61330141875635L813.2399333333333,171.45343716620772L814.4446041666667,162.57383871537613L816.1870208333332,159.89176448317215L816.5198825,165.14320364510488L819.5324608333333,172.11150176745662L819.8340791666667,153.70801448694255L820.1963816666668,158.2127397031054L820.2582675,156.15870328423716L822.4507083333334,170.9098444225846L824.0537316666666,192.2392815127538L824.0621433333334,209.13642151312519L826.5207533333333,193.56352091416522L827.0284575000001,190.20349657667376L827.4814858333333,168.98426885683955L828.533545,165.9690407319913L829.3014099999999,187.50157977800237L830.1840341666667,191.2306639813658L830.3108100000001,188.80004406785986L830.7890733333332,166.59460456532577L831.1621908333334,153.73734140449534L831.6747016666667,133.73703083969866L831.8723758333333,124.80264317629276L831.9931433333334,134.24894554182234L834.5100341666667,135.06669084939512L834.5262566666667,157.41399051050956L835.3415875000001,143.35819004357228L837.1362766666667,161.13566465712898L837.1561041666666,156.90325311580057L837.4871633333333,150.96729946426166L837.7755633333333,145.9856285351015L839.7144525000001,165.1940810695153L840.7346675,158.76956727701688L841.9519558333333,162.1733622922577L844.4484183333333,150.78801829985517L846.3164091666666,160.83204061827288L850.5955441666666,151.34821096195606L850.9241999999999,151.31891977595856L851.1230758333334,178.71585839763733L854.9155358333334,156.7267279936671L857.4258175,129.69440370582336L858.9297033333334,129.22239272356617L858.9483291666668,137.13824989587962L859.4776633333332,138.37304801296096L860.7898833333334,143.41173324371468L861.40033,136.02202004911464L865.5839325,129.27823147445466L870.1208250000001,128.27587336299902L870.5107658333333,119.35960294494792L872.6028675,125.66291128212072L873.6242841666667,132.37458125935493L874.9371050000001,124.21469580804839L875.0007933333333,120.70759392566619L875.0626791666666,114.33132308757226L875.2819833333334,113.57180152936152L875.5757908333334,119.17855100016003L877.1295458333334,126.81390357775159L879.7143308333334,124.52158008184719L880.0748308333333,130.90755443238868L880.2334508333334,144.15324389994154L883.0207166666667,128.39644759170585L886.2838425,140.63526216311672L886.5806541666667,135.47246565103404L886.8672516666668,157.05108699065914L887.0372874999999,157.61577702732907L887.9836,150.10800458349547L892.5757691666666,137.4352504973712L892.962105,123.93099798623064L893.1237291666666,122.16799001178784L893.9883283333334,118.45317707229637L894.5945691666667,118.01359598715676L896.8927566666666,109.90341918830183L897.1288841666667,105.73142955238451L898.15691,101.62230022434926L899.0857983333334,122.9519255706017L899.4835499999999,120.24444628212554L899.8788983333333,120.33506017868672L903.5355699999999,104.30143280321603L907.1033183333333,104.20140471753028L907.5923966666666,107.3005553861434L907.8429441666667,93.76612093701806L909.3924933333334,97.26277306090886L910.6692641666666,108.13967566843574L911.5999549999999,104.48776949465989L911.8541075,106.87800738227799L914.3914266666666,99.40576618321202L915.0793808333334,91.2851842041623L916.1590783333334,97.16561946193697L916.3753783333333,90.4538876160294L916.4558900000001,91.67770408168388L918.0432916666667,95.36818137999262L918.8688366666667,101.74355676748247L919.8043341666666,101.31798895475909L921.4518191666667,101.06668384565772L921.5155075,96.09590833004629L923.2651341666667,96.73823520366683L923.5775675,96.99210170131799L925.5843508333334,105.92632871944288L925.5849516666666,113.35721375122091L925.9562666666667,116.15279837809837L927.2168149999999,106.59865199381177L927.9318066666666,103.89409520051413L928.6245674999999,88.49746608641298L929.1148475,81.43341103174315L930.5953008333333,76.29728562910962L931.6930233333333,96.96536308314352L932.1172116666667,94.21103613465777L932.653155,98.97946316642503L933.1115908333334,110.65785910924588L933.9569633333334,115.98741566302746L934.3258750000001,109.31616425394257L934.8437933333333,107.29341879198314L936.4678458333333,101.38221510583867L936.7274058333334,96.81586633903429L938.7834575,91.50458919574407L939.32601,87.79807696113016L942.4881958333333,82.06090472553768L943.3948533333332,81.2022231153795L945.414855,84.14079320188891L945.6431716666666,97.68519648927008L946.6171225,90.07534485591708L948.2465824999999,87.97573847411215L948.3565349999999,93.50840232167437L950.5021108333333,89.19630182674351L952.0973233333333,86.62875621443396L952.5521541666667,85.71899967934839L954.9657016666666,86.39069389701308L955.9835133333333,85.46041135566051L957.6688508333334,91.06961753224392L957.8941633333333,100.59235853759031L958.7942116666667,98.30449887399426L960.9698291666667,84.77402475761018L961.2636366666667,88.11085750089615L961.5069741666667,88.43075774593346L962.7969633333332,87.503262012284L963.5329841666667,91.58823348716662L963.951765,88.4790542857178L965.5619983333332,103.81091392636087L965.5812250000001,101.80891429760113L967.1217616666665,91.94606018481393L967.8619883333333,84.82186830929473L968.8924175000001,79.93749501891142L968.9458916666667,78.56827057055955L969.8681708333334,81.34727426776865L970.4185341666666,85.62676418830338L971.558315,82.41165744586598L973.9832783333334,84.67552017166501L977.1646908333333,86.80928172953409L980.0402791666667,90.12176858087146L980.5335633333334,91.45157987404811L980.6741583333334,85.70737634846755L983.3274383333332,98.26204236433783L983.5791875000001,92.42752891938507L983.8940241666668,96.12356579832965L984.4828408333334,95.4037637509325L985.5222825,89.99931537872882L985.567345,120.01864046260967L985.9795166666667,111.91624788016505L987.8318858333332,105.28279807040622L990.073595,98.81736949658658L990.2670633333332,104.79730444460507L990.4208766666667,112.73320038015375L990.4677416666666,111.56095850134007L992.6890225000001,99.87996390884857L992.8344241666667,97.9518117155179L994.1178041666666,105.66235400167915L994.6765791666666,97.8170441292665L995.2515766666666,82.60952187306425L996.6184725,82.62975000034363L998.6486883333333,77.58524715915807L998.8613833333334,79.39340301327836L999.5192958333333,81.7024531668979L1001.2184525,88.18359172545856L1001.33922,92.55305413724773L1002.8040516666666,95.19570311012036L1003.3616249999999,115.62298580035502L1005.6766358333333,101.3562698176093L1007.28747,93.64328068612085L1009.4799108333334,96.29576484956459L1012.0226375000001,98.74589694498844L1012.9341016666667,94.39280184753788L1013.2417283333333,101.06631561037005L1017.4253308333333,92.02869293450071L1019.2638808333332,97.39057377086247L1020.045565,92.82918133907305L1020.2534533333333,90.31026814216955L1020.8506816666667,83.32778089598116L1021.2081775,83.2453323659075L1023.0731641666666,86.56438597995856L1024.0056574999999,82.79466208655559L1025.6747725,80.78598676214337L1026.0971583333333,82.74341038004209L1026.7346425,83.26599553823046L1027.3919541666667,89.69505835803818L1028.5365416666666,126.43128587850507L1030.3108025,132.67100017208097L1030.4021291666666,119.67294265807794L1031.1519691666667,108.66657088604427L1031.1537716666667,104.13428249710012L1031.2126533333333,99.82052909313836L1032.5032433333333,97.8500923583568L1033.0914591666667,86.91779259367433L1034.3267725,86.3361002219049L1035.835465,79.89323494311411L1036.2151916666667,69.2669985095147L1036.4831633333333,74.67361334369572L1039.6789958333334,86.47921531225658L1040.8259866666665,80.6785955943598L1040.9485566666665,97.63945618378725L1041.538575,86.78310378688094L1041.8023408333333,89.9213802181985L1043.3855366666667,85.97259139389541L1044.0855075000002,87.54091460329738L1044.3480716666666,83.9304385818118L1045.4055383333334,80.23520902927797L1045.7762525,75.00636696835642L1047.7211499999999,75.42340888758852L1049.5176416666668,77.8242069642565L1050.1983858333333,79.81524556126938L1051.3742166666666,86.8221247454742L1052.1859425,86.18254478120183L1054.2816491666665,93.34854404751665L1054.7208583333334,96.28010189146687L1056.0036375,92.44445667495503L1058.0620925,93.7400850789828L1060.9358783333334,85.91234367737938L1061.3306258333334,85.13649370813778L1061.9765216666667,86.78713498494221L1062.9114183333334,85.12698476222059L1063.262305,82.73052078906832L1063.529075,78.39156231259246L1064.1797775,77.15909130761533L1064.6850783333334,73.37322927186955L1066.30132,72.29362970742764L1067.3083166666668,72.37745282897082L1067.3966391666668,70.52573230802932L1068.5057775,72.79078107453972L1070.111805,82.07848803626051L1071.3284925,80.23087323074563L1072.1972974999999,75.64422998341121L1072.5277558333335,74.10038552718227L1073.5035091666666,74.97862147521188L1075.0632725,75.52582162783541L1078.1719841666668,73.83068670919047L1079.1729725,78.83347243314203L1080.2676908333333,82.27106346525788L1080.2773041666667,92.21019714161396L1083.7086633333333,83.29513142071316L1084.0210966666666,77.0156945474933L1085.5406041666668,76.77368337684273L1087.7072091666666,78.75731380609346L1088.9785725,79.18211972366922L1090.2355158333332,83.29906061192139L1090.7558375,84.18239092821295L1092.0848808333333,85.88997062739382L1093.284745,85.16791832157872L1094.5398858333333,85.51727100518502L1095.2578816666667,75.89996595863792L1095.4609633333334,79.47806137530766L1096.4541408333334,81.64897684266154L1098.0066941666666,82.79414213522448L1098.6754216666666,79.41540845134902L1100.9898316666665,78.13931519220608L1102.07734,76.58527128045331L1104.7468425,73.86103622296807L1107.49926,79.82056418195258L1107.9594983333334,82.2322545384731L1109.0548175,78.45702355159425L1111.1631416666667,83.33726360937908L1111.5963425,84.56736060486625L1112.0547783333334,84.17217860767532L1112.9962841666668,86.38583866446791L1113.205975,87.91692083022016L1113.3832208333333,87.42573908396808L1114.1078258333332,78.71100379483848L1114.8324308333333,82.69248557308939L1116.0995883333333,85.57755111451361L1118.426015,81.7808825347909L1120.7254041666665,81.63211278164913L1122.5603491666666,87.28975376946809L1122.7646325,84.2771490959113L1123.8094816666667,81.88237514279449L1124.2174475,85.09366607070179L1124.9925225,89.22347326463047L1126.4789841666666,88.82394463460089L1129.4465,86.62454858045407L1131.9730041666667,90.07932311666387L1132.4086083333334,88.9615032773647L1134.7939166666667,82.64227295194578L1136.414965,83.81251086458273L1137.6292491666668,82.16607151779898L1138.3087916666666,90.80187634602844L1138.6867158333332,88.04003328991602L1139.8703575,88.86882442563196L1145.2063583333334,86.43075860230684L1147.1458483333333,84.00738860101819L1147.9353433333333,85.86605821156745L1148.9297225,84.10058312586585L1149.53356,84.63923855867603L1151.1870533333333,78.91021578330223L1153.1085183333334,81.34071856222516L1153.1301483333334,82.83186458880338L1153.827115,85.41899172023267L1154.2206608333333,86.3826725884506L1154.6808991666667,82.20218737096418L1157.2056008333334,81.10783691670632L1158.7106883333333,77.64278853745756L1158.8134308333333,79.67911068495106L1159.1402841666666,77.27770939847603L1159.2898916666668,71.97575877142957L1159.8985358333332,71.7738856551935L1161.5946883333334,73.4267123778126L1161.6818091666667,77.36174653190956L1161.9900366666666,85.67424131707953L1166.2048825,87.68759647935232L1166.8093208333335,87.46220752473614L1167.2911891666668,94.79364884421796L1168.1167341666667,91.13167329066516L1168.2032541666667,86.07648633895612L1169.3232075,85.67149387232895L1169.9588891666667,79.38042786473949L1170.554315,95.41690725104594L1172.8284691666665,86.71495179381287L1176.3307266666666,80.34707892750988L1176.5326066666667,74.58800139185013L1176.8876991666666,75.84603648075647L1176.9832316666666,76.71916096309695L1177.3629583333334,74.24197259519514L1177.944565,74.53075146131309L1179.0807408333333,79.5599537727391L1180.4518424999999,76.59643139342673L1181.8547883333333,75.1047996104589L1183.4932608333334,79.06174753188621L1184.6444575,78.45834571305991L1184.8072833333333,75.27585425960743L1187.3656316666668,76.41931131813469L1187.4918066666667,80.36293779160162L1187.99891,80.59339021894141L1188.0944425,82.46527869797883L1190.5945100000001,81.96168397002248L1190.6095308333333,80.55610180522154L1191.0259083333333,80.27269745435315L1191.6081158333334,83.3646044940981L1192.3333216666667,82.10121327380462L1193.1017875,82.59094755603041L1193.7765233333334,82.33870009361877L1193.9573741666668,84.67895569642613L1194.5870475,82.48418936642331L1195.45405,81.9630231373069L1196.7939083333333,79.74322527247737L1197.39354,75.0720438301567L1199.6622866666667,78.07289998336294L1200.38569,81.74922636565306L1200.7263625,80.06926106815132L1204.2334266666667,78.3747580742026L1206.2179791666667,80.85865764264099L1206.4042375,76.36602903164639L1207.30008,78.9990661216483L1207.7308775,81.07083571498916L1208.31669,79.29935963126667L1208.5888675,77.14729574669447L1209.257595,74.25871471008902L1211.6663358333333,77.4304566003267L1212.1211666666668,75.47587142947708L1212.6360808333334,79.59110684866111L1213.9416916666667,78.70629675844498L1214.0252074999999,81.96843370537924L1220.2438325,80.31765050476282L1220.4787583333334,77.81137704409815L1223.9599866666665,87.29450846321706L1224.1336275,86.08326305133674L1225.8934683333332,87.01830494241733L1226.1746583333334,89.75731781786413L1230.2302833333333,89.6103632405796L1231.4259416666666,87.91896576154979L1234.03476,86.64576649267906L1234.1867708333332,80.97499646705327L1235.3662066666668,78.71279439253226L1235.9189733333333,76.71154531831029L1236.3738041666668,78.35889010209351L1237.6487725,77.22702229449075L1239.3899875,75.86269208976799L1240.1512433333335,76.84390760258161L1242.7125958333334,77.33239297609359L1245.3911108333334,77.85456431098913L1246.1649841666667,76.54797812622756L1249.19018,74.483509820045L1250.1082533333333,79.11462096651849L1252.3289333333335,76.6364509779405L1254.1855083333335,77.25809740112645L1254.7046283333332,78.09891794429619L1256.1280025,79.08488512492741L1256.6483241666667,80.37075653727608L1257.1674441666667,75.41179851712026L1259.1622108333333,75.79592889871577L1259.4560183333333,75.70661868186981L1261.1653891666665,80.84468227589896L1261.6616775,82.42780200736765L1261.6899166666667,85.4130083290379L1262.7732191666666,87.11833445589137L1262.9702925000001,88.3669081536013L1264.5691100000001,89.40997956220593L1264.9091816666667,90.76255645766429L1270.0084541666668,87.7348823826748L1270.2499891666666,85.07126556821095L1270.8339991666667,79.37670455249155L1271.5640116666666,77.51273862372312L1271.5694191666666,76.0140423050551L1273.0703008333332,77.51981380246613L1273.1760475,79.47161755658708L1273.6561133333335,83.05891027351554L1274.5645733333333,81.34490801491722L1275.2393091666668,80.0071158805122L1276.9186383333333,77.95670171696996L1282.1440858333333,76.56149856329485L1282.9089466666667,76.23178708899333L1284.0355091666668,75.42852128382785L1284.2746408333335,77.07417375483239L1284.6753966666668,77.29880412411656L1284.9758133333335,77.57616512662261L1286.0645233333332,80.6038416356103L1286.58124,82.14635505098006L1287.5630016666667,81.4912977681902L1288.3573033333332,82.20695765386829L1289.1858525,100.9241149660018L1289.5511591666666,91.28640671506106L1290.09251,86.75576663574329L1290.1129383333332,22.747390605194067L1290.6596966666666,49.52373277024842L1290.6855325,60.24151912501755L1291.4317675,66.15391964540392L1292.3204,70.93101764081862L1292.3894958333333,73.86162200648592L1293.751585,76.69755508188173L1293.8537266666667,75.75379166685529L1294.6053691666666,75.71444013932229L1294.6360116666667,77.57517832106228L1295.6832641666667,78.77872119001078L1296.1519141666668,83.00702056135201L1296.1807541666667,80.75532355785377L1297.0123075000001,78.97626335847382L1297.0273283333333,78.96513660019531L1297.9970733333334,76.91868536840776L1299.0305066666665,76.27356210263207L1299.4661108333332,77.00900509765363L1300.2255641666666,77.2013504661846L1300.3325125000001,77.04517147438095L1301.0547141666666,81.80022470921826L1302.0701225,83.20627295102642L1303.066905,81.85553181056852L1305.4852591666668,79.50258554259833L1306.1389658333333,82.19240371186022L1307.4589966666667,82.19407894680897L1307.7365816666666,79.60050483138455L1309.7752091666666,81.5545946151029L1310.4397308333332,85.01208375145157L1312.1959666666667,79.87476883421746L1312.5456516666666,81.57901088757649L1313.0052891666667,78.66010457073922L1314.4965574999999,77.87814586406296L1314.6461649999999,82.26262278746414L1315.1935241666667,77.52939199340577L1315.2992708333334,81.8818813590866L1317.2465716666666,82.46677403512476L1320.1263658333335,81.38790345164412L1321.8333333333333,81.85415870314023" style="fill: none;" fill="none"></path></g></g></g></g><g opacity="0.2"><g><g><g><path stroke="rgb(255, 112, 67)" stroke-width="2px" d="M120.4520625,125.89998323267156L121.66093916666667,188.45825305852023L122.86621083333334,132.7299828502265L124.19946,178.7111307490956L124.65128666666666,190.1990367824381L125.73098416666667,215.87089313160288L126.75600583333333,171.30164105241948L127.35864166666667,207.41489038684153L129.85029749999998,254.6624959815632L132.22118583333332,192.67874709042638L132.50778333333332,181.92769418521362L133.58387583333334,219.13125449419022L135.02407333333335,149.7162497260354L135.34011166666667,218.09484316002238L139.35548083333333,191.0639130473137L140.10351833333334,188.00546339425173L141.76902833333332,289.0880747491663L142.19321666666667,295.440469622612L142.8571375,338.35847450386393L143.50363416666667,161.07304797389293L146.38703333333333,184.6153527173129L146.59972833333333,222.36170906370336L148.053745,237.4418315508149L151.95495583333334,223.6896707740697L154.12696833333334,202.09661889618093L155.4638225,192.66430439732292L158.93363499999998,329.4670255834406L160.29512333333335,167.66738349199295L160.43571833333334,256.06437690691513L160.6874675,162.9006512815302L162.61974750000002,232.33893391219053L163.08359083333335,252.26807314699346L164.03350833333334,206.38632345741445L168.46825916666666,289.07259022105825L171.291575,193.16087155992335L172.30758416666666,178.2831408435648L172.358655,226.226518582214L172.675895,266.6607785983519L173.122915,188.86375158483332L173.85953666666666,267.55346777222377L176.58611833333333,183.7952549294992L178.02811833333334,236.52578280188823L179.33372916666667,254.954536633058L181.41802,238.18678443540227L182.8546125,264.97617225213486L183.7198125,252.40739304369146L184.95933166666666,279.53894194689667L185.4093558333333,297.9236935702237L187.05383666666665,187.80505315282127L189.5743325,229.30495716766876L190.49300666666664,165.4749030091546L191.17975916666666,268.834720546549L192.98346083333334,183.5416600324891L198.31826,174.61640254475853L199.40276416666666,260.23108365318996L200.91265833333333,247.23521337725902L200.96372916666664,170.85639958490026L203.95287499999998,258.66234570199794L204.2689133333333,182.69281985542992L204.31698,241.65573750842702L204.73455916666666,269.60725141655314L206.02154416666667,253.3038818511096L206.858505,266.18588568947536L208.30711416666668,195.254551356489L210.74769916666668,245.2920072403821L211.05893083333333,295.9499677961523L214.57620916666664,183.9801704287529L214.87242,216.8290238434618L216.45201083333333,271.6118849624287L217.976325,200.58187251199377L218.2809475,300.17969534613866L219.663465,236.86552315408534L220.64702916666667,208.09772130576047L223.31172499999997,281.4669495495883L224.09461083333332,270.4452340386131L224.16731166666665,269.7675510103052L224.44549750000002,209.66585662690076L227.536785,200.06338595802134L230.28259333333332,287.86144681410354L230.47906583333332,289.18100234595215L232.06166083333332,239.21202157844198L232.57717583333334,196.64318463477224L232.6072175,187.91572258689186L234.52868249999997,263.950189482082L237.508215,210.80523598735982L237.57010083333336,194.45228733257812L237.70168333333334,231.35841396180066L238.36680583333333,286.5783350792798L239.90553999999997,300.8257351896979L240.46070999999998,240.65326752445915L241.17570166666664,232.83719661019066L244.00502583333332,277.38021896102214L245.59002416666667,205.1204632845792L245.70177916666668,194.78361129218882L246.3350575,299.4463864998384L246.45702666666668,247.07936711744827L249.91902833333333,256.9584347659891L249.96108666666666,222.47520779479635L249.97851083333336,230.8601308356632L251.06902333333332,251.40761957385325L252.05859583333333,206.29453983632L252.267085,263.05805186791855L252.50982166666665,217.3805120533163L254.4757483333333,244.2322771874341L255.26163833333334,268.75149631500244L256.1040066666667,170.61719631065023L256.16288833333334,222.34487627853048L256.8033766666666,239.99881128831345L257.9323425,225.80730256167325L259.59665083333334,178.0554896809838L261.49228,219.1021137562665L263.19383999999997,300.865263635462L263.96951583333333,450.32352232933044L264.4237458333333,207.50663315166128L265.28714333333335,209.9746789932251L265.346025,264.70721539584076L265.60738749999996,227.56524592096156L265.77381833333334,301.5412919846448L268.00230916666663,251.3559363863685L268.87772333333334,298.37192775986415L269.75073416666663,241.7273177016865L270.1809308333333,291.85306399518794L270.897725,285.69344945387405L271.1681,272.376979990439L271.6169225,184.66395125605843L272.44186666666667,206.70127426494253L274.5483883333333,238.26056065342644L276.9565283333333,224.6946534189311L277.89322749999997,192.58756609938362L277.9448991666667,172.6446378718723L279.7492016666667,247.15021189776334L282.74856166666666,196.55264713005585L282.909585,296.5990105759014L283.0243441666667,230.4406288211996L286.86186666666663,155.48837314410645L287.7270666666667,206.2466869245876L287.8286075,174.6860012086955L291.3362725,276.63638962398875L291.727415,285.84954085133296L297.6582408333333,203.42798189141536L297.75737833333335,189.2385670488531L299.91737416666666,241.9686148600145L300.10783833333335,173.87834415652534L305.47087666666664,276.484322569587L305.830175,217.79272122274745L306.37513083333334,242.30357502807271L309.0037766666667,234.91222551735964L309.53130833333336,244.43657898902893L311.7297575,178.96460307728162L312.09446333333335,254.35417410460386L312.398485,176.57571626793256L313.26488666666665,190.61886564709926L315.01992083333334,253.4244487177242L315.25124166666666,229.41096898642454L318.47050666666667,197.94531496546486L318.64114333333333,281.68099557269704L319.024475,201.0986226742918L319.4264325,179.67345944317904L320.39918166666666,305.81034369902176L321.1147741666667,271.78119336475027L322.2827941666667,229.17625990239057L323.6911475,191.870129915801L323.78367583333335,288.16071902621877L326.292155,276.46140219948506L327.287135,202.53724360466003L327.6224,291.90928222916347L329.3678208333333,254.04172574390066L330.07079583333336,253.37664687633514L336.3410925,179.86742460727692L339.07127916666667,224.01938091083008L341.4637975,186.58543206886813L342.97849833333333,175.1939162015915L345.80962500000004,271.17737848108465L348.3805908333333,239.5746108022603L350.23296,262.3793882890181L351.7927233333333,269.77220862562007L353.0779058333333,285.89297107132995L354.26094666666665,247.75913381576538L355.225885,275.70637824318624L357.4441616666667,298.9577863108028L357.8605391666667,290.4558202570135L358.61338333333333,212.75254817984322L359.00452583333333,283.4994675029408L359.25988,269.51789874380285L359.4166975,256.22947711294347L360.6195658333333,254.28665911067617L362.3691925,273.59259715947235L364.0136733333333,306.58567322384226L367.2641816666666,221.9428709637035L367.75626416666665,175.81847585873172L368.67794250000003,149.7781214470213L369.5227141666667,220.08696447177368L369.8952308333333,141.54935108802536L370.1770216666667,216.0152179219506L372.02878999999996,294.09934197772634L373.4371433333333,281.2342322089455L374.0229558333333,290.3337008519606L375.89274916666665,310.7237397215583L376.7567475,207.3328101309863L378.60431,287.25183033943176L379.7705275,306.3633333769711L382.2567758333333,166.33974863182416L383.51732416666664,186.03194190155378L383.82795500000003,214.09689325636083L385.88580916666666,198.23465910283002L386.1177308333333,293.33036560362035L386.36887916666666,203.73171765154058L389.9396316666667,243.8208340731534L392.07319083333334,266.001113187183L393.9519966666667,247.81275767629796L395.61870833333336,255.3078208403154L396.539185,251.4164036729119L396.77050583333335,200.08359959992498L398.55317833333334,177.92304385250264L400.79308499999996,278.8757628961043L401.71776750000004,241.49476378614253L403.8567341666667,247.4743451530283L404.14994083333335,242.12484925443476L405.85210166666667,246.3952287977392L406.56228666666664,235.48723672736776L406.7028816666667,289.92080733992833L406.84407749999997,259.56941628456116L407.9898666666666,217.60121764919975L408.06376916666665,204.77392036264592L411.55280833333336,267.26044657013637L411.6189,251.19508523290807L412.4883058333333,198.6938529881564L414.88503,181.1999315782027L420.05399916666664,273.05362118374217L425.8304108333333,241.44710494171488L426.4528741666666,285.17014185948807L427.6785741666667,165.92268777977338L429.2719841666667,180.75886766477066L430.5721875,196.2480636022308L430.7608491666667,246.49293657866392L432.00397333333336,296.7006201310591L437.41628,198.08985425125468L438.256245,179.8901406960054L438.92797666666667,229.07706086743963L439.7048541666667,274.2845798839222L440.21135666666663,159.9199102629315L440.35555666666664,218.3703472343358L440.6703933333334,214.70856275883588L444.57821333333334,235.71353963288394L445.60684000000003,191.80292134393346L446.13196833333336,222.38528313420036L447.70495,295.9284365393899L448.9709058333333,180.21650061824104L450.3029533333333,188.82258888808164L450.4621741666666,206.81871562654322L452.6119558333333,287.5481200434945L454.7905775,196.97979948195547L454.85126166666663,168.3258947134018L455.1216366666667,187.48372876644135L456.2608166666667,210.88898113640872L458.14683249999996,311.43901052258235L459.37073,212.3161010254513L459.60084916666665,263.9472274021669L462.784665,155.30111862312665L465.0732391666667,144.6467520919713L470.52940666666666,224.48230293122205L471.47511833333334,168.19242747805336L471.77493416666664,242.36214249784297L472.0254816666667,177.87542586434972L472.10779583333334,263.1455455801704L472.7260533333333,282.73496489091355L473.77811249999996,302.3170505003496L474.17766666666665,278.44039843299174L474.2443591666667,200.70044763521713L474.51112916666665,176.31409311294556L476.822535,156.4951330369169L478.45379749999995,224.1927953687581L480.55851666666666,277.4220557863062L481.5168458333334,231.05926431850952L483.1427008333334,233.1455287012187L484.7517325,213.58045973019165L487.13043166666665,169.60699427669698L488.1434366666666,310.44019717519933L489.6292975,161.66938615928999L495.445965,254.8856325257908L500.3097108333334,252.92236595804042L504.4855025,215.27602577209473L505.6240816666667,168.2500961097804L506.55657499999995,178.79155632582578L507.98055,254.15048514712942L508.45761166666665,258.64220355857503L509.1131208333333,174.05745806477287L509.36787416666664,248.13108934055674L510.14355,226.4724733558568L511.08325333333335,238.47729297659615L511.88957166666665,187.423945822499L512.9236058333333,228.16196202689952L514.2983125000001,271.45487429878926L516.2191766666667,260.4498077197508L518.2169475,220.2963120232929L518.8075666666667,213.81541395187378L519.895075,245.93277662450618L520.2321425,202.6049220236865L521.0366583333333,268.5476847887039L521.1147666666667,212.7787268378518L521.2854033333333,274.2998192743822L521.5647908333333,183.12840902805328L521.7834941666666,158.05497453429484L526.5949674999999,228.31231311776423L527.1669608333334,201.31853157281876L527.9600608333334,216.9376300356605L529.58171,288.0273437174884L529.873715,276.90912568569183L531.5674641666667,217.54740993543106L531.9207541666667,279.249863375317L533.0731525,262.2391286980022L533.3591491666667,155.52519486167216L533.6559608333333,226.40386545658112L536.1145708333333,239.24278635328466L536.8007225,184.25507187301463L537.4688491666667,180.46365043791857L537.6839475,260.9376520677046L538.7972916666666,236.75969518856567L539.6600883333333,291.1951554038308L543.1088716666667,190.56308661807668L543.4597583333333,161.86651768467644L545.324745,225.14548198201442L546.5816883333333,281.50729512084615L547.8692741666666,268.0869690071453L548.641345,449.22955471819097L549.1850991666666,255.49588227272034L549.6453375,230.82093945416537L551.33428,257.7325794588436L552.1448041666666,192.8417636264454L552.751045,225.1286594109102L554.8461508333334,243.33593137697738L555.2348900000001,185.80531214584005L557.9302283333334,207.7346928769892L559.9958933333334,236.93677649714732L562.93517,220.52280899611387L563.0114758333333,271.8147772225467L566.9661608333333,291.6640220121904L567.8049241666666,173.3906325914643L569.9829450000001,210.8375430865721L570.8427375,243.99906957149506L574.8226575,265.7958308349956L575.3988566666667,171.29488955302674L576.9237716666667,204.52031525156715L577.6489775,261.63525252992457L578.8542491666666,284.7674624161287L579.5980808333334,175.94200480526143L580.8634358333334,177.56217059222135L581.2185283333333,146.13313911448827L582.8305641666667,237.36298915472898L583.1405941666667,204.095522349531L583.5984291666666,198.36765649101952L585.3738916666666,215.4590312405066L587.6210083333333,187.1972037120299L589.1717591666667,273.2845817045732L589.3327825,244.151443047957L595.2425791666667,277.82195700298655L595.5580166666666,223.67891535975718L597.8832416666667,245.35927709666166L599.151,250.93509632890874L599.2291083333333,242.83100910620254L599.4255808333334,201.42094803940165L603.8507183333334,236.89157924326983L604.5452816666667,223.181714924899L604.8384883333333,204.37944281643087L605.5558833333333,188.35594894669273L605.7535575,222.64156433127144L606.1344858333333,256.59936939586294L607.3541775,423.46693615479904L608.6748091666667,280.5349362113259L609.1777066666667,252.25575498017398L611.1442341666667,249.58430617505854L612.28762,237.9430359005928L618.0309858333334,203.96024722402746L618.5999750000001,193.65519162741575L619.1383216666667,275.69048515233123L625.6970183333334,245.66073511947286L630.3114183333333,224.6554211811586L630.7512283333333,202.93855436281723L631.6272433333334,175.5735118497502L633.3708616666667,201.378723079508L634.1916,241.80445434830406L637.0095083333333,268.8323508826169L637.6854458333333,283.0087427876212L637.6908533333333,243.04536155137149L642.1358183333333,186.64049611308357L642.2139266666667,158.2394610426643L646.4047391666667,230.1623669483445L647.4856383333333,175.72549719160253L648.0119683333332,184.87428957223892L648.3760733333334,159.72420870715922L649.8451108333333,273.17764040556824L650.9650641666667,192.82093714042145L652.0441608333333,217.11805134469813L652.4413116666667,216.3478186401454L653.0439475000001,149.23704648017883L656.9908216666666,193.88825624639338L657.2996499999999,179.75742930173874L657.4702866666667,231.94450743631882L658.1197875,273.0937420454892L658.528955,191.79994904994965L659.3124416666667,234.161348472942L660.8469699999999,173.16877280582082L663.8637541666667,194.72898645292628L664.6153966666667,255.20849923654038L666.68707,266.3108037493446L668.8476666666667,223.265613284978L669.5524441666666,206.88768101822245L670.2554191666667,211.02388855544004L670.9103275,199.95665915445846L672.3078658333334,225.47051407532257L673.8832508333334,211.2017359191721L674.3969633333334,259.1749080961401L674.6571241666667,267.89807002110916L674.9527341666667,245.05933075601405L675.1419966666666,166.6692851294171L678.4399708333333,187.6137334325097L678.8076808333333,232.0236664685336L681.7517641666667,255.0539195212451L683.4527233333333,227.2511122389273L683.8691008333334,208.2734747854146L684.4609216666666,194.88918390599164L686.9447666666666,184.97866714000702L688.0671233333333,198.63566343892705L690.4932883333333,147.14808047630572L691.3482741666667,166.4872602115978L694.3500375,238.6748739210042L694.8595441666666,191.9683177579533L697.0327583333334,237.32789361476898L697.5002066666666,213.34229829094627L699.16091,225.93888019431722L704.7702899999999,245.38293287970805L706.1876558333333,223.80403770099986L706.2363233333333,210.58322299068624L708.3837016666668,223.44234731522474L708.9400733333333,233.0125006708232L710.4884208333333,251.37712036479604L710.570735,241.0442825013941L710.6410325,211.02597222544932L711.5663158333333,211.2407945177772L711.6083741666667,188.19961241158572L712.2777025,233.7085281664675L712.4537466666666,191.75940941138703L713.3513916666667,200.38205468654633L714.5494533333333,183.63143148205498L716.1662958333334,211.35637691887942L716.5147791666667,233.33245637200096L717.0615375,183.20997858047485L717.4118233333334,192.81732136011124L718.184495,147.98993933742696L718.8862683333333,227.82668522271243L719.3417000000001,260.1010585589842L719.7929258333334,215.19515077634293L722.3512741666666,218.15789460594004L722.3777108333334,237.6020494320176L725.8607416666666,184.97205863757569L726.2747158333334,174.7681938193061L727.586335,173.76999331604353L728.3403808333334,186.4210774898529L728.9568358333333,232.68328080935913L735.7630758333332,210.4623701301488L736.2245158333333,188.03463477438146L739.8529483333334,157.65217252211139L740.1695875,233.85919589346105L741.6927,184.74509181759575L741.7605941666667,184.29920686375013L742.1949966666667,184.82857140085915L742.3331883333333,223.58539534698832L744.3808283333333,180.36870045553556L744.6001325000001,244.74197964234787L744.7936008333334,145.911069940437L745.9105500000001,184.6481500918215L750.3374899999999,220.72329073602504L751.4268008333332,175.3135842301629L751.9639458333332,235.09199312600222L754.1672016666668,155.35259752923793L754.4357741666666,198.42103521390396L755.0984933333334,184.31243408268148L756.1217125,227.11663381078029L756.4059066666666,130.85996051539075L756.5440983333334,182.90717230059883L757.2458716666667,197.06264579296112L758.2456583333334,168.4182298942046L759.9291933333334,157.45982118086383L761.5183974999999,210.26377799294212L762.389005,234.55278222669256L762.8504449999999,200.92708760499954L763.1142108333333,258.1900267384269L764.0551158333334,190.0660087520426L764.0917666666667,218.24619522961703L765.5650099999999,148.99015201221815L765.5956525,179.68754464387894L765.7897216666667,181.07029461860657L765.8540108333333,200.54998418959704L766.2223216666666,221.5531633875587L767.18726,181.7131068164652L767.8139291666666,206.82577354799616L768.0909133333333,183.22842518849808L768.1888491666666,237.37057820775294L768.2381174999999,216.46659804474223L769.0324191666667,214.47873599962753L769.3538649999999,183.5962133732709L770.4293566666666,233.90570054812866L772.2276508333333,222.9130236343904L773.07062,164.67958455194128L773.1595433333334,122.76362577080727L773.5951474999999,170.65378310463646L774.1358974999999,171.43456694212827L774.4146841666667,235.73344685272735L778.7635158333334,127.81884413686666L780.4272233333334,235.40005965124476L780.7228333333334,187.92988950014114L780.9703766666667,196.20540965145284L781.4985091666667,238.20399514111605L781.7598716666668,203.18043372305956L782.4352083333333,199.5891467495398L784.1602008333333,169.20328321240166L784.4852516666666,195.08542680740356L785.2092558333334,239.6841158325022L786.78404,176.77668828314L787.5771400000001,424.73299039493907L788.3582233333334,179.75928826223722L789.5316508333333,148.32137565179306L791.45612,217.71308212930506L791.7865783333333,152.93561692400414L792.0887974999999,164.3097331252965L794.9145166666666,163.48303704912013L795.24137,190.0543749278242L795.6228991666667,143.2798032814806L799.5301183333332,162.33195236596194L799.6034199999999,134.12160374359652L802.4597816666667,207.0514125390486L803.6452258333334,120.35970895940608L803.9804908333333,242.89944336631083L805.930195,193.74616833708504L807.5752766666666,165.46065438335592L813.2399333333333,157.71364078738475L814.4446041666667,149.25444103912875L816.1870208333332,155.8686531348662L816.5198825,173.02036238800397L819.5324608333333,182.56394895098427L819.8340791666667,126.10278356617147L820.1963816666668,164.96982752734965L820.2582675,153.07764865593478L822.4507083333334,193.0365561301058L824.0537316666666,224.23343714800748L824.0621433333334,234.48213151368228L826.5207533333333,170.20417001572523L827.0284575000001,185.16346007043666L827.4814858333333,137.15542727708817L828.533545,161.446198544719L829.3014099999999,219.80038834701884L830.1840341666667,196.82429028641093L830.3108100000001,185.154114197601L830.7890733333332,133.28644531152466L831.1621908333334,134.45144666324964L831.6747016666667,103.73656499250372L831.8723758333333,111.4010616811839L831.9931433333334,148.41839909011668L834.5100341666667,136.29330881075427L834.5262566666667,190.93494000218132L835.3415875000001,122.27448934316635L837.1362766666667,187.80187657746401L837.1561041666666,150.55463580380788L837.4871633333333,142.0633689869534L837.7755633333333,138.51312214136124L839.7144525000001,194.00675987113607L840.7346675,149.13279658826914L841.9519558333333,167.27905481511897L844.4484183333333,133.7100023112514L846.3164091666666,175.8980740958994L850.5955441666666,137.1224664774808L850.9241999999999,151.2749829969623L851.1230758333334,219.81126633015546L854.9155358333334,123.74303238771179L857.4258175,89.14591727405787L858.9297033333334,128.51437625018033L858.9483291666668,149.01203565434977L859.4776633333332,140.22524518858305L860.7898833333334,150.96976108984515L861.40033,124.93745025721464L865.5839325,119.16254861246459L870.1208250000001,126.77233619581573L870.5107658333333,105.98519731787118L872.6028675,135.11787378787994L873.6242841666667,142.4420862252062L874.9371050000001,111.97486763108861L875.0007933333333,115.44694110209292L875.0626791666666,104.76691683043134L875.2819833333334,112.43251919204539L875.5757908333334,127.58867520635778L877.1295458333334,138.26693244413897L879.7143308333334,121.08309483799067L880.0748308333333,140.4865159582008L880.2334508333334,164.02177810127085L883.0207166666667,104.76125312935226L886.2838425,158.99348402023315L886.5806541666667,127.72827088290995L886.8672516666668,189.41901900009674L887.0372874999999,158.462812082334L887.9836,138.84634591774508L892.5757691666666,118.42611936818473L892.962105,103.67461921951988L893.1237291666666,119.52347805012357L893.9883283333334,112.88095766305923L894.5945691666667,117.35422435944734L896.8927566666666,97.73815399001948L897.1288841666667,99.47344509850852L898.15691,95.45860623229635L899.0857983333334,154.9463635899804L899.4835499999999,116.18322734941137L899.8788983333333,120.47098102352837L903.5355699999999,80.25099174001004L907.1033183333333,104.05136258900166L907.5923966666666,111.94928138906306L907.8429441666667,73.4644692633301L909.3924933333334,102.50775124674497L910.6692641666666,124.45502957972613L911.5999549999999,99.00991023399617L911.8541075,110.46336421370506L914.3914266666666,88.19740438461304L915.0793808333334,79.10431123558772L916.1590783333334,105.98627234859903L916.3753783333333,80.38628984716806L916.4558900000001,93.51342878016558L918.0432916666667,100.90389732745561L918.8688366666667,111.30661984871738L919.8043341666666,100.679637235674L921.4518191666667,100.68972618200566L921.5155075,88.63974505662918L923.2651341666667,97.70172551409766L923.5775675,97.37290144779469L925.5843508333334,119.32766924663026L925.5849516666666,124.50354129888798L925.9562666666667,120.34617531841451L927.2168149999999,92.26743241738193L927.9318066666666,99.83726001056758L928.6245674999999,65.40252241526139L929.1148475,70.8373284497383L930.5953008333333,68.59309752515934L931.6930233333333,127.96747926419431L932.1172116666667,90.07954571192919L932.653155,106.13210371407595L933.1115908333334,128.17545302347705L933.9569633333334,123.98175049369985L934.3258750000001,99.30928714031523L934.8437933333333,104.25930059904402L936.4678458333333,92.51540957662192L936.7274058333334,89.9663431888277L938.7834575,83.53767348080873L939.32601,82.23830860920931L942.4881958333333,73.45514637214897L943.3948533333332,79.91420070014217L945.414855,88.548648331653L945.6431716666666,118.00180142034185L946.6171225,78.66056740588763L948.2465824999999,84.82632890140472L948.3565349999999,101.80739809301767L950.5021108333333,82.72815108434722L952.0973233333333,82.77743779596958L952.5521541666667,84.35436487672004L954.9657016666666,87.39823522351006L955.9835133333333,84.06498754363172L957.6688508333334,99.48342679711905L957.8941633333333,114.87647004560992L958.7942116666667,94.87270937860012L960.9698291666667,64.47831358303401L961.2636366666667,93.11610661582515L961.5069741666667,88.9106081134894L962.7969633333332,86.11201841180979L963.5329841666667,97.71569069949064L963.951765,83.81528548354453L965.5619983333332,126.80870338732547L965.5812250000001,98.80591485446153L967.1217616666665,77.1517790156332L967.8619883333333,74.13558049601588L968.8924175000001,72.61093508333649L968.9458916666667,76.51443389803171L969.8681708333334,85.51577981358228L970.4185341666666,92.0459990691055L971.558315,77.58899733220993L973.9832783333334,88.07131426036358L977.1646908333333,90.00992406633767L980.0402791666667,95.0904988578775L980.5335633333334,93.44629681381312L980.6741583333334,77.09107106009668L983.3274383333332,117.09404138814322L983.5791875000001,83.6757587519559L983.8940241666668,101.66762111674659L984.4828408333334,94.32406067983672L985.5222825,81.8926428204233L985.567345,165.04762808843094L985.9795166666667,99.76265900649811L987.8318858333332,95.33262335576798L990.073595,89.11922663585707L990.2670633333332,113.76720686663282L990.4208766666667,124.63704428347674L990.4677416666666,109.80259568311955L992.6890225000001,82.35847202011134L992.8344241666667,95.05958342552185L994.1178041666666,117.22816743092105L994.6765791666666,86.04907932064751L995.2515766666666,59.7982384887609L996.6184725,82.66009219126269L998.6486883333333,70.01849289737982L998.8613833333334,82.10563679445875L999.5192958333333,85.16602839732712L1001.2184525,97.90529956329954L1001.33922,99.10724775493145L1002.8040516666666,99.15967656942931L1003.3616249999999,146.26390983570707L1005.6766358333333,79.95619584349069L1007.28747,82.07379698888823L1009.4799108333334,100.27449109473015L1012.0226375000001,102.42109508812428L1012.9341016666667,87.86315920136192L1013.2417283333333,111.07658625461842L1017.4253308333333,78.47225892069665L1019.2638808333332,105.43339502540502L1020.045565,85.987092691389L1020.2534533333333,86.53189834681424L1020.8506816666667,72.85405002669856L1021.2081775,83.12165957079694L1023.0731641666666,91.54296640103517L1024.0056574999999,77.14007624645126L1025.6747725,77.77297377552502L1026.0971583333333,85.67954580689019L1026.7346425,84.04987327551304L1027.3919541666667,99.33865258774975L1028.5365416666666,181.53562715920535L1030.3108025,142.0305716124448L1030.4021291666666,100.17585638707338L1031.1519691666667,92.15701322799383L1031.1537716666667,97.3358499136838L1031.2126533333333,93.34989898719574L1032.5032433333333,94.89443725618449L1033.0914591666667,70.51934294665067L1034.3267725,85.46356166425076L1035.835465,70.22893702492799L1036.2151916666667,53.327643859115554L1036.4831633333333,82.78353559496728L1039.6789958333334,104.1876182650978L1040.8259866666665,71.97766601751474L1040.9485566666665,123.08074706792831L1041.538575,70.49857519152154L1041.8023408333333,94.62879486517474L1043.3855366666667,80.04940815744075L1044.0855075000002,89.89339941740036L1044.3480716666666,78.51472454958345L1045.4055383333334,74.69236470047724L1045.7762525,67.1631038769741L1047.7211499999999,76.04897176643668L1049.5176416666668,81.42540407925844L1050.1983858333333,82.80180345678872L1051.3742166666666,97.33244352178141L1052.1859425,85.22317483479327L1054.2816491666665,104.09754294698892L1054.7208583333334,100.67743865739219L1056.0036375,86.69098885018718L1058.0620925,95.68352768502453L1060.9358783333334,74.17073157497431L1061.3306258333334,83.97271875427529L1061.9765216666667,89.26309690014884L1062.9114183333334,82.63675942813812L1063.262305,79.13582482933998L1063.529075,71.88312459787865L1064.1797775,75.31038480014965L1064.6850783333334,67.69443621825091L1066.30132,70.67423036076468L1067.3083166666668,72.5031875112856L1067.3966391666668,67.7481515266171L1068.5057775,76.18835422430527L1070.111805,96.01004847884178L1071.3284925,77.45945102247325L1072.1972974999999,68.76426511240957L1072.5277558333335,71.78461884283885L1073.5035091666666,76.29597539725629L1075.0632725,76.34662185677077L1078.1719841666668,71.2879843312231L1079.1729725,86.33765101906928L1080.2676908333333,87.42745001343164L1080.2773041666667,107.11889765614814L1083.7086633333333,69.92253283936195L1084.0210966666666,67.59653923766352L1085.5406041666668,76.41066662086685L1087.7072091666666,81.73275944996965L1088.9785725,79.81932860003278L1090.2355158333332,89.47447194429961L1090.7558375,85.50738640265033L1092.0848808333333,88.4513401761651L1093.284745,84.084839862856L1094.5398858333333,86.04130003059453L1095.2578816666667,61.47400838881731L1095.4609633333334,84.84520450031219L1096.4541408333334,84.90535004369238L1098.0066941666666,84.51189007406889L1098.6754216666666,74.34730792553589L1100.9898316666665,76.22517530349168L1102.07734,74.25420541282408L1104.7468425,69.77468363674022L1107.49926,88.75985612042929L1107.9594983333334,85.8497900732539L1109.0548175,72.79417707127604L1111.1631416666667,90.65762369605628L1111.5963425,86.41250609809703L1112.0547783333334,83.57940561188896L1112.9962841666668,89.70632874965668L1113.205975,90.21354407884861L1113.3832208333333,86.68896646458995L1114.1078258333332,65.63890086114407L1114.8324308333333,88.66470824046571L1116.0995883333333,89.90514942664993L1118.426015,76.08587966520679L1120.7254041666665,81.40895815193653L1122.5603491666666,95.77621525119655L1122.7646325,79.75824208557606L1123.8094816666667,78.29021421311934L1124.2174475,89.91060246256265L1124.9925225,95.41818405552347L1126.4789841666666,88.22465168955651L1129.4465,83.32545449923389L1131.9730041666667,95.26148492097855L1132.4086083333334,87.28477351841602L1134.7939166666667,73.16342746381733L1136.414965,85.56786773353815L1137.6292491666668,79.69641249762341L1138.3087916666666,103.75558358837259L1138.6867158333332,83.89726870574738L1139.8703575,90.11201112920588L1145.2063583333334,82.7736598673192L1147.1458483333333,80.3723335990852L1147.9353433333333,88.65406262739141L1148.9297225,81.45237049731341L1149.53356,85.44722170789134L1151.1870533333333,70.3166816202416L1153.1085183333334,84.9864727306095L1153.1301483333334,85.06858362867077L1153.827115,89.29968241737649L1154.2206608333333,87.8281938907775L1154.6808991666667,75.93145954473455L1157.2056008333334,79.4663112353195L1158.7106883333333,72.44521596858448L1158.8134308333333,82.73359390619126L1159.1402841666666,73.67560746876357L1159.2898916666668,64.02283283085987L1159.8985358333332,71.4710759808394L1161.5946883333334,75.90595246174122L1161.6818091666667,83.26429776305503L1161.9900366666666,98.1429834948345L1166.2048825,90.70762922276151L1166.8093208333335,87.12412409281193L1167.2911891666668,105.79081082344055L1168.1167341666667,85.63870996033607L1168.2032541666667,78.49370591139255L1169.3232075,85.06400517238815L1169.9588891666667,69.94382885335524L1170.554315,119.47162633050573L1172.8284691666665,73.66201860796325L1176.3307266666666,70.7952696280554L1176.5326066666667,65.94938508836046L1176.8876991666666,77.73308911411603L1176.9832316666666,78.02884768660776L1177.3629583333334,70.52619004334242L1177.944565,74.96391976049004L1179.0807408333333,87.10375723987818L1180.4518424999999,72.15114782445814L1181.8547883333333,72.86735193600713L1183.4932608333334,84.99716941402718L1184.6444575,77.55324298482053L1184.8072833333333,70.50211707942869L1187.3656316666668,78.1344969059256L1187.4918066666667,86.27837750180204L1187.99891,80.93906885995109L1188.0944425,85.27311141653497L1190.5945100000001,81.20629187808797L1190.6095308333333,78.44772855802019L1191.0259083333333,79.84759092805061L1191.6081158333334,88.0024650537155L1192.3333216666667,80.20612644336441L1193.1017875,83.32554897936907L1193.7765233333334,81.9603289000013L1193.9573741666668,88.18933910063723L1194.5870475,79.19203987141906L1195.45405,81.18127379363237L1196.7939083333333,76.41352847523311L1197.39354,68.06527166667564L1199.6622866666667,82.57418421317232L1200.38569,87.26371593908831L1200.7263625,77.54931312189862L1204.2334266666667,75.83300358327952L1206.2179791666667,84.58450699529865L1206.4042375,69.62708611515436L1207.30008,82.94862175665119L1207.7308775,84.1784901050004L1208.31669,76.64214550568302L1208.5888675,73.91919991983612L1209.257595,69.92584315518087L1211.6663358333333,82.18806943568316L1212.1211666666668,72.54399367320266L1212.6360808333334,85.76395997743718L1213.9416916666667,77.37908162312075L1214.0252074999999,86.86163912578066L1220.2438325,77.8414757038382L1220.4787583333334,74.05196685310118L1223.9599866666665,101.51920559189537L1224.1336275,84.26639493351637L1225.8934683333332,88.4208677790382L1226.1746583333334,93.86583713103425L1230.2302833333333,89.38993137465283L1231.4259416666666,85.38186954300515L1234.03476,84.73596758937298L1234.1867708333332,72.46884142861451L1235.3662066666668,75.31949128075082L1235.9189733333333,73.70967170697722L1236.3738041666668,80.82990727776831L1237.6487725,75.52922058308667L1239.3899875,73.81619678268379L1240.1512433333335,78.31573087180203L1242.7125958333334,78.06512103636157L1245.3911108333334,78.63782131333244L1246.1649841666667,74.58809884908524L1249.19018,71.38680736077103L1250.1082533333333,86.06128768622875L1252.3289333333335,72.91919599507344L1254.1855083333335,78.19056703590537L1254.7046283333332,79.36014875905082L1256.1280025,80.56383589587429L1256.6483241666667,82.29956365579909L1257.1674441666667,67.97336148688655L1259.1622108333333,76.37212447110903L1259.4560183333333,75.57265335660092L1261.1653891666665,88.55177766694267L1261.6616775,84.80248160457073L1261.6899166666667,89.89081781154333L1262.7732191666666,89.67632364617154L1262.9702925000001,90.2397687001662L1264.5691100000001,90.9745866751129L1264.9091816666667,92.79142180085182L1270.0084541666668,83.1933712701906L1270.2499891666666,81.07584034651518L1270.8339991666667,70.8348630289124L1271.5640116666666,74.71678973057057L1271.5694191666666,73.76599782705307L1273.0703008333332,79.77847104858272L1273.1760475,82.39932318776846L1273.6561133333335,88.43984934890813L1274.5645733333333,78.77390462701975L1275.2393091666668,78.00042767890479L1276.9186383333333,74.88108047165657L1282.1440858333333,74.46869383278218L1282.9089466666667,75.73721987754107L1284.0355091666668,74.22362257607962L1284.2746408333335,79.54265246133916L1284.6753966666668,77.6357496780428L1284.9758133333335,77.99220663038167L1286.0645233333332,85.14535639909181L1286.58124,84.46012517403476L1287.5630016666667,80.50871184400538L1288.3573033333332,83.28044748238543L1289.1858525,128.99985093420202L1289.5511591666666,76.82984433865009L1290.09251,79.95980651676655L1290.1129383333332,-73.2651734406297L1290.6596966666666,89.68824601782997L1290.6855325,76.31819865717132L1291.4317675,75.02252042598346L1292.3204,78.09666463394058L1292.3894958333333,78.25752855498683L1293.751585,80.95145469497554L1293.8537266666667,74.3381465443156L1294.6053691666666,75.65541284802285L1294.6360116666667,80.36628559367225L1295.6832641666667,80.58403549343348L1296.1519141666668,89.34946961836383L1296.1807541666667,77.37777805260637L1297.0123075000001,76.3076730594039L1297.0273283333333,78.94844646277753L1297.9970733333334,73.84900852072649L1299.0305066666665,75.30587720396844L1299.4661108333332,78.112169590186L1300.2255641666666,77.48986851898107L1300.3325125000001,76.8109029866755L1301.0547141666666,88.93280456147411L1302.0701225,85.3153453137387L1303.066905,79.82942009988156L1305.4852591666668,75.97316614064303L1306.1389658333333,86.22713096575305L1307.4589966666667,82.1965917992321L1307.7365816666666,75.71014365824786L1309.7752091666666,84.48572929068048L1310.4397308333332,90.19831745597449L1312.1959666666667,72.16879645836624L1312.5456516666666,84.13537396761504L1313.0052891666667,74.28174509548332L1314.4965574999999,76.70520780404864L1314.6461649999999,88.83933817256582L1315.1935241666667,70.42954580231824L1315.2992708333334,88.4106154076078L1317.2465716666666,83.34411304918203L1320.1263658333335,79.76959757642314L1321.8333333333333,82.55354158038443" style="fill: none;" fill="none"></path></g></g></g></g></g></g><g transform="translate(50, 377)" clip-path="url(#clip_1)"><clipPath id="clip_1"><rect width="1442" height="23"></rect></clipPath><g><g><line x1="0" y1="0" x2="0" y2="5" style="visibility: inherit;" fill="rgb(0, 0, 0)" stroke="rgb(204, 204, 204)" stroke-width="1px"></line><line x1="120.16666666666666" y1="0" x2="120.16666666666666" y2="5" style="visibility: inherit;" fill="rgb(0, 0, 0)" stroke="rgb(204, 204, 204)" stroke-width="1px"></line><line x1="240.33333333333331" y1="0" x2="240.33333333333331" y2="5" style="visibility: inherit;" fill="rgb(0, 0, 0)" stroke="rgb(204, 204, 204)" stroke-width="1px"></line><line x1="360.5" y1="0" x2="360.5" y2="5" style="visibility: inherit;" fill="rgb(0, 0, 0)" stroke="rgb(204, 204, 204)" stroke-width="1px"></line><line x1="480.66666666666663" y1="0" x2="480.66666666666663" y2="5" style="visibility: inherit;" fill="rgb(0, 0, 0)" stroke="rgb(204, 204, 204)" stroke-width="1px"></line><line x1="600.8333333333334" y1="0" x2="600.8333333333334" y2="5" style="visibility: inherit;" fill="rgb(0, 0, 0)" stroke="rgb(204, 204, 204)" stroke-width="1px"></line><line x1="721" y1="0" x2="721" y2="5" style="visibility: inherit;" fill="rgb(0, 0, 0)" stroke="rgb(204, 204, 204)" stroke-width="1px"></line><line x1="841.1666666666667" y1="0" x2="841.1666666666667" y2="5" style="visibility: inherit;" fill="rgb(0, 0, 0)" stroke="rgb(204, 204, 204)" stroke-width="1px"></line><line x1="961.3333333333333" y1="0" x2="961.3333333333333" y2="5" style="visibility: inherit;" fill="rgb(0, 0, 0)" stroke="rgb(204, 204, 204)" stroke-width="1px"></line><line x1="1081.5" y1="0" x2="1081.5" y2="5" style="visibility: inherit;" fill="rgb(0, 0, 0)" stroke="rgb(204, 204, 204)" stroke-width="1px"></line><line x1="1201.6666666666667" y1="0" x2="1201.6666666666667" y2="5" style="visibility: inherit;" fill="rgb(0, 0, 0)" stroke="rgb(204, 204, 204)" stroke-width="1px"></line><line x1="1321.8333333333333" y1="0" x2="1321.8333333333333" y2="5" style="visibility: inherit;" fill="rgb(0, 0, 0)" stroke="rgb(204, 204, 204)" stroke-width="1px"></line><line x1="1442" y1="0" x2="1442" y2="5" style="visibility: inherit;" fill="rgb(0, 0, 0)" stroke="rgb(204, 204, 204)" stroke-width="1px"></line></g><g transform="translate(0, 8)"><text x="0" y="0" dx="0em" dy="0.95em" style="text-anchor: middle; visibility: hidden; font-family: Roboto, sans-serif; font-size: 12px; font-weight: 200;" fill="rgb(33, 33, 33)" stroke="none" stroke-width="1px">-1M</text><text x="120.16666666666666" y="0" dx="0em" dy="0.95em" style="text-anchor: middle; visibility: inherit; font-family: Roboto, sans-serif; font-size: 12px; font-weight: 200;" fill="rgb(33, 33, 33)" stroke="none" stroke-width="1px">0</text><text x="240.33333333333331" y="0" dx="0em" dy="0.95em" style="text-anchor: middle; visibility: inherit; font-family: Roboto, sans-serif; font-size: 12px; font-weight: 200;" fill="rgb(33, 33, 33)" stroke="none" stroke-width="1px">1M</text><text x="360.5" y="0" dx="0em" dy="0.95em" style="text-anchor: middle; visibility: inherit; font-family: Roboto, sans-serif; font-size: 12px; font-weight: 200;" fill="rgb(33, 33, 33)" stroke="none" stroke-width="1px">2M</text><text x="480.66666666666663" y="0" dx="0em" dy="0.95em" style="text-anchor: middle; visibility: inherit; font-family: Roboto, sans-serif; font-size: 12px; font-weight: 200;" fill="rgb(33, 33, 33)" stroke="none" stroke-width="1px">3M</text><text x="600.8333333333334" y="0" dx="0em" dy="0.95em" style="text-anchor: middle; visibility: inherit; font-family: Roboto, sans-serif; font-size: 12px; font-weight: 200;" fill="rgb(33, 33, 33)" stroke="none" stroke-width="1px">4M</text><text x="721" y="0" dx="0em" dy="0.95em" style="text-anchor: middle; visibility: inherit; font-family: Roboto, sans-serif; font-size: 12px; font-weight: 200;" fill="rgb(33, 33, 33)" stroke="none" stroke-width="1px">5M</text><text x="841.1666666666667" y="0" dx="0em" dy="0.95em" style="text-anchor: middle; visibility: inherit; font-family: Roboto, sans-serif; font-size: 12px; font-weight: 200;" fill="rgb(33, 33, 33)" stroke="none" stroke-width="1px">6M</text><text x="961.3333333333333" y="0" dx="0em" dy="0.95em" style="text-anchor: middle; visibility: inherit; font-family: Roboto, sans-serif; font-size: 12px; font-weight: 200;" fill="rgb(33, 33, 33)" stroke="none" stroke-width="1px">7M</text><text x="1081.5" y="0" dx="0em" dy="0.95em" style="text-anchor: middle; visibility: inherit; font-family: Roboto, sans-serif; font-size: 12px; font-weight: 200;" fill="rgb(33, 33, 33)" stroke="none" stroke-width="1px">8M</text><text x="1201.6666666666667" y="0" dx="0em" dy="0.95em" style="text-anchor: middle; visibility: inherit; font-family: Roboto, sans-serif; font-size: 12px; font-weight: 200;" fill="rgb(33, 33, 33)" stroke="none" stroke-width="1px">9M</text><text x="1321.8333333333333" y="0" dx="0em" dy="0.95em" style="text-anchor: middle; visibility: inherit; font-family: Roboto, sans-serif; font-size: 12px; font-weight: 200;" fill="rgb(33, 33, 33)" stroke="none" stroke-width="1px">10M</text><text x="1442" y="0" dx="0em" dy="0.95em" style="text-anchor: middle; visibility: hidden; font-family: Roboto, sans-serif; font-size: 12px; font-weight: 200;" fill="rgb(33, 33, 33)" stroke="none" stroke-width="1px">11M</text></g><line x1="0" y1="0" x2="1442" y2="0" fill="rgb(0, 0, 0)" stroke="rgb(204, 204, 204)" stroke-width="1px"></line></g></g></g></g></svg>