<svg viewBox="0 0 1492 400" xmlns="http://www.w3.org/2000/svg"><g><g><g><g><g><line x1="41.171875" y1="377" x2="36.171875" y2="377" style="visibility: inherit;" fill="rgb(0, 0, 0)" stroke="rgb(204, 204, 204)" stroke-width="1px"></line><line x1="41.171875" y1="329.875" x2="36.171875" y2="329.875" style="visibility: inherit;" fill="rgb(0, 0, 0)" stroke="rgb(204, 204, 204)" stroke-width="1px"></line><line x1="41.171875" y1="282.75" x2="36.171875" y2="282.75" style="visibility: inherit;" fill="rgb(0, 0, 0)" stroke="rgb(204, 204, 204)" stroke-width="1px"></line><line x1="41.171875" y1="235.625" x2="36.171875" y2="235.625" style="visibility: inherit;" fill="rgb(0, 0, 0)" stroke="rgb(204, 204, 204)" stroke-width="1px"></line><line x1="41.171875" y1="188.5" x2="36.171875" y2="188.5" style="visibility: inherit;" fill="rgb(0, 0, 0)" stroke="rgb(204, 204, 204)" stroke-width="1px"></line><line x1="41.171875" y1="141.375" x2="36.171875" y2="141.375" style="visibility: inherit;" fill="rgb(0, 0, 0)" stroke="rgb(204, 204, 204)" stroke-width="1px"></line><line x1="41.171875" y1="94.24999999999996" x2="36.171875" y2="94.24999999999996" style="visibility: inherit;" fill="rgb(0, 0, 0)" stroke="rgb(204, 204, 204)" stroke-width="1px"></line><line x1="41.171875" y1="47.12500000000004" x2="36.171875" y2="47.12500000000004" style="visibility: inherit;" fill="rgb(0, 0, 0)" stroke="rgb(204, 204, 204)" stroke-width="1px"></line><line x1="41.171875" y1="0" x2="36.171875" y2="0" style="visibility: inherit;" fill="rgb(0, 0, 0)" stroke="rgb(204, 204, 204)" stroke-width="1px"></line></g><g transform="translate(31.171875, 0)"><text x="0" y="377" dx="0em" dy="0.3em" style="text-anchor: end; visibility: hidden; font-family: Roboto, sans-serif; font-size: 12px; font-weight: 200;" fill="rgb(33, 33, 33)" stroke="none" stroke-width="1px">0.6</text><text x="0" y="329.875" dx="0em" dy="0.3em" style="text-anchor: end; visibility: inherit; font-family: Roboto, sans-serif; font-size: 12px; font-weight: 200;" fill="rgb(33, 33, 33)" stroke="none" stroke-width="1px">0.8</text><text x="0" y="282.75" dx="0em" dy="0.3em" style="text-anchor: end; visibility: inherit; font-family: Roboto, sans-serif; font-size: 12px; font-weight: 200;" fill="rgb(33, 33, 33)" stroke="none" stroke-width="1px">1</text><text x="0" y="235.625" dx="0em" dy="0.3em" style="text-anchor: end; visibility: inherit; font-family: Roboto, sans-serif; font-size: 12px; font-weight: 200;" fill="rgb(33, 33, 33)" stroke="none" stroke-width="1px">1.2</text><text x="0" y="188.5" dx="0em" dy="0.3em" style="text-anchor: end; visibility: inherit; font-family: Roboto, sans-serif; font-size: 12px; font-weight: 200;" fill="rgb(33, 33, 33)" stroke="none" stroke-width="1px">1.4</text><text x="0" y="141.375" dx="0em" dy="0.3em" style="text-anchor: end; visibility: inherit; font-family: Roboto, sans-serif; font-size: 12px; font-weight: 200;" fill="rgb(33, 33, 33)" stroke="none" stroke-width="1px">1.6</text><text x="0" y="94.24999999999996" dx="0em" dy="0.3em" style="text-anchor: end; visibility: inherit; font-family: Roboto, sans-serif; font-size: 12px; font-weight: 200;" fill="rgb(33, 33, 33)" stroke="none" stroke-width="1px">1.8</text><text x="0" y="47.12500000000004" dx="0em" dy="0.3em" style="text-anchor: end; visibility: inherit; font-family: Roboto, sans-serif; font-size: 12px; font-weight: 200;" fill="rgb(33, 33, 33)" stroke="none" stroke-width="1px">2</text><text x="0" y="0" dx="0em" dy="0.3em" style="text-anchor: end; visibility: hidden; font-family: Roboto, sans-serif; font-size: 12px; font-weight: 200;" fill="rgb(33, 33, 33)" stroke="none" stroke-width="1px">2.2</text></g><line x1="41.171875" y1="0" x2="41.171875" y2="377" fill="rgb(0, 0, 0)" stroke="rgb(204, 204, 204)" stroke-width="1px"></line></g></g><g transform="translate(41, 0)" clip-path="url(#clip_0)"><clipPath id="clip_0"><rect width="1450" height="377"></rect></clipPath><g><g><g><line x1="0" y1="0" x2="0" y2="377" fill="rgb(0, 0, 0)" stroke="rgb(66, 66, 66)" stroke-width="1px" opacity="0.25"></line><line x1="120.90234375" y1="0" x2="120.90234375" y2="377" fill="rgb(0, 0, 0)" stroke="rgb(66, 66, 66)" stroke-width="1px" opacity="0.25"></line><line x1="241.8046875" y1="0" x2="241.8046875" y2="377" fill="rgb(0, 0, 0)" stroke="rgb(66, 66, 66)" stroke-width="1px" opacity="0.25"></line><line x1="362.70703125" y1="0" x2="362.70703125" y2="377" fill="rgb(0, 0, 0)" stroke="rgb(66, 66, 66)" stroke-width="1px" opacity="0.25"></line><line x1="483.609375" y1="0" x2="483.609375" y2="377" fill="rgb(0, 0, 0)" stroke="rgb(66, 66, 66)" stroke-width="1px" opacity="0.25"></line><line x1="604.51171875" y1="0" x2="604.51171875" y2="377" fill="rgb(0, 0, 0)" stroke="rgb(66, 66, 66)" stroke-width="1px" opacity="0.25"></line><line x1="725.4140625" y1="0" x2="725.4140625" y2="377" fill="rgb(0, 0, 0)" stroke="rgb(66, 66, 66)" stroke-width="1px" opacity="0.25"></line><line x1="846.31640625" y1="0" x2="846.31640625" y2="377" fill="rgb(0, 0, 0)" stroke="rgb(66, 66, 66)" stroke-width="1px" opacity="0.25"></line><line x1="967.21875" y1="0" x2="967.21875" y2="377" fill="rgb(0, 0, 0)" stroke="rgb(66, 66, 66)" stroke-width="1px" opacity="0.25"></line><line x1="1088.12109375" y1="0" x2="1088.12109375" y2="377" fill="rgb(0, 0, 0)" stroke="rgb(66, 66, 66)" stroke-width="1px" opacity="0.25"></line><line x1="1209.0234375" y1="0" x2="1209.0234375" y2="377" fill="rgb(0, 0, 0)" stroke="rgb(66, 66, 66)" stroke-width="1px" opacity="0.25"></line><line x1="1329.92578125" y1="0" x2="1329.92578125" y2="377" fill="rgb(0, 0, 0)" stroke="rgb(66, 66, 66)" stroke-width="1px" opacity="0.25"></line><line x1="1450.828125" y1="0" x2="1450.828125" y2="377" fill="rgb(0, 0, 0)" stroke="rgb(66, 66, 66)" stroke-width="1px" opacity="0.25"></line></g><g><line x1="0" y1="377" x2="1450.828125" y2="377" fill="rgb(0, 0, 0)" stroke="rgb(66, 66, 66)" stroke-width="1px" opacity="0.25"></line><line x1="0" y1="329.875" x2="1450.828125" y2="329.875" fill="rgb(0, 0, 0)" stroke="rgb(66, 66, 66)" stroke-width="1px" opacity="0.25"></line><line x1="0" y1="282.75" x2="1450.828125" y2="282.75" fill="rgb(0, 0, 0)" stroke="rgb(66, 66, 66)" stroke-width="1px" opacity="0.25"></line><line x1="0" y1="235.625" x2="1450.828125" y2="235.625" fill="rgb(0, 0, 0)" stroke="rgb(66, 66, 66)" stroke-width="1px" opacity="0.25"></line><line x1="0" y1="188.5" x2="1450.828125" y2="188.5" fill="rgb(0, 0, 0)" stroke="rgb(66, 66, 66)" stroke-width="1px" opacity="0.25"></line><line x1="0" y1="141.375" x2="1450.828125" y2="141.375" fill="rgb(0, 0, 0)" stroke="rgb(66, 66, 66)" stroke-width="1px" opacity="0.25"></line><line x1="0" y1="94.24999999999996" x2="1450.828125" y2="94.24999999999996" fill="rgb(0, 0, 0)" stroke="rgb(66, 66, 66)" stroke-width="1px" opacity="0.25"></line><line x1="0" y1="47.12500000000004" x2="1450.828125" y2="47.12500000000004" fill="rgb(0, 0, 0)" stroke="rgb(66, 66, 66)" stroke-width="1px" opacity="0.25"></line><line x1="0" y1="0" x2="1450.828125" y2="0" fill="rgb(0, 0, 0)" stroke="rgb(66, 66, 66)" stroke-width="1px" opacity="0.25"></line></g></g></g><g><g><line x1="0" y1="518.375" x2="1450.828125" y2="518.375" fill="rgb(0, 0, 0)" stroke="rgb(153, 153, 153)" stroke-width="1.5px"></line></g></g><g><g><line x1="120.90234375" y1="0" x2="120.90234375" y2="377" fill="rgb(0, 0, 0)" stroke="rgb(153, 153, 153)" stroke-width="1.5px"></line></g></g><g><g><g><g><g><path stroke="rgb(255, 112, 67)" stroke-width="2px" d="M121.18948681640626,28.49410974979405L122.40576439453125,34.36478616297249L123.61841490234376,51.48055705914702L124.95982640625,69.2903677284827L125.41441921875,59.46126651953155L126.50072677734376,65.40734562623311L127.53202376953125,54.821756207291L128.1383490234375,52.69225548828174L130.64525912109374,47.41894496297606L133.03066236328124,44.35057933772151L133.319014453125,48.89926583667517L134.40169494140625,48.66078429109391L135.85070953125,46.93284546810124L136.1686826953125,57.20803230221919L140.20863451171877,49.18881432785045L140.9612516015625,56.32508569919978L142.6369580859375,101.22001603943018L143.063743359375,125.78978013559306L143.73172880859374,147.42359434267584L144.38218341796875,136.8961042458304L147.28323515625002,128.1104695451895L147.4972323046875,152.21701911516286L148.9601506640625,105.89274770141759L152.88524525390625,77.09877152334377L155.0705551171875,69.93076709561467L156.41559369140626,94.24191752808242L159.9066488671875,230.40875275360696L161.276472421875,179.8535639156789L161.41792816406252,247.8102219281109L161.67121857421876,170.23910177146482L163.61532826171876,142.0150994676191L164.08201130859376,105.25156765756823L165.0377443359375,92.107137860488L169.49964533203126,154.387847289672L172.3402458984375,112.12091636431252L173.36247521484376,80.94928713935828L173.4138587109375,65.2175538060916L173.7330408984375,74.90655151137402L174.1827976171875,64.11208584364606L174.923928984375,58.4438888084003L177.6672031640625,52.82608767601938L179.1180312890625,61.721872252054816L180.43163525390625,49.14817483171037L182.52868640625002,52.72280768780775L183.97407392578125,57.517058594897165L184.84457080078124,53.361403646135365L186.0916784765625,50.73994872683251L186.54445775390624,53.739554785044575L188.199006328125,46.30510578285668L190.73493298828126,44.402102504542064L191.65923140624997,41.097067018952195L192.35018830078124,75.78087409184903L194.16493248046876,79.38301635293705L199.53239203125003,78.59844990675694L200.62353568359376,78.82980367007893L202.14267363281252,103.4018428114927L202.19405712890622,91.03136954235009L205.20150292968748,70.15213181690264L205.51947609374997,91.06777984569179L205.56783703125,93.55841818255021L205.98797267578124,78.46813821078408L207.28283677734376,117.48158168364276L208.1249216015625,108.04877971153667L209.58239935546877,137.91113305414473L212.03792595703126,118.89436855509727L212.35106302734374,124.4525407290151L215.88987462890623,105.24818126175938L216.18789890625,91.09874510654295L217.77716021484375,212.73940601878456L219.3108064453125,178.4505943353956L219.61729388671876,132.36576691245938L221.0082753515625,96.90383303747124L221.99786103515626,79.90591704598388L224.6788705078125,66.81769526452614L225.46654927734374,101.75113837391608L225.53969519531248,110.85612592977569L225.81958412109375,102.63532044817376L228.9297969140625,86.78705584007126L231.69241546874997,91.95342580674658L231.89009080078122,81.90702233432872L233.48237466796874,88.6623874885985L234.00104572265624,116.06859866876302L234.03127130859374,135.09750717937285L235.96449978515622,98.2166214588841L238.9622733984375,122.89965396544702L239.02453810546876,97.44552896273953L239.156926171875,92.0220156422425L239.82612064453124,69.7294842309456L241.37427515624998,144.25805644432904L241.93284398437498,100.03593940878037L242.6522129296875,107.08492133226473L245.49885861328124,95.61936234954882L247.09356052734375,193.8771353454821L247.20599970703125,153.28694646903472L247.84315505859377,272.11276453792215L247.9658709375,288.99256934558844L251.4490674609375,199.9054057051867L251.49138328125,208.53788478673277L251.50891412109377,143.8732519716071L252.606102890625,210.47944564044755L253.60173369140625,152.43554693114925L253.8114992578125,129.82530431540118L254.0557219921875,102.01872156614844L256.0336843359375,92.71582768890138L256.8243856640625,148.6753412636094L257.67191109375,106.72159875345068L257.7311532421875,79.18509460039047L258.37556273437497,81.22963567106193L259.51144025390624,116.97485339956447L261.18593771484376,109.59709065149403L263.0931721875,87.00308476680615L264.805149375,84.10024902697862L265.58557400390623,221.42255632565298L266.04258486328126,149.38226207784342L266.911268203125,101.3013040464612L266.9705103515625,75.18301719674422L267.2334729492187,131.22446763663856L267.4009226953125,120.63097789376599L269.6430566601562,87.98169160181057L270.523830234375,218.20743937965494L271.4021857617187,148.59253654287016L271.83501615234377,263.1661442467913L272.5561986328125,256.17790339287194L272.82822890625,176.722878836966L273.27979916015624,120.54283391438517L274.10979375,86.89772562386143L276.2292118359375,73.41702611566518L278.6520948046875,65.98757828665337L279.5945285742187,61.61972598071429L279.64651658203127,54.31401229998797L281.4618652734375,89.72414417923287L284.4795877734375,69.9351881138134L284.64159691406246,56.61349426458169L284.75705865234374,51.93977449387239L288.618075,50.08041241794782L289.488571875,61.634456694304696L289.5907343554687,54.56985142241707L293.11987376953124,60.12720949894658L293.5134108984375,185.38487586943194L299.48054607421875,250.65135837833813L299.5802905078125,165.09177861953216L301.7535101367187,118.57449927535318L301.9451403515625,94.48957514528432L307.34101195312496,168.81046120979786L307.7025099609375,114.49651742373949L308.2508020898437,83.29060900446798L310.895540859375,139.1106465711417L311.4263021484375,131.86944126213925L313.63821052734374,118.96899333670939L314.005149140625,92.24748973295212L314.3110320703125,94.18876427558142L315.18273796875,81.95171895114824L316.9485166992187,78.67118357710984L317.1812537109375,79.11189436967939L320.4202275,72.73553684983113L320.59190882812504,58.103599260052775L320.9775873046875,48.08732096540977L321.38200564453126,53.1455760013345L322.3607101171875,45.44503214426537L323.08068357421877,44.354937186644634L324.2558543554688,40.91562829661738L325.67282982421875,47.84535576849197L325.76592462890625,216.8453957569541L328.2897610546875,148.54291805815345L329.2908324609375,109.36106249804291L329.62815,152.39682821103926L331.3842565429687,104.60737308066486L332.0915352539063,220.13336034835217L338.40021955078123,159.12937413585684L341.1471208007813,109.7237086113245L343.55428646484376,101.28094380593008L345.0782605078125,72.58989996609517L347.9267197265625,89.4089896851625L350.5134253710938,81.64083495580232L352.377135,66.59673357512398L353.946447421875,69.88399440351637L355.23949798828124,100.6150336283654L356.4297815625,122.08241554011164L357.4006273828125,101.69454543536456L359.63248464843747,144.5821787699792L360.05141126953123,233.23602280823786L360.808864453125,160.00680901293993L361.20240158203126,119.73265247753295L361.4593190625,94.91720880991838L361.61709662109376,139.9637666459478L362.8273290820312,114.04396109077919L364.58766720703125,88.20939301427354L366.24221578124997,77.79371604309172L369.51262417968746,61.15585435024317L370.00771927734377,51.626938191601106L370.93504025390627,54.85854364487439L371.7849837304688,55.01238085659102L372.15978099609373,48.216460310410014L372.4432969921875,112.96045391141807L374.306402109375,88.3546255491938L375.723377578125,173.7606455572108L376.3127765039062,263.53433786557076L378.19401697265624,275.0781122429727L379.0633048242188,184.80508701107246L380.922178359375,274.95634302259293L382.09553560546874,343.2998703614521L384.5970050976562,223.18041958186916L385.86527068359374,152.12207665308645L386.1778032421875,109.02187726655205L388.2482558789062,79.52514879559638L388.4815974023437,115.37125348243218L388.73428330078127,85.60755393024148L392.3268964453125,65.02904580304538L394.47351755859376,137.41890872877545L396.363825703125,98.21473539687226L398.04074121093754,94.65045825729982L398.96685316406246,73.79003931337725L399.1995901757813,69.69154104741887L400.99317644531254,59.89480019302656L403.24679613281245,84.34238276893795L404.1771396679688,70.07947044381437L406.3292013867188,58.27606381660063L406.6242031054688,60.3647520404182L408.33678480468745,49.95423804885878L409.05131765625,82.336865289013L409.1927733984375,66.63953631103057L409.3348336523437,51.96545311796682L410.48763749999995,49.76036199920184L410.56199244140623,47.12257692213549L414.07239199218753,97.74199256298357L414.13888828125,102.25752073524842L415.01361673828126,92.99506767987282L417.42501398437497,71.47856909274495L422.6256283007813,67.23240130686429L428.4374039648437,57.31799256529607L429.06367810546874,48.98612319067831L430.29688201171876,53.902825561974744L431.9000470898438,49.54929352272414L433.2082104492187,43.27204982321774L433.3980271289063,39.84070054221938L434.648761875,60.32032232003684L440.09420343749997,63.263741383059404L440.93931082031247,55.30410677737216L441.615154921875,88.24289617864022L442.39678857421876,125.35065429763634L442.90639195312497,102.03329949591547L443.05147476562496,75.47042319186922L443.36823890625004,61.36016997699971L447.299983125,54.03100323084014L448.33490718750005,61.99185214878929L448.8632504296875,72.43620949054846L450.445862109375,94.04775326290785L451.71956830078125,99.2367081096116L453.05977078125,74.76878624262469L453.21996638671874,60.29179970682894L455.3829093164062,73.69651890552772L457.57486880859375,63.78376843188247L457.6359244921875,86.88458626064093L457.907954765625,166.19986769910108L459.05410898437503,129.1791419884888L460.95167126953123,143.12623073466585L462.183061640625,108.35195446495993L462.41458962890624,98.98631367376315L465.6178972265625,74.52217167193217L467.9204823632813,58.910962233391544L473.41005328125,53.680734187035064L474.36155472656253,50.32161802629732L474.66320607421875,93.08223734247751L474.9152874609375,107.52251458733129L474.99810556640625,83.5008736763528L475.62014812499996,64.39633655036278L476.6786481445312,74.7036065070915L477.0806484375,167.65849556083006L477.1477492382813,119.07223684522222L477.41615244140627,86.65826129277177L479.7417090234375,64.27519222116254L481.3829583398437,70.99272686848504L483.50056289062496,68.97646078234597L484.46475908203126,53.602227000985614L486.1005677929688,51.75416966592914L487.7194501757813,45.42905227134018L490.11271207031245,53.1149188088738L491.131918828125,46.75219923301717L492.62687630859375,41.32140038039793L498.4791542578125,37.8810636617333L503.3726766210938,49.76144626841481L507.57403306640623,81.17856056157075L508.71958277343754,65.05760256447394L509.6577849609375,51.63777196406123L511.090477734375,53.84024494885683L511.57046003906254,46.28262454270897L512.2299823242188,41.75081622600305L512.4862952929687,41.199773538111245L513.266719921875,48.566594688891584L514.21217625,50.857609706401334L515.0234309765625,44.222470675277506L516.0637956445312,48.38733173273068L517.4469184570313,75.9328198603515L519.379542421875,58.55052624772336L521.3895438867187,59.50263062495197L521.98377890625,54.21433434115772L523.0779451171875,60.29550094143709L523.4170761914062,56.77967521391008L524.2265173828125,55.621476255903865L524.30510390625,48.51895394507061L524.476785234375,49.05067419161209L524.7578831835938,45.53852153509738L524.9779254492187,44.5578560155028L529.8188552929687,48.477028371178754L530.3943504492188,55.8811138995192L531.1923059179687,61.08986959026463L532.823883046875,76.10773903826608L533.1176757421875,60.815745107529935L534.8217942773438,54.519931478618574L535.1772471679687,62.918204553913434L536.3367006445312,86.39324673890553L536.6244482226563,71.01660808849027L536.9230770117188,69.42891688303769L539.3967389648437,56.549092097023774L540.0870913476563,60.20104862626775L540.7593083789063,59.86397089586492L540.9757235742187,49.997687268411106L542.0958837890626,63.796536200138966L542.9639626171875,169.62794058495345L546.4338598828125,121.9862905977582L546.7868947265625,90.39537271490184L548.6632991015625,76.19795603531894L549.9279376171875,61.81226205216821L551.2234062304688,68.70991323820935L552.0002037890625,236.4498025502693L552.5472868945312,155.31397741591525L553.0103428710937,105.43871305916066L554.7096253125001,91.35070999582622L555.5251116210937,93.63857335519796L556.1350639453125,73.92195548219689L558.2429963085938,88.77991316678049L558.6341153906251,67.86606194950296L561.3459549609375,57.75793920980188L563.42426625,57.3878337563652L566.381537578125,50.505200816487026L566.4583105664062,61.46489840942306L570.4372066992187,77.71498947261388L571.2811050585938,66.32467669200068L573.4724600390625,65.2368505176971L574.3375163085938,57.149067638937865L578.3418019335937,47.777399765625155L578.921528671875,51.600602631076924L580.4557794140625,48.80058444994972L581.1854250585938,100.11290740047869L582.3980755664062,74.22291110202653L583.1464610742188,89.82030377534022L584.4195627539062,67.15558923332095L584.7768291796875,78.65445341496591L586.3987341210938,68.70886163013535L586.7106621679687,66.5470969503961L587.1713000976563,66.18899806891923L588.9576322265625,78.09831792447004L591.2185060546875,61.95236456592695L592.7787508007813,53.245087791680206L592.9407599414062,51.38936447453435L598.8867372070313,90.58098559589344L599.204105859375,69.99670553810095L601.5435662109375,57.17262962226092L602.8190859375,101.74138051130788L602.8976724609375,182.63356152390492L603.0953477929687,134.60324424037364L607.5475766015625,111.77571954446452L608.2463921484375,130.7161489016855L608.5413938671875,134.71568712514912L609.263180859375,99.81348520471023L609.4620652148437,101.71164996596198L609.8453256445313,137.07133551342505L611.0724844335938,140.30409411134252L612.4012011914062,155.32232592428878L612.9071775,122.87804550483915L614.8857443554688,100.60402403804721L616.03613015625,79.76589641888779L621.8146576757813,102.59100647520926L622.3871302734375,82.5241875812525L622.9287727734376,93.86699716836901L629.5276226953125,74.89672682637385L634.1702726953125,82.82794259759439L634.6127752734375,85.69314613206777L635.494153359375,74.08643248834368L637.2484463671875,70.36432212089395L638.074209375,65.74668575224227L640.9093693359375,88.08823442397687L641.5894450195312,70.99038679562908L641.594885625,60.37281712986769L646.0670633203125,70.16266427694403L646.14564984375,61.64275990878724L650.3621190820312,68.26847364279737L651.4496356640625,56.85577211244773L651.9791879296874,51.67279925026814L652.34552203125,51.13877077149354L653.8235531835937,48.27239492682818L654.9503630273438,50.2983983167899L656.0360660742188,46.51815738730982L656.4356483203125,42.27414210112907L657.0419735742188,41.12025776786817L661.0130110546876,80.54436111619005L661.323730078125,66.59998959404184L661.49541140625,57.460500789296404L662.1488885742187,126.46001067913278L662.5605610546875,93.90112026427212L663.3488443359375,75.55628576811567L664.892767265625,65.18058285079246L667.9280206054688,208.42903455175068L668.684264765625,141.0845749144382L670.768621171875,103.57369689134521L672.9424453125,76.82257595054963L673.6515375585938,118.3213798307935L674.3588162695313,86.63424573561906L675.0177340429688,111.34029044640872L676.4238283007812,96.93232214410791L678.0088580273438,73.79539562439734L678.525715546875,132.01331987485776L678.7874691210937,150.82358265224389L679.0848888867188,118.19761443318902L679.275310078125,110.12575602043856L682.5934749023437,83.97778619235268L682.9634360742187,98.31494754496522L685.9255434960937,74.86361236538475L687.636916171875,60.950332624709496L688.0558427929687,62.74220168769116L688.6512868359374,68.16547463047362L691.15033828125,55.01416102473648L692.279566171875,64.57608867540782L694.7205844921875,53.42859509500762L695.5808046679688,56.51029994435848L698.6009452148437,67.55378437845557L699.1135711523438,70.0852070975819L701.3000900390625,63.00465246012919L701.7704001562499,58.53177869898746L703.441270546875,69.19810265649959L709.0849919531249,87.69440323918822L710.5110350976562,119.21058182006935L710.560000546875,86.39463138631504L712.7205254296875,83.10841723115156L713.28030328125,156.9872380484993L714.8381299804687,211.67354910313222L714.9209480859375,216.9318487628646L714.9916759570312,145.73675453569575L715.9226240039062,108.96333197299292L715.9649398242187,82.35371962513713L716.6383658789063,128.39668778375497L716.8154878125,127.35666962740248L717.7186283203125,123.76072939203637L718.9240246875,111.45668817738569L720.5507657226563,107.8850783358805L720.9013825195312,114.23825544421634L721.4514881835937,99.31916337194902L721.803918515625,109.00013763894353L722.5813205859374,91.4867400240285L723.2873902734375,77.42195437618402L723.74561015625,114.94777295749368L724.1995984570312,84.70654940462694L726.7736093554687,73.75858677540177L726.8002078710937,64.62514337369181L730.3045623046875,68.47884751837476L730.7210708789063,80.57820286441469L732.0407199609374,88.88752408080474L732.7993821679687,68.33910544665562L733.4196111914063,114.64303503007834L740.2675199414061,86.01159820301028L740.7317849414062,72.68268415536102L744.3824312109376,56.69738450768954L744.7010088867188,105.99168032481293L746.23344609375,76.24610421701686L746.3017559179688,70.44295238640555L746.738817890625,91.12817593328144L746.8778555859375,68.27876999325741L748.9380315234374,99.39064046947482L749.1586783007813,91.17414606933788L749.3533310742188,76.49618231847877L750.477118359375,96.75925329086175L754.9311607031249,97.00063816164128L756.0271404492187,82.36089782389514L756.5675739257812,123.28183116002384L758.7843183984376,120.69884140779678L759.0545351367188,122.70287341171561L759.7213115625001,113.47203002747337L760.7507950195312,105.1913826011207L761.0367290625,83.78689786449594L761.1757667578125,78.23950241002753L761.8818364453125,90.96087453361335L762.8877439453125,69.40438177344785L764.58158578125,58.08981026504983L766.1805192773437,68.1829985457334L767.0564567578125,109.23121583924734L767.5207217578125,89.61953996697687L767.7861024023438,174.21142196702732L768.7327677539063,129.40530375866757L768.7696429687501,111.27543900745313L770.251905703125,92.45601639352563L770.2827358007813,81.4149364006658L770.4779930859374,71.10715346170308L770.5426758398437,72.45631946702507L770.9132415234375,72.70695528137507L771.88408734375,105.88082624523535L772.5145930664063,135.75694795875964L772.79327296875,108.84807379501594L772.8918083789061,95.57609857593494L772.9413783398437,82.35338510557719L773.7405428320312,140.6871872394366L774.0639566015625,114.46495782429471L775.146032578125,91.53748900946675L776.9553361523438,71.75604013953627L777.80346609375,92.72435363742126L777.892933828125,68.31817872889289L778.3312048242187,143.14838548640878L778.8752653710937,101.31059334361841L779.1557588085938,170.94308836271938L783.5312146289062,138.7770558834706L785.205107578125,182.64675164464919L785.50252734375,124.47844469692593L785.751586171875,93.28467309562139L786.2829519726563,192.71777778022155L786.5459145703126,162.19105705709856L787.2253857421875,122.71710739190345L788.9609388867187,101.46193728837348L789.2879797265625,88.84953708644497L790.0164163476562,100.09657488582005L791.6008415625,88.92336018274703L792.3987970312501,147.04591183895167L793.1846622656251,110.29209530373988L794.3652736523437,85.76047299516551L796.3015246875,77.47532614596098L796.6340061328125,84.1310901315654L796.9380755273437,67.01255068013936L799.781094140625,64.47754627960843L800.109948515625,58.9026042967911L800.4938134570313,85.62581650912028L804.4249531640625,80.39176388680501L804.49870359375,60.95206165373067L807.3725523046876,122.382367939113L808.5652539257813,88.1463387312641L808.9025714648437,160.35368414534034L810.8642119921876,130.09898446686805L812.5193650781249,120.96043162755808L818.2187015625,107.6183094931402L819.4307475585938,106.05099740342843L821.1838315429687,95.17819135616152L821.5187310351563,138.91881194847778L824.5497527929687,151.54534976564616L824.8532176757813,107.5519789867566L825.2177382421876,111.70360784011882L825.2800029492188,84.68542883561729L827.4858662109376,66.20149484733749L829.0987034765625,89.43750090873243L829.1071666406251,127.73088546679023L831.58082859375,95.8944465403891L832.0916409960938,127.67937769205192L832.5474428320313,91.35258832997577L833.6059428515625,90.8744138802677L834.378508828125,90.29570143971382L835.2665365429688,77.31358625026668L835.3940885156251,70.47043406088429L835.8752798437499,71.25308691930344L836.2506816210938,61.25161990804418L836.7663301171875,64.47499770690766L836.9652144726562,52.03370532256219L837.086721328125,87.33536310113578L839.6190209179688,71.79521711538501L839.635342734375,126.0254845194237L840.4556651367188,89.23886208368636L842.2613416406251,98.6814537324506L842.2812905273437,116.98972757327546L842.6143764843749,94.37909198801509L842.9045421093749,78.23586555719844L844.8553014257814,152.8082213008432L845.8817623242188,115.51228215122399L847.1065030664063,170.4204426754962L849.6182492578124,143.09889985021653L851.4976761914062,98.23417805967753L855.8030086523437,102.78215932451506L856.1336765624999,85.49549894692197L856.3337699414063,91.71495192147313L860.1494479101564,102.04043217836029L862.6750978710937,91.95977452002889L864.1881907031251,82.75478430749736L864.2069305664063,105.82215424872491L864.7395053906249,99.45911262927685L866.0597589843751,106.46528637706182L866.6739428906251,99.6059571641621L870.8831579882813,90.04891771304234L875.4478259765625,113.8659946276404L875.8401540820312,135.1982436033283L877.9450638867188,105.34863791180815L878.9727338085937,123.42620377131209L880.2935919140625,95.7637014114135L880.3576701562499,78.33234794278584L880.4199348632812,89.97994070255545L880.6405816406251,94.88649532797211L880.9361878710937,146.2894048786299L882.4994551757813,100.93539131260735L885.1000645898438,87.2469677840282L885.4627716210938,94.08154111591627L885.6223627148438,146.1974156647185L888.426692578125,105.30953683550715L891.7097957226563,83.34409322795607L892.0084245117188,65.42302943740685L892.2967766015626,137.9203437773847L892.4678534179687,166.45252842357536L893.4199593750001,125.56021395117506L898.0402424414061,112.96836047643701L898.4289434765625,86.05634418293407L898.5915571289063,110.12022723653654L899.4614494921875,85.19028220116343L900.0714018164063,92.17277204715757L902.3836591406249,82.8854478700373L902.6212322460938,69.96550177952129L903.6555517968751,56.021079310300834L904.5901269140626,84.2424373319882L904.9903136718749,107.7560499364816L905.3880823828125,96.82011781064767L909.0671407031249,90.62817197399194L912.6567312890625,80.26644544218102L913.1488038281249,89.30475844391657L913.4008852148438,75.3430567052869L914.9599209375,60.09667715233014L916.2445083398437,51.12924621582894L917.1808969921874,48.20762653399033L917.4366054492189,146.46549312918495L919.9894584374999,115.18769892841046L920.6816243554688,84.97427498572752L921.7679319140625,164.21412125989008L921.9855561328125,119.741731445576L922.066560703125,106.62292088305071L923.6636806640626,92.36696321508359L924.494279765625,71.01854142392325L925.4355045117187,69.08968691733271L927.0930756445313,71.69782025043249L927.1571538867187,80.34661140098616L928.9174920117188,97.64230198892622L929.2318381054688,97.1897515847246L931.2509072460938,146.04825936519867L931.2515117578125,205.40598634638647L931.6251,146.9061167523757L932.8933655859374,111.23501712593415L933.61273453125,161.93394306607826L934.3097365429687,110.67791926448223L934.8030181054687,84.59633030643867L936.2925349804688,75.06782358378655L937.396977890625,162.09586242729716L937.8237631640625,114.03070721563276L938.3629876171875,96.68341576776845L938.8242300585938,102.72414786053866L939.6747780468751,103.4594519939015L940.0459482421876,137.4295742872948L940.5670373437499,187.98794404647316L942.2010325195312,152.88132066715696L942.4621815820313,162.34967277162636L944.5308206835938,177.46773071118213L945.076694765625,137.02461125271336L948.2582399414063,136.01788173804766L949.1704481249999,96.49355004245095L951.2028165234375,84.88674888619214L951.4325309765625,77.67393723492887L952.4124444726563,70.99163163521926L954.0518802539062,82.78597828637979L954.1625058984374,100.46098788315906L956.3212172460937,75.1295947774342L957.926195859375,73.28648104334428L958.3838112304687,95.75312361159652L960.8121348046875,73.5241050782128L961.83617765625,123.7103873409226L963.5318330273437,147.927902639949L963.7585249218749,130.21368686022973L964.6640834765625,106.62657561697137L966.8530204101563,106.09362649200905L967.148626640625,99.60335632132612L967.3934538867188,142.07467607240162L968.6913405468749,171.12470893609697L969.4318674023438,161.49640032379733L969.8532120703125,141.46168657975736L971.4733034765625,200.72567553721277L971.4926478515625,145.7158387446547L973.0426158984375,109.74062519336609L973.7873743359374,101.07961963453803L974.8241119335938,81.44986824297258L974.8779134765625,114.6442441171608L975.8058389648438,90.91732779897465L976.3595716992187,92.38523811553249L977.5063304296875,85.96501500281285L979.9461397265626,68.79874150081038L983.1470292773438,65.980927742264L986.0402223632811,54.46825418278059L986.536526484375,50.421179648664484L986.6779822265626,84.17479522611315L989.3475059765625,145.56517513743407L989.6007963867188,101.11035554499253L989.9175605273438,74.7894487672497L990.5099820117189,63.16767051776938L991.5557872851563,145.53479064083518L991.6011256640626,264.2589195196415L992.0158207031251,195.98142407683045L993.8795303320312,138.14689390866465L996.1349635546875,140.63201572900118L996.329616328125,102.1774790430374L996.484371328125,78.68542661334907L996.5315232421875,68.91808909813072L998.7664030664063,56.542223087784734L998.9126949023438,48.816761226557L1000.2039319335937,92.2235685653104L1000.7661278320312,106.09274561206185L1001.344645546875,86.59194487929147L1002.7199097070312,114.00549173116576L1004.7625548046874,88.79477981185849L1004.9765519531251,67.91347467575036L1005.6384922851562,76.06842681570987L1007.3480514257813,85.02375281336391L1007.46955828125,67.4668708591609L1008.9433578515625,190.87438477569512L1009.5043447265624,181.18627571757847L1011.8335283789062,132.79369944152955L1013.454224296875,122.70474955330924L1015.6600875585938,124.80567205483098L1018.2183811523438,118.60467883666985L1019.1354254296875,125.13648804259674L1019.4449354296875,151.83023078580132L1023.6541505273436,122.4552001913752L1025.5039563867188,95.67410069467815L1026.2904261328126,74.34240718938224L1026.4995871874999,65.58421862874815L1027.1004718359375,77.11558907481661L1027.4601563085937,99.1233853414812L1029.3365606835937,73.62279364557023L1030.2747628710938,60.38399109298561L1031.9540964257812,49.43609622153387L1032.3790681640626,89.9785621346995L1033.0204550976564,95.64114156257898L1033.6817909179688,84.56691359813085L1034.8333857421874,190.42553599974556L1036.6185088476561,212.04284028590342L1036.7103946289062,176.56570626724135L1037.4648252539064,123.82708280937896L1037.4666387890625,88.11298135314604L1037.5258809375,99.22712036606198L1038.824372109375,74.3307374396118L1039.4161890820312,85.98112124670696L1040.6590651757813,66.85507288258763L1042.1769941015625,58.564723650702796L1042.5590455078125,108.49283387070237L1042.828657734375,94.76650816682185L1046.0440555664063,74.119725575943L1047.1980684374998,70.36644480282017L1047.321388828125,179.03401209505768L1047.9150193359374,127.26394912357549L1048.1803999804688,167.37605349275722L1049.773288359375,123.99384645851407L1050.4775445117189,129.2687929524896L1050.7417161328124,135.55097612463936L1051.8056567578126,116.77748408152767L1052.1786404882812,88.11980534931487L1054.135444921875,85.76946345174588L1055.9429349609375,68.87409897568388L1056.6278467382813,56.08047680808643L1057.810876171875,51.35312147589649L1058.6275715039062,55.471355281186824L1060.7361083789062,102.4798217248397L1061.1780064453126,84.73206504770977L1062.4686389648439,67.88374305122409L1064.5396961132813,72.21452684017012L1067.4310756640625,78.14731548316466L1067.8282398632812,60.507151878399824L1068.4780899609375,56.21249315531436L1069.4187101953125,55.868434091755105L1069.7717450390624,45.55022796413202L1070.0401482421873,94.99910942566936L1070.6948344335938,102.0122704079898L1071.2032287890625,100.33658664054585L1072.8293653125,80.74737400786229L1073.8425269531251,72.42593590602965L1073.9313901757814,91.59962591639578L1075.0473188085937,67.32164796061167L1076.6631786328126,152.40396783868582L1077.8873148632813,105.29156042409014L1078.7614388085938,76.47593712372824L1079.0939202539064,96.04769782163643L1080.0756472851563,103.12652633749218L1081.6449597070314,83.62853349544264L1084.7727033398437,71.18885929761922L1085.7798198632813,127.60573292600272L1086.8812402148437,90.91956413285232L1086.890912402344,125.2356498688238L1090.343278828125,91.20998053847411L1090.6576249218751,88.44618514238994L1092.1864350585938,98.49068934356683L1094.366304316406,112.55153212330052L1095.645451113281,145.91453575719183L1096.9100896289062,120.53226431982982L1097.4335967773438,89.25681100354952L1098.7707766992187,67.6038645033024L1099.9779866015626,54.963137800930895L1101.2408115820313,56.12857553687035L1101.9632030859375,52.477439578332586L1102.167528046875,48.82070821282747L1103.1667859179688,85.11870075915736L1104.7288441992187,78.40406066569378L1105.4016657421876,67.08055423136173L1107.7302448828125,55.27168686649569L1108.82441109375,65.08700470007282L1111.5102566601563,84.74815819190043L1114.27952484375,79.42345741108716L1114.7425808203125,59.653490416500986L1115.8446056835937,66.72774698871011L1117.9658373046875,56.18478597723029L1118.4016902539063,46.309857472911936L1118.8629326953126,71.74803374119723L1119.8102025585938,58.85045596306399L1120.0211771484376,51.89854988065289L1120.1995081054688,47.64639845256171L1120.9285492382812,41.220508913780236L1121.6575903710939,43.080079591622955L1122.9325055859374,41.25190269729556L1125.2731749609375,39.75712590087094L1127.5866413085937,37.92373799484161L1129.4328200976563,55.402283127314945L1129.6383540820314,47.27287889433328L1130.6895999609376,92.40665249176283L1131.1000634179686,67.88037757961425L1131.8798835351563,169.10625427596852L1133.3754455273438,127.3991467990463L1136.36112890625,136.08098310458578L1138.9031006835937,184.60747211115307L1139.3413716796874,125.05038592181656L1141.741283203125,100.80763252950939L1143.3722558203126,113.55224274621742L1144.5939740039064,98.552649551787L1145.2776767578125,198.38200175413965L1145.6579146289062,139.42514630943225L1146.8488027148437,127.41701333993487L1152.2174712890626,88.93758067651872L1154.1688351171877,74.51768598058393L1154.963163515625,70.7731801694546L1155.9636304101562,78.69117769753426L1156.5711646875,65.78647130224397L1158.2347809374999,51.55610412057216L1160.1680094140625,48.85385945854178L1160.1897718359376,46.51040864835727L1160.8910054296875,42.78666179687109L1161.2869606054687,42.12158267086944L1161.7500165820313,64.45502567521451L1164.2901748242189,55.25205614704915L1165.8044766796875,60.05219345414065L1165.9078481835938,122.9397709734644L1166.2367025585936,86.40902627512247L1166.3872259765626,70.02299502494597L1166.9995963476563,59.34372705818811L1168.7061329296873,56.91822104812615L1168.7937871289062,63.4631715068874L1169.103901640625,68.56117045579299L1173.3445513476563,149.73095075308052L1173.9526901367187,137.79342941652993L1174.4375085351562,180.14474724657092L1175.2681076367187,124.21896434382654L1175.355157324219,125.59602619741003L1176.4819671679688,121.84618894775893L1177.1215405664063,107.20716366481888L1177.7206116796876,186.51408441550797L1180.0086885351561,126.17244412712618L1183.5323873437499,124.67475397117357L1183.73550328125,88.33269750313414L1184.0927697070313,135.1624107732562L1184.1888870703126,95.59513783301043L1184.5709384765626,71.79104645159913L1185.1561058203124,64.33258128230024L1186.2992374804687,86.63701095023309L1187.678733222656,66.57499500416854L1189.0902680859374,56.76575776519264L1190.7387715429688,91.59181498039898L1191.8970159960938,132.96429448455063L1192.060838671875,99.59597360568931L1194.6348495703126,74.47931091474106L1194.7617970312501,97.49583388260972L1195.272004921875,72.95159805352677L1195.3681222851562,77.47402155122266L1197.883495546875,58.14350634647076L1197.8986083398438,89.21347731848157L1198.3175349609376,70.24386287033319L1198.9033068164063,77.59271053254463L1199.6329524609375,65.33879771101391L1200.4061229492188,51.560971440481644L1201.084989609375,64.54220030403586L1201.266947636719,61.0206787568119L1201.9004759179688,72.01516147743394L1202.772786328125,58.700790776555095L1204.1208474609375,57.562977095689995L1204.72415015625,73.7740959705392L1207.00678640625,62.22159681209801L1207.734618515625,51.19663157158422L1208.0773766601562,42.94390209968887L1211.6059115625,79.32338809642786L1213.6026137695312,114.39377293988227L1213.7900124023438,85.03081799748031L1214.6913393749999,68.64393631936608L1215.1247742773437,63.421318449506124L1215.714173203125,62.09333358879624L1215.9880170117187,65.74758866236056L1216.6608385546874,56.09788307431606L1219.0843260351562,47.15313818981216L1219.54194140625,73.71536676841951L1220.0600079492187,67.33767876480806L1221.3736119140624,80.63895294341323L1221.4576390429686,146.13240894837895L1227.7143353320312,113.8427175173981L1227.9506994140625,82.17696658908271L1231.4532403125,143.76343627654876L1231.6279441992187,102.09821269442654L1233.3985590234374,74.06660122591268L1233.6814705078125,85.50301271032099L1237.761924609375,71.58998220175994L1238.9649029296875,62.043147653403835L1241.5896928125,63.875982660092696L1241.7426342773438,84.98779586436622L1242.92929078125,64.63759629417818L1243.4854415625,115.86821841889244L1243.9430569335937,94.18134599145418L1245.2258308007813,137.89522850642314L1246.9777057617187,154.9328154333217L1247.743622109375,147.32745430515905L1250.3206555664062,100.27223090914904L1253.0155688085938,79.53128273241532L1253.7941799023438,80.22149032922276L1256.83789640625,67.15232516867927L1257.7615903125,60.789886543411086L1259.995865625,48.290861302171955L1261.8638068359376,44.90398974034483L1262.3861049609375,47.55927349217703L1263.8181932226564,65.03570968561155L1264.3417003710938,59.55236530693049L1264.8639984960937,76.16218353743365L1266.8709774023437,61.79194457194217L1267.1665836328125,49.30515714204914L1268.8864194726561,46.371272168854574L1269.3857461523437,44.738531245171856L1269.414158203125,65.05784284673912L1270.5040928320313,52.7734856462645L1270.7023726757814,44.13499285317462L1272.310978359375,68.60355303011535L1272.6531319921876,61.7560236830843L1277.7836229492189,50.742171572407095L1278.0266366601563,52.54079364345068L1278.6142220507813,71.6641743100023L1279.3487037890625,96.073527050992L1279.3541443945312,70.25876437007192L1280.8642146679688,64.26369258987195L1280.9706087304687,66.2368387593465L1281.45361359375,59.878992153026964L1282.3676353125002,60.362471534501516L1283.0465019726564,73.81649172526062L1284.7361122265625,55.72522272003569L1289.9935506445313,50.173358591394894L1290.7630940625,43.75012489080264L1291.8965535351563,39.18488918495089L1292.1371491992188,34.95949658603608L1292.540358515625,40.77133175045928L1292.842614375,36.388645126287244L1293.937989609375,35.35217864147667L1294.4578696875,97.57789739270117L1295.4456418359375,107.90533524333895L1296.244806328125,112.54258360016027L1297.0784279882812,209.1601637992125L1297.4459711132813,138.56247994857202L1297.990636171875,158.20166185234285L1298.0111895703124,211.81722273370207L1298.561295234375,206.74306449854723L1298.587289238281,136.58347888925286L1299.3380927929688,106.49473193370471L1300.232165625,76.38324558188418L1300.3016844726562,177.28934356838406L1301.6721125390625,122.78923812669483L1301.77487953125,130.91397183634024L1302.5311236914063,91.00094827113853L1302.5619537890625,77.15800623952333L1303.6156177148437,117.43445972716209L1304.0871368554688,91.31350047061076L1304.116153417969,82.13343434136652L1304.9527976367187,74.10061477781268L1304.9679104296874,81.62974432206711L1305.94359234375,73.68054062781665L1306.9833525,77.27668384705743L1307.4216234960938,58.44957998987892L1308.1857263085938,80.73636753914869L1308.2933293945314,73.36389845346282L1309.0199524804686,68.37780056437775L1310.0415772851563,67.02673473382552L1311.0444622265625,97.64360788121559L1313.4776218945312,144.50892012509544L1314.1353306445312,102.60777000899816L1315.4634428906252,103.06796485373799L1315.7427273046874,75.87028801554095L1317.7938355664062,66.3972212142566L1318.4624255273438,98.74580290119764L1320.2294132812501,71.62998248458456L1320.5812391015625,56.227554353002034L1321.0436905664062,53.79994149918751L1322.5440886523438,54.68781305501102L1322.6946120703124,112.23118149727122L1323.2453222460938,81.89095973664247L1323.3517163085937,69.77917340811327L1325.3109387890624,134.29299314866208L1328.2083634570313,103.38322249680601L1329.92578125,76.39163067120221" style="fill: none;" fill="none"></path></g></g></g></g><g opacity="0.2"><g><g><g><path stroke="rgb(255, 112, 67)" stroke-width="2px" d="M121.18948681640626,28.49410974979405L122.40576439453125,37.88719201087956L123.61841490234376,67.91169711947445L124.95982640625,90.23470507562165L125.41441921875,46.62839198112492L126.50072677734376,73.6329136192799L127.53202376953125,39.68419396877293L128.1383490234375,49.58742299675946L130.64525912109374,39.64183622598652L133.03066236328124,39.79441398382191L133.319014453125,55.68103933334355L134.40169494140625,48.304359778761906L135.85070953125,44.346579253673596L136.1686826953125,72.60068239271645L140.20863451171877,37.169413655996365L140.9612516015625,67.02445970475678L142.6369580859375,168.5434135198593L143.063743359375,162.63818801939487L143.73172880859374,179.87101995944977L144.38218341796875,121.10583135485653L147.28323515625002,114.932499319315L147.4972323046875,188.37605023384094L148.9601506640625,36.407255172729535L152.88524525390625,33.908148348331494L155.0705551171875,59.17881140112881L156.41559369140626,130.7085395008326L159.9066488671875,434.65865717828274L161.276472421875,104.02085827291016L161.41792816406252,349.74514634907246L161.67121857421876,53.882464408874554L163.61532826171876,99.67910537123684L164.08201130859376,50.1062772572041L165.0377443359375,72.39049473404889L169.49964533203126,247.8089069724083L172.3402458984375,48.720521792769475L173.36247521484376,34.19184410572056L173.4138587109375,41.61995404958729L173.7330408984375,89.4400479793549L174.1827976171875,47.9203874021769L174.923928984375,49.94159327447419L177.6672031640625,44.39938598871235L179.1180312890625,75.06554910540585L180.43163525390625,30.28762871026997L182.52868640625002,58.08475697040562L183.97407392578125,64.70843495428566L184.84457080078124,47.127921223640485L186.0916784765625,46.80776634812359L186.54445775390624,58.23896387219433L188.199006328125,35.15343227982525L190.73493298828126,41.547597587108655L191.65923140624997,36.139513790607495L192.35018830078124,127.80658470094208L194.16493248046876,84.78622974455361L199.53239203125003,77.42160023748879L200.62353568359376,79.17683431506161L202.14267363281252,140.25990152359012L202.19405712890622,72.47565963864331L205.20150292968748,38.83327522873883L205.51947609374997,122.44125188887124L205.56783703125,97.29437568783764L205.98797267578124,55.832718253135724L207.28283677734376,176.00174689292908L208.1249216015625,93.89957675337796L209.58239935546877,182.7046630680561L212.03792595703126,90.36922180652623L212.35106302734374,132.78979898989203L215.88987462890623,76.44164206087594L216.18789890625,69.8745908737183L217.77716021484375,395.20039738714695L219.3108064453125,127.01737681031231L219.61729388671876,63.238525778055234L221.0082753515625,43.71093222498898L221.99786103515626,54.409043058753056L224.6788705078125,47.18536259233956L225.46654927734374,154.15130303800106L225.53969519531248,124.5136072635651L225.81958412109375,90.304112225771L228.9297969140625,63.01465892791752L231.69241546874997,99.70298075675969L231.89009080078122,66.83741712570195L233.48237466796874,98.79543522000317L234.00104572265624,157.17791543900967L234.03127130859374,163.6408699452877L235.96449978515622,42.89529287815098L238.9622733984375,159.92420272529125L239.02453810546876,59.26434145867829L239.156926171875,83.88674566149716L239.82612064453124,36.29068711400036L241.37427515624998,256.0509147644043L241.93284398437498,33.70276385545735L242.6522129296875,117.65839421749119L245.49885861328124,78.42102387547497L247.09356052734375,341.2637948393822L247.20599970703125,92.40166315436367L247.84315505859377,450.35149164125323L247.9658709375,314.3122765570879L251.4490674609375,66.27466024458413L251.49138328125,221.4866034090519L251.50891412109377,46.876302748918576L252.606102890625,310.38873614370823L253.60173369140625,65.36969886720185L253.8114992578125,95.90994039177899L254.0557219921875,60.30884744226937L256.0336843359375,78.7614868730307L256.8243856640625,232.6146116256714L257.67191109375,43.79098498821263L257.7311532421875,37.88033837080006L258.37556273437497,84.29644727706913L259.51144025390624,170.59267999231815L261.18593771484376,98.53044652938847L263.0931721875,53.112075939774556L264.805149375,79.74599541723732L265.58557400390623,427.4060172736645L266.04258486328126,41.32182070612912L266.911268203125,29.179866999387784L266.9705103515625,36.005586922168774L267.2334729492187,215.28664329648018L267.4009226953125,104.74074327945713L269.6430566601562,39.00776216387753L270.523830234375,413.5460610464215L271.4021857617187,44.170182287693066L271.83501615234377,435.0265558026731L272.5561986328125,245.69554211199284L272.82822890625,57.540342003107114L273.27979916015624,36.272766530513806L274.10979375,36.43006318807606L276.2292118359375,53.19597685337071L278.6520948046875,54.843406543135686L279.5945285742187,55.067947521805806L279.64651658203127,43.35544177889828L281.4618652734375,142.83934199810028L284.4795877734375,40.25175401568417L284.64159691406246,36.63095349073414L284.75705865234374,44.92919483780865L288.618075,47.29136930406098L289.488571875,78.96552310884003L289.5907343554687,43.97294351458554L293.11987376953124,68.46324661374096L293.5134108984375,373.27137542515993L299.48054607421875,348.5510821416974L299.5802905078125,36.752408981323285L301.7535101367187,48.798580259084744L301.9451403515625,58.36218895018105L307.34101195312496,280.29179030656815L307.7025099609375,33.02560174465184L308.2508020898437,36.4817463755608L310.895540859375,222.84070292115211L311.4263021484375,121.00763329863553L313.63821052734374,99.61832144856457L314.005149140625,52.16523432731633L314.3110320703125,97.10067608952527L315.18273796875,63.59615096449856L316.9485166992187,73.75038051605229L317.1812537109375,79.77296055853371L320.4202275,63.171000570058865L320.59190882812504,36.15569287538533L320.9775873046875,33.06290352344517L321.38200564453126,60.7329585552216L322.3607101171875,33.894216358661694L323.08068357421877,42.719794750213666L324.2558543554688,35.756664961576504L325.67282982421875,58.2399469763041L325.76592462890625,470.34545573964715L328.2897610546875,46.08920150995259L329.2908324609375,50.58827915787701L329.62815,216.9504767805338L331.3842565429687,32.92319038510327L332.0915352539063,393.4223412498832L338.40021955078123,67.62339481711392L341.1471208007813,35.615210324525876L343.55428646484376,88.61679659783844L345.0782605078125,29.55333420634274L347.9267197265625,114.63762426376347L350.5134253710938,69.98860286176209L352.377135,44.030581504106564L353.946447421875,74.81488564610486L355.23949798828124,146.71159246563911L356.4297815625,154.28348840773106L357.4006273828125,71.11274027824406L359.63248464843747,208.91362877190113L360.05141126953123,366.21678886562586L360.808864453125,50.16298831999306L361.20240158203126,59.32141767442231L361.4593190625,57.69404330849652L361.61709662109376,207.533603399992L362.8273290820312,75.16425275802617L364.58766720703125,49.457540899515195L366.24221578124997,62.17020058631901L369.51262417968746,36.19906181097035L370.00771927734377,37.33356395363812L370.93504025390627,59.70595182478432L371.7849837304688,55.24313667416577L372.15978099609373,38.0225794911385L372.4432969921875,210.0764443129301L374.306402109375,51.44588300585751L375.723377578125,301.8696755692363L376.3127765039062,398.1948763281107L378.19401697265624,292.39377380907536L379.0633048242188,49.395549163222356L380.922178359375,410.1832270398736L382.09553560546874,445.81516136974096L384.5970050976562,43.0012434124947L385.86527068359374,45.53456225991253L386.1778032421875,44.371578186750455L388.2482558789062,35.28005608916287L388.4815974023437,169.14041051268578L388.73428330078127,40.96200460195546L392.3268964453125,34.161283612251324L394.47351755859376,246.0037031173706L396.363825703125,39.40847539901738L398.04074121093754,89.30404254794125L398.96685316406246,42.499410897493405L399.1995901757813,63.54379364848141L400.99317644531254,45.19968891143803L403.24679613281245,121.01375663280491L404.1771396679688,48.68510195612912L406.3292013867188,40.57095387578015L406.6242031054688,63.49778437614445L408.33678480468745,34.338467061519665L409.05131765625,130.91080614924434L409.1927733984375,43.093542844057126L409.3348336523437,29.95432832837109L410.48763749999995,46.4527253210545L410.56199244140623,43.16589930653576L414.07239199218753,173.67111602425575L414.13888828125,109.03081299364571L415.01361673828126,79.10138809680943L417.42501398437497,39.20382121205334L422.6256283007813,60.86314962804322L428.4374039648437,42.446379452943845L429.06367810546874,36.4883191287518L430.29688201171876,61.277879118919415L431.9000470898438,43.01899546384816L433.2082104492187,33.85618427395825L433.3980271289063,34.69367662072186L434.648761875,91.03975498676304L440.09420343749997,67.67886997759346L440.93931082031247,43.364654868841214L441.615154921875,137.6510802805424L442.39678857421876,181.01229147613049L442.90639195312497,67.05726729333405L443.05147476562496,35.62610873579983L443.36823890625004,40.19479015469555L447.299983125,43.03725311160092L448.33490718750005,73.93312552571301L448.8632504296875,88.10274550318722L450.445862109375,126.46506892144684L451.71956830078125,107.02014037966732L453.05977078125,38.06690344214444L453.21996638671874,38.57631990313534L455.3829093164062,93.80359770357613L457.57486880859375,48.91464272141461L457.6359244921875,121.5358130037785L457.907954765625,285.1727898567915L459.05410898437503,73.64805342257027L460.95167126953123,164.04686385393143L462.183061640625,56.190540060401005L462.41458962890624,84.93785248696808L465.6178972265625,37.82595866918568L467.9204823632813,35.49414807558064L473.41005328125,45.83539211750035L474.36155472656253,45.282943785190625L474.66320607421875,157.22316631674767L474.9152874609375,129.1829304546118L474.99810556640625,47.46841230988507L475.62014812499996,35.73953086137776L476.6786481445312,90.16451144218449L477.0806484375,307.090829141438L477.1477492382813,46.192848771810574L477.41615244140627,38.03729796409611L479.7417090234375,30.700588613748593L481.3829583398437,81.069028839469L483.50056289062496,65.95206165313725L484.46475908203126,30.540876328945203L486.1005677929688,48.982083663344426L487.7194501757813,35.94137617945675L490.11271207031245,64.64371861517434L491.131918828125,37.20811986923222L492.62687630859375,33.17520210146908L498.4791542578125,32.72055858373646L503.3726766210938,67.58202017843728L507.57403306640623,128.30423200130465L508.71958277343754,40.876165568828625L509.6577849609375,31.508026063442273L511.090477734375,57.14395442605023L511.57046003906254,34.94619393348698L512.2299823242188,34.95310375094418L512.4862952929687,40.37320950627331L513.266719921875,59.61682641506199L514.21217625,54.29413223266606L515.0234309765625,34.26976212859158L516.0637956445312,54.63462331891064L517.4469184570313,117.25105205178265L519.379542421875,32.47708582878117L521.3895438867187,60.93078719079499L521.98377890625,46.28188991546635L523.0779451171875,69.41725084185605L523.4170761914062,51.50593662261967L524.2265173828125,53.88417781889443L524.30510390625,37.86517047882084L524.476785234375,49.8482545614243L524.7578831835938,40.270292550325436L524.9779254492187,43.08685773611073L529.8188552929687,54.35578690469269L530.3943504492188,66.98724219203L531.1923059179687,68.90300312638287L532.823883046875,98.63454321026806L533.1176757421875,37.877754211425824L534.8217942773438,45.07621103525166L535.1772471679687,75.51561416685585L536.3367006445312,121.6058100163937L536.6244482226563,47.9516501128674L536.9230770117188,67.04738007485871L539.3967389648437,37.229354918003125L540.0870913476563,65.67898342013363L540.7593083789063,59.35835430026059L540.9757235742187,35.198261827230496L542.0958837890626,84.49480959773068L542.9639626171875,328.3750471621752L546.4338598828125,50.52381561696534L546.7868947265625,43.00899589061741L548.6632991015625,54.90183101594452L549.9279376171875,40.23372107744221L551.2234062304688,79.05639001727108L552.0002037890625,488.0596365183592L552.5472868945312,33.61023971438412L553.0103428710937,30.62581652402882L554.7096253125001,70.21870540082459L555.5251116210937,97.07036839425568L556.1350639453125,44.3470286726952L558.2429963085938,111.06684969365601L558.6341153906251,36.4952851235867L561.3459549609375,42.59575510025029L563.42426625,56.832675576210065L566.381537578125,40.18125140666966L566.4583105664062,77.90444479882721L570.4372066992187,102.09012606740002L571.2811050585938,49.23920752108101L573.4724600390625,63.60511125624184L574.3375163085938,45.01739332079892L578.3418019335937,33.719897955656094L578.921528671875,57.335406929254574L580.4557794140625,44.60055717825894L581.1854250585938,177.081391826272L582.3980755664062,35.387916654348416L583.1464610742188,113.21639278531079L584.4195627539062,33.15851742029194L584.7768291796875,95.90274968743329L586.3987341210938,53.790473952889485L586.7106621679687,63.30444993078713L587.1713000976563,65.65184974670414L588.9576322265625,95.96229770779614L591.2185060546875,37.733434528112454L592.7787508007813,40.1841726303101L592.9407599414062,48.60577949881558L598.8867372070313,149.36841727793217L599.204105859375,39.120285451412244L601.5435662109375,37.93651574850087L602.8190859375,168.5945068448782L602.8976724609375,303.9718330428004L603.0953477929687,62.55776831507687L607.5475766015625,77.53443250060086L608.2463921484375,159.12679293751717L608.5413938671875,140.71499446034434L609.263180859375,47.4601823240519L609.4620652148437,104.55889710783963L609.8453256445313,190.11086383461952L611.0724844335938,145.15323200821877L612.4012011914062,177.84967364370823L612.9071775,74.21162487566475L614.8857443554688,67.1929918378592L616.03613015625,48.50870499014859L621.8146576757813,136.82867155969146L622.3871302734375,52.42395924031739L622.9287727734376,110.8812115490437L629.5276226953125,46.44132131338124L634.1702726953125,94.72476625442509L634.6127752734375,89.99095143377785L635.494153359375,56.67636202275757L637.2484463671875,64.78115656971936L638.074209375,58.82023119926457L640.9093693359375,121.60055743157868L641.5894450195312,45.343615353107495L641.594885625,44.44646263122563L646.0670633203125,84.84743499755864L646.14564984375,48.86290335655217L650.3621190820312,78.2070442438126L651.4496356640625,39.736719816923184L651.9791879296874,43.89833995699887L652.34552203125,50.33772805333142L653.8235531835937,43.972831159830136L654.9503630273438,53.33740340173249L656.0360660742188,40.84779599308972L656.4356483203125,35.90811917185788L657.0419735742188,39.3894312679768L661.0130110546876,139.68051613867286L661.323730078125,45.68343231081967L661.49541140625,43.75126758217816L662.1488885742187,229.9592755138874L662.5605610546875,45.06278464198117L663.3488443359375,48.039034023881L664.892767265625,49.61702847480778L667.9280206054688,423.30171210318804L668.684264765625,40.06788545846943L670.768621171875,47.30737985670571L672.9424453125,36.695894539356274L673.6515375585938,180.5695856511593L674.3588162695313,39.1035445928574L675.0177340429688,148.39935751259327L676.4238283007812,75.3203696906567L678.0088580273438,39.09000584483151L678.525715546875,219.34020625054836L678.7874691210937,179.03897681832314L679.0848888867188,69.25866210460667L679.275310078125,98.01796840131287L682.5934749023437,44.755831450223965L682.9634360742187,119.82068957388405L685.9255434960937,39.686609596014065L687.636916171875,40.08041301369671L688.0558427929687,65.43000528216366L688.6512868359374,76.30038404464726L691.15033828125,35.28719061613087L692.279566171875,78.91898015141491L694.7205844921875,36.70735472440724L695.5808046679688,61.132857218384785L698.6009452148437,84.11901102960114L699.1135711523438,73.88234117627148L701.3000900390625,52.38382050395016L701.7704001562499,51.82246805727486L703.441270546875,85.19758859276776L709.0849919531249,115.43885411322121L710.5110350976562,166.484849691391L710.560000546875,37.170705735683484L712.7205254296875,78.17909599840645L713.28030328125,267.8054692745209L714.8381299804687,293.7030156850815L714.9209480859375,224.81929825246334L714.9916759570312,38.94411319494252L715.9226240039062,53.80319812893872L715.9649398242187,42.43930110335354L716.6383658789063,197.46114002168179L716.8154878125,125.7966423928738L717.7186283203125,118.3668190389872L718.9240246875,93.00062635540966L720.5507657226563,102.52766357362275L720.9013825195312,123.76802110672001L721.4514881835937,76.94052526354794L721.803918515625,123.52159903943543L722.5813205859374,65.216643601656L723.2873902734375,56.32477590441708L723.74561015625,171.23650082945824L724.1995984570312,39.34471407532696L726.7736093554687,57.33664283156399L726.8002078710937,50.92497827112679L730.3045623046875,74.25940373539929L730.7210708789063,98.72723588347439L732.0407199609374,101.35150590538983L732.7993821679687,37.51647749543194L733.4196111914063,184.0989294052124L740.2675199414061,43.06444296240811L740.7317849414062,52.68931308388714L744.3824312109376,32.719435036182446L744.7010088867188,179.933124050498L746.23344609375,31.62774005532269L746.3017559179688,61.73822464048867L746.738817890625,122.1560112535954L746.8778555859375,34.00466108322148L748.9380315234374,146.0584461838007L749.1586783007813,78.84940446913247L749.3533310742188,54.47923669219021L750.477118359375,127.15385974943642L754.9311607031249,97.36271546781067L756.0271404492187,60.401287317276044L756.5675739257812,184.663231164217L758.7843183984376,116.82435677945618L759.0545351367188,125.708921417594L759.7213115625001,99.62576495110993L760.7507950195312,92.77041146159176L761.0367290625,51.68017075955872L761.1757667578125,69.91840922832493L761.8818364453125,110.04293271899228L762.8877439453125,37.069642633199734L764.58158578125,41.11795300245289L766.1805192773437,83.32278096675877L767.0564567578125,170.80354177951813L767.5207217578125,60.202026158571286L767.7861024023438,301.099244967103L768.7327677539063,62.196126446127934L768.7696429687501,84.08064188063149L770.251905703125,64.22688247263436L770.2827358007813,64.85331641137604L770.4779930859374,55.64547905325894L770.5426758398437,74.48006847500805L770.9132415234375,73.08290900290017L771.88408734375,155.64163269102573L772.5145930664063,180.57113052904606L772.79327296875,68.48476254940037L772.8918083789061,75.66813574731354L772.9413783398437,62.51931490004067L773.7405428320312,228.1878904402256L774.0639566015625,75.131613701582L775.146032578125,57.14628578722481L776.9553361523438,42.083866834640546L777.80346609375,124.17682388424878L777.892933828125,31.708916366100354L778.3312048242187,255.39369562268257L778.8752653710937,38.55390512943272L779.1557588085938,275.3918308913708L783.5312146289062,90.52800716459755L785.205107578125,248.451295286417L785.50252734375,37.22598427534108L785.751586171875,46.49401569366459L786.2829519726563,341.86743480712175L786.5459145703126,116.40097597241406L787.2253857421875,63.50618289411072L788.9609388867187,69.57918213307862L789.2879797265625,69.93093678355221L790.0164163476562,116.96713158488278L791.6008415625,72.16353812813763L792.3987970312501,234.2297393232584L793.1846622656251,55.161370500922246L794.3652736523437,48.96303953230385L796.3015246875,65.04760587215428L796.6340061328125,94.11473610997204L796.9380755273437,41.3347415030003L799.781094140625,60.67503967881207L800.109948515625,50.54019132256512L800.4938134570313,125.71063482761387L804.4249531640625,72.54068495333199L804.49870359375,31.792508304119153L807.3725523046876,214.52782736718655L808.5652539257813,36.79229491949086L808.9025714648437,268.6647022664547L810.8642119921876,84.71693494915966L812.5193650781249,107.25260236859326L818.2187015625,87.60512629151349L819.4307475585938,103.70002926886086L821.1838315429687,78.8689822852612L821.5187310351563,204.5297428369522L824.5497527929687,170.4851564913988L824.8532176757813,41.56192281842236L825.2177382421876,117.93105112016205L825.2800029492188,44.158160328865094L827.4858662109376,38.4755938649178L829.0987034765625,124.29151000082497L829.1071666406251,185.17096230387688L831.58082859375,48.139788150787396L832.0916409960938,175.35677441954613L832.5474428320313,36.86240428686146L833.6059428515625,90.15715220570569L834.378508828125,89.42763277888302L835.2665365429688,57.84041346609597L835.3940885156251,60.20570577681069L835.8752798437499,72.42706620693211L836.2506816210938,46.249419391155286L836.7663301171875,69.31006440520291L836.9652144726562,33.3717667460442L837.086721328125,140.28784976899627L839.6190209179688,48.48499813675885L839.635342734375,207.3708856254816L840.4556651367188,34.05892843008046L842.2613416406251,112.84534120559697L842.2812905273437,144.4521383345127L842.6143764843749,60.46313861012463L842.9045421093749,54.02102591097359L844.8553014257814,264.6667549163103L845.8817623242188,59.56837342679505L847.1065030664063,252.78268346190453L849.6182492578124,102.1165856122971L851.4976761914062,30.937095373868985L855.8030086523437,109.60413122177128L856.1336765624999,59.56550838053231L856.3337699414063,101.04413138329987L860.1494479101564,117.52865256369118L862.6750978710937,76.83878803253178L864.1881907031251,68.94729898869996L864.2069305664063,140.42320916056636L864.7395053906249,89.91455020010476L866.0597589843751,116.97454699873929L866.6739428906251,89.31696334481244L870.8831579882813,75.71335853636269L875.4478259765625,149.59160999953747L875.8401540820312,167.1966170668602L877.9450638867188,60.574229374527974L878.9727338085937,150.54255256056786L880.2935919140625,54.26994787156586L880.3576701562499,52.185317739844365L880.4199348632812,107.45132984220986L880.6405816406251,102.24632726609711L880.9361878710937,223.39376920461655L882.4994551757813,32.9043709635735L885.1000645898438,66.71433249115948L885.4627716210938,104.3334011137486L885.6223627148438,224.37122748792171L888.426692578125,43.977718591690106L891.7097957226563,50.39592781662945L892.0084245117188,38.54143375158314L892.2967766015626,246.6663152873516L892.4678534179687,209.25080539286137L893.4199593750001,64.22174224257473L898.0402424414061,94.08058026432995L898.4289434765625,45.68831974267964L898.5915571289063,146.2160518169403L899.4614494921875,47.79536464810376L900.0714018164063,102.6465068161488L902.3836591406249,68.95446160435681L902.6212322460938,50.58558264374737L903.6555517968751,35.10444560647015L904.5901269140626,126.57447436451916L904.9903136718749,143.02646884322166L905.3880823828125,80.41621962189679L909.0671407031249,81.34025321900849L912.6567312890625,64.72385564446454L913.1488038281249,102.8622279465199L913.4008852148438,54.400504097342534L914.9599209375,37.22710782289509L916.2445083398437,37.67809981107716L917.1808969921874,43.82519701123242L917.4366054492189,293.85229302197695L919.9894584374999,68.2710076272488L920.6816243554688,39.654139071703L921.7679319140625,283.073890671134L921.9855561328125,53.033146724104924L922.066560703125,86.94470503926281L923.6636806640626,70.9830267131329L924.494279765625,38.99590873718266L925.4355045117187,66.1964051574469L927.0930756445313,75.61002025008206L927.1571538867187,93.31979812681679L928.9174920117188,123.5858378708363L929.2318381054688,96.51092597842221L931.2509072460938,219.33602103590965L931.2515117578125,294.44257681816816L931.6251,59.15631236135964L932.8933655859374,57.72836768627171L933.61273453125,237.98233197629452L934.3097365429687,33.793883562088055L934.8030181054687,45.473946869373364L936.2925349804688,60.775063499808354L937.396977890625,292.63792069256306L937.8237631640625,41.93297439813618L938.3629876171875,70.6624785959721L938.8242300585938,111.78524599969391L939.6747780468751,104.56240819394593L940.0459482421876,188.38475772738457L940.5670373437499,263.82549868524075L942.2010325195312,100.22138559818272L942.4621815820313,176.55220092833042L944.5308206835938,200.14481762051582L945.076694765625,76.35993206501011L948.2582399414063,134.50778746604922L949.1704481249999,37.207052499055905L951.2028165234375,67.47654715180401L951.4325309765625,66.8547197580338L952.4124444726563,60.968173235654874L954.0518802539062,100.4774982631207L954.1625058984374,126.97350227832798L956.3212172460937,37.132505118846936L957.926195859375,70.52181044220929L958.3838112304687,129.45308746397498L960.8121348046875,40.18057727813725L961.83617765625,198.98981073498726L963.5318330273437,184.25417558848858L963.7585249218749,103.64236319065098L964.6640834765625,71.24590875208382L966.8530204101563,105.29420280456547L967.148626640625,89.86795106530194L967.3934538867188,205.78165569901466L968.6913405468749,214.69975823163986L969.4318674023438,147.05393740534782L969.8532120703125,111.40961596369748L971.4733034765625,289.6216589733958L971.4926478515625,63.20108355581765L973.0426158984375,55.777804866433186L973.7873743359374,88.08811129629616L974.8241119335938,52.00524115562443L974.8779134765625,164.43580792844296L975.8058389648438,55.32695332169537L976.3595716992187,94.58710359036927L977.5063304296875,76.3346803337336L979.9461397265626,43.04933124780659L983.1470292773438,61.754207104444546L986.0402223632811,37.19924384355549L986.536526484375,44.35056784749035L986.6779822265626,134.80521859228614L989.3475059765625,237.6507450044155L989.6007963867188,34.42812615633015L989.9175605273438,35.30808860063557L990.5099820117189,45.73500314354901L991.5557872851563,269.08547082543373L991.6011256640626,442.34511283785105L992.0158207031251,93.56518091261391L993.8795303320312,51.39509865641598L996.1349635546875,144.35969845950603L996.329616328125,44.495674014091534L996.484371328125,43.4473479688168L996.5315232421875,54.26708282530312L998.7664030664063,37.97842407226567L998.9126949023438,37.228568434715314L1000.2039319335937,157.33377957344055L1000.7661278320312,126.89651118218903L1001.344645546875,57.34074378013615L1002.7199097070312,155.12581200897694L1004.7625548046874,50.97871193289761L1004.9765519531251,36.59151697158818L1005.6384922851562,88.30085502564911L1007.3480514257813,98.45674180984501L1007.46955828125,41.13154792785649L1008.9433578515625,375.9856556504965L1009.5043447265624,166.65411213040352L1011.8335283789062,60.204835027456326L1013.454224296875,107.57132472097878L1015.6600875585938,127.95705580711369L1018.2183811523438,109.30318900942807L1019.1354254296875,134.9342018514872L1019.4449354296875,191.87084490060806L1023.6541505273436,78.39265429973607L1025.5039563867188,55.50245144963269L1026.2904261328126,42.34486693143849L1026.4995871874999,52.44693578779702L1027.1004718359375,94.41264474391942L1027.4601563085937,132.135079741478L1029.3365606835937,35.371906101703686L1030.2747628710938,40.5257872641087L1031.9540964257812,33.014253914356274L1032.3790681640626,150.79226100444794L1033.0204550976564,104.1350107043982L1033.6817909179688,67.95557165145878L1034.8333857421874,349.2134696021676L1036.6185088476561,244.46879671514034L1036.7103946289062,123.35000523924832L1037.4648252539064,44.71914762258534L1037.4666387890625,34.54182916879658L1037.5258809375,115.8983288854361L1038.824372109375,36.98616304993634L1039.4161890820312,103.45669695734982L1040.6590651757813,38.16600033640866L1042.1769941015625,46.12919980287556L1042.5590455078125,183.3849992007017L1042.828657734375,74.17701961100106L1046.0440555664063,43.14955168962483L1047.1980684374998,64.73652364313607L1047.321388828125,342.0353630334139L1047.9150193359374,49.608854666352315L1048.1803999804688,227.54421004652977L1049.773288359375,58.92053590714936L1050.4775445117189,137.18121269345286L1050.7417161328124,144.974250882864L1051.8056567578126,88.61724601686005L1052.1786404882812,45.13328725099568L1054.135444921875,82.2439506053925L1055.9429349609375,43.531052261591L1056.6278467382813,36.89004355669026L1057.810876171875,44.262088477611584L1058.6275715039062,61.64870598912243L1060.7361083789062,172.99252139031887L1061.1780064453126,58.11043003201489L1062.4686389648439,42.61126005649571L1064.5396961132813,78.71070252358918L1067.4310756640625,87.04649844765667L1067.8282398632812,34.046906471252484L1068.4780899609375,49.77050507068638L1069.4187101953125,55.352345496416135L1069.7717450390624,30.07291877269749L1070.0401482421873,169.17243161797523L1070.6948344335938,112.53201188147072L1071.2032287890625,97.82306098937993L1072.8293653125,51.36355505883698L1073.8425269531251,59.94377875328068L1073.9313901757814,120.36016093194489L1075.0473188085937,30.90468102693562L1076.6631786328126,280.027447655797L1077.8873148632813,34.622949302196545L1078.7614388085938,33.25250217318539L1079.0939202539064,125.40533886849884L1080.0756472851563,113.74476911127572L1081.6449597070314,54.38154423236851L1084.7727033398437,52.5293480008841L1085.7798198632813,212.23104336857796L1086.8812402148437,35.89031094312672L1086.890912402344,176.70977847278118L1090.343278828125,40.17147654294972L1090.6576249218751,84.30049204826359L1092.1864350585938,113.55744564533238L1094.366304316406,133.64279629290107L1095.645451113281,195.9590412080288L1096.9100896289062,82.45885716378693L1097.4335967773438,42.34363102912907L1098.7707766992187,35.12444475293164L1099.9779866015626,36.002047747373624L1101.2408115820313,57.87673214077954L1101.9632030859375,47.00073564052586L1102.167528046875,43.3356111645699L1103.1667859179688,139.5656895786524L1104.7288441992187,68.33210052549843L1105.4016657421876,50.09529457986359L1107.7302448828125,37.558385819196744L1108.82441109375,79.80998145043854L1111.5102566601563,114.23988842964177L1114.27952484375,71.43640623986725L1114.7425808203125,29.998539924621625L1115.8446056835937,77.339131847024L1117.9658373046875,40.37034446001057L1118.4016902539063,31.49746471643452L1118.8629326953126,109.9052981436253L1119.8102025585938,39.50408929586415L1120.0211771484376,41.47069075703625L1120.1995081054688,41.26817131042485L1120.9285492382812,31.58167460560803L1121.6575903710939,45.869435608387036L1122.9325055859374,38.509637355804486L1125.2731749609375,37.51496070623402L1127.5866413085937,35.17365613579754L1129.4328200976563,81.62010082602505L1129.6383540820314,35.07877254486088L1130.6895999609376,160.10731288790703L1131.1000634179686,31.09096521139149L1131.8798835351563,320.9450693204999L1133.3754455273438,64.83848558366303L1136.36112890625,149.10373756289482L1138.9031006835937,257.3972056210041L1139.3413716796874,35.7147566378117L1141.741283203125,64.44350244104866L1143.3722558203126,132.66915807127955L1144.5939740039064,76.05325976014142L1145.2776767578125,348.1260300576687L1145.6579146289062,50.98986314237122L1146.8488027148437,109.40481388568882L1152.2174712890626,31.21843168139462L1154.1688351171877,52.88784393668179L1154.963163515625,65.15642145276074L1155.9636304101562,90.56817398965363L1156.5711646875,46.42941170930867L1158.2347809374999,30.210553348064465L1160.1680094140625,44.800492465496106L1160.1897718359376,42.995232433080716L1160.8910054296875,37.20104151964192L1161.2869606054687,41.12396398186688L1161.7500165820313,97.95519018173222L1164.2901748242189,41.44760185480122L1165.8044766796875,67.2523994147778L1165.9078481835938,217.27113725245L1166.2367025585936,31.612909227609677L1166.3872259765626,45.443948149681134L1166.9995963476563,43.32482510805134L1168.7061329296873,53.279962033033414L1168.7937871289062,73.2805971950293L1169.103901640625,76.20816887915139L1173.3445513476563,271.4856211990118L1173.9526901367187,119.8871474117041L1174.4375085351562,243.67172399163246L1175.2681076367187,40.3302899897099L1175.355157324219,127.66161897778515L1176.4819671679688,116.22143307328228L1177.1215405664063,85.24862574040894L1177.7206116796876,305.4744655415416L1180.0086885351561,35.65998369455342L1183.5323873437499,122.42821873724465L1183.73550328125,33.819612801075024L1184.0927697070313,205.40698067843914L1184.1888870703126,36.2442284226418L1184.5709384765626,36.08490937948231L1185.1561058203124,53.144883528351826L1186.2992374804687,120.09365545213227L1187.678733222656,36.481971085071606L1189.0902680859374,42.05190190672879L1190.7387715429688,143.83090080320835L1191.8970159960938,195.02301374077797L1192.060838671875,49.54349228739743L1194.6348495703126,36.80431687831883L1194.7617970312501,132.0206183344126L1195.272004921875,36.135244309902234L1195.3681222851562,84.25765679776673L1197.883495546875,29.147733539342923L1197.8986083398438,135.81843377649787L1198.3175349609376,41.78944119811062L1198.9033068164063,88.61598202586178L1199.6329524609375,46.95792847871785L1200.4061229492188,30.89423203468327L1201.084989609375,84.01404359936718L1201.266947636719,55.73839643597607L1201.9004759179688,88.50688555836682L1202.772786328125,38.729234725236935L1204.1208474609375,55.85625657439236L1204.72415015625,98.09077428281311L1207.00678640625,44.89284807443623L1207.734618515625,34.659183710813565L1208.0773766601562,30.564807891845746L1211.6059115625,133.89261709153655L1213.6026137695312,166.99935020506382L1213.7900124023438,40.986385583877606L1214.6913393749999,44.06361380219464L1215.1247742773437,55.587391644716305L1215.714173203125,60.10135629773144L1215.9880170117187,71.22897127270703L1216.6608385546874,41.62332469224934L1219.0843260351562,33.736020863056225L1219.54194140625,113.55870963633065L1220.0600079492187,57.771146759390874L1221.3736119140624,100.59086421132092L1221.4576390429686,244.3725929558277L1227.7143353320312,65.4081803709269L1227.9506994140625,34.67834019660954L1231.4532403125,236.14314080774784L1231.6279441992187,39.60037732124333L1233.3985590234374,32.019184023141904L1233.6814705078125,102.65762993693356L1237.761924609375,50.720436438918156L1238.9649029296875,47.72289583086972L1241.5896928125,66.625235170126L1241.7426342773438,116.65551567077641L1242.92929078125,34.11229693889622L1243.4854415625,192.7141516059637L1243.9430569335937,61.65103735029702L1245.2258308007813,203.4660522788763L1246.9777057617187,180.48919582366943L1247.743622109375,135.91941261291507L1250.3206555664062,29.68939581513409L1253.0155688085938,48.41986046731476L1253.7941799023438,81.25680172443394L1256.83789640625,47.54857742786412L1257.7615903125,51.24622860550885L1259.995865625,29.542323440313382L1261.8638068359376,39.82368239760403L1262.3861049609375,51.54219911992554L1263.8181932226564,91.25036397576336L1264.3417003710938,51.32734873890881L1264.8639984960937,101.07691088318829L1266.8709774023437,40.23658612370495L1267.1665836328125,30.57497599720959L1268.8864194726561,41.97044470906262L1269.3857461523437,42.28941985964779L1269.414158203125,95.53681024909024L1270.5040928320313,34.34694984555249L1270.7023726757814,31.17725366353993L1272.310978359375,105.30639329552655L1272.6531319921876,51.48472966253762L1277.7836229492189,34.221393406391186L1278.0266366601563,55.238726750016255L1278.6142220507813,100.34924530982975L1279.3487037890625,132.68755616247657L1279.3541443945312,31.536620348691983L1280.8642146679688,55.27108491957192L1280.9706087304687,69.19655801355843L1281.45361359375,50.34222224354748L1282.3676353125002,61.08769060671334L1283.0465019726564,93.99752201139931L1284.7361122265625,28.5883192121983L1289.9935506445313,41.84556239843373L1290.7630940625,34.115274339914365L1291.8965535351563,32.33703562617306L1292.1371491992188,28.621407687664075L1292.540358515625,49.4890844970942L1292.842614375,29.814615190029187L1293.937989609375,33.79747891426091L1294.4578696875,190.91647551953793L1295.4456418359375,123.39649201929574L1296.244806328125,119.49845613539223L1297.0784279882812,354.0865340977907L1297.4459711132813,32.66595417261128L1297.990636171875,187.66043470799923L1298.0111895703124,292.24056405574083L1298.561295234375,199.1318271458149L1298.587289238281,31.344100475311322L1299.3380927929688,61.361611500382466L1300.232165625,31.216016054153485L1300.3016844726562,328.64849054813385L1301.6721125390625,41.03907996416096L1301.77487953125,143.10107240080833L1302.5311236914063,31.13141292333607L1302.5619537890625,56.39359319210057L1303.6156177148437,177.84913995862007L1304.0871368554688,52.132061585784L1304.116153417969,68.36333514750008L1304.9527976367187,62.05138543248181L1304.9679104296874,92.92343863844876L1305.94359234375,61.75673508644108L1306.9833525,82.67089867591862L1307.4216234960938,30.208924204111142L1308.1857263085938,114.16654886305336L1308.2933293945314,62.30519482493405L1309.0199524804686,60.89865373075013L1310.0415772851563,65.0001359879971L1311.0444622265625,143.56891760230064L1313.4776218945312,214.8068884909153L1314.1353306445312,39.75604483485226L1315.4634428906252,103.75825712084774L1315.7427273046874,35.07377275824551L1317.7938355664062,52.1876210123301L1318.4624255273438,147.26867543160915L1320.2294132812501,30.95625185966496L1320.5812391015625,33.12391215562825L1321.0436905664062,50.15852221846585L1322.5440886523438,56.019620388746304L1322.6946120703124,198.5462341606617L1323.2453222460938,36.38062709569935L1323.3517163085937,51.611493915319485L1325.3109387890624,231.06372275948524L1328.2083634570313,57.01856651902203L1329.92578125,35.90424293279652" style="fill: none;" fill="none"></path></g></g></g></g></g></g><g transform="translate(41, 377)" clip-path="url(#clip_1)"><clipPath id="clip_1"><rect width="1450" height="23"></rect></clipPath><g><g><line x1="0" y1="0" x2="0" y2="5" style="visibility: inherit;" fill="rgb(0, 0, 0)" stroke="rgb(204, 204, 204)" stroke-width="1px"></line><line x1="120.90234375" y1="0" x2="120.90234375" y2="5" style="visibility: inherit;" fill="rgb(0, 0, 0)" stroke="rgb(204, 204, 204)" stroke-width="1px"></line><line x1="241.8046875" y1="0" x2="241.8046875" y2="5" style="visibility: inherit;" fill="rgb(0, 0, 0)" stroke="rgb(204, 204, 204)" stroke-width="1px"></line><line x1="362.70703125" y1="0" x2="362.70703125" y2="5" style="visibility: inherit;" fill="rgb(0, 0, 0)" stroke="rgb(204, 204, 204)" stroke-width="1px"></line><line x1="483.609375" y1="0" x2="483.609375" y2="5" style="visibility: inherit;" fill="rgb(0, 0, 0)" stroke="rgb(204, 204, 204)" stroke-width="1px"></line><line x1="604.51171875" y1="0" x2="604.51171875" y2="5" style="visibility: inherit;" fill="rgb(0, 0, 0)" stroke="rgb(204, 204, 204)" stroke-width="1px"></line><line x1="725.4140625" y1="0" x2="725.4140625" y2="5" style="visibility: inherit;" fill="rgb(0, 0, 0)" stroke="rgb(204, 204, 204)" stroke-width="1px"></line><line x1="846.31640625" y1="0" x2="846.31640625" y2="5" style="visibility: inherit;" fill="rgb(0, 0, 0)" stroke="rgb(204, 204, 204)" stroke-width="1px"></line><line x1="967.21875" y1="0" x2="967.21875" y2="5" style="visibility: inherit;" fill="rgb(0, 0, 0)" stroke="rgb(204, 204, 204)" stroke-width="1px"></line><line x1="1088.12109375" y1="0" x2="1088.12109375" y2="5" style="visibility: inherit;" fill="rgb(0, 0, 0)" stroke="rgb(204, 204, 204)" stroke-width="1px"></line><line x1="1209.0234375" y1="0" x2="1209.0234375" y2="5" style="visibility: inherit;" fill="rgb(0, 0, 0)" stroke="rgb(204, 204, 204)" stroke-width="1px"></line><line x1="1329.92578125" y1="0" x2="1329.92578125" y2="5" style="visibility: inherit;" fill="rgb(0, 0, 0)" stroke="rgb(204, 204, 204)" stroke-width="1px"></line><line x1="1450.828125" y1="0" x2="1450.828125" y2="5" style="visibility: inherit;" fill="rgb(0, 0, 0)" stroke="rgb(204, 204, 204)" stroke-width="1px"></line></g><g transform="translate(0, 8)"><text x="0" y="0" dx="0em" dy="0.95em" style="text-anchor: middle; visibility: hidden; font-family: Roboto, sans-serif; font-size: 12px; font-weight: 200;" fill="rgb(33, 33, 33)" stroke="none" stroke-width="1px">-1M</text><text x="120.90234375" y="0" dx="0em" dy="0.95em" style="text-anchor: middle; visibility: inherit; font-family: Roboto, sans-serif; font-size: 12px; font-weight: 200;" fill="rgb(33, 33, 33)" stroke="none" stroke-width="1px">0</text><text x="241.8046875" y="0" dx="0em" dy="0.95em" style="text-anchor: middle; visibility: inherit; font-family: Roboto, sans-serif; font-size: 12px; font-weight: 200;" fill="rgb(33, 33, 33)" stroke="none" stroke-width="1px">1M</text><text x="362.70703125" y="0" dx="0em" dy="0.95em" style="text-anchor: middle; visibility: inherit; font-family: Roboto, sans-serif; font-size: 12px; font-weight: 200;" fill="rgb(33, 33, 33)" stroke="none" stroke-width="1px">2M</text><text x="483.609375" y="0" dx="0em" dy="0.95em" style="text-anchor: middle; visibility: inherit; font-family: Roboto, sans-serif; font-size: 12px; font-weight: 200;" fill="rgb(33, 33, 33)" stroke="none" stroke-width="1px">3M</text><text x="604.51171875" y="0" dx="0em" dy="0.95em" style="text-anchor: middle; visibility: inherit; font-family: Roboto, sans-serif; font-size: 12px; font-weight: 200;" fill="rgb(33, 33, 33)" stroke="none" stroke-width="1px">4M</text><text x="725.4140625" y="0" dx="0em" dy="0.95em" style="text-anchor: middle; visibility: inherit; font-family: Roboto, sans-serif; font-size: 12px; font-weight: 200;" fill="rgb(33, 33, 33)" stroke="none" stroke-width="1px">5M</text><text x="846.31640625" y="0" dx="0em" dy="0.95em" style="text-anchor: middle; visibility: inherit; font-family: Roboto, sans-serif; font-size: 12px; font-weight: 200;" fill="rgb(33, 33, 33)" stroke="none" stroke-width="1px">6M</text><text x="967.21875" y="0" dx="0em" dy="0.95em" style="text-anchor: middle; visibility: inherit; font-family: Roboto, sans-serif; font-size: 12px; font-weight: 200;" fill="rgb(33, 33, 33)" stroke="none" stroke-width="1px">7M</text><text x="1088.12109375" y="0" dx="0em" dy="0.95em" style="text-anchor: middle; visibility: inherit; font-family: Roboto, sans-serif; font-size: 12px; font-weight: 200;" fill="rgb(33, 33, 33)" stroke="none" stroke-width="1px">8M</text><text x="1209.0234375" y="0" dx="0em" dy="0.95em" style="text-anchor: middle; visibility: inherit; font-family: Roboto, sans-serif; font-size: 12px; font-weight: 200;" fill="rgb(33, 33, 33)" stroke="none" stroke-width="1px">9M</text><text x="1329.92578125" y="0" dx="0em" dy="0.95em" style="text-anchor: middle; visibility: inherit; font-family: Roboto, sans-serif; font-size: 12px; font-weight: 200;" fill="rgb(33, 33, 33)" stroke="none" stroke-width="1px">10M</text><text x="1450.828125" y="0" dx="0em" dy="0.95em" style="text-anchor: middle; visibility: hidden; font-family: Roboto, sans-serif; font-size: 12px; font-weight: 200;" fill="rgb(33, 33, 33)" stroke="none" stroke-width="1px">11M</text></g><line x1="0" y1="0" x2="1450.828125" y2="0" fill="rgb(0, 0, 0)" stroke="rgb(204, 204, 204)" stroke-width="1px"></line></g></g></g></g></svg>