<svg viewBox="0 0 1492 400" xmlns="http://www.w3.org/2000/svg"><g><g><g><g><g><line x1="51.5625" y1="377" x2="46.5625" y2="377" style="visibility: inherit;" fill="rgb(0, 0, 0)" stroke="rgb(204, 204, 204)" stroke-width="1px"></line><line x1="51.5625" y1="329.875" x2="46.5625" y2="329.875" style="visibility: inherit;" fill="rgb(0, 0, 0)" stroke="rgb(204, 204, 204)" stroke-width="1px"></line><line x1="51.5625" y1="282.75" x2="46.5625" y2="282.75" style="visibility: inherit;" fill="rgb(0, 0, 0)" stroke="rgb(204, 204, 204)" stroke-width="1px"></line><line x1="51.5625" y1="235.625" x2="46.5625" y2="235.625" style="visibility: inherit;" fill="rgb(0, 0, 0)" stroke="rgb(204, 204, 204)" stroke-width="1px"></line><line x1="51.5625" y1="188.5" x2="46.5625" y2="188.5" style="visibility: inherit;" fill="rgb(0, 0, 0)" stroke="rgb(204, 204, 204)" stroke-width="1px"></line><line x1="51.5625" y1="141.375" x2="46.5625" y2="141.375" style="visibility: inherit;" fill="rgb(0, 0, 0)" stroke="rgb(204, 204, 204)" stroke-width="1px"></line><line x1="51.5625" y1="94.24999999999996" x2="46.5625" y2="94.24999999999996" style="visibility: inherit;" fill="rgb(0, 0, 0)" stroke="rgb(204, 204, 204)" stroke-width="1px"></line><line x1="51.5625" y1="47.12500000000004" x2="46.5625" y2="47.12500000000004" style="visibility: inherit;" fill="rgb(0, 0, 0)" stroke="rgb(204, 204, 204)" stroke-width="1px"></line><line x1="51.5625" y1="0" x2="46.5625" y2="0" style="visibility: inherit;" fill="rgb(0, 0, 0)" stroke="rgb(204, 204, 204)" stroke-width="1px"></line></g><g transform="translate(41.5625, 0)"><text x="0" y="377" dx="0em" dy="0.3em" style="text-anchor: end; visibility: hidden; font-family: Roboto, sans-serif; font-size: 12px; font-weight: 200;" fill="rgb(33, 33, 33)" stroke="none" stroke-width="1px">-0.8</text><text x="0" y="329.875" dx="0em" dy="0.3em" style="text-anchor: end; visibility: inherit; font-family: Roboto, sans-serif; font-size: 12px; font-weight: 200;" fill="rgb(33, 33, 33)" stroke="none" stroke-width="1px">-0.6</text><text x="0" y="282.75" dx="0em" dy="0.3em" style="text-anchor: end; visibility: inherit; font-family: Roboto, sans-serif; font-size: 12px; font-weight: 200;" fill="rgb(33, 33, 33)" stroke="none" stroke-width="1px">-0.4</text><text x="0" y="235.625" dx="0em" dy="0.3em" style="text-anchor: end; visibility: inherit; font-family: Roboto, sans-serif; font-size: 12px; font-weight: 200;" fill="rgb(33, 33, 33)" stroke="none" stroke-width="1px">-0.2</text><text x="0" y="188.5" dx="0em" dy="0.3em" style="text-anchor: end; visibility: inherit; font-family: Roboto, sans-serif; font-size: 12px; font-weight: 200;" fill="rgb(33, 33, 33)" stroke="none" stroke-width="1px">0</text><text x="0" y="141.375" dx="0em" dy="0.3em" style="text-anchor: end; visibility: inherit; font-family: Roboto, sans-serif; font-size: 12px; font-weight: 200;" fill="rgb(33, 33, 33)" stroke="none" stroke-width="1px">0.2</text><text x="0" y="94.24999999999996" dx="0em" dy="0.3em" style="text-anchor: end; visibility: inherit; font-family: Roboto, sans-serif; font-size: 12px; font-weight: 200;" fill="rgb(33, 33, 33)" stroke="none" stroke-width="1px">0.4</text><text x="0" y="47.12500000000004" dx="0em" dy="0.3em" style="text-anchor: end; visibility: inherit; font-family: Roboto, sans-serif; font-size: 12px; font-weight: 200;" fill="rgb(33, 33, 33)" stroke="none" stroke-width="1px">0.6</text><text x="0" y="0" dx="0em" dy="0.3em" style="text-anchor: end; visibility: hidden; font-family: Roboto, sans-serif; font-size: 12px; font-weight: 200;" fill="rgb(33, 33, 33)" stroke="none" stroke-width="1px">0.8</text></g><line x1="51.5625" y1="0" x2="51.5625" y2="377" fill="rgb(0, 0, 0)" stroke="rgb(204, 204, 204)" stroke-width="1px"></line></g></g><g transform="translate(51, 0)" clip-path="url(#clip_0)"><clipPath id="clip_0"><rect width="1440" height="377"></rect></clipPath><g><g><g><line x1="0" y1="0" x2="0" y2="377" fill="rgb(0, 0, 0)" stroke="rgb(66, 66, 66)" stroke-width="1px" opacity="0.25"></line><line x1="120.03645833333333" y1="0" x2="120.03645833333333" y2="377" fill="rgb(0, 0, 0)" stroke="rgb(66, 66, 66)" stroke-width="1px" opacity="0.25"></line><line x1="240.07291666666666" y1="0" x2="240.07291666666666" y2="377" fill="rgb(0, 0, 0)" stroke="rgb(66, 66, 66)" stroke-width="1px" opacity="0.25"></line><line x1="360.109375" y1="0" x2="360.109375" y2="377" fill="rgb(0, 0, 0)" stroke="rgb(66, 66, 66)" stroke-width="1px" opacity="0.25"></line><line x1="480.1458333333333" y1="0" x2="480.1458333333333" y2="377" fill="rgb(0, 0, 0)" stroke="rgb(66, 66, 66)" stroke-width="1px" opacity="0.25"></line><line x1="600.1822916666667" y1="0" x2="600.1822916666667" y2="377" fill="rgb(0, 0, 0)" stroke="rgb(66, 66, 66)" stroke-width="1px" opacity="0.25"></line><line x1="720.21875" y1="0" x2="720.21875" y2="377" fill="rgb(0, 0, 0)" stroke="rgb(66, 66, 66)" stroke-width="1px" opacity="0.25"></line><line x1="840.2552083333334" y1="0" x2="840.2552083333334" y2="377" fill="rgb(0, 0, 0)" stroke="rgb(66, 66, 66)" stroke-width="1px" opacity="0.25"></line><line x1="960.2916666666666" y1="0" x2="960.2916666666666" y2="377" fill="rgb(0, 0, 0)" stroke="rgb(66, 66, 66)" stroke-width="1px" opacity="0.25"></line><line x1="1080.328125" y1="0" x2="1080.328125" y2="377" fill="rgb(0, 0, 0)" stroke="rgb(66, 66, 66)" stroke-width="1px" opacity="0.25"></line><line x1="1200.3645833333335" y1="0" x2="1200.3645833333335" y2="377" fill="rgb(0, 0, 0)" stroke="rgb(66, 66, 66)" stroke-width="1px" opacity="0.25"></line><line x1="1320.4010416666665" y1="0" x2="1320.4010416666665" y2="377" fill="rgb(0, 0, 0)" stroke="rgb(66, 66, 66)" stroke-width="1px" opacity="0.25"></line><line x1="1440.4375" y1="0" x2="1440.4375" y2="377" fill="rgb(0, 0, 0)" stroke="rgb(66, 66, 66)" stroke-width="1px" opacity="0.25"></line></g><g><line x1="0" y1="377" x2="1440.4375" y2="377" fill="rgb(0, 0, 0)" stroke="rgb(66, 66, 66)" stroke-width="1px" opacity="0.25"></line><line x1="0" y1="329.875" x2="1440.4375" y2="329.875" fill="rgb(0, 0, 0)" stroke="rgb(66, 66, 66)" stroke-width="1px" opacity="0.25"></line><line x1="0" y1="282.75" x2="1440.4375" y2="282.75" fill="rgb(0, 0, 0)" stroke="rgb(66, 66, 66)" stroke-width="1px" opacity="0.25"></line><line x1="0" y1="235.625" x2="1440.4375" y2="235.625" fill="rgb(0, 0, 0)" stroke="rgb(66, 66, 66)" stroke-width="1px" opacity="0.25"></line><line x1="0" y1="188.5" x2="1440.4375" y2="188.5" fill="rgb(0, 0, 0)" stroke="rgb(66, 66, 66)" stroke-width="1px" opacity="0.25"></line><line x1="0" y1="141.375" x2="1440.4375" y2="141.375" fill="rgb(0, 0, 0)" stroke="rgb(66, 66, 66)" stroke-width="1px" opacity="0.25"></line><line x1="0" y1="94.24999999999996" x2="1440.4375" y2="94.24999999999996" fill="rgb(0, 0, 0)" stroke="rgb(66, 66, 66)" stroke-width="1px" opacity="0.25"></line><line x1="0" y1="47.12500000000004" x2="1440.4375" y2="47.12500000000004" fill="rgb(0, 0, 0)" stroke="rgb(66, 66, 66)" stroke-width="1px" opacity="0.25"></line><line x1="0" y1="0" x2="1440.4375" y2="0" fill="rgb(0, 0, 0)" stroke="rgb(66, 66, 66)" stroke-width="1px" opacity="0.25"></line></g></g></g><g><g><line x1="0" y1="188.5" x2="1440.4375" y2="188.5" fill="rgb(0, 0, 0)" stroke="rgb(153, 153, 153)" stroke-width="1.5px"></line></g></g><g><g><line x1="120.03645833333333" y1="0" x2="120.03645833333333" y2="377" fill="rgb(0, 0, 0)" stroke="rgb(153, 153, 153)" stroke-width="1.5px"></line></g></g><g><g><g><g><g><path stroke="rgb(255, 112, 67)" stroke-width="2px" d="M120.321544921875,174.00263330107555L121.52911169270833,181.269450587366L122.73307736979167,182.5497768409693L124.064881875,183.3374890574889L124.51621895833333,185.5843560918479L125.59474653645835,187.2783297339892L126.61865752604166,186.5787455261211L127.22064036458333,188.98285111039058L129.709596328125,199.65922381293888L132.07791565104168,190.6107300837167L132.36420260416665,190.78589646408756L133.43912908854168,190.76004762084747L134.8777660416667,187.704027573436L135.19346192708332,186.07370117475764L139.2044801822917,191.79771596364964L139.95170713541668,185.58388632817L141.61541244791667,185.10142496137158L142.03914114583336,186.79225035922124L142.70234257812498,191.4704858605682L143.34813872395833,187.55053479260164L146.22841354166667,197.08439706856984L146.44087807291666,192.49937526857138L147.89331921875,190.40770604965766L151.79030283854166,186.46235521594082L153.95996182291668,191.4889959203641L155.295367421875,188.24644075873147L158.76142015624998,188.0833016679519L160.12143322916668,187.31785993675464L160.26187588541669,190.0874446282009L160.513352265625,189.17405910577764L162.44353851562502,189.27926138692203L162.90687924479167,186.72638998983712L163.85576744791666,184.24960714912137L168.28571294270833,185.97719503656916L171.10596953125,185.88439240233856L172.12087778645832,184.98198685640196L172.17189328125,184.58997658928607L172.48878953125,186.34236446350826L172.93532515625,189.20354495891988L173.67114864583334,189.96193995448996L176.39477588541666,188.99921323967487L177.83521338541667,188.68321053258308L179.13940950520833,186.88793818913632L181.221441875,187.26528194429275L182.65647773437502,189.76743861792866L183.520740234375,189.98482849874367L184.75891630208332,188.30372606499438L185.20845283854166,187.48993515031825L186.85115177083333,182.72297110734294L189.368916484375,183.85111438921504L190.28659520833332,188.02310119182502L190.97260356770835,194.57020319842596L192.77435080729168,189.9908524263543L198.10336937500003,189.77454579822057L199.18669841145834,191.03068704678915L200.69495651041666,193.1993540677767L200.7459720052083,176.35270205234156L203.73187890625,183.12169227516915L204.04757479166665,185.56292785155057L204.095589375,188.05785986847494L204.5127160677083,191.04226744661827L205.79830653645834,189.96464161011306L206.63436046875,189.12956438760227L208.08139997395836,184.5245518789828L210.51934044270834,190.90120311080756L210.83023486979167,198.66605102531224L214.3437020052083,194.59276861296252L214.639591875,192.16110459006595L216.21747111979167,190.1587463243495L217.74013359375002,189.29697687190833L218.044426015625,186.0805950766217L219.42544546875,187.62561102606944L220.40794388020834,189.25110491802712L223.06975234374997,193.70156341867397L223.85178986979165,195.29617129516902L223.92441192708333,194.362738075773L224.20229632812502,192.8277231774468L227.29023421875002,190.51697105797126L230.03306729166664,188.7385358134236L230.22932690104165,189.37200668106027L231.81020705729165,191.92244438785787L232.32516346354168,193.5812471720709L232.355172578125,191.94273508739712L234.27455554687498,197.63130227976885L237.25085953125,194.98890995627696L237.3126783072917,191.9560836928056L237.44411822916666,188.09700714463915L238.10852002604165,187.01535538128158L239.645586875,187.53645031418495L240.2001553125,191.2899771441733L240.91437223958332,190.94613126420583L243.74063065104164,187.47624207727895L245.32391153645833,184.42470335255734L245.43554544270836,190.33920587288245L246.068137578125,189.5860725534957L246.18997458333334,190.6886809880399L249.64822494791665,184.7345520991378L249.6902377083333,180.8751063250478L249.70764299479168,184.38237033990723L250.79697385416665,198.97918834437547L251.78547408854166,197.26582173691833L251.99373734375,198.2287036361122L252.23621098958333,192.14045463077417L254.20000744791665,195.4947353110295L254.98504588541667,192.15953524702434L255.82650145833333,190.84345958704182L255.88531932291664,187.7347490045953L256.5251136458333,188.31557299654307L257.652856171875,197.6647695635892L259.31536111979165,193.56240152092536L261.20893625,191.26294284021878L262.90865249999996,189.623169489129L263.6834878385416,352.79407589282016L264.13722565104166,284.8085863910901L264.9996876041667,243.67396850842835L265.05850546875,218.94936643320605L265.319584765625,189.26454672979287L265.48583526041665,186.75337131704075L267.71191138020833,190.6170018280532L268.5863769791667,188.9222400957338L269.45844184895833,194.57439302404921L269.8881723697917,189.97484025145067L270.60418984374996,190.40787383450265L270.874271875,190.98450402367158L271.322608046875,187.62033395075005L272.14665833333333,182.79869645001415L274.25089744791666,182.2376425156708L276.6564280729167,184.77134158165973L277.59211226562496,187.6259519155519L277.6437279427083,188.28968096595455L279.44607536458335,186.30954520502806L282.44218536458334,189.9599145528249L282.60303421875,189.02226089915553L282.71766903645835,187.36214179012725L286.5510333333333,189.6321995399582L287.41529583333335,195.317466463428L287.516726640625,189.53247274952008L291.020590859375,187.56908510670067L291.41130953125,187.13960870559143L297.33570893229165,187.18433231626432L297.43473901041665,188.5140460512067L299.5923943489583,187.15186316062287L299.78265213541664,186.41421953113877L305.1398792708333,186.5077850673728L305.49878828125003,188.63456784599876L306.04315361979167,185.4973508842743L308.6689511458333,186.11726266819912L309.1959111979167,185.997803744854L311.391978203125,182.2356467632541L311.75628885416666,189.68959892507428L312.05998109374997,185.13755656665433L312.92544395833335,185.36171423654966L314.67857643229166,186.1338506907427L314.9096466145833,185.3748881154629L318.12542333333334,186.92176250257606L318.29587510416667,190.8295567096085L318.67879140625,191.6837692817598L319.080313359375,190.6222894757289L320.05200848958333,191.49929984950936L320.76682559895835,190.79333482001076L321.93357997395833,191.4878099110058L323.340407265625,192.13011174105594L323.4328353385417,189.0124362356021L325.93859640625,187.10629189431617L326.93249828125,184.54601142917545L327.2674,184.77802163658907L329.01092955729166,185.50320529789624L329.71314283854167,187.3396127378761L335.976645234375,187.0007653970015L338.70387356770834,188.06725607327044L341.09379945312503,189.86509434419975L342.60685901041666,188.86319952576315L345.43491796875,191.29056887166698L348.0030979947917,190.57122010100332L349.85346000000004,202.30357378860387L351.41153322916665,194.78785333363007L352.6953231510417,190.9665533844362L353.87708208333333,189.6429575165955L354.84097484374996,183.0047180849819L357.05684786458335,184.92991134102184L357.47277419270836,185.95154819940703L358.22480260416665,198.14745262186335L358.61552127604165,197.50295446728532L358.87059875,195.1989818887367L359.027246328125,181.70020621949163L360.22881127604165,183.5407496576438L361.976542109375,183.57097329994247L363.6192410416666,184.98258694419295L366.8662272395833,185.1280129596757L367.35777653645835,186.5551792883635L368.278456171875,185.96262471870583L369.12231247395835,185.59293887659388L369.49442549479164,185.94211353606048L369.77591098958334,184.39452653850879L371.62567281249994,184.719324026252L373.0325001041667,162.62166666462727L373.6176778385416,172.9256180014933L375.4854451302083,182.47745900428887L376.348507265625,196.4188961346543L378.19406781249995,193.25086426577758L379.35902164062503,191.0379060235689L381.84257596354166,187.07826148600546L383.1017584114583,188.15066410714246L383.41205265625,189.66682927401612L385.4676770052083,189.8894302407626L385.6993473697916,189.63826884928608L385.95022356770835,187.3524207549737L389.5171069270834,187.63462487423703L391.6483542447917,191.2893015578495L393.5251242708333,184.9798549138446L395.1900299479167,186.45084676386267L396.10950921874996,184.30896064727065L396.3405794010417,191.32870733045675L398.12132026041667,192.34967308923606L400.35879984375,192.97292677292975L401.28248039062504,187.85637068475637L403.4191293489584,184.2450935626796L403.7120183072917,196.12567931099363L405.4123347395833,193.07779822649354L406.1217502083333,186.94220323541344L406.26219286458337,187.42343412394908L406.403235703125,188.7187039622159L407.5477833333333,187.95145008122404L407.6216057552083,188.0548418194941L411.1068643229167,186.4667891049544L411.17288437499997,185.78861815574228L412.04134815104163,185.32864551971826L414.4354753125,186.09452517107135L419.59884356770834,186.6799221510394L425.36899611979163,184.04965911841117L425.9907849739583,185.4714535622076L427.2151568489583,186.04107438799895L428.8068402864584,189.33842825700884L430.105634765625,186.73768313190365L430.29409200520837,188.9393836040521L431.53586916666666,187.26711573123035L436.94231125,187.08967520949167L437.78136609374997,189.62904140092837L438.45236989583333,196.3839992954606L439.2284055989584,194.33820693227793L439.7343592708333,191.85409187457955L439.8784030208333,188.6295767406605L440.1928985416667,190.01885123575934L444.0964841666667,190.03809104884166L445.12399625,187.70613102191763L445.6485555729167,187.62662063809023L447.2198328125,187.1715392817645L448.48441690104164,186.18822838289074L449.8150210416666,186.5427443265721L449.9740693489583,183.67588277059377L452.1215215885416,183.32722995210858L454.297782578125,183.88011124933763L454.35840098958334,179.66132426607612L454.62848302083336,176.44160954787137L455.76642864583334,180.3070755182824L457.65040085937494,184.86686981875803L458.87297218749995,183.942904703243L459.1028420052083,185.82832926490607L462.28320796875,187.15310050256198L464.5693023177084,186.56855501246238L470.0195577083333,195.54703770547684L470.9642446354167,192.06665131478132L471.2637355989583,184.072180504895L471.51401161458335,182.66360096110952L471.5962365885417,182.61631279274255L472.21382416666665,184.40030109578777L473.264743359375,184.96999722341468L473.6638645833333,189.41246028986433L473.7304848177083,186.90575788876035L473.99696575520835,187.47217651434866L476.30586703125,187.49446163672025L477.935361953125,189.12683594457437L480.03780052083334,192.12872644261046L480.9950912760417,188.71654689784287L482.6191845572917,192.55933347031737L484.226472734375,189.3599754388311L486.6025944270833,188.98273148425318L487.6145017708333,188.87522804955546L489.098752578125,186.7761575097287L494.90911734375004,184.61385712458235L499.7675929947917,191.17026231472818L503.938859921875,193.84758531956447L505.07620536458336,191.92111467070865L506.00768828124995,192.67040830057482L507.4301203125,190.92284952535675L507.9066650520833,189.35945531952243L508.56146393229164,189.8060594028405L508.8159412239583,190.2948462590808L509.5907765625,188.95346350652628L510.5294616666667,186.8275046703117L511.3349063020833,186.2323674982799L512.3678200260416,184.8520302356825L513.741037109375,186.48819017940565L515.6598198958334,192.6870968120325L517.655426015625,193.38963783851807L518.2454052083333,189.58102364452358L519.33173515625,199.46376524112628L519.668437421875,192.67136695911066L520.4720815104166,191.61275890001494L520.5501052083333,186.01490676997653L520.7205569791666,189.62720082228142L520.9996417447917,187.0525807246179L521.2181080989583,185.35989415719644L526.024367890625,189.27808007539903L526.5957414322917,171.32957269216539L527.3879820572917,180.04009458578724L529.0078740625,183.6422542508742L529.29956265625,186.6224746322569L530.9914765364583,189.14364852171386L531.3443837239583,188.9684911438445L532.495533359375,187.13604410848737L532.7812201302083,186.1684889722755L533.0777101822918,190.51615374241865L535.5336561197917,185.56075309506562L536.219064296875,181.7909371529386L536.8864670052084,182.38512513205353L537.101332265625,187.4788498915319L538.2134700520834,186.70603064538292L539.0753318229166,190.38223158361765L542.5203781770833,188.97658942106222L542.8708846354167,186.23533989727707L544.73385046875,190.18962334407246L545.9894318229167,190.9144231470324L547.2756224739583,192.86659694535794L548.04685671875,157.3625000168279L548.5900216927083,176.03950342346107L549.049761328125,181.35442885374817L550.73687375,190.56158719057316L551.5465196614583,139.6774033999114L552.15210359375,157.17626148045326L554.2449392447917,152.69512333023704L554.6332571875,163.43129971708007L557.3256749479167,175.61556032369373L559.3891016666666,182.57047649374877L562.3251934374999,185.46830935563725L562.4014165885417,188.45569603669543L566.3518164322917,188.739483184685L567.1896709114584,187.8034645346223L569.36533171875,194.00977798118697L570.224192578125,191.54239128843216L574.199800078125,189.664001186907L574.7753748958334,190.2654972870747L576.2986375520833,190.47838142572377L577.023057578125,189.50055511621724L578.2270232552083,188.87405721952652L578.9700489322917,196.13509066654822L580.2340328385417,197.98529593574156L580.5887405729167,192.700816133091L582.1990296614583,194.64084851017245L582.5087237239584,191.58381151629808L582.9660626302083,188.41624129231022L584.7396013020833,186.59840191337983L586.9842830729167,185.8151528608748L588.5333535677083,186.57081663262073L588.694202421875,185.09655633882417L594.5975954427083,186.92851848583268L594.9126911458333,185.66801334503796L597.2353966145834,188.29923668236887L598.50178125,187.61070789814056L598.5798049479166,189.70194582351337L598.7760645572916,191.2067871042835L603.1964071354167,192.3770228089018L603.8902178645833,183.50391804567715L604.1831068229167,185.03153985536855L604.8997244791667,182.16207609577037L605.097184453125,185.49171385729647L605.4777000260417,187.71889745049342L606.696070078125,348.7559733262817L608.0152707552083,283.4353930091059L608.5176233333334,247.75597442086092L610.4820199739584,209.70639500630233L611.624166875,199.73396028086444L617.3613094010417,193.65862713766413L617.9296820312501,192.4067690149218L618.4674453645833,189.94160466484473L625.0190352604167,186.91181451165153L629.6284352604166,162.17894666840715L630.0677686979167,171.6485374005796L630.9428344791667,178.325149162264L632.6845634895834,181.40189092726155L633.5044125000001,185.61304291162836L636.3192674479167,185.88865285815976L636.9944725260417,185.957397071965L636.9998741666667,183.7339957827762L641.4400227604166,168.959488603439L641.5180464583333,175.65802053287467L645.7043179427084,179.0053992233416L646.7840458854167,181.59743056805002L647.3098055729166,182.09804726318535L647.6735160416667,182.55353390446538L649.1409617447916,185.22471637418343L650.2597015364584,186.55567753739362L651.3376289322916,188.80651658031542L651.7343494270833,191.81742544120218L652.3363322656251,189.57516681755175L656.2789297395834,182.24612908053152L656.5874234375,185.78438487078216L656.7578752083333,185.37059539856665L657.4066722656249,186.8802173496888L657.81539640625,189.2631536224324L658.5980341145834,191.99420886535725L660.1308996875,190.20491962199137L663.1444149739583,188.85153221927047L663.8952430208334,189.47543199806336L665.9646715625,190.48549297794062L668.1229270833334,191.33119173907102L668.8269409114583,188.82310995338705L669.5291541927083,185.86030203841756L670.183352890625,187.96837841631177L671.5793769010417,187.0526435890996L673.1530548697916,185.05731715767556L673.6662107291667,186.53644057186426L673.9260896614584,186.63459526373606L674.2213793489584,189.55039454679135L674.4104367708334,189.18166804999214L677.7048373697917,187.31279841318417L678.0721489322916,195.4952398460638L681.0130421614583,194.72280692819322L682.7121582291667,191.73492985499257L683.1280845572917,190.5163082237363L683.7192641145833,188.9143014160828L686.2004177083334,187.45331695854134L687.3215582291666,189.05317115425L689.7450943229167,188.48291242988932L690.5991537239584,189.1538618022166L693.597664453125,189.23964956274122L694.1066190364583,189.84719245612726L696.2774783854167,189.59851948999352L696.7444202083333,187.8292443815443L698.4033240625,186.67613301288216L704.0066259375,189.83695718851982L705.4224559635417,194.9195279703724L705.4710707291666,190.4928898646273L707.6161222395833,193.08681110196335L708.1718910416666,191.7428740453947L709.7185608072916,192.07142435619852L709.80078578125,200.85880765458717L709.871007109375,193.57679275339558L710.7952878385416,189.20105038365404L710.8373005989583,188.72016182841855L711.505903671875,188.1931403659357L711.6817570833333,187.86432593707897L712.5784294270833,189.6957717545571L713.7751929166667,189.0758760367653L715.3902834635417,188.57817572603795L715.7383891927084,189.60724132647843L716.284555078125,189.0384568333923L716.6344613541667,189.07496371838187L717.4062957812499,188.44417133766737L718.1073086979167,191.27142592907447L718.562246875,190.001592338131L719.0129837760417,193.04616675398267L721.5685599739583,191.50343931560886L721.5949679947917,188.1170767856847L725.0742247395833,188.2370897716364L725.4877503385417,186.8973546797495L726.7979482812499,186.46028448815036L727.5511770572916,189.28349408183183L728.1669640885417,190.51648410289698L734.9658290885416,191.11594158385597L735.4267690885416,190.1185845236427L739.0512699479167,188.73403443813189L739.367566015625,201.47966343042174L740.889028125,197.1954564764279L740.9568487239584,192.48005518248058L741.3907805208333,192.14988322300317L741.5288224479167,191.47070709225036L743.5742436979166,147.21970874730647L743.793310234375,166.04153320384114L743.9865689322917,174.59325909645236L745.1023078125,183.95629888195322L749.5244509375,167.60910794537384L750.6125814322916,182.37363228589962L751.1491444010416,177.98043704377514L753.3500128645834,182.27273691716388L753.6182943489583,190.1109244686967L754.2802954166667,190.02454557016657L755.302405859375,190.34315752123396L755.5862920833333,190.92411204149147L755.7243340104168,187.19414279191463L756.4253469270834,187.3572232692541L757.4240502604167,188.9883138786279L759.1057610416667,190.5499530190914L760.6932432031249,191.5663555155509L761.56290734375,191.66673877051105L762.0238473437499,191.52815224383775L762.2873273697917,189.05840994435252L763.2272128385417,187.33619420538963L763.2638239583334,187.26370604032465L764.7354709374999,188.76309146452024L764.7660802343751,181.4387500597124L764.9599391145833,185.61731838703844L765.0241586197917,192.56185032067117L765.3920703645832,197.7505244605983L766.355963125,192.11266914230558L766.9819532552084,192.18620433483332L767.2586372916667,189.08942368549512L767.3564670052083,190.49820463490056L767.4056819531249,190.8933365169373L768.1991229427083,190.57241400450957L768.5202204687499,193.79257790834748L769.5945467708333,191.04423897986553L771.3908923697917,191.60804787162655L772.232948125,149.08092493792603L772.3217751041667,163.72657572312602L772.7569072656249,164.38918768627016L773.297071328125,174.0319026028852L773.5755559114584,179.99292551159846L777.9196753385417,180.01396880871795L779.5815801041666,189.00590924368348L779.8768697916666,192.22454034300029L780.1241448958333,191.7469231939156L780.6517051302084,183.29945058708427L780.9127844270834,185.58336138246278L781.5873893229167,187.00111090154533L783.3105126822917,187.7214738411325L783.6352113020833,187.99766247135125L784.3584309635417,183.55924702941908L785.93150875,184.2218638521722L786.723749375,247.64131614341088L787.5039863541667,223.29837222059908L788.6761423697916,210.8725229694752L790.5985262500001,201.57086839061063L790.9286265104166,194.1139907941212L791.2305182031249,191.09779463998913L794.0531755208333,188.90473121201768L794.3796746875,190.48785782642005L794.7607904427084,191.51181894078456L798.6637758854166,194.51135469863328L798.7369981249999,191.89348616175621L801.5902647395834,191.1661317406694L802.7744244010418,189.00801355666525L803.1093261197917,187.40797106737293L805.0569176562501,188.25182140440413L806.7002167708333,189.4055613575059L812.3587354166666,186.49611283722462L813.5621009114584,184.04632367068044L815.3026295572917,186.48571788744582L815.6351305468751,168.34709599451094L818.6444445572916,182.03479836187287L818.9457360677084,186.0017822483366L819.3076459895834,187.23361016181096L819.369464765625,192.66747336196593L821.5595299479168,190.37430129664878L823.1608163020834,190.39663042970332L823.1692188541667,196.21463928765257L825.6251647916666,193.16694424808057L826.132318828125,190.6000324110866L826.5848562760416,191.28041417889628L827.63577546875,189.71488925712566L828.4028084375,189.41379125027913L829.2844762239584,189.06704584077406L829.4111146875,189.87273110353263L829.8888597916666,188.6263151048973L830.2615729947918,189.9465970438241L830.7735284895833,184.5036022775408L830.9709884635416,186.86779468393357L831.0916251041666,188.4474131537793L833.6057887239584,189.7989739722501L833.6219936458333,190.9716580159733L834.4364410156251,190.03576401989L836.2291855208334,197.11692000736497L836.2489915364583,194.6464758558032L836.5796919791667,192.8006208620027L836.8677794791666,192.25322212788237L838.804567734375,193.10484339118165L839.8236772656251,191.13973880186586L841.0396465885417,184.72427005469748L843.5334040104166,186.35932294764527L845.3993707552082,188.40272709198837L849.6738690364583,189.41975339380602L850.0021687499999,188.64076231281953L850.2008290885417,197.36241983390448L853.9891797135417,192.12534767762403L856.496741328125,193.46746566547426L857.9989976041667,190.550017442398L858.0176032552084,188.09626611154465L858.5463638541667,188.17052398409368L859.8571619791667,186.64585488944303L860.4669471875001,189.33165889253644L864.646016484375,189.01488141330654L869.17799296875,189.76992136633066L869.5675112760416,188.74397501422305L871.6573460156251,188.0514404210908L872.6776559114584,183.76010632304627L873.9890542187501,184.86106234779112L874.0526735416666,190.65823406701628L874.1144923177084,192.25999236269126L874.3335588541668,170.0765114190479L874.6270479947916,177.6350140588355L876.1791194010417,180.15736628713069L878.7611036197917,185.96918985443924L879.1212129947917,199.15871751947768L879.2796611197917,196.32491299884285L882.0639067708333,192.77728426932478L885.323496796875,190.98613206740228L885.6199868489583,190.45392750734877L885.9062738020834,171.54020760899658L886.076125390625,178.6193033079534L887.0214125,176.18290801615888L891.6086057552083,182.90450809908734L891.99452296875,185.10597338802114L892.1559720052084,187.02458945251493L893.0196343229167,187.81796552624485L893.6252182552083,187.5558183427868L895.9209155208333,188.6184943811902L896.1567871614583,186.84798565348214L897.1836990625001,187.80755014776014L898.1115808854167,192.29135405791592L898.5089015625,188.66817657085684L898.9038215104166,188.23059884472056L902.5565309374999,186.07266527347784L906.1204133854166,188.45436804482836L906.6089617708333,195.57094709270893L906.8592377864584,191.77587189012175L908.4071079166667,188.94529289621283L909.6824952864583,188.95989188082166L910.61217765625,189.7165469330957L910.8660547656251,188.0405868021811L913.4006245833333,187.77863800165017L914.0878333072917,188.1367868023764L915.1663608854167,186.09690199905043L915.3824265104166,186.79052696251387L915.4628509375001,187.86140609133565L917.0485325520833,187.2422814364818L917.8731830208334,187.42009337450617L918.8076668489583,188.45078644074087L920.4533666927084,189.7587672151805L920.516986015625,187.1694478391405L922.2647168489584,190.12195743808797L922.576811640625,191.16486472851946L924.5814204947917,189.98867187447686L924.5820206770833,190.54302071272673L924.9529333333334,187.64658287300895L926.21211578125,188.15951100255742L926.9263327083333,188.17911773962012L927.618342890625,187.7517304926834L928.1080916406249,189.11201645189166L929.5869408072917,191.4972895116762L930.6834738541667,192.1519519019816L931.1072025520833,192.0163940767165L931.64256515625,192.20308832163164L932.1005042447918,196.1336185143712L932.9449607291667,194.40653734156368L933.31347265625,188.07598360552717L933.8308297916666,188.9882134023734L935.4531225260416,189.53403703682068L935.7124012760418,189.0162234893007L937.7662250781251,188.92007757816677L938.3081896875,187.3924330496242L941.4669490885417,187.81837191407325L942.3726241666666,187.43774116312753L944.39043703125,191.40191218570044L944.6185063020832,190.64356785606788L945.591401796875,190.87879571321912L947.219096171875,189.54514608934628L947.32892953125,190.99152054683555L949.4721804947917,189.71858728405377L951.0656644791666,190.18325244877477L951.5200024739584,188.90844518855204L953.9309347395833,187.54872026090132L954.9476435416666,190.05166825902052L956.6311548697917,195.142865326265L956.8562232291666,192.78099372513228L957.7552963020833,183.98112062977037L959.9285563802084,185.31701773572172L960.2220455208333,185.26595939898542L960.4651193489584,186.63731302785422L961.7537107291666,187.49736773439082L962.4889340364583,187.748060726171L962.90726109375,187.87170654146954L964.5157496354166,187.08136753877451L964.5349554687501,187.99248067194026L966.0738228645832,188.4420440892194L966.8132474479166,189.12705767018542L967.8425600781251,189.54241908276254L967.8959763020833,185.3353530237253L968.8172561197918,186.43837671458812L969.3670230989583,186.77834336994923L970.50556890625,186.9120758784456L972.9279046354167,187.2430041884972L976.1058698697917,188.0480365856858L978.9783423177083,188.1815837605348L979.4710919791668,188.96822843060107L979.6115346354167,189.94433464968887L982.2619396354166,204.07775945284777L982.5134160156251,199.36409055836535L982.8279115364584,195.8612406974139L983.4160901822918,192.43216292281315L984.454405546875,173.55387902390578L984.4994192187501,179.78508286652377L984.9111442708333,180.24700673171822L986.7615062760416,183.17570220520093L989.00078640625,184.2680195833798L989.1940451041667,184.54279853310024L989.3476917708333,186.61566939975353L989.3945059895833,189.20717485627478L991.6133799218751,188.1492774221469L991.7586240364584,187.00141514485966L993.0406134114583,191.1684977370628L993.5987829427082,189.8661149693259L994.1731573958333,189.65506837854593L995.538572109375,189.96278477304125L997.5665880729166,189.1719102019629L997.7790526041667,188.946867199498L998.4362522135416,190.35642296832506L1000.133567734375,183.28632748357478L1000.254204375,185.42498286136885L1001.7174488020833,178.9321809739256L1002.27441796875,197.3272893692782L1004.5869203385416,194.00337977539212L1006.1960090625,193.34038004737025L1008.3860742447918,191.772229417914L1010.926045703125,190.11052216949636L1011.8365222395834,188.65862068382137L1012.1438155729167,188.47528218383414L1016.3228848697916,187.9517216593408L1018.1594426822916,188.7828849109723L1018.9402798437501,187.45773237470883L1019.1479429166666,190.08535002530942L1019.7445241145833,189.38183137615272L1020.1016325781251,189.60702934819219L1021.9645984114583,189.6913615436569L1022.896081328125,188.93640906197976L1024.563387734375,188.2266260921789L1024.9853158854166,190.55838888133812L1025.6221092968751,187.82310614936947L1026.2787087239583,190.2743577075207L1027.4220559895832,200.1646594188931L1029.1943942968749,194.653204370028L1029.2856220052083,192.9145582134194L1030.0346495052083,188.69309903629005L1030.0364500520834,191.19498442519756L1030.0952679166667,190.00343317717122L1031.3844594791667,189.55331964630236L1031.9720379427083,188.53825211731294L1033.206012734375,188.51036829760375L1034.71307046875,189.11979657387687L1035.0923856770833,182.1027272364554L1035.3600669791667,187.0045554852557L1038.5524365885417,188.3124515528824L1039.6981845833332,187.4036994522737L1039.8206217708332,188.71614489088702L1040.41000078125,188.15645348863544L1040.6734808072918,183.4243232480764L1042.2549611458335,185.61190504574972L1042.9541735156251,187.10815395193674L1043.2164531770834,184.41169237939198L1044.2727740104167,186.18064276751258L1044.6430864843749,186.90272853179724L1046.5858765625,187.52667362579976L1048.3804216145834,187.4982727937599L1049.0604281510416,188.59567345173826L1050.2349848958333,188.29027543927933L1051.045831171875,189.63061295666776L1053.1392670052082,193.6988749848663L1053.5780002604167,192.422388768428L1054.859389453125,192.19320631296316L1056.915613984375,193.6482663357012L1059.7862858854166,191.9117082284672L1060.1806056510418,189.8990764232251L1060.8258016145833,187.06471288050847L1061.7596852604167,193.33681769130015L1062.11019171875,191.73577576782765L1062.3766726562499,181.0203612213967L1063.0266700781249,183.8301316098667L1063.5314233854167,185.60148861408283L1065.14591375,188.1729430689572L1066.1518192708334,187.4886451697314L1066.2400460677084,188.67041911664577L1067.3479825781249,188.2907584000062L1068.95226984375,189.87352975519337L1070.1676389843751,190.0124051474694L1071.035502578125,189.74840250972423L1071.3656028385417,189.30290771110586L1072.3402988802084,189.670804491626L1073.898372109375,189.44061671184053L1077.0037152864584,188.85655507265025L1078.003618984375,188.886759267917L1079.0971511197918,188.38455522747876L1079.1067540364584,197.2521761708232L1082.5343951041668,192.41326089494623L1082.8464898958334,190.03209265617323L1084.3643509114584,190.10638023578178L1086.5286082552082,189.15748886311752L1087.798593984375,186.67031366441967L1089.0541753385417,187.38416893855896L1089.573933203125,189.30884522151902L1090.9015364322916,188.55739500591764L1092.10010046875,188.18756359664772L1093.3538812760416,189.05763917051098L1094.0710991145834,189.13290721246457L1094.2739607291667,190.37469772979682L1095.2660620572917,191.25331286471746L1096.8169330989583,192.11643723532802L1097.4849359895834,190.35325969732654L1099.7968381770834,191.018207774639L1100.883168125,191.2780673017177L1103.549778046875,189.560127905728L1106.299213125,190.55974640785885L1106.7589527604166,190.1487114127689L1107.853085078125,189.48040133430717L1109.9591247395833,188.95953379802694L1110.391856171875,189.65936444801267L1110.8497952604166,184.14946745918496L1111.7902809114585,186.91710353298333L1111.9997445312501,190.79667131992187L1112.1767983072916,188.9129844622769L1112.9006181510417,188.3614061846261L1113.6244379947918,188.66968762038152L1114.8902224479166,191.5897591374919L1117.21412828125,189.30702919765073L1119.5110259114583,189.13213954333244L1121.3439826302083,188.0931773532817L1121.548044609375,188.05169668461747L1122.5917616145834,190.7566245820015L1122.999285390625,191.11088063903793L1123.773520546875,189.28426761554007L1125.2583715364583,191.01323445095537L1128.222671875,189.84213596013032L1130.7464384114583,188.45249722044153L1131.1815705729166,190.34191113179463L1133.5642942708332,188.6150311059127L1135.1835860937501,185.62702993321017L1136.3965545052083,187.28619044529054L1137.0753606770834,190.19412843775245L1137.4528753385416,189.73253881226344L1138.6352344531251,189.32875909879414L1143.9654533854166,190.06501466393237L1145.9028418229168,189.12301780763315L1146.6914813541666,188.08836483493587L1147.684783046875,189.13814123740877L1148.28796625,186.5805293524032L1149.9396679166666,187.9788954217834L1151.8590508854168,188.73504930577664L1151.8806574479167,187.5154716693226L1152.57686890625,190.4960316262797L1152.9699883072917,187.73136423434872L1153.4297279427083,187.8823201943061L1155.9516939322918,188.06206924041027L1157.4551505729166,189.03444365127703L1157.5577817447918,187.88612136740093L1157.8842809114583,188.44486547554013L1158.0337263020833,188.62016631103202L1158.6417109635415,188.95698390448885L1160.3360255729167,188.9328737366297L1160.4230520052083,185.81425725418913L1160.7309455208333,186.76691426657231L1164.941224296875,185.9036261560997L1165.5450076822917,190.06639663953214L1166.0263538802083,189.44131060317972L1166.8510043489582,185.51545645241183L1166.9374305989584,186.02755911084185L1168.056170390625,187.1300960385971L1168.6911632552085,187.9065789226485L1169.28594390625,192.34956245590257L1171.5576338802082,191.15888907060878L1175.0560964583333,190.82158791021766L1175.2577577083332,190.0854078180283L1175.6124654427083,189.11354917521882L1175.7078944270834,188.87839388420187L1176.0872096354167,189.26799581853956L1176.66818609375,189.6775511794154L1177.8031308072916,189.3468435833867L1179.172746796875,188.9115750697171L1180.5741724479167,189.33539565607677L1182.2108695572917,189.21511801268028L1183.360818828125,183.56564275974998L1183.5234682291668,185.9531065872422L1186.0790444270833,188.71215818298154L1186.2050827083333,188.8753484690656L1186.7116365625,189.0185475321008L1186.807065546875,187.76471531369643L1189.3044240625,188.37165080929316L1189.3194286197918,188.76986817161495L1189.7353549479167,188.6411486482633L1190.3169315885416,185.17251424046685L1191.0413516145834,186.13888773821287L1191.8089847656252,187.278371062261L1192.4829894791667,187.95371397613508L1192.6636443489583,185.33567686889853L1193.292635390625,187.22047832195315L1194.1586984375,188.28494261122762L1195.4971049479166,188.62129180816132L1196.096086875,189.38167876414846L1198.3623752083333,189.02176684690187L1199.0849946875,189.66552214607324L1199.425298046875,188.80100602425847L1202.9285620833334,187.00512877340742L1204.9109641927084,186.575961777715L1205.097020703125,187.6516310472901L1205.9918925,189.52013580265955L1206.422223203125,189.8589857879423L1207.0074009375,192.56568077415332L1207.279283515625,191.16441837065588L1207.94728640625,190.34268530973864L1210.3534172135417,189.57856397016604L1210.8077552083334,191.51668806027251L1211.3221114322916,190.29836160551133L1212.6263075520833,188.74377487162866L1212.709732890625,188.9887002950975L1218.921619609375,187.79613176244158L1219.1562908854166,188.37671194118357L1222.6337470833332,191.412008926188L1222.807199765625,190.6342176306486L1224.5651336979165,189.45127084215858L1224.8460190104167,190.0627773127113L1228.8972494791667,194.7886002355757L1230.0916122395834,194.4503662026602L1232.6976037499999,192.40153943398954L1232.8494498697917,193.58943328862634L1234.0276077083333,191.99033041668457L1234.5797754166667,184.82387183772786L1235.0341134114583,185.2414303632178L1236.307700234375,186.44897261788L1238.047028515625,186.59456554878423L1238.8074594791667,186.86244419447934L1241.3660365885416,187.55856142329392L1244.0416492447916,188.9425524261577L1244.8146840364584,189.76690918865327L1247.836601875,190.08666861251945L1248.7536804166666,189.24355009203228L1250.9719541666668,189.72994825312168L1252.8265174479168,188.13657880894792L1253.3450749479166,188.53450923281596L1254.766906796875,192.46458707931745L1255.2866646614582,189.83855103112003L1255.8052221614582,189.21615381260634L1257.7978273697915,182.94966309760463L1258.0913165104166,185.63563726433972L1259.7988351302083,187.16934139790825L1260.294585703125,188.20586294369423L1260.3227942708334,189.5601847901882L1261.4049229427085,190.54823696518898L1261.601782734375,189.30758968262631L1263.1988678125,188.96648673150753L1263.5385709895834,188.4224818625966L1268.6323180989584,189.12489638268096L1268.8735913802084,188.8872520726397L1269.4569685677084,169.94798439749925L1270.1861900520832,178.02091914425287L1270.1915916927085,182.7199611862786L1271.6908470572916,185.2626053651384L1271.796479140625,186.03853296544733L1272.2760247916667,187.1664734421003L1273.1835004166667,187.6645979488828L1273.8575051302084,181.0951081837677L1275.5350146354167,185.42488873128744L1280.7548000260417,186.19914282476324L1281.5188320833333,187.6646299147407L1282.6441738802084,188.27420887287073L1282.8830464322916,187.17409482713597L1283.2833680208334,188.12109935853422L1283.5834591666667,189.16990125525803L1284.6709894791666,188.35189391596467L1285.18714625,188.06888581419776L1286.1678441145834,187.60498048706975L1286.9612851041666,188.71882620607724L1287.788936484375,189.6188301218594L1288.1538473177084,188.93915416664663L1288.6946115624999,187.97948874118498L1288.7150177604167,43.40279383112531L1289.2611836458334,101.20578077475734L1289.286991484375,136.19158762244032L1290.032417890625,156.10269003469026L1290.9200875,167.29745546457633L1290.9891084635417,176.40214789880514L1292.3497217187498,182.500426099895L1292.4517527083333,184.71037153695204L1293.2025807552084,186.38166681251164L1293.2331900520833,185.5731044669225L1294.2793077864583,186.92296125133853L1294.7474499739583,186.41246099443745L1294.7762587239583,187.2644563763977L1295.606911015625,188.52432443534676L1295.6219155729166,191.11887589436606L1296.5906097916668,189.32698063649025L1297.6229233333333,188.3452299894743L1298.0580554947917,188.47571377899075L1298.8166859114583,188.64268614939954L1298.923518359375,187.6828694942309L1299.6449374739584,188.15787978696048L1300.6592455468751,186.73434801358187L1301.6549479687499,186.0948987729685L1304.0706816927084,186.94914035107314L1304.7236800260416,190.68393275055655L1306.0422805208334,189.39604977813605L1306.3195647395833,189.84608913040938L1308.3559832552082,188.21942920600196L1309.0197848697917,189.65065179237618L1310.7741177083333,189.42412267308765L1311.1234238020834,188.52979462711187L1311.5825632552082,188.2692105105206L1313.072215703125,188.73286272288652L1313.2216610937498,198.79129139975484L1313.7684271614585,195.03923496984223L1313.8740592447916,193.36993730086812L1315.8192500520834,191.78237714681995L1318.6959237760418,191.26706596422883L1320.4010416666665,190.9455860644445" style="fill: none;" fill="none"></path></g></g></g></g><g opacity="0.2"><g><g><g><path stroke="rgb(255, 112, 67)" stroke-width="2px" d="M120.321544921875,174.00263330107555L121.52911169270833,185.6295409591403L122.73307736979167,183.7788900444284L124.064881875,184.26383862411603L124.51621895833333,188.517865691907L125.59474653645835,189.62170511158183L126.61865752604166,185.57832891552243L127.22064036458333,192.48806013166904L129.709596328125,215.40479977056384L132.07791565104168,177.17477144347504L132.36420260416665,191.04705728846602L133.43912908854168,190.72141502425075L134.8777660416667,183.12997593800537L135.19346192708332,183.63140555587597L139.2044801822917,200.3770097824745L139.95170713541668,176.26752434903756L141.61541244791667,184.3779370726552L142.03914114583336,189.3280591556104L142.70234257812498,198.48712643049657L143.34813872395833,181.6709664897062L146.22841354166667,211.3846676228568L146.44087807291666,185.62199344066903L147.89331921875,187.27024351764703L151.79030283854166,180.54437570180744L153.95996182291668,199.02892124978825L155.295367421875,183.38262184429914L158.76142015624998,187.83859344921075L160.12143322916668,186.16969851509202L160.26187588541669,194.24181911419146L160.513352265625,187.803981326957L162.44353851562502,189.43706477375235L162.90687924479167,182.89708340214565L163.85576744791666,180.53443318372592L168.28571294270833,188.56857674399726L171.10596953125,185.74518845498096L172.12087778645832,183.62837856076658L172.17189328125,184.00196119467728L172.48878953125,188.97094625857426L172.93532515625,193.4953156861011L173.67114864583334,191.09953244531062L176.39477588541666,187.55512316938257L177.83521338541667,188.2092064723256L179.13940950520833,184.19502967526205L181.221441875,187.83129757686402L182.65647773437502,193.52067362773232L183.520740234375,190.3109133199323L184.75891630208332,185.78207241452765L185.20845283854166,186.26924877834972L186.85115177083333,175.5725250430405L189.368916484375,185.54332931200042L190.28659520833332,194.2810813956894L190.97260356770835,204.39085620827973L192.77435080729168,183.1218262682669L198.10336937500003,189.45008585602045L199.18669841145834,192.9148989196401L200.69495651041666,196.45235459925607L200.7459720052083,151.0827240291983L203.73187890625,193.27517760940827L204.04757479166665,189.2247812161222L204.095589375,191.80025789386127L204.5127160677083,195.518878813833L205.79830653645834,188.34820285535534L206.63436046875,187.87694855383597L208.08139997395836,177.6170331160538L210.51934044270834,200.46617995854467L210.83023486979167,210.31332289706916L214.3437020052083,188.48284499443798L214.639591875,188.51360855572102L216.21747111979167,187.1552089257748L217.74013359375002,188.00432269324665L218.044426015625,181.25602238369174L219.42544546875,189.94313495024107L220.40794388020834,191.6893457559636L223.06975234374997,200.3772511696443L223.85178986979165,197.68808310991153L223.92441192708333,192.96258824667893L224.20229632812502,190.5252008299576L227.29023421875002,187.05084287875798L230.03306729166664,186.07088294660207L230.22932690104165,190.32221298251534L231.81020705729165,195.74810094805434L232.32516346354168,196.06945134839043L232.355172578125,189.48496696038637L234.27455554687498,206.1641530683264L237.25085953125,191.0253214710392L237.3126783072917,187.40684429759858L237.44411822916666,182.3083923223894L238.10852002604165,185.39287773624528L239.645586875,188.31809271353995L240.2001553125,196.92026738915592L240.91437223958332,190.43036244425457L243.74063065104164,182.2714082968887L245.32391153645833,179.84739526547492L245.43554544270836,199.21095965337008L246.068137578125,188.45637257441558L246.18997458333334,192.3425936398562L249.64822494791665,175.80335876578465L249.6902377083333,175.08593766391277L249.70764299479168,189.6432663621963L250.79697385416665,220.87441535107791L251.78547408854166,194.69577182573266L251.99373734375,199.67302648490295L252.23621098958333,183.00808112276718L254.20000744791665,200.5261563314125L254.98504588541667,187.15673515101662L255.82650145833333,188.86934609706805L255.88531932291664,183.07168313092552L256.5251136458333,189.18680898446473L257.652856171875,211.68856441415846L259.31536111979165,187.4088494569296L261.20893625,187.81375481915893L262.90865249999996,187.1635094624944L263.6834878385416,597.5504354983568L264.13722565104166,182.83035213849507L264.9996876041667,181.97204168443568L265.05850546875,181.86246332037263L265.319584765625,144.73731717467308L265.48583526041665,182.98660819791257L267.71191138020833,196.41244759457186L268.5863769791667,186.3800974972546L269.45844184895833,203.05262241652235L269.8881723697917,183.07551109255292L270.60418984374996,191.05742420908064L270.874271875,191.84944930742495L271.322608046875,182.57407884136774L272.14665833333333,175.56624019891024L274.25089744791666,181.39606161415577L276.6564280729167,188.5718901806431L277.59211226562496,191.90786741639022L277.6437279427083,189.28527454155846L279.44607536458335,183.3393415636383L282.44218536458334,195.4354685745202L282.60303421875,187.6157804186514L282.71766903645835,184.8719631265849L286.5510333333333,193.0372861647047L287.41529583333335,203.8453668486327L287.516726640625,180.85498217865825L291.020590859375,184.6240036424715L291.41130953125,186.49539410392754L297.33570893229165,187.2514177322737L297.43473901041665,190.50861665362027L299.5923943489583,185.10858882474713L299.78265213541664,185.3077540869126L305.1398792708333,186.64813337172382L305.49878828125003,191.8247420139378L306.04315361979167,180.79152544168755L308.6689511458333,187.04713034408633L309.1959111979167,185.81861535983626L311.391978203125,176.59241129085422L311.75628885416666,200.87052716780454L312.05998109374997,178.30949302902445L312.92544395833335,185.69795074139256L314.67857643229166,187.29205537203234L314.9096466145833,184.23644425254315L318.12542333333334,189.24207408324583L318.29587510416667,196.69124802015722L318.67879140625,192.96508813998662L319.080313359375,189.03006976668257L320.05200848958333,192.81481541018002L320.76682559895835,189.73438727576286L321.93357997395833,192.52952254749835L323.340407265625,193.09356448613107L323.4328353385417,184.33592297742143L325.93859640625,184.24707538238727L326.93249828125,180.70559073146433L327.2674,185.1260369477095L329.01092955729166,186.59098078985699L329.71314283854167,190.09422389784595L335.976645234375,186.4924943856895L338.70387356770834,189.66699208767386L341.09379945312503,192.56185175059363L342.60685901041666,187.36035729810828L345.43491796875,194.9316228905227L348.0030979947917,189.4921969450079L349.85346000000004,219.90210432000458L351.41153322916665,183.51427265116945L352.6953231510417,185.2346034606453L353.87708208333333,187.6575637148344L354.84097484374996,173.0473589375615L357.05684786458335,187.8177012250817L357.47277419270836,187.48400348698488L358.22480260416665,216.44130925554782L358.61552127604165,196.53620723541826L358.87059875,191.74302302091382L359.027246328125,161.45204271562397L360.22881127604165,186.3015648148721L361.976542109375,183.6163087633904L363.6192410416666,187.10000741056865L366.8662272395833,185.34615198289976L367.35777653645835,188.6959287813952L368.278456171875,185.07379286421929L369.12231247395835,185.03841011342593L369.49442549479164,186.46587552526034L369.77591098958334,182.07314604218118L371.62567281249994,185.20652025786694L373.0325001041667,129.47518062219024L373.6176778385416,188.3815450067923L375.4854451302083,196.8052205084823L376.348507265625,217.33105183020234L378.19406781249995,188.4988164624625L379.35902164062503,187.7184686602559L381.84257596354166,181.13879467966035L383.1017584114583,189.75926803884795L383.41205265625,191.94107702432666L385.4676770052083,190.22333169088233L385.6993473697916,189.2615267620713L385.95022356770835,183.92364861350507L389.5171069270834,188.05793105313205L391.6483542447917,196.77131658326834L393.5251242708333,175.51568494783714L395.1900299479167,188.6573345388897L396.10950921874996,181.0961314723827L396.3405794010417,201.85832735523582L398.12132026041667,193.88112172740512L400.35879984375,193.9078072984703L401.28248039062504,180.18153655249625L403.4191293489584,178.82817787956446L403.7120183072917,213.94655793346465L405.4123347395833,188.50597659974346L406.1217502083333,177.73881074879318L406.26219286458337,188.14528045675252L406.403235703125,190.6616087196162L407.5477833333333,186.80056925973622L407.6216057552083,188.20992942689918L411.1068643229167,184.0847100331448L411.17288437499997,184.77136173192412L412.04134815104163,184.6386865656823L414.4354753125,187.2433446481009L419.59884356770834,187.55801762099145L425.36899611979163,180.1042645694688L425.9907849739583,187.60414522790234L427.2151568489583,186.89550562668592L428.8068402864584,194.28445906052366L430.105634765625,182.83656544424593L430.29409200520837,192.24193431227468L431.53586916666666,184.7587139219977L436.94231125,186.82351442688378L437.78136609374997,193.43809068808332L438.45236989583333,206.516436137259L439.2284055989584,191.26951838750392L439.7343592708333,188.127919288032L439.8784030208333,183.7928040397819L440.1928985416667,192.10276297840755L444.0964841666667,190.06695076846518L445.12399625,184.20819098153152L445.6485555729167,187.50735506234923L447.2198328125,186.48891724727582L448.48441690104164,184.7132620345801L449.8150210416666,187.0745182420942L449.9740693489583,179.37559043662623L452.1215215885416,182.80425072438084L454.297782578125,184.7094331951812L454.35840098958334,173.33314379118383L454.62848302083336,171.61203747056425L455.76642864583334,186.10527447389904L457.65040085937494,191.70656126947142L458.87297218749995,182.55695702997036L459.1028420052083,188.65646610740077L462.28320796875,189.1402573590458L464.5693023177084,185.69173677731305L470.0195577083333,209.0147617449984L470.9642446354167,186.84607172873802L471.2637355989583,172.08047429006547L471.51401161458335,180.55073164543137L471.5962365885417,182.54538054019213L472.21382416666665,187.07628355035558L473.264743359375,185.82454141485505L473.6638645833333,196.07615488953888L473.7304848177083,183.1457042871043L473.99696575520835,188.32180445273116L476.30586703125,187.5278893202776L477.935361953125,191.57539740635548L480.03780052083334,196.6315621896647L480.9950912760417,183.5982775806915L482.6191845572917,198.32351332902908L484.226472734375,184.56093839160167L486.6025944270833,188.4168655523863L487.6145017708333,188.71397289750894L489.098752578125,183.62755169998854L494.90911734375004,181.3704065468628L499.7675929947917,201.00487009994686L503.938859921875,197.863569826819L505.07620536458336,189.03140869742492L506.00768828124995,193.794348745374L507.4301203125,188.3015113625297L507.9066650520833,187.0143640107708L508.56146393229164,190.4759655278176L508.8159412239583,191.02802654344123L509.5907765625,186.94138937769458L510.5294616666667,183.63856641598977L511.3349063020833,185.33966174023226L512.3678200260416,182.78152434178628L513.741037109375,188.9424300949904L515.6598198958334,201.98545676097274L517.655426015625,194.44344937824644L518.2454052083333,183.86810235353187L519.33173515625,214.28787763603032L519.668437421875,182.4827695360873L520.4720815104166,190.0248468113714L520.5501052083333,177.61812857491896L520.7205569791666,195.0456419007387L520.9996417447917,183.1906505781226L521.2181080989583,182.82086430606432L526.024367890625,195.15535895270295L526.5957414322917,144.40681161731482L527.3879820572917,193.1058774262201L529.0078740625,189.04549374850467L529.29956265625,191.09280520433094L530.9914765364583,192.92540935589932L531.3443837239583,188.70575507704052L532.495533359375,184.38737355545163L532.7812201302083,184.71715626795776L533.0777101822918,197.03765089763328L535.5336561197917,178.1276521240361L536.219064296875,176.13621323974803L536.8864670052084,183.27640710072592L537.101332265625,195.1194370307494L538.2134700520834,185.54680177615955L539.0753318229166,195.89653299096972L542.5203781770833,186.868126177229L542.8708846354167,182.12346561159939L544.73385046875,196.12104851426557L545.9894318229167,192.00162285147235L547.2756224739583,195.79485764284618L548.04685671875,104.10635462403297L548.5900216927083,204.05500853341073L549.049761328125,189.32681699917885L550.73687375,204.37232469581068L551.5465196614583,63.351127713918686L552.15210359375,183.424548601266L554.2449392447917,145.97341610491276L554.6332571875,179.53556429734454L557.3256749479167,193.89195123361424L559.3891016666666,193.0028507488314L562.3251934374999,189.81505864846986L562.4014165885417,192.9367760582827L566.3518164322917,189.16516390666948L567.1896709114584,186.3994365595281L569.36533171875,203.31924815103412L570.224192578125,187.8413112492999L574.199800078125,186.84641603461932L574.7753748958334,191.16774143732619L576.2986375520833,190.79770763369743L577.023057578125,188.0338156519574L578.2270232552083,187.93431037449045L578.9700489322917,207.02664083708078L580.2340328385417,200.76060383953154L580.5887405729167,184.77409642911516L582.1990296614583,197.55089707579464L582.5087237239584,186.99825602548663L582.9660626302083,183.66488595632836L584.7396013020833,183.8716428449843L586.9842830729167,184.64027928211726L588.5333535677083,187.7043122902396L588.694202421875,182.88516589812934L594.5975954427083,189.67646170634544L594.9126911458333,183.77725563384593L597.2353966145834,192.2460716883652L598.50178125,186.57791472179815L598.5798049479166,192.8388027115725L598.7760645572916,193.46404902543873L603.1964071354167,194.13237636582926L603.8902178645833,170.19426090084016L604.1831068229167,187.3229725699057L604.8997244791667,177.8578804563731L605.097184453125,190.48617049958557L605.4777000260417,191.05967284028884L606.696070078125,590.3115871399641L608.0152707552083,185.45452253334224L608.5176233333334,194.2368465384934L610.4820199739584,152.63202588446438L611.624166875,184.7753081927076L617.3613094010417,184.54562742286362L617.9296820312501,190.52898183080833L618.4674453645833,186.24385813972913L625.0190352604167,182.3671292818617L629.6284352604166,125.07964490354061L630.0677686979167,185.8529234988382L630.9428344791667,188.3400668047907L632.6845634895834,186.01700357475784L633.5044125000001,191.9297708881786L636.3192674479167,186.30206777795684L636.9944725260417,186.06051339267287L636.9998741666667,180.39889384899288L641.4400227604166,146.79772783443332L641.5180464583333,185.70581842702813L645.7043179427084,184.02646725904197L646.7840458854167,185.48547758511268L647.3098055729166,182.8489723058883L647.6735160416667,183.23676386638544L649.1409617447916,189.23149007876054L650.2597015364584,188.55211928220888L651.3376289322916,192.1827751446981L651.7343494270833,196.3337887325324L652.3363322656251,186.21177888207603L656.2789297395834,171.25257247500122L656.5874234375,191.09176855615806L656.7578752083333,184.74991119024344L657.4066722656249,189.14465027637198L657.81539640625,192.83755803154781L658.5980341145834,196.09079172974452L660.1308996875,187.52098575694254L663.1444149739583,186.82145111518912L663.8952430208334,190.41128166625276L665.9646715625,192.0005844477564L668.1229270833334,192.59973988076672L668.8269409114583,185.06098727486096L669.5291541927083,181.4160901659634L670.183352890625,191.1304929831531L671.5793769010417,185.67904134828132L673.1530548697916,182.06432751053944L673.6662107291667,188.75512569314742L673.9260896614584,186.78182730154367L674.2213793489584,193.92409347137436L674.4104367708334,188.62857830479334L677.7048373697917,184.50949395797215L678.0721489322916,207.7689019953832L681.0130421614583,193.56415755138732L682.7121582291667,187.25311424519168L683.1280845572917,188.6883757768519L683.7192641145833,186.51129120460246L686.2004177083334,185.26184027222916L687.3215582291666,191.452952447813L689.7450943229167,187.62752434334834L690.5991537239584,190.16028586070752L693.597664453125,189.36833120352821L694.1066190364583,190.75850679620635L696.2774783854167,189.22551004079287L696.7444202083333,185.17533171887044L698.4033240625,184.94646595988888L704.0066259375,194.5781934519764L705.4224559635417,202.54338414315134L705.4710707291666,183.8529327060096L707.6161222395833,196.97769295796752L708.1718910416666,189.72696846054168L709.7185608072916,192.56424982240424L709.80078578125,214.0398826021701L709.871007109375,182.6537704016082L710.7952878385416,182.6374368290417L710.8373005989583,187.99882899556542L711.505903671875,187.40260817221133L711.6817570833333,187.3711042937939L712.5784294270833,192.44294048077427L713.7751929166667,188.14603246007755L715.3902834635417,187.83162525994703L715.7383891927084,191.1508397271391L716.284555078125,188.18528009376314L716.6344613541667,189.12972404586617L717.4062957812499,187.49798276659567L718.1073086979167,195.51230781618506L718.562246875,188.09684195171576L719.0129837760417,197.6130283777602L721.5685599739583,189.18934815804823L721.5949679947917,183.03753299079835L725.0742247395833,188.41710925056395L725.4877503385417,184.88775204191916L726.7979482812499,185.8046792007517L727.5511770572916,193.51830847235397L728.1669640885417,192.36596913449466L734.9658290885416,192.01512780529447L735.4267690885416,188.62254893332283L739.0512699479167,186.65720930986572L739.367566015625,220.5981069188565L740.889028125,190.76914604543708L740.9568487239584,185.40695324155968L741.3907805208333,191.65462528378703L741.5288224479167,190.45194289612118L743.5742436979166,80.84321122989058L743.793310234375,194.27426988864318L743.9865689322917,187.42084793536924L745.1023078125,198.0008585602045L749.5244509375,143.0883215405047L750.6125814322916,204.52041879668832L751.1491444010416,171.39064418058842L753.3500128645834,188.71118672724697L753.6182943489583,201.8682057959959L754.2802954166667,189.89497722237138L755.302405859375,190.82107544783503L755.5862920833333,191.7955438218778L755.7243340104168,181.59918891754933L756.4253469270834,187.60184398526326L757.4240502604167,191.4349497926887L759.1057610416667,192.89241172978655L760.6932432031249,193.0909592602402L761.56290734375,191.81731365295127L762.0238473437499,191.32027245382778L762.2873273697917,185.3537964951247L763.2272128385417,184.7528705969453L763.2638239583334,187.1549737927271L764.7354709374999,191.01216960081365L764.7660802343751,170.45223795250058L764.9599391145833,191.88517087802757L765.0241586197917,202.97864822112024L765.3920703645832,205.53353567048907L766.355963125,183.6558861648664L766.9819532552084,192.2965071236249L767.2586372916667,184.44425271148793L767.3564670052083,192.61137605900876L767.4056819531249,191.48603433999233L768.1991229427083,190.09103023586795L768.5202204687499,198.6228237641044L769.5945467708333,186.92173058714252L771.3908923697917,192.45376120926812L772.232948125,85.29024053737521L772.3217751041667,185.69505190092605L772.7569072656249,165.3831056309864L773.297071328125,188.4959749778077L773.5755559114584,188.9344598746684L777.9196753385417,180.04553375439718L779.5815801041666,202.49381989613175L779.8768697916666,197.05248699197546L780.1241448958333,191.03049747028854L780.6517051302084,170.6282416768372L780.9127844270834,189.00922757553053L781.5873893229167,189.1277351801691L783.3105126822917,188.80201825051336L783.6352113020833,188.41194541667937L784.3584309635417,176.90162386652082L785.93150875,185.2157890863018L786.723749375,342.77049458026886L787.5039863541667,186.78395633638138L788.6761423697916,192.23374909278937L790.5985262500001,187.6183865223138L790.9286265104166,182.9286743993871L791.2305182031249,186.573500408791L794.0531755208333,185.61513607006054L794.3796746875,192.86254774802364L794.7607904427084,193.04776061233133L798.6637758854166,199.01065833540633L798.7369981249999,187.96668335644063L801.5902647395834,190.07510010903934L802.7744244010418,185.77083628065884L803.1093261197917,185.00790733343456L805.0569176562501,189.51759690995095L806.7002167708333,191.1361712871585L812.3587354166666,182.1319400568027L813.5621009114584,180.37163992086425L815.3026295572917,190.14480921259383L815.6351305468751,141.1391631551087L818.6444445572916,202.5663519129157L818.9457360677084,191.95225807803217L819.3076459895834,189.08135203202255L819.369464765625,200.81826816219836L821.5595299479168,186.93454319867305L823.1608163020834,190.4301241292851L823.1692188541667,204.94165257457644L825.6251647916666,188.59540168872263L826.132318828125,186.74966465559555L826.5848562760416,192.30098683061078L827.63577546875,187.36660187446978L828.4028084375,188.96214424000937L829.2844762239584,188.54692772651651L829.4111146875,191.08125899767037L829.8888597916666,186.75669110694434L830.2615729947918,191.92701995221432L830.7735284895833,176.33911012811586L830.9709884635416,190.4140832935227L831.0916251041666,190.81684085854795L833.6057887239584,191.8263151999563L833.6219936458333,192.73068408155814L834.4364410156251,188.631923025765L836.2291855208334,207.73865398857743L836.2489915364583,190.94080962846056L836.5796919791667,190.031838371302L836.8677794791666,191.43212402670179L838.804567734375,194.3822752861306L839.8236772656251,188.1920819178922L841.0396465885417,175.10106693394482L843.5334040104166,188.8119022870669L845.3993707552082,191.46783330850303L849.6738690364583,190.94529284653254L850.0021687499999,187.47227569133975L850.2008290885417,210.44490611553192L853.9891797135417,184.26973944320343L856.496741328125,195.48064264724962L857.9989976041667,186.17384510778356L858.0176032552084,184.41563911526464L858.5463638541667,188.2819107929172L859.8571619791667,184.3588512474671L860.4669471875001,193.36036489717662L864.646016484375,188.53971519446168L869.17799296875,190.9024812958669L869.5675112760416,187.2050554860616L871.6573460156251,187.01263853139244L872.6776559114584,177.32310517597944L873.9890542187501,186.51249638490845L874.0526735416666,199.35399164585397L874.1144923177084,194.66262980620377L874.3335588541668,136.80129000358284L874.6270479947916,188.97276801851694L876.1791194010417,183.94089462957345L878.7611036197917,194.68692520540208L879.1212129947917,218.94300901703537L879.2796611197917,192.0742062178906L882.0639067708333,187.45584117504768L885.323496796875,188.2994037645185L885.6199868489583,189.65562066726852L885.9062738020834,143.1696277614683L886.076125390625,189.2379468563886L887.0214125,172.52831507846713L891.6086057552083,192.98690822348L891.99452296875,188.40817132142183L892.1559720052084,189.90251354925567L893.0196343229167,189.00802963683964L893.6252182552083,187.16259756759973L895.9209155208333,190.21250843879534L896.1567871614583,184.19222256192006L897.1836990625001,189.24689688917715L898.1115808854167,199.01705992314965L898.5089015625,183.23341034026816L898.9038215104166,187.5742322555161L902.5565309374999,182.8357649166137L906.1204133854166,192.02692220185418L906.6089617708333,206.2458156645298L906.8592377864584,186.08325908624101L908.4071079166667,184.69942440534942L909.6824952864583,188.981790357735L910.61217765625,190.85152951150667L910.8660547656251,185.52664660580922L913.4006245833333,187.38571480085375L914.0878333072917,188.6740100034658L915.1663608854167,183.03707479406148L915.3824265104166,187.83096440770896L915.4628509375001,189.46772478456842L917.0485325520833,186.31359445420094L917.8731830208334,187.68681128154276L918.8076668489583,189.99682604009286L920.4533666927084,191.72073837684002L920.516986015625,183.28546877508052L922.2647168489584,194.55072183650918L922.576811640625,192.72922566416673L924.5814204947917,188.22438259341288L924.5820206770833,191.3745439701015L924.9529333333334,183.30192611343227L926.21211578125,188.92890319688013L926.9263327083333,188.20852784521412L927.618342890625,187.1106496222783L928.1080916406249,191.1524453907041L929.5869408072917,195.07519910135306L930.6834738541667,193.13394548743963L931.1072025520833,191.8130573388189L931.64256515625,192.48312968900427L932.1005042447918,202.02941380348057L932.9449607291667,191.81591558235232L933.31347265625,178.58015300147235L933.8308297916666,190.35655809764285L935.4531225260416,190.3527724884916L935.7124012760418,188.23950316802075L937.7662250781251,188.77585871146584L938.3081896875,185.10096625681035L941.4669490885417,188.45728021074683L942.3726241666666,186.86679503670894L944.39043703125,197.3481687195599L944.6185063020832,189.50605136161903L945.591401796875,191.23163749894593L947.219096171875,187.54467165353708L947.32892953125,193.16108223306946L949.4721804947917,187.80918738988112L951.0656644791666,190.8802501958562L951.5200024739584,186.99623429821804L953.9309347395833,185.50913286942523L954.9476435416666,193.80609025619924L956.6311548697917,202.77966092713177L956.8562232291666,189.23818632343318L957.7552963020833,170.78131098672748L959.9285563802084,187.32086339464877L960.2220455208333,185.1893718938809L960.4651193489584,188.69434347115748L961.7537107291666,188.7874497941957L962.4889340364583,188.1241002138413L962.90726109375,188.0571752644173L964.5157496354166,185.89585903473198L964.5349554687501,189.35915037168888L966.0738228645832,189.11638921513804L966.8132474479166,190.15457804163452L967.8425600781251,190.1654612016282L967.8959763020833,179.02475393516943L968.8172561197918,188.09291225088236L969.3670230989583,187.28829335299088L970.50556890625,187.1126746411901L972.9279046354167,187.73939665357466L976.1058698697917,189.25558518146863L978.9783423177083,188.38190452280833L979.4710919791668,190.14819543570047L979.6115346354167,191.40849397832062L982.2619396354166,225.2778966575861L982.5134160156251,192.29358721664175L982.8279115364584,190.60696590598673L983.4160901822918,187.28854626091197L984.454405546875,145.23645317554474L984.4994192187501,189.1318886304507L984.9111442708333,180.93989252950996L986.7615062760416,187.56874541542493L989.00078640625,185.90649565064814L989.1940451041667,184.95496695768088L989.3476917708333,189.72497569973348L989.3945059895833,193.09443304105662L991.6133799218751,186.56243127095513L991.7586240364584,185.27962172892876L993.0406134114583,197.41912162536755L993.5987829427082,187.91254081772058L994.1731573958333,189.33849849237595L995.538572109375,190.42435936478432L997.5665880729166,187.98559834534535L997.7790526041667,188.60930269580058L998.4362522135416,192.47075662156567L1000.133567734375,172.68118425644934L1000.254204375,188.63296592806L1001.7174488020833,169.1929781427607L1002.27441796875,224.9199519623071L1004.5869203385416,189.017515384563L1006.1960090625,192.34588045533746L1008.3860742447918,189.4200034737296L1010.926045703125,187.6179612968699L1011.8365222395834,186.48076845530886L1012.1438155729167,188.20027443385334L1016.3228848697916,187.1663808726007L1018.1594426822916,190.0296297884197L1018.9402798437501,185.47000357031357L1019.1479429166666,194.0267765012104L1019.7445241145833,188.32655340241763L1020.1016325781251,189.94482630625134L1021.9645984114583,189.81785983685404L1022.896081328125,187.80398033946403L1024.563387734375,187.1619516374776L1024.9853158854166,194.05603306507692L1025.6221092968751,183.7201820514165L1026.2787087239583,193.9512350447476L1027.4220559895832,215.00011198595166L1029.1943942968749,186.38602179673035L1029.2856220052083,190.30658897850662L1030.0346495052083,182.36091027059592L1030.0364500520834,194.94781250855885L1030.0952679166667,188.2161063051317L1031.3844594791667,188.87814934999915L1031.9720379427083,187.01565082382876L1033.206012734375,188.46854256804L1034.71307046875,190.03393898828654L1035.0923856770833,171.5771232303232L1035.3600669791667,194.35729785845615L1038.5524365885417,190.2742956543225L1039.6981845833332,186.04057130136061L1039.8206217708332,190.68481304880697L1040.41000078125,187.31691638525808L1040.6734808072918,176.32612788723782L1042.2549611458335,188.89327774225967L1042.9541735156251,189.35252731121727L1043.2164531770834,180.36700002057478L1044.2727740104167,188.83406834969355L1044.6430864843749,187.98585717822425L1046.5858765625,188.46259126680343L1048.3804216145834,187.45567154570017L1049.0604281510416,190.24177443870576L1050.2349848958333,187.83217842059094L1051.045831171875,191.6411192327505L1053.1392670052082,199.80126802716404L1053.5780002604167,190.50765944377054L1054.859389453125,191.84943262976594L1056.915613984375,195.83085636980832L1059.7862858854166,189.30687106761616L1060.1806056510418,186.88012871536193L1060.8258016145833,182.81316756643355L1061.7596852604167,202.74497490748763L1062.11019171875,189.33421288261889L1062.3766726562499,164.94723940175027L1063.0266700781249,188.04478719257168L1063.5314233854167,188.25852412040695L1065.14591375,192.0301247512689L1066.1518192708334,186.46219832089264L1066.2400460677084,190.44308003701735L1067.3479825781249,187.72126732504694L1068.95226984375,192.2476867879741L1070.1676389843751,190.2207182358834L1071.035502578125,189.35239855310647L1071.3656028385417,188.63466551317833L1072.3402988802084,190.22264966240618L1073.898372109375,189.09533504216233L1077.0037152864584,187.9804626138648L1078.003618984375,188.93206556081714L1079.0971511197918,187.63124916682136L1079.1067540364584,210.55360758583993L1082.5343951041668,185.15488798113074L1082.8464898958334,186.46034029801376L1084.3643509114584,190.21781160519458L1086.5286082552082,187.7341518041212L1087.798593984375,182.93955086637288L1089.0541753385417,188.4549518497679L1089.573933203125,192.195859645959L1090.9015364322916,187.4302196825156L1092.10010046875,187.63281648274278L1093.3538812760416,190.3627525313059L1094.0710991145834,189.245809275395L1094.2739607291667,192.23738350579515L1095.2660620572917,192.57123556709848L1096.8169330989583,193.41112379124388L1097.4849359895834,187.7084933903243L1099.7968381770834,192.01562989060767L1100.883168125,191.66785659233574L1103.549778046875,186.98321881174343L1106.299213125,192.05917416105513L1106.7589527604166,189.53215892013395L1107.853085078125,188.47793621661458L1109.9591247395833,188.17823249360663L1110.391856171875,190.70911042299122L1110.8497952604166,175.88462197594345L1111.7902809114585,191.06855764368083L1111.9997445312501,196.61602300032973L1112.1767983072916,186.0874541758094L1112.9006181510417,187.5340387681499L1113.6244379947918,189.13210977401468L1114.8902224479166,195.96986641315743L1117.21412828125,185.88293428788893L1119.5110259114583,188.869805061855L1121.3439826302083,186.53473406820558L1121.548044609375,187.98947568162112L1122.5917616145834,194.8140164280776L1122.999285390625,191.64226472459268L1123.773520546875,186.54434808029328L1125.2583715364583,193.60668470407836L1128.222671875,188.08548822389275L1130.7464384114583,186.36803911090828L1131.1815705729166,193.17603199882433L1133.5642942708332,186.0247110670898L1135.1835860937501,181.14502817415632L1136.3965545052083,189.77493121341104L1137.0753606770834,194.5560354264453L1137.4528753385416,189.04015437402995L1138.6352344531251,188.7230895285902L1143.9654533854166,191.16939801163971L1145.9028418229168,187.7100225231843L1146.6914813541666,186.53638537588995L1147.684783046875,190.7128058411181L1148.28796625,182.74411152489483L1149.9396679166666,190.07644452585373L1151.8590508854168,189.86928013176657L1151.8806574479167,185.68610521464143L1152.57686890625,194.96687156171538L1152.9699883072917,183.58436314645223L1153.4297279427083,188.1087541342422L1155.9516939322918,188.33169280956645L1157.4551505729166,190.49300526757725L1157.5577817447918,186.16363794158679L1157.8842809114583,189.2829816377489L1158.0337263020833,188.88311756426992L1158.6417109635415,189.46221029467415L1160.3360255729167,188.89670848484093L1160.4230520052083,181.1363325305283L1160.7309455208333,188.19589978514705L1164.941224296875,184.60869399039075L1165.5450076822917,196.31055236468092L1166.0263538802083,188.503681548651L1166.8510043489582,179.62667522625998L1166.9374305989584,186.79571309848689L1168.056170390625,188.7839014302299L1168.6911632552085,189.0713032487256L1169.28594390625,199.01403775578365L1171.5576338802082,189.37287899266812L1175.0560964583333,190.31563616963103L1175.2577577083332,188.98113767974428L1175.6124654427083,187.65576121100457L1175.7078944270834,188.52566094767644L1176.0872096354167,189.85239872004604L1176.66818609375,190.29188422072912L1177.8031308072916,188.8507821893436L1179.172746796875,188.25867229921278L1180.5741724479167,189.97112653561635L1182.2108695572917,189.03470154758543L1183.360818828125,175.09142988035455L1183.5234682291668,189.5343023284804L1186.0790444270833,192.85073557659052L1186.2050827083333,189.12013389819185L1186.7116365625,189.2333461266535L1186.807065546875,185.88396698608994L1189.3044240625,189.28205405268818L1189.3194286197918,189.3671942150977L1189.7353549479167,188.44806936323585L1190.3169315885416,179.9695626287721L1191.0413516145834,187.58844798483187L1191.8089847656252,188.98759604833322L1192.4829894791667,188.96672834694618L1192.6636443489583,181.40862120804377L1193.292635390625,190.04768050153507L1194.1586984375,189.8816390451393L1195.4971049479166,189.12581560356193L1196.096086875,190.52225919812918L1198.3623752083333,188.48189897103202L1199.0849946875,190.63115509483032L1199.425298046875,187.50423184153624L1202.9285620833334,184.31131289713085L1204.9109641927084,185.93221128417645L1205.097020703125,189.26513495165273L1205.9918925,192.32289293571375L1206.422223203125,190.36726076586638L1207.0074009375,196.6257232534699L1207.279283515625,189.06252476540976L1207.94728640625,189.11008571836282L1210.3534172135417,188.4323819608071L1210.8077552083334,194.4238741954323L1211.3221114322916,188.4708719233695L1212.6263075520833,186.4118947708048L1212.709732890625,189.3560884303006L1218.921619609375,186.0072789634578L1219.1562908854166,189.24758220929652L1222.6337470833332,195.96495440369472L1222.807199765625,189.4675306873396L1224.5651336979165,187.6768506594235L1224.8460190104167,190.98003701854032L1228.8972494791667,201.87733461987227L1230.0916122395834,193.94301515328698L1232.6976037499999,189.32829928098363L1232.8494498697917,195.37127407058142L1234.0276077083333,189.59167610877194L1234.5797754166667,174.0741839692928L1235.0341134114583,185.86776815145276L1236.307700234375,188.2602859998733L1238.047028515625,186.81295494514052L1238.8074594791667,187.26426216302207L1241.3660365885416,188.60273726651576L1244.0416492447916,191.01853893045336L1244.8146840364584,191.0034443323966L1247.836601875,190.56630774831865L1248.7536804166666,187.97887231130153L1250.9719541666668,190.45954549475573L1252.8265174479168,185.7465246426873L1253.3450749479166,189.13140486861812L1254.766906796875,198.35970384906977L1255.2866646614582,185.89949695882387L1255.8052221614582,188.28255798483588L1257.7978273697915,173.54992702510208L1258.0913165104166,189.66459851444233L1259.7988351302083,189.469897598261L1260.294585703125,189.76064526237315L1260.3227942708334,191.5916675599292L1261.4049229427085,192.03031522769015L1261.601782734375,187.44661875878228L1263.1988678125,188.45483230482932L1263.5385709895834,187.60647455923026L1268.6323180989584,190.17851816280745L1268.8735913802084,188.53078560757785L1269.4569685677084,141.5390828847885L1270.1861900520832,190.13032126438338L1270.1915916927085,189.76852424931712L1271.6908470572916,189.0765716334281L1271.796479140625,187.2024243659107L1272.2760247916667,188.85838415707985L1273.1835004166667,188.41178470905652L1273.8575051302084,171.24087353609502L1275.5350146354167,191.91955955256708L1280.7548000260417,187.3605239649769L1281.5188320833333,189.86286054970697L1282.6441738802084,189.18857731006574L1282.8830464322916,185.52392375853378L1283.2833680208334,189.5416061556316L1283.5834591666667,190.74310410034377L1284.6709894791666,187.12488290702458L1285.18714625,187.64437366154743L1286.1678441145834,186.90912249637768L1286.9612851041666,190.38959478458855L1287.788936484375,190.96883599553257L1288.1538473177084,187.91964023382752L1288.6946115624999,186.53999060299248L1288.7150177604167,-173.46224853396407L1289.2611836458334,187.91026119020535L1289.286991484375,188.67029789396474L1290.032417890625,185.96934365306515L1290.9200875,184.08960360940546L1290.9891084635417,190.0591865501483L1292.3497217187498,191.64784340152983L1292.4517527083333,188.02528969253763L1293.2025807552084,188.88860972585098L1293.2331900520833,184.36026094853878L1294.2793077864583,188.94774642796256L1294.7474499739583,185.64671060908586L1294.7762587239583,188.54244944933816L1295.606911015625,190.4141265237704L1295.6219155729166,195.0107030828949L1296.5906097916668,186.6391377496766L1297.6229233333333,186.87260401895037L1298.0580554947917,188.67143946326541L1298.8166859114583,188.89314470501267L1298.923518359375,186.24314451147802L1299.6449374739584,188.87039522605482L1300.6592455468751,184.59905035351403L1301.6549479687499,185.13572491204832L1304.0706816927084,188.23050271823013L1304.7236800260416,196.28612134978175L1306.0422805208334,187.4642253195052L1306.3195647395833,190.52114815881941L1308.3559832552082,185.7794393193908L1309.0197848697917,191.79748567193747L1310.7741177083333,189.08432899415493L1311.1234238020834,187.18830255814828L1311.5825632552082,187.87833433563355L1313.072215703125,189.4283410414355L1313.2216610937498,213.8789344150573L1313.7684271614585,189.41115032497328L1313.8740592447916,190.865990797407L1315.8192500520834,189.40103691574768L1318.6959237760418,190.49409919034224L1320.4010416666665,190.46336621476803" style="fill: none;" fill="none"></path></g></g></g></g></g></g><g transform="translate(51, 377)" clip-path="url(#clip_1)"><clipPath id="clip_1"><rect width="1440" height="23"></rect></clipPath><g><g><line x1="0" y1="0" x2="0" y2="5" style="visibility: inherit;" fill="rgb(0, 0, 0)" stroke="rgb(204, 204, 204)" stroke-width="1px"></line><line x1="120.03645833333333" y1="0" x2="120.03645833333333" y2="5" style="visibility: inherit;" fill="rgb(0, 0, 0)" stroke="rgb(204, 204, 204)" stroke-width="1px"></line><line x1="240.07291666666666" y1="0" x2="240.07291666666666" y2="5" style="visibility: inherit;" fill="rgb(0, 0, 0)" stroke="rgb(204, 204, 204)" stroke-width="1px"></line><line x1="360.109375" y1="0" x2="360.109375" y2="5" style="visibility: inherit;" fill="rgb(0, 0, 0)" stroke="rgb(204, 204, 204)" stroke-width="1px"></line><line x1="480.1458333333333" y1="0" x2="480.1458333333333" y2="5" style="visibility: inherit;" fill="rgb(0, 0, 0)" stroke="rgb(204, 204, 204)" stroke-width="1px"></line><line x1="600.1822916666667" y1="0" x2="600.1822916666667" y2="5" style="visibility: inherit;" fill="rgb(0, 0, 0)" stroke="rgb(204, 204, 204)" stroke-width="1px"></line><line x1="720.21875" y1="0" x2="720.21875" y2="5" style="visibility: inherit;" fill="rgb(0, 0, 0)" stroke="rgb(204, 204, 204)" stroke-width="1px"></line><line x1="840.2552083333334" y1="0" x2="840.2552083333334" y2="5" style="visibility: inherit;" fill="rgb(0, 0, 0)" stroke="rgb(204, 204, 204)" stroke-width="1px"></line><line x1="960.2916666666666" y1="0" x2="960.2916666666666" y2="5" style="visibility: inherit;" fill="rgb(0, 0, 0)" stroke="rgb(204, 204, 204)" stroke-width="1px"></line><line x1="1080.328125" y1="0" x2="1080.328125" y2="5" style="visibility: inherit;" fill="rgb(0, 0, 0)" stroke="rgb(204, 204, 204)" stroke-width="1px"></line><line x1="1200.3645833333335" y1="0" x2="1200.3645833333335" y2="5" style="visibility: inherit;" fill="rgb(0, 0, 0)" stroke="rgb(204, 204, 204)" stroke-width="1px"></line><line x1="1320.4010416666665" y1="0" x2="1320.4010416666665" y2="5" style="visibility: inherit;" fill="rgb(0, 0, 0)" stroke="rgb(204, 204, 204)" stroke-width="1px"></line><line x1="1440.4375" y1="0" x2="1440.4375" y2="5" style="visibility: inherit;" fill="rgb(0, 0, 0)" stroke="rgb(204, 204, 204)" stroke-width="1px"></line></g><g transform="translate(0, 8)"><text x="0" y="0" dx="0em" dy="0.95em" style="text-anchor: middle; visibility: hidden; font-family: Roboto, sans-serif; font-size: 12px; font-weight: 200;" fill="rgb(33, 33, 33)" stroke="none" stroke-width="1px">-1M</text><text x="120.03645833333333" y="0" dx="0em" dy="0.95em" style="text-anchor: middle; visibility: inherit; font-family: Roboto, sans-serif; font-size: 12px; font-weight: 200;" fill="rgb(33, 33, 33)" stroke="none" stroke-width="1px">0</text><text x="240.07291666666666" y="0" dx="0em" dy="0.95em" style="text-anchor: middle; visibility: inherit; font-family: Roboto, sans-serif; font-size: 12px; font-weight: 200;" fill="rgb(33, 33, 33)" stroke="none" stroke-width="1px">1M</text><text x="360.109375" y="0" dx="0em" dy="0.95em" style="text-anchor: middle; visibility: inherit; font-family: Roboto, sans-serif; font-size: 12px; font-weight: 200;" fill="rgb(33, 33, 33)" stroke="none" stroke-width="1px">2M</text><text x="480.1458333333333" y="0" dx="0em" dy="0.95em" style="text-anchor: middle; visibility: inherit; font-family: Roboto, sans-serif; font-size: 12px; font-weight: 200;" fill="rgb(33, 33, 33)" stroke="none" stroke-width="1px">3M</text><text x="600.1822916666667" y="0" dx="0em" dy="0.95em" style="text-anchor: middle; visibility: inherit; font-family: Roboto, sans-serif; font-size: 12px; font-weight: 200;" fill="rgb(33, 33, 33)" stroke="none" stroke-width="1px">4M</text><text x="720.21875" y="0" dx="0em" dy="0.95em" style="text-anchor: middle; visibility: inherit; font-family: Roboto, sans-serif; font-size: 12px; font-weight: 200;" fill="rgb(33, 33, 33)" stroke="none" stroke-width="1px">5M</text><text x="840.2552083333334" y="0" dx="0em" dy="0.95em" style="text-anchor: middle; visibility: inherit; font-family: Roboto, sans-serif; font-size: 12px; font-weight: 200;" fill="rgb(33, 33, 33)" stroke="none" stroke-width="1px">6M</text><text x="960.2916666666666" y="0" dx="0em" dy="0.95em" style="text-anchor: middle; visibility: inherit; font-family: Roboto, sans-serif; font-size: 12px; font-weight: 200;" fill="rgb(33, 33, 33)" stroke="none" stroke-width="1px">7M</text><text x="1080.328125" y="0" dx="0em" dy="0.95em" style="text-anchor: middle; visibility: inherit; font-family: Roboto, sans-serif; font-size: 12px; font-weight: 200;" fill="rgb(33, 33, 33)" stroke="none" stroke-width="1px">8M</text><text x="1200.3645833333335" y="0" dx="0em" dy="0.95em" style="text-anchor: middle; visibility: inherit; font-family: Roboto, sans-serif; font-size: 12px; font-weight: 200;" fill="rgb(33, 33, 33)" stroke="none" stroke-width="1px">9M</text><text x="1320.4010416666665" y="0" dx="0em" dy="0.95em" style="text-anchor: middle; visibility: inherit; font-family: Roboto, sans-serif; font-size: 12px; font-weight: 200;" fill="rgb(33, 33, 33)" stroke="none" stroke-width="1px">10M</text><text x="1440.4375" y="0" dx="0em" dy="0.95em" style="text-anchor: middle; visibility: hidden; font-family: Roboto, sans-serif; font-size: 12px; font-weight: 200;" fill="rgb(33, 33, 33)" stroke="none" stroke-width="1px">11M</text></g><line x1="0" y1="0" x2="1440.4375" y2="0" fill="rgb(0, 0, 0)" stroke="rgb(204, 204, 204)" stroke-width="1px"></line></g></g></g></g></svg>