<svg viewBox="0 0 1498 400" xmlns="http://www.w3.org/2000/svg"><g><g><g><g><g><line x1="29.4375" y1="377" x2="24.4375" y2="377" style="visibility: inherit;" fill="rgb(0, 0, 0)" stroke="rgb(204, 204, 204)" stroke-width="1px"></line><line x1="29.4375" y1="345.5833333333333" x2="24.4375" y2="345.5833333333333" style="visibility: inherit;" fill="rgb(0, 0, 0)" stroke="rgb(204, 204, 204)" stroke-width="1px"></line><line x1="29.4375" y1="314.1666666666667" x2="24.4375" y2="314.1666666666667" style="visibility: inherit;" fill="rgb(0, 0, 0)" stroke="rgb(204, 204, 204)" stroke-width="1px"></line><line x1="29.4375" y1="282.75" x2="24.4375" y2="282.75" style="visibility: inherit;" fill="rgb(0, 0, 0)" stroke="rgb(204, 204, 204)" stroke-width="1px"></line><line x1="29.4375" y1="251.33333333333334" x2="24.4375" y2="251.33333333333334" style="visibility: inherit;" fill="rgb(0, 0, 0)" stroke="rgb(204, 204, 204)" stroke-width="1px"></line><line x1="29.4375" y1="219.91666666666666" x2="24.4375" y2="219.91666666666666" style="visibility: inherit;" fill="rgb(0, 0, 0)" stroke="rgb(204, 204, 204)" stroke-width="1px"></line><line x1="29.4375" y1="188.5" x2="24.4375" y2="188.5" style="visibility: inherit;" fill="rgb(0, 0, 0)" stroke="rgb(204, 204, 204)" stroke-width="1px"></line><line x1="29.4375" y1="157.08333333333331" x2="24.4375" y2="157.08333333333331" style="visibility: inherit;" fill="rgb(0, 0, 0)" stroke="rgb(204, 204, 204)" stroke-width="1px"></line><line x1="29.4375" y1="125.66666666666669" x2="24.4375" y2="125.66666666666669" style="visibility: inherit;" fill="rgb(0, 0, 0)" stroke="rgb(204, 204, 204)" stroke-width="1px"></line><line x1="29.4375" y1="94.25" x2="24.4375" y2="94.25" style="visibility: inherit;" fill="rgb(0, 0, 0)" stroke="rgb(204, 204, 204)" stroke-width="1px"></line><line x1="29.4375" y1="62.833333333333314" x2="24.4375" y2="62.833333333333314" style="visibility: inherit;" fill="rgb(0, 0, 0)" stroke="rgb(204, 204, 204)" stroke-width="1px"></line><line x1="29.4375" y1="31.416666666666686" x2="24.4375" y2="31.416666666666686" style="visibility: inherit;" fill="rgb(0, 0, 0)" stroke="rgb(204, 204, 204)" stroke-width="1px"></line><line x1="29.4375" y1="0" x2="24.4375" y2="0" style="visibility: inherit;" fill="rgb(0, 0, 0)" stroke="rgb(204, 204, 204)" stroke-width="1px"></line></g><g transform="translate(19.4375, 0)"><text x="0" y="377" dx="0em" dy="0.3em" style="text-anchor: end; visibility: hidden; font-family: &quot;Helvetica Neue&quot;, sans-serif; font-size: 12px; font-weight: 200;" fill="rgb(50, 49, 63)" stroke="none" stroke-width="1px">-6</text><text x="0" y="345.5833333333333" dx="0em" dy="0.3em" style="text-anchor: end; visibility: inherit; font-family: &quot;Helvetica Neue&quot;, sans-serif; font-size: 12px; font-weight: 200;" fill="rgb(50, 49, 63)" stroke="none" stroke-width="1px">-5</text><text x="0" y="314.1666666666667" dx="0em" dy="0.3em" style="text-anchor: end; visibility: inherit; font-family: &quot;Helvetica Neue&quot;, sans-serif; font-size: 12px; font-weight: 200;" fill="rgb(50, 49, 63)" stroke="none" stroke-width="1px">-4</text><text x="0" y="282.75" dx="0em" dy="0.3em" style="text-anchor: end; visibility: inherit; font-family: &quot;Helvetica Neue&quot;, sans-serif; font-size: 12px; font-weight: 200;" fill="rgb(50, 49, 63)" stroke="none" stroke-width="1px">-3</text><text x="0" y="251.33333333333334" dx="0em" dy="0.3em" style="text-anchor: end; visibility: inherit; font-family: &quot;Helvetica Neue&quot;, sans-serif; font-size: 12px; font-weight: 200;" fill="rgb(50, 49, 63)" stroke="none" stroke-width="1px">-2</text><text x="0" y="219.91666666666666" dx="0em" dy="0.3em" style="text-anchor: end; visibility: inherit; font-family: &quot;Helvetica Neue&quot;, sans-serif; font-size: 12px; font-weight: 200;" fill="rgb(50, 49, 63)" stroke="none" stroke-width="1px">-1</text><text x="0" y="188.5" dx="0em" dy="0.3em" style="text-anchor: end; visibility: inherit; font-family: &quot;Helvetica Neue&quot;, sans-serif; font-size: 12px; font-weight: 200;" fill="rgb(50, 49, 63)" stroke="none" stroke-width="1px">0</text><text x="0" y="157.08333333333331" dx="0em" dy="0.3em" style="text-anchor: end; visibility: inherit; font-family: &quot;Helvetica Neue&quot;, sans-serif; font-size: 12px; font-weight: 200;" fill="rgb(50, 49, 63)" stroke="none" stroke-width="1px">1</text><text x="0" y="125.66666666666669" dx="0em" dy="0.3em" style="text-anchor: end; visibility: inherit; font-family: &quot;Helvetica Neue&quot;, sans-serif; font-size: 12px; font-weight: 200;" fill="rgb(50, 49, 63)" stroke="none" stroke-width="1px">2</text><text x="0" y="94.25" dx="0em" dy="0.3em" style="text-anchor: end; visibility: inherit; font-family: &quot;Helvetica Neue&quot;, sans-serif; font-size: 12px; font-weight: 200;" fill="rgb(50, 49, 63)" stroke="none" stroke-width="1px">3</text><text x="0" y="62.833333333333314" dx="0em" dy="0.3em" style="text-anchor: end; visibility: inherit; font-family: &quot;Helvetica Neue&quot;, sans-serif; font-size: 12px; font-weight: 200;" fill="rgb(50, 49, 63)" stroke="none" stroke-width="1px">4</text><text x="0" y="31.416666666666686" dx="0em" dy="0.3em" style="text-anchor: end; visibility: inherit; font-family: &quot;Helvetica Neue&quot;, sans-serif; font-size: 12px; font-weight: 200;" fill="rgb(50, 49, 63)" stroke="none" stroke-width="1px">5</text><text x="0" y="0" dx="0em" dy="0.3em" style="text-anchor: end; visibility: hidden; font-family: &quot;Helvetica Neue&quot;, sans-serif; font-size: 12px; font-weight: 200;" fill="rgb(50, 49, 63)" stroke="none" stroke-width="1px">6</text></g><line x1="29.4375" y1="0" x2="29.4375" y2="377" fill="rgb(0, 0, 0)" stroke="rgb(204, 204, 204)" stroke-width="1px"></line></g></g><g transform="translate(29, 0)" clip-path="url(#clip_0)"><clipPath id="clip_0"><rect width="1468" height="377"></rect></clipPath><g><g><g><line x1="0" y1="0" x2="0" y2="377" fill="rgb(0, 0, 0)" stroke="rgb(60, 60, 60)" stroke-width="1px" opacity="0.25"></line><line x1="146.85625000000002" y1="0" x2="146.85625000000002" y2="377" fill="rgb(0, 0, 0)" stroke="rgb(60, 60, 60)" stroke-width="1px" opacity="0.25"></line><line x1="293.71250000000003" y1="0" x2="293.71250000000003" y2="377" fill="rgb(0, 0, 0)" stroke="rgb(60, 60, 60)" stroke-width="1px" opacity="0.25"></line><line x1="440.56874999999997" y1="0" x2="440.56874999999997" y2="377" fill="rgb(0, 0, 0)" stroke="rgb(60, 60, 60)" stroke-width="1px" opacity="0.25"></line><line x1="587.4250000000001" y1="0" x2="587.4250000000001" y2="377" fill="rgb(0, 0, 0)" stroke="rgb(60, 60, 60)" stroke-width="1px" opacity="0.25"></line><line x1="734.28125" y1="0" x2="734.28125" y2="377" fill="rgb(0, 0, 0)" stroke="rgb(60, 60, 60)" stroke-width="1px" opacity="0.25"></line><line x1="881.1374999999999" y1="0" x2="881.1374999999999" y2="377" fill="rgb(0, 0, 0)" stroke="rgb(60, 60, 60)" stroke-width="1px" opacity="0.25"></line><line x1="1027.9937499999999" y1="0" x2="1027.9937499999999" y2="377" fill="rgb(0, 0, 0)" stroke="rgb(60, 60, 60)" stroke-width="1px" opacity="0.25"></line><line x1="1174.8500000000001" y1="0" x2="1174.8500000000001" y2="377" fill="rgb(0, 0, 0)" stroke="rgb(60, 60, 60)" stroke-width="1px" opacity="0.25"></line><line x1="1321.70625" y1="0" x2="1321.70625" y2="377" fill="rgb(0, 0, 0)" stroke="rgb(60, 60, 60)" stroke-width="1px" opacity="0.25"></line><line x1="1468.5625" y1="0" x2="1468.5625" y2="377" fill="rgb(0, 0, 0)" stroke="rgb(60, 60, 60)" stroke-width="1px" opacity="0.25"></line></g><g><line x1="0" y1="377" x2="1468.5625" y2="377" fill="rgb(0, 0, 0)" stroke="rgb(60, 60, 60)" stroke-width="1px" opacity="0.25"></line><line x1="0" y1="345.5833333333333" x2="1468.5625" y2="345.5833333333333" fill="rgb(0, 0, 0)" stroke="rgb(60, 60, 60)" stroke-width="1px" opacity="0.25"></line><line x1="0" y1="314.1666666666667" x2="1468.5625" y2="314.1666666666667" fill="rgb(0, 0, 0)" stroke="rgb(60, 60, 60)" stroke-width="1px" opacity="0.25"></line><line x1="0" y1="282.75" x2="1468.5625" y2="282.75" fill="rgb(0, 0, 0)" stroke="rgb(60, 60, 60)" stroke-width="1px" opacity="0.25"></line><line x1="0" y1="251.33333333333334" x2="1468.5625" y2="251.33333333333334" fill="rgb(0, 0, 0)" stroke="rgb(60, 60, 60)" stroke-width="1px" opacity="0.25"></line><line x1="0" y1="219.91666666666666" x2="1468.5625" y2="219.91666666666666" fill="rgb(0, 0, 0)" stroke="rgb(60, 60, 60)" stroke-width="1px" opacity="0.25"></line><line x1="0" y1="188.5" x2="1468.5625" y2="188.5" fill="rgb(0, 0, 0)" stroke="rgb(60, 60, 60)" stroke-width="1px" opacity="0.25"></line><line x1="0" y1="157.08333333333331" x2="1468.5625" y2="157.08333333333331" fill="rgb(0, 0, 0)" stroke="rgb(60, 60, 60)" stroke-width="1px" opacity="0.25"></line><line x1="0" y1="125.66666666666669" x2="1468.5625" y2="125.66666666666669" fill="rgb(0, 0, 0)" stroke="rgb(60, 60, 60)" stroke-width="1px" opacity="0.25"></line><line x1="0" y1="94.25" x2="1468.5625" y2="94.25" fill="rgb(0, 0, 0)" stroke="rgb(60, 60, 60)" stroke-width="1px" opacity="0.25"></line><line x1="0" y1="62.833333333333314" x2="1468.5625" y2="62.833333333333314" fill="rgb(0, 0, 0)" stroke="rgb(60, 60, 60)" stroke-width="1px" opacity="0.25"></line><line x1="0" y1="31.416666666666686" x2="1468.5625" y2="31.416666666666686" fill="rgb(0, 0, 0)" stroke="rgb(60, 60, 60)" stroke-width="1px" opacity="0.25"></line><line x1="0" y1="0" x2="1468.5625" y2="0" fill="rgb(0, 0, 0)" stroke="rgb(60, 60, 60)" stroke-width="1px" opacity="0.25"></line></g></g></g><g><g><line x1="0" y1="188.5" x2="1468.5625" y2="188.5" fill="rgb(0, 0, 0)" stroke="rgb(153, 153, 153)" stroke-width="1.5px"></line></g></g><g><g><line x1="146.85625000000002" y1="0" x2="146.85625000000002" y2="377" fill="rgb(0, 0, 0)" stroke="rgb(153, 153, 153)" stroke-width="1.5px"></line></g></g><g><g><g><g><g><path stroke="rgb(0, 119, 187)" stroke-width="2px" d="M149.69718415625,219.91666666666666L150.11866159375,154.8381235974452L151.858173875,189.32827830897637L152.35675084375,197.81393783857342L153.34729625,181.25116585120787L153.78199075,195.11392565437765L154.25193075,182.9442921883074L155.70947903125,173.87110739376016L156.18235615625,175.99824695715327L156.68019884375002,186.17491049904444L158.642932625,206.37379711359534L162.99501759375002,211.7598516510932L163.38124953125,201.94466563853433L164.33140946875,200.47789989609026L166.49019634375,202.5168464084313L167.38308234375,210.64097966561525L168.39492190625,205.3873796250474L168.74076837500002,218.75076880471647L169.68285121875,215.94123002826214L170.6983621875,210.60227290883535L171.39299225000002,211.42922233852642L172.62878759375,195.75738687092368L173.18390421875,192.45016354552877L173.70671246875,189.47489585906558L174.25448628125,189.3941038868351L174.57169578125,181.61716729434187L176.26347978125,182.17268329200417L176.76132246875,187.69005470147027L177.52203784375,190.23356096336855L178.30625021875,199.91892819901477L178.83933840625,203.9005303960562L179.36214665625,202.71787538953615L179.8768778125,196.84662696282385L181.44897396875,193.83834919369346L182.03713324999998,191.0760437595882L182.43584796875,193.23028848642292L182.98582462500002,195.2123349520842L183.62097790624998,201.67982301018296L185.08954040625,200.71079788214465L187.43483471875,209.01489419323337L188.00316840625,212.09934724659217L188.5883905625,214.9479129404304L189.00546231250001,210.76177062466826L189.50917925,204.62618533024167L190.04740740625002,201.20882114730847L192.10266062500003,209.30487910525778L195.85116640625,205.5719693180354L197.16112415625,215.55550554135428L197.56791596875,222.5708210350244L200.5953575625,215.69167360759462L202.11458546875002,215.99100701164778L203.20719596875,214.0469102118666L203.75423550000002,214.46129331091862L204.1375303125,221.48890576285476L206.02022743749998,219.1671676732614L206.39397659375,208.17964814534437L206.7515715625,197.9774415016785L208.37286456249998,197.3129894309293L208.77892209375,190.09536961214584L210.01251459375,189.98375912857327L211.93926859374997,192.0758294758832L213.00985065625,189.63231401488326L213.94532496875,189.55331041761414L214.49456734375002,189.47987572181583L214.7846084375,195.97781673308677L215.17451178125,204.20629853833927L217.06014603125,203.11348205704567L217.94862634375,202.09728940922352L219.6455503125,203.33574735188807L220.1213645625,204.48755505821066L220.80718324999998,201.19611368122065L221.91080796875002,198.1345358396931L222.2625286875,201.82522544971852L222.81837959375002,200.90112910086015L224.13127446874998,197.86345274448345L225.1056656875,195.03728283246255L225.63655103124998,192.40776974923764L226.80258965625,196.4890817307995L227.3231950625,195.93588567832043L228.804974625,197.5960060231551L231.08785503125,196.96645872604833L231.66059440625003,198.55453899447593L232.10850596875002,191.33842168082094L233.19671078125,193.31519283521726L234.33190959375,186.46397314553187L235.24388690625003,186.6047597681017L235.77550653125002,186.73579195960767L236.74622634375,178.17066221618165L237.62442671875,183.2276043773101L238.09436671875002,187.93445410388387L241.10051415625,194.48651713916507L243.0779335625,196.2436418619917L244.96283353125,200.0497600704788L245.411479375,203.59259852841683L245.90711921875,209.06059753009376L247.8096419375,207.64043204617747L249.0344230625,208.48831723908995L250.3737520625,207.10787283819124L250.86204909375,201.48368633925335L252.15585265625,207.095468229278L252.6206526875,205.81144229763262L253.61854090625002,206.7853655939222L254.04589259374998,203.35375108711483L254.64212896875,200.15920785127L255.52840643749997,199.3542804576841L256.9999060625,205.11152872201362L257.54253990625,206.1335697417036L258.09545368749997,202.74760288720594L259.48985378125,203.93275726692647L260.957682,205.03607081834625L263.25671659375,197.38909726659858L264.04974034375,203.28096118467369L264.95290628125,200.0923364979374L265.2943470625,190.61873140297084L267.651389875,183.96750197447733L268.94445915625,186.4486149350374L269.46653312499996,190.9267033148758L270.01210409375,192.92744454992328L270.40935025,194.7900768338333L271.1216030625,200.86045224760244L272.7649245,202.17556111946507L273.67543324999997,209.90420622457157L274.336286375,219.26748583293883L275.23724946875,212.80811740357365L277.62219496875,211.13063682352737L278.5319694375,207.40091649275487L280.4851575625,210.43259863154555L282.7232468125,206.75110886038223L283.47735365625,209.8275861313799L283.89295684374997,204.0199487906558L286.261013875,205.11691621033862L286.6046575,195.298566650305L287.00777790625,196.9973415725762L288.06220578125,194.2430847816581L288.46312334375,191.67889705598685L288.74508734375,180.62014115166042L290.58813328125,181.16388171606124L291.13443853125,183.8379626268631L292.1044240625,179.8239493026373L293.62438625,182.59047122054207L295.624568375,182.99824577992635L296.024017375,192.04921963852337L296.3485696875,185.30082857453465L296.77371853125,187.68940210644877L297.7657325,196.41660788424434L298.95012815625,189.36690548580108L299.33489153125,180.63585095639337L299.695423625,185.51410106782907L301.043564,183.55233173340372L301.50689546875003,179.55813296546373L302.22942821875,188.84631204423866L304.83759521875,188.82241605748885L305.83768628125,195.3035344166155L307.361319875,194.8340827822263L307.89367378125,196.5648077037746L309.11845490625,193.84054694218207L309.46209853125004,184.80092863018803L311.83970121875,187.22394464357512L312.2442901875,185.14421841923908L312.99252278125,189.71131650575586L314.01978225,183.12441966145371L314.4295111875,174.82425727024037L314.977285,171.432354058003L316.64336915625,176.94556620926562L317.18233159375,179.91059446247135L318.8880669375,184.83879798562214L319.321292875,180.75589428267327L320.2332701875,183.45800399248995L320.68485315624997,183.8059036846685L321.72312684375,181.96203662140684L323.4053651875,180.2453976791367L323.932579125,182.98272773243602L324.37094503125,189.86669876943498L325.3937988125,189.77239618129306L325.86961306250004,194.02011648886585L327.2764959375,193.6392271451356L327.618671,182.44583474029096L328.03647703125,185.0313298272034L328.41242903125,180.93515673543985L329.1621301875,181.45713226529332L329.6878755625,184.11084650322607L330.06162471875,180.07818909054947L330.44345096875,184.99480426346489L334.39388409375,191.73992582290927L334.799941625,198.01963225549713L335.7603815,206.03379107294236L337.0248138125,206.99171098486786L340.05812965625,197.0447684648695L340.57653221875,192.11967277419382L342.54367168749997,191.8699150380298L342.98497471875,189.4696380842905L343.32568121875,178.56397114430183L344.59451921875,177.08180562809554L345.54027346875,169.1986535763347L347.50080440625,168.3626957427294L352.0482081875,167.58441909781843L352.41241168749997,173.36309859491703L352.87868028124996,178.74304861848546L353.40883134374997,183.75178158057258L354.35238275,175.4084035077836L354.8913451875,171.97622169579222L356.17854021874996,177.45186532475836L357.39671281249997,180.38193807503487L360.770000875,185.27758661534625L361.1856040625,183.33218230001776L361.7201608125,183.68876186446633L362.1959750625,181.8529866096928L363.26362,180.1438799389173L363.78275684375,178.5527017076635L364.2637110625,174.90356418925063L365.08684034375,173.67396791493314L365.5971658125,174.6969643962305L366.00909759374997,182.1526256674376L367.06793115625,182.59059459562172L368.0452595,180.83059319724995L368.4050573125,172.68878066762596L370.22240340625,175.94750539739812L373.40918403125,170.31037656538166L374.7184075,169.3977104377291L375.2514956875,168.54801829215648L376.21634125,176.4279561124338L377.100415875,181.59642780166044L378.49187884375,177.73727382386124L384.36980025,176.31215177204265L385.89343384374996,174.98536316284762L386.36337384374997,182.4211238190306L386.91114765624997,185.00831650694045L387.90536446875007,189.58474304907452L388.80999896875,193.84539610902223L389.22633643750004,191.30881359440508L390.3130726875,188.94725529769184L392.73987221875,195.41964508709108L393.231106375,194.9421895482713L396.27910784375,205.3364290331017L397.1125170625,215.0134659183771L397.7439989375,215.35178678591114L398.26019865625,211.33126332174638L398.82339237499997,211.92365617668014L399.27056965625,212.47517392140782L399.65313018750004,219.4918871686055L399.98355675,210.85019666987134L400.521050625,209.308033052449L401.12756693750003,210.04002879268842L401.46166490625,217.2247669965974L402.31489971875004,217.41050807841972L403.34362775,226.25443322436922L403.67478859375,217.14612713689934L404.20861106250004,210.83404423864954L405.0750629375,209.29299515758794L407.15601599999997,205.69052842948145L408.42265115624997,202.33663191390616L409.24431187499994,205.7174043624682L411.22319984374997,206.69715347511578L411.7335253125,207.60929989717093L412.13150575,208.45850821452697L413.31002715625,209.24912115661832L414.37179784375,209.98518180452035L415.61053031250003,206.33495422441766L416.40135121875,200.76884233240634L416.73765203125,189.0835421127158L418.16068909374997,186.87552768956567L419.02493812499995,184.8198662639276L419.58666328124997,187.24154550823178L420.15426268749997,185.1606288549517L420.55518025000003,183.22329545250835L420.94141218749996,177.08413803250028L421.527368625,175.7040825011871L422.332140875,183.09025084383688L422.643476125,176.96027350838995L424.91607659374995,175.58876463064064L425.39189084375005,172.1441398578676L426.65779171875,175.44044421948723L427.23346821875,174.1738035641167L427.64760284375,177.33006112799626L429.26742728125004,178.10078691239323L430.180138875,180.98608262320602L430.87550321875,188.00779293980443L431.84989443750004,192.37725523715415L432.90652515625,194.27747462991877L434.06448668749994,196.04657888403256L434.5931691875,193.3581149359718L435.07632625,193.0229050048021L436.36939553124995,194.8785745624995L438.44447434375,192.2707029137243L439.05686490625,189.84277440924257L440.20528078124994,191.9178729777379L442.03070396875006,189.5142897393267L443.89944975,195.94755375465726L446.37324328125004,201.9369225519515L449.74946846875,198.84202489280452L450.328816375,198.12842517454365L451.10348309374996,206.13506384436695L451.6637396875,207.08599443986492L452.079342875,199.30031081772657L452.60068256249997,196.38733936928745L452.96855746874996,187.17211294686902L453.58094803125,185.09598715228967L454.62950165624994,183.16311403770217L455.20811528124995,181.36360916816508L457.31697103125,190.5270201399974L457.65914609375,186.05165574832074L458.53000365625,194.89159150539552L459.46988365625,192.2828216905042L460.76515578125,194.18955699455282L461.7322041875,195.9647275625297L462.1742415,201.95291136260272L462.54872493749997,196.68916047703843L464.13330387499997,198.29185840456063L464.68328053125,195.4484701739227L465.05629540625006,203.64002573386188L465.73770840624996,202.59536395799506L466.21939690625,201.62278384469383L467.11815715625,196.38181175840842L467.57928578125,195.83796674698146L468.03747728125,193.16389704099683L469.008931375,195.00983814545268L469.53541103125,196.7284093136632L470.02737946875,196.16064907094457L470.67428125000004,193.46431428471385L471.08768159375,190.95402659877777L471.62517546874994,190.78469876344386L472.90576196875,188.45930454853274L473.54385237500003,190.62986253488688L474.80975324999997,201.32165202091025L476.522097125,200.43695803139573L477.9656940625,201.78105792733083L478.53329346875,200.86466493028064L479.13834121875,202.17925305017727L480.1009839375,201.23538458965757L481.0731723125,200.35664305292138L481.41094168750004,195.20303468199788L482.33246465625,192.57277528881082L482.8471958125,190.12400379377087L483.49042618749996,187.84419753190363L485.42085159375,190.05719790229L487.38578821875,189.94975124702802L487.87481953125,187.68196841090517L488.75595703125003,176.8996625902078L489.16862309375,182.03558587163644L489.6657315,186.8171304466261L490.21570815625,191.2687484459238L490.75026490625,191.07770480315045L491.25838753125,190.89984317172912L492.91639459375,192.9020039929215L493.492805375,194.76601571744607L496.24415721875,196.5014106329736L497.09151778125005,198.1170632993256L497.6238716875,199.62123593169565L498.062971875,196.68612065236593L498.55567459375,196.12127832734498L499.24883609375,184.75666012261468L500.80991803125,182.84720057413182L501.44139990625,181.06949373449726L502.93933365625,179.41444866680007L503.48123321875005,182.2091017088174L503.87554225,186.97867369095113L505.02909809375,184.91589520625854L505.9594324375,193.83419843709498L507.16585653125003,195.63388874494825L507.74814156250005,192.97390042152915L508.96043990625003,190.49745129242837L510.35557428125003,194.6951271532749L511.01349028125003,196.43541337970828L511.4342334375,202.3911198565381L512.37044203125,203.6003825864426L512.7346455312501,193.88745618793607L513.22808253125,184.84472171093213L514.62174834375,189.43243591289496L515.2069705,189.368097834905L515.750338625,187.14044908428934L518.27920325,191.56975809748675L520.33739359375,193.52569478876566L520.73096834375,191.01117184833424L521.4674524375,184.3346509907829L522.558594375,191.1253100724343L523.48378875,188.77641367743138L523.991911375,188.75734113368856L524.47286559375,186.57183459546007L524.96336546875,180.20162800836243L525.51701353125,178.60646567578289L526.047898875,181.45686954415808L527.1662092187499,177.60734554560588L527.9592329687499,169.68793870294894L528.79778215625,179.65697093245737L530.3405070625,184.60263993812327L531.572631,187.0393077823953L532.1703359375,189.30784554541222L532.50737103125,182.7488542027729L534.5508757499999,176.64243326277645L535.5083785,173.1251053676422L536.04220096875,174.18597309727562L536.9960323125,183.8446409535701L538.44036353125,190.66911072777802L539.3692293125,186.1839420875587L539.90598890625,184.1760000835161L540.3487605,182.30660607775252L541.779140375,184.90170025838884L543.10158090625,180.81448294055824L543.6383405,181.3447836176599L544.64063440625,177.50299354803994L545.66422246875,173.9262869932239L546.68340484375,170.59637319069034L549.22548653125,173.99947344053376L550.34159403125,183.6710097731397L550.8710108125,188.33971009879428L551.49588415625,190.51852010197803L551.95701278125,196.88249221494303L553.43291809375,194.13635025211136L556.4207085,202.4184420847173L557.41272246875,197.12256958087085L557.99280465625,194.35986227979026L558.4869759375,193.95553178248468L558.91065621875,195.74685008949353L559.28367109375,190.91131743331778L561.62602828125,188.57718653041854L562.72451303125,188.57186065981966L563.11955634375,190.73465227429236L564.54553053125,190.5804612673662L565.09036721875,188.26915943991767L565.4993618750001,181.78183743856277L566.04933853125,180.0776406553018L566.65144915625,178.49103345008587L567.6434631249999,183.51715214203028L567.9915124375001,179.52546864422996L568.4746695,182.31246130777825L568.9078954375,189.24265147754195L569.849244,191.35915852559165L571.2957780625,182.4908765873254L572.260623625,185.0732561028001L572.601330125,178.8064514317066L573.39655671875,172.9720562829186L574.0977953125,171.87573439939717L575.4951325312501,170.85505872583872L576.795544625,169.90480967375584L577.19793075,162.51687780626645L580.290723375,162.14196323763403L580.6351012812501,159.62516777423724L581.0294103125001,155.11428119781476L581.5514842812499,153.0823957951655L582.2101345625,153.35846048529908L582.840147875,153.61547671181344L583.4026073125,156.02250881869838L584.4210554062499,153.92795571020812L584.7096279374999,145.47467676620366L585.1120140625,152.7789240693357L586.4836514375,155.24367830855155L587.06740503125,159.70611450526155L587.950745375,170.36389260439861L588.48163071875,175.95078401469522L589.577912625,176.81667991768123L592.68906228125,177.62282900336123L593.10760259375,171.87010380212928L593.65757925,173.01756663978236L594.56441659375,167.58260454163732L596.3846998125,160.35490482826432L598.260054125,160.12916639511408L599.7976390625,155.58350391385116L601.76918421875,153.51924214379545L603.1679899999999,158.10066443587357L603.6364614375,166.70146858979834L604.2180121875,172.54106725710227L605.1402694375,180.14548361636224L605.62269221875,180.72194524683323L606.32025940625,179.09088102480175L607.9533009062501,171.0691102340904L608.3850582812499,165.76859162793815L609.614979375,169.50480880561042L610.5357680625,177.31872699802335L611.05049921875,178.09023483515972L611.9140139687499,176.6407586315337L612.722457625,170.95579628595786L613.41194771875,169.9985963422268L614.39001034375,173.44294319461312L615.5252091562501,172.31413011418482L616.0839971875,171.26320513630603L616.74852171875,174.62029398190091L617.2940926875,173.41024369714975L618.7185983125,183.1224368820465L619.1892725937499,181.32573873718525L619.5380561874999,188.32401276431946L620.60056115625,179.6651558835814L621.04847271875,184.6102601276143L624.805789875,189.21415217880892L626.31767496875,184.82937567847108L626.87572871875,180.7471487566566L627.78330034375,185.61759549244732L628.77164290625,181.4809814034684L629.12703503125,186.3007936866291L630.5698976875,186.45253892225168L630.9282269375,182.25831373661632L631.948877875,182.6889900887898L632.6464450625,180.9221997726633L633.0862795312499,174.94181798834956L633.620102,173.70958254715345L635.3720970625,172.56237135139983L639.10298009375,182.33306772815325L639.426798125,178.42308605491067L640.08985409375,176.95064311712187L641.05176253125,177.74754874204044L642.12381315625,184.99271787883964L642.8588286875,187.4024703451997L643.41321103125,189.64594989138092L644.38539940625,191.73462934887564L645.61605478125,189.34368992380323L646.1513458125,191.4532253190608L646.7945761875001,193.4172027720456L648.1456536874999,199.58116578077446L648.5847538749999,207.487565341901L649.11563921875,212.68067333330984L651.42421946875,211.01220687331144L652.5513411875,215.96211459905297L652.8891105625,209.7317286917183L654.38924715625,203.93123941198976L655.6265110625,205.03423389256247L658.55409040625,210.39662175397564L659.0086104999999,206.7180048529513L660.12398371875,201.1254625180977L661.29002234375,202.42205560434894L663.599336875,194.95818376764888L664.6478905,192.34481908768112L665.71333259375,194.2472765706311L666.98951340625,191.68296448725758L667.831734,200.13433993763678L668.9170016874999,203.66707048193985L669.37886459375,209.12379261868597L669.9596810625001,212.03625092799666L670.64770259375,212.57999961396487L671.2498132187501,213.0862296406013L673.39464875,204.88652979539984L674.57317015625,203.75585923951724L675.22521190625,198.36770495199056L678.6491653749999,195.5190833103032L679.6162137812499,184.1960165618923L680.5480166875001,186.66074141912173L681.0737620625,186.78765026120232L681.61199021875,180.40255239317938L686.767378875,183.12902627805002L687.854115125,181.33187346486454L689.064210625,192.66522419578888L690.60106128125,198.88107372627942L691.108449625,202.50027963916617L692.2612711875,201.53426034406368L692.91404721875,204.9703963803233L693.40601565625,212.50493903008098L693.8399758749999,219.5195982370054L694.98839175,217.379245958652L695.402526375,211.05107798750504L696.58839059375,211.6628036063672L697.2551179687499,207.89682015752786L697.672924,202.22293956665843L699.3588337499999,199.108306736559L699.97195859375,198.37633357173644L701.1020174375001,195.52711655528663L705.37333146875,199.37774551297184L705.9218395624999,198.62718107257678L706.4292279062499,197.92840557856897L706.8147255624999,192.94234559364773L708.4272071875,192.63582374768603L708.7598365937499,198.8537019090957L709.324498875,195.9715464773681L710.6594221875,188.9527597704297L711.27548415625,188.92151934627006L711.9077003125,191.06018451137743L713.730186375,193.05128178009235L719.78286671875,188.40174333726603L721.7558804375,190.57627304699466L723.0614325,188.26526020675203L723.5923178437499,196.9524572524861L724.5167779375,202.87248770206457L724.88245,197.5452860506221L726.5757025624999,203.42441131312918L728.18965275,211.0656269325233L728.759455,216.01184867417916L729.320445875,214.1135311156608L729.8748282187499,214.51394746868021L730.40938496875,212.71898509334127L730.87932496875,204.54462512190074L731.5438495000001,201.2697959884896L732.0233351562499,198.2209300652838L733.0902458125,195.38243589077925L733.8854724062501,203.57854781431547L734.8290238124999,202.53812801512768L736.0361821874999,199.40174718208388L737.30722303125,196.48177662652012L738.5231927812499,191.59553403929021L739.224431375,187.0464421905792L739.8639903437501,184.97898767942922L740.4044213437501,185.2219375295486L741.104191375,183.28037384000976L741.7063019999999,181.4727780450491L746.32933675,184.1254063599407L746.89253046875,184.42725332110479L747.9711896250001,182.54052284194856L748.5167605937501,178.6162267658541L750.36274365625,177.13045711901015L750.8363550624999,180.0827055777985L751.4972081875001,182.83124889293038L752.55383890625,181.0546427193182L754.644337625,179.40062237168524L756.201013875,173.52522942803895L757.2943586562501,172.39073859750425L758.4060604687501,171.33452763427647L759.0309338125,174.6866952275114L759.9590653125,175.6398132568131L760.3930255312499,180.86266614209302L762.3234509375,181.3896421782886L762.950527125,181.88025686798667L763.4197328437499,180.16926914409558L764.61220559375,182.911839573153L765.3545639375001,181.12967264260544L765.95006603125,181.63822523026565L766.8671833125001,177.77618768937734L767.5515334375,174.1806307388103L768.0141306250001,168.6654172178324L768.4326709375,161.36300342980198L768.8335885,169.73870619314562L769.253597375,168.86548546581858L772.1819110000001,170.22026696867707L772.6386339375,169.31381854783837L773.8193581875,172.80541506803752L776.1279384375001,173.88834142834293L776.6250468437499,177.0642958697873L778.06717521875,177.85335945477198L779.95354375,185.0912276523927L781.1526250312501,189.66193294437758L782.4288058437501,187.41400957121553L783.5427105,191.82444291080165L784.11177846875,191.59505634995637L784.6896578125001,193.54924746180936L785.1669406249999,199.7040993869445L786.33297925,194.59551652924534L787.99465771875,192.00717588872743L788.5710685,189.59743075240522L789.43091184375,178.68295803048926L789.8824948125,183.69583392638552L790.38547746875,190.53057138546492L791.4377024999999,192.55821195986783L793.66184040625,183.60719533463694L794.7346253125,179.60929885654699L795.21851665625,182.39050723544523L796.48294896875,176.30881223619957L796.97344884375,168.4790041919018L798.4148429375,165.52495290266057L798.7812492812501,173.61348115237698L801.9680299062501,172.47290095286297L802.4768868125,169.24327078711542L803.08707453125,168.40423510280445L803.738382,167.62309288071094L804.540217125,175.5668494719419L805.49478275,172.1237368583779L806.0572421875,168.9181990151498L806.5697705000001,163.7660932831045L807.1997838125,163.3049828465703L808.35040253125,167.21118903015693L808.96279309375,162.1768669870761L810.43282415625,155.32216316496786L812.01520025,151.10818390658508L813.03805403125,155.85596921703072L814.10569896875,151.6051573410556L814.7709577812501,154.15090148452276L815.275409,154.3532392820907L815.8569597500001,152.3738657716264L816.26815725,146.19556903338417L818.5436948437499,151.2823247700807L820.6187736562499,156.0180943609451L821.6401588750001,158.2593458500399L822.1100988750001,151.67495098638716L823.77324590625,160.71912936832646L824.2240945937499,158.3005094419119L824.653649125,151.71327429042L826.3645244374999,154.25155836438103L828.0188600937499,152.27920083723873L828.5512140000001,148.27518597946926L829.2480469062499,146.71519814688588L830.2540122187501,140.92734947475077L830.7320293125,148.54536236099298L831.55809571875,153.46998235808445L833.3600219062499,160.2225535753766L834.39242134375,157.83819737867563L834.9585521875,159.953861759547L836.2538243125,161.92354529813827L836.913208875,165.9250706725667L837.3640575625,173.98599079615963L838.6439097812499,172.81970743122457L839.2210548437499,178.23714761847012L841.1470745624999,176.77753443279565L843.99535153125,184.08963455693274L851.3095270625,184.3939497725044L851.6869476249999,173.8385172382016L852.50713978125,172.68240954876572L852.9425685625,167.27057328990085L855.2570230625,170.90315373289772L857.07069775,172.11733612532777L857.5678061562501,168.91223993268017L858.589191375,163.7605453773252L859.4218663125,163.2998177462898L859.8477494374999,162.87088032179577L860.404334625,166.8070395795919L861.51236503125,163.9683538486L862.77532878125,167.8287874330466L863.312088375,175.7583511001664L863.9927670937499,174.46977487425494L865.1323715937499,175.43786040793134L865.5531147500001,172.00364803978405L866.1309940937499,166.63864632503896L867.49822578125,165.97932972861128L868.6429702500001,161.03000597733708L872.16384884375,169.42868556490083L873.1360372187501,177.24785626092265L875.7096929999999,175.856504178919L876.2839009375,174.56115539057362L881.7587019375001,184.193935668624L882.28077590625,182.32330410748895L884.3940373437499,180.5817461240722L886.74961159375,176.79260564151124L888.304085,186.27141585224695L890.4085350624999,184.25743815844191L890.885817875,195.3889249255094L891.4181717812501,194.9135891056493L893.35006575,194.47105145735947L893.84129990625,189.72354890680168L895.3664020625,178.80037403223236L896.483978125,175.13414822400833L897.1345513125,169.55314199655177L897.8181671562501,168.6927251987897L902.00650740625,167.8916771600732L902.55721834375,162.81040143602814L903.15786040625,166.7507337369422L903.803293625,170.4191831090932L905.3842011562499,173.83450947456578L906.094251125,177.01417832082072L906.51205715625,173.47120001668412L907.0546909999999,176.6759372155329L907.63110178125,183.9950475476611L908.41531415625,186.4736392668725L909.1026014062501,190.9489581574583L909.71205484375,192.94773004459367L910.2385345,186.1375866715167L912.203471125,192.80384319118207L913.38125825,188.17137801099048L916.274326375,179.52305292823218L916.8734998749999,182.31021227618413L917.34270559375,180.56955762912744L918.3684965,191.95550815271764L923.10681340625,198.22032809018012L923.9703281562499,193.21412545195767L926.8648648437501,190.72110079577263L927.45375840625,190.5678448408643L929.4069465312499,181.75416354684467L930.5472853125,188.72287626211238L931.02970809375,184.37199780002663L932.39840834375,184.6568299518248L932.9498535624999,187.08975868514887L933.95214746875,180.68381533587362L934.60418921875,181.22313207769832L938.602350625,181.72523596433714L939.2411753125001,184.3604446827979L940.0503532500001,186.81382399968481L942.9698555,191.26567014370656L943.75333359375,193.24258890379082L948.6473181250001,186.41210026942926L949.27072290625,186.55616535083863L951.0175780000001,182.35478994163077L951.51028071875,176.27555943565827L952.2673246874999,172.78354583459785L953.4877001250001,176.0357311720106L954.5568136249999,181.23126572114185L955.91743678125,183.90055838638304L957.86768778125,188.55341985772262L958.62106034375,188.54973388753976L959.9479065625001,186.37855224929953L960.65355084375,184.35718214409783L961.7358814062501,182.47528657615507L962.9944394687501,180.7232418024004L963.53927615625,179.09208811803478L964.6010468437499,177.57348403789038L965.0254614062501,169.65641363927594L967.50145778125,160.1178710981659L968.16451375,162.07623799239246L969.20058459375,155.2284775709174L969.80563234375,159.6919626185241L970.3188949375,170.3507171978459L971.05537903125,171.60301771119452L972.11568115625,170.60115948912213L973.01297284375,169.6684294843727L973.34486796875,164.464557849951L974.071072125,163.95525335830436L977.2079216249999,165.64884087658137L978.64637859375,165.05782085609727L979.228663625,162.33983121702653L979.780843125,166.3126328630517L981.196537375,167.84356119550117L982.2186568750001,169.26885547301154L983.4603264687499,177.09905444537372L984.71594740625,171.38246968864297L985.26665834375,166.0603292801266L986.1147531875001,167.60866655979785L987.2014894375001,162.54691856717184L987.928427875,160.00218118603698L988.3146598125,153.2975306842004L988.9813871875,155.7265010669906L989.52695815625,157.98787249336823L990.0703262812499,151.42220929132583L991.08583725,149.64507685022437L991.85316115625,150.15831654755888L993.8540775625,154.97164270577733L994.3724801249999,148.6140993590787L995.638381,149.19847650330223L996.13402084375,160.5812816245744L997.8346162187499,158.17217319247877L998.52190346875,153.76154324219772L999.1056570625,156.15849675848608L999.70556484375,162.72556048215054L1000.58817090625,166.67174680888215L1001.950262625,168.17789627906927L1004.01873290625,167.41237143581353L1005.0474609375,158.02866780674233L1005.7406224375,157.96343972807713L1006.30234759375,157.90271238683982L1008.35833509375,151.34292523214788L1008.72107003125,143.0680133911297L1009.7586094375001,139.6995704671417L1011.959984625,140.89905010490895L1012.4541559062501,137.68026564767027L1013.31473353125,141.186827317981L1013.9506210937501,142.2836862330403L1015.16218515625,149.8081118829605L1017.51996225,148.14235216303626L1018.033959125,153.09477986378675L1019.1985291875001,159.87324005318544L1019.9328104374999,164.01623648951565L1020.5731036875,159.20236617173907L1020.9424471562501,150.3851529058891L1022.4792978125,155.18282735538273L1024.3891633437502,157.48171226786133L1025.02798803125,150.9509741213789L1025.37970875,142.7031069070038L1026.10591290625,141.52759253042052L1026.84313128125,144.76868864582147L1029.5328035,145.6183991292598L1030.2773646875,155.08047958934085L1032.80696359375,168.22517649767636L1033.65726128125,169.62413931933665L1035.30645696875,166.59107370630244L1035.96510725,161.59953962056758L1036.77648803125,161.28792138674842L1040.08369078125,160.9978048110628L1042.11324415625,165.06320627909946L1043.5237984374999,160.17709504584158L1045.97556353125,164.2991254876785L1047.0013544375,163.80123582902866L1047.76427265625,169.84095055682573L1048.474322625,177.63167496840472L1049.0823075,184.8848393955848L1050.07138434375,180.79878547728944L1050.8166798125,174.82691927935647L1051.6214520624999,173.6026118490809L1053.79859596875,168.1272816314943L1054.7465530625,163.02974919892122L1056.16591871875,164.78719650419563L1056.9435225625,164.25562994540613L1057.7027693750001,163.76074147917308L1060.1398488437499,167.63550031711017L1061.96453775,171.24290079522956L1062.58500540625,178.9368906403587L1063.47054859375,181.76449518617397L1064.11084184375,173.55824501832797L1069.8844953125,174.58922611206336L1070.6554906249999,179.88456951033098L1073.30551165625,173.97578421411814L1077.3330443125,177.14570510334397L1080.5969244687499,175.76140145121323L1082.19031478125,178.80811475107953L1083.9048615,181.64460483325504L1085.15534246875,190.78862709976042L1085.8330840625,194.96621182987695L1087.1577274375,185.84904321361543L1090.592695125,188.199709231876L1091.67062,186.05267929487655L1092.41591546875,190.55704442353007L1093.88888365625,179.5763583583065L1094.69512446875,178.02433963158333L1095.524128,176.57941019700408L1098.8621705624998,173.0664308934108L1100.91008096875,171.96359716176548L1103.325132,175.27235895760364L1104.9163194687499,187.02381618952896L1105.6175580625,184.9579228724515L1107.10154046875,180.86682619425235L1110.64665034375,183.5612651868489L1112.1886409687502,181.73428788895635L1112.84361984375,175.69787202461836L1115.4246184375,172.24571885491972L1117.8866634687502,173.36726425393024L1120.78266871875,172.24367302040903L1122.50529253125,184.20410958200085L1123.277022125,184.50052602084278L1125.4578374375,180.44098972540462L1128.6666465,174.4938114343517L1129.5110699375,175.4602384453814L1130.13006903125,185.0309819926501L1130.89298725,191.77359423515722L1133.327863875,198.0509662329314L1134.49757390625,203.89519956285912L1134.975591,198.49743079302186L1136.09830703125,186.96885806830332L1137.3370395,182.73900686159044L1138.0874749375,189.6397653881407L1139.85488990625,187.393371576359L1140.5943111249999,180.9664789375902L1143.00055078125,179.31854189089648L1144.0432301562498,175.61656250042464L1145.6659917187499,174.3377696878953L1147.09490303125,170.97946357943056L1147.99660040625,167.85288059244985L1148.43423203125,175.78078183157078L1154.39512721875,180.9939078851924L1155.2637819375,177.17632824111413L1156.4635974999999,173.62216159247725L1157.36309203125,168.14548244259632L1163.18006809375,165.21444415405716L1164.0722198125,160.31789750742723L1164.675799,166.59796257941477L1165.6979185,170.27695316143513L1166.3697858437502,173.70209339329614L1168.8861676875,176.89089894915864L1170.8782727187502,173.35642692166672L1173.50699959375,174.40133346407174L1178.35178728125,179.7096414550508L1179.56628846875,182.48392619465227L1180.33067525,178.56353528722127L1181.220624125,179.249151352403L1182.1377414062501,186.39070990908718L1184.11589509375,190.87175092536015L1185.23787684375,192.87585011151032L1188.43053171875,186.0706664538161L1191.75682578125,190.57379046850278L1192.54544384375,199.10169892617608L1195.40914071875,198.37018170026994L1196.08467946875,208.5278891629513L1196.7080842500002,204.97821481070767L1198.05108465625,201.67346798876883L1198.9043194687501,207.2677486975438L1201.01611234375,199.4695240374133L1202.07200878125,198.71262687883177L1203.15801075,202.3434556241924L1204.2131729062498,210.05925718612306L1205.2433695,210.7394184402806L1209.0968775000001,217.8758985679012L1210.001512,215.848961566716L1211.26814715625,207.45863321861265L1213.998939125,199.64723752652836L1215.82215946875,198.87807813719792L1216.41252159375,191.65874074573128L1217.25988215625,195.7762876342758L1219.2402386875,197.44197378751076L1220.35708046875,190.32172759617256L1221.2051753125,192.36377839203664L1224.1922314375,194.2649276829861L1225.48089503125,191.69939767286007L1230.03343878125,189.31088923343273L1231.7641396875001,191.42268787632588L1232.72531384375,197.7242724128594L1234.23499609375,203.59104761637207L1238.691349,206.8852653308424L1241.8832695937501,207.78443202301426L1243.352566375,204.2860562134263L1244.50612221875,196.69356833469988L1246.1472408125,185.28946211960562L1248.245816625,176.8399892333528L1248.82957021875,181.98002997625147L1250.1204366562501,178.09440790789012L1254.9879870625,176.6446437622457L1256.02112078125,175.29491334265074L1258.20634178125,167.53506432200786L1261.3821081875,171.14939488378928L1266.808446625,170.17883663680786L1271.7398795,162.77199690886812L1272.70105365625,158.04397912215617L1273.63359084375,149.30669456272742L1275.0573621875,149.84328263789922L1287.28534784375,143.83959613588422L1290.1571218125,151.2566640025082L1292.60007553125,151.65870418633511L1295.4175126875,152.033003597478L1296.95730046875,161.052476349252L1297.5865795,156.44310548115362L1299.36868009375,154.31953120295404L1300.53471871875,150.1747335499502L1301.57152384375,146.31592693500366L1303.049632,149.2266279764884L1304.41466084375,149.76874064611067L1305.49111715625,141.60244754152907L1306.612364625,140.50287866116358L1308.48111040625,139.4791800335433L1310.55618921875,140.6938666112288L1311.6708281562499,143.992489815054L1313.08358528125,144.89575801781527L1316.9466389375,145.736700714586L1319.4130896562501,148.68736836527958" style="fill: none;" fill="none"></path></g></g></g></g><g opacity="0.2"><g><g><g><path stroke="rgb(0, 119, 187)" stroke-width="2px" d="M149.69718415625,219.91666666666666L150.11866159375,94.25L151.858173875,251.33333333333334L152.35675084375,219.91666666666666L153.34729625,125.66666666666669L153.78199075,251.33333333333334L154.25193075,125.66666666666669L155.70947903125,125.66666666666669L156.18235615625,188.5L156.68019884375002,251.33333333333334L158.642932625,345.5833333333333L162.99501759375002,251.33333333333334L163.38124953125,125.66666666666669L164.33140946875,188.5L166.49019634375,219.91666666666666L167.38308234375,282.75L168.39492190625,157.08333333333331L168.74076837500002,345.5833333333333L169.68285121875,188.5L170.6983621875,157.08333333333331L171.39299225000002,219.91666666666666L172.62878759375,31.416666666666686L173.18390421875,157.08333333333331L173.70671246875,157.08333333333331L174.25448628125,188.5L174.57169578125,94.25L176.26347978125,188.5L176.76132246875,251.33333333333334L177.52203784375,219.91666666666666L178.30625021875,314.1666666666667L178.83933840625,251.33333333333334L179.36214665625,188.5L179.8768778125,125.66666666666669L181.44897396875,157.08333333333331L182.03713324999998,157.08333333333331L182.43584796875,219.91666666666666L182.98582462500002,219.91666666666666L183.62097790624998,282.75L185.08954040625,188.5L187.43483471875,314.1666666666667L188.00316840625,251.33333333333334L188.5883905625,251.33333333333334L189.00546231250001,157.08333333333331L189.50917925,125.66666666666669L190.04740740625002,157.08333333333331L192.10266062500003,314.1666666666667L195.85116640625,157.08333333333331L197.16112415625,345.5833333333333L197.56791596875,314.1666666666667L200.5953575625,125.66666666666669L202.11458546875002,219.91666666666666L203.20719596875,188.5L203.75423550000002,219.91666666666666L204.1375303125,314.1666666666667L206.02022743749998,188.5L206.39397659375,62.833333333333314L206.7515715625,62.833333333333314L208.37286456249998,188.5L208.77892209375,94.25L210.01251459375,188.5L211.93926859374997,219.91666666666666L213.00985065625,157.08333333333331L213.94532496875,188.5L214.49456734375002,188.5L214.7846084375,282.75L215.17451178125,314.1666666666667L217.06014603125,188.5L217.94862634375,188.5L219.6455503125,219.91666666666666L220.1213645625,219.91666666666666L220.80718324999998,157.08333333333331L221.91080796875002,157.08333333333331L222.2625286875,251.33333333333334L222.81837959375002,188.5L224.13127446874998,157.08333333333331L225.1056656875,157.08333333333331L225.63655103124998,157.08333333333331L226.80258965625,251.33333333333334L227.3231950625,188.5L228.804974625,219.91666666666666L231.08785503125,188.5L231.66059440625003,219.91666666666666L232.10850596875002,94.25L233.19671078125,219.91666666666666L234.33190959375,94.25L235.24388690625003,188.5L235.77550653125002,188.5L236.74622634375,62.833333333333314L237.62442671875,251.33333333333334L238.09436671875002,251.33333333333334L241.10051415625,282.75L243.0779335625,219.91666666666666L244.96283353125,251.33333333333334L245.411479375,251.33333333333334L245.90711921875,282.75L247.8096419375,188.5L249.0344230625,219.91666666666666L250.3737520625,188.5L250.86204909375,125.66666666666669L252.15585265625,282.75L252.6206526875,188.5L253.61854090625002,219.91666666666666L254.04589259374998,157.08333333333331L254.64212896875,157.08333333333331L255.52840643749997,188.5L256.9999060625,282.75L257.54253990625,219.91666666666666L258.09545368749997,157.08333333333331L259.48985378125,219.91666666666666L260.957682,219.91666666666666L263.25671659375,94.25L264.04974034375,282.75L264.95290628125,157.08333333333331L265.2943470625,62.833333333333314L267.651389875,94.25L268.94445915625,219.91666666666666L269.46653312499996,251.33333333333334L270.01210409375,219.91666666666666L270.40935025,219.91666666666666L271.1216030625,282.75L272.7649245,219.91666666666666L273.67543324999997,314.1666666666667L274.336286375,345.5833333333333L275.23724946875,125.66666666666669L277.62219496875,188.5L278.5319694375,157.08333333333331L280.4851575625,251.33333333333334L282.7232468125,157.08333333333331L283.47735365625,251.33333333333334L283.89295684374997,125.66666666666669L286.261013875,219.91666666666666L286.6046575,62.833333333333314L287.00777790625,219.91666666666666L288.06220578125,157.08333333333331L288.46312334375,157.08333333333331L288.74508734375,31.416666666666686L290.58813328125,188.5L291.13443853125,219.91666666666666L292.1044240625,125.66666666666669L293.62438625,219.91666666666666L295.624568375,188.5L296.024017375,314.1666666666667L296.3485696875,94.25L296.77371853125,219.91666666666666L297.7657325,314.1666666666667L298.95012815625,94.25L299.33489153125,62.833333333333314L299.695423625,251.33333333333334L301.043564,157.08333333333331L301.50689546875003,125.66666666666669L302.22942821875,314.1666666666667L304.83759521875,188.5L305.83768628125,282.75L307.361319875,188.5L307.89367378125,219.91666666666666L309.11845490625,157.08333333333331L309.46209853125004,62.833333333333314L311.83970121875,219.91666666666666L312.2442901875,157.08333333333331L312.99252278125,251.33333333333334L314.01978225,94.25L314.4295111875,62.833333333333314L314.977285,125.66666666666669L316.64336915625,251.33333333333334L317.18233159375,219.91666666666666L318.8880669375,251.33333333333334L319.321292875,125.66666666666669L320.2332701875,219.91666666666666L320.68485315624997,188.5L321.72312684375,157.08333333333331L323.4053651875,157.08333333333331L323.932579125,219.91666666666666L324.37094503125,282.75L325.3937988125,188.5L325.86961306250004,251.33333333333334L327.2764959375,188.5L327.618671,31.416666666666686L328.03647703125,219.91666666666666L328.41242903125,125.66666666666669L329.1621301875,188.5L329.6878755625,219.91666666666666L330.06162471875,125.66666666666669L330.44345096875,251.33333333333334L334.39388409375,282.75L334.799941625,282.75L335.7603815,314.1666666666667L337.0248138125,219.91666666666666L340.05812965625,62.833333333333314L340.57653221875,125.66666666666669L342.54367168749997,188.5L342.98497471875,157.08333333333331L343.32568121875,31.416666666666686L344.59451921875,157.08333333333331L345.54027346875,62.833333333333314L347.50080440625,157.08333333333331L352.0482081875,157.08333333333331L352.41241168749997,251.33333333333334L352.87868028124996,251.33333333333334L353.40883134374997,251.33333333333334L354.35238275,62.833333333333314L354.8913451875,125.66666666666669L356.17854021874996,251.33333333333334L357.39671281249997,219.91666666666666L360.770000875,251.33333333333334L361.1856040625,157.08333333333331L361.7201608125,188.5L362.1959750625,157.08333333333331L363.26362,157.08333333333331L363.78275684375,157.08333333333331L364.2637110625,125.66666666666669L365.08684034375,157.08333333333331L365.5971658125,188.5L366.00909759374997,282.75L367.06793115625,188.5L368.0452595,157.08333333333331L368.4050573125,62.833333333333314L370.22240340625,219.91666666666666L373.40918403125,94.25L374.7184075,157.08333333333331L375.2514956875,157.08333333333331L376.21634125,282.75L377.100415875,251.33333333333334L378.49187884375,125.66666666666669L384.36980025,157.08333333333331L385.89343384374996,157.08333333333331L386.36337384374997,282.75L386.91114765624997,219.91666666666666L387.90536446875007,251.33333333333334L388.80999896875,251.33333333333334L389.22633643750004,157.08333333333331L390.3130726875,157.08333333333331L392.73987221875,282.75L393.231106375,188.5L396.27910784375,345.5833333333333L397.1125170625,345.5833333333333L397.7439989375,219.91666666666666L398.26019865625,157.08333333333331L398.82339237499997,219.91666666666666L399.27056965625,219.91666666666666L399.65313018750004,314.1666666666667L399.98355675,94.25L400.521050625,188.5L401.12756693750003,219.91666666666666L401.46166490625,314.1666666666667L402.31489971875004,219.91666666666666L403.34362775,345.5833333333333L403.67478859375,94.25L404.20861106250004,125.66666666666669L405.0750629375,188.5L407.15601599999997,157.08333333333331L408.42265115624997,157.08333333333331L409.24431187499994,251.33333333333334L411.22319984374997,219.91666666666666L411.7335253125,219.91666666666666L412.13150575,219.91666666666666L413.31002715625,219.91666666666666L414.37179784375,219.91666666666666L415.61053031250003,157.08333333333331L416.40135121875,125.66666666666669L416.73765203125,31.416666666666686L418.16068909374997,157.08333333333331L419.02493812499995,157.08333333333331L419.58666328124997,219.91666666666666L420.15426268749997,157.08333333333331L420.55518025000003,157.08333333333331L420.94141218749996,94.25L421.527368625,157.08333333333331L422.332140875,282.75L422.643476125,94.25L424.91607659374995,157.08333333333331L425.39189084375005,125.66666666666669L426.65779171875,219.91666666666666L427.23346821875,157.08333333333331L427.64760284375,219.91666666666666L429.26742728125004,188.5L430.180138875,219.91666666666666L430.87550321875,282.75L431.84989443750004,251.33333333333334L432.90652515625,219.91666666666666L434.06448668749994,219.91666666666666L434.5931691875,157.08333333333331L435.07632625,188.5L436.36939553124995,219.91666666666666L438.44447434375,157.08333333333331L439.05686490625,157.08333333333331L440.20528078124994,219.91666666666666L442.03070396875006,157.08333333333331L443.89944975,282.75L446.37324328125004,282.75L449.74946846875,157.08333333333331L450.328816375,188.5L451.10348309374996,314.1666666666667L451.6637396875,219.91666666666666L452.079342875,94.25L452.60068256249997,157.08333333333331L452.96855746874996,62.833333333333314L453.58094803125,157.08333333333331L454.62950165624994,157.08333333333331L455.20811528124995,157.08333333333331L457.31697103125,314.1666666666667L457.65914609375,125.66666666666669L458.53000365625,314.1666666666667L459.46988365625,157.08333333333331L460.76515578125,219.91666666666666L461.7322041875,219.91666666666666L462.1742415,282.75L462.54872493749997,125.66666666666669L464.13330387499997,219.91666666666666L464.68328053125,157.08333333333331L465.05629540625006,314.1666666666667L465.73770840624996,188.5L466.21939690625,188.5L467.11815715625,125.66666666666669L467.57928578125,188.5L468.03747728125,157.08333333333331L469.008931375,219.91666666666666L469.53541103125,219.91666666666666L470.02737946875,188.5L470.67428125000004,157.08333333333331L471.08768159375,157.08333333333331L471.62517546874994,188.5L472.90576196875,157.08333333333331L473.54385237500003,219.91666666666666L474.80975324999997,345.5833333333333L476.522097125,188.5L477.9656940625,219.91666666666666L478.53329346875,188.5L479.13834121875,219.91666666666666L480.1009839375,188.5L481.0731723125,188.5L481.41094168750004,125.66666666666669L482.33246465625,157.08333333333331L482.8471958125,157.08333333333331L483.49042618749996,157.08333333333331L485.42085159375,219.91666666666666L487.38578821875,188.5L487.87481953125,157.08333333333331L488.75595703125003,31.416666666666686L489.16862309375,251.33333333333334L489.6657315,251.33333333333334L490.21570815625,251.33333333333334L490.75026490625,188.5L491.25838753125,188.5L492.91639459375,219.91666666666666L493.492805375,219.91666666666666L496.24415721875,219.91666666666666L497.09151778125005,219.91666666666666L497.6238716875,219.91666666666666L498.062971875,157.08333333333331L498.55567459375,188.5L499.24883609375,31.416666666666686L500.80991803125,157.08333333333331L501.44139990625,157.08333333333331L502.93933365625,157.08333333333331L503.48123321875005,219.91666666666666L503.87554225,251.33333333333334L505.02909809375,157.08333333333331L505.9594324375,314.1666666666667L507.16585653125003,219.91666666666666L507.74814156250005,157.08333333333331L508.96043990625003,157.08333333333331L510.35557428125003,251.33333333333334L511.01349028125003,219.91666666666666L511.4342334375,282.75L512.37044203125,219.91666666666666L512.7346455312501,62.833333333333314L513.22808253125,62.833333333333314L514.62174834375,251.33333333333334L515.2069705,188.5L515.750338625,157.08333333333331L518.27920325,251.33333333333334L520.33739359375,219.91666666666666L520.73096834375,157.08333333333331L521.4674524375,94.25L522.558594375,282.75L523.48378875,157.08333333333331L523.991911375,188.5L524.47286559375,157.08333333333331L524.96336546875,94.25L525.51701353125,157.08333333333331L526.047898875,219.91666666666666L527.1662092187499,125.66666666666669L527.9592329687499,62.833333333333314L528.79778215625,314.1666666666667L530.3405070625,251.33333333333334L531.572631,219.91666666666666L532.1703359375,219.91666666666666L532.50737103125,94.25L534.5508757499999,94.25L535.5083785,125.66666666666669L536.04220096875,188.5L536.9960323125,314.1666666666667L538.44036353125,282.75L539.3692293125,125.66666666666669L539.90598890625,157.08333333333331L540.3487605,157.08333333333331L541.779140375,219.91666666666666L543.10158090625,125.66666666666669L543.6383405,188.5L544.64063440625,125.66666666666669L545.66422246875,125.66666666666669L546.68340484375,125.66666666666669L549.22548653125,219.91666666666666L550.34159403125,314.1666666666667L550.8710108125,251.33333333333334L551.49588415625,219.91666666666666L551.95701278125,282.75L553.43291809375,157.08333333333331L556.4207085,314.1666666666667L557.41272246875,125.66666666666669L557.99280465625,157.08333333333331L558.4869759375,188.5L558.91065621875,219.91666666666666L559.28367109375,125.66666666666669L561.62602828125,157.08333333333331L562.72451303125,188.5L563.11955634375,219.91666666666666L564.54553053125,188.5L565.09036721875,157.08333333333331L565.4993618750001,94.25L566.04933853125,157.08333333333331L566.65144915625,157.08333333333331L567.6434631249999,251.33333333333334L567.9915124375001,125.66666666666669L568.4746695,219.91666666666666L568.9078954375,282.75L569.849244,219.91666666666666L571.2957780625,62.833333333333314L572.260623625,219.91666666666666L572.601330125,94.25L573.39655671875,94.25L574.0977953125,157.08333333333331L575.4951325312501,157.08333333333331L576.795544625,157.08333333333331L577.19793075,62.833333333333314L580.290723375,157.08333333333331L580.6351012812501,125.66666666666669L581.0294103125001,94.25L581.5514842812499,125.66666666666669L582.2101345625,157.08333333333331L582.840147875,157.08333333333331L583.4026073125,188.5L584.4210554062499,125.66666666666669L584.7096279374999,31.416666666666686L585.1120140625,251.33333333333334L586.4836514375,188.5L587.06740503125,219.91666666666666L587.950745375,314.1666666666667L588.48163071875,251.33333333333334L589.577912625,188.5L592.68906228125,188.5L593.10760259375,94.25L593.65757925,188.5L594.56441659375,94.25L596.3846998125,62.833333333333314L598.260054125,157.08333333333331L599.7976390625,94.25L601.76918421875,125.66666666666669L603.1679899999999,219.91666666666666L603.6364614375,282.75L604.2180121875,251.33333333333334L605.1402694375,282.75L605.62269221875,188.5L606.32025940625,157.08333333333331L607.9533009062501,62.833333333333314L608.3850582812499,94.25L609.614979375,219.91666666666666L610.5357680625,282.75L611.05049921875,188.5L611.9140139687499,157.08333333333331L612.722457625,94.25L613.41194771875,157.08333333333331L614.39001034375,219.91666666666666L615.5252091562501,157.08333333333331L616.0839971875,157.08333333333331L616.74852171875,219.91666666666666L617.2940926875,157.08333333333331L618.7185983125,314.1666666666667L619.1892725937499,157.08333333333331L619.5380561874999,282.75L620.60056115625,62.833333333333314L621.04847271875,251.33333333333334L624.805789875,251.33333333333334L626.31767496875,125.66666666666669L626.87572871875,125.66666666666669L627.78330034375,251.33333333333334L628.77164290625,125.66666666666669L629.12703503125,251.33333333333334L630.5698976875,188.5L630.9282269375,125.66666666666669L631.948877875,188.5L632.6464450625,157.08333333333331L633.0862795312499,94.25L633.620102,157.08333333333331L635.3720970625,157.08333333333331L639.10298009375,314.1666666666667L639.426798125,125.66666666666669L640.08985409375,157.08333333333331L641.05176253125,188.5L642.12381315625,282.75L642.8588286875,219.91666666666666L643.41321103125,219.91666666666666L644.38539940625,219.91666666666666L645.61605478125,157.08333333333331L646.1513458125,219.91666666666666L646.7945761875001,219.91666666666666L648.1456536874999,282.75L648.5847538749999,314.1666666666667L649.11563921875,282.75L651.42421946875,188.5L652.5513411875,282.75L652.8891105625,125.66666666666669L654.38924715625,125.66666666666669L655.6265110625,219.91666666666666L658.55409040625,282.75L659.0086104999999,157.08333333333331L660.12398371875,125.66666666666669L661.29002234375,219.91666666666666L663.599336875,94.25L664.6478905,157.08333333333331L665.71333259375,219.91666666666666L666.98951340625,157.08333333333331L667.831734,314.1666666666667L668.9170016874999,251.33333333333334L669.37886459375,282.75L669.9596810625001,251.33333333333334L670.64770259375,219.91666666666666L671.2498132187501,219.91666666666666L673.39464875,94.25L674.57317015625,188.5L675.22521190625,125.66666666666669L678.6491653749999,157.08333333333331L679.6162137812499,31.416666666666686L680.5480166875001,219.91666666666666L681.0737620625,188.5L681.61199021875,94.25L686.767378875,219.91666666666666L687.854115125,157.08333333333331L689.064210625,345.5833333333333L690.60106128125,282.75L691.108449625,251.33333333333334L692.2612711875,188.5L692.91404721875,251.33333333333334L693.40601565625,314.1666666666667L693.8399758749999,314.1666666666667L694.98839175,188.5L695.402526375,125.66666666666669L696.58839059375,219.91666666666666L697.2551179687499,157.08333333333331L697.672924,125.66666666666669L699.3588337499999,157.08333333333331L699.97195859375,188.5L701.1020174375001,157.08333333333331L705.37333146875,251.33333333333334L705.9218395624999,188.5L706.4292279062499,188.5L706.8147255624999,125.66666666666669L708.4272071875,188.5L708.7598365937499,282.75L709.324498875,157.08333333333331L710.6594221875,94.25L711.27548415625,188.5L711.9077003125,219.91666666666666L713.730186375,219.91666666666666L719.78286671875,125.66666666666669L721.7558804375,219.91666666666666L723.0614325,157.08333333333331L723.5923178437499,314.1666666666667L724.5167779375,282.75L724.88245,125.66666666666669L726.5757025624999,282.75L728.18965275,314.1666666666667L728.759455,282.75L729.320445875,188.5L729.8748282187499,219.91666666666666L730.40938496875,188.5L730.87932496875,94.25L731.5438495000001,157.08333333333331L732.0233351562499,157.08333333333331L733.0902458125,157.08333333333331L733.8854724062501,314.1666666666667L734.8290238124999,188.5L736.0361821874999,157.08333333333331L737.30722303125,157.08333333333331L738.5231927812499,125.66666666666669L739.224431375,125.66666666666669L739.8639903437501,157.08333333333331L740.4044213437501,188.5L741.104191375,157.08333333333331L741.7063019999999,157.08333333333331L746.32933675,219.91666666666666L746.89253046875,188.5L747.9711896250001,157.08333333333331L748.5167605937501,125.66666666666669L750.36274365625,157.08333333333331L750.8363550624999,219.91666666666666L751.4972081875001,219.91666666666666L752.55383890625,157.08333333333331L754.644337625,157.08333333333331L756.201013875,94.25L757.2943586562501,157.08333333333331L758.4060604687501,157.08333333333331L759.0309338125,219.91666666666666L759.9590653125,188.5L760.3930255312499,251.33333333333334L762.3234509375,188.5L762.950527125,188.5L763.4197328437499,157.08333333333331L764.61220559375,219.91666666666666L765.3545639375001,157.08333333333331L765.95006603125,188.5L766.8671833125001,125.66666666666669L767.5515334375,125.66666666666669L768.0141306250001,94.25L768.4326709375,62.833333333333314L768.8335885,282.75L769.253597375,157.08333333333331L772.1819110000001,188.5L772.6386339375,157.08333333333331L773.8193581875,219.91666666666666L776.1279384375001,188.5L776.6250468437499,219.91666666666666L778.06717521875,188.5L779.95354375,282.75L781.1526250312501,251.33333333333334L782.4288058437501,157.08333333333331L783.5427105,251.33333333333334L784.11177846875,188.5L784.6896578125001,219.91666666666666L785.1669406249999,282.75L786.33297925,125.66666666666669L787.99465771875,157.08333333333331L788.5710685,157.08333333333331L789.43091184375,31.416666666666686L789.8824948125,251.33333333333334L790.38547746875,282.75L791.4377024999999,219.91666666666666L793.66184040625,62.833333333333314L794.7346253125,125.66666666666669L795.21851665625,219.91666666666666L796.48294896875,94.25L796.97344884375,62.833333333333314L798.4148429375,125.66666666666669L798.7812492812501,282.75L801.9680299062501,157.08333333333331L802.4768868125,125.66666666666669L803.08707453125,157.08333333333331L803.738382,157.08333333333331L804.540217125,282.75L805.49478275,125.66666666666669L806.0572421875,125.66666666666669L806.5697705000001,94.25L807.1997838125,157.08333333333331L808.35040253125,219.91666666666666L808.96279309375,94.25L810.43282415625,62.833333333333314L812.01520025,94.25L813.03805403125,219.91666666666666L814.10569896875,94.25L814.7709577812501,188.5L815.275409,157.08333333333331L815.8569597500001,125.66666666666669L816.26815725,62.833333333333314L818.5436948437499,219.91666666666666L820.6187736562499,219.91666666666666L821.6401588750001,188.5L822.1100988750001,62.833333333333314L823.77324590625,282.75L824.2240945937499,125.66666666666669L824.653649125,62.833333333333314L826.3645244374999,188.5L828.0188600937499,125.66666666666669L828.5512140000001,94.25L829.2480469062499,125.66666666666669L830.2540122187501,62.833333333333314L830.7320293125,251.33333333333334L831.55809571875,219.91666666666666L833.3600219062499,251.33333333333334L834.39242134375,125.66666666666669L834.9585521875,188.5L836.2538243125,188.5L836.913208875,219.91666666666666L837.3640575625,282.75L838.6439097812499,157.08333333333331L839.2210548437499,251.33333333333334L841.1470745624999,157.08333333333331L843.99535153125,282.75L851.3095270625,188.5L851.6869476249999,31.416666666666686L852.50713978125,157.08333333333331L852.9425685625,94.25L855.2570230625,219.91666666666666L857.07069775,188.5L857.5678061562501,125.66666666666669L858.589191375,94.25L859.4218663125,157.08333333333331L859.8477494374999,157.08333333333331L860.404334625,219.91666666666666L861.51236503125,125.66666666666669L862.77532878125,219.91666666666666L863.312088375,282.75L863.9927670937499,157.08333333333331L865.1323715937499,188.5L865.5531147500001,125.66666666666669L866.1309940937499,94.25L867.49822578125,157.08333333333331L868.6429702500001,94.25L872.16384884375,282.75L873.1360372187501,282.75L875.7096929999999,157.08333333333331L876.2839009375,157.08333333333331L881.7587019375001,314.1666666666667L882.28077590625,157.08333333333331L884.3940373437499,157.08333333333331L886.74961159375,125.66666666666669L888.304085,314.1666666666667L890.4085350624999,157.08333333333331L890.885817875,345.5833333333333L891.4181717812501,188.5L893.35006575,188.5L893.84129990625,125.66666666666669L895.3664020625,31.416666666666686L896.483978125,125.66666666666669L897.1345513125,94.25L897.8181671562501,157.08333333333331L902.00650740625,157.08333333333331L902.55721834375,94.25L903.15786040625,219.91666666666666L903.803293625,219.91666666666666L905.3842011562499,219.91666666666666L906.094251125,219.91666666666666L906.51205715625,125.66666666666669L907.0546909999999,219.91666666666666L907.63110178125,282.75L908.41531415625,219.91666666666666L909.1026014062501,251.33333333333334L909.71205484375,219.91666666666666L910.2385345,94.25L912.203471125,282.75L913.38125825,125.66666666666669L916.274326375,62.833333333333314L916.8734998749999,219.91666666666666L917.34270559375,157.08333333333331L918.3684965,345.5833333333333L923.10681340625,282.75L923.9703281562499,125.66666666666669L926.8648648437501,157.08333333333331L927.45375840625,188.5L929.4069465312499,62.833333333333314L930.5472853125,282.75L931.02970809375,125.66666666666669L932.39840834375,188.5L932.9498535624999,219.91666666666666L933.95214746875,94.25L934.60418921875,188.5L938.602350625,188.5L939.2411753125001,219.91666666666666L940.0503532500001,219.91666666666666L942.9698555,251.33333333333334L943.75333359375,219.91666666666666L948.6473181250001,94.25L949.27072290625,188.5L951.0175780000001,125.66666666666669L951.51028071875,94.25L952.2673246874999,125.66666666666669L953.4877001250001,219.91666666666666L954.5568136249999,251.33333333333334L955.91743678125,219.91666666666666L957.86768778125,251.33333333333334L958.62106034375,188.5L959.9479065625001,157.08333333333331L960.65355084375,157.08333333333331L961.7358814062501,157.08333333333331L962.9944394687501,157.08333333333331L963.53927615625,157.08333333333331L964.6010468437499,157.08333333333331L965.0254614062501,62.833333333333314L967.50145778125,31.416666666666686L968.16451375,188.5L969.20058459375,62.833333333333314L969.80563234375,219.91666666666666L970.3188949375,314.1666666666667L971.05537903125,188.5L972.11568115625,157.08333333333331L973.01297284375,157.08333333333331L973.34486796875,94.25L974.071072125,157.08333333333331L977.2079216249999,188.5L978.64637859375,157.08333333333331L979.228663625,125.66666666666669L979.780843125,219.91666666666666L981.196537375,188.5L982.2186568750001,188.5L983.4603264687499,282.75L984.71594740625,94.25L985.26665834375,94.25L986.1147531875001,188.5L987.2014894375001,94.25L987.928427875,125.66666666666669L988.3146598125,62.833333333333314L988.9813871875,188.5L989.52695815625,188.5L990.0703262812499,62.833333333333314L991.08583725,125.66666666666669L991.85316115625,157.08333333333331L993.8540775625,219.91666666666666L994.3724801249999,62.833333333333314L995.638381,157.08333333333331L996.13402084375,314.1666666666667L997.8346162187499,125.66666666666669L998.52190346875,94.25L999.1056570625,188.5L999.70556484375,251.33333333333334L1000.58817090625,219.91666666666666L1001.950262625,188.5L1004.01873290625,157.08333333333331L1005.0474609375,31.416666666666686L1005.7406224375,157.08333333333331L1006.30234759375,157.08333333333331L1008.35833509375,62.833333333333314L1008.72107003125,31.416666666666686L1009.7586094375001,94.25L1011.959984625,157.08333333333331L1012.4541559062501,94.25L1013.31473353125,188.5L1013.9506210937501,157.08333333333331L1015.16218515625,251.33333333333334L1017.51996225,125.66666666666669L1018.033959125,219.91666666666666L1019.1985291875001,251.33333333333334L1019.9328104374999,219.91666666666666L1020.5731036875,94.25L1020.9424471562501,31.416666666666686L1022.4792978125,219.91666666666666L1024.3891633437502,188.5L1025.02798803125,62.833333333333314L1025.37970875,31.416666666666686L1026.10591290625,125.66666666666669L1026.84313128125,188.5L1029.5328035,157.08333333333331L1030.2773646875,282.75L1032.80696359375,345.5833333333333L1033.65726128125,188.5L1035.30645696875,125.66666666666669L1035.96510725,94.25L1036.77648803125,157.08333333333331L1040.08369078125,157.08333333333331L1042.11324415625,219.91666666666666L1043.5237984374999,94.25L1045.97556353125,219.91666666666666L1047.0013544375,157.08333333333331L1047.76427265625,251.33333333333334L1048.474322625,282.75L1049.0823075,282.75L1050.07138434375,125.66666666666669L1050.8166798125,94.25L1051.6214520624999,157.08333333333331L1053.79859596875,94.25L1054.7465530625,94.25L1056.16591871875,188.5L1056.9435225625,157.08333333333331L1057.7027693750001,157.08333333333331L1060.1398488437499,219.91666666666666L1061.96453775,219.91666666666666L1062.58500540625,282.75L1063.47054859375,219.91666666666666L1064.11084184375,62.833333333333314L1069.8844953125,188.5L1070.6554906249999,251.33333333333334L1073.30551165625,94.25L1077.3330443125,219.91666666666666L1080.5969244687499,157.08333333333331L1082.19031478125,219.91666666666666L1083.9048615,219.91666666666666L1085.15534246875,314.1666666666667L1085.8330840625,251.33333333333334L1087.1577274375,62.833333333333314L1090.592695125,219.91666666666666L1091.67062,157.08333333333331L1092.41591546875,251.33333333333334L1093.88888365625,31.416666666666686L1094.69512446875,157.08333333333331L1095.524128,157.08333333333331L1098.8621705624998,125.66666666666669L1100.91008096875,157.08333333333331L1103.325132,219.91666666666666L1104.9163194687499,345.5833333333333L1105.6175580625,157.08333333333331L1107.10154046875,125.66666666666669L1110.64665034375,219.91666666666666L1112.1886409687502,157.08333333333331L1112.84361984375,94.25L1115.4246184375,125.66666666666669L1117.8866634687502,188.5L1120.78266871875,157.08333333333331L1122.50529253125,345.5833333333333L1123.277022125,188.5L1125.4578374375,125.66666666666669L1128.6666465,94.25L1129.5110699375,188.5L1130.13006903125,314.1666666666667L1130.89298725,282.75L1133.327863875,282.75L1134.49757390625,282.75L1134.975591,125.66666666666669L1136.09830703125,31.416666666666686L1137.3370395,125.66666666666669L1138.0874749375,282.75L1139.85488990625,157.08333333333331L1140.5943111249999,94.25L1143.00055078125,157.08333333333331L1144.0432301562498,125.66666666666669L1145.6659917187499,157.08333333333331L1147.09490303125,125.66666666666669L1147.99660040625,125.66666666666669L1148.43423203125,282.75L1154.39512721875,251.33333333333334L1155.2637819375,125.66666666666669L1156.4635974999999,125.66666666666669L1157.36309203125,94.25L1163.18006809375,125.66666666666669L1164.0722198125,94.25L1164.675799,251.33333333333334L1165.6979185,219.91666666666666L1166.3697858437502,219.91666666666666L1168.8861676875,219.91666666666666L1170.8782727187502,125.66666666666669L1173.50699959375,188.5L1178.35178728125,251.33333333333334L1179.56628846875,219.91666666666666L1180.33067525,125.66666666666669L1181.220624125,188.5L1182.1377414062501,282.75L1184.11589509375,251.33333333333334L1185.23787684375,219.91666666666666L1188.43053171875,94.25L1191.75682578125,251.33333333333334L1192.54544384375,314.1666666666667L1195.40914071875,188.5L1196.08467946875,345.5833333333333L1196.7080842500002,157.08333333333331L1198.05108465625,157.08333333333331L1198.9043194687501,282.75L1201.01611234375,94.25L1202.07200878125,188.5L1203.15801075,251.33333333333334L1204.2131729062498,314.1666666666667L1205.2433695,219.91666666666666L1209.0968775000001,314.1666666666667L1210.001512,188.5L1211.26814715625,94.25L1213.998939125,94.25L1215.82215946875,188.5L1216.41252159375,94.25L1217.25988215625,251.33333333333334L1219.2402386875,219.91666666666666L1220.35708046875,94.25L1221.2051753125,219.91666666666666L1224.1922314375,219.91666666666666L1225.48089503125,157.08333333333331L1230.03343878125,157.08333333333331L1231.7641396875001,219.91666666666666L1232.72531384375,282.75L1234.23499609375,282.75L1238.691349,251.33333333333334L1241.8832695937501,219.91666666666666L1243.352566375,157.08333333333331L1244.50612221875,94.25L1246.1472408125,31.416666666666686L1248.245816625,62.833333333333314L1248.82957021875,251.33333333333334L1250.1204366562501,125.66666666666669L1254.9879870625,157.08333333333331L1256.02112078125,157.08333333333331L1258.20634178125,62.833333333333314L1261.3821081875,219.91666666666666L1266.808446625,157.08333333333331L1271.7398795,62.833333333333314L1272.70105365625,94.25L1273.63359084375,31.416666666666686L1275.0573621875,157.08333333333331L1287.28534784375,62.833333333333314L1290.1571218125,251.33333333333334L1292.60007553125,157.08333333333331L1295.4175126875,157.08333333333331L1296.95730046875,282.75L1297.5865795,94.25L1299.36868009375,125.66666666666669L1300.53471871875,94.25L1301.57152384375,94.25L1303.049632,188.5L1304.41466084375,157.08333333333331L1305.49111715625,31.416666666666686L1306.612364625,125.66666666666669L1308.48111040625,125.66666666666669L1310.55618921875,157.08333333333331L1311.6708281562499,188.5L1313.08358528125,157.08333333333331L1316.9466389375,157.08333333333331L1319.4130896562501,188.5" style="fill: none;" fill="none"></path></g></g></g></g></g></g><g transform="translate(29, 377)" clip-path="url(#clip_1)"><clipPath id="clip_1"><rect width="1468" height="23"></rect></clipPath><g><g><line x1="0" y1="0" x2="0" y2="5" style="visibility: inherit;" fill="rgb(0, 0, 0)" stroke="rgb(204, 204, 204)" stroke-width="1px"></line><line x1="146.85625000000002" y1="0" x2="146.85625000000002" y2="5" style="visibility: inherit;" fill="rgb(0, 0, 0)" stroke="rgb(204, 204, 204)" stroke-width="1px"></line><line x1="293.71250000000003" y1="0" x2="293.71250000000003" y2="5" style="visibility: inherit;" fill="rgb(0, 0, 0)" stroke="rgb(204, 204, 204)" stroke-width="1px"></line><line x1="440.56874999999997" y1="0" x2="440.56874999999997" y2="5" style="visibility: inherit;" fill="rgb(0, 0, 0)" stroke="rgb(204, 204, 204)" stroke-width="1px"></line><line x1="587.4250000000001" y1="0" x2="587.4250000000001" y2="5" style="visibility: inherit;" fill="rgb(0, 0, 0)" stroke="rgb(204, 204, 204)" stroke-width="1px"></line><line x1="734.28125" y1="0" x2="734.28125" y2="5" style="visibility: inherit;" fill="rgb(0, 0, 0)" stroke="rgb(204, 204, 204)" stroke-width="1px"></line><line x1="881.1374999999999" y1="0" x2="881.1374999999999" y2="5" style="visibility: inherit;" fill="rgb(0, 0, 0)" stroke="rgb(204, 204, 204)" stroke-width="1px"></line><line x1="1027.9937499999999" y1="0" x2="1027.9937499999999" y2="5" style="visibility: inherit;" fill="rgb(0, 0, 0)" stroke="rgb(204, 204, 204)" stroke-width="1px"></line><line x1="1174.8500000000001" y1="0" x2="1174.8500000000001" y2="5" style="visibility: inherit;" fill="rgb(0, 0, 0)" stroke="rgb(204, 204, 204)" stroke-width="1px"></line><line x1="1321.70625" y1="0" x2="1321.70625" y2="5" style="visibility: inherit;" fill="rgb(0, 0, 0)" stroke="rgb(204, 204, 204)" stroke-width="1px"></line><line x1="1468.5625" y1="0" x2="1468.5625" y2="5" style="visibility: inherit;" fill="rgb(0, 0, 0)" stroke="rgb(204, 204, 204)" stroke-width="1px"></line></g><g transform="translate(0, 8)"><text x="0" y="0" dx="0em" dy="0.95em" style="text-anchor: middle; visibility: hidden; font-family: &quot;Helvetica Neue&quot;, sans-serif; font-size: 12px; font-weight: 200;" fill="rgb(50, 49, 63)" stroke="none" stroke-width="1px">-200k</text><text x="146.85625000000002" y="0" dx="0em" dy="0.95em" style="text-anchor: middle; visibility: inherit; font-family: &quot;Helvetica Neue&quot;, sans-serif; font-size: 12px; font-weight: 200;" fill="rgb(50, 49, 63)" stroke="none" stroke-width="1px">0</text><text x="293.71250000000003" y="0" dx="0em" dy="0.95em" style="text-anchor: middle; visibility: inherit; font-family: &quot;Helvetica Neue&quot;, sans-serif; font-size: 12px; font-weight: 200;" fill="rgb(50, 49, 63)" stroke="none" stroke-width="1px">200k</text><text x="440.56874999999997" y="0" dx="0em" dy="0.95em" style="text-anchor: middle; visibility: inherit; font-family: &quot;Helvetica Neue&quot;, sans-serif; font-size: 12px; font-weight: 200;" fill="rgb(50, 49, 63)" stroke="none" stroke-width="1px">400k</text><text x="587.4250000000001" y="0" dx="0em" dy="0.95em" style="text-anchor: middle; visibility: inherit; font-family: &quot;Helvetica Neue&quot;, sans-serif; font-size: 12px; font-weight: 200;" fill="rgb(50, 49, 63)" stroke="none" stroke-width="1px">600k</text><text x="734.28125" y="0" dx="0em" dy="0.95em" style="text-anchor: middle; visibility: inherit; font-family: &quot;Helvetica Neue&quot;, sans-serif; font-size: 12px; font-weight: 200;" fill="rgb(50, 49, 63)" stroke="none" stroke-width="1px">800k</text><text x="881.1374999999999" y="0" dx="0em" dy="0.95em" style="text-anchor: middle; visibility: inherit; font-family: &quot;Helvetica Neue&quot;, sans-serif; font-size: 12px; font-weight: 200;" fill="rgb(50, 49, 63)" stroke="none" stroke-width="1px">1M</text><text x="1027.9937499999999" y="0" dx="0em" dy="0.95em" style="text-anchor: middle; visibility: inherit; font-family: &quot;Helvetica Neue&quot;, sans-serif; font-size: 12px; font-weight: 200;" fill="rgb(50, 49, 63)" stroke="none" stroke-width="1px">1.2M</text><text x="1174.8500000000001" y="0" dx="0em" dy="0.95em" style="text-anchor: middle; visibility: inherit; font-family: &quot;Helvetica Neue&quot;, sans-serif; font-size: 12px; font-weight: 200;" fill="rgb(50, 49, 63)" stroke="none" stroke-width="1px">1.4M</text><text x="1321.70625" y="0" dx="0em" dy="0.95em" style="text-anchor: middle; visibility: inherit; font-family: &quot;Helvetica Neue&quot;, sans-serif; font-size: 12px; font-weight: 200;" fill="rgb(50, 49, 63)" stroke="none" stroke-width="1px">1.6M</text><text x="1468.5625" y="0" dx="0em" dy="0.95em" style="text-anchor: middle; visibility: hidden; font-family: &quot;Helvetica Neue&quot;, sans-serif; font-size: 12px; font-weight: 200;" fill="rgb(50, 49, 63)" stroke="none" stroke-width="1px">1.8M</text></g><line x1="0" y1="0" x2="1468.5625" y2="0" fill="rgb(0, 0, 0)" stroke="rgb(204, 204, 204)" stroke-width="1px"></line></g></g></g></g></svg>