<svg viewBox="0 0 330 200" xmlns="http://www.w3.org/2000/svg"><g><g><g><g><g><line x1="29.4375" y1="177" x2="24.4375" y2="177" style="visibility: inherit;" fill="rgb(0, 0, 0)" stroke="rgb(204, 204, 204)" stroke-width="1px"></line><line x1="29.4375" y1="162.25" x2="24.4375" y2="162.25" style="visibility: inherit;" fill="rgb(0, 0, 0)" stroke="rgb(204, 204, 204)" stroke-width="1px"></line><line x1="29.4375" y1="147.5" x2="24.4375" y2="147.5" style="visibility: inherit;" fill="rgb(0, 0, 0)" stroke="rgb(204, 204, 204)" stroke-width="1px"></line><line x1="29.4375" y1="132.75" x2="24.4375" y2="132.75" style="visibility: inherit;" fill="rgb(0, 0, 0)" stroke="rgb(204, 204, 204)" stroke-width="1px"></line><line x1="29.4375" y1="118" x2="24.4375" y2="118" style="visibility: inherit;" fill="rgb(0, 0, 0)" stroke="rgb(204, 204, 204)" stroke-width="1px"></line><line x1="29.4375" y1="103.25" x2="24.4375" y2="103.25" style="visibility: inherit;" fill="rgb(0, 0, 0)" stroke="rgb(204, 204, 204)" stroke-width="1px"></line><line x1="29.4375" y1="88.5" x2="24.4375" y2="88.5" style="visibility: inherit;" fill="rgb(0, 0, 0)" stroke="rgb(204, 204, 204)" stroke-width="1px"></line><line x1="29.4375" y1="73.75" x2="24.4375" y2="73.75" style="visibility: inherit;" fill="rgb(0, 0, 0)" stroke="rgb(204, 204, 204)" stroke-width="1px"></line><line x1="29.4375" y1="59" x2="24.4375" y2="59" style="visibility: inherit;" fill="rgb(0, 0, 0)" stroke="rgb(204, 204, 204)" stroke-width="1px"></line><line x1="29.4375" y1="44.25" x2="24.4375" y2="44.25" style="visibility: inherit;" fill="rgb(0, 0, 0)" stroke="rgb(204, 204, 204)" stroke-width="1px"></line><line x1="29.4375" y1="29.5" x2="24.4375" y2="29.5" style="visibility: inherit;" fill="rgb(0, 0, 0)" stroke="rgb(204, 204, 204)" stroke-width="1px"></line><line x1="29.4375" y1="14.75" x2="24.4375" y2="14.75" style="visibility: inherit;" fill="rgb(0, 0, 0)" stroke="rgb(204, 204, 204)" stroke-width="1px"></line><line x1="29.4375" y1="0" x2="24.4375" y2="0" style="visibility: inherit;" fill="rgb(0, 0, 0)" stroke="rgb(204, 204, 204)" stroke-width="1px"></line></g><g transform="translate(19.4375, 0)"><text x="0" y="177" dx="0em" dy="0.3em" style="text-anchor: end; visibility: hidden; font-family: &quot;Helvetica Neue&quot;, sans-serif; font-size: 12px; font-weight: 200;" fill="rgb(50, 49, 63)" stroke="none" stroke-width="1px">-6</text><text x="0" y="162.25" dx="0em" dy="0.3em" style="text-anchor: end; visibility: inherit; font-family: &quot;Helvetica Neue&quot;, sans-serif; font-size: 12px; font-weight: 200;" fill="rgb(50, 49, 63)" stroke="none" stroke-width="1px">-5</text><text x="0" y="147.5" dx="0em" dy="0.3em" style="text-anchor: end; visibility: hidden; font-family: &quot;Helvetica Neue&quot;, sans-serif; font-size: 12px; font-weight: 200;" fill="rgb(50, 49, 63)" stroke="none" stroke-width="1px">-4</text><text x="0" y="132.75" dx="0em" dy="0.3em" style="text-anchor: end; visibility: inherit; font-family: &quot;Helvetica Neue&quot;, sans-serif; font-size: 12px; font-weight: 200;" fill="rgb(50, 49, 63)" stroke="none" stroke-width="1px">-3</text><text x="0" y="118" dx="0em" dy="0.3em" style="text-anchor: end; visibility: hidden; font-family: &quot;Helvetica Neue&quot;, sans-serif; font-size: 12px; font-weight: 200;" fill="rgb(50, 49, 63)" stroke="none" stroke-width="1px">-2</text><text x="0" y="103.25" dx="0em" dy="0.3em" style="text-anchor: end; visibility: inherit; font-family: &quot;Helvetica Neue&quot;, sans-serif; font-size: 12px; font-weight: 200;" fill="rgb(50, 49, 63)" stroke="none" stroke-width="1px">-1</text><text x="0" y="88.5" dx="0em" dy="0.3em" style="text-anchor: end; visibility: hidden; font-family: &quot;Helvetica Neue&quot;, sans-serif; font-size: 12px; font-weight: 200;" fill="rgb(50, 49, 63)" stroke="none" stroke-width="1px">0</text><text x="0" y="73.75" dx="0em" dy="0.3em" style="text-anchor: end; visibility: inherit; font-family: &quot;Helvetica Neue&quot;, sans-serif; font-size: 12px; font-weight: 200;" fill="rgb(50, 49, 63)" stroke="none" stroke-width="1px">1</text><text x="0" y="59" dx="0em" dy="0.3em" style="text-anchor: end; visibility: hidden; font-family: &quot;Helvetica Neue&quot;, sans-serif; font-size: 12px; font-weight: 200;" fill="rgb(50, 49, 63)" stroke="none" stroke-width="1px">2</text><text x="0" y="44.25" dx="0em" dy="0.3em" style="text-anchor: end; visibility: inherit; font-family: &quot;Helvetica Neue&quot;, sans-serif; font-size: 12px; font-weight: 200;" fill="rgb(50, 49, 63)" stroke="none" stroke-width="1px">3</text><text x="0" y="29.5" dx="0em" dy="0.3em" style="text-anchor: end; visibility: hidden; font-family: &quot;Helvetica Neue&quot;, sans-serif; font-size: 12px; font-weight: 200;" fill="rgb(50, 49, 63)" stroke="none" stroke-width="1px">4</text><text x="0" y="14.75" dx="0em" dy="0.3em" style="text-anchor: end; visibility: inherit; font-family: &quot;Helvetica Neue&quot;, sans-serif; font-size: 12px; font-weight: 200;" fill="rgb(50, 49, 63)" stroke="none" stroke-width="1px">5</text><text x="0" y="0" dx="0em" dy="0.3em" style="text-anchor: end; visibility: hidden; font-family: &quot;Helvetica Neue&quot;, sans-serif; font-size: 12px; font-weight: 200;" fill="rgb(50, 49, 63)" stroke="none" stroke-width="1px">6</text></g><line x1="29.4375" y1="0" x2="29.4375" y2="177" fill="rgb(0, 0, 0)" stroke="rgb(204, 204, 204)" stroke-width="1px"></line></g></g><g transform="translate(29, 0)" clip-path="url(#clip_0)"><clipPath id="clip_0"><rect width="300" height="177"></rect></clipPath><g><g><g><line x1="0" y1="0" x2="0" y2="177" fill="rgb(0, 0, 0)" stroke="rgb(60, 60, 60)" stroke-width="1px" opacity="0.25"></line><line x1="30.056250000000002" y1="0" x2="30.056250000000002" y2="177" fill="rgb(0, 0, 0)" stroke="rgb(60, 60, 60)" stroke-width="1px" opacity="0.25"></line><line x1="60.112500000000004" y1="0" x2="60.112500000000004" y2="177" fill="rgb(0, 0, 0)" stroke="rgb(60, 60, 60)" stroke-width="1px" opacity="0.25"></line><line x1="90.16875" y1="0" x2="90.16875" y2="177" fill="rgb(0, 0, 0)" stroke="rgb(60, 60, 60)" stroke-width="1px" opacity="0.25"></line><line x1="120.22500000000001" y1="0" x2="120.22500000000001" y2="177" fill="rgb(0, 0, 0)" stroke="rgb(60, 60, 60)" stroke-width="1px" opacity="0.25"></line><line x1="150.28125" y1="0" x2="150.28125" y2="177" fill="rgb(0, 0, 0)" stroke="rgb(60, 60, 60)" stroke-width="1px" opacity="0.25"></line><line x1="180.3375" y1="0" x2="180.3375" y2="177" fill="rgb(0, 0, 0)" stroke="rgb(60, 60, 60)" stroke-width="1px" opacity="0.25"></line><line x1="210.39374999999998" y1="0" x2="210.39374999999998" y2="177" fill="rgb(0, 0, 0)" stroke="rgb(60, 60, 60)" stroke-width="1px" opacity="0.25"></line><line x1="240.45000000000002" y1="0" x2="240.45000000000002" y2="177" fill="rgb(0, 0, 0)" stroke="rgb(60, 60, 60)" stroke-width="1px" opacity="0.25"></line><line x1="270.50625" y1="0" x2="270.50625" y2="177" fill="rgb(0, 0, 0)" stroke="rgb(60, 60, 60)" stroke-width="1px" opacity="0.25"></line><line x1="300.5625" y1="0" x2="300.5625" y2="177" fill="rgb(0, 0, 0)" stroke="rgb(60, 60, 60)" stroke-width="1px" opacity="0.25"></line></g><g><line x1="0" y1="177" x2="300.5625" y2="177" fill="rgb(0, 0, 0)" stroke="rgb(60, 60, 60)" stroke-width="1px" opacity="0.25"></line><line x1="0" y1="162.25" x2="300.5625" y2="162.25" fill="rgb(0, 0, 0)" stroke="rgb(60, 60, 60)" stroke-width="1px" opacity="0.25"></line><line x1="0" y1="147.5" x2="300.5625" y2="147.5" fill="rgb(0, 0, 0)" stroke="rgb(60, 60, 60)" stroke-width="1px" opacity="0.25"></line><line x1="0" y1="132.75" x2="300.5625" y2="132.75" fill="rgb(0, 0, 0)" stroke="rgb(60, 60, 60)" stroke-width="1px" opacity="0.25"></line><line x1="0" y1="118" x2="300.5625" y2="118" fill="rgb(0, 0, 0)" stroke="rgb(60, 60, 60)" stroke-width="1px" opacity="0.25"></line><line x1="0" y1="103.25" x2="300.5625" y2="103.25" fill="rgb(0, 0, 0)" stroke="rgb(60, 60, 60)" stroke-width="1px" opacity="0.25"></line><line x1="0" y1="88.5" x2="300.5625" y2="88.5" fill="rgb(0, 0, 0)" stroke="rgb(60, 60, 60)" stroke-width="1px" opacity="0.25"></line><line x1="0" y1="73.75" x2="300.5625" y2="73.75" fill="rgb(0, 0, 0)" stroke="rgb(60, 60, 60)" stroke-width="1px" opacity="0.25"></line><line x1="0" y1="59" x2="300.5625" y2="59" fill="rgb(0, 0, 0)" stroke="rgb(60, 60, 60)" stroke-width="1px" opacity="0.25"></line><line x1="0" y1="44.25" x2="300.5625" y2="44.25" fill="rgb(0, 0, 0)" stroke="rgb(60, 60, 60)" stroke-width="1px" opacity="0.25"></line><line x1="0" y1="29.5" x2="300.5625" y2="29.5" fill="rgb(0, 0, 0)" stroke="rgb(60, 60, 60)" stroke-width="1px" opacity="0.25"></line><line x1="0" y1="14.75" x2="300.5625" y2="14.75" fill="rgb(0, 0, 0)" stroke="rgb(60, 60, 60)" stroke-width="1px" opacity="0.25"></line><line x1="0" y1="0" x2="300.5625" y2="0" fill="rgb(0, 0, 0)" stroke="rgb(60, 60, 60)" stroke-width="1px" opacity="0.25"></line></g></g></g><g><g><line x1="0" y1="88.5" x2="300.5625" y2="88.5" fill="rgb(0, 0, 0)" stroke="rgb(153, 153, 153)" stroke-width="1.5px"></line></g></g><g><g><line x1="30.056250000000002" y1="0" x2="30.056250000000002" y2="177" fill="rgb(0, 0, 0)" stroke="rgb(153, 153, 153)" stroke-width="1.5px"></line></g></g><g><g><g><g><g><path stroke="rgb(0, 119, 187)" stroke-width="2px" d="M30.63768815625,103.25L30.723949593750003,65.11166774402066L31.079965875,93.75865855382571L31.182006843750003,98.48100954505846L31.38473625,79.67517674704176L31.47370275,97.51417478950765L31.56988275,79.80781138636374L31.86819103125,70.30571438294356L31.96497215625,78.58401914175786L32.06686284375,96.48238112285811L32.468564625,126.31424527952788L33.359281593750005,122.54518770712389L33.43832953125,93.74791486120628L33.63279346875,91.37009892313665L34.07462034375,96.75232619077872L34.257362343749996,113.06032003183248L34.46444990625,95.2521193020356L34.535232375,125.60274262203063L34.728043218749995,108.7950235014614L34.9358821875,92.91953655470984L35.07804825,97.5992512169657L35.33097159375,60.06847583409275L35.44458421875,66.26621211491525L35.55158446875,69.65636977234205L35.66369428125,78.19253666953529L35.72861578125,62.816565189519494L36.07486378125,74.45116213908038L36.17675446875,94.17878659940364L36.33244584375,98.28804637348244L36.49294621875,120.58106167375487L36.60205040625,119.41184072672321L36.70905065625,105.40877681973228L36.8143978125,84.38560087293877L37.13614996875,79.5676736715487L37.256525249999996,76.93226749655722L37.33812796875,88.85420032502122L37.450688625,95.37549757910446L37.88124440625,92.26089717542585L38.361242718750006,117.28421075647097L38.47756040625,117.60846328380035L38.5973345625,117.785829416242L38.682694312500004,97.83759869048697L38.78578725,80.24416648360113L38.895943406250005,77.3023090665211L39.316580625,109.10186305943854L40.08376640625,93.0874690934987L40.35186815625,124.41809559415897L40.43512396875,134.8741982900077L41.0547335625,100.50318646462925L41.36566546875,101.74749299615229L41.58928396875,95.74637866889505L41.701243500000004,99.14551913188568L41.779690312499994,121.05009896514174L42.1650114375,106.30490413393242L42.24150459375,71.5122825612609L42.314691562499995,52.48071856100968L42.64651256249999,68.79745305287231L42.72961809375,57.67745681992115L43.37642859375,78.32181888049688L43.59553865625,76.25078492763178L43.786996968749996,81.79967935541458L43.89940734375,84.83492460741178L43.9587684375,106.54045376025425L44.03856778125,125.09512820685907L44.42449003125,108.51753512915191L44.60633034375,99.4495917156461L44.9536303125,101.17117666845841L45.0510125625,102.11288363764675L45.19137525,89.26449734979278L45.417247968750004,82.23643005033664L45.4892326875,98.43732723753415L45.60299559375,93.93571799893118L45.87169846875,84.79158774541536L46.0711216875,79.7897484967422L46.179775031249996,77.05374242771798L46.418421656250004,95.60239710796174L46.52497106249999,92.38501121805507L46.828238625,97.30685113627612L47.29546303125,93.31734757154305L47.412682406250006,97.81683912163405L47.50435396875,73.55106099953382L47.72707078125,87.004680366745L47.95940559375,67.63681016060951L48.14605490625,77.0878351578534L48.25485853125,82.25754583134581L48.45353034375,58.35837756974617L48.63326671875,85.37603253065114L48.729446718750005,100.15468979426618L49.34469815625,114.92036531746359L50.13517753125,116.31543982865259L50.226999375000005,117.07854558627298L50.32843921875,124.17771443569131L50.7178179375,108.01570979632314L50.9684870625,105.85684325858875L51.2426000625,97.99419326244805L51.342537093749996,80.32982371455908L51.60733265625,104.07616357186382L51.7024606875,97.02016147380951L51.90669290625,99.84227832617381L51.99415659375,88.02247624441706L52.116184968750005,81.55704450569614L52.297574437499996,84.70220334461578L52.5987380625,106.46785522950483L52.70979590625,105.01016681053915L52.82295768749999,90.84931124536492L53.108341781250004,96.4668232512146L53.408753999999995,99.5396023184144L53.87928459375,74.49341246817268L54.04158834375,100.88364662009045L54.22643428125,88.59210470118947L54.2963150625,61.823381271550645L54.778717875,53.86263955553821L55.04336315625,76.23511383687939L55.15021312499999,95.15460726877303L55.26187209375,98.82182017601883L55.34317425,100.82778563628231L55.4889470625,115.28854874304642L55.8252765,109.83508616244639L56.01162525,126.89729213085818L56.146878375,142.91206879557942L56.33127346875,104.89990163118195L56.81938696875,97.47074619225653L57.0055854375,86.72524816716431L57.4053335625,100.89271074743888L57.8633908125,88.59706277884908L58.01772965625,101.91659334003045L58.10278884375,82.47537655699665L58.58744587499999,91.88628097667717L58.6577775,63.62529569424241L58.740281906250004,81.5752867447506L58.95608578125,78.03043184937859L59.038139343750004,76.09139622161007L59.09584734375,48.30374373322073L59.47305328125,66.51264782207173L59.584862531249996,83.15466835867323L59.7833840625,72.21260359219426L60.09446625,86.27254416493027L60.503832375,87.28158165821687L60.585585375,114.56052516704462L60.6520096875,82.7098572663734L60.73902253125,92.01454192470625L60.942052499999996,117.14945443281431L61.18445615625,84.12600157474944L61.26320353125,59.38042286138793L61.336991625,85.9350913051792L61.612908000000004,80.41524494393303L61.70773546875,70.71413898433136L61.85561221875,105.49813402442926L62.38941121875,97.79797931136281L62.59409428125,113.63124468331546L62.905927875,102.24679084177356L63.01488178125,102.70124459045013L63.26555090625,89.58633079097622L63.33588253125,62.367222942664L63.82249321875,80.88712094963721L63.9052981875,77.65400515945156L64.05843478125,95.93074082222L64.26867825,72.51936522975434L64.3525351875,53.03159278067562L64.464645,55.735281251029576L64.80563315625,83.94119884431318L64.91593959375,92.68808576783931L65.2650429375,104.1543829150081L65.353708875,83.69944745450942L65.5403581875,92.55584775761666L65.63278115624999,90.71854872341632L65.84527884375,83.03179615170872L66.1895731875,78.82714249498467L66.297475125,89.89069694475661L66.38719303125,109.30596122878187L66.5965348125,99.8808607921437L66.6939170625,108.0888308533026L67.05188700000001,65.80634047675653L67.13739703125,82.7683182407858L67.21434103125,72.00127007770985L67.36777818750001,79.47519473250729L67.4753795625,90.24518151868149L67.55187271875,76.09111429071878L67.63001896875001,95.07583951702316L68.43853209375,112.14223421581167L68.521637625,121.477552116049L68.9769898125,113.22047100747878L69.59780165625,75.2950976410909L69.70390021875,67.91341840967674L70.1065036875,77.23913987009317L70.19682271875,75.65855950894097L70.26655321875,48.06698205139071L70.52623921875,59.7013891821107L70.71980146874999,46.020159882614564L71.12105240625,58.581777455790174L72.05174418749999,65.45298226831723L72.12628368749999,89.25678130076953L72.22171228124999,102.27745937152092L72.33021534375,109.39977027622196L72.52332675,73.20517434109341L72.63363318750001,66.77023036457808L72.89707621875,89.97731600942421L73.1463928125,95.98984185715504L73.83678487499999,105.9604434958638L73.9218440625,91.36911259223751L74.0312488125,90.06940458795391L74.12863106249999,82.67671430961079L74.34714,78.63291272735711L74.45338884375,76.42095326186433L74.72028834375,75.21101143423978L74.8247338125,81.23092325452917L74.90904159375,104.56906502022746L75.12574715625,97.28977856606441L75.3257715,86.62625887563723L75.3994093125,60.74806360497358L75.77135540625,80.00144079192054L76.42357603125001,63.806038113180534L76.69152749999999,68.31065284790976L76.8006316875,70.77467710780664L76.99810125,98.84949837797022L77.179039875,107.5246756127497L77.46382284375,85.54299756017409L78.66682425,80.20076966541524L78.97865784375,77.27857100698213L79.07483784374999,102.40712834081923L79.18694765625,102.78894920242811L79.39042846875,109.67955521372818L79.57557496874999,113.4487167019093L79.66078443750001,95.4651980359444L79.8832006875,85.62821332566158L80.37988021875,106.97438268913689L80.480418375,98.60548733095789L81.10423584375,127.43645157003395L81.27480506250001,143.20698900880856L81.4040469375,125.10647298781828L81.50969465625,101.8419907243366L81.624960375,102.47981892621212L81.71648165625001,102.82871095263802L81.7947781875,123.064804891093L81.86240475,87.36169827542788L81.972410625,87.87734895665903L82.0965429375,94.8411598792925L82.16492090625,118.69561445397301L82.33954771875,111.69875110632323L82.55009175,134.5984668551588L82.61786859375,93.67061136977186L82.7271230625,77.96482441926521L82.90445493749999,82.73725895733806L83.330352,78.66603064966392L83.58958715624999,76.43906876536617L83.757751875,95.2661706146553L84.16275984375,98.88284532621644L84.2672053125,100.86116639344039L84.34865775,101.94330801721189L84.58985915625,102.5352394854149L84.80716584375,102.85902599852196L85.0606903125,89.67263722119151L85.22254321875,75.77793255999177L85.29137203124999,48.132279110315494L85.58261709374999,59.737106673342566L85.759498125,66.08494735031839L85.87446328124999,82.92071620062416L85.9906306875,78.76638176174141L86.07268425000001,76.49396082367255L86.15173218749999,61.887446570548875L86.271656625,67.26118327409024L86.436364875,96.92761725092737L86.500084125,73.06465663625725L86.96520459374999,73.37511718003273L87.06258684375001,66.86318909747789L87.32167171875,83.34641443632042L87.43949221875,78.99923869666728L87.52425084375,89.984833567077L87.85577128125,89.31220396119113L88.04257087500001,95.62602556677155L88.18488721874999,112.44318598502403L88.3843104375,114.96042273380814L88.60056515625,109.65560123539306L88.83755868749999,106.75386387576L88.9457611875,91.80311354004073L89.04464625000001,90.30680310640228L89.30929153125,96.17007129920204L89.73398634375,86.01377900066352L89.85932090624999,80.45828711336294L90.09436078124999,90.78293305100954L90.46795996875001,83.06701437890221L90.85042575,105.5734068652595L91.35672328125,117.88440355529696L92.04771646875,97.89151874474744L92.166288375,93.63716075337685L92.32483509375,118.03702693209715L92.4394996875,111.33850373185714L92.524558875,80.94741154132586L92.6312585625,77.68698411310524L92.70654946875,55.858280309868576L92.83188403125,63.963229329498105L93.04648565625,68.39663644323547L93.16490728125,70.8217101344498L93.59651503125,105.55697544354403L93.66654609375,84.46666556761859L94.03713965625,79.61201606548737L94.30223578124999,90.32002278782159L94.5001561875,96.1773024649384L94.5906255,112.7447344483213L94.6672689375,88.39836974323177L94.991575875,95.12615824954777L95.10413653124999,85.44275856250263L95.18047940625,113.55468893368894L95.31994040625,102.20491484672785L95.41852490625,95.99658842116014L95.60246915625,79.23713386637459L95.69684578125,83.43321222490691L95.79062128125,79.04671708702408L95.989443375,90.01080424660216L96.09719503125001,96.00815992289138L96.19788346874999,92.6069634778216L96.33028125,84.0647590223684L96.41488959375,79.39217318523552L96.52489546874999,83.51801873232384L96.78698596875,79.09310624658114L96.917580375,90.03617911687988L97.17666525,122.74903997693329L97.527121125,107.23422486738251L97.8225740625,105.42937100245824L97.93874146875001,97.76036593834465L98.06257321874999,100.24717016827452L98.2595919375,94.92570208204617L98.4585643125,92.01485903887925L98.5276936875,77.05912789426695L98.71629665625001,75.56009295816402L98.9532901875,74.74012084811572L99.34837959375,87.65509610391929L99.75053221875,88.03783756884386L99.85061953125,81.56544715015758L100.03095703125,51.29804959113622L100.11541509375,81.51403312635149L100.2171555,98.04217612011426L100.32971615625,107.08307033770251L100.43912090625,98.66493947472327L100.54311553125,94.06022189267362L100.88245059375,98.22319137529247L101.000421375,100.50033568228498L101.56352521874999,101.74593361820988L101.73694978125,102.42727568916081L101.8459036875,102.79996980197096L101.935771875,89.64033348167813L102.03661059375,89.12376241447794L102.17847609375,55.43244804071941L102.49797403125,63.73029907827352L102.62721590625,68.26922359581562L102.93378965625,70.75201530691115L103.04469721875,85.47360237288039L103.12539825,100.20806049796558L103.36149009375,88.22255909238717L103.5518964375,115.07523982353578L103.79880853125,109.71840618347407L103.9179815625,93.42471818236032L104.16609590625,84.51207084575111L104.45163028125,99.68210275262584L104.58628228125,101.29836020568634L104.67239343749999,115.54595303251043L104.86400203125,109.97588630878319L104.93854153125001,73.52030981090442L105.03953053125001,53.57910946656473L105.32476434375,82.76177287821089L105.44453850000001,85.36118976438135L105.555746625,80.1013208011166L106.07331525000001,97.26942247821079L106.49455359375,99.9786240955813L106.57510434375,88.09705738028296L106.72583643749999,68.23434038701478L106.94915437499999,97.45993419169709L107.13850875,86.7193340028583L107.242503375,87.52597569956349L107.34093759375,81.28545870766125L107.44132546875,64.5083959130907L107.55463753125001,68.69484256446061L107.663290875,84.34832888275996L107.89216921875,72.8655358988697L108.05447296874999,53.22094813668173L108.22609415625001,95.9293586307649L108.5418350625,105.9273591710284L108.79400700000001,104.71451546655253L108.9163359375,104.05108996020424L108.98531503125,76.96119620823171L109.40354775,62.14302432590276L109.59951450000001,60.71923430626882L109.70876896875,73.30392116552903L109.9039843125,106.91474487754438L110.19958753124999,118.61811544801678L110.5901685,98.29285915006518L110.88291637500001,100.53844395508565L111.15357290625,81.72152884343184L111.2634285,84.79217627735723L111.46856240625,73.10832042371439L111.67805446874999,66.71725127177177L111.88664484375,63.22133644565916L112.40691853125,81.35432103577556L112.63534603125,111.31831360656923L112.74369881250001,114.34511754279337L112.87158815625,109.31902929590798L112.96596478125,119.93325902486166L113.26803009375,99.01224268659934L113.8795245,120.97719674956983L114.08255446875,92.9015266220147L114.20127665624999,84.22588506224204L114.3024159375,86.1620591290464L114.38912821875,93.90289634358838L114.46547109375,78.09188429994285L114.94486828125001,76.12501071206874L115.16968903124999,81.7308808595016L115.25054034375,91.47904183014737L115.54238653125,90.12953588109062L115.65389521875001,82.70960612695656L115.73760187500001,65.28740455144525L115.85016253125,69.12096028964055L115.97339315625,71.21791527843337L116.176423125,92.41019965730305L116.24765643750001,77.27537921254478L116.3465415,89.04188242926199L116.4352074375,108.84165968880632L116.62786799999999,106.30863784977704L116.9239220625,71.51432490382804L117.121391625,85.89058572239394L117.19112212499999,67.02740039014948L117.35387671875,56.70923801341175L117.4973953125,64.42870319333623L117.78338053125,68.65125064675492L118.049528625,70.96098410377495L118.13188275,52.17915830476488L118.764867375,61.9507495927064L118.83534928125,60.6140600272104L118.9160503125,53.201140834884086L119.02290028124999,55.82802403668161L119.15770256249999,63.94667914806483L119.286643875,68.38758349399146L119.40175931249999,77.49850817121333L119.61019940624999,69.11868396965369L119.66925993749999,44.48967013140057L119.7516140625,77.78984956187612L120.0323394375,82.64154771034623L120.15181303125,91.97717659755939L120.332601375,117.12901559886498L120.44125471875,117.52357153257914L120.66562462499999,104.3758936283208L121.30236628125,97.18411381469147L121.38802659375,73.20496025663624L121.68618459375,60.08836326038002L122.44255012500001,66.27708470342787L122.75723906249999,56.298815332775035L123.16074421875,57.52245198702795L123.44703,78.23703123690429L123.5429094375,102.93140608658665L123.6619321875,109.75747912936289L123.8506854375,120.1730910837615L123.94942021875,105.82518082281754L124.09218740625,91.29512391008119L124.42641290625001,63.301932778814404L124.51477828125,54.671407230011496L124.766499375,76.67750975481627L124.95495206250001,102.0783478358845L125.06029921875,95.92735626622883L125.23702996875,85.88101387762715L125.402489625,67.02216459106207L125.54360371875,70.06987403131096L125.74377834375,85.10047109512708L125.97611315625001,79.95870768903451L126.09047718750001,77.14616310590188L126.22648171875,88.97120121892833L126.3381406875,82.0759970667538L126.6296863125,111.71307039551432L126.72601659375,94.51579950634634L126.7974001875,111.83589232997144L127.01485715624999,74.53773310449438L127.10652871875,94.22614000815842L127.875517875,104.99569858446266L128.18494696875,84.15964712570107L128.29916071875,72.76232697775848L128.48490834375,93.2549928568339L128.68718690625,77.73748109268814L128.75992303125,95.9764021577004L129.0552256875,92.58959198026211L129.1285629375,77.37350681320338L129.337453875,82.41380822682225L129.4802210625,78.48910310007176L129.57023953125,62.978789395739255L129.679494,67.85814779946936L130.0380650625,70.52715684630974L130.80164409375,105.39585479493142L130.86791812500002,84.3785325728275L131.00362209375,79.56380731733663L131.20049053124998,83.61190260258313L131.41990115625,105.87146072361298L131.5703326875,104.68393901581629L131.68379503124999,104.0343646416515L131.88276740625,103.67904745898338L132.13463878125,90.12118896006392L132.24419381250001,96.06854036115496L132.37584018750002,99.32174157755176L132.6523576875,114.46474264292081L132.742225875,129.42971422567769L132.85087921875,130.93380368144568L133.32336346875002,111.7112906137508L133.5540451875,121.24182596572169L133.6231745625,93.04627880324976L133.93019915625,77.62331450537762L134.1834230625,89.23220303444155L134.78259440625,108.94576505983953L134.8756185,93.00208348773222L135.10389571875,77.59913966778952L135.34254234375,89.21897939828087L135.815176875,68.84803173085965L136.0297785,71.06862335678022L136.24783659374998,85.64678697615877L136.50902540625,80.25754247595886L136.681398,110.7183757343495L136.90351368749998,114.01695152668918L136.99804059375,122.50302248509897L137.1169130625,120.46315329934914L137.25772659375,112.66559485474399L137.38095721875,108.40033038554495L138.06113015625,99.3854807208931L138.19457990625,81.09085795432853L138.895341375,77.7654493010177L139.09326178125,49.219450767656696L139.2839686875,73.6952895699082L139.3915700625,80.40182339473978L139.50172621874998,64.02504739692266L140.556850875,81.79395092611671L140.77926712500002,78.15004115658583L141.026930625,116.24732251265245L141.34146928125,123.72303541442089L141.445313625,121.13050037168824L141.6812551875,106.34888370331346L141.81485521875,111.62683938571246L141.91554365625,127.8773811439847L142.004359875,136.76642748575964L142.23939975,114.90173583471054L142.324158375,89.57824950158665L142.56686259375002,95.7715524773679L142.70331796874999,85.79578920512024L142.788828,73.65729669520077L143.13387375,73.69929129227482L143.25935859375,80.40401233687433L143.49064143750002,77.38974474827026L144.36482746875,95.78619037730384L144.4770875625,92.4855461363852L144.58093190625,90.6800937366027L144.6598295625,76.32901127392168L144.9898471875,81.84246916683516L145.05792459375,104.90358063425883L145.173490875,90.79100860693958L145.4467021875,69.70793170799595L145.57278815625,78.2207386442738L145.7021803125,89.55899403841777L146.075178375,95.76101973901451L147.31394671875,79.10827779724093L147.7177524375,90.0444779550908L147.98495250000002,82.66307944143468L148.09360584375,112.03420445446476L148.2828099375,121.41845983659223L148.35765,93.14289753061594L148.7041985625,111.08491494924692L149.03451675,127.58094847723807L149.151135,129.92252881704923L149.265949875,111.15812326292593L149.37941221875,107.57574342482049L149.48881696875,98.9344316533768L149.58499696875,74.16238411439711L149.7210015,73.97557411057522L149.81913515624998,73.87338903848465L150.0374938125,73.8174938040511L150.20024840625,107.19566911081594L150.3933598125,98.72653100361633L150.64042218749998,87.41216245897813L150.90055903125,81.22320286506104L151.14942478125,71.15609196718839L151.292943375,65.64938230605205L151.42383834375,69.31896212141048L151.53444534375,78.00797228041152L151.677663375,76.07911083738509L151.80089399999997,75.02402362804966L152.74706475,87.81039092454316L152.86233046875,88.12278383572512L153.083093625,81.61191275814163L153.19475259375,71.36871627870347L153.57255965624998,72.4474378044508L153.6694910625,86.40099847903458L153.8047441875,94.03359616803192L154.02099890625001,84.84512710391346L154.448849625,79.81903452584065L154.767445875,63.706261885634845L154.99121465625,68.25607525144225L155.21874046875,70.74482316253894L155.3466298125,85.4696682699088L155.5365853125,86.84240854364012L155.62540153125,100.95679747337114L156.0204909375,95.313868217934L156.14883112500002,92.22718591520992L156.24486084375,83.85702069561981L156.48891759375,92.64204032050404L156.6408519375,84.0839460553157L156.76273003125,86.0844184922577L156.9504313125,73.81517691526496L157.0904934375,67.10390177264992L157.185170625,56.75108426963949L157.2708309375,44.406343095492815L157.3528845,84.42601967323458L157.438845375,79.5897827612593L158.03816700000002,83.62611117040883L158.1316419375,79.15223281021363L158.37329418750002,90.06852134718686L158.8457784375,89.35798117691121L158.94751884374998,95.65106570377043L159.24267121875,92.41163293996243L159.62874375,110.68491321815945L159.87415303125002,113.99864753033322L160.13534184375,95.76601019909226L160.36331850000002,105.83800757890346L160.47978646875,97.98389014566021L160.5980578125,100.36943790967612L160.69574062499998,115.03783253659283L160.93438725000001,89.6526943975163L161.27447371875,82.44877383544141L161.3924445,78.50822928798645L161.56842384375,49.62575142052859L161.6608468125,80.59928602702914L161.76378946875,104.22355945678494L161.9791425,103.78253702286135L162.43434440625,70.13254775150516L162.6539053125,65.08950362007333L162.75294065625,82.37620848018013L163.01172496875,65.10503603865853L163.11211284375003,48.975954713146194L163.4071149375,53.51684722809097L163.48210528125,89.40946543376576L164.13432590625,82.31572759226988L164.2384708125,71.75370299297161L164.36335453125,72.65802553715548L164.496654,73.15268996882403L164.66076112500002,100.15027141294675L164.85612675,81.50919846288187L164.9712421875,71.31253155919637L165.0761385,59.053204762880426L165.20507981249997,65.71085300529559L165.44057053125,82.71608659389668L165.56590509375,65.29094936686148L165.86676815625,49.07764930367324L166.19062424999998,46.89072416910926L166.39996603125,72.42147612050276L166.75462978125,79.705047437915L166.85787299999998,77.00741094853953L166.97689575,68.85005378885111L167.06105325,51.02447942250157L167.52677484375,74.68264024410836L167.95146965625,87.62365421352727L168.160510875,88.02063885479942L168.256690875,61.510789453575285L168.68935059375,60.37340183110568L168.77726512499999,46.3877508016148L169.12742043749998,65.46459968848329L169.46600409375,62.53613602960037L169.71757490624998,60.934266408191405L169.92346021875,46.69454372528068L170.0212933125,78.99591541772855L170.19035971875,89.98301573349751L170.55914990624998,102.67470960622313L170.77044534375,82.89006615460406L170.8863121875,85.43136618656843L171.1514083125,86.82145730405294L171.286360875,94.26358714531695L171.37863356249997,111.69793216848836L171.64057378125,94.50751889616315L171.75869484375,105.14961283620124L172.1528825625,90.9255882214021L172.73582353125,109.87204675710693L174.2327750625,100.1905095761375L174.310019625,61.48595873814722L174.47788378125,67.04156942976653L174.5670005625,56.716988478082285L175.0406870625,77.796442697511L175.41188175,82.64515415553852L175.51362215625002,71.93389932307959L175.722663375,59.39309292972452L175.89308231249998,65.89677183255932L175.9802454375,69.45428419240996L176.094158625,84.76374345324824L176.57941678125,93.13801766892679L176.689272375,111.08224566490296L176.82858309374998,94.17073837870191L177.06181959375,91.60189389314995L177.14793075,76.83323595955304L177.26620209375,62.073030069875514L177.54602578125,67.36269744822191L177.78031425,56.89264550417738L178.50091284375,91.25602709078501L178.69988521875,110.0527968186594L179.226621,93.60762985980669L179.3441409375,84.61212353331426L180.46463793750002,113.10033157272291L180.57148790624998,95.27463137027942L181.00399734375,85.52397335954285L181.48609959375,73.50861342766993L181.80424499999998,107.02671154493545L182.2349510625,91.95236121507969L182.332633875,123.79719158464857L182.44158778125,107.80756379680278L182.83697775,99.06123739685111L182.93751590624998,80.91349685607757L183.24965006250002,50.94143278027444L183.478378125,54.59196373081011L183.61152731250002,49.90705416075315L183.75143915625,60.707908625931964L184.60864340625,66.61597601838479L184.72135434375,56.484188882056486L184.84428440625,77.66910131848489L184.97638162500002,89.25724842121123L185.29993715625,95.59596488640254L185.445259125,99.06324279286218L185.53076915625,80.91459380769562L185.641827,91.0325328128095L185.75979778125,109.9305454486068L185.92029815625,106.90425836038791L186.06096140625002,111.9306293231322L186.18569484374999,107.99830423975331L186.29344650000002,79.12032241914505L186.695599125,103.41456636327234L186.93665024999999,83.29476780070998L187.528758375,58.92573798698835L187.65138787499998,79.00462867888264L187.74741759375,76.6242818873488L187.9573605,115.41273219237979L188.92712540625,123.26651450923175L189.10385615624998,94.15378343654977L189.69626484375001,84.91086953979273L189.81679040625,86.53674563826662L190.21653853125,60.69909986413184L190.4499253125,93.33815762568011L190.54866009375,77.78297222124702L190.82878434375002,82.63778580502213L190.94164556249999,91.9751188353471L191.14677946875,70.35564000293486L191.28022921875,78.57503508160536L192.098510625,83.07104418963813L192.22925531250002,92.21211117173206L192.39486525,97.21227481093743L192.9923835,106.62911432158278L193.15273359374999,105.09837553390578L194.15435812500002,77.53406141704647L194.28194690625,82.50163159512442L194.63946600000003,71.85539248253305L194.74030471875,59.35014968794559L194.8952446875,59.191531879306226L195.145012125,79.15001793798052L195.36382162499999,96.74905981207533L195.64229278125,99.69398571720521L196.04143978125,107.98661018731124L196.19562834375,99.15917577245925L196.46718656250002,87.64881914753522L196.61160684375002,81.35265407370177L196.83312140625,77.90865177831486L197.09070346875,76.02478252273824L197.20221215625,74.9943060399378L197.41951884374998,74.43063540384598L197.50638140625003,54.07705756590373L198.01312978125,36.26190048854937L198.14883375,59.9257595672365L198.36088059374998,46.142890483278364L198.48471234374998,72.01241109435327L198.5897589375,106.20828886861123L198.74049103125,98.18643401113034L199.14114084375,87.11672940408829L199.20906796875,67.6981009840363L199.35769612500002,70.43961123826786L199.99969762499998,78.62096734733251L200.29409859375,76.4144191389909L200.413271625,68.52568726902801L200.52628312500002,84.25580093615832L200.816025375,86.17842311207859L201.025216875,87.23009744230698L201.27934246875,107.85061330094192L201.53632340625,79.03953547561522L201.64903434375,63.27987590516152L201.8226091875,74.70459212012335L202.04502543750002,60.90866188970749L202.19380387500001,60.04403805366998L202.27285181250002,46.2075888153575L202.4093071875,65.36605108200054L202.52096615624998,75.84572994185429L202.63217428124997,54.85111427819429L202.84001325,56.7305595101723L202.99705715625,64.44036605206425L203.40657356250003,82.02113023047914L203.512672125,58.229058236072106L203.771757,65.26004485513144L203.87319684375,102.51474453575689L204.22124821875,82.80256526105903L204.36191146875,65.33825319779929L204.48138506249998,75.83052449919622L204.60416484375,94.93329690106032L205.063574625,92.01901340488L205.48691690625,83.74315033246937L205.69746093749998,52.489253231860744L205.8393264375,62.120371517827834L205.95429159375,67.38859322025183L206.37507909375,50.22506049147775L206.44931803125,34.154858088838324L206.6616654375,38.72795737459458L207.112208625,54.59294268390323L207.21334790625002,49.90758964809507L207.38947753125,67.389951537508L207.51962109375,70.27105349101689L207.76758515625,91.89226625958622L208.25013825000002,76.99206964399366L208.355335125,88.88691209526453L208.5936811875,102.0751409161097L208.7439624375,102.60735208111201L208.8750076875,76.17147158836826L208.95059915625,48.34754495883746L209.2651378125,73.21835709248407L209.65601934375002,80.1409413295888L209.78676403125,57.20059490728508L209.85874875,37.97047541428495L210.00737690625002,47.49685005161385L210.15825928125,66.07127697823276L210.7087395,69.54973850709332L210.86112468750002,98.17945696338005L211.55286928125,93.79466295896889L211.89040096875,78.03268063855599L212.02520325,62.72912630929012L212.19126403125,67.7215820911817L212.86813078125002,70.45245540387639L213.28350815625,85.30974310592038L213.5721984375,66.70967947893844L214.07398753125,83.26244467497933L214.2839304375,78.9533072372137L214.44007265625,96.6414590587559L214.585394625,112.99862810513947L214.7098275,121.9459995735113L214.91225634375,93.43146176671068L215.0647918125,71.15225958639076L215.2295000625,72.32903599375574L215.67508396875002,59.609232688584385L215.8690970625,52.65150028065567L216.15959071875,68.89087065351865L216.31873856250002,71.0920562474747L216.47412937500002,72.29610476736866L216.97291284374998,86.31821930775065L217.34636175,93.98831596133961L217.47334940625,111.54735883085277L217.65458859375,107.78865528047646L217.78563384375,72.32389443842062L218.9672953125,79.65167025781608L219.12509062499998,97.0234636310254L219.66745565624998,73.11708460617089L220.49174831250002,86.76729527957548L221.15974846875,80.87046051792778L221.48585878125,91.0083919033065L222.09269446874998,116.59909037110864L222.2314040625,117.23370243299642L222.5025114375,77.49033523084906L223.205527125,89.15946337127444L223.42614,82.17897646408711L223.57867546875,98.40590012585565L223.88013965625,60.50977736884305L224.04514846875,66.50759822075715L224.21481599999998,69.78840622675415L224.89799456249997,64.90125820603453L225.31712896875,68.90973823870087L225.81140399999998,84.46587681656938L226.13706346875,119.70208461866345L226.2805820625,98.8857902864089L226.58430046875,80.81752728666568L227.30985834375002,90.97943742580611L227.62544896875002,83.17450227191594L227.75949984375,65.54170274273804L228.2877384375,62.5783114002777L228.79163146875,74.32083633595191L229.38434071875,74.0622474757657L229.73690053125,114.01129936924383L229.894846125,102.45468075497637L230.3411814375,82.76971037297207L230.99791050000002,65.32028157401572L231.1707339375,75.82069402098661L231.29742103125,108.29141962947966L231.45356325,119.37115653732539L231.95189587500002,125.43177262591698L232.19129390625,128.74692962637658L232.289127,97.15157050562802L232.51890703125002,59.82365906657853L232.7724315,59.45054150941846L232.92601893749998,92.65519620565189L233.28774590625,84.09114232449157L233.439079125,66.04310485149689L233.93155078125,69.5343283537688L234.14495015625,64.76227760951154L234.47707171874998,68.8337158524028L234.76951903124998,64.37904257126435L234.95406440624998,61.94233628648159L235.04363203125,94.01820794870544L236.26361521875,104.88195974794186L236.4413979375,84.09743198212422L236.68695749999998,72.72829529422195L236.87105203125,59.82762752593939L238.06158009375,59.45271225668884L238.24417181249999,52.565883604408796L238.367703,82.20753833161162L238.5768945,91.73977346739156L238.71440184375,96.95390608666317L239.2294156875,99.80603662940476L239.63712871875,81.3209020362844L240.17513559375,84.57303341384755L241.16669128125,99.71544927737462L241.41525646875,101.31660075472392L241.57169925,82.14718061283398L241.753840125,85.02500779522019L242.34639909375,99.96267926398545L242.57602884375,101.45183555740003L243.22945171875,75.53940404989781L243.91022578124998,94.77405401529411L244.07162784375,118.65890754636587L244.65772471875,104.99692242786213L244.79598346875,130.93256656804058L244.92357225,105.02886391271821L245.19843665624998,90.85953856025685L245.37306346875002,109.83591759246049L246.02137678125,100.1707469230759L246.24364275,108.24739856692253L246.45959690625,126.02882701610662L246.67044149999998,115.71001837781031L247.45911750000002,130.11088005266225L247.644264,111.26115138880624L247.90349915625,80.90509980967704L248.462395125,64.30033959589333L248.83554346875,75.26278575895365L248.95636959375,61.21399381014764L249.12979415625,86.93805461415077L249.53510268750003,94.32736587394047L249.76368046875,71.64231913304542L249.93725531249999,85.96059856577584L250.5485994375,93.7926974154794L250.81234303124998,84.71335548626722L251.74408678125,79.74695545098817L252.0982996875,90.39383463169052L252.29501784375,109.58117754353472L252.60399609375,120.07665411631349L253.516053,119.13592980162349L254.16932559375002,111.93960360148805L254.470038375,94.63971317001396L254.70613021875,71.81317310399763L255.0420088125,45.963555687886696L255.471512625,38.50556496127402L255.59098621874998,74.51654403381688L255.85518065625,67.48754958649783L256.8513950625,70.32443962381431L257.06284078125,71.87621847422643L257.51007778125,52.67979150540185L258.1600441875,75.58809595345481L259.270622625,74.75543848653979L260.27991149999997,54.25472485213727L260.47662965625,49.72258449411909L260.66748684375,33.88000371828315L260.95888218749997,51.94111203390088L263.46151584375,41.775288282543784L264.0492658125,76.30508269055146L264.54925153125004,75.14763023173164L265.1258806875,74.51450373675722L265.44102046874997,100.89518354400619L265.5698115,75.2349153985714L265.93454409375,67.88049872301855L266.17319071875,57.17588280149114L266.38538784375,51.32045789241566L266.687904,68.16279046715138L266.96727684375,70.69379638553178L267.18758915625,45.3512566228859L267.417068625,51.534137372718604L267.79953440625,54.91617314287707L268.22422921875,63.44789670915377L268.45235615625,74.7964994999071L268.74149728125,74.32243522644919L269.5321269375,74.0631220688677L270.03692165625,80.60302777167064L271.09655475,77.49860619110383L272.21419640625,89.1639875865338L272.81171465625,62.136201209833985L273.26255840625,67.39725206177918L273.982555875,76.95679687779322L274.96284046875,102.23111789215288L275.84709534375,96.01092148700764L276.09566053125,119.33547405339317L276.7492336875,105.36700430720607L277.252675875,91.04450135604172L277.45780978125,96.57359224175482L277.61290003125,126.32500495623988L278.51458753125,109.19027771106322L278.96543128125,106.49933190795157L279.52072050000004,78.30038455364951L279.85960471875,56.19381035084629L280.4371355625,70.82851426191293L280.85206209375,98.87894730126636L283.24544128125,94.1772841737927L283.44651759375,125.01422444306459L284.0967845625,95.10978077035634L284.3922375,65.38855008138492L285.2124725625,75.85803689451755" style="fill: none;" fill="none"></path></g></g></g></g><g opacity="0.2"><g><g><g><path stroke="rgb(0, 119, 187)" stroke-width="2px" d="M30.63768815625,103.25L30.723949593750003,44.25L31.079965875,118L31.182006843750003,103.25L31.38473625,59L31.47370275,118L31.56988275,59L31.86819103125,59L31.96497215625,88.5L32.06686284375,118L32.468564625,162.25L33.359281593750005,118L33.43832953125,59L33.63279346875,88.5L34.07462034375,103.25L34.257362343749996,132.75L34.46444990625,73.75L34.535232375,162.25L34.728043218749995,88.5L34.9358821875,73.75L35.07804825,103.25L35.33097159375,14.75L35.44458421875,73.75L35.55158446875,73.75L35.66369428125,88.5L35.72861578125,44.25L36.07486378125,88.5L36.17675446875,118L36.33244584375,103.25L36.49294621875,147.5L36.60205040625,118L36.70905065625,88.5L36.8143978125,59L37.13614996875,73.75L37.256525249999996,73.75L37.33812796875,103.25L37.450688625,103.25L37.88124440625,88.5L38.361242718750006,147.5L38.47756040625,118L38.5973345625,118L38.682694312500004,73.75L38.78578725,59L38.895943406250005,73.75L39.316580625,147.5L40.08376640625,73.75L40.35186815625,162.25L40.43512396875,147.5L41.0547335625,59L41.36566546875,103.25L41.58928396875,88.5L41.701243500000004,103.25L41.779690312499994,147.5L42.1650114375,88.5L42.24150459375,29.5L42.314691562499995,29.5L42.64651256249999,88.5L42.72961809375,44.25L43.37642859375,103.25L43.59553865625,73.75L43.786996968749996,88.5L43.89940734375,88.5L43.9587684375,132.75L44.03856778125,147.5L44.42449003125,88.5L44.60633034375,88.5L44.9536303125,103.25L45.0510125625,103.25L45.19137525,73.75L45.417247968750004,73.75L45.4892326875,118L45.60299559375,88.5L45.87169846875,73.75L46.0711216875,73.75L46.179775031249996,73.75L46.418421656250004,118L46.52497106249999,88.5L46.828238625,103.25L47.29546303125,88.5L47.412682406250006,103.25L47.50435396875,44.25L47.72707078125,103.25L47.95940559375,44.25L48.14605490625,88.5L48.25485853125,88.5L48.45353034375,29.5L48.63326671875,118L48.729446718750005,118L49.34469815625,132.75L50.13517753125,118L50.226999375000005,118L50.32843921875,132.75L50.7178179375,88.5L50.9684870625,103.25L51.2426000625,88.5L51.342537093749996,59L51.60733265625,132.75L51.7024606875,88.5L51.90669290625,103.25L51.99415659375,73.75L52.116184968750005,73.75L52.297574437499996,88.5L52.5987380625,132.75L52.70979590625,103.25L52.82295768749999,73.75L53.108341781250004,103.25L53.408753999999995,103.25L53.87928459375,44.25L54.04158834375,132.75L54.22643428125,73.75L54.2963150625,29.5L54.778717875,44.25L55.04336315625,103.25L55.15021312499999,118L55.26187209375,103.25L55.34317425,103.25L55.4889470625,132.75L55.8252765,103.25L56.01162525,147.5L56.146878375,162.25L56.33127346875,59L56.81938696875,88.5L57.0055854375,73.75L57.4053335625,118L57.8633908125,73.75L58.01772965625,118L58.10278884375,59L58.58744587499999,103.25L58.6577775,29.5L58.740281906250004,103.25L58.95608578125,73.75L59.038139343750004,73.75L59.09584734375,14.75L59.47305328125,88.5L59.584862531249996,103.25L59.7833840625,59L60.09446625,103.25L60.503832375,88.5L60.585585375,147.5L60.6520096875,44.25L60.73902253125,103.25L60.942052499999996,147.5L61.18445615625,44.25L61.26320353125,29.5L61.336991625,118L61.612908000000004,73.75L61.70773546875,59L61.85561221875,147.5L62.38941121875,88.5L62.59409428125,132.75L62.905927875,88.5L63.01488178125,103.25L63.26555090625,73.75L63.33588253125,29.5L63.82249321875,103.25L63.9052981875,73.75L64.05843478125,118L64.26867825,44.25L64.3525351875,29.5L64.464645,59L64.80563315625,118L64.91593959375,103.25L65.2650429375,118L65.353708875,59L65.5403581875,103.25L65.63278115624999,88.5L65.84527884375,73.75L66.1895731875,73.75L66.297475125,103.25L66.38719303125,132.75L66.5965348125,88.5L66.6939170625,118L67.05188700000001,14.75L67.13739703125,103.25L67.21434103125,59L67.36777818750001,88.5L67.4753795625,103.25L67.55187271875,59L67.63001896875001,118L68.43853209375,132.75L68.521637625,132.75L68.9769898125,103.25L69.59780165625,29.5L69.70390021875,59L70.1065036875,88.5L70.19682271875,73.75L70.26655321875,14.75L70.52623921875,73.75L70.71980146874999,29.5L71.12105240625,73.75L72.05174418749999,73.75L72.12628368749999,118L72.22171228124999,118L72.33021534375,118L72.52332675,29.5L72.63363318750001,59L72.89707621875,118L73.1463928125,103.25L73.83678487499999,118L73.9218440625,73.75L74.0312488125,88.5L74.12863106249999,73.75L74.34714,73.75L74.45338884375,73.75L74.72028834375,73.75L74.8247338125,88.5L74.90904159375,132.75L75.12574715625,88.5L75.3257715,73.75L75.3994093125,29.5L75.77135540625,103.25L76.42357603125001,44.25L76.69152749999999,73.75L76.8006316875,73.75L76.99810125,132.75L77.179039875,118L77.46382284375,59L78.66682425,73.75L78.97865784375,73.75L79.07483784374999,132.75L79.18694765625,103.25L79.39042846875,118L79.57557496874999,118L79.66078443750001,73.75L79.8832006875,73.75L80.37988021875,132.75L80.480418375,88.5L81.10423584375,162.25L81.27480506250001,162.25L81.4040469375,103.25L81.50969465625,73.75L81.624960375,103.25L81.71648165625001,103.25L81.7947781875,147.5L81.86240475,44.25L81.972410625,88.5L82.0965429375,103.25L82.16492090625,147.5L82.33954771875,103.25L82.55009175,162.25L82.61786859375,44.25L82.7271230625,59L82.90445493749999,88.5L83.330352,73.75L83.58958715624999,73.75L83.757751875,118L84.16275984375,103.25L84.2672053125,103.25L84.34865775,103.25L84.58985915625,103.25L84.80716584375,103.25L85.0606903125,73.75L85.22254321875,59L85.29137203124999,14.75L85.58261709374999,73.75L85.759498125,73.75L85.87446328124999,103.25L85.9906306875,73.75L86.07268425000001,73.75L86.15173218749999,44.25L86.271656625,73.75L86.436364875,132.75L86.500084125,44.25L86.96520459374999,73.75L87.06258684375001,59L87.32167171875,103.25L87.43949221875,73.75L87.52425084375,103.25L87.85577128125,88.5L88.04257087500001,103.25L88.18488721874999,132.75L88.3843104375,118L88.60056515625,103.25L88.83755868749999,103.25L88.9457611875,73.75L89.04464625000001,88.5L89.30929153125,103.25L89.73398634375,73.75L89.85932090624999,73.75L90.09436078124999,103.25L90.46795996875001,73.75L90.85042575,132.75L91.35672328125,132.75L92.04771646875,73.75L92.166288375,88.5L92.32483509375,147.5L92.4394996875,103.25L92.524558875,44.25L92.6312585625,73.75L92.70654946875,29.5L92.83188403125,73.75L93.04648565625,73.75L93.16490728125,73.75L93.59651503125,147.5L93.66654609375,59L94.03713965625,73.75L94.30223578124999,103.25L94.5001561875,103.25L94.5906255,132.75L94.6672689375,59L94.991575875,103.25L95.10413653124999,73.75L95.18047940625,147.5L95.31994040625,88.5L95.41852490625,88.5L95.60246915625,59L95.69684578125,88.5L95.79062128125,73.75L95.989443375,103.25L96.09719503125001,103.25L96.19788346874999,88.5L96.33028125,73.75L96.41488959375,73.75L96.52489546874999,88.5L96.78698596875,73.75L96.917580375,103.25L97.17666525,162.25L97.527121125,88.5L97.8225740625,103.25L97.93874146875001,88.5L98.06257321874999,103.25L98.2595919375,88.5L98.4585643125,88.5L98.5276936875,59L98.71629665625001,73.75L98.9532901875,73.75L99.34837959375,103.25L99.75053221875,88.5L99.85061953125,73.75L100.03095703125,14.75L100.11541509375,118L100.2171555,118L100.32971615625,118L100.43912090625,88.5L100.54311553125,88.5L100.88245059375,103.25L101.000421375,103.25L101.56352521874999,103.25L101.73694978125,103.25L101.8459036875,103.25L101.935771875,73.75L102.03661059375,88.5L102.17847609375,14.75L102.49797403125,73.75L102.62721590625,73.75L102.93378965625,73.75L103.04469721875,103.25L103.12539825,118L103.36149009375,73.75L103.5518964375,147.5L103.79880853125,103.25L103.9179815625,73.75L104.16609590625,73.75L104.45163028125,118L104.58628228125,103.25L104.67239343749999,132.75L104.86400203125,103.25L104.93854153125001,29.5L105.03953053125001,29.5L105.32476434375,118L105.44453850000001,88.5L105.555746625,73.75L106.07331525000001,118L106.49455359375,103.25L106.57510434375,73.75L106.72583643749999,44.25L106.94915437499999,132.75L107.13850875,73.75L107.242503375,88.5L107.34093759375,73.75L107.44132546875,44.25L107.55463753125001,73.75L107.663290875,103.25L107.89216921875,59L108.05447296874999,29.5L108.22609415625001,147.5L108.5418350625,118L108.79400700000001,103.25L108.9163359375,103.25L108.98531503125,44.25L109.40354775,44.25L109.59951450000001,59L109.70876896875,88.5L109.9039843125,147.5L110.19958753124999,132.75L110.5901685,73.75L110.88291637500001,103.25L111.15357290625,59L111.2634285,88.5L111.46856240625,59L111.67805446874999,59L111.88664484375,59L112.40691853125,103.25L112.63534603125,147.5L112.74369881250001,118L112.87158815625,103.25L112.96596478125,132.75L113.26803009375,73.75L113.8795245,147.5L114.08255446875,59L114.20127665624999,73.75L114.3024159375,88.5L114.38912821875,103.25L114.46547109375,59L114.94486828125001,73.75L115.16968903124999,88.5L115.25054034375,103.25L115.54238653125,88.5L115.65389521875001,73.75L115.73760187500001,44.25L115.85016253125,73.75L115.97339315625,73.75L116.176423125,118L116.24765643750001,59L116.3465415,103.25L116.4352074375,132.75L116.62786799999999,103.25L116.9239220625,29.5L117.121391625,103.25L117.19112212499999,44.25L117.35387671875,44.25L117.4973953125,73.75L117.78338053125,73.75L118.049528625,73.75L118.13188275,29.5L118.764867375,73.75L118.83534928125,59L118.9160503125,44.25L119.02290028124999,59L119.15770256249999,73.75L119.286643875,73.75L119.40175931249999,88.5L119.61019940624999,59L119.66925993749999,14.75L119.7516140625,118L120.0323394375,88.5L120.15181303125,103.25L120.332601375,147.5L120.44125471875,118L120.66562462499999,88.5L121.30236628125,88.5L121.38802659375,44.25L121.68618459375,44.25L122.44255012500001,73.75L122.75723906249999,44.25L123.16074421875,59L123.44703,103.25L123.5429094375,132.75L123.6619321875,118L123.8506854375,132.75L123.94942021875,88.5L124.09218740625,73.75L124.42641290625001,29.5L124.51477828125,44.25L124.766499375,103.25L124.95495206250001,132.75L125.06029921875,88.5L125.23702996875,73.75L125.402489625,44.25L125.54360371875,73.75L125.74377834375,103.25L125.97611315625001,73.75L126.09047718750001,73.75L126.22648171875,103.25L126.3381406875,73.75L126.6296863125,147.5L126.72601659375,73.75L126.7974001875,132.75L127.01485715624999,29.5L127.10652871875,118L127.875517875,118L128.18494696875,59L128.29916071875,59L128.48490834375,118L128.68718690625,59L128.75992303125,118L129.0552256875,88.5L129.1285629375,59L129.337453875,88.5L129.4802210625,73.75L129.57023953125,44.25L129.679494,73.75L130.0380650625,73.75L130.80164409375,147.5L130.86791812500002,59L131.00362209375,73.75L131.20049053124998,88.5L131.41990115625,132.75L131.5703326875,103.25L131.68379503124999,103.25L131.88276740625,103.25L132.13463878125,73.75L132.24419381250001,103.25L132.37584018750002,103.25L132.6523576875,132.75L132.742225875,147.5L132.85087921875,132.75L133.32336346875002,88.5L133.5540451875,132.75L133.6231745625,59L133.93019915625,59L134.1834230625,103.25L134.78259440625,132.75L134.8756185,73.75L135.10389571875,59L135.34254234375,103.25L135.815176875,44.25L136.0297785,73.75L136.24783659374998,103.25L136.50902540625,73.75L136.681398,147.5L136.90351368749998,118L136.99804059375,132.75L137.1169130625,118L137.25772659375,103.25L137.38095721875,103.25L138.06113015625,88.5L138.19457990625,59L138.895341375,73.75L139.09326178125,14.75L139.2839686875,103.25L139.3915700625,88.5L139.50172621874998,44.25L140.556850875,103.25L140.77926712500002,73.75L141.026930625,162.25L141.34146928125,132.75L141.445313625,118L141.6812551875,88.5L141.81485521875,118L141.91554365625,147.5L142.004359875,147.5L142.23939975,88.5L142.324158375,59L142.56686259375002,103.25L142.70331796874999,73.75L142.788828,59L143.13387375,73.75L143.25935859375,88.5L143.49064143750002,73.75L144.36482746875,118L144.4770875625,88.5L144.58093190625,88.5L144.6598295625,59L144.9898471875,88.5L145.05792459375,132.75L145.173490875,73.75L145.4467021875,44.25L145.57278815625,88.5L145.7021803125,103.25L146.075178375,103.25L147.31394671875,59L147.7177524375,103.25L147.98495250000002,73.75L148.09360584375,147.5L148.2828099375,132.75L148.35765,59L148.7041985625,132.75L149.03451675,147.5L149.151135,132.75L149.265949875,88.5L149.37941221875,103.25L149.48881696875,88.5L149.58499696875,44.25L149.7210015,73.75L149.81913515624998,73.75L150.0374938125,73.75L150.20024840625,147.5L150.3933598125,88.5L150.64042218749998,73.75L150.90055903125,73.75L151.14942478125,59L151.292943375,59L151.42383834375,73.75L151.53444534375,88.5L151.677663375,73.75L151.80089399999997,73.75L152.74706475,103.25L152.86233046875,88.5L153.083093625,73.75L153.19475259375,59L153.57255965624998,73.75L153.6694910625,103.25L153.8047441875,103.25L154.02099890625001,73.75L154.448849625,73.75L154.767445875,44.25L154.99121465625,73.75L155.21874046875,73.75L155.3466298125,103.25L155.5365853125,88.5L155.62540153125,118L156.0204909375,88.5L156.14883112500002,88.5L156.24486084375,73.75L156.48891759375,103.25L156.6408519375,73.75L156.76273003125,88.5L156.9504313125,59L157.0904934375,59L157.185170625,44.25L157.2708309375,29.5L157.3528845,132.75L157.438845375,73.75L158.03816700000002,88.5L158.1316419375,73.75L158.37329418750002,103.25L158.8457784375,88.5L158.94751884374998,103.25L159.24267121875,88.5L159.62874375,132.75L159.87415303125002,118L160.13534184375,73.75L160.36331850000002,118L160.47978646875,88.5L160.5980578125,103.25L160.69574062499998,132.75L160.93438725000001,59L161.27447371875,73.75L161.3924445,73.75L161.56842384375,14.75L161.6608468125,118L161.76378946875,132.75L161.9791425,103.25L162.43434440625,29.5L162.6539053125,59L162.75294065625,103.25L163.01172496875,44.25L163.11211284375003,29.5L163.4071149375,59L163.48210528125,132.75L164.13432590625,73.75L164.2384708125,59L164.36335453125,73.75L164.496654,73.75L164.66076112500002,132.75L164.85612675,59L164.9712421875,59L165.0761385,44.25L165.20507981249997,73.75L165.44057053125,103.25L165.56590509375,44.25L165.86676815625,29.5L166.19062424999998,44.25L166.39996603125,103.25L166.75462978125,88.5L166.85787299999998,73.75L166.97689575,59L167.06105325,29.5L167.52677484375,103.25L167.95146965625,103.25L168.160510875,88.5L168.256690875,29.5L168.68935059375,59L168.77726512499999,29.5L169.12742043749998,88.5L169.46600409375,59L169.71757490624998,59L169.92346021875,29.5L170.0212933125,118L170.19035971875,103.25L170.55914990624998,118L170.77044534375,59L170.8863121875,88.5L171.1514083125,88.5L171.286360875,103.25L171.37863356249997,132.75L171.64057378125,73.75L171.75869484375,118L172.1528825625,73.75L172.73582353125,132.75L174.2327750625,88.5L174.310019625,14.75L174.47788378125,73.75L174.5670005625,44.25L175.0406870625,103.25L175.41188175,88.5L175.51362215625002,59L175.722663375,44.25L175.89308231249998,73.75L175.9802454375,73.75L176.094158625,103.25L176.57941678125,103.25L176.689272375,132.75L176.82858309374998,73.75L177.06181959375,88.5L177.14793075,59L177.26620209375,44.25L177.54602578125,73.75L177.78031425,44.25L178.50091284375,132.75L178.69988521875,132.75L179.226621,73.75L179.3441409375,73.75L180.46463793750002,147.5L180.57148790624998,73.75L181.00399734375,73.75L181.48609959375,59L181.80424499999998,147.5L182.2349510625,73.75L182.332633875,162.25L182.44158778125,88.5L182.83697775,88.5L182.93751590624998,59L183.24965006250002,14.75L183.478378125,59L183.61152731250002,44.25L183.75143915625,73.75L184.60864340625,73.75L184.72135434375,44.25L184.84428440625,103.25L184.97638162500002,103.25L185.29993715625,103.25L185.445259125,103.25L185.53076915625,59L185.641827,103.25L185.75979778125,132.75L185.92029815625,103.25L186.06096140625002,118L186.18569484374999,103.25L186.29344650000002,44.25L186.695599125,132.75L186.93665024999999,59L187.528758375,29.5L187.65138787499998,103.25L187.74741759375,73.75L187.9573605,162.25L188.92712540625,132.75L189.10385615624998,59L189.69626484375001,73.75L189.81679040625,88.5L190.21653853125,29.5L190.4499253125,132.75L190.54866009375,59L190.82878434375002,88.5L190.94164556249999,103.25L191.14677946875,44.25L191.28022921875,88.5L192.098510625,88.5L192.22925531250002,103.25L192.39486525,103.25L192.9923835,118L193.15273359374999,103.25L194.15435812500002,44.25L194.28194690625,88.5L194.63946600000003,59L194.74030471875,44.25L194.8952446875,59L195.145012125,103.25L195.36382162499999,118L195.64229278125,103.25L196.04143978125,118L196.19562834375,88.5L196.46718656250002,73.75L196.61160684375002,73.75L196.83312140625,73.75L197.09070346875,73.75L197.20221215625,73.75L197.41951884374998,73.75L197.50638140625003,29.5L198.01312978125,14.75L198.14883375,88.5L198.36088059374998,29.5L198.48471234374998,103.25L198.5897589375,147.5L198.74049103125,88.5L199.14114084375,73.75L199.20906796875,44.25L199.35769612500002,73.75L199.99969762499998,88.5L200.29409859375,73.75L200.413271625,59L200.52628312500002,103.25L200.816025375,88.5L201.025216875,88.5L201.27934246875,132.75L201.53632340625,44.25L201.64903434375,44.25L201.8226091875,88.5L202.04502543750002,44.25L202.19380387500001,59L202.27285181250002,29.5L202.4093071875,88.5L202.52096615624998,88.5L202.63217428124997,29.5L202.84001325,59L202.99705715625,73.75L203.40657356250003,103.25L203.512672125,29.5L203.771757,73.75L203.87319684375,147.5L204.22124821875,59L204.36191146875,44.25L204.48138506249998,88.5L204.60416484375,118L205.063574625,88.5L205.48691690625,73.75L205.69746093749998,14.75L205.8393264375,73.75L205.95429159375,73.75L206.37507909375,29.5L206.44931803125,14.75L206.6616654375,44.25L207.112208625,73.75L207.21334790625002,44.25L207.38947753125,88.5L207.51962109375,73.75L207.76758515625,118L208.25013825000002,59L208.355335125,103.25L208.5936811875,118L208.7439624375,103.25L208.8750076875,44.25L208.95059915625,14.75L209.2651378125,103.25L209.65601934375002,88.5L209.78676403125,29.5L209.85874875,14.75L210.00737690625002,59L210.15825928125,88.5L210.7087395,73.75L210.86112468750002,132.75L211.55286928125,88.5L211.89040096875,59L212.02520325,44.25L212.19126403125,73.75L212.86813078125002,73.75L213.28350815625,103.25L213.5721984375,44.25L214.07398753125,103.25L214.2839304375,73.75L214.44007265625,118L214.585394625,132.75L214.7098275,132.75L214.91225634375,59L215.0647918125,44.25L215.2295000625,73.75L215.67508396875002,44.25L215.8690970625,44.25L216.15959071875,88.5L216.31873856250002,73.75L216.47412937500002,73.75L216.97291284374998,103.25L217.34636175,103.25L217.47334940625,132.75L217.65458859375,103.25L217.78563384375,29.5L218.9672953125,88.5L219.12509062499998,118L219.66745565624998,44.25L220.49174831250002,103.25L221.15974846875,73.75L221.48585878125,103.25L222.09269446874998,147.5L222.2314040625,118L222.5025114375,29.5L223.205527125,103.25L223.42614,73.75L223.57867546875,118L223.88013965625,14.75L224.04514846875,73.75L224.21481599999998,73.75L224.89799456249997,59L225.31712896875,73.75L225.81140399999998,103.25L226.13706346875,162.25L226.2805820625,73.75L226.58430046875,59L227.30985834375002,103.25L227.62544896875002,73.75L227.75949984375,44.25L228.2877384375,59L228.79163146875,88.5L229.38434071875,73.75L229.73690053125,162.25L229.894846125,88.5L230.3411814375,59L230.99791050000002,44.25L231.1707339375,88.5L231.29742103125,147.5L231.45356325,132.75L231.95189587500002,132.75L232.19129390625,132.75L232.289127,59L232.51890703125002,14.75L232.7724315,59L232.92601893749998,132.75L233.28774590625,73.75L233.439079125,44.25L233.93155078125,73.75L234.14495015625,59L234.47707171874998,73.75L234.76951903124998,59L234.95406440624998,59L235.04363203125,132.75L236.26361521875,118L236.4413979375,59L236.68695749999998,59L236.87105203125,44.25L238.06158009375,59L238.24417181249999,44.25L238.367703,118L238.5768945,103.25L238.71440184375,103.25L239.2294156875,103.25L239.63712871875,59L240.17513559375,88.5L241.16669128125,118L241.41525646875,103.25L241.57169925,59L241.753840125,88.5L242.34639909375,118L242.57602884375,103.25L243.22945171875,44.25L243.91022578124998,118L244.07162784375,147.5L244.65772471875,88.5L244.79598346875,162.25L244.92357225,73.75L245.19843665624998,73.75L245.37306346875002,132.75L246.02137678125,88.5L246.24364275,118L246.45959690625,147.5L246.67044149999998,103.25L247.45911750000002,147.5L247.644264,88.5L247.90349915625,44.25L248.462395125,44.25L248.83554346875,88.5L248.95636959375,44.25L249.12979415625,118L249.53510268750003,103.25L249.76368046875,44.25L249.93725531249999,103.25L250.5485994375,103.25L250.81234303124998,73.75L251.74408678125,73.75L252.0982996875,103.25L252.29501784375,132.75L252.60399609375,132.75L253.516053,118L254.16932559375002,103.25L254.470038375,73.75L254.70613021875,44.25L255.0420088125,14.75L255.471512625,29.5L255.59098621874998,118L255.85518065625,59L256.8513950625,73.75L257.06284078125,73.75L257.51007778125,29.5L258.1600441875,103.25L259.270622625,73.75L260.27991149999997,29.5L260.47662965625,44.25L260.66748684375,14.75L260.95888218749997,73.75L263.46151584375,29.5L264.0492658125,118L264.54925153125004,73.75L265.1258806875,73.75L265.44102046874997,132.75L265.5698115,44.25L265.93454409375,59L266.17319071875,44.25L266.38538784375,44.25L266.687904,88.5L266.96727684375,73.75L267.18758915625,14.75L267.417068625,59L267.79953440625,59L268.22422921875,73.75L268.45235615625,88.5L268.74149728125,73.75L269.5321269375,73.75L270.03692165625,88.5L271.09655475,73.75L272.21419640625,103.25L272.81171465625,29.5L273.26255840625,73.75L273.982555875,88.5L274.96284046875,132.75L275.84709534375,88.5L276.09566053125,147.5L276.7492336875,88.5L277.252675875,73.75L277.45780978125,103.25L277.61290003125,162.25L278.51458753125,88.5L278.96543128125,103.25L279.52072050000004,44.25L279.85960471875,29.5L280.4371355625,88.5L280.85206209375,132.75L283.24544128125,88.5L283.44651759375,162.25L284.0967845625,59L284.3922375,29.5L285.2124725625,88.5" style="fill: none;" fill="none"></path></g></g></g></g></g></g><g transform="translate(29, 177)" clip-path="url(#clip_1)"><clipPath id="clip_1"><rect width="300" height="23"></rect></clipPath><g><g><line x1="0" y1="0" x2="0" y2="5" style="visibility: inherit;" fill="rgb(0, 0, 0)" stroke="rgb(204, 204, 204)" stroke-width="1px"></line><line x1="30.056250000000002" y1="0" x2="30.056250000000002" y2="5" style="visibility: inherit;" fill="rgb(0, 0, 0)" stroke="rgb(204, 204, 204)" stroke-width="1px"></line><line x1="60.112500000000004" y1="0" x2="60.112500000000004" y2="5" style="visibility: inherit;" fill="rgb(0, 0, 0)" stroke="rgb(204, 204, 204)" stroke-width="1px"></line><line x1="90.16875" y1="0" x2="90.16875" y2="5" style="visibility: inherit;" fill="rgb(0, 0, 0)" stroke="rgb(204, 204, 204)" stroke-width="1px"></line><line x1="120.22500000000001" y1="0" x2="120.22500000000001" y2="5" style="visibility: inherit;" fill="rgb(0, 0, 0)" stroke="rgb(204, 204, 204)" stroke-width="1px"></line><line x1="150.28125" y1="0" x2="150.28125" y2="5" style="visibility: inherit;" fill="rgb(0, 0, 0)" stroke="rgb(204, 204, 204)" stroke-width="1px"></line><line x1="180.3375" y1="0" x2="180.3375" y2="5" style="visibility: inherit;" fill="rgb(0, 0, 0)" stroke="rgb(204, 204, 204)" stroke-width="1px"></line><line x1="210.39374999999998" y1="0" x2="210.39374999999998" y2="5" style="visibility: inherit;" fill="rgb(0, 0, 0)" stroke="rgb(204, 204, 204)" stroke-width="1px"></line><line x1="240.45000000000002" y1="0" x2="240.45000000000002" y2="5" style="visibility: inherit;" fill="rgb(0, 0, 0)" stroke="rgb(204, 204, 204)" stroke-width="1px"></line><line x1="270.50625" y1="0" x2="270.50625" y2="5" style="visibility: inherit;" fill="rgb(0, 0, 0)" stroke="rgb(204, 204, 204)" stroke-width="1px"></line><line x1="300.5625" y1="0" x2="300.5625" y2="5" style="visibility: inherit;" fill="rgb(0, 0, 0)" stroke="rgb(204, 204, 204)" stroke-width="1px"></line></g><g transform="translate(0, 8)"><text x="0" y="0" dx="0em" dy="0.95em" style="text-anchor: middle; visibility: hidden; font-family: &quot;Helvetica Neue&quot;, sans-serif; font-size: 12px; font-weight: 200;" fill="rgb(50, 49, 63)" stroke="none" stroke-width="1px">-200k</text><text x="30.056250000000002" y="0" dx="0em" dy="0.95em" style="text-anchor: middle; visibility: inherit; font-family: &quot;Helvetica Neue&quot;, sans-serif; font-size: 12px; font-weight: 200;" fill="rgb(50, 49, 63)" stroke="none" stroke-width="1px">0</text><text x="60.112500000000004" y="0" dx="0em" dy="0.95em" style="text-anchor: middle; visibility: hidden; font-family: &quot;Helvetica Neue&quot;, sans-serif; font-size: 12px; font-weight: 200;" fill="rgb(50, 49, 63)" stroke="none" stroke-width="1px">200k</text><text x="90.16875" y="0" dx="0em" dy="0.95em" style="text-anchor: middle; visibility: inherit; font-family: &quot;Helvetica Neue&quot;, sans-serif; font-size: 12px; font-weight: 200;" fill="rgb(50, 49, 63)" stroke="none" stroke-width="1px">400k</text><text x="120.22500000000001" y="0" dx="0em" dy="0.95em" style="text-anchor: middle; visibility: hidden; font-family: &quot;Helvetica Neue&quot;, sans-serif; font-size: 12px; font-weight: 200;" fill="rgb(50, 49, 63)" stroke="none" stroke-width="1px">600k</text><text x="150.28125" y="0" dx="0em" dy="0.95em" style="text-anchor: middle; visibility: inherit; font-family: &quot;Helvetica Neue&quot;, sans-serif; font-size: 12px; font-weight: 200;" fill="rgb(50, 49, 63)" stroke="none" stroke-width="1px">800k</text><text x="180.3375" y="0" dx="0em" dy="0.95em" style="text-anchor: middle; visibility: hidden; font-family: &quot;Helvetica Neue&quot;, sans-serif; font-size: 12px; font-weight: 200;" fill="rgb(50, 49, 63)" stroke="none" stroke-width="1px">1M</text><text x="210.39374999999998" y="0" dx="0em" dy="0.95em" style="text-anchor: middle; visibility: inherit; font-family: &quot;Helvetica Neue&quot;, sans-serif; font-size: 12px; font-weight: 200;" fill="rgb(50, 49, 63)" stroke="none" stroke-width="1px">1.2M</text><text x="240.45000000000002" y="0" dx="0em" dy="0.95em" style="text-anchor: middle; visibility: hidden; font-family: &quot;Helvetica Neue&quot;, sans-serif; font-size: 12px; font-weight: 200;" fill="rgb(50, 49, 63)" stroke="none" stroke-width="1px">1.4M</text><text x="270.50625" y="0" dx="0em" dy="0.95em" style="text-anchor: middle; visibility: inherit; font-family: &quot;Helvetica Neue&quot;, sans-serif; font-size: 12px; font-weight: 200;" fill="rgb(50, 49, 63)" stroke="none" stroke-width="1px">1.6M</text><text x="300.5625" y="0" dx="0em" dy="0.95em" style="text-anchor: middle; visibility: hidden; font-family: &quot;Helvetica Neue&quot;, sans-serif; font-size: 12px; font-weight: 200;" fill="rgb(50, 49, 63)" stroke="none" stroke-width="1px">1.8M</text></g><line x1="0" y1="0" x2="300.5625" y2="0" fill="rgb(0, 0, 0)" stroke="rgb(204, 204, 204)" stroke-width="1px"></line></g></g></g></g></svg>