<svg viewBox="0 0 1498 400" xmlns="http://www.w3.org/2000/svg"><g><g><g><g><g><line x1="58.59375" y1="377" x2="53.59375" y2="377" style="visibility: inherit;" fill="rgb(0, 0, 0)" stroke="rgb(204, 204, 204)" stroke-width="1px"></line><line x1="58.59375" y1="323.14285714285717" x2="53.59375" y2="323.14285714285717" style="visibility: inherit;" fill="rgb(0, 0, 0)" stroke="rgb(204, 204, 204)" stroke-width="1px"></line><line x1="58.59375" y1="269.2857142857143" x2="53.59375" y2="269.2857142857143" style="visibility: inherit;" fill="rgb(0, 0, 0)" stroke="rgb(204, 204, 204)" stroke-width="1px"></line><line x1="58.59375" y1="215.42857142857142" x2="53.59375" y2="215.42857142857142" style="visibility: inherit;" fill="rgb(0, 0, 0)" stroke="rgb(204, 204, 204)" stroke-width="1px"></line><line x1="58.59375" y1="161.57142857142856" x2="53.59375" y2="161.57142857142856" style="visibility: inherit;" fill="rgb(0, 0, 0)" stroke="rgb(204, 204, 204)" stroke-width="1px"></line><line x1="58.59375" y1="107.71428571428572" x2="53.59375" y2="107.71428571428572" style="visibility: inherit;" fill="rgb(0, 0, 0)" stroke="rgb(204, 204, 204)" stroke-width="1px"></line><line x1="58.59375" y1="53.85714285714283" x2="53.59375" y2="53.85714285714283" style="visibility: inherit;" fill="rgb(0, 0, 0)" stroke="rgb(204, 204, 204)" stroke-width="1px"></line><line x1="58.59375" y1="0" x2="53.59375" y2="0" style="visibility: inherit;" fill="rgb(0, 0, 0)" stroke="rgb(204, 204, 204)" stroke-width="1px"></line></g><g transform="translate(48.59375, 0)"><text x="0" y="377" dx="0em" dy="0.3em" style="text-anchor: end; visibility: hidden; font-family: &quot;Helvetica Neue&quot;, sans-serif; font-size: 12px; font-weight: 200;" fill="rgb(50, 49, 63)" stroke="none" stroke-width="1px">-0.15</text><text x="0" y="323.14285714285717" dx="0em" dy="0.3em" style="text-anchor: end; visibility: inherit; font-family: &quot;Helvetica Neue&quot;, sans-serif; font-size: 12px; font-weight: 200;" fill="rgb(50, 49, 63)" stroke="none" stroke-width="1px">-0.1</text><text x="0" y="269.2857142857143" dx="0em" dy="0.3em" style="text-anchor: end; visibility: inherit; font-family: &quot;Helvetica Neue&quot;, sans-serif; font-size: 12px; font-weight: 200;" fill="rgb(50, 49, 63)" stroke="none" stroke-width="1px">-0.05</text><text x="0" y="215.42857142857142" dx="0em" dy="0.3em" style="text-anchor: end; visibility: inherit; font-family: &quot;Helvetica Neue&quot;, sans-serif; font-size: 12px; font-weight: 200;" fill="rgb(50, 49, 63)" stroke="none" stroke-width="1px">0</text><text x="0" y="161.57142857142856" dx="0em" dy="0.3em" style="text-anchor: end; visibility: inherit; font-family: &quot;Helvetica Neue&quot;, sans-serif; font-size: 12px; font-weight: 200;" fill="rgb(50, 49, 63)" stroke="none" stroke-width="1px">0.05</text><text x="0" y="107.71428571428572" dx="0em" dy="0.3em" style="text-anchor: end; visibility: inherit; font-family: &quot;Helvetica Neue&quot;, sans-serif; font-size: 12px; font-weight: 200;" fill="rgb(50, 49, 63)" stroke="none" stroke-width="1px">0.1</text><text x="0" y="53.85714285714283" dx="0em" dy="0.3em" style="text-anchor: end; visibility: inherit; font-family: &quot;Helvetica Neue&quot;, sans-serif; font-size: 12px; font-weight: 200;" fill="rgb(50, 49, 63)" stroke="none" stroke-width="1px">0.15</text><text x="0" y="0" dx="0em" dy="0.3em" style="text-anchor: end; visibility: hidden; font-family: &quot;Helvetica Neue&quot;, sans-serif; font-size: 12px; font-weight: 200;" fill="rgb(50, 49, 63)" stroke="none" stroke-width="1px">0.2</text></g><line x1="58.59375" y1="0" x2="58.59375" y2="377" fill="rgb(0, 0, 0)" stroke="rgb(204, 204, 204)" stroke-width="1px"></line></g></g><g transform="translate(58, 0)" clip-path="url(#clip_0)"><clipPath id="clip_0"><rect width="1439" height="377"></rect></clipPath><g><g><g><line x1="0" y1="0" x2="0" y2="377" fill="rgb(0, 0, 0)" stroke="rgb(60, 60, 60)" stroke-width="1px" opacity="0.25"></line><line x1="143.940625" y1="0" x2="143.940625" y2="377" fill="rgb(0, 0, 0)" stroke="rgb(60, 60, 60)" stroke-width="1px" opacity="0.25"></line><line x1="287.88125" y1="0" x2="287.88125" y2="377" fill="rgb(0, 0, 0)" stroke="rgb(60, 60, 60)" stroke-width="1px" opacity="0.25"></line><line x1="431.821875" y1="0" x2="431.821875" y2="377" fill="rgb(0, 0, 0)" stroke="rgb(60, 60, 60)" stroke-width="1px" opacity="0.25"></line><line x1="575.7625" y1="0" x2="575.7625" y2="377" fill="rgb(0, 0, 0)" stroke="rgb(60, 60, 60)" stroke-width="1px" opacity="0.25"></line><line x1="719.703125" y1="0" x2="719.703125" y2="377" fill="rgb(0, 0, 0)" stroke="rgb(60, 60, 60)" stroke-width="1px" opacity="0.25"></line><line x1="863.64375" y1="0" x2="863.64375" y2="377" fill="rgb(0, 0, 0)" stroke="rgb(60, 60, 60)" stroke-width="1px" opacity="0.25"></line><line x1="1007.5843749999999" y1="0" x2="1007.5843749999999" y2="377" fill="rgb(0, 0, 0)" stroke="rgb(60, 60, 60)" stroke-width="1px" opacity="0.25"></line><line x1="1151.525" y1="0" x2="1151.525" y2="377" fill="rgb(0, 0, 0)" stroke="rgb(60, 60, 60)" stroke-width="1px" opacity="0.25"></line><line x1="1295.465625" y1="0" x2="1295.465625" y2="377" fill="rgb(0, 0, 0)" stroke="rgb(60, 60, 60)" stroke-width="1px" opacity="0.25"></line><line x1="1439.40625" y1="0" x2="1439.40625" y2="377" fill="rgb(0, 0, 0)" stroke="rgb(60, 60, 60)" stroke-width="1px" opacity="0.25"></line></g><g><line x1="0" y1="377" x2="1439.40625" y2="377" fill="rgb(0, 0, 0)" stroke="rgb(60, 60, 60)" stroke-width="1px" opacity="0.25"></line><line x1="0" y1="323.14285714285717" x2="1439.40625" y2="323.14285714285717" fill="rgb(0, 0, 0)" stroke="rgb(60, 60, 60)" stroke-width="1px" opacity="0.25"></line><line x1="0" y1="269.2857142857143" x2="1439.40625" y2="269.2857142857143" fill="rgb(0, 0, 0)" stroke="rgb(60, 60, 60)" stroke-width="1px" opacity="0.25"></line><line x1="0" y1="215.42857142857142" x2="1439.40625" y2="215.42857142857142" fill="rgb(0, 0, 0)" stroke="rgb(60, 60, 60)" stroke-width="1px" opacity="0.25"></line><line x1="0" y1="161.57142857142856" x2="1439.40625" y2="161.57142857142856" fill="rgb(0, 0, 0)" stroke="rgb(60, 60, 60)" stroke-width="1px" opacity="0.25"></line><line x1="0" y1="107.71428571428572" x2="1439.40625" y2="107.71428571428572" fill="rgb(0, 0, 0)" stroke="rgb(60, 60, 60)" stroke-width="1px" opacity="0.25"></line><line x1="0" y1="53.85714285714283" x2="1439.40625" y2="53.85714285714283" fill="rgb(0, 0, 0)" stroke="rgb(60, 60, 60)" stroke-width="1px" opacity="0.25"></line><line x1="0" y1="0" x2="1439.40625" y2="0" fill="rgb(0, 0, 0)" stroke="rgb(60, 60, 60)" stroke-width="1px" opacity="0.25"></line></g></g></g><g><g><line x1="0" y1="215.42857142857142" x2="1439.40625" y2="215.42857142857142" fill="rgb(0, 0, 0)" stroke="rgb(153, 153, 153)" stroke-width="1.5px"></line></g></g><g><g><line x1="143.940625" y1="0" x2="143.940625" y2="377" fill="rgb(0, 0, 0)" stroke="rgb(153, 153, 153)" stroke-width="1.5px"></line></g></g><g><g><g><g><g><path stroke="rgb(0, 119, 187)" stroke-width="2px" d="M144.48184175,345.2950995138713L144.50487225,338.3251902786011L144.5624485,364.5787559741171L144.585479,394.3221662558779L144.4703265,376.59193849778075L146.96913575,352.65355126317746L147.7406575,351.3033238024887L150.44674125,329.39515068063406L150.35461924999998,327.688771347682L150.250982,321.2383570204082L150.26249725,309.7919602319703L150.49280225,302.43799020394454L153.09524875,314.7783591781789L153.34858425000002,320.34048240748695L153.77464849999998,318.44026888723636L159.2098465,323.45110781855635L159.19833125,320.8923836258145L162.28441825,315.43058105476L162.549269,314.7510044308042L164.714136,310.3789961429301L165.39353575,304.4646009321112L167.6850705,281.91837367783546L168.04204325,269.0994757902863L168.24931775000002,253.22474274578644L170.78267275000002,250.18216090266668L171.04752349999998,253.10940099516324L171.392981,255.2065709453463L174.09906475,258.799424061733L174.23724775,255.12367913919866L173.8111835,252.57467592320688L174.4099765,255.50898396510445L177.00090774999998,245.61156162730092L177.09302975,243.02068716513764L179.9833575,245.172733484748L179.69547625,235.75641736747036L179.6148695,224.06804143781522L180.236693,225.137319485983L180.01790325000002,216.93886792553718L182.9312615,211.94819902481177L183.1615665,205.74232066492786L183.12702075,205.21259781774882L185.90219599999998,189.85417370538022L186.22462299999998,182.1931391037711L185.8331045,174.67353968259332L191.55618375,198.25219286931522L191.78648875,206.5442507539559L194.34287425,188.30721043803717L194.3543895,179.45380876569865L194.285298,170.38805379166627L197.14108,172.87642777696422L197.53259849999998,175.65384948498L197.33683925,181.80596512004894L199.99686200000002,180.68234242071074L200.0659535,173.50170077384095L203.09446425,176.25615416638038L203.52052849999998,182.36237507298748L209.1860315,187.22340495988158L209.34724500000002,194.76850815828644L212.42181675,195.17110027657398L212.12242025,196.8159615594709L215.30062925,199.127186881318L215.196992,197.83648377755927L218.28307900000001,203.47860659577708L221.01219325000002,208.0724704072037L221.01219325000002,206.5307551902647L223.96009725000002,202.8987660233371L223.79888375000002,206.7765755730334L232.73471775,216.24392036389509L233.298965,221.10035270916467L232.96502274999997,224.0833727593109L235.8092895,231.71037602822642L235.83232,238.40028499613103L236.05110975,237.0011821129981L238.95295274999998,247.57501070045836L238.7111325,258.2543706660132L238.95295274999998,267.1504193306332L238.98749850000002,274.68466112207864L239.13719675000002,283.282187938105L238.96446799999998,291.8047685279766L241.497823,286.0020084932723L241.44024675,275.1564334947043L244.491788,274.6282663156617L244.91785225,274.0791319137813L245.2057335,268.4674564638693L244.8372455,267.1271501318421L250.8251755,265.578205483241L250.30698925,262.07208414078036L250.37608074999997,262.03789946539484L251.1015415,263.90200225897695L253.25489324999998,257.8540665369429L253.55428975,254.92234759697521L253.7270185,253.5490898447968L253.750049,258.9044331582595L255.9840075,258.5695243750315L256.66340725,255.8048786907658L256.50219375,250.85373316254618L256.8131055,257.21757731976544L259.51918925,259.441757586445L259.72646375,255.1914503321975L262.225273,254.26945842411732L262.62830675000004,259.896359396301L265.69136325,261.1146156167902L265.7028785,268.641692540746L270.96534775,264.1704747185378L274.60416675,263.49224097967755L277.1720675,251.86702494247717L276.780549,239.4720562793519L276.8496405,234.4263116631369L277.06843025,229.07811918082078L277.09146075,219.65205443075874L279.87815125000003,212.4074195110249L280.52300525,208.42714836107416L280.13148675,211.3012230346317L282.88363150000004,206.61527600182916L282.8375705,204.984511919523L283.090906,204.541785155084L283.48242450000004,196.885987670935L285.440017,193.85725922947805L288.9176225,193.33198724786763L288.65277175,192.00084379837827L288.848531,191.4328308080891L288.80247,189.59468023086478L292.19946875,181.52230333196565L294.47948825,186.4109009309472L294.99767449999996,185.8237227420142L295.1358575,189.54203000227682L294.5370645,188.3043224309638L294.6752475,194.3767357111241L294.98615925,194.21373320229208L297.63466675,198.2016350955563L297.95709375,198.44574293947682L297.65769725,198.43291045440043L297.79588025,202.07483072324894L298.21042925,198.76674726694168L298.14133775,196.12916596665534L297.876487,198.2902623290768L298.30255125,197.41584380531253L300.824391,193.1293683012348L301.1237875,184.56226127816205L300.92802825,179.7116266506856L303.57653575,175.19039616966208L306.4668635,170.01777013886445L306.57050075,175.0552341672162L309.63355725,182.38227649063168L309.21900825,189.87683531081717L312.30509524999997,189.50502359251283L312.65055275000003,190.8062831152863L312.7772205,184.917738909137L315.1723925,182.46423905186558L315.71360925,186.9590026084537L317.913022,191.34049300758977L318.511815,193.35773071874635L321.44820375,190.26423708638083L321.04517,188.7637813392105L321.736085,181.44269728689574L323.947013,180.25721612135783L326.9640085,185.8350607238409L327.27492025,197.33492879962537L327.58583200000004,213.48165947820885L330.349492,216.5997054024009L330.119187,228.28289382674882L330.26888525000004,227.97519170365402L332.836786,229.98270782583378L333.42406375,226.70634259387964L333.05557575,222.4883268075026L336.17620850000003,221.41210177220407L338.8477465,219.5977378139927L339.055021,218.24529703135192L342.5786875,215.01158629299542L345.07749675,214.35769171754302L345.21567975,216.2012904323119L344.91628325,220.24712601095962L345.00840525,221.99990118382053L345.23871025,222.79431321270386L347.80661100000003,226.49328312137484L347.88721775,227.62293761222173L347.70297375,232.80670791164388L347.622367,236.34025132349262L350.47814900000003,234.10228469026413L350.80057600000004,234.38333843418374L351.353308,237.57447740678168L353.32241575,245.26362354220473L353.6793885,243.5328550643763L357.0418415,244.98290720869224L356.56971625,239.4149866310852L359.60974225,237.9508158051937L362.52310050000006,242.29615724630915L362.361887,238.11749398370605L362.8915885,238.66961666684534L365.73585525,226.39622681519532L369.040732,226.37237977069418L371.05590075000003,227.17011111745262L371.12499225,233.60703520393616L374.1765335,236.0510281473618L374.061381,238.15023030003482L374.28017074999997,232.74392655716144L377.04383075000004,242.53595013006094L377.50444075,248.51112518327008L377.9074745,251.6098756522228L380.08385675,251.5147759470079L380.44082949999995,251.66816123672822L383.089337,254.13047550900376L385.92208850000003,257.271718629549L386.42875949999996,254.4762925341458L386.11784774999995,255.4143680487983L386.49785099999997,254.48117095199626L386.67057975,254.72956192760535L389.169389,265.41867109160376L389.14635849999996,269.5659483928924L389.27302625000004,274.92986926517165L392.0482015,275.5887441000262L391.86395749999997,270.4491209508025L392.29002175,272.6812693434653L395.05368174999995,274.923129918863L395.16883425,270.5677454633859L397.67915875000006,277.0112575037003L398.41613474999997,281.6478280008037L400.7076695,280.30993826417495L403.55193625,284.571176020988L403.59799725,288.21002995202014L403.90890900000005,288.5064518907642L403.89739375000005,286.32736142435846L404.277397,285.18922047790835L406.82226725,274.8383026849315L406.810752,262.56275699811187L412.43019400000003,252.13787866568737L412.87928875,246.1890713460565L413.19020049999995,241.75531987791516L412.69504475,234.06071374049063L415.424159,228.5705049142454L415.96537575,226.56516277753335L415.976891,220.7755387233607L418.786612,213.89265588735802L421.26239074999995,219.1106328329758L421.33148225,220.30779903732227L421.58481774999996,221.9709428118995L421.23936025,222.9303487559231L421.90724474999996,228.55577862850672L424.50969125,219.84127602438045L424.63635899999997,217.9930096103158L430.56671275,220.3077969405977L430.42852975000005,220.00615823838282L436.16312425,220.00641404773376L436.60070375,213.77271906502187L436.76191724999995,207.03310049798927L439.20315025,215.63475539560096L442.47348125,206.58839763841002L444.765016,203.65423940908377L444.86865325,208.16268750390321L445.35229375,213.2711012769395L447.67837425000005,217.3535846884028L451.06385774999995,224.60122666316929L451.167495,224.60565137977937L450.99476625,234.50133848360178L454.16146000000003,246.0557245529529L457.35118425,247.6902753988235L457.0863335,248.00342711351183L459.9421155,242.4797960483845L462.90153475,246.05684300777833L462.37183325,246.50104940920104L462.71729075,245.31183077463905L462.99365675,245.92481303170845L465.69974049999996,247.86958712678253L465.66519475,253.90911224118423L468.9240105,256.88444230975483L468.90098,259.06168470448915L468.39430899999996,260.77037337082857L468.85491900000005,263.3793366466658L471.48039600000004,256.04098100519224L471.5494875,252.8676789678363L474.63557449999996,256.61284179611357L474.53193725000006,257.0502980615296L474.78527275,257.40633152125326L474.474361,260.3559267848603L474.76224225000004,260.8944564364231L474.99254725000003,263.6491201552767L475.01557775000003,273.20850056116694L477.29559725,268.95487484049966L477.330143,259.8152102670252L477.54893275,252.27168357798027L480.56592825,251.6948277201991L480.45077575000005,246.3549002693273L483.1107985,252.47594311578084L483.225951,256.71464898818783L483.49080174999995,257.5672500675993L489.61691475000003,246.55222765223814L495.40908549999995,252.5647934564518L494.99453650000004,263.1349565519124L495.2709025,268.63361740805124L495.12120425,274.5817616729463L495.7775735,277.2344764598923L498.21880649999997,280.4363141110165L498.29941325,286.9072733689585L498.12668449999995,293.7337788353641L501.10913425,297.4028916013017L504.21825175,306.6522556519181L503.677035,304.6519997758159L507.16615575,305.19872162093395L507.25827775,309.8692704987747L506.763122,313.384577696337L506.9243355,310.2350812905522L507.37343025,304.5687091929354L507.05100325,303.53367266425096L510.13709025,305.03483489943983L512.78559775,298.3177649615267L512.889235,294.96017668298384L512.94681125,289.91936385656686L512.7740825,287.0523497857421L512.9583265,287.78073471286046L513.2346924999999,279.0121948207093L512.843174,272.5428236201625L513.2692382500001,272.78877723564756L516.021383,275.5989253761972L516.24017275,268.90110797450313L518.79655825,276.3325891537029L518.7159515000001,283.5737978868601L524.865095,287.0573103489634L524.5656984999999,288.44745910820984L524.78448825,289.0470689675499L527.24875175,284.1733283369538L528.1123955,280.6101303635579L531.14090625,275.676115282809L533.76638325,263.2548075275362L533.85850525,252.88323425541446L536.57610425,260.0206883250458L536.334284,263.03178668063174L536.69125675,264.65599707417994L537.0021685,267.1785282647199L539.8118895,264.97758523416167L542.828885,259.9115558995611L542.42585125,258.09001916171474L542.690702,248.3989411093506L545.4658772500001,243.08538520352238L545.8458805,246.54193650556002L548.13741525,240.87791273629887L548.22953725,236.6273111981493L551.3732005,236.65440575098074L551.61502075,243.8226907959417L554.01019275,235.63930099154152L554.19443675,228.05802245377544L556.93506625,228.17144323427127L557.48779825,224.58472688876168L557.51082875,224.0946867508674L557.76416425,224.44903746257432L563.2339079999999,219.1805468771586L565.997568,217.60950423660304L566.26241875,216.55519413190603L565.8593850000001,220.10200433044358L565.89393075,218.73819532849302L566.181812,207.62619370797427L569.46365825,192.68050151729784L569.452143,190.25993328196657L571.6861015000001,187.85110061886553L572.11216575,178.66324309930334L574.69158175,183.192854466402L574.8067342500001,185.9646244438072L577.697062,185.1648386127485L580.276478,180.71044438744244L580.65648125,178.54436487093986L580.93284725,171.52020725563648L583.37408025,161.70038991489582L583.869236,157.7345150033766L583.74256825,149.70602331875233L584.0074189999999,145.43914741765104L586.82865525,139.0621764660541L586.75956375,139.7363873683094L586.81714,136.3466230047693L589.6038305,137.1607902063955L592.206277,144.26612455382923L592.897192,147.53622290801943L592.436582,149.32227048077908L592.666887,156.3635026210136L595.0390285,157.80361170857554L595.5687300000001,153.07737713281347L595.8220655,142.55653401841204L598.78148475,144.11980612139936L601.6257515,139.07327482517994L601.4875685000001,138.3346503421005L604.32032,143.1040756402022L607.32580025,141.0058363244745L607.6597425,136.8675854243163L607.64822725,137.56771348719053L607.18761725,128.74019440388625L607.3603459999999,123.74720568308004L610.3312805,132.65766708439423L610.11249075,142.613373579575L610.61916175,143.699054798584L613.15251675,150.32412869132781L613.3828217500001,146.84080653604863L616.16951225,149.0984705659081L615.84708525,149.53493972442462L616.12345125,145.2645471556484L616.2961799999999,153.4472795603916L616.65315275,149.57311402860356L616.5955765,154.40863564585726L616.3076952499999,154.6034416324237L616.4228477500001,158.67057488589325L619.0828705,152.78395568076147L619.20953825,148.57666915775715L621.81198475,147.93212278608308L622.145927,145.62493260966556L624.6101904999999,142.9082414807717L624.863526,139.8850093795228L625.03625475,135.81773792000607L625.185953,129.87127195939937L627.5465792499999,135.05854736676227L628.0187045,134.85053035321127L630.4599375,136.99821198484716L630.9666085,141.735325441357L631.127822,145.80384378167557L631.1508524999999,146.5463721020283L633.60360075,159.90762542440413L633.6381465,173.80034844961182L633.5920855,185.74536277802778L634.0526955,201.98494188181309L636.73574875,203.74439599203188L640.07517125,201.8975483799017L642.8964075,194.64122261288296L646.0285555,191.0587285713933L646.04007075,187.09268389529552L646.0170402499999,175.01289799343397L648.9764595,172.10049661916347L651.5673907500001,167.47291308281763L651.256479,170.58737954882253L651.4176925,174.53409162891668L651.9704245,179.0470486345806L651.9128482499999,182.2757519224384L654.5498405,192.48078233337517L654.65347775,202.40551552190365L657.3135005,201.3571942731751L657.73956475,202.4428822067866L663.048095,195.21772586057833L663.49718975,195.66520736095734L663.0250645,191.0585326902965L666.2032735,181.34311036082644L666.51418525,173.00700938522363L666.19175825,168.4678978009135L669.3584519999999,171.10373098940713L669.496635,169.62148534192758L669.3469367499999,171.32497013596227L672.260295,170.24803542498708L675.3233515,180.86148792259183L675.4615345,189.28750930323986L675.54214125,199.40420619551963L677.9488285,208.9760325155767L677.73003875,212.58240758904407L680.6088512499999,213.77342030346685L681.04643075,216.355295737851L681.18461375,220.8062792505432L681.104007,220.8392567384632L681.46097975,223.2848396560366L683.81009075,220.2292972244683L683.81009075,215.38640147217657L686.41253725,213.2064771860248L687.05739125,209.84072313372133L687.1610284999999,213.2987648589951L690.1204477499999,213.95324535050855L690.316207,221.67331190539704L689.9707495,225.30084575800666L692.5041044999999,225.8658631790394L693.0568365,232.61874289947679L695.87807275,238.24108571674915L701.693274,235.88324055609408L701.70478925,243.7578308345241L701.923579,243.9951270099725L701.5781215000001,246.6083237673065L702.05024675,246.61527501217608L704.67572375,244.92220316541565L704.79087625,246.92558754322835L707.9345395,255.78432741724163L707.3818075,255.44167396625102L707.89999375,264.0834710387996L710.72123,265.21302821992316L713.22003925,273.12630848101304L713.4964052500001,277.3501395100677L713.1854935,280.2974985890763L716.26006525,274.6300523966527L716.524916,272.0003852130831L718.9891795,274.6984274295167L719.50736575,275.25519042971086L719.5879725,273.42471000054735L728.02865075,263.5939291282176L728.51229125,253.70825672300862L731.2874665,246.0399957401896L730.99958525,246.7800552475159L731.32201225,241.967656255812L731.0111005,232.6234864606874L734.120218,234.07559195324194L734.258401,241.68414560298672L734.074157,246.67059727179242L737.4596405,235.50005359069522L739.8548125,222.49268529718458L740.1772395,206.25704747699473L739.9008735000001,197.63172397686668L739.7051142500001,187.68502161329738L742.42271325,183.7285528527776L742.72210975,179.56177173488024L745.5778917499999,181.99942363299724L746.0730475,185.4646699940036L748.95186,197.185073637345L748.8827684999999,198.01344529565765L751.623398,190.53981154718065L754.340997,186.50835015988875L755.031912,188.41440247748855L757.4040535,182.13556839077378L757.3119315,174.3435732377913L760.513171,172.71133768286572L760.82408275,171.43448831886556L760.92772,164.6599263045416L761.0774182499999,160.3403684897359L763.1616785,161.47665387435904L763.65683425,169.47757206879498L763.4956207500001,179.37632677793127L767.04231775,179.88983219838065L769.034456,186.39308110372335L769.4605202500001,187.63473092108404L772.2817565,178.7244371433409L772.4544852500001,174.55775022356883L772.5120615000001,177.44438711204162L772.6847902499999,175.8514468636922L775.5175417500001,173.9355736321877L775.19511475,168.6284294013957L775.5405722500001,171.70136922301893L778.05089675,171.05663668323794L778.4999915,162.40659141518427L784.31519275,158.64787885092312L784.5339825,152.09322961686627L784.13094875,151.2453859916535L784.6606502499999,153.23169599196825L786.98673075,148.26863507146524L787.44734075,148.31178803275847L787.10188325,147.91030665139704L787.2170357499999,153.33886432336817L787.40127975,154.48857791488126L789.58917725,159.92873490508725L790.1073634999999,159.88318203903444L793.27405725,150.85656082714783L793.1934505,139.63526763195352L796.0377172499999,140.21868645791125L795.76135125,136.79785319748882L799.020167,130.65638485081288L799.03168225,126.01599581596241L801.68018975,138.04066605497584L801.9220099999999,145.0403671706667L801.8529185,157.4149949174251L802.2674675,164.6144462865872L804.6280937500001,167.60602140685532L805.100219,167.80557052830625L805.1693104999999,163.37352955637922L807.7487265,148.42982801729337L807.73721125,145.04131379415443L807.725696,139.50644715876493L807.771757,133.34477896492496L813.9324157499999,132.24718890446835L814.1627207500001,126.60273208197088L816.431225,132.4507107289236L819.1948849999999,137.83082307161783L822.54582275,136.76422335743632L825.47069625,149.8160175571519L825.228876,161.43150099758904L825.4131199999999,169.63795464814672L827.9234445000001,169.69607138285826L828.5913290000001,170.311001864206L828.00405125,170.8045628519101L828.05011225,171.97781142096164L831.0555925,169.41358017131836L831.75802275,162.15189221172798L834.5101675000001,154.18921296111156L834.40653025,149.19530915107768L834.5101675000001,143.75461509042714L837.112614,145.88508390978598L837.3659495,145.5671399707828L837.19322075,144.53030006982743L839.6689994999999,140.59555423783243L839.830213,138.2654173726074L840.244762,138.40372072567595L840.02597225,138.69290067861138L840.4174907500001,140.99046414271496L840.2908229999999,138.66250539508638L840.2908229999999,134.28912544883022L840.60173475,132.64157632592276L840.1180942499999,134.3912746308973L842.7781170000001,131.98077016262255L845.8066277500001,128.0891724609508L846.5320885,132.7644447762617L849.134535,129.12868526514657L851.7024357500001,117.85844675844709L851.7139510000001,120.48483142201303L854.85761425,124.99774600571095L855.122465,131.62644985499873L858.12794525,134.15661770973662L860.327358,134.60395002076135L860.511602,138.6876686331537L860.6843307500001,135.56102087990337L863.827994,135.61591147970793L864.058299,134.43655245694836L866.4765014999999,136.29818560866136L866.6261997500001,141.59611949014408L866.92559625,148.63910081020535L866.453471,145.73678590048613L866.5225624999999,145.42728934433774L866.9946877499999,150.7118121217788L866.6607455,153.64943790610653L867.2134775000001,156.64118359756498L869.8504697499999,164.8711659452135L869.89653075,169.69548639797605L869.8274392500001,180.16081490126632L875.2971829999999,177.68881061488764L875.7462777499999,167.99131466468674L878.521453,167.81336702757767L878.4523615,165.63540144913853L878.64812075,164.26466340737343L881.1699605000001,168.26578542703555L881.745723,171.20174381160186L881.6536009999999,176.96695487341472L881.3887502499999,175.35768485610708L883.956651,177.2966764377956L884.31362375,176.60539194176903L884.63605075,180.15071402415523L887.0887989999999,185.95684363588967L890.1057945000001,184.91829293805802L890.37064525,185.20608095951908L890.2439775,179.48965623870362L890.25549275,180.24118947644754L890.2900384999999,174.56489398388655L892.9730917500001,175.5874671999606L893.0997595,174.70468463613236L893.27248825,181.7547583400639L893.721583,185.09522706696313L896.070694,186.94625942783154L899.2489029999999,189.64475727305967L901.8052885,190.7428687878515L902.00104775,196.02086209217182L902.46165775,198.95477196137048L904.9950127499999,201.99082987180012L905.1562262499999,203.19429979551592L907.908371,198.4815096969723L908.10413025,191.2418661918591L908.1156455,181.57453755877523L908.38049625,173.56333810175252L911.00597325,172.28988898459778L910.9714275,174.25876618627404L911.16718675,176.76156423832097L913.9078162500001,175.18083706877763L913.5047824999999,175.37455953272814L913.988423,175.04128463298943L914.080545,173.60021666729452L916.94784225,171.15800065303145L917.2126930000001,169.68318415475125L919.34301425,163.36960273338286L919.80362425,160.70683719136355L919.699987,156.78615671487307L920.12605125,160.3083580676041L922.91274175,152.20375169926697L922.8091045,152.56541323140326L925.51518825,147.13942708603463L925.86064575,143.30402048140542L925.687917,144.43370616508582L928.94673275,148.21865441839824L931.3994809999999,152.96108863570817L934.4395069999999,157.41339413657997L934.19768675,161.27302382721453L934.31283925,164.62461729198452L937.05346875,163.1920764564739L937.1110449999999,165.03637673451334L940.473498,166.86133478116497L940.48501325,167.03788678250413L940.7268335,164.78162019993172L940.73834875,165.96619386597138L943.4674630000001,164.25574079018176L943.57110025,164.0278027889104L946.1620315,156.66706175474633L946.77233975,154.17984963478503L949.0638745000001,157.93235960828383L949.0638745000001,160.17270002692644L949.5590302500001,161.97071732343514L952.48390375,160.6052625650378L954.85604525,155.74846112243304L955.10938075,156.97411334262182L955.10938075,153.5975179089397L958.54092525,156.80084357767583L961.02821925,161.58278641141183L961.39670725,162.74389621552606L961.46579875,163.266797236368L963.826425,166.47176220168336L966.87796625,158.44986725336292L966.64766125,148.81495311109973L967.511305,144.17605545246823L970.12526675,133.80030899710638L970.0446599999999,125.36408592396688L973.0616554999999,122.40295189576119L972.93498775,114.78460316343904L975.986529,106.51794911913657L976.27441025,104.1944671272513L976.32047125,109.76867326035853L976.262895,108.389143432948L978.69261275,114.15640449717108L978.6120060000001,116.7773038898871L981.45627275,122.10526062144444L984.5769055,118.95040996913133L984.95690875,117.03499892889789L984.8878172499999,119.1850751817579L984.830241,113.65794780884261L984.8878172499999,112.2996574309733L987.778145,107.08137776505254L987.62844675,104.58912088783615L987.65147725,93.6406626186124L988.0314805,92.95125097539693L987.9393584999999,90.22238684115564L990.55332025,94.33836058827814L993.68546825,93.93853823030747L996.3224605,88.70756282778109L999.00551375,81.5261086635582L999.35097125,78.0884521435259L999.892188,78.73415145790813L1001.83826525,78.2303404199921L1002.18372275,73.61447166429025L1002.4370582500001,73.72965036519247L1002.103116,73.69665629566077L1002.4255430000001,69.89362512868075L1005.24677925,74.74050598436156L1005.1201115,73.77987959950963L1005.0740505,74.36475038669954L1004.958898,70.5522293915023L1007.906802,74.75172773429642L1008.0680154999999,77.09305407320085L1008.40195775,74.01624769858228L1008.2407442499999,74.1289624820327L1008.4825645000001,73.61364921775845L1014.3898877500001,74.0519163708098L1013.9407930000001,72.04235367061659L1014.02139975,71.92770984046632L1014.2862504999999,72.59543365704798L1014.0559455,73.02052258392672L1017.02688,72.71255697295794L1017.36082225,71.48872616515848L1019.6753875,73.33004217370461L1020.1820585,73.76869773581211L1028.71485875,73.58298931394586L1034.81794125,73.29392744012836L1034.5761209999998,73.48579998337487L1040.8058712499999,81.36071401754555L1043.3046805000001,92.37069997608637L1043.47740925,99.77325729515235L1043.28165,106.3599337023876L1043.73074475,111.95693070848256L1049.1313969999999,111.63718405705356L1049.7071595,115.0831329129652L1049.592007,115.99177928659049L1049.46533925,118.87951280998226L1051.987179,119.3435842173975L1055.24599475,118.23357039221719L1055.77569625,120.5900396412784L1057.9060175,125.80930240826251L1058.14783775,136.65619083933885L1058.19389875,139.08439515685194L1061.18786375,147.90775288695787L1061.51029075,149.17522978800758L1061.6830195,155.07541286758385L1061.71756525,159.06756158913234L1064.4697099999998,156.61794399801713L1064.27395075,156.50158039905244L1064.2163745,154.52783749068564L1070.51521625,157.14153091499907L1073.27887625,160.70030477903975L1072.76069,165.90166194314816L1075.97344475,166.0131553531891L1075.9619295,166.02305577267495L1076.08859725,163.8491915610654L1078.76013525,162.10303784037393L1079.01347075,164.9088551086591L1082.1801645,167.81019133327652L1084.93230925,164.4308849586592L1087.868698,164.71563907479992L1088.1105182499998,163.03663530756435L1088.329308,161.07403202215713L1093.5111705000002,160.73231102213745L1096.4590745,158.49156970677834L1099.85607325,160.35498125174925L1099.4184937500002,161.71022139087404L1102.41245875,159.38096609001923L1102.73488575,157.1593619241019L1102.884584,153.34585320848595L1105.5100610000002,155.13340543547852L1105.5791525,154.89995771612718L1105.279756,154.99006451123032L1108.043416,161.59079158380584L1108.07796175,166.69330372370956L1111.50950625,162.38497572586022L1110.945259,159.63400937709199L1111.2101097500001,161.73250238325255L1111.16404875,157.9280251858335L1114.11195275,157.97866310063645L1114.52650175,156.70017997068746L1114.6071085,154.67898465326587L1117.22107025,152.36691882360745L1117.24410075,149.47952271603364L1117.624104,151.2878459151741L1122.828997,152.15046607706333L1123.55445775,149.609414790901L1126.237511,151.9744506690012L1129.08177775,159.24146825251236L1128.82844225,164.61017326285608L1129.231476,171.8531381878052L1131.8339225,168.67996790238183L1131.856953,165.06402225779905L1131.79937675,163.67596357027037L1135.0121315000001,165.74780504962774L1137.76427625,165.1691359043827L1137.87942875,161.23086319344347L1138.213371,158.7947888818328L1143.69463,160.3061567929454L1144.109179,158.94795279856362L1143.924935,158.60828268284922L1146.70011025,159.92091699354106L1146.53889675,151.5395600668168L1147.149205,147.97882617985903L1149.2104347499999,149.38986096358968L1149.55589225,148.37562126539325L1152.492281,146.40264452659096L1153.2062265,150.72145460522657L1155.5092765,154.0708173902006L1155.4171545,157.66224523285558L1155.54382225,159.7567622803788L1156.1771609999998,161.6550976847063L1158.53778725,164.7808588344442L1158.95233625,173.21284449666038L1161.39356925,176.2497328858513L1161.5432675,178.4377523053843L1161.57781325,178.8974681657005L1164.31844275,176.62064936014778L1164.9287510000001,173.4830283618237L1164.6523849999999,164.84852230445122L1170.1566745,170.69792919008262L1173.4154902500002,181.01320191354517L1173.2197310000001,185.1142217682658L1173.18518525,189.05754405727401L1176.22521125,189.88796599811198L1179.3343287500002,191.54433202582672L1178.94281025,194.98210849701206L1179.62221,197.40298527683106L1184.86164875,197.82376323042104L1185.29922825,198.064351106844L1185.43741125,199.5794506308275L1185.18407575,202.6319544576115L1187.90167475,202.7096319687799L1187.83258325,202.80192257025644L1190.80351775,204.02317930677845L1191.1374600000001,208.53191705916294L1191.091399,209.27357747962515L1194.14294025,208.83155909783238L1194.16597075,209.15303751407467L1193.75142175,207.89502760808645L1196.83750875,209.5668550115474L1196.8720545,210.51423561764156L1196.58417325,213.2699977404346L1196.90660025,218.55800921695968L1196.7914477499999,222.10347761507413L1199.8660195,220.52577944156147L1199.566623,222.99757724713777L1199.67026025,220.12183372818464L1199.85450425,221.56749692789313L1202.47998125,224.7009834955368L1202.89453025,226.28381952085337L1202.9636217500001,226.26460833818425L1203.05574375,226.1531041652577L1206.14183075,226.98005119655738L1212.003093,224.96955600446898L1211.9340015,225.79797926318997L1211.4503610000002,228.61759909923617L1214.6631157499999,231.24381992585347L1215.08918,234.38930171124352L1218.0140535,234.5207906188648L1217.3461690000001,231.0609241438534L1217.49586725,231.9193577228394L1220.294073,226.37253003507135L1220.25952725,221.09663178811743L1220.35164925,216.12382108011508L1220.294073,210.39973670791986L1220.7777135,206.1586158030167L1220.81225925,199.8148877545158L1223.3110685,200.60613408649266L1223.32258375,199.4611622510639L1226.24745725,198.5495822459018L1226.5007927499998,196.2967788135241L1226.22442675,197.04264356147888L1226.61594525,195.65957141251087L1229.1723307500001,194.76265865760536L1232.02811275,194.05261741324142L1232.454177,192.08453496961206L1232.1547805,191.3976121457016L1235.1948065,192.61378763019928L1235.43662675,191.98990812018835L1237.71664625,193.23209429936034L1238.38453075,194.06604683687812L1241.07909925,191.96488841061412L1241.19425175,186.52618623500868L1243.70457625,184.36295139749475L1243.9003355,179.71552131886807L1244.4070064999999,179.76231962896577L1246.917331,177.01986288200155L1246.8943005,171.91109707620123L1249.7961435,172.93652513253977L1250.01493325,172.25312634777757L1252.8591999999999,171.93521248552068L1253.273749,171.01469087722649L1256.11801575,172.24934210025822L1255.86468025,176.35036309038554L1255.945287,179.4831851055107L1258.524703,180.3460578009245L1258.7895537499999,184.97460625026298L1258.95076725,186.64644384967954L1264.9617277500001,187.1814734721455L1264.742938,186.7283734252952L1267.690842,184.158052719611L1270.32783425,182.93331491624917L1270.730868,182.13674498470067L1273.6096805,181.86541936172767L1276.5115234999998,177.62591850977773L1276.6957674999999,175.77828069676866L1279.26366825,174.16100143013597L1279.56306475,172.20132797932953L1282.37278575,169.28061070777252L1282.4533925,168.94910440986283L1282.78733475,166.81493506263257L1284.9406865,168.52449311445633L1285.608571,168.10571438488054L1285.6316015,167.27898968123276L1288.36071575,169.1010937569518L1288.003743,168.04802636566643L1288.54495975,164.53788014662635L1290.675281,163.39017720581683L1290.8940707499999,163.94352041115917L1293.807429,163.76104269106233L1294.360161,165.52650453014488L1294.5904659999999,167.08695186586814L1296.5941195,170.53097096844257L1297.59594625,174.23139081525287L1299.7723285,172.58641247564364L1300.38263675,172.30542537644476L1300.42869775,173.30375478092236L1302.93902225,170.95022028764836L1303.10023575,168.87980947775873L1302.8814459999999,167.78216235117588L1303.03114425,167.265727873101L1303.2269035,165.1808462034878L1306.09420075,164.63568576848192L1306.16329225,162.73770727205928L1308.85786075,162.92864996456495L1309.0766505000001,161.66776425817184L1308.8233149999999,161.214655975444L1309.50271475,162.90070862764628L1312.231829,163.765857590589L1314.6500315,166.43280271726456L1314.7421535,168.42303060339708L1314.7306382499999,169.95526628544022L1315.0645805,170.4692061930222L1317.60945075,176.16068784373502L1320.660992,177.32722228296996L1320.6379614999998,178.29510640597178L1321.24826975,179.5031098528235L1323.608896,179.7722288826493L1326.3955865,179.95106704252228L1326.79862025,182.78975237823673L1332.1992725,184.1544255002935L1332.48715375,188.17035134202678L1332.7520044999999,190.38220699922877L1332.7059435,194.75175283953322L1334.9859629999999,193.46431839583047L1335.2392985,192.94874256007887L1335.34293575,193.7509316686339L1335.71142375,193.56674785708293L1335.8380915,193.0917636258287L1338.42902275,193.09641897586656L1338.486599,191.67302962896304L1341.51510975,193.4283454317104L1341.39995725,196.17239915405352L1340.96237775,198.42428586026256L1341.67632325,199.20567641814523L1341.60723175,198.4096022035324L1344.32483075,197.34801446692606L1344.34786125,196.90149437318559L1347.2727347500002,195.52180665102986L1350.61215725,196.04480656148257L1353.1800580000001,197.34089371990405L1353.3527867500002,199.06538314770793L1352.7885395,197.55313028122075L1353.364302,198.80224840685386L1352.96126825,197.7655919320755L1353.07642075,196.95872818918377L1355.759474,196.8890407736413L1359.20253375,198.2838279099507L1358.78798475,199.18825791811872L1359.0758660000001,202.1688061296109L1362.4613495,202.97298728365882L1364.372881,203.2316464756803L1365.201979,201.59692305248646L1365.3171315,201.0872575463335L1365.24804,203.49459428208706L1365.51289075,205.21276477764124" style="fill: none;" fill="none"></path></g></g></g></g><g opacity="0.2"><g><g><g><path stroke="rgb(0, 119, 187)" stroke-width="2px" d="M144.48184175,345.2950995138713L144.50487225,331.63407741274153L144.5624485,413.97746518680026L144.585479,476.6024328810828L144.4703265,312.485063208001L146.96913575,246.58123464882374L147.7406575,344.26349025113245L150.44674125,198.70719037311417L150.35461924999998,316.2788098028728L150.250982,273.6395621768066L150.26249725,217.71695289654392L150.49280225,238.58893931337764L153.09524875,429.48166705029354L153.34858425000002,375.31187622036254L153.77464849999998,298.58714110510687L159.2098465,378.519861297948L159.19833125,291.4406242796353L162.28441825,249.83478760506426L162.549269,306.2634186276368L164.714136,253.76175483848368L165.39353575,225.2593657470175L167.6850705,-29.58625254460742L168.04204325,86.76842845337728L168.24931775000002,21.220776506832635L170.78267275000002,204.57360934359687L171.04752349999998,298.0439379640988L171.392981,288.1247144341469L174.09906475,316.3878340423107L174.23724775,195.0345963122589L173.8111835,210.1247006803751L174.4099765,305.23792467372755L177.00090774999998,75.08372649976184L177.09302975,197.67950550147464L179.9833575,283.3937766977719L179.69547625,66.1693878514426L179.6148695,10.76083769117082L180.236693,244.89708100472177L180.01790325000002,63.62492180722097L182.9312615,117.56297292879651L183.1615665,87.11170433248788L183.12702075,194.98300742251533L185.90219599999998,-109.61611144883295L186.22462299999998,31.433069390909964L185.8331045,25.39700276511053L191.55618375,670.240107672555L191.78648875,373.85219533954347L194.34287425,-182.44844446863453L194.285298,-16.525670307023233L197.14108,224.51729268261363L197.53259849999998,233.6540275375758L197.33683925,311.04611177955354L199.99686200000002,156.94341501380717L200.0659535,20.970161199569645L203.09446425,235.07025321040834L203.52052849999998,313.39132469041004L209.1860315,292.0269234946796L209.34724500000002,358.17690928493226L212.42181675,203.92797879236085L212.12242025,232.74169287937028L215.30062925,249.8066828655345L215.196992,169.42753710278444L218.28307900000001,328.11324051874027L221.01219325000002,309.90200330529893L221.01219325000002,172.24336796998978L223.96009725000002,121.8684472824846L223.79888375000002,293.55330297350883L232.73471775,428.71630645649776L233.298965,330.39413033212935L232.96502274999997,291.3944866018636L235.8092895,404.24969416005274L235.83232,390.1092061655862L236.05110975,205.19931297642844L238.95295274999998,488.45717573165894L238.96446799999998,487.8756275177002L241.497823,152.27275159103527L241.44024675,24.7975098916462L244.491788,262.41671852128843L244.91785225,261.36349300614427L245.2057335,138.3352003608431L244.8372455,236.0025930340801L250.8251755,229.5604502399053L250.30698925,180.43916585615702L250.37608074999997,261.24099823406766L251.1015415,307.4086426241057L253.25489324999998,116.54031191979135L253.55428975,186.34653010964394L253.7270185,221.39377430507113L253.750049,384.42692861386706L255.9840075,250.71216588999545L256.66340725,190.8834171390959L256.50219375,134.48481894390923L256.8131055,406.9161614179611L259.51918925,311.8042174662862L259.72646375,155.05136895818367L262.225273,232.53051007858343L262.62830675000004,392.6637199350766L265.69136325,289.8792382691588L265.7028785,446.48285157339916L270.96534775,158.46292078920774L274.60416675,247.44786901026964L277.1720675,-23.300276841436187L276.780549,-54.078866941588274L276.8496405,114.86361782891407L277.06843025,102.28360898154119L277.09146075,-3.9304454156330735L279.87815125000003,40.486310618264326L280.52300525,113.92920345493724L280.13148675,279.5660187133721L282.88363150000004,95.26853116921012L282.8375705,166.21901432744093L283.090906,194.01351428883416L283.48242450000004,14.759960753577047L285.440017,121.78041733162743L288.9176225,180.82745987815514L288.65277175,160.3015501839774L288.848531,177.90217140316963L288.80247,145.79486594029837L292.19946875,-10.883358946868384L294.47948825,302.96321437188556L294.99767449999996,171.82069740550858L295.1358575,278.23882816519057L294.5370645,158.77272297654832L294.6752475,339.2980360388756L294.98615925,190.32271675126893L297.63466675,293.417032705886L297.95709375,204.2752874046564L297.65769725,198.12639654108455L297.79588025,289.08157568318506L298.21042925,119.72097071579526L298.14133775,133.09375471728188L297.876487,249.9469216636249L298.30255125,176.51123558197702L300.824391,90.63719592349867L301.1237875,-20.312988604818145L300.92802825,63.69607446874886L303.57653575,67.03850003651206L306.4668635,46.26754060813357L306.57050075,295.58714073044916L309.63355725,357.718517933573L309.21900825,369.24272914443696L312.30509524999997,180.60552312220847L312.65055275000003,221.9559413237231L312.7772205,43.94269600936343L315.1723925,123.72024625965526L315.71360925,294.5871031539781L317.913022,296.26584370647157L318.511815,241.66959435173442L321.44820375,116.17031968491415L321.04517,152.82265589066915L321.736085,6.063686634812996L323.947013,151.85650129829133L326.9640085,319.47372160213337L327.27492025,472.87731096574237L327.58583200000004,600.3906329018729L330.349492,291.31924904244283L330.119187,508.2709368467331L330.26888525000004,220.60066860727966L332.836786,278.09840879695753L333.42406375,148.1749248760087L333.05557575,121.38120483500614L336.17620850000003,195.61338180303574L338.8477465,176.10265751395906L339.055021,185.82225071958132L342.5786875,137.48408901265688L345.07749675,198.68005469334977L345.21567975,260.4048059923308L344.91628325,317.2568980753422L345.00840525,264.02895709659373L345.23871025,241.843864602702L347.80661100000003,315.1955334033285L347.88721775,254.71323509727205L347.70297375,357.1228772231511L347.622367,321.0835726388863L350.47814900000003,180.42861253448896L350.80057600000004,241.12410398891993L351.353308,314.1124977639743L353.32241575,429.6890578780856L353.6793885,202.0190614664129L357.0418415,279.76433288199564L356.56971625,105.85797489115168L359.60974225,202.82916533521242L362.52310050000006,346.53178830657686L362.361887,137.878101089171L362.8915885,251.91440591216087L365.73585525,-68.03377698149L369.040732,225.80029571056366L371.05590075000003,246.3077952755349L371.12499225,388.03226430927003L374.1765335,294.684643132346L374.061381,288.512763683285L374.28017074999997,103.03792670794894L377.04383075000004,477.4657668215888L377.50444075,391.8691952569144L377.9074745,325.95692002773285L380.08385675,249.23305967450142L380.44082949999995,255.34836047887802L383.089337,313.20987176043644L385.92208850000003,332.6417791885989L386.42875949999996,187.402959741652L386.11784774999995,277.9227381242173L386.49785099999997,232.08963804372718L386.67057975,260.68961727193425L389.169389,521.9024256978716L389.14635849999996,369.08016786405017L389.27302625000004,403.6385966454234L392.0482015,291.39874805722917L391.86395749999997,147.12057180064065L392.29002175,326.24348885672435L395.05368174999995,328.71877647297725L395.16883425,166.05531746149063L397.67915875000006,431.6316876496588L398.41613474999997,392.9090385181563L400.7076695,248.20515009335108L403.55193625,386.82692249332155L403.59799725,375.5310803481511L403.90890900000005,295.6196834828172L403.89739375000005,234.03550603985786L404.277397,257.87700456593717L406.82226725,26.443924375942743L406.810752,-32.0188614044871L412.43019400000003,1.9664618202617703L412.87928875,103.43175420165056L413.19020049999995,135.35534358876092L412.69504475,49.40692508220667L415.424159,96.81697230679646L415.96537575,178.44097665803773L415.976891,81.83571762698034L418.786612,48.71620014735629L421.26239074999995,344.33281313521525L421.33148225,249.03774698291505L421.58481774999996,261.8836714476347L421.23936025,245.95458402591092L421.90724474999996,363.55761062247416L424.50969125,10.705832013062036L424.63635899999997,173.63718488812447L430.56671275,275.85960386480605L430.42852975000005,212.76721581045007L436.16312425,220.01255315755094L436.60070375,64.17139928681507L436.76191724999995,45.28989372934609L439.20315025,422.06511359555384L442.47348125,-10.514739045075032L444.765016,133.23738422138348L444.86865325,316.3611016358648L445.35229375,335.8683108261653L447.67837425000005,315.32956460118294L451.06385774999995,398.53846118279864L451.167495,224.71184096059628L450.99476625,471.99006151301523L454.16146000000003,523.3522835629327L457.35118425,286.9183132733617L457.0863335,255.5188507948603L459.9421155,109.91633298567365L462.90153475,331.9036806736674L462.37183325,257.16173011703154L462.71729075,216.77128499001265L462.99365675,260.636040104287L465.69974049999996,294.54310824189866L465.66519475,398.85456326178144L468.9240105,328.2908733870302L468.90098,311.31445506215096L468.39430899999996,301.77811246258875L468.85491900000005,325.99329889246394L471.48039600000004,79.92356809547965L471.5494875,176.70972630807333L474.63557449999996,346.49528103641103L474.53193725000006,267.54908374803404L474.78527275,265.9510058845792L474.474361,331.14518977063045L474.76224225000004,273.81898870851313L474.99254725000003,329.76016862477576L475.01557775000003,502.63069602421353L477.29559725,166.86911098020417L477.330143,40.46584600210184L477.54893275,71.22909165280203L480.56592825,237.8504375251276L480.45077575000005,118.19797793030739L483.1107985,399.3795007296971L483.225951,358.44261223077774L483.49080174999995,278.02948717985834L489.61691475000003,-17.805968795503873L495.12120425,417.336150092738L495.7775735,340.8991715567453L498.21880649999997,357.27988496848513L498.29941325,442.2092618942261L504.21825175,528.6356856822968L503.677035,256.64613013182367L507.16615575,318.3199746949332L507.25827775,421.96185957533976L506.763122,397.75152847596576L506.9243355,234.6475304812193L507.37343025,168.57640569124902L507.05100325,278.6929058964763L510.13709025,341.0625754977976L512.78559775,137.1087438762188L512.889235,214.3783734728183L512.94681125,168.94031070598535L512.7740825,218.24426034758133L512.9583265,305.2619124140058L513.2346924999999,68.56793716975619L512.843174,117.2784104347229L513.2692382500001,278.6916459181479L516.021383,343.0422823386533L516.24017275,108.15394431778361L518.79655825,454.6876538906779L518.7159515000001,457.36235514708926L524.865095,370.66140053953444L524.5656984999999,321.81094930001666L524.78448825,303.4376724532672L527.24875175,167.20381178387575L528.1123955,195.09356048916067L531.14090625,157.2599946005004L533.76638325,-34.85599553585058L533.85850525,3.9659430980681805L536.57610425,431.3192772269249L536.334284,335.2980221637658L536.69125675,303.63698176401L537.0021685,327.7191802901881L539.8118895,212.15503337021386L542.828885,138.32703056505747L542.42585125,214.37319913506508L542.690702,15.81338288954322L545.4658772500001,115.56020928706442L545.8458805,329.4990641985621L548.13741525,104.94150517668038L548.22953725,134.61299164380347L551.3732005,237.30467430076428L551.61502075,415.8613494719778L554.01019275,39.238145589828434L554.19443675,46.10751533508295L556.93506625,230.8935394127454L557.48779825,138.50361211385047L557.51082875,212.33373360868012L557.76416425,232.9534474856087L563.2339079999999,92.73687356710428L565.997568,179.90450970189912L566.26241875,191.25177019834518L565.8593850000001,305.22538909316063L565.89393075,186.00680143066816L566.181812,-59.061671938215056L569.46365825,-166.01588736261647L569.452143,132.16633041415895L571.6861015000001,130.0391499314989L572.11216575,-41.84521570375995L574.69158175,291.90346969451224L574.8067342500001,252.48707007510322L577.697062,165.96998803743296L580.276478,73.80503307921543L580.65648125,126.55847986255372L580.93284725,2.9404972961970657L583.37408025,-73.97512854848594L583.869236,62.55355501174921L583.74256825,-42.97770348617007L584.0074189999999,43.034163355827275L586.82865525,-13.985072476523271L586.75956375,155.9174435521875L586.81714,54.99230468273157L589.6038305,156.70079695752688L592.206277,314.7940978876182L592.897192,226.01856087361062L592.436582,192.18740041128225L592.666887,325.3530292681285L595.0390285,192.3662210298436L595.5687300000001,39.647774977343374L595.8220655,-109.94364161150799L598.78148475,181.63832816055842L601.6257515,17.956549848828956L601.4875685000001,120.60766642008508L604.32032,257.57026003301144L607.32580025,90.64810236011232L607.6597425,37.54958202157701L607.64822725,154.37078404000826L607.18761725,-83.12022781372076L607.3603459999999,3.915495812892857L610.3312805,346.5087074296815L610.11249075,381.5502937606403L610.61916175,169.75540031705583L613.15251675,309.3258802209582L613.3828217500001,63.2410858614104L616.16951225,203.2824004058327L615.84708525,160.01019825254167L616.12345125,42.775137492588556L616.2961799999999,349.8328352229936L616.65315275,56.59315128837312L616.5955765,270.46114245057106L616.3076952499999,159.27878484555654L616.4228477500001,256.28176366005624L619.0828705,11.505107692309707L619.20953825,47.60180148056571L621.81198475,132.46301117113657L622.145927,90.25237286090845L624.6101904999999,77.70765945741107L624.863526,67.32744436604634L625.03625475,38.20322988714486L625.185953,-12.843901276588497L627.5465792499999,259.55314892104695L628.0187045,129.8581223445279L630.4599375,188.5425680066858L630.9666085,255.42604175422872L631.127822,243.4482784718275L631.1508524999999,164.36705083080702L633.60360075,480.57768858330587L634.0526955,591.7348225457328L636.73574875,245.97129278310706L640.07517125,157.57320755720139L642.8964075,20.489411251885542L646.0285555,105.07887491583818L646.04007075,91.90761521884372L646.0170402499999,-114.90195327145716L648.9764595,102.2028660391058L651.5673907500001,56.41091187511171L651.256479,245.3345723652414L651.4176925,269.25517867079805L651.9704245,287.3580136086259L651.9128482499999,259.76462865940164L654.5498405,437.40150560651506L654.65347775,440.5991058945656L657.3135005,176.19748492751802L657.73956475,228.49939199324166L663.048095,21.813977513994473L663.49718975,206.40476313446248L663.0250645,80.49834292275563L666.2032735,-51.82702083247051L666.51418525,-27.05941014630457L666.19175825,59.529221807207364L669.3584519999999,234.36372638174464L669.496635,134.04759041326386L669.3469367499999,212.2086045188563L672.260295,144.401602770601L675.3233515,435.5843439953668L677.9488285,438.69986110925674L677.73003875,299.13540823544776L680.6088512499999,242.357725095536L681.04643075,278.3203054262059L681.18461375,327.62988233566284L681.104007,221.6307164398687L681.46097975,281.978829060282L683.81009075,146.89627960750036L683.81009075,99.15690454414909L686.41253725,160.88829480537348L687.05739125,129.0626266002655L687.1610284999999,296.2917655536107L690.1204477499999,229.66077701747417L690.316207,406.95490775789534L689.9707495,312.3616575598717L692.5041044999999,239.42628118502242L693.0568365,394.687855056354L695.87807275,373.1773124252047L701.693274,179.29495706515652L701.70478925,432.7479963472911L701.923579,249.6902351869004L701.5781215000001,309.3250455856323L702.05024675,246.78210488813264L704.67572375,204.2884790567415L704.79087625,295.00681236812045L707.9345395,468.39408336366927L707.3818075,247.21799118071795L707.89999375,471.4865998540606L710.72123,292.3224004507065L713.22003925,463.04503396579196L713.4964052500001,378.7220838069916L713.1854935,351.0341162170683L716.26006525,138.61134427360125L716.524916,208.88837302795477L718.9891795,339.45144040669715L719.50736575,288.61750239133835L719.5879725,229.4931798364435L728.02865075,27.655188892568844L728.51229125,16.45211967400138L731.2874665,62.00173265593389L730.99958525,264.54148337670733L731.32201225,126.47008074607169L731.0111005,8.363411920411238L734.120218,268.9261236935854L734.258401,424.2894327895982L734.074157,366.3454370668956L737.4596405,-32.59299420458933L739.7051142500001,-51.035834695611754L742.42271325,88.77330275944297L742.72210975,79.55902506623949L745.5778917499999,240.50306909744228L746.0730475,268.6305825348411L748.95186,478.4747606771333L748.8827684999999,217.89436506799288L751.623398,11.172601819038334L754.340997,89.75327698673516L755.031912,234.15965804457664L757.4040535,31.44355048452104L757.3119315,-12.66431022541866L760.513171,133.53768440655298L760.82408275,140.7901036143303L760.92772,2.0704381210463225L761.0774182499999,56.67098103250771L763.1616785,188.74750308053834L763.65683425,361.49960856778284L763.4956207500001,416.94643959828784L767.04231775,192.21396227926016L769.034456,342.4710547115122L769.4605202500001,217.43432651566607L772.2817565,-35.122613370418605L772.4544852500001,74.55726421730856L772.5120615000001,246.72367238998413L772.6847902499999,137.62088092735834L775.5175417500001,127.95461610385348L775.19511475,41.25696793624331L775.5405722500001,245.45192490092344L778.05089675,155.58305573676313L778.4999915,-45.19449491160259L784.31519275,68.43877735308234L784.5339825,-5.218351926122466L784.13094875,130.89713899578368L784.6606502499999,200.90313597874982L786.98673075,29.15517302921836L787.44734075,149.34745910337992L787.10188325,138.27475350243702L787.2170357499999,283.6242484024593L787.40127975,182.08170410139218L789.58917725,290.49250262549947L790.1073634999999,158.78991325412477L793.27405725,-65.78234819003512L793.1934505,-129.67576897144323L796.0377172499999,154.22073827683926L795.76135125,54.697854970182675L799.020167,-16.738855430058095L799.03168225,14.646659008094161L801.68018975,426.6327517202922L801.9220099999999,313.0331939075674L801.8529185,454.40606077228273L802.2674675,337.4012791088649L804.6280937500001,239.40382427828652L805.100219,172.59474944216862L805.1693104999999,57.00454625061576L807.7487265,-210.21900885445734L807.73721125,63.71697245325356L807.725696,6.6696479320525555L807.771757,-14.535257663045684L813.9324157499999,105.90502745764593L814.1627207500001,-8.864231637546027L816.431225,272.8021982354777L819.1948849999999,266.95351927833894L822.54582275,111.16583022049497L825.47069625,463.05907831021716L825.228876,440.20310353381296L825.4131199999999,366.59284223828996L827.9234445000001,171.0908730157784L828.5913290000001,185.06933341494627L828.00405125,182.65002655557223L828.05011225,200.1357770753758L831.0555925,107.87203018580163L831.75802275,-12.12861880234317L834.5101675000001,-36.91508903673724L834.40653025,29.341617720467696L834.5101675000001,13.177957645484298L837.112614,197.01633557038647L837.3659495,137.93648543528147L837.19322075,119.64614244869779L839.6689994999999,46.16165427650719L839.830213,82.34213261093407L840.244762,141.7230011991092L840.02597225,145.63321954863412L840.4174907500001,196.13198727795054L840.2908229999999,82.79149545516282L840.2908229999999,29.32800674438471L840.60173475,93.1003973782062L840.1180942499999,176.38403394818306L842.7781170000001,74.12866292681008L845.8066277500001,34.69082762513841L846.5320885,244.97098033875227L849.134535,41.87045700209478L851.7024357500001,-152.62727739129753L851.7139510000001,183.51806334512574L854.85761425,233.30769601038523L855.122465,290.7153422321592L858.12794525,194.8806462213397L860.327358,145.33992548499788L860.511602,236.6969153274383L860.6843307500001,60.521474804197L863.827994,136.93328587497984L864.058299,106.13193591151918L866.4765014999999,180.97738124855928L866.6261997500001,268.74653264241556L866.92559625,317.6706524874483L866.453471,76.08122806889668L866.5225624999999,137.99937199694767L866.9946877499999,277.5403587775571L866.6607455,224.15245672847544L867.2134775000001,228.44308019110133L869.8504697499999,362.390742284911L869.89653075,285.47917726210187L869.8274392500001,431.3286989756993L875.2971829999999,118.36070774282729L875.7462777499999,-64.74858813626429L878.521453,163.54262373702866L878.4523615,113.36422756740023L878.64812075,131.36695040549552L881.1699605000001,264.29271389756883L881.745723,241.6647450402379L881.6536009999999,315.33202035512244L881.3887502499999,136.7352044412068L883.956651,223.83247439776147L884.31362375,160.014564037323L884.63605075,265.23844400048256L887.0887989999999,325.30395431603705L890.1057945000001,159.99307619035244L890.37064525,192.11299347451754L890.2439775,42.29546294042041L890.25549275,198.27798718214035L890.2900384999999,38.333802163600865L892.9730917500001,200.129224385534L893.0997595,153.51790310442448L893.27248825,350.9565272331238L893.721583,265.26647651195526L896.070694,231.3710360883602L899.2489029999999,254.40870555809565L901.8052885,217.09754514268465L902.00104775,322.69270139506887L902.46165775,269.3686088217156L904.9950127499999,274.85621972169196L905.1562262499999,232.07757796453578L907.908371,85.3745473325252L908.10413025,17.49042207002634L908.1156455,-50.44134963410244L908.38049625,-18.70544886589056L911.00597325,141.72711017302103L910.9714275,221.5118190262999L911.16718675,236.82871748719896L913.9078162500001,137.2433849998883L913.5047824999999,180.02389866752281L913.988423,167.04268703929014L914.080545,139.01458549073763L916.94784225,112.54481631091664L917.2126930000001,134.28758819614137L919.34301425,11.843648621014154L919.80362425,96.80046418309206L919.699987,62.68982527937203L920.12605125,244.84119053291423L922.91274175,-42.30680114030844L922.8091045,161.24529000265255L925.51518825,16.915759597505826L925.86064575,51.25426197051996L925.687917,171.5461625733546L928.94673275,239.05741249769926L931.3994809999999,266.7795098509107L934.4395069999999,264.2687261572906L934.19768675,253.90413640226637L934.31283925,245.06286044631685L937.05346875,128.81109640427997L937.1110449999999,209.299583407385L940.473498,210.66032790073325L940.48501325,171.27513481463706L940.7268335,110.63122221827507L940.73834875,194.39596185088158L943.4674630000001,123.2048669712884L943.57110025,158.5572907584054L946.1620315,-19.990723064967597L946.77233975,94.48675875578607L949.0638745000001,247.99259897215026L949.0638745000001,213.9408700742892L949.5590302500001,205.1231324395963L952.48390375,127.83434836353575L954.85604525,39.185226500034275L955.10938075,186.38976662712437L955.10938075,72.55922750064303L958.54092525,233.68065962727582L961.02821925,276.3494144209794L961.39670725,190.61053151424443L961.46579875,175.81642173656397L963.826425,243.39092136919498L966.87796625,-34.0756115061896L966.64766125,-82.42298630305697L967.511305,32.842511645385116L970.12526675,-115.21760593141829L970.0446599999999,-77.10526783125744L973.0616554999999,51.33573521886552L972.93498775,-68.05576641219005L975.986529,-91.88174794401442L976.27441025,48.43089932203287L976.32047125,243.54962045486485L976.262895,75.28042757511133L978.69261275,252.57067003846169L978.6120060000001,179.67888931504316L981.45627275,249.9762221787657L984.5769055,43.233994313648736L984.95690875,71.0651339633124L984.8878172499999,170.786905250379L984.830241,-18.993109141077298L984.8878172499999,79.70068836212153L987.778145,-18.157334217003438L987.62844675,44.77495583466117L987.65147725,-169.12233584267756L988.0314805,76.40537153823033L987.9393584999999,24.729647619383627L990.55332025,193.12173051919257L993.68546825,84.3428016390119L996.3224605,-36.83584683282038L999.35097125,-4.415304337229031L999.892188,94.23093500307624L1001.83826525,66.13887551001136L1002.18372275,-37.16637847253253L1002.4370582500001,76.49393918684547L1002.103116,72.90479862689966L1002.4255430000001,-21.379122878824035L1005.24677925,191.06564652068275L1005.1201115,50.72484636306757L1005.0740505,88.40164927925377L1004.958898,-20.948274493217525L1007.906802,175.53968796133995L1008.0680154999999,133.28488620689936L1008.40195775,0.17289470774778692L1008.2407442499999,76.83411728484288L1008.4825645000001,61.24613087517872L1014.3898877500001,84.57032804403985L1013.9407930000001,23.812848865985814L1014.02139975,69.17625791685919L1014.2862504999999,88.62080525500431L1014.0559455,83.2226568290165L1017.02688,65.32138230970924L1017.36082225,42.11678677797312L1019.6753875,117.52162637880872L1020.1820585,84.2964312263897L1028.71485875,69.12598718915666L1034.81794125,66.35644246850694L1034.5761209999998,78.0907410212925L1040.8058712499999,270.35865083762576L1043.3046805000001,356.61036298104693L1043.47740925,277.4346329527242L1043.28165,264.44016747602393L1043.73074475,246.28485885475362L1049.1313969999999,103.96326442275728L1049.7071595,197.78590545483996L1049.592007,137.79929225359643L1049.46533925,188.18511737138033L1051.987179,130.48129799536295L1055.24599475,91.59323858789031L1055.77569625,177.14530161874634L1057.9060175,251.07160881587436L1058.14783775,396.9815131851605L1058.19389875,197.36129877716303L1061.18786375,359.668338409492L1061.51029075,179.5946754131998L1061.6830195,296.6798067774091L1061.71756525,254.87913090629237L1064.4697099999998,97.82712181125368L1064.27395075,153.70885402389936L1064.2163745,107.1580076898847L1070.51521625,219.87017309851944L1073.27887625,246.11087751601423L1072.76069,290.73423388174604L1075.97344475,168.68899719417095L1075.9619295,166.26066584033623L1076.08859725,111.67645048243656L1078.76013525,120.1953485437802L1079.01347075,232.24846954750163L1082.1801645,237.44226072409322L1084.93230925,83.32753196784427L1087.868698,171.54973786217823L1088.1105182499998,122.7405448939119L1088.329308,113.971553172384L1093.5111705000002,152.53100702166557L1096.4590745,104.71377813816065L1099.85607325,205.07685833105018L1099.4184937500002,194.23598472986902L1102.41245875,103.47883886950353L1102.73488575,103.84086194208686L1102.884584,61.821644033704445L1105.5100610000002,198.03465888329913L1105.5791525,149.2972124516964L1105.279756,157.1526275937046L1108.043416,320.00824132561684L1108.07796175,289.1535950813975L1111.50950625,58.985103777476695L1110.945259,93.61081700665608L1111.2101097500001,212.096334531105L1111.16404875,66.62057244777674L1114.11195275,159.19397305590763L1114.52650175,126.01658485191209L1114.6071085,106.17029703514913L1117.22107025,96.8773389118058L1117.24410075,80.18201613426203L1117.624104,194.68760269454546L1122.828997,172.8533499624048L1123.55445775,88.624183923006L1126.237511,208.73531174340417L1129.08177775,333.64989025677954L1128.82844225,293.4590935111046L1129.231476,345.6842963865825L1131.8339225,92.52388105222155L1131.856953,78.28132678781236L1131.79937675,130.3625550695828L1135.0121315000001,215.472000554204L1137.76427625,151.28107641850198L1137.87942875,66.71231813090185L1138.213371,100.32900540317803L1143.69463,196.57898665964603L1144.109179,126.35105693340302L1143.924935,150.45619990570202L1146.70011025,191.4241404501455L1146.53889675,-49.61300617456442L1147.149205,62.52121289287294L1149.2104347499999,183.2546957731247L1149.55589225,124.03386850867952L1152.492281,99.0512027953352L1153.2062265,254.37289649248123L1155.5092765,234.4555242295776L1155.4171545,243.8565134565745L1155.54382225,210.02517142093606L1156.1771609999998,207.2151473885668L1158.53778725,239.79912642815282L1158.95233625,375.58050038984845L1161.39356925,249.13505422643252L1161.5432675,230.95021837417568L1161.57781325,189.93064881329025L1164.31844275,121.97699802688189L1164.9287510000001,98.18012440204615L1164.6523849999999,-42.379623072488016L1170.1566745,311.0836944452354L1173.4154902500002,428.57974727664674L1173.2197310000001,283.53869828156064L1173.18518525,283.6972789934703L1176.22521125,209.81809257822377L1179.3343287500002,231.29711669098054L1178.94281025,277.48874380545953L1179.62221,255.50402799248695L1184.86164875,207.92243411658066L1185.29922825,203.8384601409946L1185.43741125,235.94183920643158L1185.18407575,275.89204630042826L1187.90167475,204.57389223682029L1187.83258325,205.01689700569426L1190.80351775,233.33334098330565L1191.1374600000001,316.74162311639105L1191.091399,227.07342757071768L1194.14294025,198.223117934806L1194.16597075,216.86851950388933L1193.75142175,177.70278986436978L1196.83750875,249.69071269461085L1196.8720545,233.2513701639005L1196.58417325,279.4082886874676L1196.90660025,345.47028465356146L1196.7914477499999,307.19471916982104L1199.8660195,182.66102327725716L1199.566623,282.3207245809691L1199.67026025,151.1039892733097L1199.85450425,256.26341372089723L1202.47998125,299.9046611189842L1202.89453025,264.27188412845135L1202.9636217500001,225.80353995412588L1203.05574375,223.47700401501996L1206.14183075,246.8267799477492L1212.003093,176.71767139434814L1211.9340015,245.6801374724933L1211.4503610000002,296.2884751643453L1214.6631157499999,294.2731197646686L1215.08918,309.8808645606041L1218.0140535,237.67652440177542L1217.3461690000001,148.0241287435804L1217.49586725,252.5217636185033L1220.294073,93.24866552863801L1220.25952725,94.4750738612243L1220.35164925,96.77636408805841L1220.294073,73.02171177523473L1220.7777135,104.37171408534044L1220.81225925,47.565414590494925L1223.3110685,219.5960460539375L1223.32258375,171.98183820077352L1226.24745725,176.67166212201118L1226.5007927499998,142.22949643645967L1226.22442675,214.94339751239335L1226.61594525,162.46583983727865L1229.1723307500001,173.23675253987312L1232.02811275,177.01162754850728L1232.454177,144.8505563225065L1232.1547805,174.9114643718515L1235.1948065,221.80199925814355L1235.43662675,177.0167998799256L1237.71664625,223.04456259948867L1238.38453075,214.08090773730405L1241.07909925,141.5370861802782L1241.19425175,55.99733402047838L1243.70457625,132.44531529716082L1243.9003355,68.17719943182806L1244.4070064999999,180.88547907131058L1246.917331,111.2009009548596L1246.8943005,49.30071773699348L1249.7961435,197.546798484666L1250.01493325,155.85155551348413L1252.8591999999999,164.30527979135513L1253.273749,148.92217227816582L1256.11801575,201.88097145301955L1255.86468025,274.7748668534415L1255.945287,254.67091346851416L1258.524703,201.05500249085682L1258.7895537499999,296.0597690343857L1258.95076725,226.7705462356763L1264.9617277500001,200.02218441132987L1264.742938,175.8539723008871L1267.690842,122.47035578319003L1270.32783425,153.53960763556614L1270.730868,163.0190666275365L1273.6096805,175.35360441037588L1276.5115234999998,75.87789806297843L1276.6957674999999,131.4349731845515L1279.26366825,135.3462990309511L1279.56306475,125.16916515997477L1282.37278575,99.18339619040484L1282.4533925,160.99295326003008L1282.78733475,115.59487072910582L1284.9406865,209.55388635822703L1285.608571,158.05502487506186L1285.6316015,147.43759679368563L1288.36071575,212.83159157420909L1288.003743,142.77440897481782L1288.54495975,80.29437088966364L1290.675281,135.84530662638798L1290.8940707499999,177.22375733937537L1293.807429,159.38157740873947L1294.360161,207.89758866812502L1294.5904659999999,204.53768792322703L1296.5941195,253.18742943022932L1297.59594625,263.0414671386991L1299.7723285,133.10693232502257L1300.38263675,165.56173499567166L1300.42869775,197.26366048838412L1302.93902225,114.4653924490724L1303.10023575,119.18995004040852L1302.8814459999999,141.43863131318773L1303.03114425,154.87130039930344L1303.2269035,115.14368613277162L1306.09420075,151.55183532834053L1306.16329225,117.18622335791588L1308.85786075,167.51127458470208L1309.0766505000001,131.40650730473652L1308.8233149999999,150.34005718997545L1309.50271475,203.36597228050232L1312.231829,184.529432701213L1314.6500315,230.43948575747865L1314.7421535,216.18849987057703L1314.7306382499999,206.72892265447547L1315.0645805,182.80376397499018L1317.60945075,312.75624746084213L1320.660992,205.32404882460833L1320.6379614999998,201.52432535801614L1321.24826975,208.49519257726413L1323.608896,186.23108559846878L1326.3955865,184.2431828794735L1326.79862025,250.91820043538297L1332.1992725,216.90658042965723L1332.48715375,284.5525715436254L1332.7520044999999,243.4667427720768L1332.7059435,299.62085300683975L1334.9859629999999,162.56589174696379L1335.2392985,180.57492250204086L1335.34293575,213.00347027395452L1335.71142375,189.14633637986012L1335.8380915,181.69214207572594L1338.42902275,193.20814737677574L1338.486599,157.5116853032793L1341.51510975,235.55592469764608L1341.39995725,262.0296884902886L1340.96237775,252.46956680927957L1341.67632325,217.95904980732925L1341.60723175,179.30382105282374L1344.32483075,171.8699087883745L1344.34786125,186.18501212341442L1347.2727347500002,162.4093013192926L1350.61215725,208.59680441234792L1353.1800580000001,228.44698552201902L1353.3527867500002,240.45312941500117L1352.7885395,161.25906148552895L1353.364302,228.78108342204774L1352.96126825,172.8858365373952L1353.07642075,177.59399835978235L1355.759474,195.21654280062234L1359.20253375,231.75871918137585L1358.78798475,220.89457811415195L1359.0758660000001,273.70196320542266L1362.4613495,222.27333498080927L1364.372881,209.43946708419492L1365.201979,162.36356089583464L1365.3171315,188.8552853986621L1365.24804,261.270675940173L1365.51289075,246.4488566709416" style="fill: none;" fill="none"></path></g></g></g></g></g></g><g transform="translate(58, 377)" clip-path="url(#clip_1)"><clipPath id="clip_1"><rect width="1439" height="23"></rect></clipPath><g><g><line x1="0" y1="0" x2="0" y2="5" style="visibility: inherit;" fill="rgb(0, 0, 0)" stroke="rgb(204, 204, 204)" stroke-width="1px"></line><line x1="143.940625" y1="0" x2="143.940625" y2="5" style="visibility: inherit;" fill="rgb(0, 0, 0)" stroke="rgb(204, 204, 204)" stroke-width="1px"></line><line x1="287.88125" y1="0" x2="287.88125" y2="5" style="visibility: inherit;" fill="rgb(0, 0, 0)" stroke="rgb(204, 204, 204)" stroke-width="1px"></line><line x1="431.821875" y1="0" x2="431.821875" y2="5" style="visibility: inherit;" fill="rgb(0, 0, 0)" stroke="rgb(204, 204, 204)" stroke-width="1px"></line><line x1="575.7625" y1="0" x2="575.7625" y2="5" style="visibility: inherit;" fill="rgb(0, 0, 0)" stroke="rgb(204, 204, 204)" stroke-width="1px"></line><line x1="719.703125" y1="0" x2="719.703125" y2="5" style="visibility: inherit;" fill="rgb(0, 0, 0)" stroke="rgb(204, 204, 204)" stroke-width="1px"></line><line x1="863.64375" y1="0" x2="863.64375" y2="5" style="visibility: inherit;" fill="rgb(0, 0, 0)" stroke="rgb(204, 204, 204)" stroke-width="1px"></line><line x1="1007.5843749999999" y1="0" x2="1007.5843749999999" y2="5" style="visibility: inherit;" fill="rgb(0, 0, 0)" stroke="rgb(204, 204, 204)" stroke-width="1px"></line><line x1="1151.525" y1="0" x2="1151.525" y2="5" style="visibility: inherit;" fill="rgb(0, 0, 0)" stroke="rgb(204, 204, 204)" stroke-width="1px"></line><line x1="1295.465625" y1="0" x2="1295.465625" y2="5" style="visibility: inherit;" fill="rgb(0, 0, 0)" stroke="rgb(204, 204, 204)" stroke-width="1px"></line><line x1="1439.40625" y1="0" x2="1439.40625" y2="5" style="visibility: inherit;" fill="rgb(0, 0, 0)" stroke="rgb(204, 204, 204)" stroke-width="1px"></line></g><g transform="translate(0, 8)"><text x="0" y="0" dx="0em" dy="0.95em" style="text-anchor: middle; visibility: hidden; font-family: &quot;Helvetica Neue&quot;, sans-serif; font-size: 12px; font-weight: 200;" fill="rgb(50, 49, 63)" stroke="none" stroke-width="1px">-200k</text><text x="143.940625" y="0" dx="0em" dy="0.95em" style="text-anchor: middle; visibility: inherit; font-family: &quot;Helvetica Neue&quot;, sans-serif; font-size: 12px; font-weight: 200;" fill="rgb(50, 49, 63)" stroke="none" stroke-width="1px">0</text><text x="287.88125" y="0" dx="0em" dy="0.95em" style="text-anchor: middle; visibility: inherit; font-family: &quot;Helvetica Neue&quot;, sans-serif; font-size: 12px; font-weight: 200;" fill="rgb(50, 49, 63)" stroke="none" stroke-width="1px">200k</text><text x="431.821875" y="0" dx="0em" dy="0.95em" style="text-anchor: middle; visibility: inherit; font-family: &quot;Helvetica Neue&quot;, sans-serif; font-size: 12px; font-weight: 200;" fill="rgb(50, 49, 63)" stroke="none" stroke-width="1px">400k</text><text x="575.7625" y="0" dx="0em" dy="0.95em" style="text-anchor: middle; visibility: inherit; font-family: &quot;Helvetica Neue&quot;, sans-serif; font-size: 12px; font-weight: 200;" fill="rgb(50, 49, 63)" stroke="none" stroke-width="1px">600k</text><text x="719.703125" y="0" dx="0em" dy="0.95em" style="text-anchor: middle; visibility: inherit; font-family: &quot;Helvetica Neue&quot;, sans-serif; font-size: 12px; font-weight: 200;" fill="rgb(50, 49, 63)" stroke="none" stroke-width="1px">800k</text><text x="863.64375" y="0" dx="0em" dy="0.95em" style="text-anchor: middle; visibility: inherit; font-family: &quot;Helvetica Neue&quot;, sans-serif; font-size: 12px; font-weight: 200;" fill="rgb(50, 49, 63)" stroke="none" stroke-width="1px">1M</text><text x="1007.5843749999999" y="0" dx="0em" dy="0.95em" style="text-anchor: middle; visibility: inherit; font-family: &quot;Helvetica Neue&quot;, sans-serif; font-size: 12px; font-weight: 200;" fill="rgb(50, 49, 63)" stroke="none" stroke-width="1px">1.2M</text><text x="1151.525" y="0" dx="0em" dy="0.95em" style="text-anchor: middle; visibility: inherit; font-family: &quot;Helvetica Neue&quot;, sans-serif; font-size: 12px; font-weight: 200;" fill="rgb(50, 49, 63)" stroke="none" stroke-width="1px">1.4M</text><text x="1295.465625" y="0" dx="0em" dy="0.95em" style="text-anchor: middle; visibility: inherit; font-family: &quot;Helvetica Neue&quot;, sans-serif; font-size: 12px; font-weight: 200;" fill="rgb(50, 49, 63)" stroke="none" stroke-width="1px">1.6M</text><text x="1439.40625" y="0" dx="0em" dy="0.95em" style="text-anchor: middle; visibility: hidden; font-family: &quot;Helvetica Neue&quot;, sans-serif; font-size: 12px; font-weight: 200;" fill="rgb(50, 49, 63)" stroke="none" stroke-width="1px">1.8M</text></g><line x1="0" y1="0" x2="1439.40625" y2="0" fill="rgb(0, 0, 0)" stroke="rgb(204, 204, 204)" stroke-width="1px"></line></g></g></g></g></svg>