<svg viewBox="0 0 1498 400" xmlns="http://www.w3.org/2000/svg"><g><g><g><g><g><line x1="58.59375" y1="377" x2="53.59375" y2="377" style="visibility: inherit;" fill="rgb(0, 0, 0)" stroke="rgb(204, 204, 204)" stroke-width="1px"></line><line x1="58.59375" y1="348" x2="53.59375" y2="348" style="visibility: inherit;" fill="rgb(0, 0, 0)" stroke="rgb(204, 204, 204)" stroke-width="1px"></line><line x1="58.59375" y1="319" x2="53.59375" y2="319" style="visibility: inherit;" fill="rgb(0, 0, 0)" stroke="rgb(204, 204, 204)" stroke-width="1px"></line><line x1="58.59375" y1="290" x2="53.59375" y2="290" style="visibility: inherit;" fill="rgb(0, 0, 0)" stroke="rgb(204, 204, 204)" stroke-width="1px"></line><line x1="58.59375" y1="261" x2="53.59375" y2="261" style="visibility: inherit;" fill="rgb(0, 0, 0)" stroke="rgb(204, 204, 204)" stroke-width="1px"></line><line x1="58.59375" y1="232" x2="53.59375" y2="232" style="visibility: inherit;" fill="rgb(0, 0, 0)" stroke="rgb(204, 204, 204)" stroke-width="1px"></line><line x1="58.59375" y1="203" x2="53.59375" y2="203" style="visibility: inherit;" fill="rgb(0, 0, 0)" stroke="rgb(204, 204, 204)" stroke-width="1px"></line><line x1="58.59375" y1="174" x2="53.59375" y2="174" style="visibility: inherit;" fill="rgb(0, 0, 0)" stroke="rgb(204, 204, 204)" stroke-width="1px"></line><line x1="58.59375" y1="145" x2="53.59375" y2="145" style="visibility: inherit;" fill="rgb(0, 0, 0)" stroke="rgb(204, 204, 204)" stroke-width="1px"></line><line x1="58.59375" y1="116" x2="53.59375" y2="116" style="visibility: inherit;" fill="rgb(0, 0, 0)" stroke="rgb(204, 204, 204)" stroke-width="1px"></line><line x1="58.59375" y1="87" x2="53.59375" y2="87" style="visibility: inherit;" fill="rgb(0, 0, 0)" stroke="rgb(204, 204, 204)" stroke-width="1px"></line><line x1="58.59375" y1="57.99999999999994" x2="53.59375" y2="57.99999999999994" style="visibility: inherit;" fill="rgb(0, 0, 0)" stroke="rgb(204, 204, 204)" stroke-width="1px"></line><line x1="58.59375" y1="29" x2="53.59375" y2="29" style="visibility: inherit;" fill="rgb(0, 0, 0)" stroke="rgb(204, 204, 204)" stroke-width="1px"></line><line x1="58.59375" y1="0" x2="53.59375" y2="0" style="visibility: inherit;" fill="rgb(0, 0, 0)" stroke="rgb(204, 204, 204)" stroke-width="1px"></line></g><g transform="translate(48.59375, 0)"><text x="0" y="377" dx="0em" dy="0.3em" style="text-anchor: end; visibility: hidden; font-family: &quot;Helvetica Neue&quot;, sans-serif; font-size: 12px; font-weight: 200;" fill="rgb(50, 49, 63)" stroke="none" stroke-width="1px">0.012</text><text x="0" y="348" dx="0em" dy="0.3em" style="text-anchor: end; visibility: inherit; font-family: &quot;Helvetica Neue&quot;, sans-serif; font-size: 12px; font-weight: 200;" fill="rgb(50, 49, 63)" stroke="none" stroke-width="1px">0.014</text><text x="0" y="319" dx="0em" dy="0.3em" style="text-anchor: end; visibility: inherit; font-family: &quot;Helvetica Neue&quot;, sans-serif; font-size: 12px; font-weight: 200;" fill="rgb(50, 49, 63)" stroke="none" stroke-width="1px">0.016</text><text x="0" y="290" dx="0em" dy="0.3em" style="text-anchor: end; visibility: inherit; font-family: &quot;Helvetica Neue&quot;, sans-serif; font-size: 12px; font-weight: 200;" fill="rgb(50, 49, 63)" stroke="none" stroke-width="1px">0.018</text><text x="0" y="261" dx="0em" dy="0.3em" style="text-anchor: end; visibility: inherit; font-family: &quot;Helvetica Neue&quot;, sans-serif; font-size: 12px; font-weight: 200;" fill="rgb(50, 49, 63)" stroke="none" stroke-width="1px">0.02</text><text x="0" y="232" dx="0em" dy="0.3em" style="text-anchor: end; visibility: inherit; font-family: &quot;Helvetica Neue&quot;, sans-serif; font-size: 12px; font-weight: 200;" fill="rgb(50, 49, 63)" stroke="none" stroke-width="1px">0.022</text><text x="0" y="203" dx="0em" dy="0.3em" style="text-anchor: end; visibility: inherit; font-family: &quot;Helvetica Neue&quot;, sans-serif; font-size: 12px; font-weight: 200;" fill="rgb(50, 49, 63)" stroke="none" stroke-width="1px">0.024</text><text x="0" y="174" dx="0em" dy="0.3em" style="text-anchor: end; visibility: inherit; font-family: &quot;Helvetica Neue&quot;, sans-serif; font-size: 12px; font-weight: 200;" fill="rgb(50, 49, 63)" stroke="none" stroke-width="1px">0.026</text><text x="0" y="145" dx="0em" dy="0.3em" style="text-anchor: end; visibility: inherit; font-family: &quot;Helvetica Neue&quot;, sans-serif; font-size: 12px; font-weight: 200;" fill="rgb(50, 49, 63)" stroke="none" stroke-width="1px">0.028</text><text x="0" y="116" dx="0em" dy="0.3em" style="text-anchor: end; visibility: inherit; font-family: &quot;Helvetica Neue&quot;, sans-serif; font-size: 12px; font-weight: 200;" fill="rgb(50, 49, 63)" stroke="none" stroke-width="1px">0.03</text><text x="0" y="87" dx="0em" dy="0.3em" style="text-anchor: end; visibility: inherit; font-family: &quot;Helvetica Neue&quot;, sans-serif; font-size: 12px; font-weight: 200;" fill="rgb(50, 49, 63)" stroke="none" stroke-width="1px">0.032</text><text x="0" y="57.99999999999994" dx="0em" dy="0.3em" style="text-anchor: end; visibility: inherit; font-family: &quot;Helvetica Neue&quot;, sans-serif; font-size: 12px; font-weight: 200;" fill="rgb(50, 49, 63)" stroke="none" stroke-width="1px">0.034</text><text x="0" y="29" dx="0em" dy="0.3em" style="text-anchor: end; visibility: inherit; font-family: &quot;Helvetica Neue&quot;, sans-serif; font-size: 12px; font-weight: 200;" fill="rgb(50, 49, 63)" stroke="none" stroke-width="1px">0.036</text><text x="0" y="0" dx="0em" dy="0.3em" style="text-anchor: end; visibility: hidden; font-family: &quot;Helvetica Neue&quot;, sans-serif; font-size: 12px; font-weight: 200;" fill="rgb(50, 49, 63)" stroke="none" stroke-width="1px">0.038</text></g><line x1="58.59375" y1="0" x2="58.59375" y2="377" fill="rgb(0, 0, 0)" stroke="rgb(204, 204, 204)" stroke-width="1px"></line></g></g><g transform="translate(58, 0)" clip-path="url(#clip_0)"><clipPath id="clip_0"><rect width="1439" height="377"></rect></clipPath><g><g><g><line x1="0" y1="0" x2="0" y2="377" fill="rgb(0, 0, 0)" stroke="rgb(60, 60, 60)" stroke-width="1px" opacity="0.25"></line><line x1="143.940625" y1="0" x2="143.940625" y2="377" fill="rgb(0, 0, 0)" stroke="rgb(60, 60, 60)" stroke-width="1px" opacity="0.25"></line><line x1="287.88125" y1="0" x2="287.88125" y2="377" fill="rgb(0, 0, 0)" stroke="rgb(60, 60, 60)" stroke-width="1px" opacity="0.25"></line><line x1="431.821875" y1="0" x2="431.821875" y2="377" fill="rgb(0, 0, 0)" stroke="rgb(60, 60, 60)" stroke-width="1px" opacity="0.25"></line><line x1="575.7625" y1="0" x2="575.7625" y2="377" fill="rgb(0, 0, 0)" stroke="rgb(60, 60, 60)" stroke-width="1px" opacity="0.25"></line><line x1="719.703125" y1="0" x2="719.703125" y2="377" fill="rgb(0, 0, 0)" stroke="rgb(60, 60, 60)" stroke-width="1px" opacity="0.25"></line><line x1="863.64375" y1="0" x2="863.64375" y2="377" fill="rgb(0, 0, 0)" stroke="rgb(60, 60, 60)" stroke-width="1px" opacity="0.25"></line><line x1="1007.5843749999999" y1="0" x2="1007.5843749999999" y2="377" fill="rgb(0, 0, 0)" stroke="rgb(60, 60, 60)" stroke-width="1px" opacity="0.25"></line><line x1="1151.525" y1="0" x2="1151.525" y2="377" fill="rgb(0, 0, 0)" stroke="rgb(60, 60, 60)" stroke-width="1px" opacity="0.25"></line><line x1="1295.465625" y1="0" x2="1295.465625" y2="377" fill="rgb(0, 0, 0)" stroke="rgb(60, 60, 60)" stroke-width="1px" opacity="0.25"></line><line x1="1439.40625" y1="0" x2="1439.40625" y2="377" fill="rgb(0, 0, 0)" stroke="rgb(60, 60, 60)" stroke-width="1px" opacity="0.25"></line></g><g><line x1="0" y1="377" x2="1439.40625" y2="377" fill="rgb(0, 0, 0)" stroke="rgb(60, 60, 60)" stroke-width="1px" opacity="0.25"></line><line x1="0" y1="348" x2="1439.40625" y2="348" fill="rgb(0, 0, 0)" stroke="rgb(60, 60, 60)" stroke-width="1px" opacity="0.25"></line><line x1="0" y1="319" x2="1439.40625" y2="319" fill="rgb(0, 0, 0)" stroke="rgb(60, 60, 60)" stroke-width="1px" opacity="0.25"></line><line x1="0" y1="290" x2="1439.40625" y2="290" fill="rgb(0, 0, 0)" stroke="rgb(60, 60, 60)" stroke-width="1px" opacity="0.25"></line><line x1="0" y1="261" x2="1439.40625" y2="261" fill="rgb(0, 0, 0)" stroke="rgb(60, 60, 60)" stroke-width="1px" opacity="0.25"></line><line x1="0" y1="232" x2="1439.40625" y2="232" fill="rgb(0, 0, 0)" stroke="rgb(60, 60, 60)" stroke-width="1px" opacity="0.25"></line><line x1="0" y1="203" x2="1439.40625" y2="203" fill="rgb(0, 0, 0)" stroke="rgb(60, 60, 60)" stroke-width="1px" opacity="0.25"></line><line x1="0" y1="174" x2="1439.40625" y2="174" fill="rgb(0, 0, 0)" stroke="rgb(60, 60, 60)" stroke-width="1px" opacity="0.25"></line><line x1="0" y1="145" x2="1439.40625" y2="145" fill="rgb(0, 0, 0)" stroke="rgb(60, 60, 60)" stroke-width="1px" opacity="0.25"></line><line x1="0" y1="116" x2="1439.40625" y2="116" fill="rgb(0, 0, 0)" stroke="rgb(60, 60, 60)" stroke-width="1px" opacity="0.25"></line><line x1="0" y1="87" x2="1439.40625" y2="87" fill="rgb(0, 0, 0)" stroke="rgb(60, 60, 60)" stroke-width="1px" opacity="0.25"></line><line x1="0" y1="57.99999999999994" x2="1439.40625" y2="57.99999999999994" fill="rgb(0, 0, 0)" stroke="rgb(60, 60, 60)" stroke-width="1px" opacity="0.25"></line><line x1="0" y1="29" x2="1439.40625" y2="29" fill="rgb(0, 0, 0)" stroke="rgb(60, 60, 60)" stroke-width="1px" opacity="0.25"></line><line x1="0" y1="0" x2="1439.40625" y2="0" fill="rgb(0, 0, 0)" stroke="rgb(60, 60, 60)" stroke-width="1px" opacity="0.25"></line></g></g></g><g><g><line x1="0" y1="551" x2="1439.40625" y2="551" fill="rgb(0, 0, 0)" stroke="rgb(153, 153, 153)" stroke-width="1.5px"></line></g></g><g><g><line x1="143.940625" y1="0" x2="143.940625" y2="377" fill="rgb(0, 0, 0)" stroke="rgb(153, 153, 153)" stroke-width="1.5px"></line></g></g><g><g><g><g><g><path stroke="rgb(0, 119, 187)" stroke-width="2px" d="M144.48184175,87.87186166644096L144.50487225,-98.08479412599536L144.5624485,23.555630259642157L144.585479,80.17563655069807L144.4703265,42.056931650303454L146.96913575,-0.41729277038382406L147.7406575,56.86179305507801L150.44674125,-25.42975308887725L150.35461924999998,-28.49897220115878L150.250982,19.301585909931987L150.26249725,3.2050073392540526L150.49280225,14.766663530812764L153.09524875,50.14815025730161L153.34858425000002,77.9225722617029L153.77464849999998,91.08510604029942L159.2098465,91.51131300687797L159.19833125,100.85756401018256L162.28441825,68.72623647626028L162.549269,79.09255980229295L164.714136,81.32968947554667L165.39353575,68.02031109419966L167.6850705,62.71625197076776L168.04204325,44.69393570328441L168.24931775000002,50.99406209664352L170.78267275000002,61.58860814283224L171.04752349999998,70.71586256884268L171.392981,79.10366504970659L174.09906475,71.53054676254783L174.23724775,72.64717300626546L173.8111835,89.29763449289203L174.4099765,103.80956658441545L177.00090774999998,112.31026670877367L177.09302975,108.3464120250477L179.9833575,105.1753290235174L179.69547625,101.77405804303498L179.6148695,96.8376220200085L180.236693,78.77262196383134L180.01790325000002,74.71413246911573L182.9312615,64.02991244846584L183.1615665,70.6150148025377L183.12702075,73.99912687947267L185.90219599999998,72.3422818694778L186.22462299999998,71.40354623759879L185.8331045,69.58393292038193L191.55618375,86.77074889349961L191.78648875,98.6581388028348L194.34287425,64.51958601853335L194.3543895,46.45191717466628L194.285298,51.319042099334126L197.14108,32.00941042519844L197.53259849999998,8.331766795490637L197.33683925,17.684255242379948L199.99686200000002,19.29927213041782L200.0659535,29.32904457194371L203.09446425,22.442778414923055L203.52052849999998,34.62857932290814L209.1860315,33.62403281853989L209.34724500000002,39.418263306347455L212.42181675,38.57279788255403L212.12242025,48.10518106887156L215.30062925,49.76643570306595L215.196992,61.11200760918564L218.28307900000001,70.27870944194848L221.01219325000002,84.44189405341433L221.01219325000002,78.10709828846171L223.96009725000002,78.56889018850416L223.79888375000002,73.87817259569772L232.73471775,80.31085666816745L233.298965,76.45955351163349L232.96502274999997,76.46172581305365L235.8092895,77.16654831016388L235.83232,89.45939083779837L236.05110975,82.45899727233194L238.95295274999998,76.45529901241224L238.7111325,67.01746905086856L238.95295274999998,57.86111247928835L238.98749850000002,66.70762112424836L239.13719675000002,78.61013876565255L238.96446799999998,92.2549131517572L241.497823,75.84059340133251L241.44024675,84.75641385606957L244.491788,87.692975430751L244.91785225,75.35325417539428L245.2057335,84.18476088202533L244.8372455,88.59697792048252L250.8251755,98.82985039664317L250.30698925,89.72588272840721L250.37608074999997,99.7989573854041L251.1015415,109.91123593259806L253.25489324999998,104.59222847042673L253.55428975,101.10543651566837L253.7270185,99.90259839671864L253.750049,113.07896300801787L255.9840075,108.71504081323417L256.66340725,122.30421505876313L256.50219375,122.76434775830771L256.8131055,129.16773149925L259.51918925,116.09812022916293L259.72646375,122.63061386870552L262.225273,113.47307297691054L262.62830675000004,120.6905577940077L265.69136325,128.4749228839501L265.7028785,118.37561007104239L270.96534775,128.41512615193494L274.60416675,127.42181784336265L277.1720675,129.22684837686643L276.780549,140.584687921401L276.8496405,151.76434363789235L277.06843025,141.1110753827854L277.09146075,148.22351817056455L279.87815125000003,137.66499069357795L280.52300525,135.22057732973065L280.13148675,140.2944010817407L282.88363150000004,126.77858498347149L282.8375705,128.1557331417513L283.090906,130.2272997947862L283.48242450000004,115.13650590352137L285.440017,95.59320321073596L288.9176225,73.1426544842036L288.65277175,82.9789023076857L288.848531,85.30908896302958L288.80247,87.6934571163286L292.19946875,79.61337765129315L294.47948825,57.6794889251471L294.99767449999996,68.28758129075374L295.1358575,52.639065769889896L294.5370645,54.5975938325559L294.6752475,64.40000961176383L294.98615925,77.69808313897624L297.63466675,83.8337391115536L297.95709375,77.931863101251L297.65769725,77.0316325911432L297.79588025,55.769627373840876L298.21042925,67.4806744037644L298.14133775,60.61539084423646L297.876487,73.10059188238586L298.30255125,84.06582656105098L300.824391,72.96639514287176L301.1237875,77.31791029239417L300.92802825,77.80074535563898L303.57653575,76.90409047906911L306.4668635,72.46269030846594L306.57050075,78.22928349247934L309.63355725,85.0350941598906L309.21900825,94.9973889509256L312.30509524999997,100.06145373951779L312.65055275000003,107.0390465594449L312.7772205,106.47952035689315L315.1723925,89.48015144951142L315.71360925,94.77606815890829L317.913022,98.86342983358975L318.511815,108.22984140272644L321.44820375,114.93264640318773L321.04517,121.3513464180077L321.736085,129.6295704492424L323.947013,140.7595200803438L326.9640085,128.44349038176279L327.27492025,138.48689837487737L327.58583200000004,141.95584556733493L330.349492,125.19869634788071L330.119187,135.7207481972014L330.26888525000004,146.56374944476738L332.836786,144.51244062666933L333.42406375,143.4269689109374L333.05557575,148.23512313819316L336.17620850000003,148.6569109174248L338.8477465,151.4924581649236L339.055021,134.02903392192735L342.5786875,132.64682209608227L345.07749675,141.34008239225142L345.21567975,129.98309280963852L344.91628325,135.29936076014826L345.00840525,133.67516373314336L345.23871025,121.53652374292733L347.80661100000003,118.77493425720837L347.88721775,124.59135785554278L347.70297375,123.69654139541157L347.622367,134.2568600317283L350.47814900000003,145.9916737941281L350.80057600000004,140.77511709239727L351.353308,150.20223886534498L353.32241575,149.55099602325515L353.6793885,151.4432835824274L357.0418415,146.2082964502931L356.56971625,151.436781826709L359.60974225,154.59908344833553L362.52310050000006,164.0555967678404L362.361887,164.7646588602059L362.8915885,164.3853330034339L365.73585525,161.68140874105626L369.040732,172.33042881265067L371.05590075000003,153.6260346771014L371.12499225,153.851006135215L374.1765335,149.3221714160686L374.061381,155.00959421830424L374.28017074999997,160.15089509895742L377.04383075000004,163.73600395152042L377.50444075,165.11901802682385L377.9074745,160.1848392204471L380.08385675,154.9825715619708L380.44082949999995,141.53427978178027L383.089337,141.99258142857983L385.92208850000003,145.91771405716636L386.42875949999996,154.51275326732187L386.11784774999995,164.50392093811612L386.49785099999997,167.01658130177373L386.67057975,172.09271700833574L389.169389,180.1481930907016L389.14635849999996,165.0150709636347L389.27302625000004,157.43741113988207L392.0482015,139.84700750698866L391.86395749999997,134.8472349741422L392.29002175,140.85513384132284L395.05368174999995,149.21187070084537L395.16883425,160.02832919808964L397.67915875000006,156.59899065803032L398.41613474999997,163.7377684550552L400.7076695,169.95978783829833L403.55193625,165.52349576955632L403.59799725,165.63450672439632L403.90890900000005,175.08005954954103L403.89739375000005,177.78638992749862L404.277397,172.61579140028695L406.82226725,162.78164783958144L406.810752,172.3432044630119L412.43019400000003,177.16897017795733L412.87928875,162.63421987967592L413.19020049999995,161.0669689897504L412.69504475,166.33033135828728L415.424159,171.86887459300036L415.96537575,178.64505683091926L415.976891,155.0731156077381L418.786612,149.74842052583463L421.26239074999995,147.58869691002087L421.33148225,142.7877182349108L421.58481774999996,151.13100695943032L421.23936025,151.8227986212531L421.90724474999996,162.31687053483608L424.50969125,166.8110751237802L424.63635899999997,167.7678526449371L430.56671275,172.59202979607971L430.42852975000005,170.20047908494624L436.16312425,163.69003602729867L436.60070375,168.18124283449515L436.76191724999995,144.94165483874468L439.20315025,141.25916446917515L442.47348125,143.4425518223468L444.765016,146.3679872270813L444.86865325,153.128676421754L445.35229375,132.97221695629585L447.67837425000005,126.49190181397762L451.06385774999995,118.6318253677054L451.167495,127.85383312598071L450.99476625,119.58924864087771L454.16146000000003,118.27173204015378L457.35118425,128.07549118682542L457.0863335,132.95205886417472L459.9421155,136.90135123743556L462.90153475,136.60460468958632L462.37183325,146.5899867319072L462.71729075,141.1183920984554L462.99365675,145.69594769684588L465.69974049999996,152.39426973465405L465.66519475,159.2131469960425L468.9240105,156.1960497021092L468.90098,157.72004628287598L468.39430899999996,156.6803744384026L468.85491900000005,157.95937763713175L471.48039600000004,156.94780901622454L471.5494875,163.44082293318553L474.63557449999996,174.4637539727982L474.53193725000006,181.22169712957754L474.78527275,179.23812755513376L474.474361,188.8970590759085L474.76224225000004,197.53201027795086L474.99254725000003,182.06721469680292L475.01557775000003,172.0105394439284L477.29559725,148.0076601832628L477.330143,142.0515993292645L477.54893275,125.4470452645719L480.56592825,125.88160669132043L480.45077575000005,121.36155462866054L483.1107985,130.93284215883787L483.225951,124.72767615577558L483.49080174999995,136.8456852692836L489.61691475000003,141.24205810881475L495.40908549999995,142.2394259255624L494.99453650000004,145.26119768562103L495.2709025,141.51182273379212L495.12120425,151.32555841987013L495.7775735,158.85499224429316L498.21880649999997,165.52897007781647L498.29941325,151.59565602803735L498.12668449999995,159.03307712786443L501.10913425,166.46378334930375L504.21825175,159.5847473242004L503.677035,164.94447290931274L507.16615575,171.9749364276993L507.25827775,165.0698042694517L506.763122,174.29982457391836L506.9243355,183.51291434602712L507.37343025,181.79148985475322L507.05100325,188.26552182320395L510.13709025,192.98391195818448L512.78559775,192.3108517892151L512.889235,200.46954656904512L512.94681125,198.96535230755137L512.7740825,208.09712045881082L512.9583265,212.78178381716722L513.2346924999999,211.0336945320907L512.843174,215.9422459647829L513.2692382500001,224.68737028880216L516.021383,223.92472395652626L516.24017275,223.50890527351623L518.79655825,219.52408200872947L518.7159515000001,222.18156616172416L524.865095,227.49405450109208L524.5656984999999,234.11751526039978L524.78448825,218.80973999995797L527.24875175,211.74163976467165L528.1123955,213.60891435626104L531.14090625,203.4045445560699L533.76638325,206.2565321149891L533.85850525,215.13267523148048L536.57610425,213.47596427761374L536.334284,218.64021575590192L536.69125675,219.2221817191378L537.0021685,223.12252706151997L539.8118895,224.48320959087735L542.828885,215.87434445065344L542.42585125,209.20169648437823L542.690702,215.0079190432908L545.4658772500001,221.53095553203042L545.8458805,228.46713282246472L548.13741525,229.5429551730902L548.22953725,219.04875617030598L551.3732005,223.32254370840607L551.61502075,215.76308111120733L554.01019275,213.9032228507874L554.19443675,215.8194282350398L556.93506625,218.10080993314472L557.48779825,223.1954312180707L557.51082875,229.26357002550094L557.76416425,230.3173396029719L563.2339079999999,227.65740305897341L565.997568,221.50123218705468L566.26241875,223.9668180152562L565.8593850000001,207.82517240954937L565.89393075,215.54000706463452L566.181812,215.83160008634374L569.46365825,213.8611800313957L569.452143,214.5353255844748L571.6861015000001,213.46828947038534L572.11216575,215.6010716557258L574.69158175,187.96451442885188L574.8067342500001,194.1374372912822L577.697062,200.90907822478627L580.276478,202.20730935677415L580.65648125,210.2874679080352L580.93284725,216.89836737302485L583.37408025,220.30243884520533L583.869236,210.50741780438608L583.74256825,215.1941505590472L584.0074189999999,218.3848100094081L586.82865525,215.80926042991635L586.75956375,222.18383766267772L586.81714,228.9406194276904L589.6038305,225.12419884614587L592.206277,224.45536763829122L592.897192,222.70050952389158L592.436582,225.7561913868669L592.666887,221.43854796280857L595.0390285,225.4410358022998L595.5687300000001,229.27590600431967L595.8220655,230.7482778356651L598.78148475,232.4028119475383L601.6257515,234.97034952710771L601.4875685000001,229.60872459769905L604.32032,227.9998348995986L607.32580025,225.15583140240534L607.6597425,229.3307305314554L607.64822725,212.7310032907308L607.18761725,219.47061502303103L607.3603459999999,224.2061383855231L610.3312805,228.34290693278115L610.11249075,234.64129401654688L610.61916175,234.04846554196112L613.15251675,220.41702783626883L613.3828217500001,220.28637471827358L616.16951225,208.4435163925461L615.84708525,198.74740415797388L616.12345125,203.01906731127718L616.2961799999999,205.01495783021312L616.65315275,209.6192982138538L616.5955765,206.97424935565303L616.3076952499999,198.59377325138635L616.4228477500001,193.87279127706435L619.0828705,184.19081393242894L619.20953825,186.41603993045103L621.81198475,196.5566071879131L622.145927,193.1827764619261L624.6101904999999,194.4545938037075L624.863526,185.97902202541061L625.03625475,194.4640823357313L625.185953,197.42390023705457L627.5465792499999,197.57158648509002L628.0187045,197.5473395145747L630.4599375,195.577157500948L630.9666085,196.07562257505498L631.127822,205.93343378195783L631.1508524999999,209.67517661659463L633.60360075,200.87422249490982L633.6381465,196.549309672526L633.5920855,197.30288973147069L634.0526955,201.72878001103334L636.73574875,196.85957485327356L640.07517125,182.6162200773989L642.8964075,176.7233589510665L646.0285555,174.12785896026296L646.04007075,177.90553566052068L646.0170402499999,181.04437651320498L648.9764595,182.04676201214622L651.5673907500001,186.21789536177698L651.256479,184.8576574015002L651.4176925,174.68496102020188L651.9704245,178.02153720121396L651.9128482499999,165.12416158939553L654.5498405,171.77624581274375L654.65347775,177.33467175423775L657.3135005,184.70310805440596L657.73956475,191.8753706404123L663.048095,193.2598629478354L663.49718975,182.6926539463051L663.0250645,181.83016605931846L666.2032735,174.9328017732762L666.51418525,180.66377831896997L666.19175825,186.99434387587695L669.3584519999999,178.2033647550324L669.496635,179.86866502914694L669.3469367499999,184.25214157023584L672.260295,194.68666179485655L675.3233515,204.16629955147016L675.4615345,204.9164360545334L675.54214125,210.18460285020382L677.9488285,194.68283533457355L677.73003875,196.2341387818422L680.6088512499999,196.6429748652477L681.04643075,201.06335284504797L681.18461375,211.13537649991358L681.104007,219.36939730957536L681.46097975,217.93533734091866L683.81009075,214.9950051080636L683.81009075,223.79422436198408L686.41253725,219.4805943220753L687.05739125,213.44815544614968L687.1610284999999,221.27412754857838L690.1204477499999,218.68759543104233L690.316207,212.08285518667185L689.9707495,209.0290074363749L692.5041044999999,216.37518206725852L693.0568365,210.95759346771982L695.87807275,211.81530035632622L701.693274,210.99331326128845L701.70478925,220.78987374446567L701.923579,231.15592420040417L701.5781215000001,236.8712447646386L702.05024675,235.07846409576592L704.67572375,240.1594542124706L704.79087625,231.7960854598553L707.9345395,233.68271423894564L707.3818075,241.28170779777133L707.89999375,249.3191186389099L710.72123,249.9465741970863L713.22003925,233.154453440978L713.4964052500001,221.58724369560116L713.1854935,223.04228791842277L716.26006525,223.69339728701587L716.524916,225.2761331662438L718.9891795,227.4974062787807L719.50736575,226.4569776986086L719.5879725,220.16802145250512L728.02865075,221.3146459569378L728.51229125,220.25279142004365L731.2874665,223.6186668750657L730.99958525,217.96569051826833L731.32201225,225.15148909937307L731.0111005,226.43444121141198L734.120218,231.8241562132899L734.258401,233.44635878765905L734.074157,230.78383174005012L737.4596405,237.58749276395403L739.8548125,241.39620814012684L740.1772395,246.73162219397628L739.9008735000001,254.62563027318083L739.7051142500001,257.81362729696997L742.42271325,248.75170152091746L742.72210975,245.1005885382289L745.5778917499999,227.6654371746743L746.0730475,231.76023137752256L748.95186,231.5105635931327L748.8827684999999,227.37277100773474L751.623398,225.00194295564876L754.340997,220.34665782223394L755.031912,228.62826561772846L757.4040535,232.06431332017632L757.3119315,234.56058192136894L760.513171,202.09106124293186L760.82408275,204.32618611295146L760.92772,205.64832942511154L761.0774182499999,207.41806586140734L763.1616785,213.6239191336633L763.65683425,222.87343321988303L763.4956207500001,226.14912800693895L767.04231775,227.77251161299452L769.034456,230.14451093616773L769.4605202500001,232.71571669808068L772.2817565,218.6006257558641L772.4544852500001,227.4378857191244L772.5120615000001,233.3774312710189L772.6847902499999,221.783960924935L775.5175417500001,218.53275659207335L775.19511475,208.7945837857048L775.5405722500001,206.3652417674048L778.05089675,214.3778247821019L778.4999915,212.04029632931847L784.31519275,209.5076177642974L784.5339825,216.05144346009507L784.13094875,212.32318924622987L784.6606502499999,209.95216943201552L786.98673075,217.6942836759985L787.44734075,212.09905953904467L787.10188325,218.8564817416092L787.2170357499999,215.04263246709937L787.40127975,220.4946361007375L789.58917725,217.6409472143445L790.1073634999999,224.75495358632716L793.27405725,218.50580381516443L793.1934505,226.91409935516575L796.0377172499999,234.2383578408162L795.76135125,218.99344620425447L799.020167,214.2486932838338L799.03168225,203.3828999899715L801.68018975,197.5150527478081L801.9220099999999,197.88552769063264L801.8529185,205.75125961630718L802.2674675,208.04178513638368L804.6280937500001,207.4463685301749L805.100219,194.37699169005538L805.1693104999999,193.13514405637034L807.7487265,176.31300753079373L807.73721125,180.40068232520161L807.725696,174.62206414250966L807.771757,180.72426311531225L813.9324157499999,189.4665887617756L814.1627207500001,155.29637930506087L816.431225,161.35534513224968L819.1948849999999,150.87760669191616L822.54582275,146.27779624057467L825.47069625,148.4067809930572L825.228876,148.97637908327195L825.4131199999999,143.88509874207625L827.9234445000001,149.88226867896307L828.5913290000001,151.22736976989952L828.00405125,156.75918160266392L828.05011225,165.91478157917578L831.0555925,166.3925675995068L831.75802275,173.8013652848356L834.5101675000001,174.89903265303448L834.40653025,177.49653254116376L834.5101675000001,185.568164681911L837.112614,191.51006234665635L837.3659495,201.7250995839642L837.19322075,209.30167749564848L839.6689994999999,203.21240261434045L839.830213,195.21859248099236L840.244762,196.6329627740537L840.02597225,196.14443364009645L840.4174907500001,204.7254002912706L840.2908229999999,208.3861104584648L840.2908229999999,210.85306764341715L840.60173475,214.96323417008065L840.1180942499999,222.3053864632097L842.7781170000001,191.67378189007997L845.8066277500001,192.23515992372668L846.5320885,194.71343286742444L849.134535,193.76466052859408L851.7024357500001,191.2892494189187L851.7139510000001,198.39812031071764L854.85761425,206.49427235000894L855.122465,203.02180973248187L858.12794525,212.85682956081828L860.327358,214.60315850337076L860.511602,222.9402829286663L860.6843307500001,222.34981368710052L863.827994,209.74087884132453L864.058299,207.71230070178376L866.4765014999999,216.6228152057792L866.6261997500001,210.15412547727286L866.92559625,216.68239508920948L866.453471,212.14126896797956L866.5225624999999,216.31965276311908L866.9946877499999,199.5839430992488L866.6607455,200.42583605395453L867.2134775000001,204.66988979940808L869.8504697499999,207.71523438438126L869.89653075,214.47895241523642L869.8274392500001,217.2247287201867L875.2971829999999,223.35685362818765L875.7462777499999,227.86083607185927L878.521453,226.03668424600235L878.4523615,224.5641760982785L878.64812075,224.31549803151387L881.1699605000001,218.16179697251272L881.745723,221.1671760092025L881.6536009999999,214.9975642737423L881.3887502499999,220.6437495230923L883.956651,227.58516980845957L884.31362375,236.87491644428675L884.63605075,234.94621035639628L887.0887989999999,238.87105356247073L890.1057945000001,225.7837980647318L890.37064525,223.45381598739175L890.2439775,221.93712562386435L890.25549275,217.7972578242229L890.2900384999999,215.41894514503232L892.9730917500001,203.92676409490147L893.0997595,206.21823491248207L893.27248825,211.87446809384417L893.721583,213.1380275617159L896.070694,210.1670259420782L899.2489029999999,216.517712762131L901.8052885,219.6380254973832L902.00104775,223.02020649761687L902.46165775,216.27229022046723L904.9950127499999,222.75274197356867L905.1562262499999,227.81026073729777L907.908371,233.3946060159923L908.10413025,240.8271355716111L908.1156455,240.00815609993282L908.38049625,247.25435552596014L911.00597325,244.85572053823827L910.9714275,252.71762900897744L911.16718675,257.52325129962816L913.9078162500001,259.0283868004795L913.5047824999999,253.4635836364938L913.988423,261.3450570944308L914.080545,263.4781254148183L916.94784225,267.8403573569866L917.2126930000001,274.6683001111386L919.34301425,251.21968710324302L919.80362425,242.72363224409648L919.699987,245.5263976288051L920.12605125,252.1179317216176L922.91274175,252.951996136498L922.8091045,249.1821356940573L925.51518825,248.459190664605L925.86064575,241.79063881912222L925.687917,240.76586187878277L928.94673275,244.6633445695031L931.3994809999999,234.66245158610627L934.4395069999999,232.87315700176984L934.19768675,237.7537794283587L934.31283925,244.61387293024043L937.05346875,220.1110812769301L937.1110449999999,224.37548784367235L940.473498,223.3947367556269L940.48501325,223.3179540860533L940.7268335,215.60358783152225L940.73834875,220.65771821305515L943.4674630000001,216.76632490136458L943.57110025,206.5874331808269L946.1620315,204.07299543475128L946.77233975,194.42804363957717L949.0638745000001,203.461322269132L949.0638745000001,203.66203449312732L949.5590302500001,210.5691599485661L952.48390375,207.568892954872L954.85604525,194.02958745033496L955.10938075,194.4038763775443L955.10938075,198.0953311386393L958.54092525,202.28013535620912L961.02821925,203.21041684360245L961.39670725,206.22945727120575L961.46579875,200.69458692274378L963.826425,195.43995503069394L966.87796625,190.42018756848398L966.64766125,193.54499234456577L967.511305,196.49891665469602L970.12526675,196.7376351510025L970.0446599999999,200.0010498694951L973.0616554999999,204.5963947532679L972.93498775,215.13872431005922L975.986529,219.72502822478302L976.27441025,219.43516809689692L976.32047125,217.2811051620014L976.262895,218.28523547504878L978.69261275,220.77858322910933L978.6120060000001,229.3405498482856L981.45627275,234.590225051877L984.5769055,233.08146865585945L984.95690875,237.25442912829794L984.8878172499999,240.50489301410204L984.830241,232.88971398641215L984.8878172499999,222.82982557648847L987.778145,206.22058747598055L987.62844675,212.16227940661872L987.65147725,215.42469438170923L988.0314805,219.4851848388257L987.9393584999999,225.4905204310891L990.55332025,232.74387910520045L993.68546825,237.38317495696668L996.3224605,229.23797471034737L999.00551375,218.2258146746916L999.35097125,221.4466163534136L999.892188,223.09868631178998L1001.83826525,202.85859547414236L1002.18372275,200.8270783226043L1002.4370582500001,182.42556416633732L1002.103116,172.63030191200085L1002.4255430000001,180.52493373259668L1005.24677925,177.3332821945998L1005.1201115,176.28765807050712L1005.0740505,174.58053326724263L1004.958898,180.63124211245426L1007.906802,181.57987289417898L1008.0680154999999,179.24178396083437L1008.40195775,177.64562003891461L1008.2407442499999,178.80718510943234L1008.4825645000001,179.2647378531464L1014.3898877500001,174.3809961324799L1013.9407930000001,169.48780945023174L1014.02139975,158.44862002806806L1014.2862504999999,157.85769297649327L1014.0559455,159.22543710322256L1017.02688,162.43481879390345L1017.36082225,166.70187874633885L1019.6753875,165.43847424565612L1020.1820585,149.64344737437935L1028.71485875,157.7348967725767L1034.81794125,155.0371970787984L1034.5761209999998,163.40523826799145L1040.8058712499999,155.63718703242574L1043.3046805000001,147.1044305376041L1043.47740925,139.34393609159687L1043.28165,145.9128957793097L1043.73074475,146.04836216735654L1049.1313969999999,148.78286443214736L1049.7071595,153.15759214280743L1049.592007,157.47027752357698L1049.46533925,166.34894167478583L1051.987179,157.3720609519067L1055.24599475,141.60045532805202L1055.77569625,149.4696534581543L1057.9060175,156.6532762388649L1058.14783775,142.95874426391183L1058.19389875,147.21176198752138L1061.18786375,141.81803557878862L1061.51029075,151.89276076060463L1061.6830195,147.9176809199039L1061.71756525,144.43291467915844L1064.4697099999998,149.19245247176545L1064.27395075,151.61759049004326L1064.2163745,159.52949991234928L1070.51521625,154.7439677360895L1073.27887625,157.41700455928978L1072.76069,165.96715038726487L1075.97344475,158.52555855235795L1075.9619295,155.55695132907712L1076.08859725,163.06668191280602L1078.76013525,167.8570696830907L1079.01347075,164.6386388380678L1082.1801645,176.06510724234386L1084.93230925,179.52390508575732L1087.868698,176.2863681534385L1088.1105182499998,184.97176627523493L1088.329308,191.39321509886315L1093.5111705000002,182.64726363791004L1096.4590745,186.96830303208097L1099.85607325,191.04778403388096L1099.4184937500002,197.7845887995042L1102.41245875,200.29693351328638L1102.73488575,202.54642749562518L1102.884584,206.50459334686676L1105.5100610000002,201.92173609195015L1105.5791525,196.35493525202617L1105.279756,192.1321241899541L1108.043416,180.11518599335764L1108.07796175,184.271402737147L1111.50950625,170.47167305233117L1110.945259,163.08419454652812L1111.2101097500001,166.4600657468677L1111.16404875,164.954466814579L1114.11195275,170.3233029622736L1114.52650175,179.18109967716006L1114.6071085,182.24179715187523L1117.22107025,182.05140379866285L1117.24410075,189.39778842258775L1117.624104,191.72102511981322L1122.828997,189.85956877824495L1123.55445775,198.31262901184516L1126.237511,200.022752134574L1129.08177775,183.73938509328124L1128.82844225,179.85723155739737L1129.231476,179.70692284229125L1131.8339225,184.30306158433174L1131.856953,190.01392403126783L1131.79937675,191.17978923088106L1135.0121315000001,192.45138367417616L1137.76427625,187.93236146596107L1137.87942875,190.5393547252611L1138.213371,195.34472711010412L1143.69463,189.97053426979673L1144.109179,179.48177428463632L1143.924935,187.16404779655502L1146.70011025,183.74515222993145L1146.53889675,177.66952107774395L1147.149205,174.25135620584183L1149.2104347499999,162.41286740267367L1149.55589225,152.86110999764523L1152.492281,154.09963468629383L1153.2062265,155.26943813424836L1155.5092765,148.79594348942308L1155.4171545,138.58343911957797L1155.54382225,138.277425197466L1156.1771609999998,142.51739416320683L1158.53778725,144.01626435207908L1158.95233625,149.78680126106815L1161.39356925,127.66904971586297L1161.5432675,123.00964401923784L1161.57781325,126.83677889240428L1164.31844275,125.72105223913329L1164.9287510000001,127.87839832673637L1164.6523849999999,136.25150226403636L1170.1566745,134.65689847444878L1173.4154902500002,141.03860306722297L1173.2197310000001,151.5918578918088L1173.18518525,161.8440420715209L1176.22521125,166.04746585792978L1179.3343287500002,171.7786829056185L1178.94281025,177.31454567616854L1179.62221,181.40755026524712L1184.86164875,184.50669939980926L1185.29922825,186.54189891794707L1185.43741125,196.09402541599874L1185.18407575,198.2121616840454L1187.90167475,189.79366658771917L1187.83258325,187.50310104031453L1190.80351775,173.999660023466L1191.1374600000001,179.351617541888L1191.091399,185.25849267790667L1194.14294025,179.27089978647192L1194.16597075,178.46083776162345L1193.75142175,155.14467924243235L1196.83750875,155.40773294836066L1196.8720545,156.66969527960808L1196.58417325,160.25205567573056L1196.90660025,169.28925352127123L1196.7914477499999,172.29545606868996L1199.8660195,165.83197807560003L1199.566623,171.33540294386995L1199.67026025,178.15044642498418L1199.85450425,179.9913812802226L1202.47998125,166.53914570758252L1202.89453025,166.22009619813693L1202.9636217500001,162.98643900743997L1203.05574375,173.01306455935236L1206.14183075,176.89246529351655L1212.003093,177.50786740671143L1211.9340015,181.92225213316004L1211.4503610000002,191.62488982020068L1214.6631157499999,196.85859033048868L1215.08918,190.10315170365067L1218.0140535,199.0507886047005L1217.3461690000001,201.4374820450391L1217.49586725,207.70688282162627L1220.294073,210.1016162060922L1220.25952725,213.87865728420974L1220.35164925,220.35600755782568L1220.294073,225.06291248470325L1220.7777135,222.89899852163583L1220.81225925,228.65692199369778L1223.3110685,224.33447624838837L1223.32258375,226.00354452195396L1226.24745725,206.75098061692833L1226.5007927499998,205.82146719164487L1226.22442675,206.79881682400068L1226.61594525,209.4700257363716L1229.1723307500001,212.45169562116143L1232.02811275,208.3352587021815L1232.454177,206.08067562436372L1232.1547805,207.0003642100602L1235.1948065,203.85214299998376L1235.43662675,210.26058038512892L1237.71664625,207.7368804952743L1238.38453075,217.31806367358496L1241.07909925,208.88442109795503L1241.19425175,211.02855256131497L1243.70457625,213.1822744631167L1243.9003355,218.47446678056914L1244.4070064999999,226.4164806539378L1246.917331,226.77561194183227L1246.8943005,232.72860124511047L1249.7961435,223.2999167655947L1250.01493325,227.46069877484845L1252.8591999999999,224.69043814404637L1253.273749,225.52003414703685L1256.11801575,223.57330711744572L1255.86468025,224.96611744135473L1255.945287,223.4501381120191L1258.524703,220.18963083218154L1258.7895537499999,220.55074315813178L1258.95076725,226.27379724234456L1264.9617277500001,230.37176683953513L1264.742938,231.33744336699112L1267.690842,234.1932145369379L1270.32783425,238.53237736268193L1270.730868,243.3306962394379L1273.6096805,236.73915869711993L1276.5115234999998,241.5247349904517L1276.6957674999999,243.9565491221227L1279.26366825,248.2864425432387L1279.56306475,246.23478429780752L1282.37278575,251.2808242516289L1282.4533925,255.22406062707378L1282.78733475,264.7369173745669L1284.9406865,257.4037630867106L1285.608571,264.342302306463L1285.6316015,270.635998217673L1288.36071575,266.57226911989295L1288.003743,271.09904787937944L1288.54495975,274.1871595284357L1290.675281,272.72812716553346L1290.8940707499999,276.2817595629309L1293.807429,273.47219626787086L1294.360161,276.13907028134133L1294.5904659999999,280.7005570851728L1296.5941195,278.8018758938756L1297.59594625,282.9859901662871L1299.7723285,290.19597491123847L1300.38263675,293.60775273560114L1300.42869775,294.97831197950126L1302.93902225,290.4730672728813L1303.10023575,293.71855411153285L1302.8814459999999,287.4851401466369L1303.03114425,288.8652071773519L1303.2269035,295.92322247840264L1306.09420075,300.54207263715676L1306.16329225,308.53115886695196L1308.85786075,306.4118278699828L1309.0766505000001,310.5790149375403L1308.8233149999999,318.2779452961976L1309.50271475,321.4448024532003L1312.231829,322.6609404406717L1314.6500315,322.46412207781276L1314.7421535,315.3653190199041L1314.7306382499999,318.28213842297237L1315.0645805,320.11133091858284L1317.60945075,321.2954635273696L1320.660992,322.30635839489395L1320.6379614999998,325.97185964202686L1321.24826975,330.39929324749284L1323.608896,336.0089902483289L1326.3955865,336.7938658481588L1326.79862025,332.1087096963644L1332.1992725,321.50794022529794L1332.48715375,317.89951022922486L1332.7520044999999,315.812431913526L1332.7059435,317.5239369257139L1334.9859629999999,314.3994966813418L1335.2392985,315.94851537702016L1335.34293575,317.4823658394936L1335.71142375,325.07178372416627L1335.8380915,327.8839981634198L1338.42902275,333.95028626492893L1338.486599,340.3429767213854L1341.51510975,338.6069968966334L1341.39995725,336.00141034390344L1340.96237775,335.7181051390487L1341.67632325,334.59467863693175L1341.60723175,336.56554749203883L1344.32483075,331.74435416817107L1344.34786125,332.02574501684364L1347.2727347500002,333.3652160759371L1350.61215725,334.74020291286485L1353.1800580000001,336.6191433007624L1353.3527867500002,338.2974798280698L1352.7885395,334.29893203484556L1353.364302,332.56767895401754L1352.96126825,332.6702139120101L1353.07642075,337.6624978671389L1355.759474,341.4181400676887L1359.20253375,336.5332577427931L1358.78798475,334.6593333465536L1359.0758660000001,338.1551550765209L1362.4613495,344.62686338233925L1364.372881,332.73941600044225L1365.201979,328.2721949702588L1365.3171315,329.0920186610663L1365.24804,334.35996717465696L1365.51289075,334.56000228094723" style="fill: none;" fill="none"></path></g></g></g></g><g opacity="0.2"><g><g><g><path stroke="rgb(0, 119, 187)" stroke-width="2px" d="M144.48184175,87.87186166644096L144.50487225,-276.60318368673336L144.5624485,252.43425278365612L144.585479,236.80559827387333L144.4703265,-95.76820486783987L146.96913575,-188.62292820215225L147.7406575,355.50423806905746L150.44674125,-516.3202648758889L150.35461924999998,-49.02176649868494L150.250982,372.0307043045759L150.26249725,-126.27614007890236L150.49280225,115.14792314171791L153.09524875,379.01786018535495L153.34858425000002,352.4218285679817L153.77464849999998,228.60515958070755L159.2098465,96.19529640674591L159.19833125,208.4359955266118L162.28441825,-317.16832795739174L162.549269,208.56296180188656L164.714136,110.30038262158632L165.39353575,-110.21810674667364L168.04204325,-211.64852285385143L168.24931775000002,143.0683229342103L170.78267275000002,220.40172296017408L171.04752349999998,210.82358809560537L171.392981,210.76246818900108L174.09906475,-49.85594654083252L174.23724775,90.90117274224758L173.8111835,366.58707589283586L174.4099765,349.7493248656392L177.00090774999998,258.77324866503477L177.09302975,38.97761090099806L179.9833575,48.855862602591515L179.69547625,40.517465233802795L179.6148695,6.750053748488369L180.236693,-255.0601856559516L182.9312615,-138.0336871147157L183.1615665,196.49481868743896L183.12702075,139.35043385624886L185.90219599999998,40.035852253436985L186.22462299999998,52.930342987179756L185.8331045,33.461586594581604L191.55618375,430.80945920571685L191.78648875,338.5087042339146L194.34287425,-629.5108748376371L194.3543895,-323.5129145681859L194.285298,151.66726990044117L197.14108,-368.7205789387227L197.53259849999998,-486.12233155965816L197.33683925,214.15601393580437L199.99686200000002,53.41995044052601L200.0659535,242.38195924460888L203.09446425,-124.59530213475233L203.52052849999998,296.1148107647896L209.1860315,11.966069251298904L209.34724500000002,164.9070624485612L212.42181675,20.182875007390976L212.12242025,256.3037937730551L215.30062925,86.19367054104805L215.196992,310.83306765556335L218.28307900000001,272.77138179540634L221.01219325000002,398.38904889672995L221.01219325000002,-62.777283579111156L223.96009725000002,88.87154890596867L223.79888375000002,-31.089623436331806L232.73471775,224.67738857865334L233.298965,-10.213839799165726L232.96502274999997,76.5107432603836L235.8092895,93.11115837097168L235.83232,368.2275903634727L236.05110975,-76.66125239431864L238.95295274999998,-151.60473713278782L238.98749850000002,269.4827635064721L239.13719675000002,351.9470351971686L238.96446799999998,406.1671849563718L241.497823,-302.4405641257764L241.44024675,290.5689422264695L244.491788,155.58807274699208L244.91785225,-210.38269528746616L245.2057335,288.9834707826376L244.8372455,191.0573616847396L250.8251755,336.77579418197274L250.30698925,-122.24152402579796L250.37608074999997,334.6189609952271L251.1015415,345.9235779233277L253.25489324999998,-19.689667016267776L253.55428975,19.545909970998707L253.7270185,71.73771879076958L253.750049,421.91633724048734L255.9840075,6.332234501838627L256.66340725,441.4152889735997L256.50219375,133.57904555648565L256.8131055,279.7964168936014L259.51918925,-191.59141646325588L259.72646375,276.54053273051977L262.225273,-102.44564244151121L262.62830675000004,290.9879228323698L265.69136325,312.2739633768797L265.7028785,-120.23939469456684L270.96534775,365.76716976612806L274.60416675,103.9240071773529L277.1720675,171.95167860388753L276.780549,409.57320856302977L277.06843025,-111.45573759078985L277.09146075,316.9278269857168L279.87815125000003,-112.89749757945549L280.52300525,77.18633024394512L280.13148675,260.80746392160654L282.88363150000004,-194.38213573396206L282.8375705,160.89243257790804L283.090906,179.4902235493064L283.48242450000004,-243.86284591257584L288.9176225,-461.3109444975854L288.65277175,317.2151958793402L288.848531,140.81655538082123L288.80247,144.5086514800787L292.19946875,-112.97587582468992L294.47948825,-465.26097038388264L294.99767449999996,321.2693659812212L295.1358575,-320.64187245070946L294.5370645,101.32791011035442L294.6752475,298.33975902199745L294.98615925,395.13505531847477L297.63466675,230.3290488421917L297.95709375,-63.01095986366272L297.65769725,55.528924822807255L297.79588025,-452.18709015846264L298.21042925,347.3130362331867L298.14133775,-103.45764549076563L297.876487,371.53419621661305L298.30255125,346.2102445997298L300.824391,-192.42759512364876L301.1237875,181.38078136742115L300.92802825,89.34900259971619L303.57653575,55.45530004799366L306.4668635,-33.79364588856697L306.57050075,216.2071364223957L309.63355725,247.89825363457203L309.21900825,333.42315258830786L312.30509524999997,221.27239128947258L312.65055275000003,274.06924127042294L312.7772205,93.08415001630783L315.1723925,-317.5346692800522L315.71360925,221.587956905365L317.913022,196.74515912681818L318.511815,332.5508502535522L321.44820375,275.47510715574026L321.04517,275.10150058567524L321.736085,327.9371885806322L323.947013,407.4010616391897L327.27492025,379.1317949295044L327.58583200000004,225.0789758041501L330.349492,-276.3625932633878L330.26888525000004,406.43183982372284L332.836786,95.3471260368824L333.42406375,117.40922464430332L333.05557575,263.48804312199354L336.17620850000003,158.7677933499217L338.8477465,219.4679901227355L339.055021,-284.63433401286613L342.5786875,99.5086003318429L345.07749675,349.7678390927613L345.21567975,-142.3206692337991L344.91628325,262.771160364151L345.00840525,94.72922889888287L345.23871025,-169.54120153188705L347.80661100000003,52.5513077378273L347.88721775,264.0752857774496L347.70297375,102.23722739517689L347.622367,387.5200497210026L350.47814900000003,427.4304304495454L350.80057600000004,15.661730453372002L351.353308,376.3074772655964L353.32241575,133.93082937598226L353.6793885,196.83123475313187L357.0418415,20.640180468559265L356.56971625,276.85180401802063L359.60974225,230.4544756412506L362.52310050000006,390.8975254967809L362.361887,181.77391497790813L362.8915885,155.285741224885L365.73585525,96.81616446375847L369.040732,427.79750099778175L371.05590075000003,-295.09493985772144L371.12499225,159.24819095432758L374.1765335,40.67130482196808L374.061381,291.45811127871275L374.28017074999997,283.4990462511778L377.04383075000004,249.74978438019753L377.50444075,198.3006783053279L377.9074745,41.801118314266205L380.08385675,30.16516289114952L380.44082949999995,-181.13286325335514L383.089337,152.98881570249793L385.92208850000003,240.09618817269802L386.42875949999996,360.74175222218037L386.11784774999995,404.2339809462428L386.49785099999997,227.3064358383417L386.67057975,293.89283342659473L389.169389,373.43827171623707L389.14635849999996,-198.10529144108295L392.0482015,-282.24279822409164L391.86395749999997,14.874490931630135L392.29002175,285.01956260204315L395.05368174999995,349.7399799749255L395.16883425,419.58161352574825L397.67915875000006,74.3075637370348L398.41613474999997,335.0430596843362L400.7076695,319.26702058315277L403.55193625,59.067019283771515L403.59799725,168.2984205186367L403.90890900000005,401.7448099553585L403.89739375000005,242.73047505319118L404.277397,48.535813599824905L406.82226725,-73.21152926981455L406.810752,401.7960448041558L412.43019400000003,292.97546765208244L412.87928875,-186.16543801128876L413.19020049999995,123.45650328695774L412.69504475,292.63956474512815L415.424159,304.78233194351196L415.96537575,341.2598292566836L415.976891,-410.60805225372326L418.786612,21.965588465332985L421.26239074999995,95.75916549563408L421.33148225,27.572414860129356L421.58481774999996,351.3562814556062L421.23936025,168.42471158504486L421.90724474999996,414.158768042922L424.50969125,274.66547770798206L424.63635899999997,190.72918316721916L430.56671275,288.3658437281847L430.42852975000005,112.80632580071682L436.16312425,7.447409465908947L436.60070375,275.96490366756916L436.76191724999995,-412.78211677074444L439.20315025,52.88340246677399L442.47348125,195.84156761318445L444.765016,216.57550337165594L444.86865325,315.37870878726244L445.35229375,-350.76418237388145L451.06385774999995,-70.0033148527146L451.167495,349.17447904497385L450.99476625,-78.75429184734833L454.16146000000003,86.65232641994953L457.35118425,363.35861871391535L457.0863335,249.98629654198885L459.9421155,231.6817352771759L462.90153475,129.48287746310234L462.37183325,386.2330205962062L462.71729075,9.803348243236485L462.99365675,255.55469004809856L465.69974049999996,313.1503574773669L465.66519475,322.862642839551L468.9240105,83.78722614049911L468.90098,194.29523127526045L468.39430899999996,131.72873018682L468.85491900000005,188.65488751232624L471.48039600000004,132.67059253901243L471.5494875,319.2705046609044L474.63557449999996,439.00977636128664L474.53193725000006,343.4097888171673L474.78527275,131.6331746280193L474.474361,420.70806447789073L477.54893275,-273.0577429533005L480.56592825,136.31096763908863L480.45077575000005,12.88143640756607L483.1107985,360.64144319295883L483.225951,-24.194876641035137L483.49080174999995,427.6752206720412L489.61691475000003,246.75407169759274L495.40908549999995,166.1760499924421L494.99453650000004,217.78312793374062L495.2709025,51.527529045939445L495.12120425,386.8534430153668L495.7775735,339.56009896844625L498.21880649999997,325.70332756638527L498.29941325,-182.80165547132492L498.12668449999995,337.5300429984927L501.10913425,344.79963874816895L504.21825175,-5.511145085096359L503.677035,293.57715977728367L507.16615575,340.7051451727748L507.25827775,-0.6525041311979294L506.9243355,404.6260072141886L507.37343025,140.47749249637127L507.05100325,343.6416015252471L510.13709025,306.2247941493988L512.78559775,176.15747360885143L512.889235,396.27745470404625L512.94681125,162.86482571065426L512.7740825,427.25876534730196L512.9583265,325.21331498771906L513.2346924999999,169.07969119399786L512.843174,333.7471042983234L513.2692382500001,434.56971088796854L516.021383,205.62126582860947L516.24017275,213.52928506582975L518.79655825,123.88858294486997L518.7159515000001,285.9610198289156L524.865095,354.99345606565475L524.5656984999999,393.0801921747625L524.78448825,-148.5760202407838L527.24875175,42.10760912299156L528.1123955,258.42340944707394L531.14090625,-41.499831691384315L533.76638325,274.70409965515137L533.85850525,428.15971004217863L536.57610425,173.71497305482626L536.334284,342.58203676342964L536.69125675,233.18934163451195L537.0021685,316.7306659966707L539.8118895,257.1395402997732L542.828885,9.261884748935643L542.42585125,49.05837124586105L542.690702,354.3570717088878L545.4658772500001,378.0836276933551L545.8458805,394.93517998978496L548.13741525,255.3626606464386L548.22953725,-32.81173014640808L551.3732005,325.89333134144545L551.61502075,34.33617113530636L554.01019275,169.26667003333569L554.19443675,261.8083125203848L556.93506625,272.85391932725906L557.48779825,345.4662319496274L557.51082875,374.89877550303936L557.76416425,255.6077884733677L563.2339079999999,163.8189768642187L565.997568,73.75324426591396L566.26241875,283.14083444327116L565.8593850000001,-179.57404905557644L565.89393075,400.69591349363327L566.181812,222.82982806116343L569.46365825,166.5711282044649L569.452143,230.71480917185545L571.6861015000001,187.85943745076656L572.11216575,266.78781586140394L574.69158175,-475.3125076889993L574.8067342500001,342.28751065582037L577.697062,363.42838129401207L580.276478,233.36484192311764L580.65648125,404.2111858949065L580.93284725,375.55988600850105L583.37408025,302.0001203045249L583.869236,-24.572993606328964L583.74256825,327.6756936907768L584.0074189999999,294.96060872823L586.82865525,153.99609228968617L586.75956375,375.17363952845335L586.81714,391.1033291593194L589.6038305,133.53013342618942L592.206277,208.4034234508872L592.897192,180.58392687141895L592.436582,299.09253588318825L592.666887,117.8151332065463L595.0390285,321.50071954727173L595.5687300000001,321.312768407166L595.8220655,266.0851935148239L598.78148475,272.11162170767784L601.6257515,296.5912381410599L601.4875685000001,100.92975294589996L604.32032,189.38648982346058L607.32580025,156.89976049959657L607.6597425,329.52829126641154L607.64822725,-185.6623803973198L607.18761725,381.2212692797184L607.3603459999999,337.85868065804243L610.3312805,327.6253366135061L610.11249075,385.80256143957376L610.61916175,219.82058419287205L613.15251675,-106.73743204772478L613.3828217500001,217.15070030093193L616.16951225,-75.78504735231405L615.84708525,-33.95926111936569L616.12345125,305.5389709994197L616.2961799999999,252.91632490605116L616.65315275,320.1234555095434L616.5955765,143.49308332800862L616.3076952499999,-2.5376332700252533L616.4228477500001,80.56923469901085L619.0828705,-48.176621064543724L619.20953825,239.82145918905735L621.81198475,439.9302008319646L622.145927,112.21084559708828L624.6101904999999,224.97820763289928L624.863526,-17.434685468673706L625.03625475,398.10551518946886L625.185953,268.45952498167753L627.5465792499999,201.11605620384216L628.0187045,196.96541225910187L630.4599375,148.29279205203056L630.9666085,208.03878365457058L631.127822,442.52088947594166L631.1508524999999,299.47699981182814L633.60360075,-10.34866550564766L633.6381465,92.75140708684921L633.5920855,215.38881028443575L634.0526955,307.9501418620348L636.73574875,79.99865619838238L640.07517125,-159.22428013384354L642.8964075,35.294697642326355L646.0285555,111.8358616009354L646.04007075,268.56977308541536L646.0170402499999,256.3765542805195L648.9764595,206.1040131598711L651.5673907500001,286.3250924497843L651.256479,152.211947388947L651.4176925,-69.45974470674992L651.9704245,258.0993632078171L651.9128482499999,-144.41284441947937L654.5498405,331.4262628778815L654.65347775,310.7368909046054L657.3135005,361.54557487368584L657.73956475,364.00966860726476L663.048095,226.48767756670713L663.49718975,-70.92035652697086L663.0250645,161.13045720756054L666.2032735,9.396062254905644L666.51418525,318.20721274614334L666.19175825,338.92791441082954L669.3584519999999,-32.78013037145138L669.496635,219.8358709216118L669.3469367499999,289.4555768221617L672.260295,445.11514322273433L675.3233515,431.6776022538543L675.4615345,222.91971186548471L675.54214125,336.62060417607427L677.9488285,-177.35958003997803L677.73003875,233.4654210358858L680.6088512499999,206.45504074543715L681.04643075,307.15242309868336L681.18461375,452.86394145712256L681.104007,416.98589457571507L681.46097975,183.51789845526216L683.81009075,144.42703223228452L683.81009075,434.9754844084382L686.41253725,115.95347432792187L687.05739125,68.66962371766567L687.1610284999999,409.09745639562607L690.1204477499999,156.61082512140274L690.316207,53.56909057497978L689.9707495,135.73666198551655L692.5041044999999,392.6833719238639L693.0568365,80.93546798825264L695.87807275,232.40026554465294L701.693274,191.26562310755253L701.70478925,455.90732388570905L701.923579,479.9411336649209L701.5781215000001,374.03893752396107L702.05024675,192.0517282783985L704.67572375,362.1032163724303L704.79087625,31.075236409902573L707.9345395,278.96180471777916L707.3818075,423.65755236148834L707.89999375,442.2169779650867L710.72123,265.0055075287819L713.22003925,-169.8564430475236L713.4964052500001,-56.02578909695154L713.1854935,257.96334913372993L716.26006525,239.32002207636833L716.524916,263.2617941349745L718.9891795,280.80796080082655L719.50736575,201.48669185489416L719.5879725,69.23307201266289L728.02865075,248.8336339816451L728.51229125,194.76828260719776L731.2874665,304.39967757463455L730.99958525,82.29425831139088L731.32201225,397.6106546111405L731.0111005,257.22529182583094L734.120218,361.17731595784426L734.258401,272.37922048568726L734.074157,166.883182734251L737.4596405,400.8753570020199L739.8548125,332.8053769879043L740.1772395,374.78155924379826L739.9008735000001,444.0818238295615L739.7051142500001,334.3255557343364L742.42271325,31.265483260154724L742.72210975,157.473877094686L745.5778917499999,-190.7781949043275L746.0730475,330.0352921001613L748.95186,225.51853677630424L748.8827684999999,128.0657490938902L751.623398,168.10206978023052L754.340997,108.61981476098299L755.031912,427.38685246929526L757.4040535,314.5294580832124L757.3119315,294.4710282832384L760.513171,-577.177434206009L760.82408275,257.9691829383373L760.92772,237.3797688856721L761.0774182499999,249.89174029231071L763.1616785,362.5643975324929L763.65683425,444.8617710955441L763.4956207500001,304.7658028304577L767.04231775,266.73371812701225L769.034456,287.07249464839697L769.4605202500001,294.4246549382806L772.2817565,-120.16155661642563L772.4544852500001,439.53212469257414L772.5120615000001,375.9265244230628L772.6847902499999,-56.459327206015644L775.5175417500001,140.50385265052319L775.19511475,-24.921563431620655L775.5405722500001,148.06103336066008L778.05089675,406.67981703206897L778.4999915,155.93961349129677L784.31519275,148.72333223372698L784.5339825,373.1032600849867L784.13094875,122.8450881540775L784.6606502499999,153.04769391566512L786.98673075,403.5050254538655L787.44734075,77.813680306077L787.10188325,381.03461454063654L787.2170357499999,123.5102499127388L787.40127975,351.34272326156497L789.58917725,149.15241396427155L790.1073634999999,395.4911064580083L793.27405725,68.52620935440063L793.1934505,428.7131922543049L795.76135125,-146.88443297147762L799.020167,100.37462322413916L799.03168225,-57.39613899588585L801.68018975,56.686718970537186L801.9220099999999,206.77692631632087L801.8529185,394.52882578969L802.2674675,263.0143976062536L804.6280937500001,193.1563699841499L805.100219,-119.28805240988737L805.1693104999999,163.33080085366964L807.7487265,-227.41826900839817L807.73721125,278.50487737357616L807.725696,35.935227781534195L807.771757,327.1770384386182L813.9324157499999,399.2824042439461L814.1627207500001,-664.7886475324633L816.431225,306.77052496373653L819.1948849999999,-100.58811584115034L822.54582275,35.88234542310238L825.47069625,199.50241504609585L825.228876,162.64673324674368L825.4131199999999,21.694370567798615L827.9234445000001,293.8143471479416L828.5913290000001,183.50979594886303L828.00405125,289.5226655751467L828.05011225,385.64918099343777L831.0555925,177.8594320863485L831.75802275,351.61250971630216L834.5101675000001,201.24304948747158L834.40653025,239.83652985095978L834.5101675000001,379.2873360440135L837.112614,334.11560628935695L837.3659495,446.88599326089025L837.19322075,391.1395473629236L839.6689994999999,57.06980547308922L839.830213,3.367149293422699L840.244762,230.57784980535507L840.02597225,184.41973442584276L840.4174907500001,410.6685999073088L840.2908229999999,296.2431544661522L840.2908229999999,270.0600400790572L840.60173475,313.6072308048606L840.1180942499999,398.5170414894819L842.7781170000001,-543.4847278296949L845.8066277500001,205.70823273062706L846.5320885,254.19198351353407L849.134535,170.99412439763546L851.7024357500001,131.87938278913498L851.7139510000001,369.01102170720696L854.85761425,400.8019212856889L855.122465,119.68270691484213L858.12794525,448.89730543270707L860.327358,256.5150531232357L860.511602,423.0312691293657L860.6843307500001,208.17855188995597L863.827994,-92.8735574483872L864.058299,159.0264253541827L866.4765014999999,430.47516329586506L866.6261997500001,54.90557199716568L866.92559625,373.3608657717705L866.453471,103.15424206107855L866.5225624999999,316.60086384415627L866.9946877499999,-202.0730888247491L866.6607455,220.63126696646214L867.2134775000001,306.52717968821526L869.8504697499999,280.803504422307L869.89653075,376.8081851527095L869.8274392500001,283.12336003780365L875.2971829999999,370.5278514176607L875.7462777499999,335.9564147181809L878.521453,182.25704042613506L878.4523615,189.2239805534482L878.64812075,218.34722442924976L881.1699605000001,70.47297155857086L881.745723,293.29627288877964L881.6536009999999,66.92688262462616L881.3887502499999,356.15219550579786L883.956651,394.1792566552758L884.31362375,459.8288357015699L884.63605075,188.65726424753663L887.0887989999999,333.067290507257L890.1057945000001,-88.31033387780195L890.37064525,167.53424613177776L890.2439775,185.53655689954758L890.25549275,118.44043063372374L890.2900384999999,158.33944084495306L892.9730917500001,-71.8855811059475L893.0997595,261.2135345339775L893.27248825,347.6240644454956L893.721583,243.46345479041338L896.070694,138.8629870712757L899.2489029999999,368.93419644236565L901.8052885,294.52553114295006L902.00104775,304.1925505027175L902.46165775,54.3222995698452L904.9950127499999,378.2835840471089L905.1562262499999,349.1907110661268L907.908371,367.4188927039504L908.10413025,419.20784490555525L908.1156455,220.35264877974987L908.38049625,421.16314174979925L911.00597325,187.2884808331728L910.9714275,441.40343230590224L911.16718675,372.8581862747669L913.9078162500001,295.1516388207674L913.5047824999999,119.90830770134926L913.988423,450.50042008422315L914.080545,314.6717651039362L916.94784225,372.53392396867275L917.2126930000001,438.53892621025443L919.34301425,-311.54702508449566L919.80362425,38.818315625190735L919.699987,312.79276686161757L920.12605125,410.3147499486804L922.91274175,272.969542093575L922.8091045,158.7054850757122L925.51518825,231.10850995779037L925.86064575,81.74539452791214L925.687917,216.1712153106928L928.94673275,338.20292914658785L931.3994809999999,-5.3589800149202915L934.4395069999999,189.93008697777987L934.19768675,354.88871766626835L934.31283925,409.25611697509885L937.05346875,-367.95591840147983L937.1110449999999,326.72124544531107L940.473498,199.85671064257622L940.48501325,221.47517001628876L940.7268335,30.458797723054886L940.73834875,341.95684736967087L943.4674630000001,123.37288542091846L943.57110025,-37.705968111753464L946.1620315,143.72648952901363L946.77233975,-37.05079944431782L949.0638745000001,420.2600093781948L949.0638745000001,208.47912786900997L949.5590302500001,376.340170878917L952.48390375,135.56248510628936L954.85604525,-130.9137446582318L955.10938075,203.38681063055992L955.10938075,286.6902454048395L958.54092525,302.71543657779694L961.02821925,225.5371725410223L961.39670725,278.68642753362656L961.46579875,67.85769855976105L963.826425,69.32878962159157L966.87796625,69.94576847553253L966.64766125,268.5403069704771L967.511305,267.39310009777546L970.12526675,202.46687906235456L970.0446599999999,278.3230031132698L973.0616554999999,314.8846719637513L972.93498775,468.15463367290795L975.986529,329.7963221780956L976.27441025,212.4785250276327L976.32047125,165.58359472453594L976.262895,242.38436298817396L978.69261275,280.61892932653427L978.6120060000001,434.82774870842695L981.45627275,360.5824299380183L984.5769055,196.87131515145302L984.95690875,337.40548046678305L984.8878172499999,318.5160262733698L984.830241,50.125417321920395L984.8878172499999,-18.60749626159668L987.778145,-192.40112693607819L987.62844675,354.7628857418895L987.65147725,293.7226537838578L988.0314805,316.9369558095932L987.9393584999999,369.61857464537024L990.55332025,406.8244872838259L993.68546825,348.7262753993273L996.3224605,33.75316879153246L999.00551375,-46.06602618098265L999.35097125,298.7458566427231L999.892188,262.7483653128147L1001.83826525,-282.90358462929737L1002.18372275,152.0706666857004L1002.4370582500001,-259.2107755839826L1002.103116,-62.45599219203001L1002.4255430000001,369.9960974268615L1005.24677925,100.73364528268576L1005.1201115,151.19267909228802L1005.0740505,133.60953798890114L1004.958898,325.8482543975115L1007.906802,204.34701165556908L1008.0680154999999,123.12764956057072L1008.40195775,139.33768591284752L1008.2407442499999,206.68474680185318L1008.4825645000001,190.2460037022829L1014.3898877500001,57.17119483649731L1013.9407930000001,52.05132907629013L1014.02139975,-106.4919261038304L1014.2862504999999,143.67544373869896L1014.0559455,192.0512961447239L1017.02688,239.4599793702364L1017.36082225,269.1113176047802L1019.6753875,135.1167662292719L1020.1820585,-229.4371975362302L1028.71485875,351.92968232929707L1034.81794125,90.29240442812443L1034.5761209999998,364.2382268086076L1040.8058712499999,-30.79604262113571L1043.47740925,-46.90793061256409L1043.28165,303.56792828440666L1043.73074475,149.29955548048017L1049.1313969999999,214.41091878712177L1049.7071595,258.1510571986437L1049.592007,260.97472666203976L1049.46533925,379.43688130378723L1055.24599475,-236.91807964444172L1055.77569625,338.3304085806012L1057.9060175,329.0602229759097L1058.14783775,-185.71002313494694L1058.19389875,249.28418735414743L1061.18786375,12.368601769208908L1061.51029075,393.68616512417793L1061.6830195,52.515764743089676L1061.71756525,60.798524901270866L1064.4697099999998,263.4213594943285L1064.27395075,209.82090292870998L1064.2163745,349.4153260476887L1070.51521625,39.89119550585741L1073.27887625,221.56988831609488L1072.76069,371.1706502586603L1075.97344475,-20.07264548540121L1075.9619295,84.31037797033787L1076.08859725,343.30021592229605L1078.76013525,282.82637616991997L1079.01347075,87.39629855751991L1082.1801645,450.300348944962L1084.93230925,262.53505332767963L1087.868698,98.58548177778721L1088.1105182499998,393.42132119834423L1088.329308,345.5079868659377L1093.5111705000002,-27.25557142496109L1096.4590745,290.6732484921813L1099.85607325,288.95532807707787L1099.4184937500002,359.46790317445993L1102.41245875,260.5932066440582L1102.73488575,256.53428307175636L1102.884584,301.50057377666235L1105.5100610000002,91.93316197395325L1105.5791525,62.75171509385109L1105.279756,90.78465870022774L1108.043416,-108.29133072495466L1108.07796175,284.0206045880914L1111.50950625,-160.72183938324451L1110.945259,-14.21528959274292L1111.2101097500001,247.48097455501556L1111.16404875,128.82009243965146L1114.11195275,299.1753705069423L1114.52650175,391.76822083443403L1114.6071085,255.69853654503822L1117.22107025,177.48196332156658L1117.24410075,365.7110193967819L1117.624104,247.4787058532238L1122.828997,145.18461658060548L1123.55445775,401.18607461825013L1126.237511,241.0657070800662L1129.08177775,-207.06142389774334L1128.82844225,86.68554669618607L1129.231476,176.0995136797428L1131.8339225,294.61039139330387L1131.856953,327.07462275773287L1131.79937675,219.1605540215969L1135.0121315000001,222.96965031325817L1137.76427625,79.47582846879959L1137.87942875,253.10719294846058L1138.213371,310.6736643463373L1143.69463,60.9899061024189L1144.109179,-72.24846535921097L1143.924935,371.5386120826006L1146.70011025,101.69165863096714L1146.53889675,31.854373425245228L1147.149205,92.21539928019047L1149.2104347499999,-121.7108638733626L1149.55589225,-76.38106772303587L1152.492281,183.82422721385953L1153.2062265,183.34472088515759L1155.5092765,-6.567927986383438L1155.4171545,-106.51666575670254L1155.54382225,130.9330910667777L1156.1771609999998,244.2766493409872L1158.53778725,179.98914888501167L1158.95233625,288.279687076807L1161.39356925,-403.1569873690605L1161.5432675,11.183907300233784L1161.57781325,218.6880158483982L1164.31844275,98.94361256062984L1164.9287510000001,179.6547044292092L1164.6523849999999,337.20599675923586L1170.1566745,96.3864075243473L1173.4154902500002,294.19951329380274L1173.2197310000001,404.8699736818671L1173.18518525,407.89646238461137L1176.22521125,266.9296367317438L1179.3343287500002,309.32789205014706L1178.94281025,310.17525216937065L1179.62221,279.63966040313244L1184.86164875,258.886278629303L1185.29922825,235.38668735325336L1185.43741125,425.3450613692403L1185.18407575,249.04743211716413L1187.90167475,-12.250215724110603L1187.83258325,132.52952790260315L1190.80351775,-150.0829243808986L1191.1374600000001,307.79859798401594L1191.091399,327.0234959423542L1194.14294025,35.56867039203644L1194.16597075,159.01934916526076L1193.75142175,-404.4431252181531L1196.83750875,161.72102189064026L1196.8720545,186.95679122954607L1196.58417325,246.22870518267155L1196.90660025,386.1820018142462L1196.7914477499999,244.44431720674038L1199.8660195,10.708506241440716L1199.566623,303.4175997823477L1199.67026025,341.71148997172713L1199.85450425,224.17381780594587L1202.47998125,-156.3145080357791L1202.89453025,158.56290797144172L1202.9636217500001,85.37866643071175L1203.05574375,413.6520778052509L1206.14183075,269.99808291345835L1212.003093,192.2775181233883L1211.9340015,287.86748556792736L1211.4503610000002,424.488194309175L1214.6631157499999,322.4674025774002L1215.08918,27.97262465953827L1218.0140535,413.79407422989607L1217.3461690000001,258.71812461316586L1217.49586725,358.17250145971775L1220.294073,267.5752174332738L1220.25952725,304.52764315903187L1220.35164925,375.81241412460804L1220.294073,338.0286307297647L1220.7777135,170.96506340801713L1220.81225925,366.84708532318473L1223.3110685,120.59577836096287L1223.32258375,266.06118308752775L1226.24745725,-255.3105531036855L1226.5007927499998,183.51314498484132L1226.22442675,230.25520800054073L1226.61594525,273.5790396332741L1229.1723307500001,284.0117728561163L1232.02811275,109.54077264666557L1232.454177,151.97068175673485L1232.1547805,229.07289026677608L1235.1948065,128.29483395814893L1235.43662675,364.0630776286125L1237.71664625,147.16808313876388L1238.38453075,447.2664599530399L1241.07909925,6.476999282836914L1241.19425175,262.4877076819539L1243.70457625,264.8716001063585L1243.9003355,345.4870823994279L1244.4070064999999,417.02481361478567L1246.917331,235.39476285129786L1246.8943005,375.6003445237875L1249.7961435,-2.9885107427836033L1250.01493325,327.319466996938L1252.8591999999999,158.20418300479648L1253.273749,245.43033821880817L1256.11801575,176.85185840725896L1255.86468025,258.3935652151704L1255.945287,187.06663420796394L1258.524703,141.93745611608028L1258.7895537499999,229.217438980937L1258.95076725,363.62709526345134L1264.9617277500001,328.7230371721089L1264.742938,254.51368002593517L1267.690842,302.73172261565924L1270.32783425,342.6722851805389L1270.730868,358.49034928157926L1273.6096805,78.54225768148899L1276.5115234999998,356.3785660304129L1276.6957674999999,302.3200882822275L1279.26366825,352.2038846500218L1279.56306475,196.99498640745878L1282.37278575,372.38578314334154L1282.4533925,349.86173363775015L1282.78733475,493.04547931440175L1284.9406865,81.40806017816067L1285.608571,430.86724358052015L1285.6316015,421.68470008671284L1288.36071575,169.04277077317238L1288.003743,379.7417381070554L1288.54495975,348.3018391057849L1290.675281,237.71135045588017L1290.8940707499999,361.56893710047007L1293.807429,206.0426771864295L1294.360161,340.14404660463333L1294.5904659999999,390.1762403771281L1296.5941195,233.233527302742L1297.59594625,383.4047327041626L1299.7723285,463.2356087900698L1300.38263675,375.49042052030563L1300.42869775,327.8717338331044L1302.93902225,182.347194314003L1303.10023575,371.6102382391691L1302.8814459999999,137.88320498913527L1303.03114425,321.9868159145117L1303.2269035,465.3155897036195L1306.16329225,500.2692283820361L1308.85786075,255.54788394272327L1309.0766505000001,410.59150455892086L1309.50271475,397.4493742212653L1312.231829,351.84825213998556L1314.6500315,317.74048136919737L1314.7421535,144.9940456300974L1314.7306382499999,388.28580409660935L1315.0645805,364.01195081323385L1317.60945075,349.7146461382508L1320.660992,346.56783521547914L1320.6379614999998,413.94388957321644L1323.608896,470.64171826839447L1326.3955865,355.63088024407625L1326.79862025,219.66496205329895L1332.1992725,67.08947291970253L1332.48715375,231.29719032347202L1332.7520044999999,265.7225523367524L1332.7059435,358.6000572182238L1334.9859629999999,239.41293081641197L1335.2392985,353.12496407330036L1335.34293575,354.29477693885565L1335.71142375,507.2178129563108L1338.486599,493.76754767633975L1341.51510975,296.9434811025858L1341.39995725,273.4673330783844L1340.96237775,328.91878022253513L1341.67632325,307.63244258612394L1341.60723175,383.8664000146091L1344.32483075,216.03571439534426L1344.34786125,338.7791253849864L1347.2727347500002,365.51252149417996L1350.61215725,367.73988699913025L1353.1800580000001,381.71371261030436L1353.3527867500002,378.57755648344755L1352.7885395,238.33378499746323L1353.364302,291.0176050141454L1352.96126825,335.131052903831L1353.07642075,457.4773127902299L1355.759474,431.5535528808832L1359.20253375,219.2960819453001L1358.78798475,289.6851478368044L1359.0758660000001,422.05487659573555L1362.4613495,499.9478627219796L1364.372881,47.44067883491516L1365.201979,221.05889024585485L1365.3171315,348.7677872404456L1365.24804,460.7907315008342L1365.51289075,339.3608448319137" style="fill: none;" fill="none"></path></g></g></g></g></g></g><g transform="translate(58, 377)" clip-path="url(#clip_1)"><clipPath id="clip_1"><rect width="1439" height="23"></rect></clipPath><g><g><line x1="0" y1="0" x2="0" y2="5" style="visibility: inherit;" fill="rgb(0, 0, 0)" stroke="rgb(204, 204, 204)" stroke-width="1px"></line><line x1="143.940625" y1="0" x2="143.940625" y2="5" style="visibility: inherit;" fill="rgb(0, 0, 0)" stroke="rgb(204, 204, 204)" stroke-width="1px"></line><line x1="287.88125" y1="0" x2="287.88125" y2="5" style="visibility: inherit;" fill="rgb(0, 0, 0)" stroke="rgb(204, 204, 204)" stroke-width="1px"></line><line x1="431.821875" y1="0" x2="431.821875" y2="5" style="visibility: inherit;" fill="rgb(0, 0, 0)" stroke="rgb(204, 204, 204)" stroke-width="1px"></line><line x1="575.7625" y1="0" x2="575.7625" y2="5" style="visibility: inherit;" fill="rgb(0, 0, 0)" stroke="rgb(204, 204, 204)" stroke-width="1px"></line><line x1="719.703125" y1="0" x2="719.703125" y2="5" style="visibility: inherit;" fill="rgb(0, 0, 0)" stroke="rgb(204, 204, 204)" stroke-width="1px"></line><line x1="863.64375" y1="0" x2="863.64375" y2="5" style="visibility: inherit;" fill="rgb(0, 0, 0)" stroke="rgb(204, 204, 204)" stroke-width="1px"></line><line x1="1007.5843749999999" y1="0" x2="1007.5843749999999" y2="5" style="visibility: inherit;" fill="rgb(0, 0, 0)" stroke="rgb(204, 204, 204)" stroke-width="1px"></line><line x1="1151.525" y1="0" x2="1151.525" y2="5" style="visibility: inherit;" fill="rgb(0, 0, 0)" stroke="rgb(204, 204, 204)" stroke-width="1px"></line><line x1="1295.465625" y1="0" x2="1295.465625" y2="5" style="visibility: inherit;" fill="rgb(0, 0, 0)" stroke="rgb(204, 204, 204)" stroke-width="1px"></line><line x1="1439.40625" y1="0" x2="1439.40625" y2="5" style="visibility: inherit;" fill="rgb(0, 0, 0)" stroke="rgb(204, 204, 204)" stroke-width="1px"></line></g><g transform="translate(0, 8)"><text x="0" y="0" dx="0em" dy="0.95em" style="text-anchor: middle; visibility: hidden; font-family: &quot;Helvetica Neue&quot;, sans-serif; font-size: 12px; font-weight: 200;" fill="rgb(50, 49, 63)" stroke="none" stroke-width="1px">-200k</text><text x="143.940625" y="0" dx="0em" dy="0.95em" style="text-anchor: middle; visibility: inherit; font-family: &quot;Helvetica Neue&quot;, sans-serif; font-size: 12px; font-weight: 200;" fill="rgb(50, 49, 63)" stroke="none" stroke-width="1px">0</text><text x="287.88125" y="0" dx="0em" dy="0.95em" style="text-anchor: middle; visibility: inherit; font-family: &quot;Helvetica Neue&quot;, sans-serif; font-size: 12px; font-weight: 200;" fill="rgb(50, 49, 63)" stroke="none" stroke-width="1px">200k</text><text x="431.821875" y="0" dx="0em" dy="0.95em" style="text-anchor: middle; visibility: inherit; font-family: &quot;Helvetica Neue&quot;, sans-serif; font-size: 12px; font-weight: 200;" fill="rgb(50, 49, 63)" stroke="none" stroke-width="1px">400k</text><text x="575.7625" y="0" dx="0em" dy="0.95em" style="text-anchor: middle; visibility: inherit; font-family: &quot;Helvetica Neue&quot;, sans-serif; font-size: 12px; font-weight: 200;" fill="rgb(50, 49, 63)" stroke="none" stroke-width="1px">600k</text><text x="719.703125" y="0" dx="0em" dy="0.95em" style="text-anchor: middle; visibility: inherit; font-family: &quot;Helvetica Neue&quot;, sans-serif; font-size: 12px; font-weight: 200;" fill="rgb(50, 49, 63)" stroke="none" stroke-width="1px">800k</text><text x="863.64375" y="0" dx="0em" dy="0.95em" style="text-anchor: middle; visibility: inherit; font-family: &quot;Helvetica Neue&quot;, sans-serif; font-size: 12px; font-weight: 200;" fill="rgb(50, 49, 63)" stroke="none" stroke-width="1px">1M</text><text x="1007.5843749999999" y="0" dx="0em" dy="0.95em" style="text-anchor: middle; visibility: inherit; font-family: &quot;Helvetica Neue&quot;, sans-serif; font-size: 12px; font-weight: 200;" fill="rgb(50, 49, 63)" stroke="none" stroke-width="1px">1.2M</text><text x="1151.525" y="0" dx="0em" dy="0.95em" style="text-anchor: middle; visibility: inherit; font-family: &quot;Helvetica Neue&quot;, sans-serif; font-size: 12px; font-weight: 200;" fill="rgb(50, 49, 63)" stroke="none" stroke-width="1px">1.4M</text><text x="1295.465625" y="0" dx="0em" dy="0.95em" style="text-anchor: middle; visibility: inherit; font-family: &quot;Helvetica Neue&quot;, sans-serif; font-size: 12px; font-weight: 200;" fill="rgb(50, 49, 63)" stroke="none" stroke-width="1px">1.6M</text><text x="1439.40625" y="0" dx="0em" dy="0.95em" style="text-anchor: middle; visibility: hidden; font-family: &quot;Helvetica Neue&quot;, sans-serif; font-size: 12px; font-weight: 200;" fill="rgb(50, 49, 63)" stroke="none" stroke-width="1px">1.8M</text></g><line x1="0" y1="0" x2="1439.40625" y2="0" fill="rgb(0, 0, 0)" stroke="rgb(204, 204, 204)" stroke-width="1px"></line></g></g></g></g></svg>