<svg viewBox="0 0 1281 400" xmlns="http://www.w3.org/2000/svg"><g><g><g><g><g><line x1="30" y1="343.4404066282506" x2="25" y2="343.4404066282506" style="visibility: inherit;" fill="rgb(0, 0, 0)" stroke="rgb(204, 204, 204)" stroke-width="1px"></line><line x1="30" y1="309.25660400809323" x2="25" y2="309.25660400809323" style="visibility: inherit;" fill="rgb(0, 0, 0)" stroke="rgb(204, 204, 204)" stroke-width="1px"></line><line x1="30" y1="275.07280138793567" x2="25" y2="275.07280138793567" style="visibility: inherit;" fill="rgb(0, 0, 0)" stroke="rgb(204, 204, 204)" stroke-width="1px"></line><line x1="30" y1="240.88899876777828" x2="25" y2="240.88899876777828" style="visibility: inherit;" fill="rgb(0, 0, 0)" stroke="rgb(204, 204, 204)" stroke-width="1px"></line><line x1="30" y1="206.7051961476208" x2="25" y2="206.7051961476208" style="visibility: inherit;" fill="rgb(0, 0, 0)" stroke="rgb(204, 204, 204)" stroke-width="1px"></line><line x1="30" y1="172.52139352746332" x2="25" y2="172.52139352746332" style="visibility: inherit;" fill="rgb(0, 0, 0)" stroke="rgb(204, 204, 204)" stroke-width="1px"></line><line x1="30" y1="138.3375909073059" x2="25" y2="138.3375909073059" style="visibility: inherit;" fill="rgb(0, 0, 0)" stroke="rgb(204, 204, 204)" stroke-width="1px"></line><line x1="30" y1="104.15378828714842" x2="25" y2="104.15378828714842" style="visibility: inherit;" fill="rgb(0, 0, 0)" stroke="rgb(204, 204, 204)" stroke-width="1px"></line><line x1="30" y1="69.96998566699095" x2="25" y2="69.96998566699095" style="visibility: inherit;" fill="rgb(0, 0, 0)" stroke="rgb(204, 204, 204)" stroke-width="1px"></line><line x1="30" y1="35.78618304683348" x2="25" y2="35.78618304683348" style="visibility: inherit;" fill="rgb(0, 0, 0)" stroke="rgb(204, 204, 204)" stroke-width="1px"></line><line x1="30" y1="1.6023804266760087" x2="25" y2="1.6023804266760087" style="visibility: inherit;" fill="rgb(0, 0, 0)" stroke="rgb(204, 204, 204)" stroke-width="1px"></line></g><g transform="translate(20, 0)"><text x="0" y="343.4404066282506" dx="0em" dy="0.3em" style="text-anchor: end; visibility: inherit; font-family: Roboto, sans-serif; font-size: 12px; font-weight: 200;" fill="rgb(33, 33, 33)" stroke="none" stroke-width="1px">-8</text><text x="0" y="309.25660400809323" dx="0em" dy="0.3em" style="text-anchor: end; visibility: inherit; font-family: Roboto, sans-serif; font-size: 12px; font-weight: 200;" fill="rgb(33, 33, 33)" stroke="none" stroke-width="1px">-7</text><text x="0" y="275.07280138793567" dx="0em" dy="0.3em" style="text-anchor: end; visibility: inherit; font-family: Roboto, sans-serif; font-size: 12px; font-weight: 200;" fill="rgb(33, 33, 33)" stroke="none" stroke-width="1px">-6</text><text x="0" y="240.88899876777828" dx="0em" dy="0.3em" style="text-anchor: end; visibility: inherit; font-family: Roboto, sans-serif; font-size: 12px; font-weight: 200;" fill="rgb(33, 33, 33)" stroke="none" stroke-width="1px">-5</text><text x="0" y="206.7051961476208" dx="0em" dy="0.3em" style="text-anchor: end; visibility: inherit; font-family: Roboto, sans-serif; font-size: 12px; font-weight: 200;" fill="rgb(33, 33, 33)" stroke="none" stroke-width="1px">-4</text><text x="0" y="172.52139352746332" dx="0em" dy="0.3em" style="text-anchor: end; visibility: inherit; font-family: Roboto, sans-serif; font-size: 12px; font-weight: 200;" fill="rgb(33, 33, 33)" stroke="none" stroke-width="1px">-3</text><text x="0" y="138.3375909073059" dx="0em" dy="0.3em" style="text-anchor: end; visibility: inherit; font-family: Roboto, sans-serif; font-size: 12px; font-weight: 200;" fill="rgb(33, 33, 33)" stroke="none" stroke-width="1px">-2</text><text x="0" y="104.15378828714842" dx="0em" dy="0.3em" style="text-anchor: end; visibility: inherit; font-family: Roboto, sans-serif; font-size: 12px; font-weight: 200;" fill="rgb(33, 33, 33)" stroke="none" stroke-width="1px">-1</text><text x="0" y="69.96998566699095" dx="0em" dy="0.3em" style="text-anchor: end; visibility: inherit; font-family: Roboto, sans-serif; font-size: 12px; font-weight: 200;" fill="rgb(33, 33, 33)" stroke="none" stroke-width="1px">0</text><text x="0" y="35.78618304683348" dx="0em" dy="0.3em" style="text-anchor: end; visibility: inherit; font-family: Roboto, sans-serif; font-size: 12px; font-weight: 200;" fill="rgb(33, 33, 33)" stroke="none" stroke-width="1px">1</text><text x="0" y="1.6023804266760087" dx="0em" dy="0.3em" style="text-anchor: end; visibility: hidden; font-family: Roboto, sans-serif; font-size: 12px; font-weight: 200;" fill="rgb(33, 33, 33)" stroke="none" stroke-width="1px">2</text></g><line x1="30" y1="0" x2="30" y2="377" fill="rgb(0, 0, 0)" stroke="rgb(204, 204, 204)" stroke-width="1px"></line></g></g><g transform="translate(30, 0)" clip-path="url(#clip_0)"><clipPath id="clip_0"><rect width="1251" height="377"></rect></clipPath><g><g><g><line x1="75.38043587685972" y1="0" x2="75.38043587685972" y2="377" fill="rgb(0, 0, 0)" stroke="rgb(66, 66, 66)" stroke-width="1px" opacity="0.25"></line><line x1="209.41913109433042" y1="0" x2="209.41913109433042" y2="377" fill="rgb(0, 0, 0)" stroke="rgb(66, 66, 66)" stroke-width="1px" opacity="0.25"></line><line x1="343.4578263118011" y1="0" x2="343.4578263118011" y2="377" fill="rgb(0, 0, 0)" stroke="rgb(66, 66, 66)" stroke-width="1px" opacity="0.25"></line><line x1="477.49652152927183" y1="0" x2="477.49652152927183" y2="377" fill="rgb(0, 0, 0)" stroke="rgb(66, 66, 66)" stroke-width="1px" opacity="0.25"></line><line x1="611.5352167467425" y1="0" x2="611.5352167467425" y2="377" fill="rgb(0, 0, 0)" stroke="rgb(66, 66, 66)" stroke-width="1px" opacity="0.25"></line><line x1="745.5739119642133" y1="0" x2="745.5739119642133" y2="377" fill="rgb(0, 0, 0)" stroke="rgb(66, 66, 66)" stroke-width="1px" opacity="0.25"></line><line x1="879.612607181684" y1="0" x2="879.612607181684" y2="377" fill="rgb(0, 0, 0)" stroke="rgb(66, 66, 66)" stroke-width="1px" opacity="0.25"></line><line x1="1013.6513023991546" y1="0" x2="1013.6513023991546" y2="377" fill="rgb(0, 0, 0)" stroke="rgb(66, 66, 66)" stroke-width="1px" opacity="0.25"></line><line x1="1147.6899976166253" y1="0" x2="1147.6899976166253" y2="377" fill="rgb(0, 0, 0)" stroke="rgb(66, 66, 66)" stroke-width="1px" opacity="0.25"></line></g><g><line x1="0" y1="343.4404066282506" x2="1251" y2="343.4404066282506" fill="rgb(0, 0, 0)" stroke="rgb(66, 66, 66)" stroke-width="1px" opacity="0.25"></line><line x1="0" y1="309.25660400809323" x2="1251" y2="309.25660400809323" fill="rgb(0, 0, 0)" stroke="rgb(66, 66, 66)" stroke-width="1px" opacity="0.25"></line><line x1="0" y1="275.07280138793567" x2="1251" y2="275.07280138793567" fill="rgb(0, 0, 0)" stroke="rgb(66, 66, 66)" stroke-width="1px" opacity="0.25"></line><line x1="0" y1="240.88899876777828" x2="1251" y2="240.88899876777828" fill="rgb(0, 0, 0)" stroke="rgb(66, 66, 66)" stroke-width="1px" opacity="0.25"></line><line x1="0" y1="206.7051961476208" x2="1251" y2="206.7051961476208" fill="rgb(0, 0, 0)" stroke="rgb(66, 66, 66)" stroke-width="1px" opacity="0.25"></line><line x1="0" y1="172.52139352746332" x2="1251" y2="172.52139352746332" fill="rgb(0, 0, 0)" stroke="rgb(66, 66, 66)" stroke-width="1px" opacity="0.25"></line><line x1="0" y1="138.3375909073059" x2="1251" y2="138.3375909073059" fill="rgb(0, 0, 0)" stroke="rgb(66, 66, 66)" stroke-width="1px" opacity="0.25"></line><line x1="0" y1="104.15378828714842" x2="1251" y2="104.15378828714842" fill="rgb(0, 0, 0)" stroke="rgb(66, 66, 66)" stroke-width="1px" opacity="0.25"></line><line x1="0" y1="69.96998566699095" x2="1251" y2="69.96998566699095" fill="rgb(0, 0, 0)" stroke="rgb(66, 66, 66)" stroke-width="1px" opacity="0.25"></line><line x1="0" y1="35.78618304683348" x2="1251" y2="35.78618304683348" fill="rgb(0, 0, 0)" stroke="rgb(66, 66, 66)" stroke-width="1px" opacity="0.25"></line><line x1="0" y1="1.6023804266760087" x2="1251" y2="1.6023804266760087" fill="rgb(0, 0, 0)" stroke="rgb(66, 66, 66)" stroke-width="1px" opacity="0.25"></line></g></g></g><g><g><line x1="0" y1="69.96998566699095" x2="1251" y2="69.96998566699095" fill="rgb(0, 0, 0)" stroke="rgb(153, 153, 153)" stroke-width="1.5px"></line></g></g><g><g><line x1="75.38043587685972" y1="0" x2="75.38043587685972" y2="377" fill="rgb(0, 0, 0)" stroke="rgb(153, 153, 153)" stroke-width="1.5px"></line></g></g><g><g><g><g><g><path style="fill: none;" stroke="rgb(255, 112, 67)" stroke-width="2px" d="M91.85379151908687,305.8382270060989L123.56064487277956,156.28408879192193L131.4555240210886,234.33129043282563L131.81742849817576,334.74364248240556L135.248819095743,212.4910582850195L150.79060580620873,154.12694552165323L154.58390088086315,112.46102185500209L157.11053028571249,88.22070257468276L157.4590308932779,79.4648248159099L160.25373768856215,74.26811471616097L161.00435438178,65.68094858654945L164.88477460832578,71.51131132677136L169.84420633137216,64.0482732932091L180.05795490694348,59.576693602643985L194.46711464282154,56.89598947752356L194.654768816126,58.023850065261094L196.74577246151856,55.96519532044375L197.06746533004048,54.73022551155081L198.90379545451984,53.98932390213421L209.600083332874,53.54481183197984L211.34258637070113,53.27811499143737L211.46322119639683,53.118100631491046L217.2000773517046,53.0220933634611L218.84875330287946,52.96448948789242L223.74116567831715,52.92992733723913L230.32246561349496,52.90919010973444L234.69212707758453,52.896747795871015L238.00288284945603,52.889282415702986L241.8631972717192,52.884803190536275L241.90340888028445,52.8821156564925L242.38594818306734,52.88050313644651L249.95913446285442,52.87953562455581L264.2610632425585,52.878955117470625L272.0353075651719,52.87860681323733L272.6786933022157,52.87839783070368L275.0645820770867,52.878272441185764L287.78485425322464,52.87819720747588L287.8652774703551,52.878152067250234L289.88926176813897,52.87812498311495L292.79790145435805,52.878108732633834L295.7735604881859,52.878098982345215L296.05504174814257,52.87809313217197L301.51041664349367,52.87808962206809L316.08042281363277,52.87808751600575L319.4179863245477,52.878086252368334L323.1174543125499,52.87808549418591L323.801051658159,52.878085039276435L330.51639028855436,52.878084766330744L335.0200904478614,52.8780846025633L342.3788148153005,52.878084504302876L348.9333070114348,52.8780844453466L357.41795641870067,52.87808440997288L357.9809189386141,52.87808438874863L372.61794445636184,52.87808437601404L376.0359311844074,52.87808436837334L378.28778126406087,52.87808436378887L380.01688043236624,52.87808436103822L383.3544439432813,52.87808435938781L391.7988817419819,52.87808435839756L392.5629023047215,52.878084357803466L395.3777149042884,52.87808435744694L406.8380233453821,52.8780843572331L411.8644744160373,52.87808435710473L412.3470137188202,52.87808435702772L418.0972737436496,52.87808435698151L422.60097390295664,52.8780843569538L430.20096792178725,52.87808435693718L439.329003066097,52.87808435692722L442.46550853418586,52.87808435692119L442.5861433598816,52.87808435691763L444.5163005710132,52.87808435691546L456.05703222923734,52.878084356914165L457.4644385290208,52.87808435691337L463.8178726823289,52.87808435691295L466.83374332472204,52.87808435691265L471.4178667011595,52.878084356912446L473.0665426523344,52.87808435691236L478.77659106859863,52.87808435691236L479.33955358851205,52.878084356912275L484.20515822490626,52.878084356912275L484.6072743105587,52.87808435691224L488.346953907126,52.87808435691224L499.4855694796979,52.87808435691224L501.77763116791664,52.87808435691224L504.1099044647006,52.87808435691224L514.84640395162,52.87808435691224L523.2104185331902,52.87808435691224L526.6686168698009,52.87808435691224L527.1913677811491,52.87808435691224L532.4590885031956,52.87808435691224L538.2897717451556,52.87808435691224L540.8633146933311,52.87808435691224L555.701398253905,52.87808435691224L555.9828795138618,52.87808435691224L560.6474261074297,52.87808435691224L563.864354792649,52.87808435691224L565.5934539609544,52.87808435691224L569.0114406889999,52.87808435691224L575.9680489707866,52.87808435691224L580.8738652157462,52.87808435691224L580.9945000414418,52.87808435691224L583.4474081639215,52.87808435691224L583.7691010324435,52.87808435691224L585.6188350264446,52.87808435691224L588.9161869287943,52.87808435691224L601.6632668439757,52.87808435691224L603.7944820979336,52.87808435691224L606.207178611848,52.87808435691224L607.5743733030663,52.87808435691224L612.35955472233,52.87808435691224L615.3352137561578,52.87808435691224L623.7796515548584,52.87808435691224L623.9807095976847,52.87808435691224L631.6209152250805,52.87808435691224L636.687577904301,52.87808435691224L652.0082007676577,52.87808435691224L660.2917921320975,52.87808435691224L662.7849118631425,52.87808435691224L666.6050146768404,52.87808435691224L667.6907281081019,52.87808435691224L681.402886628849,52.87808435691224L687.1933582622438,52.87808435691224L689.2441502990712,52.87808435691224L690.1690172960716,52.87808435691224L697.8092229234676,52.87808435691224L708.6663572360826,52.87808435691224L714.3361940437817,52.87808435691224L717.2716414690443,52.87808435691224L719.0409522459149,52.87808435691224L723.4240175795262,52.87808435691224L731.1044348154874,52.87808435691224L732.3107830724445,52.87808435691224L733.0748036351841,52.87808435691224L736.7742716231862,52.87808435691224L737.9806198801435,52.87808435691224L740.5541628283189,52.87808435691224L741.3181833910585,52.87808435691224L764.6811279674636,52.87808435691224L766.0483226586819,52.87808435691224L775.4176274543831,52.87808435691224L776.3827060599488,52.87808435691224L790.5371922749138,52.87808435691224L795.8853362140909,52.87808435691224L798.7805720307882,52.87808435691224L818.4038370106259,52.87808435691224L820.3339942217574,52.87808435691224L828.7382204118929,52.87808435691224L829.9847802774153,52.87808435691224L838.8313341617684,52.87808435691224L839.7159895502037,52.87808435691224L847.9191576975129,52.87808435691224L848.4821202174264,52.87808435691224L849.6482568658184,52.87808435691224L884.431298274752,52.87808435691224L911.1720179706374,52.87808435691224L913.3032332245951,52.87808435691224L927.8598355252125,52.87808435691224L932.2429008588238,52.87808435691224L932.8058633787371,52.87808435691224L935.9021572382608,52.87808435691224L940.5264922232635,52.87808435691224L946.5180218994844,52.87808435691224L948.8502951962683,52.87808435691224L949.2121996733556,52.87808435691224L952.2682819243139,52.87808435691224L956.5307124322295,52.87808435691224L956.8524053007515,52.87808435691224L959.7074295088836,52.87808435691224L964.4121877110167,52.87808435691224L968.3931369589757,52.87808435691224L968.4333485675409,52.87808435691224L969.96138969302,52.87808435691224L978.0439230146335,52.87808435691224L978.1645578403292,52.87808435691224L980.134926660026,52.87808435691224L981.1000052655918,52.87808435691224L990.1476171927711,52.87808435691224L992.7211601409465,52.87808435691224L996.2597816946878,52.87808435691224L999.7581916398638,52.87808435691224L1002.6534274565611,52.87808435691224L1007.961359787173,52.87808435691224L1021.0301325708764,52.87808435691224L1036.994141171277,52.87808435691224L1038.8840867738436,52.87808435691224L1040.4121278993227,52.87808435691224L1041.5380529391493,52.87808435691224L1046.122176315587,52.87808435691224L1060.9200482675958,52.87808435691224L1072.9031076200376,52.87808435691224L1073.30522370569,52.87808435691224L1075.0745344825605,52.87808435691224L1076.120036305257,52.87808435691224L1078.8544256876933,52.87808435691224L1081.8702963300864,52.87808435691224L1084.5242624953923,52.87808435691224L1089.0681742632646,52.87808435691224L1094.2956833767457,52.87808435691224L1094.7380110709635,52.87808435691224L1095.5422432422683,52.87808435691224L1105.0723944722306,52.87808435691224L1110.7422312799295,52.87808435691224L1113.476620662366,52.87808435691224L1118.9051878186735,52.87808435691224L1118.985611035804,52.87808435691224L1120.513652161283,52.87808435691224L1121.4385191582837,52.87808435691224L1132.5369231222903,52.87808435691224L1136.4776607616839,52.87808435691224L1136.7993536302058,52.87808435691224L1143.7961735205577,52.87808435691224L1145.1231566032106,52.87808435691224L1148.0988156370386,52.87808435691224L1157.9506597355228,52.87808435691224L1161.1273768121766,52.87808435691224L1163.499861717526,52.87808435691224L1180.4289489234925,52.87808435691224L1181.8363552232759,52.87808435691224L1184.8120142571038,52.87808435691224L1190.6426974990638,52.87808435691224L1194.2215306613703,52.87808435691224L1200.1728487290259,52.87808435691224L1206.8881873594214,52.87808435691224L1220.0373833602553,52.87808435691224L1220.0775949688204,52.87808435691224L1221.3241548343428,52.87808435691224L1233.9103883152634,52.87808435691224L1234.392927618046,52.87808435691224L1234.553774052307,52.87808435691224L1234.5939856608725,52.87808435691224L1239.218320645875,52.87808435691224L1248.5072022244458,52.87808435691224L1252.4479398638396,52.87808435691224" fill="none"></path></g></g></g></g><g opacity="0.2"><g><g><g><path style="fill: none;" stroke="rgb(255, 112, 67)" stroke-width="2px" d="M91.85379151908687,305.8382270060989L123.56064487277956,66.55160586341572L131.4555240210886,309.25660400809323L131.81742849817576,452.8285684927116L135.248819095743,52.87808435691224L150.79060580620873,73.38836648932289L154.58390088086315,52.87808435691224L157.11053028571249,52.87808435691224L157.4590308932779,66.55160586341572L160.25373768856215,66.55160586341572L161.00435438178,52.87808435691224L164.88477460832578,80.22512686054088L169.84420633137216,52.87808435691224L180.05795490694348,52.87808435691224L194.46711464282154,52.87808435691224L194.654768816126,59.714845492197725L196.74577246151856,52.87808435691224L197.06746533004048,52.87808435691224L198.90379545451984,52.87808435691224L209.600083332874,52.87808435691224L211.34258637070113,52.87808435691224L211.46322119639683,52.87808435691224L217.2000773517046,52.87808435691224L218.84875330287946,52.87808435691224L223.74116567831715,52.87808435691224L230.32246561349496,52.87808435691224L234.69212707758453,52.87808435691224L238.00288284945603,52.87808435691224L241.8631972717192,52.87808435691224L241.90340888028445,52.87808435691224L242.38594818306734,52.87808435691224L249.95913446285442,52.87808435691224L264.2610632425585,52.87808435691224L272.0353075651719,52.87808435691224L272.6786933022157,52.87808435691224L275.0645820770867,52.87808435691224L287.78485425322464,52.87808435691224L287.8652774703551,52.87808435691224L289.88926176813897,52.87808435691224L292.79790145435805,52.87808435691224L295.7735604881859,52.87808435691224L296.05504174814257,52.87808435691224L301.51041664349367,52.87808435691224L316.08042281363277,52.87808435691224L319.4179863245477,52.87808435691224L323.1174543125499,52.87808435691224L323.801051658159,52.87808435691224L330.51639028855436,52.87808435691224L335.0200904478614,52.87808435691224L342.3788148153005,52.87808435691224L348.9333070114348,52.87808435691224L357.41795641870067,52.87808435691224L357.9809189386141,52.87808435691224L372.61794445636184,52.87808435691224L376.0359311844074,52.87808435691224L378.28778126406087,52.87808435691224L380.01688043236624,52.87808435691224L383.3544439432813,52.87808435691224L391.7988817419819,52.87808435691224L392.5629023047215,52.87808435691224L395.3777149042884,52.87808435691224L406.8380233453821,52.87808435691224L411.8644744160373,52.87808435691224L412.3470137188202,52.87808435691224L418.0972737436496,52.87808435691224L422.60097390295664,52.87808435691224L430.20096792178725,52.87808435691224L439.329003066097,52.87808435691224L442.46550853418586,52.87808435691224L442.5861433598816,52.87808435691224L444.5163005710132,52.87808435691224L456.05703222923734,52.87808435691224L457.4644385290208,52.87808435691224L463.8178726823289,52.87808435691224L466.83374332472204,52.87808435691224L471.4178667011595,52.87808435691224L473.0665426523344,52.87808435691224L478.77659106859863,52.87808435691224L479.33955358851205,52.87808435691224L484.20515822490626,52.87808435691224L484.6072743105587,52.87808435691224L488.346953907126,52.87808435691224L499.4855694796979,52.87808435691224L501.77763116791664,52.87808435691224L504.1099044647006,52.87808435691224L514.84640395162,52.87808435691224L523.2104185331902,52.87808435691224L526.6686168698009,52.87808435691224L527.1913677811491,52.87808435691224L532.4590885031956,52.87808435691224L538.2897717451556,52.87808435691224L540.8633146933311,52.87808435691224L555.701398253905,52.87808435691224L555.9828795138618,52.87808435691224L560.6474261074297,52.87808435691224L563.864354792649,52.87808435691224L565.5934539609544,52.87808435691224L569.0114406889999,52.87808435691224L575.9680489707866,52.87808435691224L580.8738652157462,52.87808435691224L580.9945000414418,52.87808435691224L583.4474081639215,52.87808435691224L583.7691010324435,52.87808435691224L585.6188350264446,52.87808435691224L588.9161869287943,52.87808435691224L601.6632668439757,52.87808435691224L603.7944820979336,52.87808435691224L606.207178611848,52.87808435691224L607.5743733030663,52.87808435691224L612.35955472233,52.87808435691224L615.3352137561578,52.87808435691224L623.7796515548584,52.87808435691224L623.9807095976847,52.87808435691224L631.6209152250805,52.87808435691224L636.687577904301,52.87808435691224L652.0082007676577,52.87808435691224L660.2917921320975,52.87808435691224L662.7849118631425,52.87808435691224L666.6050146768404,52.87808435691224L667.6907281081019,52.87808435691224L681.402886628849,52.87808435691224L687.1933582622438,52.87808435691224L689.2441502990712,52.87808435691224L690.1690172960716,52.87808435691224L697.8092229234676,52.87808435691224L708.6663572360826,52.87808435691224L714.3361940437817,52.87808435691224L717.2716414690443,52.87808435691224L719.0409522459149,52.87808435691224L723.4240175795262,52.87808435691224L731.1044348154874,52.87808435691224L732.3107830724445,52.87808435691224L733.0748036351841,52.87808435691224L736.7742716231862,52.87808435691224L737.9806198801435,52.87808435691224L740.5541628283189,52.87808435691224L741.3181833910585,52.87808435691224L764.6811279674636,52.87808435691224L766.0483226586819,52.87808435691224L775.4176274543831,52.87808435691224L776.3827060599488,52.87808435691224L790.5371922749138,52.87808435691224L795.8853362140909,52.87808435691224L798.7805720307882,52.87808435691224L818.4038370106259,52.87808435691224L820.3339942217574,52.87808435691224L828.7382204118929,52.87808435691224L829.9847802774153,52.87808435691224L838.8313341617684,52.87808435691224L839.7159895502037,52.87808435691224L847.9191576975129,52.87808435691224L848.4821202174264,52.87808435691224L849.6482568658184,52.87808435691224L884.431298274752,52.87808435691224L911.1720179706374,52.87808435691224L913.3032332245951,52.87808435691224L927.8598355252125,52.87808435691224L932.2429008588238,52.87808435691224L932.8058633787371,52.87808435691224L935.9021572382608,52.87808435691224L940.5264922232635,52.87808435691224L946.5180218994844,52.87808435691224L948.8502951962683,52.87808435691224L949.2121996733556,52.87808435691224L952.2682819243139,52.87808435691224L956.5307124322295,52.87808435691224L956.8524053007515,52.87808435691224L959.7074295088836,52.87808435691224L964.4121877110167,52.87808435691224L968.3931369589757,52.87808435691224L968.4333485675409,52.87808435691224L969.96138969302,52.87808435691224L978.0439230146335,52.87808435691224L978.1645578403292,52.87808435691224L980.134926660026,52.87808435691224L981.1000052655918,52.87808435691224L990.1476171927711,52.87808435691224L992.7211601409465,52.87808435691224L996.2597816946878,52.87808435691224L999.7581916398638,52.87808435691224L1002.6534274565611,52.87808435691224L1007.961359787173,52.87808435691224L1021.0301325708764,52.87808435691224L1036.994141171277,52.87808435691224L1038.8840867738436,52.87808435691224L1040.4121278993227,52.87808435691224L1041.5380529391493,52.87808435691224L1046.122176315587,52.87808435691224L1060.9200482675958,52.87808435691224L1072.9031076200376,52.87808435691224L1073.30522370569,52.87808435691224L1075.0745344825605,52.87808435691224L1076.120036305257,52.87808435691224L1078.8544256876933,52.87808435691224L1081.8702963300864,52.87808435691224L1084.5242624953923,52.87808435691224L1089.0681742632646,52.87808435691224L1094.2956833767457,52.87808435691224L1094.7380110709635,52.87808435691224L1095.5422432422683,52.87808435691224L1105.0723944722306,52.87808435691224L1110.7422312799295,52.87808435691224L1113.476620662366,52.87808435691224L1118.9051878186735,52.87808435691224L1118.985611035804,52.87808435691224L1120.513652161283,52.87808435691224L1121.4385191582837,52.87808435691224L1132.5369231222903,52.87808435691224L1136.4776607616839,52.87808435691224L1136.7993536302058,52.87808435691224L1143.7961735205577,52.87808435691224L1145.1231566032106,52.87808435691224L1148.0988156370386,52.87808435691224L1157.9506597355228,52.87808435691224L1161.1273768121766,52.87808435691224L1163.499861717526,52.87808435691224L1180.4289489234925,52.87808435691224L1181.8363552232759,52.87808435691224L1184.8120142571038,52.87808435691224L1190.6426974990638,52.87808435691224L1194.2215306613703,52.87808435691224L1200.1728487290259,52.87808435691224L1206.8881873594214,52.87808435691224L1220.0373833602553,52.87808435691224L1220.0775949688204,52.87808435691224L1221.3241548343428,52.87808435691224L1233.9103883152634,52.87808435691224L1234.392927618046,52.87808435691224L1234.553774052307,52.87808435691224L1234.5939856608725,52.87808435691224L1239.218320645875,52.87808435691224L1248.5072022244458,52.87808435691224L1252.4479398638396,52.87808435691224" fill="none"></path></g></g></g></g></g></g><g transform="translate(30, 377)" clip-path="url(#clip_1)"><clipPath id="clip_1"><rect width="1251" height="23"></rect></clipPath><g><g><line x1="75.38043587685972" y1="0" x2="75.38043587685972" y2="5" style="visibility: inherit;" fill="rgb(0, 0, 0)" stroke="rgb(204, 204, 204)" stroke-width="1px"></line><line x1="209.41913109433042" y1="0" x2="209.41913109433042" y2="5" style="visibility: inherit;" fill="rgb(0, 0, 0)" stroke="rgb(204, 204, 204)" stroke-width="1px"></line><line x1="343.4578263118011" y1="0" x2="343.4578263118011" y2="5" style="visibility: inherit;" fill="rgb(0, 0, 0)" stroke="rgb(204, 204, 204)" stroke-width="1px"></line><line x1="477.49652152927183" y1="0" x2="477.49652152927183" y2="5" style="visibility: inherit;" fill="rgb(0, 0, 0)" stroke="rgb(204, 204, 204)" stroke-width="1px"></line><line x1="611.5352167467425" y1="0" x2="611.5352167467425" y2="5" style="visibility: inherit;" fill="rgb(0, 0, 0)" stroke="rgb(204, 204, 204)" stroke-width="1px"></line><line x1="745.5739119642133" y1="0" x2="745.5739119642133" y2="5" style="visibility: inherit;" fill="rgb(0, 0, 0)" stroke="rgb(204, 204, 204)" stroke-width="1px"></line><line x1="879.612607181684" y1="0" x2="879.612607181684" y2="5" style="visibility: inherit;" fill="rgb(0, 0, 0)" stroke="rgb(204, 204, 204)" stroke-width="1px"></line><line x1="1013.6513023991546" y1="0" x2="1013.6513023991546" y2="5" style="visibility: inherit;" fill="rgb(0, 0, 0)" stroke="rgb(204, 204, 204)" stroke-width="1px"></line><line x1="1147.6899976166253" y1="0" x2="1147.6899976166253" y2="5" style="visibility: inherit;" fill="rgb(0, 0, 0)" stroke="rgb(204, 204, 204)" stroke-width="1px"></line></g><g transform="translate(0, 8)"><text x="75.38043587685972" y="0" dx="0em" dy="0.95em" style="text-anchor: middle; visibility: inherit; font-family: Roboto, sans-serif; font-size: 12px; font-weight: 200;" fill="rgb(33, 33, 33)" stroke="none" stroke-width="1px">0</text><text x="209.41913109433042" y="0" dx="0em" dy="0.95em" style="text-anchor: middle; visibility: inherit; font-family: Roboto, sans-serif; font-size: 12px; font-weight: 200;" fill="rgb(33, 33, 33)" stroke="none" stroke-width="1px">20k</text><text x="343.4578263118011" y="0" dx="0em" dy="0.95em" style="text-anchor: middle; visibility: inherit; font-family: Roboto, sans-serif; font-size: 12px; font-weight: 200;" fill="rgb(33, 33, 33)" stroke="none" stroke-width="1px">40k</text><text x="477.49652152927183" y="0" dx="0em" dy="0.95em" style="text-anchor: middle; visibility: inherit; font-family: Roboto, sans-serif; font-size: 12px; font-weight: 200;" fill="rgb(33, 33, 33)" stroke="none" stroke-width="1px">60k</text><text x="611.5352167467425" y="0" dx="0em" dy="0.95em" style="text-anchor: middle; visibility: inherit; font-family: Roboto, sans-serif; font-size: 12px; font-weight: 200;" fill="rgb(33, 33, 33)" stroke="none" stroke-width="1px">80k</text><text x="745.5739119642133" y="0" dx="0em" dy="0.95em" style="text-anchor: middle; visibility: inherit; font-family: Roboto, sans-serif; font-size: 12px; font-weight: 200;" fill="rgb(33, 33, 33)" stroke="none" stroke-width="1px">100k</text><text x="879.612607181684" y="0" dx="0em" dy="0.95em" style="text-anchor: middle; visibility: inherit; font-family: Roboto, sans-serif; font-size: 12px; font-weight: 200;" fill="rgb(33, 33, 33)" stroke="none" stroke-width="1px">120k</text><text x="1013.6513023991546" y="0" dx="0em" dy="0.95em" style="text-anchor: middle; visibility: inherit; font-family: Roboto, sans-serif; font-size: 12px; font-weight: 200;" fill="rgb(33, 33, 33)" stroke="none" stroke-width="1px">140k</text><text x="1147.6899976166253" y="0" dx="0em" dy="0.95em" style="text-anchor: middle; visibility: inherit; font-family: Roboto, sans-serif; font-size: 12px; font-weight: 200;" fill="rgb(33, 33, 33)" stroke="none" stroke-width="1px">160k</text></g><line x1="0" y1="0" x2="1251" y2="0" fill="rgb(0, 0, 0)" stroke="rgb(204, 204, 204)" stroke-width="1px"></line></g></g></g></g></svg>