<svg viewBox="0 0 1281 400" xmlns="http://www.w3.org/2000/svg"><g><g><g><g><g><line x1="50" y1="361.76844220332725" x2="45" y2="361.76844220332725" style="visibility: inherit;" fill="rgb(0, 0, 0)" stroke="rgb(204, 204, 204)" stroke-width="1px"></line><line x1="50" y1="332.08402282153946" x2="45" y2="332.08402282153946" style="visibility: inherit;" fill="rgb(0, 0, 0)" stroke="rgb(204, 204, 204)" stroke-width="1px"></line><line x1="50" y1="302.3996034397517" x2="45" y2="302.3996034397517" style="visibility: inherit;" fill="rgb(0, 0, 0)" stroke="rgb(204, 204, 204)" stroke-width="1px"></line><line x1="50" y1="272.7151840579639" x2="45" y2="272.7151840579639" style="visibility: inherit;" fill="rgb(0, 0, 0)" stroke="rgb(204, 204, 204)" stroke-width="1px"></line><line x1="50" y1="243.0307646761761" x2="45" y2="243.0307646761761" style="visibility: inherit;" fill="rgb(0, 0, 0)" stroke="rgb(204, 204, 204)" stroke-width="1px"></line><line x1="50" y1="213.3463452943883" x2="45" y2="213.3463452943883" style="visibility: inherit;" fill="rgb(0, 0, 0)" stroke="rgb(204, 204, 204)" stroke-width="1px"></line><line x1="50" y1="183.66192591260048" x2="45" y2="183.66192591260048" style="visibility: inherit;" fill="rgb(0, 0, 0)" stroke="rgb(204, 204, 204)" stroke-width="1px"></line><line x1="50" y1="153.9775065308127" x2="45" y2="153.9775065308127" style="visibility: inherit;" fill="rgb(0, 0, 0)" stroke="rgb(204, 204, 204)" stroke-width="1px"></line><line x1="50" y1="124.2930871490249" x2="45" y2="124.2930871490249" style="visibility: inherit;" fill="rgb(0, 0, 0)" stroke="rgb(204, 204, 204)" stroke-width="1px"></line><line x1="50" y1="94.60866776723712" x2="45" y2="94.60866776723712" style="visibility: inherit;" fill="rgb(0, 0, 0)" stroke="rgb(204, 204, 204)" stroke-width="1px"></line><line x1="50" y1="64.92424838544929" x2="45" y2="64.92424838544929" style="visibility: inherit;" fill="rgb(0, 0, 0)" stroke="rgb(204, 204, 204)" stroke-width="1px"></line><line x1="50" y1="35.239829003661505" x2="45" y2="35.239829003661505" style="visibility: inherit;" fill="rgb(0, 0, 0)" stroke="rgb(204, 204, 204)" stroke-width="1px"></line><line x1="50" y1="5.555409621873718" x2="45" y2="5.555409621873718" style="visibility: inherit;" fill="rgb(0, 0, 0)" stroke="rgb(204, 204, 204)" stroke-width="1px"></line></g><g transform="translate(40, 0)"><text x="0" y="361.76844220332725" dx="0em" dy="0.3em" style="text-anchor: end; visibility: inherit; font-family: Roboto, sans-serif; font-size: 12px; font-weight: 200;" fill="rgb(33, 33, 33)" stroke="none" stroke-width="1px">-5</text><text x="0" y="332.08402282153946" dx="0em" dy="0.3em" style="text-anchor: end; visibility: inherit; font-family: Roboto, sans-serif; font-size: 12px; font-weight: 200;" fill="rgb(33, 33, 33)" stroke="none" stroke-width="1px">-4.5</text><text x="0" y="302.3996034397517" dx="0em" dy="0.3em" style="text-anchor: end; visibility: inherit; font-family: Roboto, sans-serif; font-size: 12px; font-weight: 200;" fill="rgb(33, 33, 33)" stroke="none" stroke-width="1px">-4</text><text x="0" y="272.7151840579639" dx="0em" dy="0.3em" style="text-anchor: end; visibility: inherit; font-family: Roboto, sans-serif; font-size: 12px; font-weight: 200;" fill="rgb(33, 33, 33)" stroke="none" stroke-width="1px">-3.5</text><text x="0" y="243.0307646761761" dx="0em" dy="0.3em" style="text-anchor: end; visibility: inherit; font-family: Roboto, sans-serif; font-size: 12px; font-weight: 200;" fill="rgb(33, 33, 33)" stroke="none" stroke-width="1px">-3</text><text x="0" y="213.3463452943883" dx="0em" dy="0.3em" style="text-anchor: end; visibility: inherit; font-family: Roboto, sans-serif; font-size: 12px; font-weight: 200;" fill="rgb(33, 33, 33)" stroke="none" stroke-width="1px">-2.5</text><text x="0" y="183.66192591260048" dx="0em" dy="0.3em" style="text-anchor: end; visibility: inherit; font-family: Roboto, sans-serif; font-size: 12px; font-weight: 200;" fill="rgb(33, 33, 33)" stroke="none" stroke-width="1px">-2</text><text x="0" y="153.9775065308127" dx="0em" dy="0.3em" style="text-anchor: end; visibility: inherit; font-family: Roboto, sans-serif; font-size: 12px; font-weight: 200;" fill="rgb(33, 33, 33)" stroke="none" stroke-width="1px">-1.5</text><text x="0" y="124.2930871490249" dx="0em" dy="0.3em" style="text-anchor: end; visibility: inherit; font-family: Roboto, sans-serif; font-size: 12px; font-weight: 200;" fill="rgb(33, 33, 33)" stroke="none" stroke-width="1px">-1</text><text x="0" y="94.60866776723712" dx="0em" dy="0.3em" style="text-anchor: end; visibility: inherit; font-family: Roboto, sans-serif; font-size: 12px; font-weight: 200;" fill="rgb(33, 33, 33)" stroke="none" stroke-width="1px">-0.5</text><text x="0" y="64.92424838544929" dx="0em" dy="0.3em" style="text-anchor: end; visibility: inherit; font-family: Roboto, sans-serif; font-size: 12px; font-weight: 200;" fill="rgb(33, 33, 33)" stroke="none" stroke-width="1px">0</text><text x="0" y="35.239829003661505" dx="0em" dy="0.3em" style="text-anchor: end; visibility: inherit; font-family: Roboto, sans-serif; font-size: 12px; font-weight: 200;" fill="rgb(33, 33, 33)" stroke="none" stroke-width="1px">0.5</text><text x="0" y="5.555409621873718" dx="0em" dy="0.3em" style="text-anchor: end; visibility: hidden; font-family: Roboto, sans-serif; font-size: 12px; font-weight: 200;" fill="rgb(33, 33, 33)" stroke="none" stroke-width="1px">1</text></g><line x1="50" y1="0" x2="50" y2="377" fill="rgb(0, 0, 0)" stroke="rgb(204, 204, 204)" stroke-width="1px"></line></g></g><g transform="translate(50, 0)" clip-path="url(#clip_0)"><clipPath id="clip_0"><rect width="1231" height="377"></rect></clipPath><g><g><g><line x1="71.45680166147461" y1="0" x2="71.45680166147461" y2="377" fill="rgb(0, 0, 0)" stroke="rgb(66, 66, 66)" stroke-width="1px" opacity="0.25"></line><line x1="228.81516095534792" y1="0" x2="228.81516095534792" y2="377" fill="rgb(0, 0, 0)" stroke="rgb(66, 66, 66)" stroke-width="1px" opacity="0.25"></line><line x1="386.1735202492212" y1="0" x2="386.1735202492212" y2="377" fill="rgb(0, 0, 0)" stroke="rgb(66, 66, 66)" stroke-width="1px" opacity="0.25"></line><line x1="543.5318795430945" y1="0" x2="543.5318795430945" y2="377" fill="rgb(0, 0, 0)" stroke="rgb(66, 66, 66)" stroke-width="1px" opacity="0.25"></line><line x1="700.8902388369678" y1="0" x2="700.8902388369678" y2="377" fill="rgb(0, 0, 0)" stroke="rgb(66, 66, 66)" stroke-width="1px" opacity="0.25"></line><line x1="858.2485981308411" y1="0" x2="858.2485981308411" y2="377" fill="rgb(0, 0, 0)" stroke="rgb(66, 66, 66)" stroke-width="1px" opacity="0.25"></line><line x1="1015.6069574247143" y1="0" x2="1015.6069574247143" y2="377" fill="rgb(0, 0, 0)" stroke="rgb(66, 66, 66)" stroke-width="1px" opacity="0.25"></line><line x1="1172.9653167185877" y1="0" x2="1172.9653167185877" y2="377" fill="rgb(0, 0, 0)" stroke="rgb(66, 66, 66)" stroke-width="1px" opacity="0.25"></line></g><g><line x1="0" y1="361.76844220332725" x2="1231" y2="361.76844220332725" fill="rgb(0, 0, 0)" stroke="rgb(66, 66, 66)" stroke-width="1px" opacity="0.25"></line><line x1="0" y1="332.08402282153946" x2="1231" y2="332.08402282153946" fill="rgb(0, 0, 0)" stroke="rgb(66, 66, 66)" stroke-width="1px" opacity="0.25"></line><line x1="0" y1="302.3996034397517" x2="1231" y2="302.3996034397517" fill="rgb(0, 0, 0)" stroke="rgb(66, 66, 66)" stroke-width="1px" opacity="0.25"></line><line x1="0" y1="272.7151840579639" x2="1231" y2="272.7151840579639" fill="rgb(0, 0, 0)" stroke="rgb(66, 66, 66)" stroke-width="1px" opacity="0.25"></line><line x1="0" y1="243.0307646761761" x2="1231" y2="243.0307646761761" fill="rgb(0, 0, 0)" stroke="rgb(66, 66, 66)" stroke-width="1px" opacity="0.25"></line><line x1="0" y1="213.3463452943883" x2="1231" y2="213.3463452943883" fill="rgb(0, 0, 0)" stroke="rgb(66, 66, 66)" stroke-width="1px" opacity="0.25"></line><line x1="0" y1="183.66192591260048" x2="1231" y2="183.66192591260048" fill="rgb(0, 0, 0)" stroke="rgb(66, 66, 66)" stroke-width="1px" opacity="0.25"></line><line x1="0" y1="153.9775065308127" x2="1231" y2="153.9775065308127" fill="rgb(0, 0, 0)" stroke="rgb(66, 66, 66)" stroke-width="1px" opacity="0.25"></line><line x1="0" y1="124.2930871490249" x2="1231" y2="124.2930871490249" fill="rgb(0, 0, 0)" stroke="rgb(66, 66, 66)" stroke-width="1px" opacity="0.25"></line><line x1="0" y1="94.60866776723712" x2="1231" y2="94.60866776723712" fill="rgb(0, 0, 0)" stroke="rgb(66, 66, 66)" stroke-width="1px" opacity="0.25"></line><line x1="0" y1="64.92424838544929" x2="1231" y2="64.92424838544929" fill="rgb(0, 0, 0)" stroke="rgb(66, 66, 66)" stroke-width="1px" opacity="0.25"></line><line x1="0" y1="35.239829003661505" x2="1231" y2="35.239829003661505" fill="rgb(0, 0, 0)" stroke="rgb(66, 66, 66)" stroke-width="1px" opacity="0.25"></line><line x1="0" y1="5.555409621873718" x2="1231" y2="5.555409621873718" fill="rgb(0, 0, 0)" stroke="rgb(66, 66, 66)" stroke-width="1px" opacity="0.25"></line></g></g></g><g><g><line x1="0" y1="64.92424838544929" x2="1231" y2="64.92424838544929" fill="rgb(0, 0, 0)" stroke="rgb(153, 153, 153)" stroke-width="1.5px"></line></g></g><g><g><line x1="228.81516095534792" y1="0" x2="228.81516095534792" y2="377" fill="rgb(0, 0, 0)" stroke="rgb(153, 153, 153)" stroke-width="1.5px"></line></g></g><g><g><g><g><g><path stroke="rgb(255, 112, 67)" stroke-width="2px" d="M236.8719089511942,355.1268047529553L244.92865694704057,331.0034509708509L252.98540494288684,338.4315032862849L261.0421529387332,314.68399298774324L269.0989009345795,287.51817357571986L277.1556489304258,246.89236039064778L285.2123969262721,206.41690324301797L293.2691449221184,165.35146324062507L301.3258929179647,139.8766011042961L309.38264091381103,108.47373583078452L317.43938890965734,86.41170189917561L325.49613690550365,66.6408288562558L333.55288490134996,53.26965602367743L341.60963289719626,44.067755714764296L349.6663808930426,37.471030577197894L357.72312888888894,33.03350988976819L365.77987688473524,29.484649911741343L373.83662488058155,26.985396989639884L381.89337287642786,25.411314799447037L389.95012087227417,23.989974700244243L398.0068688681205,23.308620280261273L406.0636168639668,22.762920263495815L414.1203648598131,22.371041306259784L422.1771128556594,22.09582130582654L430.23386085150577,21.980947727197805L438.2906088473521,21.862455591045375L446.3473568431984,21.779130822265383L454.4041048390447,21.953729149511474L462.460852834891,21.859369102995025L470.5176008307373,21.99118529106389L478.5743488265836,21.87162033002896L486.63109682242987,21.941093667239336L494.6878448182763,21.877138795163333L502.7445928141226,21.839261286082852L510.80134080996885,21.80078350414177L518.8580888058151,21.73667387419419L526.9148368016614,21.71723475603259L534.9715847975077,21.696174023545055L543.0283327933541,21.67382325864255L551.0850807892004,21.680510964833214L559.1418287850468,21.674485121972797L567.1985767808931,21.66099958984052L575.2553247767393,21.672934247010264L583.3120727725856,21.6699999562103L591.3688207684319,21.658341046046864L599.4255687642782,21.671350444438794L607.4823167601245,21.669055336521506L615.5390647559708,21.657777105161404L623.5958127518172,21.671013495370307L631.6525607476634,21.668853167080467L639.7093087435098,21.65765580349699L647.7660567393561,21.670940714371508L655.8228047352025,21.66880949848122L663.8795527310488,21.657629602337494L671.9363007268951,21.670924993675758L679.9930487227414,21.66880006606379L688.0497967185877,21.657623942887042L696.106544714434,21.67092159800548L704.1632927102803,21.6687980286616L712.2200407061266,21.65762272044573L720.276788701973,21.670920864540687L728.3335366978192,21.668797588582752L736.3902846936656,21.65762245639842L744.4470326895118,21.670920706112316L752.5037806853583,21.668797493525688L760.5605286812045,21.657622399364232L768.6172766770509,21.670920671891754L776.6740246728972,21.668797472993433L784.7307726687434,21.657622387044846L792.7875206645898,21.67092066450013L800.844268660436,21.66879746855839L808.9010166562824,21.657622384383803L816.9577646521286,21.670920662903555L825.014512647975,21.66879746760045L833.0712606438212,21.657622383809045L841.1280086396677,21.670920662558707L849.184756635514,21.668797467393556L857.2415046313603,21.657622383684902L865.2982526272066,21.670920662484207L873.3550006230529,21.668797467348853L881.4117486188992,21.657622383658072L889.4684966147455,21.67092066246809L897.5252446105918,21.668797467339186L905.5819926064382,21.657622383652296L913.6387406022844,21.670920662464617L921.6954885981309,21.668797467337136L929.752236593977,21.657622383651L937.8089845898235,21.670920662463864L945.8657325856697,21.66879746733663L953.9224805815161,21.65762238365075L961.9792285773623,21.67092066246374L970.0359765732087,21.66879746733655L978.092724569055,21.657622383650708L986.1494725649012,21.670920662463654L994.2062205607476,21.66879746733655L1002.2629685565938,21.657622383650708L1010.3197165524402,21.670920662463654L1018.3764645482864,21.66879746733655L1026.4332125441329,21.657622383650708L1034.4899605399792,21.670920662463654L1042.5467085358255,21.66879746733655L1050.6034565316718,21.657622383650708L1058.660204527518,21.670920662463654L1066.7169525233644,21.66879746733655L1074.7737005192107,21.657622383650708L1082.830448515057,21.670920662463654L1090.8871965109033,21.66879746733655L1098.9439445067496,21.657622383650708L1107.000692502596,21.670920662463654L1115.0574404984422,21.66879746733655L1123.1141884942886,21.657622383650708L1131.1709364901349,21.670920662463654L1139.2276844859812,21.66879746733655L1147.2844324818275,21.657622383650708L1155.3411804776738,21.670920662463654L1163.3979284735203,21.66879746733655L1171.4546764693664,21.657622383650708L1179.511424465213,21.670920662463654L1187.568172461059,21.66879746733655L1195.6249204569056,21.657622383650708L1203.6816684527516,21.670920662463654L1211.738416448598,21.66879746733655L1219.7951644444443,21.657622383650708L1227.8519124402906,21.670920662463654L1235.908660436137,21.66879746733655" style="fill: none;" fill="none"></path></g></g></g></g><g opacity="0.2"><g><g><g><path stroke="rgb(255, 112, 67)" stroke-width="2px" d="M236.8719089511942,355.1268047529553L244.92865694704057,316.52943870158816L252.98540494288684,345.5624335091016L261.0421529387332,286.7569208766583L269.0989009345795,252.05047975138214L277.1556489304258,190.6922354629464L285.2123969262721,148.536351914593L293.2691449221184,105.47765748891219L301.3258929179647,102.30612769043236L309.38264091381103,61.84414071515018L317.43938890965734,53.51875202575624L325.49613690550365,37.092111509893975L333.55288490134996,33.256555974060234L341.60963289719626,30.282932732039523L349.6663808930426,27.583697073616015L357.72312888888894,26.380358542017696L365.77987688473524,24.162861703307634L373.83662488058155,23.237152166533914L381.89337287642786,23.050431309736258L389.95012087227417,21.858094467555073L398.0068688681205,22.286626017382464L406.0636168639668,21.94438819483907L414.1203648598131,21.783230607372175L422.1771128556594,21.682994565420014L430.23386085150577,21.808638175726934L438.2906088473521,21.68471789213151L446.3473568431984,21.654143882300755L454.4041048390447,22.215626372330995L462.460852834891,21.717829120139243L470.5176008307373,22.188909500314498L478.5743488265836,21.69227292812561L486.63109682242987,22.045303659231937L494.6878448182763,21.781206494684323L502.7445928141226,21.78244502517517L510.80134080996885,21.743066832883812L518.8580888058151,21.640509430925956L526.9148368016614,21.68807607909094L534.9715847975077,21.664582925009178L543.0283327933541,21.640297111413233L551.0850807892004,21.690542524096987L559.1418287850468,21.665446357694204L567.1985767808931,21.640771291658307L575.2553247767393,21.690836232756215L583.3120727725856,21.66559852001165L591.3688207684319,21.640852680804855L599.4255687642782,21.690864542024574L607.4823167601245,21.66561267464583L615.5390647559708,21.640859758121945L623.5958127518172,21.69086808068314L631.6525607476634,21.66561267464583L639.7093087435098,21.640859758121945L647.7660567393561,21.69086808068314L655.8228047352025,21.66561267464583L663.8795527310488,21.640859758121945L671.9363007268951,21.69086808068314L679.9930487227414,21.66561267464583L688.0497967185877,21.640859758121945L696.106544714434,21.69086808068314L704.1632927102803,21.66561267464583L712.2200407061266,21.640859758121945L720.276788701973,21.69086808068314L728.3335366978192,21.66561267464583L736.3902846936656,21.640859758121945L744.4470326895118,21.69086808068314L752.5037806853583,21.66561267464583L760.5605286812045,21.640859758121945L768.6172766770509,21.69086808068314L776.6740246728972,21.66561267464583L784.7307726687434,21.640859758121945L792.7875206645898,21.69086808068314L800.844268660436,21.66561267464583L808.9010166562824,21.640859758121945L816.9577646521286,21.69086808068314L825.014512647975,21.66561267464583L833.0712606438212,21.640859758121945L841.1280086396677,21.69086808068314L849.184756635514,21.66561267464583L857.2415046313603,21.640859758121945L865.2982526272066,21.69086808068314L873.3550006230529,21.66561267464583L881.4117486188992,21.640859758121945L889.4684966147455,21.69086808068314L897.5252446105918,21.66561267464583L905.5819926064382,21.640859758121945L913.6387406022844,21.69086808068314L921.6954885981309,21.66561267464583L929.752236593977,21.640859758121945L937.8089845898235,21.69086808068314L945.8657325856697,21.66561267464583L953.9224805815161,21.640859758121945L961.9792285773623,21.69086808068314L970.0359765732087,21.66561267464583L978.092724569055,21.640859758121945L986.1494725649012,21.69086808068314L994.2062205607476,21.66561267464583L1002.2629685565938,21.640859758121945L1010.3197165524402,21.69086808068314L1018.3764645482864,21.66561267464583L1026.4332125441329,21.640859758121945L1034.4899605399792,21.69086808068314L1042.5467085358255,21.66561267464583L1050.6034565316718,21.640859758121945L1058.660204527518,21.69086808068314L1066.7169525233644,21.66561267464583L1074.7737005192107,21.640859758121945L1082.830448515057,21.69086808068314L1090.8871965109033,21.66561267464583L1098.9439445067496,21.640859758121945L1107.000692502596,21.69086808068314L1115.0574404984422,21.66561267464583L1123.1141884942886,21.640859758121945L1131.1709364901349,21.69086808068314L1139.2276844859812,21.66561267464583L1147.2844324818275,21.640859758121945L1155.3411804776738,21.69086808068314L1163.3979284735203,21.66561267464583L1171.4546764693664,21.640859758121945L1179.511424465213,21.69086808068314L1187.568172461059,21.66561267464583L1195.6249204569056,21.640859758121945L1203.6816684527516,21.69086808068314L1211.738416448598,21.66561267464583L1219.7951644444443,21.640859758121945L1227.8519124402906,21.69086808068314L1235.908660436137,21.66561267464583" style="fill: none;" fill="none"></path></g></g></g></g></g></g><g transform="translate(50, 377)" clip-path="url(#clip_1)"><clipPath id="clip_1"><rect width="1231" height="23"></rect></clipPath><g><g><line x1="71.45680166147461" y1="0" x2="71.45680166147461" y2="5" style="visibility: inherit;" fill="rgb(0, 0, 0)" stroke="rgb(204, 204, 204)" stroke-width="1px"></line><line x1="228.81516095534792" y1="0" x2="228.81516095534792" y2="5" style="visibility: inherit;" fill="rgb(0, 0, 0)" stroke="rgb(204, 204, 204)" stroke-width="1px"></line><line x1="386.1735202492212" y1="0" x2="386.1735202492212" y2="5" style="visibility: inherit;" fill="rgb(0, 0, 0)" stroke="rgb(204, 204, 204)" stroke-width="1px"></line><line x1="543.5318795430945" y1="0" x2="543.5318795430945" y2="5" style="visibility: inherit;" fill="rgb(0, 0, 0)" stroke="rgb(204, 204, 204)" stroke-width="1px"></line><line x1="700.8902388369678" y1="0" x2="700.8902388369678" y2="5" style="visibility: inherit;" fill="rgb(0, 0, 0)" stroke="rgb(204, 204, 204)" stroke-width="1px"></line><line x1="858.2485981308411" y1="0" x2="858.2485981308411" y2="5" style="visibility: inherit;" fill="rgb(0, 0, 0)" stroke="rgb(204, 204, 204)" stroke-width="1px"></line><line x1="1015.6069574247143" y1="0" x2="1015.6069574247143" y2="5" style="visibility: inherit;" fill="rgb(0, 0, 0)" stroke="rgb(204, 204, 204)" stroke-width="1px"></line><line x1="1172.9653167185877" y1="0" x2="1172.9653167185877" y2="5" style="visibility: inherit;" fill="rgb(0, 0, 0)" stroke="rgb(204, 204, 204)" stroke-width="1px"></line></g><g transform="translate(0, 8)"><text x="71.45680166147461" y="0" dx="0em" dy="0.95em" style="text-anchor: middle; visibility: inherit; font-family: Roboto, sans-serif; font-size: 12px; font-weight: 200;" fill="rgb(33, 33, 33)" stroke="none" stroke-width="1px">-20k</text><text x="228.81516095534792" y="0" dx="0em" dy="0.95em" style="text-anchor: middle; visibility: inherit; font-family: Roboto, sans-serif; font-size: 12px; font-weight: 200;" fill="rgb(33, 33, 33)" stroke="none" stroke-width="1px">0</text><text x="386.1735202492212" y="0" dx="0em" dy="0.95em" style="text-anchor: middle; visibility: inherit; font-family: Roboto, sans-serif; font-size: 12px; font-weight: 200;" fill="rgb(33, 33, 33)" stroke="none" stroke-width="1px">20k</text><text x="543.5318795430945" y="0" dx="0em" dy="0.95em" style="text-anchor: middle; visibility: inherit; font-family: Roboto, sans-serif; font-size: 12px; font-weight: 200;" fill="rgb(33, 33, 33)" stroke="none" stroke-width="1px">40k</text><text x="700.8902388369678" y="0" dx="0em" dy="0.95em" style="text-anchor: middle; visibility: inherit; font-family: Roboto, sans-serif; font-size: 12px; font-weight: 200;" fill="rgb(33, 33, 33)" stroke="none" stroke-width="1px">60k</text><text x="858.2485981308411" y="0" dx="0em" dy="0.95em" style="text-anchor: middle; visibility: inherit; font-family: Roboto, sans-serif; font-size: 12px; font-weight: 200;" fill="rgb(33, 33, 33)" stroke="none" stroke-width="1px">80k</text><text x="1015.6069574247143" y="0" dx="0em" dy="0.95em" style="text-anchor: middle; visibility: inherit; font-family: Roboto, sans-serif; font-size: 12px; font-weight: 200;" fill="rgb(33, 33, 33)" stroke="none" stroke-width="1px">100k</text><text x="1172.9653167185877" y="0" dx="0em" dy="0.95em" style="text-anchor: middle; visibility: inherit; font-family: Roboto, sans-serif; font-size: 12px; font-weight: 200;" fill="rgb(33, 33, 33)" stroke="none" stroke-width="1px">120k</text></g><line x1="0" y1="0" x2="1231" y2="0" fill="rgb(0, 0, 0)" stroke="rgb(204, 204, 204)" stroke-width="1px"></line></g></g></g></g></svg>