<svg viewBox="0 0 1281 400" xmlns="http://www.w3.org/2000/svg"><g><g><g><g><g><line x1="41.171875" y1="355.53801279379167" x2="36.171875" y2="355.53801279379167" style="visibility: inherit;" fill="rgb(0, 0, 0)" stroke="rgb(204, 204, 204)" stroke-width="1px"></line><line x1="41.171875" y1="328.7884256497364" x2="36.171875" y2="328.7884256497364" style="visibility: inherit;" fill="rgb(0, 0, 0)" stroke="rgb(204, 204, 204)" stroke-width="1px"></line><line x1="41.171875" y1="302.0388385056811" x2="36.171875" y2="302.0388385056811" style="visibility: inherit;" fill="rgb(0, 0, 0)" stroke="rgb(204, 204, 204)" stroke-width="1px"></line><line x1="41.171875" y1="275.2892513616258" x2="36.171875" y2="275.2892513616258" style="visibility: inherit;" fill="rgb(0, 0, 0)" stroke="rgb(204, 204, 204)" stroke-width="1px"></line><line x1="41.171875" y1="248.53966421757053" x2="36.171875" y2="248.53966421757053" style="visibility: inherit;" fill="rgb(0, 0, 0)" stroke="rgb(204, 204, 204)" stroke-width="1px"></line><line x1="41.171875" y1="221.79007707351528" x2="36.171875" y2="221.79007707351528" style="visibility: inherit;" fill="rgb(0, 0, 0)" stroke="rgb(204, 204, 204)" stroke-width="1px"></line><line x1="41.171875" y1="195.04048992946005" x2="36.171875" y2="195.04048992946005" style="visibility: inherit;" fill="rgb(0, 0, 0)" stroke="rgb(204, 204, 204)" stroke-width="1px"></line><line x1="41.171875" y1="168.2909027854048" x2="36.171875" y2="168.2909027854048" style="visibility: inherit;" fill="rgb(0, 0, 0)" stroke="rgb(204, 204, 204)" stroke-width="1px"></line><line x1="41.171875" y1="141.54131564134946" x2="36.171875" y2="141.54131564134946" style="visibility: inherit;" fill="rgb(0, 0, 0)" stroke="rgb(204, 204, 204)" stroke-width="1px"></line><line x1="41.171875" y1="114.7917284972942" x2="36.171875" y2="114.7917284972942" style="visibility: inherit;" fill="rgb(0, 0, 0)" stroke="rgb(204, 204, 204)" stroke-width="1px"></line><line x1="41.171875" y1="88.0421413532389" x2="36.171875" y2="88.0421413532389" style="visibility: inherit;" fill="rgb(0, 0, 0)" stroke="rgb(204, 204, 204)" stroke-width="1px"></line><line x1="41.171875" y1="61.29255420918361" x2="36.171875" y2="61.29255420918361" style="visibility: inherit;" fill="rgb(0, 0, 0)" stroke="rgb(204, 204, 204)" stroke-width="1px"></line><line x1="41.171875" y1="34.542967065128366" x2="36.171875" y2="34.542967065128366" style="visibility: inherit;" fill="rgb(0, 0, 0)" stroke="rgb(204, 204, 204)" stroke-width="1px"></line><line x1="41.171875" y1="7.793379921073073" x2="36.171875" y2="7.793379921073073" style="visibility: inherit;" fill="rgb(0, 0, 0)" stroke="rgb(204, 204, 204)" stroke-width="1px"></line></g><g transform="translate(31.171875, 0)"><text x="0" y="355.53801279379167" dx="0em" dy="0.3em" style="text-anchor: end; visibility: inherit; font-family: Roboto, sans-serif; font-size: 12px; font-weight: 200;" fill="rgb(33, 33, 33)" stroke="none" stroke-width="1px">0</text><text x="0" y="328.7884256497364" dx="0em" dy="0.3em" style="text-anchor: end; visibility: inherit; font-family: Roboto, sans-serif; font-size: 12px; font-weight: 200;" fill="rgb(33, 33, 33)" stroke="none" stroke-width="1px">0.1</text><text x="0" y="302.0388385056811" dx="0em" dy="0.3em" style="text-anchor: end; visibility: inherit; font-family: Roboto, sans-serif; font-size: 12px; font-weight: 200;" fill="rgb(33, 33, 33)" stroke="none" stroke-width="1px">0.2</text><text x="0" y="275.2892513616258" dx="0em" dy="0.3em" style="text-anchor: end; visibility: inherit; font-family: Roboto, sans-serif; font-size: 12px; font-weight: 200;" fill="rgb(33, 33, 33)" stroke="none" stroke-width="1px">0.3</text><text x="0" y="248.53966421757053" dx="0em" dy="0.3em" style="text-anchor: end; visibility: inherit; font-family: Roboto, sans-serif; font-size: 12px; font-weight: 200;" fill="rgb(33, 33, 33)" stroke="none" stroke-width="1px">0.4</text><text x="0" y="221.79007707351528" dx="0em" dy="0.3em" style="text-anchor: end; visibility: inherit; font-family: Roboto, sans-serif; font-size: 12px; font-weight: 200;" fill="rgb(33, 33, 33)" stroke="none" stroke-width="1px">0.5</text><text x="0" y="195.04048992946005" dx="0em" dy="0.3em" style="text-anchor: end; visibility: inherit; font-family: Roboto, sans-serif; font-size: 12px; font-weight: 200;" fill="rgb(33, 33, 33)" stroke="none" stroke-width="1px">0.6</text><text x="0" y="168.2909027854048" dx="0em" dy="0.3em" style="text-anchor: end; visibility: inherit; font-family: Roboto, sans-serif; font-size: 12px; font-weight: 200;" fill="rgb(33, 33, 33)" stroke="none" stroke-width="1px">0.7</text><text x="0" y="141.54131564134946" dx="0em" dy="0.3em" style="text-anchor: end; visibility: inherit; font-family: Roboto, sans-serif; font-size: 12px; font-weight: 200;" fill="rgb(33, 33, 33)" stroke="none" stroke-width="1px">0.8</text><text x="0" y="114.7917284972942" dx="0em" dy="0.3em" style="text-anchor: end; visibility: inherit; font-family: Roboto, sans-serif; font-size: 12px; font-weight: 200;" fill="rgb(33, 33, 33)" stroke="none" stroke-width="1px">0.9</text><text x="0" y="88.0421413532389" dx="0em" dy="0.3em" style="text-anchor: end; visibility: inherit; font-family: Roboto, sans-serif; font-size: 12px; font-weight: 200;" fill="rgb(33, 33, 33)" stroke="none" stroke-width="1px">1</text><text x="0" y="61.29255420918361" dx="0em" dy="0.3em" style="text-anchor: end; visibility: inherit; font-family: Roboto, sans-serif; font-size: 12px; font-weight: 200;" fill="rgb(33, 33, 33)" stroke="none" stroke-width="1px">1.1</text><text x="0" y="34.542967065128366" dx="0em" dy="0.3em" style="text-anchor: end; visibility: inherit; font-family: Roboto, sans-serif; font-size: 12px; font-weight: 200;" fill="rgb(33, 33, 33)" stroke="none" stroke-width="1px">1.2</text><text x="0" y="7.793379921073073" dx="0em" dy="0.3em" style="text-anchor: end; visibility: inherit; font-family: Roboto, sans-serif; font-size: 12px; font-weight: 200;" fill="rgb(33, 33, 33)" stroke="none" stroke-width="1px">1.3</text></g><line x1="41.171875" y1="0" x2="41.171875" y2="377" fill="rgb(0, 0, 0)" stroke="rgb(204, 204, 204)" stroke-width="1px"></line></g></g><g transform="translate(41, 0)" clip-path="url(#clip_0)"><clipPath id="clip_0"><rect width="1239" height="377"></rect></clipPath><g><g><g><line x1="43.92160607928331" y1="0" x2="43.92160607928331" y2="377" fill="rgb(0, 0, 0)" stroke="rgb(66, 66, 66)" stroke-width="1px" opacity="0.25"></line><line x1="135.82651818364727" y1="0" x2="135.82651818364727" y2="377" fill="rgb(0, 0, 0)" stroke="rgb(66, 66, 66)" stroke-width="1px" opacity="0.25"></line><line x1="227.73143028801124" y1="0" x2="227.73143028801124" y2="377" fill="rgb(0, 0, 0)" stroke="rgb(66, 66, 66)" stroke-width="1px" opacity="0.25"></line><line x1="319.6363423923752" y1="0" x2="319.6363423923752" y2="377" fill="rgb(0, 0, 0)" stroke="rgb(66, 66, 66)" stroke-width="1px" opacity="0.25"></line><line x1="411.5412544967391" y1="0" x2="411.5412544967391" y2="377" fill="rgb(0, 0, 0)" stroke="rgb(66, 66, 66)" stroke-width="1px" opacity="0.25"></line><line x1="503.44616660110313" y1="0" x2="503.44616660110313" y2="377" fill="rgb(0, 0, 0)" stroke="rgb(66, 66, 66)" stroke-width="1px" opacity="0.25"></line><line x1="595.3510787054671" y1="0" x2="595.3510787054671" y2="377" fill="rgb(0, 0, 0)" stroke="rgb(66, 66, 66)" stroke-width="1px" opacity="0.25"></line><line x1="687.2559908098311" y1="0" x2="687.2559908098311" y2="377" fill="rgb(0, 0, 0)" stroke="rgb(66, 66, 66)" stroke-width="1px" opacity="0.25"></line><line x1="779.160902914195" y1="0" x2="779.160902914195" y2="377" fill="rgb(0, 0, 0)" stroke="rgb(66, 66, 66)" stroke-width="1px" opacity="0.25"></line><line x1="871.065815018559" y1="0" x2="871.065815018559" y2="377" fill="rgb(0, 0, 0)" stroke="rgb(66, 66, 66)" stroke-width="1px" opacity="0.25"></line><line x1="962.9707271229229" y1="0" x2="962.9707271229229" y2="377" fill="rgb(0, 0, 0)" stroke="rgb(66, 66, 66)" stroke-width="1px" opacity="0.25"></line><line x1="1054.875639227287" y1="0" x2="1054.875639227287" y2="377" fill="rgb(0, 0, 0)" stroke="rgb(66, 66, 66)" stroke-width="1px" opacity="0.25"></line><line x1="1146.7805513316507" y1="0" x2="1146.7805513316507" y2="377" fill="rgb(0, 0, 0)" stroke="rgb(66, 66, 66)" stroke-width="1px" opacity="0.25"></line><line x1="1238.685463436015" y1="0" x2="1238.685463436015" y2="377" fill="rgb(0, 0, 0)" stroke="rgb(66, 66, 66)" stroke-width="1px" opacity="0.25"></line></g><g><line x1="0" y1="355.53801279379167" x2="1239.828125" y2="355.53801279379167" fill="rgb(0, 0, 0)" stroke="rgb(66, 66, 66)" stroke-width="1px" opacity="0.25"></line><line x1="0" y1="328.7884256497364" x2="1239.828125" y2="328.7884256497364" fill="rgb(0, 0, 0)" stroke="rgb(66, 66, 66)" stroke-width="1px" opacity="0.25"></line><line x1="0" y1="302.0388385056811" x2="1239.828125" y2="302.0388385056811" fill="rgb(0, 0, 0)" stroke="rgb(66, 66, 66)" stroke-width="1px" opacity="0.25"></line><line x1="0" y1="275.2892513616258" x2="1239.828125" y2="275.2892513616258" fill="rgb(0, 0, 0)" stroke="rgb(66, 66, 66)" stroke-width="1px" opacity="0.25"></line><line x1="0" y1="248.53966421757053" x2="1239.828125" y2="248.53966421757053" fill="rgb(0, 0, 0)" stroke="rgb(66, 66, 66)" stroke-width="1px" opacity="0.25"></line><line x1="0" y1="221.79007707351528" x2="1239.828125" y2="221.79007707351528" fill="rgb(0, 0, 0)" stroke="rgb(66, 66, 66)" stroke-width="1px" opacity="0.25"></line><line x1="0" y1="195.04048992946005" x2="1239.828125" y2="195.04048992946005" fill="rgb(0, 0, 0)" stroke="rgb(66, 66, 66)" stroke-width="1px" opacity="0.25"></line><line x1="0" y1="168.2909027854048" x2="1239.828125" y2="168.2909027854048" fill="rgb(0, 0, 0)" stroke="rgb(66, 66, 66)" stroke-width="1px" opacity="0.25"></line><line x1="0" y1="141.54131564134946" x2="1239.828125" y2="141.54131564134946" fill="rgb(0, 0, 0)" stroke="rgb(66, 66, 66)" stroke-width="1px" opacity="0.25"></line><line x1="0" y1="114.7917284972942" x2="1239.828125" y2="114.7917284972942" fill="rgb(0, 0, 0)" stroke="rgb(66, 66, 66)" stroke-width="1px" opacity="0.25"></line><line x1="0" y1="88.0421413532389" x2="1239.828125" y2="88.0421413532389" fill="rgb(0, 0, 0)" stroke="rgb(66, 66, 66)" stroke-width="1px" opacity="0.25"></line><line x1="0" y1="61.29255420918361" x2="1239.828125" y2="61.29255420918361" fill="rgb(0, 0, 0)" stroke="rgb(66, 66, 66)" stroke-width="1px" opacity="0.25"></line><line x1="0" y1="34.542967065128366" x2="1239.828125" y2="34.542967065128366" fill="rgb(0, 0, 0)" stroke="rgb(66, 66, 66)" stroke-width="1px" opacity="0.25"></line><line x1="0" y1="7.793379921073073" x2="1239.828125" y2="7.793379921073073" fill="rgb(0, 0, 0)" stroke="rgb(66, 66, 66)" stroke-width="1px" opacity="0.25"></line></g></g></g><g><g><line x1="0" y1="355.53801279379167" x2="1239.828125" y2="355.53801279379167" fill="rgb(0, 0, 0)" stroke="rgb(153, 153, 153)" stroke-width="1.5px"></line></g></g><g><g><line x1="227.73143028801124" y1="0" x2="227.73143028801124" y2="377" fill="rgb(0, 0, 0)" stroke="rgb(153, 153, 153)" stroke-width="1.5px"></line></g></g><g><g><g><g><g><path stroke="rgb(255, 112, 67)" stroke-width="2px" d="M255.96461928647182,21.851660730608646L260.67015078621523,36.33211783751755L284.1978082849324,97.83808913705201L298.3144027841627,156.97272486887755L303.0199342839062,198.05506375060776L317.13652878313644,247.70840071458352L321.8420602828799,282.86945532229413L326.5475917826234,304.80028693639747L345.3697177815971,324.6297022150699L401.8360957785183,337.06822490028645L420.65822177749203,344.4829929965529L430.0692847769789,348.9146766440631L439.4803477764658,351.5675111756108L444.18587927620916,353.1570182327265L453.5969422756961,354.10986747021013L481.83013127415666,354.6813348577178L486.5356627739001,355.0240164234383L491.24119427364354,355.2296583886548L495.94672577338696,355.3529919310177L500.65225727313043,355.42702552324613L538.2965092710779,355.4714056698881L547.7075722705648,355.498039514102L552.4131037703082,355.5140004616878L566.5296982695385,355.52358332719666L571.235229769282,355.52931389447474L575.9407612690254,355.5328415026993L580.6462927687688,355.5349963277772L604.173950267486,355.5361999366136L627.7016077662032,355.5369539976947L641.8182022654336,355.5374478885653L646.523733765177,355.53760071878384L674.7569227636376,355.5377434376945L712.401174761585,355.5378800980719L726.5177692608153,355.5379557166954L731.2233007605587,355.53800107962076L764.1620212587629,355.5378943661622L778.2786157579931,355.53783033808776L787.68967875748,355.53795136285004L820.628399255684,355.53786453610064L825.3339307554274,355.5379208691162L839.4505252546577,355.53795466892547L844.1560567544012,355.53791754217673L886.5058402520921,355.5378952661275L895.916903251579,355.53788828634396L900.6224347513224,355.53787771262785L905.327966251066,355.5379415203455L938.26668674927,355.5379798148603L961.794344247987,355.53790074010874L971.205407247474,355.5380573800478L975.9109387472174,355.5380174328054L994.7330647461911,355.53807000552615L1018.2607222449084,355.5380250080924L1022.9662537446517,355.5380745506984L1037.0828482438822,355.53810427626195L1065.3160372423426,355.53811573400156L1070.0215687420862,355.53809709000365L1079.432631741573,355.53807315665523L1093.5492262408034,355.53802053105477L1102.9602892402902,355.53802721140164L1107.6658207400335,355.53799296390264L1117.0768837395203,355.5380106711103L1126.4879467390074,355.5380021642762L1131.1934782387507,355.537933282554L1164.1321987369547,355.5380832913609L1201.7764507349023,355.5380521123882L1206.4819822346458,355.53808443567726L1211.187513734389,355.53814846459323L1230.0096397333627,355.5380657059341L1277.0649547307971,355.53811172460047" style="fill: none;" fill="none"></path></g></g></g></g><g opacity="0.2"><g><g><g><path stroke="rgb(255, 112, 67)" stroke-width="2px" d="M255.96461928647182,21.851660730608646L260.67015078621523,45.02039210166291L284.1978082849324,156.88382158460513L298.3144027841627,226.51505648950427L303.0199342839062,251.69216539459478L317.13652878313644,316.39684093706904L321.8420602828799,333.15032598819397L326.5475917826234,336.7756499657436L345.3697177815971,353.8742380854881L401.8360957785183,355.53798145264517L420.65822177749203,355.5378937400465L430.0692847769789,355.53808508862176L439.4803477764658,355.5381010079094L444.18587927620916,355.5381648086037L453.5969422756961,355.5380212879255L481.83013127415666,355.5381328959022L486.5356627739001,355.537893760665L491.24119427364354,355.5380691240068L495.94672577338696,355.53797345593824L500.65225727313043,355.53806914462535L538.2965092710779,355.53797345593824L547.7075722705648,355.53798940402487L552.4131037703082,355.53794156794544L566.5296982695385,355.53795751194184L571.235229769282,355.5379097046614L575.9407612690254,355.53813289999243L580.6462927687688,355.53822855988057L604.173950267486,355.5380053480203L627.7016077662032,355.53808508862176L641.8182022654336,355.5381887245983L646.523733765177,355.5378299640609L674.7569227636376,355.53795751603207L712.401174761585,355.53808508862176L726.5177692608153,355.53806914462535L731.2233007605587,355.5380691240068L764.1620212587629,355.5377342959771L778.2786157579931,355.5377342959771L787.68967875748,355.53813289999243L820.628399255684,355.5377342959771L825.3339307554274,355.5380053686393L839.4505252546577,355.5380053686393L844.1560567544012,355.5378618520537L886.5058402520921,355.5378618520537L895.916903251579,355.5378778166686L900.6224347513224,355.5378618520537L905.327966251066,355.5380372319219L938.26668674927,355.53803725663255L961.794344247987,355.5377821279814L971.205407247474,355.5382923399564L975.9109387472174,355.53795751194184L994.7330647461911,355.5381488646073L1018.2607222449084,355.53795751194184L1022.9662537446517,355.5381488646073L1037.0828482438822,355.5381488646073L1065.3160372423426,355.5381329206109L1070.0215687420862,355.5380691240068L1079.432631741573,355.53803725663255L1093.5492262408034,355.5379415926542L1102.9602892402902,355.5380372319219L1107.6658207400335,355.5379415926542L1117.0768837395203,355.5380372319219L1126.4879467390074,355.53798940402487L1131.1934782387507,355.5378299599706L1164.1321987369547,355.5383083045713L1201.7764507349023,355.5380053439291L1206.4819822346458,355.5381329206109L1211.187513734389,355.5382445079672L1230.0096397333627,355.53794156794544L1277.0649547307971,355.5381807526001" style="fill: none;" fill="none"></path></g></g></g></g></g></g><g transform="translate(41, 377)" clip-path="url(#clip_1)"><clipPath id="clip_1"><rect width="1239" height="23"></rect></clipPath><g><g><line x1="43.92160607928331" y1="0" x2="43.92160607928331" y2="5" style="visibility: inherit;" fill="rgb(0, 0, 0)" stroke="rgb(204, 204, 204)" stroke-width="1px"></line><line x1="135.82651818364727" y1="0" x2="135.82651818364727" y2="5" style="visibility: inherit;" fill="rgb(0, 0, 0)" stroke="rgb(204, 204, 204)" stroke-width="1px"></line><line x1="227.73143028801124" y1="0" x2="227.73143028801124" y2="5" style="visibility: inherit;" fill="rgb(0, 0, 0)" stroke="rgb(204, 204, 204)" stroke-width="1px"></line><line x1="319.6363423923752" y1="0" x2="319.6363423923752" y2="5" style="visibility: inherit;" fill="rgb(0, 0, 0)" stroke="rgb(204, 204, 204)" stroke-width="1px"></line><line x1="411.5412544967391" y1="0" x2="411.5412544967391" y2="5" style="visibility: inherit;" fill="rgb(0, 0, 0)" stroke="rgb(204, 204, 204)" stroke-width="1px"></line><line x1="503.44616660110313" y1="0" x2="503.44616660110313" y2="5" style="visibility: inherit;" fill="rgb(0, 0, 0)" stroke="rgb(204, 204, 204)" stroke-width="1px"></line><line x1="595.3510787054671" y1="0" x2="595.3510787054671" y2="5" style="visibility: inherit;" fill="rgb(0, 0, 0)" stroke="rgb(204, 204, 204)" stroke-width="1px"></line><line x1="687.2559908098311" y1="0" x2="687.2559908098311" y2="5" style="visibility: inherit;" fill="rgb(0, 0, 0)" stroke="rgb(204, 204, 204)" stroke-width="1px"></line><line x1="779.160902914195" y1="0" x2="779.160902914195" y2="5" style="visibility: inherit;" fill="rgb(0, 0, 0)" stroke="rgb(204, 204, 204)" stroke-width="1px"></line><line x1="871.065815018559" y1="0" x2="871.065815018559" y2="5" style="visibility: inherit;" fill="rgb(0, 0, 0)" stroke="rgb(204, 204, 204)" stroke-width="1px"></line><line x1="962.9707271229229" y1="0" x2="962.9707271229229" y2="5" style="visibility: inherit;" fill="rgb(0, 0, 0)" stroke="rgb(204, 204, 204)" stroke-width="1px"></line><line x1="1054.875639227287" y1="0" x2="1054.875639227287" y2="5" style="visibility: inherit;" fill="rgb(0, 0, 0)" stroke="rgb(204, 204, 204)" stroke-width="1px"></line><line x1="1146.7805513316507" y1="0" x2="1146.7805513316507" y2="5" style="visibility: inherit;" fill="rgb(0, 0, 0)" stroke="rgb(204, 204, 204)" stroke-width="1px"></line><line x1="1238.685463436015" y1="0" x2="1238.685463436015" y2="5" style="visibility: inherit;" fill="rgb(0, 0, 0)" stroke="rgb(204, 204, 204)" stroke-width="1px"></line></g><g transform="translate(0, 8)"><text x="43.92160607928331" y="0" dx="0em" dy="0.95em" style="text-anchor: middle; visibility: inherit; font-family: Roboto, sans-serif; font-size: 12px; font-weight: 200;" fill="rgb(33, 33, 33)" stroke="none" stroke-width="1px">-40k</text><text x="135.82651818364727" y="0" dx="0em" dy="0.95em" style="text-anchor: middle; visibility: inherit; font-family: Roboto, sans-serif; font-size: 12px; font-weight: 200;" fill="rgb(33, 33, 33)" stroke="none" stroke-width="1px">-20k</text><text x="227.73143028801124" y="0" dx="0em" dy="0.95em" style="text-anchor: middle; visibility: inherit; font-family: Roboto, sans-serif; font-size: 12px; font-weight: 200;" fill="rgb(33, 33, 33)" stroke="none" stroke-width="1px">0</text><text x="319.6363423923752" y="0" dx="0em" dy="0.95em" style="text-anchor: middle; visibility: inherit; font-family: Roboto, sans-serif; font-size: 12px; font-weight: 200;" fill="rgb(33, 33, 33)" stroke="none" stroke-width="1px">20k</text><text x="411.5412544967391" y="0" dx="0em" dy="0.95em" style="text-anchor: middle; visibility: inherit; font-family: Roboto, sans-serif; font-size: 12px; font-weight: 200;" fill="rgb(33, 33, 33)" stroke="none" stroke-width="1px">40k</text><text x="503.44616660110313" y="0" dx="0em" dy="0.95em" style="text-anchor: middle; visibility: inherit; font-family: Roboto, sans-serif; font-size: 12px; font-weight: 200;" fill="rgb(33, 33, 33)" stroke="none" stroke-width="1px">60k</text><text x="595.3510787054671" y="0" dx="0em" dy="0.95em" style="text-anchor: middle; visibility: inherit; font-family: Roboto, sans-serif; font-size: 12px; font-weight: 200;" fill="rgb(33, 33, 33)" stroke="none" stroke-width="1px">80k</text><text x="687.2559908098311" y="0" dx="0em" dy="0.95em" style="text-anchor: middle; visibility: inherit; font-family: Roboto, sans-serif; font-size: 12px; font-weight: 200;" fill="rgb(33, 33, 33)" stroke="none" stroke-width="1px">100k</text><text x="779.160902914195" y="0" dx="0em" dy="0.95em" style="text-anchor: middle; visibility: inherit; font-family: Roboto, sans-serif; font-size: 12px; font-weight: 200;" fill="rgb(33, 33, 33)" stroke="none" stroke-width="1px">120k</text><text x="871.065815018559" y="0" dx="0em" dy="0.95em" style="text-anchor: middle; visibility: inherit; font-family: Roboto, sans-serif; font-size: 12px; font-weight: 200;" fill="rgb(33, 33, 33)" stroke="none" stroke-width="1px">140k</text><text x="962.9707271229229" y="0" dx="0em" dy="0.95em" style="text-anchor: middle; visibility: inherit; font-family: Roboto, sans-serif; font-size: 12px; font-weight: 200;" fill="rgb(33, 33, 33)" stroke="none" stroke-width="1px">160k</text><text x="1054.875639227287" y="0" dx="0em" dy="0.95em" style="text-anchor: middle; visibility: inherit; font-family: Roboto, sans-serif; font-size: 12px; font-weight: 200;" fill="rgb(33, 33, 33)" stroke="none" stroke-width="1px">180k</text><text x="1146.7805513316507" y="0" dx="0em" dy="0.95em" style="text-anchor: middle; visibility: inherit; font-family: Roboto, sans-serif; font-size: 12px; font-weight: 200;" fill="rgb(33, 33, 33)" stroke="none" stroke-width="1px">200k</text><text x="1238.685463436015" y="0" dx="0em" dy="0.95em" style="text-anchor: middle; visibility: hidden; font-family: Roboto, sans-serif; font-size: 12px; font-weight: 200;" fill="rgb(33, 33, 33)" stroke="none" stroke-width="1px">220k</text></g><line x1="0" y1="0" x2="1239.828125" y2="0" fill="rgb(0, 0, 0)" stroke="rgb(204, 204, 204)" stroke-width="1px"></line></g></g></g></g></svg>