<svg viewBox="0 0 1492 400" xmlns="http://www.w3.org/2000/svg"><g><g><g><g><g><line x1="30.78125" y1="343.18826559330836" x2="25.78125" y2="343.18826559330836" style="visibility: inherit;" fill="rgb(0, 0, 0)" stroke="rgb(204, 204, 204)" stroke-width="1px"></line><line x1="30.78125" y1="292.5055924430043" x2="25.78125" y2="292.5055924430043" style="visibility: inherit;" fill="rgb(0, 0, 0)" stroke="rgb(204, 204, 204)" stroke-width="1px"></line><line x1="30.78125" y1="241.82291929270022" x2="25.78125" y2="241.82291929270022" style="visibility: inherit;" fill="rgb(0, 0, 0)" stroke="rgb(204, 204, 204)" stroke-width="1px"></line><line x1="30.78125" y1="191.14024614239617" x2="25.78125" y2="191.14024614239617" style="visibility: inherit;" fill="rgb(0, 0, 0)" stroke="rgb(204, 204, 204)" stroke-width="1px"></line><line x1="30.78125" y1="140.4575729920921" x2="25.78125" y2="140.4575729920921" style="visibility: inherit;" fill="rgb(0, 0, 0)" stroke="rgb(204, 204, 204)" stroke-width="1px"></line><line x1="30.78125" y1="89.77489984178801" x2="25.78125" y2="89.77489984178801" style="visibility: inherit;" fill="rgb(0, 0, 0)" stroke="rgb(204, 204, 204)" stroke-width="1px"></line><line x1="30.78125" y1="39.09222669148398" x2="25.78125" y2="39.09222669148398" style="visibility: inherit;" fill="rgb(0, 0, 0)" stroke="rgb(204, 204, 204)" stroke-width="1px"></line></g><g transform="translate(20.78125, 0)"><text x="0" y="343.18826559330836" dx="0em" dy="0.3em" style="text-anchor: end; visibility: inherit; font-family: Roboto, sans-serif; font-size: 12px; font-weight: 200;" fill="rgb(33, 33, 33)" stroke="none" stroke-width="1px">-6</text><text x="0" y="292.5055924430043" dx="0em" dy="0.3em" style="text-anchor: end; visibility: inherit; font-family: Roboto, sans-serif; font-size: 12px; font-weight: 200;" fill="rgb(33, 33, 33)" stroke="none" stroke-width="1px">-5</text><text x="0" y="241.82291929270022" dx="0em" dy="0.3em" style="text-anchor: end; visibility: inherit; font-family: Roboto, sans-serif; font-size: 12px; font-weight: 200;" fill="rgb(33, 33, 33)" stroke="none" stroke-width="1px">-4</text><text x="0" y="191.14024614239617" dx="0em" dy="0.3em" style="text-anchor: end; visibility: inherit; font-family: Roboto, sans-serif; font-size: 12px; font-weight: 200;" fill="rgb(33, 33, 33)" stroke="none" stroke-width="1px">-3</text><text x="0" y="140.4575729920921" dx="0em" dy="0.3em" style="text-anchor: end; visibility: inherit; font-family: Roboto, sans-serif; font-size: 12px; font-weight: 200;" fill="rgb(33, 33, 33)" stroke="none" stroke-width="1px">-2</text><text x="0" y="89.77489984178801" dx="0em" dy="0.3em" style="text-anchor: end; visibility: inherit; font-family: Roboto, sans-serif; font-size: 12px; font-weight: 200;" fill="rgb(33, 33, 33)" stroke="none" stroke-width="1px">-1</text><text x="0" y="39.09222669148398" dx="0em" dy="0.3em" style="text-anchor: end; visibility: inherit; font-family: Roboto, sans-serif; font-size: 12px; font-weight: 200;" fill="rgb(33, 33, 33)" stroke="none" stroke-width="1px">0</text></g><line x1="30.78125" y1="0" x2="30.78125" y2="377" fill="rgb(0, 0, 0)" stroke="rgb(204, 204, 204)" stroke-width="1px"></line></g></g><g transform="translate(30, 0)" clip-path="url(#clip_0)"><clipPath id="clip_0"><rect width="1461" height="377"></rect></clipPath><g><g><g><line x1="124.77321332429848" y1="0" x2="124.77321332429848" y2="377" fill="rgb(0, 0, 0)" stroke="rgb(66, 66, 66)" stroke-width="1px" opacity="0.25"></line><line x1="331.2623466157236" y1="0" x2="331.2623466157236" y2="377" fill="rgb(0, 0, 0)" stroke="rgb(66, 66, 66)" stroke-width="1px" opacity="0.25"></line><line x1="537.7514799071487" y1="0" x2="537.7514799071487" y2="377" fill="rgb(0, 0, 0)" stroke="rgb(66, 66, 66)" stroke-width="1px" opacity="0.25"></line><line x1="744.2406131985738" y1="0" x2="744.2406131985738" y2="377" fill="rgb(0, 0, 0)" stroke="rgb(66, 66, 66)" stroke-width="1px" opacity="0.25"></line><line x1="950.7297464899988" y1="0" x2="950.7297464899988" y2="377" fill="rgb(0, 0, 0)" stroke="rgb(66, 66, 66)" stroke-width="1px" opacity="0.25"></line><line x1="1157.218879781424" y1="0" x2="1157.218879781424" y2="377" fill="rgb(0, 0, 0)" stroke="rgb(66, 66, 66)" stroke-width="1px" opacity="0.25"></line><line x1="1363.7080130728489" y1="0" x2="1363.7080130728489" y2="377" fill="rgb(0, 0, 0)" stroke="rgb(66, 66, 66)" stroke-width="1px" opacity="0.25"></line></g><g><line x1="0" y1="343.18826559330836" x2="1461.21875" y2="343.18826559330836" fill="rgb(0, 0, 0)" stroke="rgb(66, 66, 66)" stroke-width="1px" opacity="0.25"></line><line x1="0" y1="292.5055924430043" x2="1461.21875" y2="292.5055924430043" fill="rgb(0, 0, 0)" stroke="rgb(66, 66, 66)" stroke-width="1px" opacity="0.25"></line><line x1="0" y1="241.82291929270022" x2="1461.21875" y2="241.82291929270022" fill="rgb(0, 0, 0)" stroke="rgb(66, 66, 66)" stroke-width="1px" opacity="0.25"></line><line x1="0" y1="191.14024614239617" x2="1461.21875" y2="191.14024614239617" fill="rgb(0, 0, 0)" stroke="rgb(66, 66, 66)" stroke-width="1px" opacity="0.25"></line><line x1="0" y1="140.4575729920921" x2="1461.21875" y2="140.4575729920921" fill="rgb(0, 0, 0)" stroke="rgb(66, 66, 66)" stroke-width="1px" opacity="0.25"></line><line x1="0" y1="89.77489984178801" x2="1461.21875" y2="89.77489984178801" fill="rgb(0, 0, 0)" stroke="rgb(66, 66, 66)" stroke-width="1px" opacity="0.25"></line><line x1="0" y1="39.09222669148398" x2="1461.21875" y2="39.09222669148398" fill="rgb(0, 0, 0)" stroke="rgb(66, 66, 66)" stroke-width="1px" opacity="0.25"></line></g></g></g><g><g><line x1="0" y1="39.09222669148398" x2="1461.21875" y2="39.09222669148398" fill="rgb(0, 0, 0)" stroke="rgb(153, 153, 153)" stroke-width="1.5px"></line></g></g><g><g><line x1="331.2623466157236" y1="0" x2="331.2623466157236" y2="377" fill="rgb(0, 0, 0)" stroke="rgb(153, 153, 153)" stroke-width="1.5px"></line></g></g><g><g><g><g><g><path stroke="rgb(255, 112, 67)" stroke-width="2px" d="M331.7262864004027,292.5055924430043L332.3143674520167,292.5055924430043L332.38816666825505,292.5055924430043L332.65358780018784,292.5055924430043L333.02146884005987,292.5055924430043L333.59497175886344,292.5055924430043L335.0442776876093,271.6486626325405L335.11592941686143,280.13395488301165L335.37594053350205,285.1329886496021L336.84659743863017,288.0999703708576L336.9819304165894,269.5217486983095L337.49798805851134,278.73534218373754L337.8188721716462,263.9510637336142L337.9589131018444,275.3818328440334L338.7760731979319,282.23455873243785L338.8309580095608,286.3441315723298L339.00919942941795,288.80913316302417L339.7550381788666,290.2878670551662L340.2145177982667,291.1750112692982L341.57003636267154,291.7072631987545L341.6150509937291,373.12065789856183L342.09323852860535,340.87420728306154L342.59091863766434,321.52660855320397L342.9394722946603,309.91814710380703L344.42933268918455,302.9531054376719L345.15832192535663,298.7740931111734L345.5790641833512,296.26669027760306L345.75069795094305,294.7622502198956L345.77626130564454,273.58651004667763L346.65070148730706,281.15414467821495L346.99178023767786,285.69472438641293L347.1701042531883,288.41907182587096L347.29032222659055,290.0536801507801L347.3473545252057,291.0344450957698L347.6326399117611,271.34983443614954L347.84656265385104,279.81213772617525L348.9087840533288,284.889519644329L349.1358808021227,267.6628794397116L349.32469446560435,277.59996466316767L350.0265510296619,283.56221578307236L350.274048904825,287.1395664499143L350.4008745304926,289.2859768481832L350.45051451813583,290.5738230864835L350.80712125133016,291.3465308292256L350.8603541498927,291.81015547478535L351.0452032220152,292.08833026209027L351.23294314200376,292.2552351344621L351.36621122863,292.3553780578812L352.13038621311495,292.41546381193126L354.91357064509674,292.45151526436075L355.3184958354812,292.47314613581824L355.5307253666781,272.21305539851204L355.5585601018458,280.3300702163232L355.713592143121,285.20027910700065L355.8445062536278,288.12240444140394L356.28891216629756,289.8756796420447L356.36931903480126,290.92764476242877L356.5936488292091,291.55882383465905L357.84096708776923,291.93753127799715L357.91195805179484,292.164755744L358.06699009307005,292.30109042360175L358.2273908518108,292.38289123136275L358.635619868328,272.15890245589753L358.7787581355256,280.2975784507403L358.90347757203364,285.1807840476459L360.1501350653673,288.1107074057893L360.26940318875637,289.86866142067527L360.295916393471,290.92343382960684L360.762664430363,291.5562972749658L361.0753715738195,291.9360153421812L362.358908026359,292.1638461825104L362.73405748372284,292.300544686708L363.2391299037537,292.3825637892265L364.12381194642745,272.158705990616L364.23106240225906,280.2974605715713L364.55533293717986,285.1807133201445L364.6482943449877,288.1106649692884L365.8179313916037,289.8686359587747L365.9853527808763,290.9234185524665L366.52230712308733,291.5562881086816L366.82101430330675,291.9360098424107L367.04864792384717,292.16384288264817L367.7655368968083,292.3005427067906L368.0263326721554,292.38256260127605L368.240296712072,292.4317745379673L368.3838892553628,292.4613016999821L369.163385733538,292.47901799719097L369.94502969869933,292.48964777551623L370.3499548890838,292.4960256425115L370.7387739270715,292.4998523627086L370.83594771319855,272.2290791347052L371.2363714404772,280.33968445802486L372.132658172442,285.2060476520166L373.17224836291103,288.12586556841165L373.38233040712174,289.87775631824866L373.53690817230364,250.3827522479077L373.6546482761064,267.23188832594633L373.84164483521516,277.34136997276954L374.04689503370685,283.4070589608634L374.3964811363692,287.04647235371976L374.45611519806374,289.2301203894336L374.5349114513278,290.54030921086184L374.7592412457356,291.32642250371885L375.668867175711,291.79809047943303L376.3152194607398,292.08109126486147L376.8440381310992,292.2508917361186L377.3020310287395,292.3527720188728L377.52289180570807,292.4139001885254L377.8542242689875,272.1775078301954L377.9184836872678,280.3087416753189L378.1338518532907,285.187481982393L379.1399082085132,288.1147261666376L379.541405679285,289.87107267718426L379.79266165667406,290.9248805835122L379.863115748953,291.5571653273091L380.39771611504455,271.6634669134655L380.801319774976,280.0003171252811L381.2719911054005,285.0024272523703L381.58977788153595,288.00369332862397L382.00031957634593,289.8044529743761L382.14647258488964,290.8849087618274L383.10305414377547,291.5331822342981L383.17202151429484,291.9221463177806L383.20187984296876,271.88245550774843L383.4037849175011,259.85864102172917L383.50091740580143,272.9174215902392L383.69505848892203,280.75268993134523L385.1082701171685,285.45385093600885L385.2687534715626,268.0014782786854L385.51509500757925,277.803123944413L386.03899923656627,283.6841113438495L386.1498839011438,287.2127037835115L386.34340551686455,289.32985924730855L386.54279142397075,290.6001525255868L386.6393870405244,291.36232849255373L387.15432964112665,291.81963407273395L387.3231551565056,271.8209481607205L387.35231142212643,259.82173661351237L387.4800455999805,272.89527894530914L387.85267588991815,280.7394043443872L387.981772896052,285.445879583834L388.43918762411914,288.2697647275021L388.85728682120765,289.96409581370295L389.14273739906974,290.9806944654234L389.4500758250607,291.5906536564558L390.1015490405951,291.9566291710752L390.32662219588275,292.1762144798468L391.1565846182343,292.3079656651098L391.1842128642687,292.3870163762676L391.24079088679053,272.1613775428407L392.3384871193678,280.29906350290605L392.54344823307287,285.1816750789453L392.76757153834734,288.1112420245689L392.82955957616144,289.868982191943L392.977901369518,290.92362629236754L393.56941014074465,291.5564127526222L393.59571685632596,291.936084628775L393.8772854384821,271.89081849434507L393.92527351305904,280.13672807380874L394.0507363104469,285.08427382148693L394.38078854109995,288.0528012700939L394.51513037121936,289.8339177392581L394.7295486872292,290.90258762075655L395.09049169222254,271.270720289534L395.2677832620666,279.7646691509221L396.5889007368651,264.58796920763336L397.03425649954806,275.75501850178176L398.5804471296343,282.45524807827076L398.6928598137981,286.47538582416416L399.00606253117456,288.8874684717002L399.8778183541043,290.3347180602218L400.2483837527091,291.20306781333477L401.13054662795673,291.72407766520257L403.1999394239767,292.03668357632324L403.67461664358706,292.2242471229957L403.8399731415268,292.3367852509991L404.42285066698184,292.4043081278012L405.6971364063499,272.1717525937608L405.9010650743885,280.3052885334582L406.8298118981067,285.18541009727664L407.27636529776277,247.56734451532446L407.36176920329206,265.5426436863964L407.5457097232281,276.3278231890395L407.63726700492947,282.79893089062546L408.396651441522,286.681595511577L409.20133959395866,289.0111942841479L410.63714113338733,290.40895354769043L410.7827572701844,291.24760910581597L411.16765301463965,291.75080244069136L411.5909970357137,292.0527184416165L411.61610611432195,292.2338680421716L412.491083167731,292.34255780250464L412.74812084085215,292.4077716587045L412.82233303535713,292.44689997242443L412.8663152207482,272.19730770053474L412.9163681866581,280.3206215975226L412.93767786521374,285.1946099357152L413.5828738110961,288.1190029386309L414.425721155365,289.8736387403802L415.51362980302423,290.92642022142985L416.33165715347155,291.5580891100596L417.0446228329002,291.9370904432374L417.18763720661786,292.1644912431442L417.72678033364167,292.3009317230882L418.1884074400281,292.38279601105467L418.5960995847986,272.15884532371285L418.99565605771755,280.29754417142937L419.67884600412555,285.18076348005934L419.7769696402656,288.1106950652373L420.441864649464,289.86865401634407L421.5251479405375,290.9234293870081L422.06268045232173,291.55629460940656L422.53285620882633,291.93601374284566L422.5752277789777,292.16384522290906L422.6372984124451,292.30054411094716L422.78774639496123,292.38256344377004L423.4981929069637,292.43177504346374L423.83600912902847,292.46130200327997L425.29596989705215,292.4790181791697L425.3882705396335,292.4896478847035L425.68801016551924,292.4960257080238L426.47589010250607,272.2267831418944L426.64929967664415,280.3383068623383L427.0025199880525,285.20522109460467L427.14243702477074,288.1253696339645L427.55050084998123,289.8774587575804L427.69231758672584,290.92871223174996L427.7507540114473,291.5594643162517L428.00783298239514,291.9379155669527L428.86385433336807,292.16498631737335L429.14942880471006,292.30122876762573L430.4110361112941,292.38297423777715L430.68678169989136,292.432021519868L431.12065666676335,272.1883806290009L431.866619309692,280.3152653546022L432.831997305656,285.1913961899631L433.14999057092484,288.11707469117954L433.2190818349241,289.8724817919095L434.6984938793039,290.9257260523474L434.8098328199746,291.5576726086101L435.0938792717303,291.9368405423678L437.0022931394363,292.16434130262235L437.29459915652365,272.0277724986535L437.3268114613171,280.21890047639386L437.37236296412124,285.133577263038L437.49435674406976,288.08238333502453L437.51525344435885,289.8516669782164L438.1655290229203,290.91323716413154L438.29441953992074,291.5501792756807L438.37280281491815,271.65927528248847L438.5876754070212,279.9978021466948L439.0952256966515,285.0009182652186L439.1777387543148,288.0027879363329L439.2061516590557,289.8039097390014L439.6254071952906,290.88458282060265L440.21662688173063,291.53298666956323L440.57645484540427,291.9220289789397L440.6230800917014,292.1554543645655L441.98338920399874,272.0224403358194L442.6165261844968,259.94263191857175L442.79344607390095,272.9678161283448L442.919734827822,280.7829266542086L443.5787242478083,285.47199296972684L443.65574469452594,288.28543275903786L445.1801300721366,289.9734966326244L445.5830729668414,270.71326569665473L446.0995435870299,279.43019639519457L446.1729298250017,284.6603548143184L447.3431037433643,267.52538060567116L447.4146315791364,277.5174653406044L447.85379266782064,283.5127161815643L448.6780559900933,266.83679742601873L449.40068536096004,277.10431543281294L449.6081243442646,283.2648262368895L449.70488515212486,246.41499419909215L449.89601149389944,264.85123349665696L450.1613913280056,275.9129770751959L450.7941979258905,282.5500232223193L450.92354271898427,286.5322509105933L451.3597716619757,288.92158752355766L451.77018946330577,270.0821202312147L451.97771104226365,279.0515091159305L452.2046838975776,264.16007318663844L452.72565598087186,275.49828088918474L452.7511780377466,282.3012055107126L453.1019204795555,286.3829602836293L453.1541209324515,288.83201314737926L454.06849611249265,290.3014448656293L454.41287868899605,291.18310389657927L454.8704999061965,291.7120993151492L455.4574659164908,292.02949656629124L455.9721194323063,292.21993491697646L457.175620696782,292.3341979273876L457.4093250978412,292.40275573363425L457.49770244689,292.44389041738225L458.9062061228974,292.46857122763106L459.39281841441203,292.4833797137804L459.44188023248205,292.4922648054699L459.47198634811593,292.49759586048367L460.84931016499644,292.5007944934919L461.3815152571417,292.50271367329685L461.58730232738,292.50386518117983L462.39046246023025,272.231486825788L462.79245550492203,280.3411290726745L463.28365185519567,285.20691442080636L463.5066601191504,288.12638562968556L464.303625578002,289.87806835501306L465.6738048708706,290.9290779902095L466.45045179900626,291.5596837713274L466.7317725942025,291.9380472399981L467.1689926850338,292.1650653212006L467.5248147595215,292.301276169922L468.0353797904979,292.38300267915497L469.1336128948217,292.4320385846946L469.6928267656015,292.46146012801853L469.84249008941117,292.4791130540128L471.1153304048462,292.4897048096094L471.60768309426624,292.49605986296734L471.67016670600026,292.49987289498216L472.4899285651672,292.50216071419095L473.0733842601955,272.2304641455947L473.3495015292328,280.34051546455856L473.3969114342365,285.2065462559368L473.54735941675256,288.12616473076383L474.4922123928675,289.87793581565995L475.17441119143575,290.9289984665977L475.23107180961085,271.2865667970387L475.32304206957883,259.5011077953033L475.71099385320684,272.7029016543837L476.8105484879836,260.3509087097103L476.88393472595544,273.21278220302787L478.2655122189817,280.9299062990185L478.35339399411055,285.5601807566128L478.6047738649795,288.3383454311694L479.12541556566055,269.7321749757817L479.1452798202831,278.8415419626707L479.62722545738535,284.30716215480413L479.69829901706424,287.5865342700842L480.65492187377674,289.55415753925223L480.70476835055325,290.734731500753L480.873882950719,291.44307587765354L481.8343052074841,291.8680825037938L482.4973418144828,292.12308647947805L483.1072281185723,292.2760888648885L483.2278590702412,292.3678902961348L483.39259610078113,292.42297115488265L484.11555585426106,292.45601967013124L484.62752501134383,292.47584877928045L484.7628992871297,272.21467698464835L485.1712521971268,280.3310431679907L485.3082370881523,285.20086287799614L486.39697169234466,288.1227547039994L487.04253931866697,289.87588979960134L487.09081647803055,290.9277708569625L487.4934289901222,291.55889949137924L487.54187134079234,291.93757667202925L487.6746851513254,271.8917137202976L487.71833695410317,280.1372652093803L488.2082530717504,285.08459610282983L489.0717906271751,267.77992537877805L489.59007835173657,277.6701922044685L489.90485038652605,283.6043522998828L489.9572160307288,287.1648483571314L490.09502687828746,289.30114599148055L490.43478409820517,290.58292457209006L490.91701882009403,291.3519917204557L491.8735177833265,291.81343200947515L492.4250502583479,292.0902961828868L492.5571207080011,292.2564146869338L493.18435209928714,292.356085789362L493.4409354963151,292.4158884508189L493.71792001971215,272.1787007875715L493.92647404433654,280.30945744974457L494.1077715033664,285.18791144704846L494.7178229987626,288.11498384543074L496.1393767879941,289.87122728446013L497.0364068808387,290.9249733478778L497.0688669725921,271.2841517258068L497.1688077131051,239.22658949244254L497.6460866957949,260.5381906726672L497.68209840064094,253.0520821206804L497.70848771187565,268.83348624960996L497.9253838974849,278.3023287269677L499.0437290433913,283.98363421338235L499.237250659112,287.3924175052311L499.32327403204124,289.4376874803404L499.8052196691434,290.66484946540595L501.2948735745344,291.40114665644523L501.5189142841556,291.84292497106884L501.5615336412669,292.107991959843L501.6571794078076,292.26703215310744L501.8300521101991,292.3624562690662L501.9051315590639,292.4197107386414L502.0841576376275,292.45406342038655L502.31269981035445,272.20160576931204L502.3985166941504,280.323200438789L502.72191997471145,285.1961572404751L503.44343430425835,288.1199313214868L503.55113903618314,289.8741957700938L503.8267194334739,290.926754439258L504.12522012456,271.2852203806349L505.88285562713656,279.77336920558264L506.2566422562207,284.86625850055134L506.4500812762881,287.92199207753254L506.86012739717825,269.4823629635996L506.88172616052054,278.69165475536147L507.63107522523507,284.21722983041855L508.00676155434553,287.53257487545284L508.6791727679957,289.5217819024734L509.4432238590006,270.4422368585641L509.5170643730657,279.26757909234016L510.21966429800307,264.2897151724842L510.6938872415201,275.57606608069216L510.79969227341866,282.347876625617L511.4309295538906,286.41096295257194L512.7242535913481,288.84881474874487L513.1367775818377,270.038456566327L513.3351310432773,279.02531091699785L513.3602401218857,284.41742352740044L513.9256899644909,287.652691093642L514.4116827886056,289.5938516333869L515.4761342707229,290.7585479572338L516.0012774345097,291.457365751542L516.7391457034132,291.87665642812686L518.1234901508255,271.85516157395625L518.4077017938879,280.1153339215754L518.850868771758,285.07143733014703L519.1098474427321,288.0450993752899L519.1392514953127,289.8292966023757L519.5864656601954,290.8998149386271L520.1747532009426,291.542125940378L520.6439378096075,291.92751254142854L521.4057588179728,292.1587445020588L521.6400826864319,292.29748367843706L521.713675413537,292.3807271842639L521.9086424531906,292.43067328776004L522.1459397651693,272.1875716897361L522.2306003098187,280.3147799910434L522.3823698227878,285.19110497182777L522.6657142114904,288.1168999602984L523.4857238576172,289.8723769533807L523.9446253074441,290.92566314923016L524.3764353829832,291.5576348667398L525.931257258841,291.93681789724565L526.8066472905167,292.1643277155491L527.2206167049393,292.30083360653117L527.4985510783496,251.83659862087717L527.6312822932292,268.10419614972795L527.931145812595,277.86475466703854L528.0954698648684,263.44802051730323L528.2855637609765,275.0710492875836L528.7687483328784,282.0448665497519L528.8919810476267,286.2291569070528L529.0140987210552,288.7397311214334L529.4833659253734,290.24607565006175L529.7582855574376,291.1498823672388L529.8353473019819,291.692166397545L530.3450863764251,292.01753681572865L530.5401360117322,292.2127590666389L530.8159228981563,272.05682315706343L531.7459086566741,259.9632616113181L531.8797549128736,272.98019394399256L533.509078068023,280.7903533435973L533.5311311074585,285.47644898336006L534.4051996086812,288.2881063672177L535.5135919783628,289.9751007975324L535.7270191465328,290.98729745572115L535.9247531405728,291.5946154506344L535.9540332996735,291.95900624758235L536.8726621558603,292.17764072575113L537.1595994554822,231.4896136322875L537.471769727192,255.89600515657423L537.9610250796128,250.26677081102463L539.4208619541565,267.1622994638165L540.057220165134,257.02654739536996L540.8534835609324,271.2181654144237L540.9403741882214,279.7331362258559L541.2933880104964,284.84211871271526L541.7521655668434,287.90750820483083L541.9155810669301,269.4736726399786L543.1199082879391,278.6864405611889L543.5152936803655,284.21410131391497L543.8111513105455,287.5306977655507L544.0720296815458,289.5206556365321L544.3012739173261,290.71463035912103L544.8013493003311,291.43101519267435L544.8657326120914,291.86084609280636L544.9570421068329,292.1187446328855L545.0143634902346,272.00041449681146L545.1593188618052,280.2024856752886L545.6830166016589,285.1237283823749L545.7624323223228,267.803404746505L545.8957417067758,277.6842798251046L546.0988031204545,283.6128048722645L548.0736651912537,266.8968506404388L548.6626960928808,277.140347361465L548.7088670630848,283.2864453940807L548.7565660528751,286.97410421365015L549.1633083476326,289.1866995053918L549.2546178423739,290.5142566804368L549.4845228433807,291.3107909854638L549.5105404741754,291.78871156848L549.6637967089043,251.52932539804647L549.7997904520901,267.9198322160296L550.1974885228093,257.48106704669783L551.0075453927116,271.4908772052204L551.3184767296218,279.89676330033393L551.5051842039438,284.94029495740205L551.6555908886334,267.6933446915213L552.0322270677569,277.61824379211447L552.2708459101884,283.5731832524704L552.9751390460189,287.146146928684L553.1478052592772,289.2899251344121L553.1643243899405,290.57619205784897L553.4020346801856,271.07488295178945L554.4054892723286,279.6471667482754L554.624904625364,284.79053702616693L554.6547216562113,287.8765591929018L554.7741549709071,289.72817249294275L555.6237338609213,270.56607121284577L556.7872175313652,279.3418797049092L556.9023558720885,284.6073648001472L557.4684664799203,287.76665585729006L557.9368251320519,269.38916123145407L558.0092202221839,278.6357337160741L558.5525757275269,284.1836772068462L558.8357549249228,287.5124433013095L559.4830570599647,289.5097029579874L559.6593161841423,290.70805875199414L560.1130554056368,291.42707222839823L560.1678163237857,291.85848031424064L560.2473559379296,292.11732516574614L560.8125992914015,292.27263207664936L560.8619088964316,272.0927469630697L560.9693658413964,280.25788515504354L561.2422205821277,285.15696807022783L561.5469159472126,267.8233485592168L562.0411683366589,277.6962461127318L562.5456625871165,283.6199846448408L562.7021400523248,287.17422776410615L562.9798679366017,289.3067736356654L563.4369935798823,290.586301158601L563.4697427564223,291.3540176723623L564.1522719376038,291.81464758061907L564.3585132839352,292.0910255255731L564.9661282075585,292.2568522925456L565.5876192009391,292.3563483527291L566.0397065093673,292.41604598883913L566.9549489437683,272.1787953103836L567.1392611441443,260.0364449033102L568.5679594573876,273.0241039191879L568.6181363167774,260.5436300685928L568.908831718625,253.05534575823575L569.1004123364928,248.56237517202152L569.8315490596511,266.13966208041467L570.386054978192,256.4129649653289L570.67464419088,250.57694669627742L571.103315631593,267.3484049949682L571.1693095585929,277.4112799741826L571.3401586674782,283.4490049617113L572.1924632140519,287.0716399542285L572.6395947832813,289.24522094973884L572.7750103568936,290.54936954704505L573.8896799962275,291.3318587054287L573.9866472932212,291.80135220045895L574.5132771787676,292.08304829747703L574.7029993944358,292.25206595568795L575.4010565584407,272.0804072904929L575.5695516912065,280.25048135149746L577.2364558686149,285.15252578810015L577.4962191982955,288.09375245006174L577.7086139207992,289.85848844723876L577.955533626389,270.64426078542334L578.0382531731855,279.3887934484557L578.6222044421337,284.63551304627515L578.9135606092079,287.7835448049668L579.225937370051,289.67236386018175L579.5558244093976,290.80565529331074L579.5853523554582,291.48563015318814L579.6693521348811,271.620545808993L580.3197929047491,279.97456446259747L580.476559454744,284.9869756547602L581.0905342436728,287.9944223700578L581.3681795322964,289.79889039923637L581.6063853964613,270.60850195662186L583.178139381249,238.82119963093163L583.462144535178,260.2949567557607L583.7119137908073,273.1792110306581L584.6086547988654,280.9097635955966L585.4122692078089,265.27502587443803L585.5078323786962,276.16725250186454L586.5267323580094,282.7025884783204L587.1929488976608,286.623790064194L588.9837052572174,288.9765110157181L590.1466107580881,290.3881435866326L591.0962129842686,291.2351231291812L591.2286138165351,291.74331085471044L591.2528969386102,292.04822349002796L591.2970030174812,292.23117107121845L591.6729371335516,292.3409396199328L592.0477562083022,272.1337314890398L592.703772184769,280.28247587062555L592.8886625547182,285.1717224995771L593.3335227434812,288.1052704769479L593.5056933828197,289.8653992633705L593.7510850688232,290.92147653522403L594.3921925298664,291.5551228983361L594.9292707655574,291.93531071620333L595.4988916886551,292.1634234069237L596.4211960514147,292.3002910213559L596.6339211565314,292.38241159001524L596.9569527566525,292.4316839312109L597.5023731533284,292.46124733592825L597.6958121733959,292.47898537875864L597.8672394518544,251.94348968421366L599.1561446218595,268.1683307877299L600.2371565324668,277.90323544983966L601.0488653154354,283.74417824710554L601.1146940511287,287.248743925465L601.1642514431186,289.3514833324807L601.2336730897312,290.6131269766901L601.6960022591707,291.37011316321576L601.8748218486011,291.82430487513113L602.0352226073419,271.82375064215876L602.900535969313,259.8234181023754L603.3633607126723,272.89628783862696L603.6812713822877,280.74000968037785L603.9916658474515,244.90010426518526L604.1061434229482,243.6692302761912L604.1298070776234,263.2037751429164L605.0367899466926,274.92450206295155L605.3700221099984,261.683868954851L606.1342796901366,274.01255835011233L606.1798724907673,281.4097719872691L606.5603906655967,285.84810016956317L607.6622166808398,288.5110970789396L607.935443102011,290.10889522456546L608.5307512732902,291.0675741119409L608.7348451326354,291.6427814443663L609.0391688172804,291.9879058438215L609.3194984646368,292.19498048349453L609.5854564683161,272.0461560071768L610.1768826438895,280.22993058150786L611.3890151541367,285.1401953261064L611.7205541065495,267.81328491274394L612.9805095000671,277.69020792484804L613.3073405002408,283.61636173211053L613.3431870137802,287.172054016468L613.5166791835716,289.30546938708255L614.1448604248708,290.58551860945124L614.5104287864499,271.0804788827508L615.8653691812816,279.6505243068522L615.9180652080976,284.7925515613131L616.3716805361122,267.60469865386796L616.635284563672,277.5650561695225L617.0955901396052,283.54127067891517L617.453353211946,266.8539301244292L617.90957030304,277.11459505185917L619.6439138313814,283.27099400831725L619.7748279418881,286.96483338219207L620.196148369456,289.1811370065169L621.3316321134255,290.5109191811119L621.5330003162113,291.3087884858689L621.9015834191365,291.787510068723L622.4750450401135,292.0747430184355L622.8210382318566,292.247082788263L622.9305187703277,292.35048665015955L624.4863317940253,292.4125289672974L624.8326553683817,292.4497543575802L625.0707373390666,292.4720895917498L625.1477164879577,292.4854907322516L625.6573729667475,251.94739289630948L625.9441863728894,268.1706727149874L626.6391049020683,257.6315713460725L627.1096523390129,271.58117978484523L627.8894791998013,279.9509448481088L629.213817905079,284.972803886067L630.5892007241066,267.71285004872027L631.2697063117819,277.6299470064339L632.1615741762942,263.3071359209404L633.6585377970036,274.986518529766L634.931708495052,281.99414809506135L635.0182274419011,286.19872583423853L635.0711299578503,288.7214724777448L638.6366191202201,269.96205120372696L639.2763637529836,278.97946769943786L639.5637140308719,243.84377907662116L640.1360606105291,263.3085044231744L643.2211734532095,214.16813185074147L646.5132297052747,245.5031160876466L648.3394608979308,203.48489884942478L650.4009245112323,198.54703776661333L653.3995597048904,195.58432111692647L654.3210794089434,193.80669112711436L654.4026426165935,233.28625165347034L658.2914111660443,216.42784944904065L659.980987850288,226.58587738650454L661.0853330329572,252.9537634091044L661.6209658447152,248.50142576254274L664.1752364235301,245.83002317460569L664.5201558717802,183.40797384147862L664.6336835972637,206.77395202196726L665.3197230937112,180.24740041001718L665.5588375100627,204.8776079630904L667.3301425932632,239.92880175505593L668.0242764637356,260.9595180302353L669.0317369450645,273.5779477953429L670.4612199170143,281.1490056544074L672.0430505715067,305.96470962996773L675.9094356989086,280.30799349506077L676.6873628596707,285.1870330742381L676.9351498196205,227.29524904137972L677.7652774332786,253.37938640202955L678.9758819239396,248.7567995582978L679.6209952741686,245.98324745205878L680.4495948682405,244.31911618831535L680.6973818281903,223.04756816994768L682.230439749399,210.28463935892705L684.1244406756014,243.17302059255798L688.3326479142539,222.35991081249324L691.3873655565139,209.87204494445442L691.9751575233413,242.92546394387435L693.0155323725168,242.48444608340475L695.8241149678935,262.4929046272445L697.8176023585155,274.4979797535484L697.921714179521,281.7010248293307L699.6715856906859,265.74978261467857L702.6726574561168,235.90596802576556L703.1937534328911,258.54581779266107L705.67901534336,251.8566583926767L706.5690248056727,247.84316275268614L707.0715367604507,245.4350653686918L707.2860376721138,264.2632761984168L707.4099311520887,235.0140641760085L709.4183270581344,258.01067548280685L709.909399514928,210.98943448652093L711.2141217525433,243.5958976691143L712.2108035011144,242.88670631854868L712.7067903992804,222.18812224808767L713.5051186864117,230.04204106593266L715.5605528170212,194.20825383639647L716.9405196948078,213.25412001891797L720.6888343357937,244.95470898855254L721.6509085056251,243.70199311021162L726.9146055980101,182.13115580284216L727.501241225691,206.00786119878538L729.1795023054304,220.33388443635133L729.9101021568422,228.9294983788909L730.2309449721504,254.35993600453622L731.8565100250739,208.7989907995586L733.1210907751772,201.7354929366936L735.3588961083096,238.04353273921788L736.127737747207,158.4630103201243L737.0002782288432,110.71469686866818L740.152210955057,183.4310550984026L742.0377871246208,186.514731516L742.3179102828439,208.63800662668012L744.0556402329712,221.91197169308816L745.7417478997756,229.876350732933L753.3121351001593,173.835770376475L754.1731947859845,221.3036992030867L754.2708641460314,209.23831797881053L757.2204375216194,161.4529507240015L759.2771105870286,173.32786889135937L759.5703251563025,200.72588905189573L761.8888677405519,136.07242410773102L768.2829276464008,178.37262218171873L768.7887847251382,224.02581028623297L769.024595315357,210.87158462869823L771.1765011690403,182.7059799740558L773.1571449355715,226.62582496163515L775.9065890431735,232.7046626940612L780.7078330726391,195.80582681327357L782.8766710352523,214.21266380504426L788.2825152469951,225.25676600010664L789.9389297764322,231.88322731714405L792.595825454493,235.85910410736656L793.4778231384341,217.9715609213784L795.754365832972,227.51210426990713L798.2976511898959,253.509499539146L798.9084460461718,248.83486744056768L800.272884941135,246.0300881814207L801.3890000044019,264.6202898860542L801.9800132017085,275.7744109088342L806.4071815173032,282.4668835225022L806.5310749972782,245.9362285704598L807.108542507441,163.19862781886945L808.6413939395164,214.92141366852343L814.6551008618426,124.31666961758599L816.6357033305474,191.5922387477533L819.8448748445093,231.9575802258537L819.8934410886595,256.1767851127139L820.684253171339,209.88910026446518L822.021641989841,242.93569713588082L823.3490367342915,201.9444474783653L825.0481119186667,136.80355916361276L825.4945001270161,158.53823395512615L827.4723356413347,151.30596956991255L829.5916575097845,126.69354167866273L831.5949324853245,132.1991542040345L833.1689991484052,135.50252171925754L834.2759047963272,178.0306807486346L834.6475852362518,163.00143764601765L836.0094223681353,194.53003030469065L836.0945784867047,233.72025516001608L836.5517867256386,216.68825155296813L839.6809230515369,206.46904938873936L842.4399482549236,220.6105973503237L846.1949118460014,168.27631834690945L847.9807537641857,157.14882020498248L851.9162301555871,130.19925205970472L852.4480635672924,134.30258043265965L858.3052104287569,136.76457745643268L858.7374334825627,138.24177567069646L860.9170088801069,98.58195607901142L866.7887338743817,95.05913358412208L869.9417816419151,92.94544008718847L870.3134620818398,132.22336250927157L874.8731964210076,135.51704670239977L876.826418430638,157.7663264783983L880.9507910811742,130.56975582375418L882.802792117665,93.9787441708461L883.7939399574637,112.57027569934452L884.537300837313,103.45212535632193L888.4780633505264,179.07351219099488L890.5901993971379,123.08099799119049L890.9386704584805,150.30469725167276L891.310350898405,186.91198606808376L892.6005363010364,208.87635935793034L895.6988644482476,222.05498333183826L897.4797919250595,189.4160191959398L898.0629585353012,230.65184849476557L898.6111045885365,235.12027681393945L901.0674580203447,237.80133380544373L903.6110737598818,178.59076021998146L905.19703419704,183.61055458894737L909.4222148424491,186.62243121032685L911.9741727429711,228.97569570339786L912.3458531828958,213.8415158789972L913.8879966259693,164.21486946411352L914.3786561044964,154.71195087530495L915.1220169843456,108.46406120177656L920.4997373761341,121.26146591790277L920.623630856109,149.21297800770012L922.9282147749481,186.2569545217002L923.2998952148725,127.39106338961368L924.2910430546714,132.61766723060506L924.4149365346461,135.75362953519988L924.538830014621,56.54292987747024L925.275087668285,130.65492564356222L927.7522965025556,94.02984606273091L928.0000834625051,92.32786757435377L930.328620120806,71.03361122120585L936.438303192286,58.257057409317085L938.172811911934,70.86419438230548L938.9161727917831,78.42847656609852L943.1190526107969,82.96704587637433L947.8552112654489,105.96325672266144L951.349213889873,119.76098323043371L954.577258510618,107.76654987497545L955.1967259104922,100.56988986170049L955.9400867903414,75.97882459361387L958.7079497286329,81.49725469288353L961.7307028530595,105.08138201256696L963.2174246127576,98.95878914425539L963.3413180927324,75.01216416314679L964.0670860984253,101.19032769472493L965.1212957195313,137.17029507379345L966.8863648309064,179.03134476135614L968.3730865906047,143.3287667935289L969.0909667114057,182.72642779319744L971.626446779091,125.27274735251207L972.1132242619123,151.61974686846568L975.0491693547029,126.88180805779463L975.2969563146528,112.03904477139199L976.4119976344264,82.86031753942876L982.5703708435365,126.17228898061579L985.1872076297387,111.61333332508468L987.8859380062045,82.60489067164437L992.2389354251209,146.29210212006677L992.3628289050957,123.68522120875527L995.2823374628765,130.39416192208998L995.5301244228262,174.96566487033408L995.6540179028011,161.16242811903732L999.3125510686319,193.4266245885025L1002.47592329283,172.2390039499383L1003.0953906927042,118.9802930465566L1004.8837930761412,147.84427428489244L1005.6271539559903,104.34345524752904L1009.3069968003767,139.0621716054759L1009.4308902803516,119.34726290000074L1010.3823096109052,148.06445619695893L1010.8778835308048,145.0217029150122L1011.6212444106538,102.6499124256009L1013.6676343172252,97.49990739207578L1018.7795205988144,114.68297363208231L1020.2187911556823,145.26588263620783L1021.5231004150309,82.52335099819666L1022.760754982153,105.69703979575483L1022.8846484621279,139.87432233441137L1023.496145381457,180.6537611177269L1023.8987165957221,184.84835512759463L1024.3725678587991,167.09204227339367L1026.4033884847204,156.438254560873L1027.119988372895,150.04598193336068L1027.6155622927943,125.9375490967316L1027.863349252744,111.4724893947542L1030.8006984716412,102.79345357356773L1032.6338264013493,138.13217060109912L1033.5731867665186,98.51619303725307L1033.6970802464934,135.56581427931033L1035.6545559322694,178.0686562846663L1036.026236372194,203.57036148787986L1039.9896300944163,198.59831534968637L1040.1135235743911,155.06894914652705L1040.237417054366,149.22439868475308L1043.1766246754628,125.44459914756706L1045.0126847508634,111.1767194252554L1051.1707275773604,102.6159915918685L1052.5242225482589,158.29876267220115L1060.1994236327012,130.88921754003593L1065.4138111200562,175.26269824110165L1065.9093850399556,80.24837110101136L1068.3484759802207,63.7859133372004L1071.315064060392,94.45457719915707L1071.5628510203417,92.58270625620942L1073.629187777189,71.18651443031924L1078.0673826125014,78.62186859490676L1079.5541043721998,123.62921961390252L1081.6236623595264,170.9066994854216L1082.2431297594007,118.18091036784654L1082.4909167193505,147.36464467766638L1083.6615449138062,83.78260822307178L1085.8491733875487,65.90645561043667L1087.7478409681635,55.18076404285561L1088.597254666871,89.2914876225502L1090.5993733032649,109.75792177036695L1091.3427341831139,101.7647129989354L1092.2099885429377,96.96878773607645L1097.9562920376516,134.63737109860435L1098.575759437526,116.69238259587783L1100.5580551171236,126.19845875436353L1101.3014159969728,131.90210444945495L1102.4010119295763,196.1434996468747L1103.2912691788488,194.14219824508328L1104.5302039785975,172.66834814388685L1105.3925851948757,159.78403808316892L1106.7064342521824,111.50731352649494L1106.8303277321572,102.81434805261219L1106.954221212132,138.14470728852578L1108.5298571926257,98.52371504970903L1110.7016273009315,95.02418896654065L1113.1505058261143,133.47061183688282L1114.4908680881358,136.26539629896655L1120.293790903198,178.48840549646002L1121.7343003948656,163.27607249471285L1123.0971286745892,93.32946491329969L1127.112764147534,51.36150036445176L1131.0472906889222,107.27299867562955L1134.7968029668812,59.72762062184966L1139.4053513371591,92.01960156994667L1142.3787948565557,50.575582358439945L1143.4883022675574,86.5283786119008L1144.222040753795,168.91926414434218L1146.0804429534178,116.98844916319891L1148.257251396576,146.6491679548778L1149.991760116224,164.44559922988515L1150.3634405561486,134.57731947464634L1152.6664551575745,197.7486286619895L1154.8663490858346,174.83220639403052L1155.8197507120678,161.0823530332552L1164.5213266824485,132.5593717566683L1168.5958115583815,176.2647907710811L1169.5734137110364,161.9419036594855L1170.3167745908856,112.80203287228491L1173.1891623284491,123.86424892020777L1173.3130558084242,130.50157854896148L1174.0905699909197,154.7570455863354L1177.6924838364018,169.3103258087597L1178.4872605104406,137.496155421971L1181.0275311260184,118.40765318989784L1182.5142528857168,66.40841333041067L1184.503982174113,156.8472849754481L1184.9995560940124,130.01833092198407L1191.9944993777394,93.64788922978403L1193.511740231338,92.09869347458566L1194.7506750310865,111.44224528158819L1195.246248950986,143.32144562591145L1195.927497899541,162.44896583250534L1198.2807306581835,133.37933943621843L1201.036865013704,115.93756359844626L1202.561828560888,24.38022105529644L1209.9282870932327,70.81116183001471L1211.9105827728304,98.66972629484567L1212.6539436526796,74.83872645350101L1213.149517572579,101.08626506893746L1213.3973045325288,137.10785749832095L1213.5010859709212,158.72081295595106L1214.736097477137,90.59630919004259L1216.7359034352378,110.54081471086239" style="fill: none;" fill="none"></path></g></g></g></g><g opacity="0.2"><g><g><g><path style="fill: none;" stroke="rgb(255, 112, 67)" stroke-width="2px" d="M331.7262864004027,292.5055924430043L332.3143674520167,292.5055924430043L332.38816666825505,292.5055924430043L332.65358780018784,292.5055924430043L333.02146884005987,292.5055924430043L333.59497175886344,292.5055924430043L335.0442776876093,241.82291929270022L335.11592941686143,292.5055924430043L335.37594053350205,292.5055924430043L336.84659743863017,292.5055924430043L336.9819304165894,241.82291929270022L337.49798805851134,292.5055924430043L337.8188721716462,241.82291929270022L337.9589131018444,292.5055924430043L338.7760731979319,292.5055924430043L338.8309580095608,292.5055924430043L339.00919942941795,292.5055924430043L339.7550381788666,292.5055924430043L340.2145177982667,292.5055924430043L341.57003636267154,292.5055924430043L341.6150509937291,495.2362850442206L342.09323852860535,292.5055924430043L342.59091863766434,292.5055924430043L342.9394722946603,292.5055924430043L344.42933268918455,292.5055924430043L345.15832192535663,292.5055924430043L345.5790641833512,292.5055924430043L345.75069795094305,292.5055924430043L345.77626130564454,241.82291929270022L346.65070148730706,292.5055924430043L346.99178023767786,292.5055924430043L347.1701042531883,292.5055924430043L347.29032222659055,292.5055924430043L347.3473545252057,292.5055924430043L347.6326399117611,241.82291929270022L347.84656265385104,292.5055924430043L348.9087840533288,292.5055924430043L349.1358808021227,241.82291929270022L349.32469446560435,292.5055924430043L350.0265510296619,292.5055924430043L350.274048904825,292.5055924430043L350.4008745304926,292.5055924430043L350.45051451813583,292.5055924430043L350.80712125133016,292.5055924430043L350.8603541498927,292.5055924430043L351.0452032220152,292.5055924430043L351.23294314200376,292.5055924430043L351.36621122863,292.5055924430043L352.13038621311495,292.5055924430043L354.91357064509674,292.5055924430043L355.3184958354812,292.5055924430043L355.5307253666781,241.82291929270022L355.5585601018458,292.5055924430043L355.713592143121,292.5055924430043L355.8445062536278,292.5055924430043L356.28891216629756,292.5055924430043L356.36931903480126,292.5055924430043L356.5936488292091,292.5055924430043L357.84096708776923,292.5055924430043L357.91195805179484,292.5055924430043L358.06699009307005,292.5055924430043L358.2273908518108,292.5055924430043L358.635619868328,241.82291929270022L358.7787581355256,292.5055924430043L358.90347757203364,292.5055924430043L360.1501350653673,292.5055924430043L360.26940318875637,292.5055924430043L360.295916393471,292.5055924430043L360.762664430363,292.5055924430043L361.0753715738195,292.5055924430043L362.358908026359,292.5055924430043L362.73405748372284,292.5055924430043L363.2391299037537,292.5055924430043L364.12381194642745,241.82291929270022L364.23106240225906,292.5055924430043L364.55533293717986,292.5055924430043L364.6482943449877,292.5055924430043L365.8179313916037,292.5055924430043L365.9853527808763,292.5055924430043L366.52230712308733,292.5055924430043L366.82101430330675,292.5055924430043L367.04864792384717,292.5055924430043L367.7655368968083,292.5055924430043L368.0263326721554,292.5055924430043L368.240296712072,292.5055924430043L368.3838892553628,292.5055924430043L369.163385733538,292.5055924430043L369.94502969869933,292.5055924430043L370.3499548890838,292.5055924430043L370.7387739270715,292.5055924430043L370.83594771319855,241.82291929270022L371.2363714404772,292.5055924430043L372.132658172442,292.5055924430043L373.17224836291103,292.5055924430043L373.38233040712174,292.5055924430043L373.53690817230364,191.14024614239617L373.6546482761064,292.5055924430043L373.84164483521516,292.5055924430043L374.04689503370685,292.5055924430043L374.3964811363692,292.5055924430043L374.45611519806374,292.5055924430043L374.5349114513278,292.5055924430043L374.7592412457356,292.5055924430043L375.668867175711,292.5055924430043L376.3152194607398,292.5055924430043L376.8440381310992,292.5055924430043L377.3020310287395,292.5055924430043L377.52289180570807,292.5055924430043L377.8542242689875,241.82291929270022L377.9184836872678,292.5055924430043L378.1338518532907,292.5055924430043L379.1399082085132,292.5055924430043L379.541405679285,292.5055924430043L379.79266165667406,292.5055924430043L379.863115748953,292.5055924430043L380.39771611504455,241.82291929270022L380.801319774976,292.5055924430043L381.2719911054005,292.5055924430043L381.58977788153595,292.5055924430043L382.00031957634593,292.5055924430043L382.14647258488964,292.5055924430043L383.10305414377547,292.5055924430043L383.17202151429484,292.5055924430043L383.20187984296876,241.82291929270022L383.4037849175011,241.82291929270022L383.50091740580143,292.5055924430043L383.69505848892203,292.5055924430043L385.1082701171685,292.5055924430043L385.2687534715626,241.82291929270022L385.51509500757925,292.5055924430043L386.03899923656627,292.5055924430043L386.1498839011438,292.5055924430043L386.34340551686455,292.5055924430043L386.54279142397075,292.5055924430043L386.6393870405244,292.5055924430043L387.15432964112665,292.5055924430043L387.3231551565056,241.82291929270022L387.35231142212643,241.82291929270022L387.4800455999805,292.5055924430043L387.85267588991815,292.5055924430043L387.981772896052,292.5055924430043L388.43918762411914,292.5055924430043L388.85728682120765,292.5055924430043L389.14273739906974,292.5055924430043L389.4500758250607,292.5055924430043L390.1015490405951,292.5055924430043L390.32662219588275,292.5055924430043L391.1565846182343,292.5055924430043L391.1842128642687,292.5055924430043L391.24079088679053,241.82291929270022L392.3384871193678,292.5055924430043L392.54344823307287,292.5055924430043L392.76757153834734,292.5055924430043L392.82955957616144,292.5055924430043L392.977901369518,292.5055924430043L393.56941014074465,292.5055924430043L393.59571685632596,292.5055924430043L393.8772854384821,241.82291929270022L393.92527351305904,292.5055924430043L394.0507363104469,292.5055924430043L394.38078854109995,292.5055924430043L394.51513037121936,292.5055924430043L394.7295486872292,292.5055924430043L395.09049169222254,241.82291929270022L395.2677832620666,292.5055924430043L396.5889007368651,241.82291929270022L397.03425649954806,292.5055924430043L398.5804471296343,292.5055924430043L398.6928598137981,292.5055924430043L399.00606253117456,292.5055924430043L399.8778183541043,292.5055924430043L400.2483837527091,292.5055924430043L401.13054662795673,292.5055924430043L403.1999394239767,292.5055924430043L403.67461664358706,292.5055924430043L403.8399731415268,292.5055924430043L404.42285066698184,292.5055924430043L405.6971364063499,241.82291929270022L405.9010650743885,292.5055924430043L406.8298118981067,292.5055924430043L407.27636529776277,191.14024614239617L407.36176920329206,292.5055924430043L407.5457097232281,292.5055924430043L407.63726700492947,292.5055924430043L408.396651441522,292.5055924430043L409.20133959395866,292.5055924430043L410.63714113338733,292.5055924430043L410.7827572701844,292.5055924430043L411.16765301463965,292.5055924430043L411.5909970357137,292.5055924430043L411.61610611432195,292.5055924430043L412.491083167731,292.5055924430043L412.74812084085215,292.5055924430043L412.82233303535713,292.5055924430043L412.8663152207482,241.82291929270022L412.9163681866581,292.5055924430043L412.93767786521374,292.5055924430043L413.5828738110961,292.5055924430043L414.425721155365,292.5055924430043L415.51362980302423,292.5055924430043L416.33165715347155,292.5055924430043L417.0446228329002,292.5055924430043L417.18763720661786,292.5055924430043L417.72678033364167,292.5055924430043L418.1884074400281,292.5055924430043L418.5960995847986,241.82291929270022L418.99565605771755,292.5055924430043L419.67884600412555,292.5055924430043L419.7769696402656,292.5055924430043L420.441864649464,292.5055924430043L421.5251479405375,292.5055924430043L422.06268045232173,292.5055924430043L422.53285620882633,292.5055924430043L422.5752277789777,292.5055924430043L422.6372984124451,292.5055924430043L422.78774639496123,292.5055924430043L423.4981929069637,292.5055924430043L423.83600912902847,292.5055924430043L425.29596989705215,292.5055924430043L425.3882705396335,292.5055924430043L425.68801016551924,292.5055924430043L426.47589010250607,241.82291929270022L426.64929967664415,292.5055924430043L427.0025199880525,292.5055924430043L427.14243702477074,292.5055924430043L427.55050084998123,292.5055924430043L427.69231758672584,292.5055924430043L427.7507540114473,292.5055924430043L428.00783298239514,292.5055924430043L428.86385433336807,292.5055924430043L429.14942880471006,292.5055924430043L430.4110361112941,292.5055924430043L430.68678169989136,292.5055924430043L431.12065666676335,241.82291929270022L431.866619309692,292.5055924430043L432.831997305656,292.5055924430043L433.14999057092484,292.5055924430043L433.2190818349241,292.5055924430043L434.6984938793039,292.5055924430043L434.8098328199746,292.5055924430043L435.0938792717303,292.5055924430043L437.0022931394363,292.5055924430043L437.29459915652365,241.82291929270022L437.3268114613171,292.5055924430043L437.37236296412124,292.5055924430043L437.49435674406976,292.5055924430043L437.51525344435885,292.5055924430043L438.1655290229203,292.5055924430043L438.29441953992074,292.5055924430043L438.37280281491815,241.82291929270022L438.5876754070212,292.5055924430043L439.0952256966515,292.5055924430043L439.1777387543148,292.5055924430043L439.2061516590557,292.5055924430043L439.6254071952906,292.5055924430043L440.21662688173063,292.5055924430043L440.57645484540427,292.5055924430043L440.6230800917014,292.5055924430043L441.98338920399874,241.82291929270022L442.6165261844968,241.82291929270022L442.79344607390095,292.5055924430043L442.919734827822,292.5055924430043L443.5787242478083,292.5055924430043L443.65574469452594,292.5055924430043L445.1801300721366,292.5055924430043L445.5830729668414,241.82291929270022L446.0995435870299,292.5055924430043L446.1729298250017,292.5055924430043L447.3431037433643,241.82291929270022L447.4146315791364,292.5055924430043L447.85379266782064,292.5055924430043L448.6780559900933,241.82291929270022L449.40068536096004,292.5055924430043L449.6081243442646,292.5055924430043L449.70488515212486,191.14024614239617L449.89601149389944,292.5055924430043L450.1613913280056,292.5055924430043L450.7941979258905,292.5055924430043L450.92354271898427,292.5055924430043L451.3597716619757,292.5055924430043L451.77018946330577,241.82291929270022L451.97771104226365,292.5055924430043L452.2046838975776,241.82291929270022L452.72565598087186,292.5055924430043L452.7511780377466,292.5055924430043L453.1019204795555,292.5055924430043L453.1541209324515,292.5055924430043L454.06849611249265,292.5055924430043L454.41287868899605,292.5055924430043L454.8704999061965,292.5055924430043L455.4574659164908,292.5055924430043L455.9721194323063,292.5055924430043L457.175620696782,292.5055924430043L457.4093250978412,292.5055924430043L457.49770244689,292.5055924430043L458.9062061228974,292.5055924430043L459.39281841441203,292.5055924430043L459.44188023248205,292.5055924430043L459.47198634811593,292.5055924430043L460.84931016499644,292.5055924430043L461.3815152571417,292.5055924430043L461.58730232738,292.5055924430043L462.39046246023025,241.82291929270022L462.79245550492203,292.5055924430043L463.28365185519567,292.5055924430043L463.5066601191504,292.5055924430043L464.303625578002,292.5055924430043L465.6738048708706,292.5055924430043L466.45045179900626,292.5055924430043L466.7317725942025,292.5055924430043L467.1689926850338,292.5055924430043L467.5248147595215,292.5055924430043L468.0353797904979,292.5055924430043L469.1336128948217,292.5055924430043L469.6928267656015,292.5055924430043L469.84249008941117,292.5055924430043L471.1153304048462,292.5055924430043L471.60768309426624,292.5055924430043L471.67016670600026,292.5055924430043L472.4899285651672,292.5055924430043L473.0733842601955,241.82291929270022L473.3495015292328,292.5055924430043L473.3969114342365,292.5055924430043L473.54735941675256,292.5055924430043L474.4922123928675,292.5055924430043L475.17441119143575,292.5055924430043L475.23107180961085,241.82291929270022L475.32304206957883,241.82291929270022L475.71099385320684,292.5055924430043L476.8105484879836,241.82291929270022L476.88393472595544,292.5055924430043L478.2655122189817,292.5055924430043L478.35339399411055,292.5055924430043L478.6047738649795,292.5055924430043L479.12541556566055,241.82291929270022L479.1452798202831,292.5055924430043L479.62722545738535,292.5055924430043L479.69829901706424,292.5055924430043L480.65492187377674,292.5055924430043L480.70476835055325,292.5055924430043L480.873882950719,292.5055924430043L481.8343052074841,292.5055924430043L482.4973418144828,292.5055924430043L483.1072281185723,292.5055924430043L483.2278590702412,292.5055924430043L483.39259610078113,292.5055924430043L484.11555585426106,292.5055924430043L484.62752501134383,292.5055924430043L484.7628992871297,241.82291929270022L485.1712521971268,292.5055924430043L485.3082370881523,292.5055924430043L486.39697169234466,292.5055924430043L487.04253931866697,292.5055924430043L487.09081647803055,292.5055924430043L487.4934289901222,292.5055924430043L487.54187134079234,292.5055924430043L487.6746851513254,241.82291929270022L487.71833695410317,292.5055924430043L488.2082530717504,292.5055924430043L489.0717906271751,241.82291929270022L489.59007835173657,292.5055924430043L489.90485038652605,292.5055924430043L489.9572160307288,292.5055924430043L490.09502687828746,292.5055924430043L490.43478409820517,292.5055924430043L490.91701882009403,292.5055924430043L491.8735177833265,292.5055924430043L492.4250502583479,292.5055924430043L492.5571207080011,292.5055924430043L493.18435209928714,292.5055924430043L493.4409354963151,292.5055924430043L493.71792001971215,241.82291929270022L493.92647404433654,292.5055924430043L494.1077715033664,292.5055924430043L494.7178229987626,292.5055924430043L496.1393767879941,292.5055924430043L497.0364068808387,292.5055924430043L497.0688669725921,241.82291929270022L497.1688077131051,191.14024614239617L497.6460866957949,292.5055924430043L497.68209840064094,241.82291929270022L497.70848771187565,292.5055924430043L497.9253838974849,292.5055924430043L499.0437290433913,292.5055924430043L499.237250659112,292.5055924430043L499.32327403204124,292.5055924430043L499.8052196691434,292.5055924430043L501.2948735745344,292.5055924430043L501.5189142841556,292.5055924430043L501.5615336412669,292.5055924430043L501.6571794078076,292.5055924430043L501.8300521101991,292.5055924430043L501.9051315590639,292.5055924430043L502.0841576376275,292.5055924430043L502.31269981035445,241.82291929270022L502.3985166941504,292.5055924430043L502.72191997471145,292.5055924430043L503.44343430425835,292.5055924430043L503.55113903618314,292.5055924430043L503.8267194334739,292.5055924430043L504.12522012456,241.82291929270022L505.88285562713656,292.5055924430043L506.2566422562207,292.5055924430043L506.4500812762881,292.5055924430043L506.86012739717825,241.82291929270022L506.88172616052054,292.5055924430043L507.63107522523507,292.5055924430043L508.00676155434553,292.5055924430043L508.6791727679957,292.5055924430043L509.4432238590006,241.82291929270022L509.5170643730657,292.5055924430043L510.21966429800307,241.82291929270022L510.6938872415201,292.5055924430043L510.79969227341866,292.5055924430043L511.4309295538906,292.5055924430043L512.7242535913481,292.5055924430043L513.1367775818377,241.82291929270022L513.3351310432773,292.5055924430043L513.3602401218857,292.5055924430043L513.9256899644909,292.5055924430043L514.4116827886056,292.5055924430043L515.4761342707229,292.5055924430043L516.0012774345097,292.5055924430043L516.7391457034132,292.5055924430043L518.1234901508255,241.82291929270022L518.4077017938879,292.5055924430043L518.850868771758,292.5055924430043L519.1098474427321,292.5055924430043L519.1392514953127,292.5055924430043L519.5864656601954,292.5055924430043L520.1747532009426,292.5055924430043L520.6439378096075,292.5055924430043L521.4057588179728,292.5055924430043L521.6400826864319,292.5055924430043L521.713675413537,292.5055924430043L521.9086424531906,292.5055924430043L522.1459397651693,241.82291929270022L522.2306003098187,292.5055924430043L522.3823698227878,292.5055924430043L522.6657142114904,292.5055924430043L523.4857238576172,292.5055924430043L523.9446253074441,292.5055924430043L524.3764353829832,292.5055924430043L525.931257258841,292.5055924430043L526.8066472905167,292.5055924430043L527.2206167049393,292.5055924430043L527.4985510783496,191.14024614239617L527.6312822932292,292.5055924430043L527.931145812595,292.5055924430043L528.0954698648684,241.82291929270022L528.2855637609765,292.5055924430043L528.7687483328784,292.5055924430043L528.8919810476267,292.5055924430043L529.0140987210552,292.5055924430043L529.4833659253734,292.5055924430043L529.7582855574376,292.5055924430043L529.8353473019819,292.5055924430043L530.3450863764251,292.5055924430043L530.5401360117322,292.5055924430043L530.8159228981563,241.82291929270022L531.7459086566741,241.82291929270022L531.8797549128736,292.5055924430043L533.509078068023,292.5055924430043L533.5311311074585,292.5055924430043L534.4051996086812,292.5055924430043L535.5135919783628,292.5055924430043L535.7270191465328,292.5055924430043L535.9247531405728,292.5055924430043L535.9540332996735,292.5055924430043L536.8726621558603,292.5055924430043L537.1595994554822,140.4575729920921L537.471769727192,292.5055924430043L537.9610250796128,241.82291929270022L539.4208619541565,292.5055924430043L540.057220165134,241.82291929270022L540.8534835609324,292.5055924430043L540.9403741882214,292.5055924430043L541.2933880104964,292.5055924430043L541.7521655668434,292.5055924430043L541.9155810669301,241.82291929270022L543.1199082879391,292.5055924430043L543.5152936803655,292.5055924430043L543.8111513105455,292.5055924430043L544.0720296815458,292.5055924430043L544.3012739173261,292.5055924430043L544.8013493003311,292.5055924430043L544.8657326120914,292.5055924430043L544.9570421068329,292.5055924430043L545.0143634902346,241.82291929270022L545.1593188618052,292.5055924430043L545.6830166016589,292.5055924430043L545.7624323223228,241.82291929270022L545.8957417067758,292.5055924430043L546.0988031204545,292.5055924430043L548.0736651912537,241.82291929270022L548.6626960928808,292.5055924430043L548.7088670630848,292.5055924430043L548.7565660528751,292.5055924430043L549.1633083476326,292.5055924430043L549.2546178423739,292.5055924430043L549.4845228433807,292.5055924430043L549.5105404741754,292.5055924430043L549.6637967089043,191.14024614239617L549.7997904520901,292.5055924430043L550.1974885228093,241.82291929270022L551.0075453927116,292.5055924430043L551.3184767296218,292.5055924430043L551.5051842039438,292.5055924430043L551.6555908886334,241.82291929270022L552.0322270677569,292.5055924430043L552.2708459101884,292.5055924430043L552.9751390460189,292.5055924430043L553.1478052592772,292.5055924430043L553.1643243899405,292.5055924430043L553.4020346801856,241.82291929270022L554.4054892723286,292.5055924430043L554.624904625364,292.5055924430043L554.6547216562113,292.5055924430043L554.7741549709071,292.5055924430043L555.6237338609213,241.82291929270022L556.7872175313652,292.5055924430043L556.9023558720885,292.5055924430043L557.4684664799203,292.5055924430043L557.9368251320519,241.82291929270022L558.0092202221839,292.5055924430043L558.5525757275269,292.5055924430043L558.8357549249228,292.5055924430043L559.4830570599647,292.5055924430043L559.6593161841423,292.5055924430043L560.1130554056368,292.5055924430043L560.1678163237857,292.5055924430043L560.2473559379296,292.5055924430043L560.8125992914015,292.5055924430043L560.8619088964316,241.82291929270022L560.9693658413964,292.5055924430043L561.2422205821277,292.5055924430043L561.5469159472126,241.82291929270022L562.0411683366589,292.5055924430043L562.5456625871165,292.5055924430043L562.7021400523248,292.5055924430043L562.9798679366017,292.5055924430043L563.4369935798823,292.5055924430043L563.4697427564223,292.5055924430043L564.1522719376038,292.5055924430043L564.3585132839352,292.5055924430043L564.9661282075585,292.5055924430043L565.5876192009391,292.5055924430043L566.0397065093673,292.5055924430043L566.9549489437683,241.82291929270022L567.1392611441443,241.82291929270022L568.5679594573876,292.5055924430043L568.6181363167774,241.82291929270022L568.908831718625,241.82291929270022L569.1004123364928,241.82291929270022L569.8315490596511,292.5055924430043L570.386054978192,241.82291929270022L570.67464419088,241.82291929270022L571.103315631593,292.5055924430043L571.1693095585929,292.5055924430043L571.3401586674782,292.5055924430043L572.1924632140519,292.5055924430043L572.6395947832813,292.5055924430043L572.7750103568936,292.5055924430043L573.8896799962275,292.5055924430043L573.9866472932212,292.5055924430043L574.5132771787676,292.5055924430043L574.7029993944358,292.5055924430043L575.4010565584407,241.82291929270022L575.5695516912065,292.5055924430043L577.2364558686149,292.5055924430043L577.4962191982955,292.5055924430043L577.7086139207992,292.5055924430043L577.955533626389,241.82291929270022L578.0382531731855,292.5055924430043L578.6222044421337,292.5055924430043L578.9135606092079,292.5055924430043L579.225937370051,292.5055924430043L579.5558244093976,292.5055924430043L579.5853523554582,292.5055924430043L579.6693521348811,241.82291929270022L580.3197929047491,292.5055924430043L580.476559454744,292.5055924430043L581.0905342436728,292.5055924430043L581.3681795322964,292.5055924430043L581.6063853964613,241.82291929270022L583.178139381249,191.14024614239617L583.462144535178,292.5055924430043L583.7119137908073,292.5055924430043L584.6086547988654,292.5055924430043L585.4122692078089,241.82291929270022L585.5078323786962,292.5055924430043L586.5267323580094,292.5055924430043L587.1929488976608,292.5055924430043L588.9837052572174,292.5055924430043L590.1466107580881,292.5055924430043L591.0962129842686,292.5055924430043L591.2286138165351,292.5055924430043L591.2528969386102,292.5055924430043L591.2970030174812,292.5055924430043L591.6729371335516,292.5055924430043L592.0477562083022,241.82291929270022L592.703772184769,292.5055924430043L592.8886625547182,292.5055924430043L593.3335227434812,292.5055924430043L593.5056933828197,292.5055924430043L593.7510850688232,292.5055924430043L594.3921925298664,292.5055924430043L594.9292707655574,292.5055924430043L595.4988916886551,292.5055924430043L596.4211960514147,292.5055924430043L596.6339211565314,292.5055924430043L596.9569527566525,292.5055924430043L597.5023731533284,292.5055924430043L597.6958121733959,292.5055924430043L597.8672394518544,191.14024614239617L599.1561446218595,292.5055924430043L600.2371565324668,292.5055924430043L601.0488653154354,292.5055924430043L601.1146940511287,292.5055924430043L601.1642514431186,292.5055924430043L601.2336730897312,292.5055924430043L601.6960022591707,292.5055924430043L601.8748218486011,292.5055924430043L602.0352226073419,241.82291929270022L602.900535969313,241.82291929270022L603.3633607126723,292.5055924430043L603.6812713822877,292.5055924430043L603.9916658474515,191.14024614239617L604.1061434229482,241.82291929270022L604.1298070776234,292.5055924430043L605.0367899466926,292.5055924430043L605.3700221099984,241.82291929270022L606.1342796901366,292.5055924430043L606.1798724907673,292.5055924430043L606.5603906655967,292.5055924430043L607.6622166808398,292.5055924430043L607.935443102011,292.5055924430043L608.5307512732902,292.5055924430043L608.7348451326354,292.5055924430043L609.0391688172804,292.5055924430043L609.3194984646368,292.5055924430043L609.5854564683161,241.82291929270022L610.1768826438895,292.5055924430043L611.3890151541367,292.5055924430043L611.7205541065495,241.82291929270022L612.9805095000671,292.5055924430043L613.3073405002408,292.5055924430043L613.3431870137802,292.5055924430043L613.5166791835716,292.5055924430043L614.1448604248708,292.5055924430043L614.5104287864499,241.82291929270022L615.8653691812816,292.5055924430043L615.9180652080976,292.5055924430043L616.3716805361122,241.82291929270022L616.635284563672,292.5055924430043L617.0955901396052,292.5055924430043L617.453353211946,241.82291929270022L617.90957030304,292.5055924430043L619.6439138313814,292.5055924430043L619.7748279418881,292.5055924430043L620.196148369456,292.5055924430043L621.3316321134255,292.5055924430043L621.5330003162113,292.5055924430043L621.9015834191365,292.5055924430043L622.4750450401135,292.5055924430043L622.8210382318566,292.5055924430043L622.9305187703277,292.5055924430043L624.4863317940253,292.5055924430043L624.8326553683817,292.5055924430043L625.0707373390666,292.5055924430043L625.1477164879577,292.5055924430043L625.6573729667475,191.14024614239617L625.9441863728894,292.5055924430043L626.6391049020683,241.82291929270022L627.1096523390129,292.5055924430043L627.8894791998013,292.5055924430043L629.213817905079,292.5055924430043L630.5892007241066,241.82291929270022L631.2697063117819,292.5055924430043L632.1615741762942,241.82291929270022L633.6585377970036,292.5055924430043L634.931708495052,292.5055924430043L635.0182274419011,292.5055924430043L635.0711299578503,292.5055924430043L638.6366191202201,241.82291929270022L639.2763637529836,292.5055924430043L639.5637140308719,191.14024614239617L640.1360606105291,292.5055924430043L643.2211734532095,140.4575729920921L646.5132297052747,292.5055924430043L648.3394608979308,140.4575729920921L650.4009245112323,191.14024614239617L653.3995597048904,191.14024614239617L654.3210794089434,191.14024614239617L654.4026426165935,292.5055924430043L658.2914111660443,191.14024614239617L659.980987850288,241.82291929270022L661.0853330329572,292.5055924430043L661.6209658447152,241.82291929270022L664.1752364235301,241.82291929270022L664.5201558717802,89.77489984178801L664.6336835972637,241.82291929270022L665.3197230937112,140.4575729920921L665.5588375100627,241.82291929270022L667.3301425932632,292.5055924430043L668.0242764637356,292.5055924430043L669.0317369450645,292.5055924430043L670.4612199170143,292.5055924430043L672.0430505715067,343.18826559330836L675.9094356989086,241.82291929270022L676.6873628596707,292.5055924430043L676.9351498196205,140.4575729920921L677.7652774332786,292.5055924430043L678.9758819239396,241.82291929270022L679.6209952741686,241.82291929270022L680.4495948682405,241.82291929270022L680.6973818281903,191.14024614239617L682.230439749399,191.14024614239617L684.1244406756014,292.5055924430043L688.3326479142539,191.14024614239617L691.3873655565139,191.14024614239617L691.9751575233413,292.5055924430043L693.0155323725168,241.82291929270022L695.8241149678935,292.5055924430043L697.8176023585155,292.5055924430043L697.921714179521,292.5055924430043L699.6715856906859,241.82291929270022L702.6726574561168,191.14024614239617L703.1937534328911,292.5055924430043L705.67901534336,241.82291929270022L706.5690248056727,241.82291929270022L707.0715367604507,241.82291929270022L707.2860376721138,292.5055924430043L707.4099311520887,191.14024614239617L709.4183270581344,292.5055924430043L709.909399514928,140.4575729920921L711.2141217525433,292.5055924430043L712.2108035011144,241.82291929270022L712.7067903992804,191.14024614239617L713.5051186864117,241.82291929270022L715.5605528170212,140.4575729920921L716.9405196948078,241.82291929270022L720.6888343357937,292.5055924430043L721.6509085056251,241.82291929270022L726.9146055980101,89.77489984178801L727.501241225691,241.82291929270022L729.1795023054304,241.82291929270022L729.9101021568422,241.82291929270022L730.2309449721504,292.5055924430043L731.8565100250739,140.4575729920921L733.1210907751772,191.14024614239617L735.3588961083096,292.5055924430043L736.127737747207,39.09222669148398L737.0002782288432,39.09222669148398L740.152210955057,292.5055924430043L742.0377871246208,191.14024614239617L742.3179102828439,241.82291929270022L744.0556402329712,241.82291929270022L745.7417478997756,241.82291929270022L753.3121351001593,89.77489984178801L754.1731947859845,292.5055924430043L754.2708641460314,191.14024614239617L757.2204375216194,89.77489984178801L759.2771105870286,191.14024614239617L759.5703251563025,241.82291929270022L761.8888677405519,39.09222669148398L768.2829276464008,241.82291929270022L768.7887847251382,292.5055924430043L769.024595315357,191.14024614239617L771.1765011690403,140.4575729920921L773.1571449355715,292.5055924430043L775.9065890431735,241.82291929270022L780.7078330726391,140.4575729920921L782.8766710352523,241.82291929270022L788.2825152469951,241.82291929270022L789.9389297764322,241.82291929270022L792.595825454493,241.82291929270022L793.4778231384341,191.14024614239617L795.754365832972,241.82291929270022L798.2976511898959,292.5055924430043L798.9084460461718,241.82291929270022L800.272884941135,241.82291929270022L801.3890000044019,292.5055924430043L801.9800132017085,292.5055924430043L806.4071815173032,292.5055924430043L806.5310749972782,191.14024614239617L807.108542507441,39.09222669148398L808.6413939395164,292.5055924430043L814.6551008618426,-11.590446458820065L816.6357033305474,292.5055924430043L819.8448748445093,292.5055924430043L819.8934410886595,292.5055924430043L820.684253171339,140.4575729920921L822.021641989841,292.5055924430043L823.3490367342915,140.4575729920921L825.0481119186667,39.09222669148398L825.4945001270161,191.14024614239617L827.4723356413347,140.4575729920921L829.5916575097845,89.77489984178801L831.5949324853245,140.4575729920921L833.1689991484052,140.4575729920921L834.2759047963272,241.82291929270022L834.6475852362518,140.4575729920921L836.0094223681353,241.82291929270022L836.0945784867047,292.5055924430043L836.5517867256386,191.14024614239617L839.6809230515369,191.14024614239617L842.4399482549236,241.82291929270022L846.1949118460014,89.77489984178801L847.9807537641857,140.4575729920921L851.9162301555871,89.77489984178801L852.4480635672924,140.4575729920921L858.3052104287569,140.4575729920921L858.7374334825627,140.4575729920921L860.9170088801069,39.09222669148398L866.7887338743817,89.77489984178801L869.9417816419151,89.77489984178801L870.3134620818398,191.14024614239617L874.8731964210076,140.4575729920921L876.826418430638,191.14024614239617L880.9507910811742,89.77489984178801L882.802792117665,39.09222669148398L883.7939399574637,140.4575729920921L884.537300837313,89.77489984178801L888.4780633505264,292.5055924430043L890.5901993971379,39.09222669148398L890.9386704584805,191.14024614239617L891.310350898405,241.82291929270022L892.6005363010364,241.82291929270022L895.6988644482476,241.82291929270022L897.4797919250595,140.4575729920921L898.0629585353012,292.5055924430043L898.6111045885365,241.82291929270022L901.0674580203447,241.82291929270022L903.6110737598818,89.77489984178801L905.19703419704,191.14024614239617L909.4222148424491,191.14024614239617L911.9741727429711,292.5055924430043L912.3458531828958,191.14024614239617L913.8879966259693,89.77489984178801L914.3786561044964,140.4575729920921L915.1220169843456,39.09222669148398L920.4997373761341,140.4575729920921L920.623630856109,191.14024614239617L922.9282147749481,241.82291929270022L923.2998952148725,39.09222669148398L924.2910430546714,140.4575729920921L924.4149365346461,140.4575729920921L924.538830014621,-62.273119609124144L925.275087668285,241.82291929270022L927.7522965025556,39.09222669148398L928.0000834625051,89.77489984178801L930.328620120806,39.09222669148398L936.438303192286,39.09222669148398L938.172811911934,89.77489984178801L938.9161727917831,89.77489984178801L943.1190526107969,89.77489984178801L947.8552112654489,140.4575729920921L951.349213889873,140.4575729920921L954.577258510618,89.77489984178801L955.1967259104922,89.77489984178801L955.9400867903414,39.09222669148398L958.7079497286329,89.77489984178801L961.7307028530595,140.4575729920921L963.2174246127576,89.77489984178801L963.3413180927324,39.09222669148398L964.0670860984253,140.4575729920921L965.1212957195313,191.14024614239617L966.8863648309064,241.82291929270022L968.3730865906047,89.77489984178801L969.0909667114057,241.82291929270022L971.626446779091,39.09222669148398L972.1132242619123,191.14024614239617L975.0491693547029,89.77489984178801L975.2969563146528,89.77489984178801L976.4119976344264,39.09222669148398L982.5703708435365,191.14024614239617L985.1872076297387,89.77489984178801L987.8859380062045,39.09222669148398L992.2389354251209,241.82291929270022L992.3628289050957,89.77489984178801L995.2823374628765,140.4575729920921L995.5301244228262,241.82291929270022L995.6540179028011,140.4575729920921L999.3125510686319,241.82291929270022L1002.47592329283,140.4575729920921L1003.0953906927042,39.09222669148398L1004.8837930761412,191.14024614239617L1005.6271539559903,39.09222669148398L1009.3069968003767,191.14024614239617L1009.4308902803516,89.77489984178801L1010.3823096109052,191.14024614239617L1010.8778835308048,140.4575729920921L1011.6212444106538,39.09222669148398L1013.6676343172252,89.77489984178801L1018.7795205988144,140.4575729920921L1020.2187911556823,191.14024614239617L1021.5231004150309,-11.590446458820065L1022.760754982153,140.4575729920921L1022.8846484621279,191.14024614239617L1023.496145381457,241.82291929270022L1023.8987165957221,191.14024614239617L1024.3725678587991,140.4575729920921L1026.4033884847204,140.4575729920921L1027.119988372895,140.4575729920921L1027.6155622927943,89.77489984178801L1027.863349252744,89.77489984178801L1030.8006984716412,89.77489984178801L1032.6338264013493,191.14024614239617L1033.5731867665186,39.09222669148398L1033.6970802464934,191.14024614239617L1035.6545559322694,241.82291929270022L1036.026236372194,241.82291929270022L1039.9896300944163,191.14024614239617L1040.1135235743911,89.77489984178801L1040.237417054366,140.4575729920921L1043.1766246754628,89.77489984178801L1045.0126847508634,89.77489984178801L1051.1707275773604,89.77489984178801L1052.5242225482589,241.82291929270022L1060.1994236327012,89.77489984178801L1065.4138111200562,241.82291929270022L1065.9093850399556,-62.273119609124144L1068.3484759802207,39.09222669148398L1071.315064060392,140.4575729920921L1071.5628510203417,89.77489984178801L1073.629187777189,39.09222669148398L1078.0673826125014,89.77489984178801L1079.5541043721998,191.14024614239617L1081.6236623595264,241.82291929270022L1082.2431297594007,39.09222669148398L1082.4909167193505,191.14024614239617L1083.6615449138062,-11.590446458820065L1085.8491733875487,39.09222669148398L1087.7478409681635,39.09222669148398L1088.597254666871,140.4575729920921L1090.5993733032649,140.4575729920921L1091.3427341831139,89.77489984178801L1092.2099885429377,89.77489984178801L1097.9562920376516,191.14024614239617L1098.575759437526,89.77489984178801L1100.5580551171236,140.4575729920921L1101.3014159969728,140.4575729920921L1102.4010119295763,292.5055924430043L1103.2912691788488,191.14024614239617L1104.5302039785975,140.4575729920921L1105.3925851948757,140.4575729920921L1106.7064342521824,39.09222669148398L1106.8303277321572,89.77489984178801L1106.954221212132,191.14024614239617L1108.5298571926257,39.09222669148398L1110.7016273009315,89.77489984178801L1113.1505058261143,191.14024614239617L1114.4908680881358,140.4575729920921L1120.293790903198,241.82291929270022L1121.7343003948656,140.4575729920921L1123.0971286745892,-11.590446458820065L1127.112764147534,-11.590446458820065L1131.0472906889222,191.14024614239617L1134.7968029668812,-11.590446458820065L1139.4053513371591,140.4575729920921L1142.3787948565557,-11.590446458820065L1143.4883022675574,140.4575729920921L1144.222040753795,292.5055924430043L1146.0804429534178,39.09222669148398L1148.257251396576,191.14024614239617L1149.991760116224,191.14024614239617L1150.3634405561486,89.77489984178801L1152.6664551575745,292.5055924430043L1154.8663490858346,140.4575729920921L1155.8197507120678,140.4575729920921L1164.5213266824485,89.77489984178801L1168.5958115583815,241.82291929270022L1169.5734137110364,140.4575729920921L1170.3167745908856,39.09222669148398L1173.1891623284491,140.4575729920921L1173.3130558084242,140.4575729920921L1174.0905699909197,191.14024614239617L1177.6924838364018,191.14024614239617L1178.4872605104406,89.77489984178801L1181.0275311260184,89.77489984178801L1182.5142528857168,-11.590446458820065L1184.503982174113,292.5055924430043L1184.9995560940124,89.77489984178801L1191.9944993777394,39.09222669148398L1193.511740231338,89.77489984178801L1194.7506750310865,140.4575729920921L1195.246248950986,191.14024614239617L1195.927497899541,191.14024614239617L1198.2807306581835,89.77489984178801L1201.036865013704,89.77489984178801L1202.561828560888,-112.95579275942822L1209.9282870932327,140.4575729920921L1211.9105827728304,140.4575729920921L1212.6539436526796,39.09222669148398L1213.149517572579,140.4575729920921L1213.3973045325288,191.14024614239617L1213.5010859709212,191.14024614239617L1214.736097477137,-11.590446458820065L1216.7359034352378,140.4575729920921" fill="none"></path></g></g></g></g></g></g><g transform="translate(30, 377)" clip-path="url(#clip_1)"><clipPath id="clip_1"><rect width="1461" height="23"></rect></clipPath><g><g><line x1="124.77321332429848" y1="0" x2="124.77321332429848" y2="5" style="visibility: inherit;" fill="rgb(0, 0, 0)" stroke="rgb(204, 204, 204)" stroke-width="1px"></line><line x1="331.2623466157236" y1="0" x2="331.2623466157236" y2="5" style="visibility: inherit;" fill="rgb(0, 0, 0)" stroke="rgb(204, 204, 204)" stroke-width="1px"></line><line x1="537.7514799071487" y1="0" x2="537.7514799071487" y2="5" style="visibility: inherit;" fill="rgb(0, 0, 0)" stroke="rgb(204, 204, 204)" stroke-width="1px"></line><line x1="744.2406131985738" y1="0" x2="744.2406131985738" y2="5" style="visibility: inherit;" fill="rgb(0, 0, 0)" stroke="rgb(204, 204, 204)" stroke-width="1px"></line><line x1="950.7297464899988" y1="0" x2="950.7297464899988" y2="5" style="visibility: inherit;" fill="rgb(0, 0, 0)" stroke="rgb(204, 204, 204)" stroke-width="1px"></line><line x1="1157.218879781424" y1="0" x2="1157.218879781424" y2="5" style="visibility: inherit;" fill="rgb(0, 0, 0)" stroke="rgb(204, 204, 204)" stroke-width="1px"></line><line x1="1363.7080130728489" y1="0" x2="1363.7080130728489" y2="5" style="visibility: inherit;" fill="rgb(0, 0, 0)" stroke="rgb(204, 204, 204)" stroke-width="1px"></line></g><g transform="translate(0, 8)"><text x="124.77321332429848" y="0" dx="0em" dy="0.95em" style="text-anchor: middle; visibility: inherit; font-family: Roboto, sans-serif; font-size: 12px; font-weight: 200;" fill="rgb(33, 33, 33)" stroke="none" stroke-width="1px">-5M</text><text x="331.2623466157236" y="0" dx="0em" dy="0.95em" style="text-anchor: middle; visibility: inherit; font-family: Roboto, sans-serif; font-size: 12px; font-weight: 200;" fill="rgb(33, 33, 33)" stroke="none" stroke-width="1px">0</text><text x="537.7514799071487" y="0" dx="0em" dy="0.95em" style="text-anchor: middle; visibility: inherit; font-family: Roboto, sans-serif; font-size: 12px; font-weight: 200;" fill="rgb(33, 33, 33)" stroke="none" stroke-width="1px">5M</text><text x="744.2406131985738" y="0" dx="0em" dy="0.95em" style="text-anchor: middle; visibility: inherit; font-family: Roboto, sans-serif; font-size: 12px; font-weight: 200;" fill="rgb(33, 33, 33)" stroke="none" stroke-width="1px">10M</text><text x="950.7297464899988" y="0" dx="0em" dy="0.95em" style="text-anchor: middle; visibility: inherit; font-family: Roboto, sans-serif; font-size: 12px; font-weight: 200;" fill="rgb(33, 33, 33)" stroke="none" stroke-width="1px">15M</text><text x="1157.218879781424" y="0" dx="0em" dy="0.95em" style="text-anchor: middle; visibility: inherit; font-family: Roboto, sans-serif; font-size: 12px; font-weight: 200;" fill="rgb(33, 33, 33)" stroke="none" stroke-width="1px">20M</text><text x="1363.7080130728489" y="0" dx="0em" dy="0.95em" style="text-anchor: middle; visibility: inherit; font-family: Roboto, sans-serif; font-size: 12px; font-weight: 200;" fill="rgb(33, 33, 33)" stroke="none" stroke-width="1px">25M</text></g><line x1="0" y1="0" x2="1461.21875" y2="0" fill="rgb(0, 0, 0)" stroke="rgb(204, 204, 204)" stroke-width="1px"></line></g></g></g></g></svg>