<svg viewBox="0 0 1492 400" xmlns="http://www.w3.org/2000/svg"><g><g><g><g><g><line x1="50" y1="377" x2="45" y2="377" style="visibility: inherit;" fill="rgb(0, 0, 0)" stroke="rgb(204, 204, 204)" stroke-width="1px"></line><line x1="50" y1="329.875" x2="45" y2="329.875" style="visibility: inherit;" fill="rgb(0, 0, 0)" stroke="rgb(204, 204, 204)" stroke-width="1px"></line><line x1="50" y1="282.75" x2="45" y2="282.75" style="visibility: inherit;" fill="rgb(0, 0, 0)" stroke="rgb(204, 204, 204)" stroke-width="1px"></line><line x1="50" y1="235.625" x2="45" y2="235.625" style="visibility: inherit;" fill="rgb(0, 0, 0)" stroke="rgb(204, 204, 204)" stroke-width="1px"></line><line x1="50" y1="188.5" x2="45" y2="188.5" style="visibility: inherit;" fill="rgb(0, 0, 0)" stroke="rgb(204, 204, 204)" stroke-width="1px"></line><line x1="50" y1="141.37500000000003" x2="45" y2="141.37500000000003" style="visibility: inherit;" fill="rgb(0, 0, 0)" stroke="rgb(204, 204, 204)" stroke-width="1px"></line><line x1="50" y1="94.25" x2="45" y2="94.25" style="visibility: inherit;" fill="rgb(0, 0, 0)" stroke="rgb(204, 204, 204)" stroke-width="1px"></line><line x1="50" y1="47.12499999999996" x2="45" y2="47.12499999999996" style="visibility: inherit;" fill="rgb(0, 0, 0)" stroke="rgb(204, 204, 204)" stroke-width="1px"></line><line x1="50" y1="0" x2="45" y2="0" style="visibility: inherit;" fill="rgb(0, 0, 0)" stroke="rgb(204, 204, 204)" stroke-width="1px"></line></g><g transform="translate(40, 0)"><text x="0" y="377" dx="0em" dy="0.3em" style="text-anchor: end; visibility: hidden; font-family: Roboto, sans-serif; font-size: 12px; font-weight: 200;" fill="rgb(33, 33, 33)" stroke="none" stroke-width="1px">0.01</text><text x="0" y="329.875" dx="0em" dy="0.3em" style="text-anchor: end; visibility: inherit; font-family: Roboto, sans-serif; font-size: 12px; font-weight: 200;" fill="rgb(33, 33, 33)" stroke="none" stroke-width="1px">0.02</text><text x="0" y="282.75" dx="0em" dy="0.3em" style="text-anchor: end; visibility: inherit; font-family: Roboto, sans-serif; font-size: 12px; font-weight: 200;" fill="rgb(33, 33, 33)" stroke="none" stroke-width="1px">0.03</text><text x="0" y="235.625" dx="0em" dy="0.3em" style="text-anchor: end; visibility: inherit; font-family: Roboto, sans-serif; font-size: 12px; font-weight: 200;" fill="rgb(33, 33, 33)" stroke="none" stroke-width="1px">0.04</text><text x="0" y="188.5" dx="0em" dy="0.3em" style="text-anchor: end; visibility: inherit; font-family: Roboto, sans-serif; font-size: 12px; font-weight: 200;" fill="rgb(33, 33, 33)" stroke="none" stroke-width="1px">0.05</text><text x="0" y="141.37500000000003" dx="0em" dy="0.3em" style="text-anchor: end; visibility: inherit; font-family: Roboto, sans-serif; font-size: 12px; font-weight: 200;" fill="rgb(33, 33, 33)" stroke="none" stroke-width="1px">0.06</text><text x="0" y="94.25" dx="0em" dy="0.3em" style="text-anchor: end; visibility: inherit; font-family: Roboto, sans-serif; font-size: 12px; font-weight: 200;" fill="rgb(33, 33, 33)" stroke="none" stroke-width="1px">0.07</text><text x="0" y="47.12499999999996" dx="0em" dy="0.3em" style="text-anchor: end; visibility: inherit; font-family: Roboto, sans-serif; font-size: 12px; font-weight: 200;" fill="rgb(33, 33, 33)" stroke="none" stroke-width="1px">0.08</text><text x="0" y="0" dx="0em" dy="0.3em" style="text-anchor: end; visibility: hidden; font-family: Roboto, sans-serif; font-size: 12px; font-weight: 200;" fill="rgb(33, 33, 33)" stroke="none" stroke-width="1px">0.09</text></g><line x1="50" y1="0" x2="50" y2="377" fill="rgb(0, 0, 0)" stroke="rgb(204, 204, 204)" stroke-width="1px"></line></g></g><g transform="translate(50, 0)" clip-path="url(#clip_0)"><clipPath id="clip_0"><rect width="1442" height="377"></rect></clipPath><g><g><g><line x1="0" y1="0" x2="0" y2="377" fill="rgb(0, 0, 0)" stroke="rgb(66, 66, 66)" stroke-width="1px" opacity="0.25"></line><line x1="120.16666666666666" y1="0" x2="120.16666666666666" y2="377" fill="rgb(0, 0, 0)" stroke="rgb(66, 66, 66)" stroke-width="1px" opacity="0.25"></line><line x1="240.33333333333331" y1="0" x2="240.33333333333331" y2="377" fill="rgb(0, 0, 0)" stroke="rgb(66, 66, 66)" stroke-width="1px" opacity="0.25"></line><line x1="360.5" y1="0" x2="360.5" y2="377" fill="rgb(0, 0, 0)" stroke="rgb(66, 66, 66)" stroke-width="1px" opacity="0.25"></line><line x1="480.66666666666663" y1="0" x2="480.66666666666663" y2="377" fill="rgb(0, 0, 0)" stroke="rgb(66, 66, 66)" stroke-width="1px" opacity="0.25"></line><line x1="600.8333333333334" y1="0" x2="600.8333333333334" y2="377" fill="rgb(0, 0, 0)" stroke="rgb(66, 66, 66)" stroke-width="1px" opacity="0.25"></line><line x1="721" y1="0" x2="721" y2="377" fill="rgb(0, 0, 0)" stroke="rgb(66, 66, 66)" stroke-width="1px" opacity="0.25"></line><line x1="841.1666666666667" y1="0" x2="841.1666666666667" y2="377" fill="rgb(0, 0, 0)" stroke="rgb(66, 66, 66)" stroke-width="1px" opacity="0.25"></line><line x1="961.3333333333333" y1="0" x2="961.3333333333333" y2="377" fill="rgb(0, 0, 0)" stroke="rgb(66, 66, 66)" stroke-width="1px" opacity="0.25"></line><line x1="1081.5" y1="0" x2="1081.5" y2="377" fill="rgb(0, 0, 0)" stroke="rgb(66, 66, 66)" stroke-width="1px" opacity="0.25"></line><line x1="1201.6666666666667" y1="0" x2="1201.6666666666667" y2="377" fill="rgb(0, 0, 0)" stroke="rgb(66, 66, 66)" stroke-width="1px" opacity="0.25"></line><line x1="1321.8333333333333" y1="0" x2="1321.8333333333333" y2="377" fill="rgb(0, 0, 0)" stroke="rgb(66, 66, 66)" stroke-width="1px" opacity="0.25"></line><line x1="1442" y1="0" x2="1442" y2="377" fill="rgb(0, 0, 0)" stroke="rgb(66, 66, 66)" stroke-width="1px" opacity="0.25"></line></g><g><line x1="0" y1="377" x2="1442" y2="377" fill="rgb(0, 0, 0)" stroke="rgb(66, 66, 66)" stroke-width="1px" opacity="0.25"></line><line x1="0" y1="329.875" x2="1442" y2="329.875" fill="rgb(0, 0, 0)" stroke="rgb(66, 66, 66)" stroke-width="1px" opacity="0.25"></line><line x1="0" y1="282.75" x2="1442" y2="282.75" fill="rgb(0, 0, 0)" stroke="rgb(66, 66, 66)" stroke-width="1px" opacity="0.25"></line><line x1="0" y1="235.625" x2="1442" y2="235.625" fill="rgb(0, 0, 0)" stroke="rgb(66, 66, 66)" stroke-width="1px" opacity="0.25"></line><line x1="0" y1="188.5" x2="1442" y2="188.5" fill="rgb(0, 0, 0)" stroke="rgb(66, 66, 66)" stroke-width="1px" opacity="0.25"></line><line x1="0" y1="141.37500000000003" x2="1442" y2="141.37500000000003" fill="rgb(0, 0, 0)" stroke="rgb(66, 66, 66)" stroke-width="1px" opacity="0.25"></line><line x1="0" y1="94.25" x2="1442" y2="94.25" fill="rgb(0, 0, 0)" stroke="rgb(66, 66, 66)" stroke-width="1px" opacity="0.25"></line><line x1="0" y1="47.12499999999996" x2="1442" y2="47.12499999999996" fill="rgb(0, 0, 0)" stroke="rgb(66, 66, 66)" stroke-width="1px" opacity="0.25"></line><line x1="0" y1="0" x2="1442" y2="0" fill="rgb(0, 0, 0)" stroke="rgb(66, 66, 66)" stroke-width="1px" opacity="0.25"></line></g></g></g><g><g><line x1="0" y1="424.125" x2="1442" y2="424.125" fill="rgb(0, 0, 0)" stroke="rgb(153, 153, 153)" stroke-width="1.5px"></line></g></g><g><g><line x1="120.16666666666666" y1="0" x2="120.16666666666666" y2="377" fill="rgb(0, 0, 0)" stroke="rgb(153, 153, 153)" stroke-width="1.5px"></line></g></g><g><g><g><g><g><path stroke="rgb(255, 112, 67)" stroke-width="2px" d="M121.36520900000001,57.12187812104821L121.84731766666665,102.47622317774221L124.64095233333333,101.96188712979159L126.71046266666666,91.42232048663531L129.40844466666667,81.96435832182858L129.84368833333332,81.1984733205602L131.92233133333335,99.87013729605732L134.88636233333332,109.99936143880112L136.27428733333332,98.08405572087547L141.64429533333333,109.35233619023417L141.77119133333332,101.64302447888777L145.26804133333334,89.92271098043493L146.684566,70.40192969744142L147.522368,84.44500395344484L148.53056633333335,79.28253232855124L149.172737,59.67578187531018L149.89421766666666,69.91228446317L153.06589666666667,64.17756026458248L155.10945099999998,63.02848867087943L156.02367900000002,68.16868970891665L156.999913,86.52443790896298L158.64980133333333,72.68662104703903L159.89136333333335,79.46936551021288L160.959645,59.51342876521472L162.02552333333333,74.65263931980597L162.33867766666668,47.67345839378535L162.367758,39.60151202426928L162.47903233333332,60.00220334701084L163.71554733333335,47.88588785339068L164.81387066666667,81.92274650715247L168.04755566666665,74.98618942747179L171.23485633333334,80.83363274828895L172.6684446666667,78.55155878253913L173.52427166666666,89.70602190855864L175.16598866666666,82.63642153128464L175.87377033333334,89.40180408472895L178.28863966666668,84.13136146839176L178.83924333333334,101.99088139833013L179.01036066666668,88.27635782137374L179.901757,76.03685980844439L180.60112700000002,86.87588220099492L181.05992333333333,75.78278538354785L181.67757999999998,62.47816611155298L182.52018866666668,64.41352462995454L183.85812433333334,72.72951865418807L183.878793,64.02443268527374L185.86466733333333,46.91931799067494L185.910571,37.332596713169366L187.83227633333334,70.50870591379031L191.76412966666666,91.89449084851643L191.80378466666667,89.24138390750495L192.74396866666666,93.92995394905269L195.0329033333333,84.2961833723607L197.66022733333335,91.96946201463687L200.860506,98.3489433109213L207.23727033333333,94.70713346179875L208.32934500000002,73.19426288739288L209.28635233333335,67.56253619215079L215.845049,73.01059535575659L216.30264366666665,81.74591103454125L216.94865966666669,93.08502839213463L218.30630266666665,77.17834445211771L219.803339,90.6583374075502L220.77164199999999,90.78958006843389L221.51234933333336,80.14208400931625L222.3100156666667,66.08387157283222L223.05793300000002,94.55615406982307L223.40353233333335,99.73022144885185L224.14255733333334,100.54380459100803L224.60904433333334,101.4215726793455L227.14792566666668,106.1137299114852L227.24838499999998,116.5622167341047L228.676686,129.89655504462917L230.281632,143.70993663422948L230.9483166666667,163.25985151784232L231.40903566666665,169.03746319417127L232.12210466666667,182.991848042482L234.243527,155.64789233557815L234.36080966666668,157.5751044345047L235.041674,169.42914928598083L235.38198599999998,157.7029279595785L235.43846433333331,131.6274600029691L235.89678,126.82437099222565L235.92634099999998,144.0661250275625L237.32195666666667,156.57378178073483L237.69615566666664,166.2920875339718L240.722433,168.77411279165813L243.28198299999997,173.05882661541742L243.77226299999998,175.45832092985773L245.50242266666666,188.52577266499557L248.272024,161.49516173544623L248.582775,152.18423211853565L250.53211866666666,151.27468681800875L250.94356933333333,166.68238691147275L252.82201466666666,168.473118629492L252.885703,167.58661606993476L254.61706433333333,174.24029269418835L254.641338,165.71412844271495L256.44912533333337,143.6808653954329L256.541173,134.9084705596365L261.2908806666667,142.28920609937293L261.79125466666665,158.91528695560208L262.505285,139.66061697147316L263.4298473333333,141.52724225665347L266.6015263333333,154.20199113842972L268.5525523333333,162.33329974044642L270.8792193333333,148.95295547055773L272.8247176666667,173.03441081185682L275.89305333333334,175.46631795310702L276.08387799999997,185.99292637344436L276.7582533333333,172.97779931760573L277.1341346666666,186.21301454685178L277.456662,186.08563972343237L277.87027566666666,194.1753129397585L279.188504,164.44257331697668L281.14674,174.78161455278712L281.41423100000003,183.75101675143907L284.53351733333335,196.93114546567838L286.16321766666664,210.80861680436522L287.14666166666666,216.42480797605745L287.688373,213.01766303054708L287.7744123333333,196.6819775752558L288.56486866666665,201.96230325042208L290.83073133333335,196.00595128201843L291.33350866666666,181.65868838154316L293.558755,181.59629315747642L293.8012513333333,196.90398060672774L295.8729246666667,164.38818880852043L296.6991906666667,128.98239778242097L297.90542366666665,133.62910331867093L299.4872976666667,161.32451165814368L299.822803,181.27306111514073L300.6940113333333,199.0060178301305L302.6298963333333,202.3979551202995L302.860376,205.58430431824578L303.76042433333333,208.1071973072985L304.242533,209.95879789456723L306.140205,215.56502285534145L308.4339463333333,206.16027187591195L314.518946,196.36292865297435L315.6425043333333,205.86763023240115L316.170757,212.5310422057077L317.61588133333333,211.3285529151061L320.14082333333334,206.87157269921892L320.356162,211.6188866495013L325.0013246666667,212.10218635195014L327.50463666666667,217.33538216944646L327.77717466666667,235.91292731819217L329.58640399999996,232.7899580745856L331.262729,232.67231646620988L331.69508866666666,232.24106571417306L332.63887766666664,225.21129806170615L333.086859,223.59845971810668L333.5184976666667,228.06757523714214L333.67735799999997,214.66116374342863L333.9184123333333,210.10872682696117L335.497162,219.37196343252378L335.688948,217.23811288541145L335.94874833333336,220.21936225214952L340.2399,237.38739230152578L340.521811,224.29564830313097L342.45961866666664,195.18461301565154L342.563683,173.54882989013186L344.22390566666667,167.5850380372047L347.92768266666667,195.32410611576077L348.89814866666666,204.91366262058162L350.44084833333335,231.20161846321668L354.6089493333333,202.18922469193845L356.27686266666666,175.7034539709992L356.8962016666667,177.9159098971192L356.9291273333333,177.71679130246068L356.95724633333333,176.75140119224687L358.5206146666667,202.3079828620249L359.306745,204.01753440352044L359.9746313333333,206.17726187468628L363.04513000000003,171.75203861779605L363.2107196666667,162.3754682525196L367.1906396666667,182.52051885629885L369.405071,202.73022221598143L369.57883200000003,213.03200691087912L369.6341086666667,192.4954890684418L370.4531646666667,206.3955561519344L370.6182736666667,206.24147156108495L373.48641166666664,210.92653460490152L374.367714,190.41630651764538L375.99909666666673,196.49399180836954L377.9465176666667,184.65923421384383L378.9268373333333,193.40686758936337L379.0424376666667,199.51356408122714L379.189762,193.98583241476737L379.82640499999997,208.87595850780087L379.9371986666667,205.58608255195307L379.97637299999997,221.04015615080408L380.313801,209.9914591639913L380.872576,213.64569253651365L384.20623966666665,189.15517192142048L384.9899666666667,187.6324041489174L385.6749166666667,193.81419206505478L387.73168933333335,193.42450716030874L388.51349366666665,176.45883306522535L389.41546466666665,186.10460777526714L389.53635233333335,176.39655415532363L390.66664,174.92479462663758L393.684746,179.6608951582934L394.1589236666667,203.34514908757365L395.730944,213.3319631696734L398.478675,211.5484213944371L399.1756416666667,203.3897154340801L403.6934276666667,189.5878214216028L404.8251573333334,184.45060982410877L405.49809066666666,161.92069994273646L406.511336,175.84908263899598L407.69569866666666,175.88036506112053L408.99470033333336,168.41461546114465L413.0705133333334,180.03364998633492L422.67567533333334,200.4356983417858L422.72590499999995,195.55243348789747L425.90912000000003,197.71931463308655L427.33309499999996,190.55382849843812L427.5157483333333,185.29033639548132L429.73114100000004,175.90737337629741L429.8856753333333,189.29451568803634L431.45793599999996,193.6194452554372L432.49425333333335,201.78930551546136L438.457404,201.14416206471515L439.2509846666666,202.08408396597144L439.91814999999997,219.19838412943744L441.28156099999995,222.6027136458055L442.006887,211.37348311770532L443.58755933333333,193.76267290341008L444.1506603333333,201.813805119557L444.3467723333333,196.81809202960903L445.37804266666666,174.47883516628607L446.4311833333333,197.94362328397673L451.34768233333335,209.389055175766L451.9994663333333,202.8196616467444L452.04344733333335,208.72863742092895L453.721695,184.30723192247535L455.0942386666667,190.77144383461942L455.7683736666667,197.49382432890934L456.218518,208.1006939893544L457.303623,204.9064947902012L457.81961866666666,208.33489462815808L458.9256326666666,187.05065542658025L458.9333233333333,189.24745064645919L460.2578003333333,202.47242831465547L460.868247,210.25859401987162L462.2941446666666,217.41385317812072L464.9142586666667,217.3063467687053L464.9704966666667,192.55501029018657L466.92777133333334,189.17767940386594L468.73027133333335,193.7081077764896L468.8076586666666,195.5032230188231L468.88793,191.01419544859414L470.57146500000005,194.20219222094823L470.801464,197.31848526901732L471.3482223333333,197.09012732897241L472.16030866666665,205.17521249871874L472.2453866666667,199.65878472326057L473.82245400000005,209.48211052774107L475.6158213333333,206.6336771600468L476.49279766666666,215.41081988233466L477.5098883333334,206.80889121394242L477.99752466666666,200.31443417490058L480.40638566666667,185.77266651791646L480.8022146666667,203.36566809506604L481.04110599999996,217.3557185393059L481.1841043333333,213.0877189806988L481.930099,219.2914468718702L482.3030963333334,212.40349036891067L482.97074233333336,194.659408335768L483.1396966666667,206.20143629678066L485.1858946666667,202.61661005582195L487.03501933333337,193.83907297069302L487.18691,189.01454730519333L490.05504799999994,186.1895761203091L490.3350363333333,201.525200834055L490.440062,214.0730058745619L491.01133433333337,216.29012485942698L492.50789,195.16933898390207L493.25051999999994,204.1461822570018L494.413493,198.8727782677503L497.0751846666667,205.15651383464882L497.491442,181.32390233108612L498.00575533333335,181.96468093978888L498.37274433333334,199.03536011569219L500.74555533333336,206.58852846200773L502.7261423333333,212.8528625541956L503.969627,197.59886152216976L504.37002233333334,193.29012356352322L504.80790966666666,202.70171428413101L504.811755,213.0063491460139L508.2922623333334,176.0938204405579L509.0031683333333,177.87479040639835L511.90351100000004,203.1960451773836L513.096766,190.2487771106979L515.7005373333333,210.11713002879745L515.8846326666667,201.85421387856798L516.3227603333333,203.30390140119547L517.1660899999999,208.07455866756055L517.3393703333334,199.3914485840321L517.5227446666667,203.25710812320233L517.899347,192.19922364866684L519.1406686666667,191.8864282078502L521.724973,197.56196980964887L521.8066863333333,190.59334145064201L522.2246260000001,165.06172733053597L522.6978423333334,177.33604048144838L523.292427,173.22640599877843L525.490035,186.29441459370383L526.6184000000001,175.29056053395706L527.752533,190.51224645248436L528.0243499999999,187.88229093117346L528.6489763333334,189.6565973000993L531.5591726666667,192.09909281952795L532.5142573333333,189.59352365627058L534.5731930000001,188.64046063941225L535.5830736666667,187.99906821353144L536.1851086666667,196.60184075118846L536.41679,205.19460783858148L536.6602476666667,217.14997788792286L537.496848,210.37932873234408L539.1827863333334,212.6700669718698L539.4245616666666,198.69851458253953L539.617309,209.61122733165317L539.9475269999999,202.28311291074453L540.9225593333333,206.41713017067727L543.4941259999999,199.42741099203477L543.6460166666667,198.9743608442238L544.3331296666667,194.25694801552842L547.9003973333333,193.30074617054314L548.9446456666667,199.90327777884158L550.5356523333334,195.1677521924481L552.565748,206.03426472904118L555.6208653333334,201.73917033858197L555.7931843333333,211.7811397468275L560.7983663333333,205.49861633212723L562.284828,219.8070947821817L566.3147373333334,209.40674212699423L567.7603423333334,199.54344780296256L568.4568283333333,189.9933088089536L569.7858716666667,206.6434219391948L570.8572776666667,205.5108395181183L573.6324066666667,204.37827569169303L575.567811,196.80615234924855L577.3768,197.31501525299848L577.8889503333334,191.74443910811607L580.800829,191.38237352993644L581.326438,176.2981703718099L582.1632786666667,203.15246441898313L585.864412,211.75909714661577L587.1266426666666,202.3029282809051L588.521297,190.28152034555393L588.7460086666667,199.08509876504252L588.9750463333334,187.55383417859497L589.2735403333334,199.19391116785897L589.6566316666666,194.89396563343942L590.2014673333333,179.7233067351445L591.173135,190.16507727565548L592.313036,195.56829435996525L593.5288823333334,199.42241056187342L595.1564196666667,193.64004317625395L595.684432,198.18723285319828L596.610917,182.5135932676341L596.8767256666667,168.4934829227534L597.57922,171.16708825617474L597.719094,192.60121974476846L598.4994563333333,198.25531378167076L598.5592993333333,198.86955310047986L601.7059836666667,188.8685743623455L602.213087,204.37426026990886L603.735118,203.7057448757045L604.5955113333333,212.52243745966868L606.479244,219.22947118517232L606.6902566666666,213.68444392509141L608.3771563333333,204.9079059343152L611.6757313333334,181.874609406627L613.010783,180.2522499558847L615.375663,186.44798056244974L618.6521273333334,186.43612584075404L618.7006746666667,200.0423645912175L618.894143,199.8505655691662L619.3060743333334,195.18471127618187L622.963467,210.50222745459578L623.0523903333334,187.14140169275584L623.1204046666667,189.42266572387686L624.8666666666667,181.03974061308307L627.3308043333334,177.48598294614558L628.4490753333333,200.2096267970431L629.4654449999999,197.64661814761328L630.901677,186.12987086917263L632.4217853333333,187.20092850771726L634.034422,197.18765867857442L634.5203759999999,200.91579761495174L637.7192126666667,196.17696043336383L638.6896786666666,172.52255895649785L638.8793016666667,193.59186116853596L639.2023096666667,185.9702342703893L640.9454473333333,203.86941702544422L645.834308,199.61851307976082L646.2111506666666,206.51748314933678L646.5432913333333,195.36666101626577L647.0100186666666,203.27954729146973L649.820717,187.82453173397312L651.3896129999999,189.5711363658209L651.435757,195.45979142665269L654.7489923333333,202.8584936453664L655.79997,210.10718776844524L657.630589,204.59686716981278L657.660871,194.6479807844016L658.7233846666667,189.79961936996898L660.8625916666667,199.69719078362897L661.923423,188.75678406042408L663.423824,182.7245187268111L664.9023546666667,198.29120164546092L665.50463,209.0234834368987L666.0694133333334,193.42249400934358L667.1941733333334,210.68011123103372L668.0218813333333,203.9094854796676L670.0889883333333,175.0177273000627L671.2865693333333,188.77539033787545L671.4242803333333,188.9500591254061L673.0885886666667,180.26463864346303L674.593556,194.0796319222448L676.2674776666667,194.6793844275771L676.3739453333334,197.177241593486L678.1848570000001,202.6794858700847L678.9673823333333,201.90457382138464L680.8090566666666,201.19332390180764L680.9083143333334,196.27995363564213L681.5774023333333,187.72911582181408L681.793462,201.89165911251044L683.4786793333334,212.02498605950913L683.4959833333334,217.68767559963015L684.5536903333333,221.47372077964272L684.8853503333333,208.17686907239275L686.1009563333333,202.12027014143774L687.0053306666666,213.48788261322684L688.9330443333333,204.54318894912905L689.061863,201.41291353386703L690.246466,207.40751621742285L694.357608,222.36133525740647L696.0356153333333,200.9207462942394L697.7278023333333,210.04919726853325L698.3608403333333,203.95093322220302L698.6040576666667,196.825760368543L698.6600553333334,191.35324287282654L699.6427783333334,192.84684590990676L701.404662,213.80767808255754L701.614473,212.78812843499904L701.8747539999999,210.3402551006575L703.7536799999999,221.54402396180032L703.8339513333333,222.02575807704207L706.981597,188.76748732586904L707.5060043333333,191.32022298267609L707.6098283333333,194.19084515208675L708.9677116666667,206.33393944075507L709.93265,210.16412889075755L712.9733473333333,205.47093981720496L713.2992393333333,215.7528100727051L714.0743143333334,221.7664753775626L715.471372,224.4176999535161L715.713628,207.0251226920484L716.834783,218.28398050135962L719.9831496666667,217.17970787147635L721.0845973333334,206.2114535095391L722.4155633333334,222.16433552486288L724.245942,211.53094391723033L725.2204936666667,208.3718529474709L726.2988693333334,207.34976699021303L726.5355976666667,215.86007968525195L727.2890426666667,201.75746632331675L728.372225,205.6713673276548L729.6544033333333,225.17009956853653L729.8245593333332,241.5171461684529L730.2823943333334,250.7930583638265L730.3177233333333,238.4349815939256L730.660679,211.11307783689432L730.6611596666667,215.40208660224874L732.5605140000001,219.97123533731585L733.4490263333333,194.5045464455836L734.3464309999999,200.90309525622445L736.8259499999999,219.61552235316344L738.1088493333333,211.17768728334374L738.413592,216.24121137022178L738.5085236666666,229.36696411481026L738.9358363333333,230.68493579513148L739.3292620000001,223.95475467629026L739.4335666666667,227.36549944556828L740.110826,224.42618999184413L745.2739069999999,214.22853309542683L745.9569343333333,213.87988933253732L748.15286,211.68240310149463L748.401605,217.40626529840867L750.113259,220.83159423612497L750.6686693333332,234.74863787810773L753.440674,221.95157840070584L753.501959,219.5020872546283L753.7533476666666,228.15958675551698L754.024684,245.4316889766353L754.3986426666667,250.86070864936698L755.1946266666667,248.27616472417702L755.3876143333333,234.81174739226458L756.1239956666666,231.93244672059865L756.2766073333333,239.87263488912495L757.2384213333332,232.78798381771995L758.1399116666666,232.4238601619682L758.515072,236.31671331120617L758.8414446666667,227.48481193285042L759.251213,175.5917818656615L759.5595606666667,188.58425604692405L759.897229,192.76950137773935L764.3950673333334,224.43484672731032L765.8738383333334,239.00580191806478L766.7640329999999,233.18039424759465L767.1233313333333,225.6200352179546L767.9664206666667,219.68647775158522L769.0745976666666,209.35993963766236L770.0188673333333,199.12009525768843L771.2837416666666,202.678049847322L771.9888796666667,203.35933126350483L773.728172,202.51401739993833L773.8298329999999,194.71015313523495L776.1214113333334,216.5812097385972L776.390825,219.1657751937478L776.405966,227.8788913698357L777.1899333333334,233.63242684297933L780.3709853333332,228.36996921147804L783.6157256666667,230.13553592783754L788.0755913333333,244.7731447687599L788.2291643333333,237.77639053737235L789.3553663333333,239.83693324908685L790.0554573333334,253.20486892318766L790.3138156666666,240.59845589432737L791.7269756666666,224.86287116234675L792.9490706666666,242.86938680395588L793.207429,227.13475185445012L794.1069966666666,230.79881888962421L795.1017363333334,236.03295820258037L795.340868,231.65275855020872L795.4744933333333,227.03126175496692L796.609107,195.47695158299035L797.5459263333333,197.6623335734083L798.580321,198.48347132459722L799.201102,213.1601413171318L799.7651643333332,210.26370034252568L800.5294243333333,223.55526454529146L800.8029236666666,238.65637365002024L800.9312616666666,220.14092670094124L801.8380393333333,234.2243824949035L801.9560429999999,230.30803852976376L804.7278073333333,226.79260071859372L807.1037426666667,231.8984444260336L808.4462446666666,233.0903170463286L808.4520126666667,222.20816169943467L809.4662193333332,197.24601051965982L809.5904716666666,212.1495863877811L810.0617653333333,215.46615739438408L810.0634476666667,212.9933972024826L811.3343303333332,227.13507843100479L811.842395,232.31434342165855L812.2605750000001,238.95034733206077L813.289442,232.96373044648794L813.459598,217.69339637353437L814.078937,210.96080431577212L814.207275,221.33571815929807L814.5026446666667,228.2065728877008L815.0907403333334,225.8645442075443L819.7755579999999,250.45659527760216L820.62778,256.58503820125145L821.620597,241.04088777601058L821.8395406666666,237.01406600057678L821.888088,251.96426828044414L824.0066263333333,247.20466662697652L827.0583790000001,243.56623538659605L827.6584913333334,226.94122980431675L828.5236913333333,230.30444230896808L831.351213,230.46136075414762L833.884086,228.022473860726L835.0114896666668,238.68618033763485L835.5637756666667,243.03609276674223L835.8521756666667,240.0064915872337L837.1535806666666,222.32825609932672L837.2646146666667,217.07326335841614L838.8642733333334,215.63235756536838L839.0284210000001,212.96624069753597L839.2752433333334,226.06463710199782L839.9190963333333,243.47186294559236L840.4528766666667,237.3998808755791L840.821548,225.66442464183666L843.3935953333332,223.51827906230625L849.3685223333334,229.13734048253022L850.1356663333333,227.70607500461176L850.2885183333333,231.85668057613037L852.9478066666667,225.2279668176917L853.3102293333333,232.15847528128313L857.9212646666666,229.54216078384812L861.6159089999999,237.70982167177854L862.7733543333334,243.6334433633295L865.1339083333334,231.8883044460838L865.2341273333333,245.7763177805796L866.825855,230.13839320413203L867.6852869999999,225.11900560600722L868.0171873333334,215.5677785533259L868.8268703333334,221.4035290156358L869.5017263333333,227.29301641953316L869.9033233333333,231.3316592213352L870.4940626666667,223.5032950661683L871.1970376666667,226.5304342752459L871.2660133333334,237.0780656633235L875.9441016666667,244.17547404303892L876.188761,237.74689624702776L876.9087996666666,234.33129673597722L878.417372,231.89849833785004L878.4676016666666,221.44322709598248L878.4947593333334,229.52044206326067L879.4027386666667,227.08068453276073L879.7896753333333,238.6624600410695L880.4969763333332,249.18303022207232L883.483118,240.25765187097437L886.3019876666666,244.12054267855197L887.6435283333334,243.29605171878165L890.432837,223.5153544026555L890.7438283333333,229.560785236385L891.4828533333334,245.98655650089773L896.3724350000001,239.2431630712485L898.5061143333334,238.3628556681714L901.1798226666666,243.12054113763818L901.9734033333333,246.97310140113981L903.9612003333334,249.19502059746355L905.3296583333333,253.74922846483335L906.9994943333334,247.05421312512246L909.3948966666667,226.49710224784192L909.5253976666667,235.30719313825233L910.018081,251.48083075690306L910.2295743333333,238.93766927753705L913.1162180000001,236.70932719579233L913.2152353333333,222.5281088857108L921.2601533333333,216.68205920358022L922.0412366666666,219.71837061270784L922.1912046666666,227.60826224312015L926.1526190000001,217.0630810564746L926.6794296666667,211.11575950643356L927.6590283333333,211.16331478036014L928.216121,231.05774166629652L928.6814063333334,238.46519503114186L929.2384989999999,240.0835657543991L929.8131360000001,240.6368251190814L929.8566363333334,255.28315226226943L930.1056216666666,237.44909667366682L931.5291159999999,237.6811040410038L932.0362193333334,242.40361004284836L934.2182056666668,253.42127278126372L934.3011206666666,235.36432067633922L935.986338,238.50568357307463L937.8138326666666,245.24477447389813L939.4158946666666,241.4066833664134L939.4879946666666,236.7677416054401L940.2551386666668,263.25794460537986L940.6786060000001,256.09186378814553L942.47678,264.24144521622526L943.0396406666667,262.7938030281286L943.1763903333333,269.7420259576213L943.8685503333334,266.9146010077698L946.421371,274.40982537771487L946.4985180000001,247.08965921434893L951.6534276666667,252.32999301274495L952.196581,245.01524359923528L952.4559006666666,262.55446791986776L953.5208176666666,265.2382809219668L953.902467,240.80409740346133L954.4076476666667,231.89973207674902L954.5979916666666,246.0932032621651L956.3029163333333,232.8434944045096L958.9064473333333,231.11594566577966L959.2184,221.55321429892956L961.6880653333334,247.1752553454016L963.7650259999999,241.3863564608082L965.4427929999999,256.65988908760755L966.993664,251.16766437472702L967.273412,259.13294446368104L967.8360323333334,257.4098970459347L969.6430986666667,228.76507705399067L969.7303396666666,232.07773151218095L971.104085,215.00914309900526L972.1848640000001,221.9024624249728L972.3670366666666,220.4475198818083L974.851122,254.53382778735968L975.2976613333333,241.86738412125118L978.0160716666667,228.19143594901686L978.1581086666667,226.95231832176995L978.2547226666666,244.6042002952728L980.0795736666666,241.89766666988334L980.1124993333333,246.2586596053827L982.1127936666667,248.33124768537212L983.2281806666666,248.6158246073242L983.9527856666666,256.6547672590981L984.8480273333333,262.2311063321751L987.212667,259.42344346566927L989.686418,261.48396680756764L990.0853713333333,252.37622087972974L990.2718699999999,258.1315649734593L990.8215123333333,246.8173117987309L991.8967636666666,234.98321680438488L992.6992366666667,236.15987143866403L993.4875300000001,231.8942365144323L994.5406706666666,241.60682478515096L994.5812870000001,250.61009193118088L998.3554816666666,239.12763237524433L999.5874303333334,229.61462394784925L1000.0971773333334,231.16466924781227L1001.724234,231.5612641378321L1002.4159133333333,246.3993704276727L1002.484889,237.8774301175741L1002.4889746666666,237.36313566875265L1002.9984813333334,234.52362066842198L1003.6519476666666,241.26883478663615L1009.611253,234.59632946596898L1012.3383153333333,235.13275189725374L1013.5267636666666,231.04442840831172L1015.8007976666667,244.1826228351396L1016.4299903333334,258.71583852997435L1016.9894863333333,260.66293200302727L1019.7848033333332,267.35172494917276L1021.1705653333335,258.83126597803334L1023.794765,246.1747549896032L1026.9623583333334,256.932403658306L1027.6021256666666,259.36889187513316L1029.247688,251.19237593572456L1029.6560143333334,239.4707390003569L1029.7216253333333,242.1764985052149L1031.1931863333334,249.48096174984576L1032.4614253333334,266.98952612945084L1032.6351863333334,261.83975002419135L1033.0908583333332,269.0016764622252L1033.7118796666666,268.7750401420189L1034.603997,256.6342476664658L1035.8039813333332,252.0072289889262L1036.9893053333333,258.12664936394725L1037.3627833333333,261.7414781714155L1038.8987536666666,227.66032143918716L1039.0210833333333,248.37664721377516L1040.697168,244.88509970958725L1040.9543246666667,256.43442737046297L1042.5441296666665,256.19011665721786L1045.2173573333332,268.54101300404994L1046.45219,254.47612255314905L1046.4581983333333,261.61643208786796L1047.1073386666667,252.85545826762888L1049.0473093333333,259.1922626111506L1049.1482493333333,258.7171190560519L1050.258349,265.5488429505026L1051.170414,259.51023410638544L1054.2233683333334,260.6160593882524L1056.2623563333334,250.75290410252347L1056.8977976666667,252.07239165548646L1058.8668486666668,242.94952839549876L1059.668841,249.54962098709643L1059.716427,255.32330700374783L1060.0024236666668,244.96019442076766L1061.596795,239.49894486037067L1066.1619266666667,252.29624225000845L1066.4255723333333,250.37298693016353L1071.4223426666667,236.63247119787445L1073.060695,252.08978362994262L1073.7093546666667,252.23638649429L1076.1057183333335,262.3940308110125L1076.866133,271.1692438660537L1079.5679603333333,270.12220780780757L1079.5859853333334,264.6526197626045L1080.86552,262.8673901443988L1080.884987,274.4663647188431L1081.3365733333335,252.821204820197L1081.7583583333333,252.87968975241256L1083.1412363333334,265.8327687140422L1083.6495413333332,266.99209633878564L1086.267973,258.543680078755L1090.1358976666666,272.52353644041426L1093.3969806666666,269.0946793014897L1094.963233,285.94917024553376L1096.8063493333334,261.0089226253662L1097.2894193333334,269.6716765012791L1098.726853,255.02707524800002L1100.3337216666666,260.11998196067634L1104.2672573333334,261.2405768364502L1106.299516,259.80200559525684L1107.4850803333334,264.60862087237234L1107.758099,261.0343895429516L1108.6059950000001,271.4270474150267L1108.9314063333334,270.12266196888606L1110.4169066666668,279.2265539814944L1110.574325,270.16929819285366L1112.1624476666668,258.04354490697085L1113.2494753333333,259.22805490857183L1113.2973016666667,251.9273893416871L1117.0702946666668,276.506442250666L1117.230597,274.6372376676541L1119.2332946666666,278.61169475927306L1125.0395076666666,264.83659169891087L1125.7915106666667,273.71527150388727L1127.1885683333333,279.50348148154416L1127.4279403333333,283.7281450478417L1129.999507,280.623882591616L1130.601542,257.6938955976909L1131.2398673333332,259.6037038203684L1133.4672766666665,262.58873076731606L1135.9251656666665,259.37440578189285L1137.4354203333332,265.6122319209384L1140.4155536666667,259.1678342868571L1140.5388446666666,272.0534793354382L1140.624163,281.26043892270684L1142.2343963333333,276.9064442686222L1143.7557063333334,273.4041697247018L1147.6673716666667,271.89841160107784L1149.342495,270.7175739023336L1149.6888153333332,271.1503989771454L1151.154368,272.10874397980865L1151.9147826666667,278.9110905434352L1152.276965,274.78121971521745L1152.6377053333333,275.45187070628384L1154.779556,281.58275628222754L1155.3111733333335,274.55983775114254L1157.787568,270.5167605281188L1157.9596466666667,275.77282299736527L1159.6018443333332,270.0476575330757L1160.1051023333334,284.8221427495547L1163.0131356666666,265.11887826444314L1163.0251523333334,272.3824673856593L1163.1111916666666,274.66292512172737L1163.3152346666666,272.42417322921324L1163.9941763333334,278.35865573072476L1165.120138,284.848876101801L1166.9187926666666,267.07039746971685L1167.382636,267.17838413168045L1167.9404496666666,288.0306737759653L1168.2538443333333,281.72995015838404L1171.767758,271.8437021381179L1172.2469826666668,261.7005038518619L1172.4534290000001,244.80099442430804L1173.2921923333333,238.99593523116988L1175.1309826666666,244.71221215633798L1175.586895,241.12276243333963L1175.6859123333334,250.0190002168116L1178.573277,268.3189108856706L1182.363574,267.5398401864283L1185.9553556666667,276.86996416958647L1186.1699733333335,259.7936762166767L1186.3814666666667,259.4339702840298L1187.9631003333334,272.26618886720536L1193.306912,263.6569428725922L1196.7605019999999,268.4266454091003L1196.9381083333333,262.64698180617876L1197.5209166666666,273.77025333158366L1199.6858393333332,266.8104652530681L1201.7603966666668,257.98644106413315L1201.7942836666666,253.58779590472813L1202.1420460000002,268.1524040670409L1204.0067923333334,278.0996075583228L1204.2944713333334,293.7876026105272L1205.059933,292.1464086314372L1205.7840573333333,294.35296756120516L1205.797516,301.80420461575386L1206.493281,290.746648902626L1209.2100090000001,288.2983553506024L1210.3660123333334,282.53885306400576L1211.5722453333333,288.2857575318665L1211.6662156666666,299.62800150447794L1217.2186366666667,287.53734957029644L1217.809376,260.3616597494497L1219.177113,270.49492788037736L1220.9928313333332,279.81917796527495L1223.346656,293.369845622004L1225.5000426666668,304.6917041097408L1225.6161236666667,304.50972714338155L1225.960281,294.2627784058509L1230.5881396666666,287.57309786424383L1231.3312503333334,270.9828038160225L1232.9948376666666,282.1018677547855L1233.273384,275.9417856332828L1235.206385,283.0842765940529L1236.3114376666665,283.48903791894327L1236.6474236666666,289.5803529741753L1237.6522573333334,289.47183351948195L1238.5184186666665,297.8208044576456L1238.946212,290.02861961135625L1239.5162826666667,286.60152088088904L1239.5383933333333,282.3491439937539L1240.9645313333333,283.2502636291228L1241.5975693333332,268.5155374856378L1241.6891363333334,271.59139124388014L1242.5925493333332,262.31033482750956L1244.0102756666668,274.44391948603516L1244.440232,280.9280614167328L1247.800092,282.56613919384034L1249.489395,275.03459854124037L1253.2857003333334,278.9006463457528L1253.6860956666667,288.27902573611635L1254.1744529999999,291.76530203828986L1255.6046766666666,285.3981100170897L1257.182465,293.5187423426114L1257.753497,287.9384288008185L1259.6874593333334,281.5252064594728L1259.927312,281.23886262351886L1260.6769116666667,283.061086387781L1261.0511106666665,283.27455300135773L1262.3695793333334,291.6860750886402L1263.5318313333332,283.98702951357376L1263.570525,279.8087420491016L1264.5236869999999,280.0083605171821L1266.7633533333333,289.5849260276009L1267.5675086666668,273.9122920921713L1270.3008196666667,286.15949416332063L1274.933485,297.118563691438L1276.9450749999999,295.85381684357566L1277.0926396666666,304.65464149842944L1277.4471313333333,296.62774075116386L1281.2979923333335,269.80166536149784L1282.2014053333332,280.0980503500396L1282.9721543333333,281.84549107273784L1285.5297816666666,279.62943893295744L1285.999393,281.47635044900903L1286.5088996666666,285.2283943518897L1288.6968943333334,289.52377151362003L1293.7950853333332,295.58409704960525L1294.6581223333333,300.3508199643918L1297.7396763333334,285.34733239810635L1297.9821726666667,292.7487111270486L1298.5529643333332,294.6522941227292L1299.3886033333333,287.360281407716L1300.5393193333334,291.6652300059093L1300.923372,277.74688797067364L1302.606186,282.45045902353974L1303.2923376666665,298.61643173596235L1303.4898916666666,302.8996418926178L1303.767717,300.40839003067066L1305.9345623333334,291.2793544823876L1306.9593436666667,304.871832054925L1307.939423,300.7950527348799L1309.1754573333333,305.7121856378724L1309.5080786666665,303.33213809607685L1310.118285,300.1321662346468L1310.13631,300.12008624143573L1310.9825236666666,294.6579060270916L1312.3899156666666,285.84394515094345L1312.4560073333334,278.1058136271667L1312.793916,279.51383517591546L1313.952563,295.14157055934305L1314.4358733333333,294.29260185730476L1314.9081283333335,293.4145039286287L1315.6005286666666,309.10998301899855L1316.3265756666667,309.56811281075437L1323.652176,307.3465277092478L1324.8067373333333,314.04998226012714L1325.1222950000001,310.62216929075674L1326.8457253333333,305.50195354880424L1327.8392633333333,305.51442560277303L1329.136102,299.6689282959516L1331.728097,311.29093856585416L1333.736803,299.608360877096L1335.1033383333333,307.3626609872039L1336.1805123333334,296.3882324326191L1336.814031,302.6382452288659L1339.0284623333332,310.7063832209642L1339.3848766666667,295.7864450574598L1343.4686206666668,306.30926195521243L1347.1673506666666,318.81017398604206L1349.5322306666667,321.84938773225815L1349.889366,315.8585163427059L1349.9544963333333,312.3565562719949L1352.9108366666667,299.46282469063095L1353.0903656666667,295.4154521820193L1353.615494,304.1105567476002L1353.626309,306.3371431841461L1354.027185,299.41373897762645L1356.9671826666668,299.4199999365005L1357.072689,300.87115260394177L1357.6168036666668,302.51215542961216L1358.1842306666665,308.9718956439737L1361.586149,309.2996046856966L1362.8933220000001,298.9400795104161L1362.9476373333332,317.79944591757993L1363.491031,323.738328942134L1363.624416,311.35191110132575L1365.9868926666668,306.20054593374397L1366.0335173333333,312.25818470308224L1371.5832946666667,319.1528535474184L1376.595206,312.5335478999521L1379.5734166666668,320.8543542135242L1385.4978736666667,311.81841284087204L1387.172997,310.957190606674L1390.8303896666666,315.02400111253877L1391.122635,313.4542304618408L1392.544447,306.1469445150047L1395.3395236666665,318.5588855957061L1396.193428,326.20233400181354L1400.1339333333333,322.4571013116265L1404.440226,316.5879112259105L1404.4613753333333,313.1935897797677L1404.862011,313.8601329501172L1408.4391323333334,311.5452308975577" style="fill: none;" fill="none"></path></g></g></g></g><g opacity="0.2"><g><g><g><path stroke="rgb(255, 112, 67)" stroke-width="2px" d="M121.36520900000001,57.12187812104821L121.84731766666665,129.6888302117586L124.64095233333333,101.46812452375889L126.71046266666666,79.02779011428356L129.40844466666667,69.61604291945696L129.84368833333332,80.1389786452055L131.92233133333335,126.57091552764177L134.88636233333332,124.76786747947335L136.27428733333332,80.51129421591759L141.64429533333333,126.0844194367528L141.77119133333332,90.14897980168462L145.26804133333334,72.40602216124535L146.684566,41.1844965107739L147.522368,105.48210349306464L148.53056633333335,71.54489318281412L149.172737,30.279484394937754L149.89421766666666,85.2627066001296L153.06589666666667,55.57693001255393L155.10945099999998,61.30505632981658L156.02367900000002,75.87852143123746L156.999913,114.05705353617668L158.64980133333333,51.930351093411446L159.89136333333335,89.6433482915163L160.959645,29.579760044813156L162.02552333333333,97.36134754866362L162.33867766666668,7.204802058637142L162.367758,27.493613123893738L162.47903233333332,90.6032090112567L163.71554733333335,29.71142577379942L164.81387066666667,132.97801567614079L168.04755566666665,64.58135610818863L171.23485633333334,89.60479656606913L172.6684446666667,75.12844810634851L173.52427166666666,106.43771579861641L175.16598866666666,72.03202126920223L175.87377033333334,99.54987774044275L178.28863966666668,76.22569762542844L178.83924333333334,128.78016112744808L179.01036066666668,67.70457253232598L179.901757,57.67761282995343L180.60112700000002,103.13441576808691L181.05992333333333,59.1431401707232L181.67757999999998,42.52123721316457L182.52018866666668,67.31656240671873L183.85812433333334,85.20350968837738L183.878793,50.96680373325944L185.86466733333333,21.261645950376987L185.910571,22.952514797449112L187.83227633333334,120.27286971360445L191.76412966666666,123.97316825017333L191.80378466666667,85.26172349601984L192.74396866666666,100.96280901134014L195.0329033333333,69.84552750736475L197.66022733333335,103.47937997803092L200.860506,107.91816525533795L207.23727033333333,89.24441868811846L208.32934500000002,40.924957025796175L209.28635233333335,59.11494614928961L215.845049,81.18268410116434L216.30264366666665,94.84888455271721L216.94865966666669,110.09370442852378L218.30630266666665,53.31831854209304L219.803339,110.87832684069872L220.77164199999999,90.98644405975938L221.51234933333336,64.17083992063999L222.3100156666667,44.99655291810632L223.05793300000002,137.26457781530917L223.40353233333335,107.49132251739502L224.14255733333334,101.76417930424213L224.60904433333334,102.73822481185198L227.14792566666668,113.15196575969458L227.24838499999998,132.2349469680339L228.676686,149.8980625104159L230.281632,164.4300090186298L230.9483166666667,192.5847238432616L231.40903566666665,177.70388070866466L232.12210466666667,203.92342531494796L234.243527,114.6319587752223L234.36080966666668,160.46592258289456L235.041674,187.210216563195L235.38198599999998,140.113595969975L235.43846433333331,92.51425806805491L235.89678,119.61973747611046L235.92634099999998,169.92875608056784L237.32195666666667,175.33526691049337L237.69615566666664,180.86954616382718L240.722433,172.4971506781876L243.28198299999997,179.48589735105634L243.77226299999998,179.05756240151823L245.50242266666666,208.12695026770234L248.272024,120.94924534112215L248.582775,138.2178376931697L250.53211866666666,149.9103688672185L250.94356933333333,189.79393705166876L252.82201466666666,171.1592162065208L252.885703,166.25686223059893L254.61706433333333,184.22080763056874L254.641338,152.9248820655048L256.44912533333337,110.63097082450986L256.541173,121.74987830594182L261.2908806666667,153.36030940897763L261.79125466666665,183.85440823994577L262.505285,110.77861199527979L263.4298473333333,144.32718018442392L266.6015263333333,173.21411446109414L268.5525523333333,174.53026264347136L270.8792193333333,128.8824390657246L272.8247176666667,209.15659382380545L275.89305333333334,179.11417866498232L276.08387799999997,201.78283900395036L276.7582533333333,153.45510873384774L277.1341346666666,206.06583739072084L277.456662,185.89457748830318L277.87027566666666,206.30982276424766L279.188504,119.84346388280392L281.14674,190.29017640650272L281.41423100000003,197.20512004941702L284.53351733333335,216.70133853703737L286.16321766666664,231.62482381239533L287.14666166666666,224.84909473359585L287.688373,207.90694561228156L287.7744123333333,172.17844939231873L288.56486866666665,209.88279176317155L290.83073133333335,187.07142332941294L291.33350866666666,160.13779403083026L293.558755,181.50270032137632L293.8012513333333,219.86551178060472L295.8729246666667,115.61450111120939L296.6991906666667,75.87371124327183L297.90542366666665,140.5991616230458L299.4872976666667,202.86762416735291L299.822803,211.1958853006363L300.6940113333333,225.60545290261507L302.6298963333333,207.48586105555296L302.860376,210.36382811516523L303.76042433333333,211.89153679087758L304.242533,212.73619877547026L306.140205,223.9743602965027L308.4339463333333,192.05314540676773L314.518946,181.666913818568L315.6425043333333,220.12468260154128L316.170757,222.52616016566753L317.61588133333333,209.5248189792037L320.14082333333334,200.18610237538815L320.356162,218.73985757492483L325.0013246666667,212.82713590562344L327.50463666666667,225.18517589569092L327.77717466666667,263.7792450413108L329.58640399999996,228.1055042091757L331.262729,232.49585405364633L331.69508866666666,231.59418958611786L332.63887766666664,214.6666465830058L333.086859,221.17920220270753L333.5184976666667,234.77124851569533L333.67735799999997,194.5515465028584L333.9184123333333,203.28007145226002L335.497162,233.26681834086776L335.688948,214.03733706474304L335.94874833333336,224.69123630225658L340.2399,263.1394373755902L340.521811,204.65803230553865L342.45961866666664,151.51806008443236L342.563683,141.09515520185232L344.22390566666667,158.63935025781393L347.92768266666667,236.9327082335949L348.89814866666666,219.29799737781286L350.44084833333335,270.6335522271693L354.6089493333333,158.67063403502107L356.27686266666666,135.97479788959026L356.8962016666667,181.23459378629923L356.9291273333333,177.41811341047287L356.95724633333333,175.30331602692604L358.5206146666667,240.64285536669195L359.306745,206.5818617157638L359.9746313333333,209.41685308143497L363.04513000000003,120.11420373246074L363.2107196666667,148.31061270460486L367.1906396666667,212.73809476196766L369.405071,233.04477725550532L369.57883200000003,228.4846839532256L369.6341086666667,161.69071230478585L370.4531646666667,227.24565677717328L370.6182736666667,206.01034467481077L373.48641166666664,217.9541291706264L374.367714,159.6509643867612L375.99909666666673,205.61051974445581L377.9465176666667,166.90709782205522L378.9268373333333,206.52831765264273L379.0424376666667,208.67360881902277L379.189762,185.6942349150777L379.82640499999997,231.21114764735103L379.9371986666667,200.65126861818135L379.97637299999997,244.2212665490806L380.313801,193.4184136837721L380.872576,219.1270425952971L384.20623966666665,152.41939099878073L384.9899666666667,185.34825249016285L385.6749166666667,203.08687393926084L387.73168933333335,192.83997980318964L388.51349366666665,151.01032192260027L389.41546466666665,200.57326984032989L389.53635233333335,161.83447372540832L390.66664,172.7171553336084L393.684746,186.76504595577717L394.1589236666667,238.87152998149395L395.730944,228.31218429282308L398.478675,208.87310873158276L399.1756416666667,191.15165649354458L403.6934276666667,168.88498040288687L404.8251573333334,176.74479242786765L405.49809066666666,128.12583512067795L406.511336,196.74165668338537L407.69569866666666,175.9272886943072L408.99470033333336,157.21599106118083L413.0705133333334,197.46220177412033L422.67567533333334,231.0387708749622L422.72590499999995,188.227536207065L425.90912000000003,200.96963635087013L427.33309499999996,179.80559929646552L427.5157483333333,177.39509824104607L429.73114100000004,161.83292884752154L429.8856753333333,209.37522915564477L431.45793599999996,200.10683960653841L432.49425333333335,214.04409590549767L438.457404,200.17644688859582L439.2509846666666,203.49396681785583L439.91814999999997,244.8698343746364L441.28156099999995,227.70920792035758L442.006887,194.5296373255551L443.58755933333333,167.34645758196712L444.1506603333333,213.89050344377756L444.3467723333333,189.32452239468694L445.37804266666666,140.96994987130165L446.4311833333333,233.14080546051264L451.34768233333335,226.5572030134499L451.9994663333333,192.965571353212L452.04344733333335,217.59210108220577L453.721695,147.67512367479503L455.0942386666667,200.46776170283556L455.7683736666667,207.5773950703442L456.218518,224.01099848002195L457.303623,200.1151959914714L457.81961866666666,213.47749438509345L458.9256326666666,155.12429662421346L458.9333233333333,192.5426434762776L460.2578003333333,222.30989481694996L460.868247,221.93784257769585L462.2941446666666,228.1467419154942L464.9142586666667,217.14508715458214L464.9704966666667,155.42800557240844L466.92777133333334,184.11168307438493L468.73027133333335,200.50375033542514L468.8076586666666,198.19589588232338L468.88793,184.28065409325063L470.57146500000005,198.9841873794794L470.801464,201.99292484112084L471.3482223333333,196.74759041890502L472.16030866666665,217.30284025333822L472.2453866666667,191.38414306007326L473.82245400000005,224.21709923446178L475.6158213333333,202.36102710850537L476.49279766666666,228.57653396576643L477.5098883333334,193.90599821135402L477.99752466666666,190.57274861633778L480.40638566666667,163.96001503244042L480.8022146666667,229.7551704607904L481.04110599999996,238.3407942056656L481.1841043333333,206.68571964278817L481.930099,228.59703870862722L482.3030963333334,202.07155561447144L482.97074233333336,168.04328528605402L483.1396966666667,223.5144782382995L485.1858946666667,197.23937069438398L487.03501933333337,180.67276734299958L487.18691,181.7777588069439L490.05504799999994,181.95211934298277L490.3350363333333,224.52863790467381L490.440062,232.89471343532205L491.01133433333337,219.61580333672464L492.50789,163.48816017061472L493.25051999999994,217.6114471666515L494.413493,190.96267228387296L497.0751846666667,214.5821171849966L497.491442,145.574985075742L498.00575533333335,182.92584885284305L498.37274433333334,224.64137887954712L500.74555533333336,217.91828098148108L502.7261423333333,222.24936369247735L503.969627,174.717859974131L504.37002233333334,186.82701662555337L504.80790966666666,216.8191003650427L504.811755,228.46330143883824L508.2922623333334,120.72502738237381L509.0031683333333,180.54624535515904L511.90351100000004,241.1779273338616L513.096766,170.82787501066923L515.7005373333333,239.91965940594673L515.8846326666667,189.45983965322375L516.3227603333333,205.4784326851368L517.1660899999999,215.23054456710815L517.3393703333334,186.36678345873952L517.5227446666667,209.05559743195772L517.899347,175.61239693686366L519.1406686666667,191.41723504662514L521.724973,206.0752822123468L521.8066863333333,180.1403989121318L522.2246260000001,126.7643061503768L522.6978423333334,195.74751020781696L523.292427,167.0619542747736L525.490035,205.89642748609185L526.6184000000001,158.7847794443369L527.752533,213.3447753302753L528.0243499999999,183.93735764920712L528.6489763333334,192.3180568534881L531.5591726666667,195.76283609867096L532.5142573333333,185.83516991138458L534.5731930000001,187.21086611412466L535.5830736666667,187.03697957471013L536.1851086666667,209.50599955767393L536.41679,218.083758469671L536.6602476666667,235.0830329619348L537.496848,200.223354998976L539.1827863333334,216.1061743311584L539.4245616666666,177.7411859985441L539.617309,225.9802964553237L539.9475269999999,191.2909412793815L540.9225593333333,212.61815606057644L543.4941259999999,188.94283222407103L543.6460166666667,198.29478562250733L544.3331296666667,187.18082877248526L547.9003973333333,191.8664434030652L548.9446456666667,209.8070751912892L550.5356523333334,188.06446381285787L552.565748,222.33403353393078L555.6208653333334,195.2965287528932L555.7931843333333,226.8440938591957L560.7983663333333,196.0748312100768L562.284828,241.26981245726347L566.3147373333334,193.80621314421296L567.7603423333334,184.74850631691515L568.4568283333333,175.66810031794012L569.7858716666667,231.61859163455665L570.8572776666667,203.81196588650346L573.6324066666667,202.67942995205522L575.567811,185.44796733558178L577.3768,198.07830960862339L577.8889503333334,183.38857489079237L580.800829,190.83927516266704L581.326438,153.6718656346202L582.1632786666667,243.43390548974276L585.864412,224.66904623806477L587.1266426666666,188.11867498233914L588.521297,172.24940844252706L588.7460086666667,212.29046639427543L588.9750463333334,170.25693729892373L589.2735403333334,216.65402665175498L589.6566316666666,188.44404733181L590.2014673333333,156.9673183877021L591.173135,205.82773308642209L592.313036,203.6731199864298L593.5288823333334,205.2035848647356L595.1564196666667,184.9664920978248L595.684432,205.00801736861467L596.610917,159.0031338892877L596.8767256666667,147.46331740543246L597.57922,175.17749625630677L597.719094,224.75241697765887L598.4994563333333,206.7364548370242L598.5592993333333,199.7909120786935L601.7059836666667,173.86710625514388L602.213087,227.63278913125396L603.735118,202.70297178439796L604.5955113333333,225.74747633561492L606.479244,229.29002177342772L606.6902566666666,205.36690303497016L608.3771563333333,191.74309894815087L611.6757313333334,147.32466461509466L613.010783,177.8187107797712L615.375663,195.7415764722973L618.6521273333334,186.41834375821054L618.7006746666667,220.45172271691263L618.894143,199.5628670360893L619.3060743333334,188.18592983670533L622.963467,233.4785017222166L623.0523903333334,152.1001630499959L623.1204046666667,192.84456177055836L624.8666666666667,168.46535294689238L627.3308043333334,172.15534644573927L628.4490753333333,234.2950925733894L629.4654449999999,193.8021051734686L630.901677,168.85474995151162L632.4217853333333,188.8075149655342L634.034422,212.16775393486023L634.5203759999999,206.50800601951778L637.7192126666667,189.0687046609819L638.6896786666666,137.0409567411989L638.8793016666667,225.195814486593L639.2023096666667,174.53779392316937L640.9454473333333,230.71819115802646L645.834308,193.2421571612358L646.2111506666666,216.86593825370073L646.5432913333333,178.6404278166592L647.0100186666666,215.1488767042756L649.820717,164.6420083977282L651.3896129999999,192.19104331359267L651.435757,204.29277401790023L654.7489923333333,213.95654697343707L655.79997,220.9802289530635L657.630589,196.33138627186418L657.660871,179.72465120628476L658.7233846666667,182.52707724831998L660.8625916666667,214.5435479041189L661.923423,172.3461739756167L663.423824,173.67612072639167L664.9023546666667,221.6412260234356L665.50463,225.12190612405539L666.0694133333334,170.02100986801088L667.1941733333334,236.56653706356883L668.0218813333333,193.75354685261846L670.0889883333333,131.68009003065526L671.2865693333333,209.41188489459455L671.4242803333333,189.21206230670214L673.0885886666667,167.23650792054832L674.593556,214.80212184041739L676.2674776666667,195.5790131855756L676.3739453333334,200.9240273423493L678.1848570000001,210.9328522849828L678.9673823333333,200.74220574833453L680.8090566666666,200.1264490224421L680.9083143333334,188.90989823639393L681.5774023333333,174.90285910107195L681.793462,223.1354740485549L683.4786793333334,227.22497648000717L683.4959833333334,226.18170990981162L684.5536903333333,227.15278854966164L684.8853503333333,188.23159151151776L686.1009563333333,193.03537174500525L687.0053306666666,230.53930132091045L688.9330443333333,191.1261484529823L689.061863,196.71750041097403L690.246466,216.3994202427566L694.357608,244.79206381738186L696.0356153333333,168.75986284948885L697.7278023333333,223.74187372997403L698.3608403333333,194.80353715270758L698.6040576666667,186.138001088053L698.6600553333334,183.14446662925184L699.6427783333334,195.08725046552718L701.404662,245.24892634153366L701.614473,211.2588039636612L701.8747539999999,206.66844509914517L703.7536799999999,238.34967725351453L703.8339513333333,222.74835924990475L706.981597,138.88008119910955L707.5060043333333,195.14932646788657L707.6098283333333,198.4967784062028L708.9677116666667,224.5485808737576L709.93265,215.90941306576133L712.9733473333333,198.43115620687604L713.2992393333333,231.17561545595527L714.0743143333334,230.78697333484888L715.471372,228.39453681744635L715.713628,180.9362567998469L716.834783,235.17226721532643L719.9831496666667,215.52329892665148L721.0845973333334,189.7590719666332L722.4155633333334,246.09365854784846L724.245942,195.5808565057814L725.2204936666667,203.6332164928317L726.2988693333334,205.81663805432618L726.5355976666667,228.62554872781038L727.2890426666667,180.60354628041387L728.372225,211.54221883416176L729.6544033333333,254.41819792985916L729.8245593333332,266.0377160683274L730.2823943333334,264.70692665688694L730.3177233333333,219.89786643907428L730.660679,170.13022220134735L730.6611596666667,221.83559975028038L732.5605140000001,226.82495843991637L733.4490263333333,156.30451310798526L734.3464309999999,210.50091847218573L736.8259499999999,247.684162998572L738.1088493333333,198.52093467861414L738.413592,223.83649750053883L738.5085236666666,249.0555932316929L738.9358363333333,232.66189331561327L739.3292620000001,213.8594829980284L739.4335666666667,232.48161659948528L740.110826,220.01722581125796L745.2739069999999,198.93204775080085L745.9569343333333,213.3569236882031L748.15286,208.3861737549305L748.401605,225.9920585937798L750.113259,225.96958764269948L750.6686693333332,255.62420334108174L753.440674,202.7559891846031L753.501959,215.82785053551197L753.7533476666666,241.14583600685L754.024684,271.33984230831265L754.3986426666667,259.00423815846443L755.1946266666667,244.39934883639216L755.3876143333333,214.61512139439583L756.1239956666666,227.61349571309984L756.2766073333333,251.78291714191437L757.2384213333332,222.1610072106123L758.1399116666666,231.87767467834055L758.515072,242.15599303506315L758.8414446666667,214.23695986531675L759.251213,97.75223676487803L759.5595606666667,208.07296731881797L759.897229,199.04736937396228L764.3950673333334,271.9328647516668L765.8738383333334,260.86223470419645L766.7640329999999,224.44228274188936L767.1233313333333,214.27949667349458L767.9664206666667,210.78614155203104L769.0745976666666,193.87013246677816L770.0188673333333,183.76032868772745L771.2837416666666,208.01498173177242L771.9888796666667,204.381253387779L773.728172,201.24604660458863L773.8298329999999,183.00435673817992L776.1214113333334,249.38779464364052L776.390825,223.04262337647378L776.405966,240.94856563396752L777.1899333333334,242.26273005269468L780.3709853333332,220.4762827642262L783.6157256666667,232.78388600237668L788.0755913333333,266.7295580301434L788.2291643333333,227.28125919029117L789.3553663333333,242.9277473166585L790.0554573333334,273.2567724343389L790.3138156666666,221.68883635103703L791.7269756666666,201.25949406437576L792.9490706666666,269.8791602663696L793.207429,203.53279943019152L794.1069966666666,236.29491944238544L795.1017363333334,243.8841671720147L795.340868,225.0824590716511L795.4744933333333,220.09901656210423L796.609107,148.14548632502556L797.5459263333333,200.94040655903518L798.580321,199.7151779513806L799.201102,235.1751463059336L799.7651643333332,205.91903888061643L800.5294243333333,243.4926108494401L800.8029236666666,261.3080373071134L800.9312616666666,192.36775627732277L801.8380393333333,255.34956618584692L801.9560429999999,224.43352258205414L804.7278073333333,221.51944400183856L807.1037426666667,239.55720998719335L808.4462446666666,234.87812597677112L808.4520126666667,205.88492867909372L809.4662193333332,159.80278374999762L809.5904716666666,234.50495018996298L810.0617653333333,220.4410139042884L810.0634476666667,209.28425691463053L811.3343303333332,248.34760027378798L811.842395,240.08324090763927L812.2605750000001,248.90435319766402L813.289442,223.98380511812866L813.459598,194.787895264104L814.078937,200.86191622912884L814.207275,236.89808892458677L814.5026446666667,238.51285498030484L815.0907403333334,222.35150118730962L819.7755579999999,287.344671882689L820.62778,265.77770258672535L821.620597,217.72466213814914L821.8395406666666,230.97383333742619L821.888088,274.38957170024514L824.0066263333333,240.065264146775L827.0583790000001,238.10858852602541L827.6584913333334,202.0037214308977L828.5236913333333,235.34926106594503L831.351213,230.69673842191696L833.884086,224.36414352059364L835.0114896666668,254.68174005299807L835.5637756666667,249.56096141040325L835.8521756666667,235.462089817971L837.1535806666666,195.8109028674662L837.2646146666667,209.19077424705029L838.8642733333334,213.4709988757968L839.0284210000001,208.96706539578736L839.2752433333334,245.71223170869052L839.9190963333333,269.5827017109841L840.4528766666667,228.2919077705592L840.821548,208.06124029122293L843.3935953333332,220.2990606930107L849.3685223333334,237.56593261286616L850.1356663333333,225.55917678773403L850.2885183333333,238.08258893340826L852.9478066666667,215.28489618003368L853.3102293333333,242.55423797667027L857.9212646666666,225.61768903769553L861.6159089999999,249.96131300367415L862.7733543333334,252.51887590065598L865.1339083333334,214.2705960702151L865.2341273333333,266.60833778232336L866.825855,206.6815063394606L867.6852869999999,217.58992420881987L868.0171873333334,201.24093797430396L868.8268703333334,230.15715470910072L869.5017263333333,236.12724752537906L869.9033233333333,237.3896234240383L870.4940626666667,211.7607488334179L871.1970376666667,231.0711430888623L871.2660133333334,252.89951274544L875.9441016666667,254.821586612612L876.188761,228.10402955301106L876.9087996666666,229.20789746940136L878.417372,228.24930074065924L878.4676016666666,205.76032023318112L878.4947593333334,241.63626451417804L879.4027386666667,223.42104823701084L879.7896753333333,256.0351233035326L880.4969763333332,264.9638854935765L883.483118,226.86958434432745L886.3019876666666,249.91487888991833L887.6435283333334,242.05931527912617L890.432837,193.84430842846632L890.7438283333333,238.62893148697913L891.4828533333334,270.6252133976668L896.3724350000001,229.12807292677462L898.5061143333334,237.04239456355572L901.1798226666666,250.25706934183836L901.9734033333333,252.7519417963922L903.9612003333334,252.52789939194918L905.3296583333333,260.580540265888L906.9994943333334,237.01169011555612L909.3948966666667,195.661435931921L909.5253976666667,248.522329473868L910.018081,275.7412871848792L910.2295743333333,220.12292705848813L913.1162180000001,233.3668140731752L913.2152353333333,201.2562814205885L921.2601533333333,207.9129846803844L922.0412366666666,224.2728377263993L922.1912046666666,239.44309968873858L926.1526190000001,201.2453092765063L926.6794296666667,202.19477718137205L927.6590283333333,211.23464769124985L928.216121,260.8993819952011L928.6814063333334,249.5763750784099L929.2384989999999,242.5111218392849L929.8131360000001,241.4667141661048L929.8566363333334,277.25264297705144L930.1056216666666,210.6980132907629L931.5291159999999,238.0291150920093L932.0362193333334,249.4873690456152L934.2182056666668,269.9477668888867L934.3011206666666,208.2788925189525L935.986338,243.21772791817784L937.8138326666666,255.35341082513332L939.4158946666666,235.64954670518637L939.4879946666666,229.80932896398008L940.2551386666668,302.9932491052896L940.6786060000001,245.342742562294L942.47678,276.4658173583448L943.0396406666667,260.6223397459835L943.1763903333333,280.1643603518605L943.8685503333334,262.67346358299255L946.421371,285.6526619326323L946.4985180000001,206.10940996930003L951.6534276666667,260.19049371033907L952.196581,234.04311947897077L952.4559006666666,288.86330440081656L953.5208176666666,269.2640004251152L953.902467,204.1528221257031L954.4076476666667,218.5431840866804L954.5979916666666,267.38341004028916L956.3029163333333,212.96893111802638L958.9064473333333,228.52462255768478L959.2184,207.20911724865437L961.6880653333334,285.60831691510975L963.7650259999999,232.70300813391805L965.4427929999999,279.5701880278066L966.993664,242.92932730540633L967.273412,271.08086459711194L967.8360323333334,254.82532591931522L969.6430986666667,185.7978470660746L969.7303396666666,237.04671319946647L971.104085,189.4062604792416L972.1848640000001,232.2424414139241L972.3670366666666,218.26510606706142L974.851122,305.66328964568675L975.2976613333333,222.86771862208843L978.0160716666667,207.67751369066536L978.1581086666667,225.09364188089967L978.2547226666666,271.082023255527L980.0795736666666,237.83786623179913L980.1124993333333,252.8001490086317L982.1127936666667,251.44012980535626L983.2281806666666,249.04268999025226L983.9527856666666,268.7131812367588L984.8480273333333,270.5956149417907L987.212667,255.21194916591048L989.686418,264.57475182041526L990.0853713333333,238.71460198797286L990.2718699999999,266.7645811140537L990.8215123333333,229.84593203663826L991.8967636666666,217.23207431286573L992.6992366666667,237.92485339008272L993.4875300000001,225.49578412808478L994.5406706666666,256.17570719122887L994.5812870000001,264.11499265022576L998.3554816666666,221.90394304133952L999.5874303333334,215.34511130675673L1000.0971773333334,233.48973719775677L1001.724234,232.15615647286177L1002.4159133333333,268.6565298624337L1002.484889,225.09451965242624L1002.4889746666666,236.59169399552047L1002.9984813333334,230.26434816792607L1003.6519476666666,251.3866559639573L1009.611253,224.58757148496807L1012.3383153333333,235.93738554418087L1013.5267636666666,224.91194317489862L1015.8007976666667,263.8899144753814L1016.4299903333334,280.5156620722264L1016.9894863333333,263.58357221260667L1019.7848033333332,277.38491436839104L1021.1705653333335,246.05057752132416L1023.794765,227.1899885069579L1026.9623583333334,273.06887666136026L1027.6021256666666,263.0236242003739L1029.247688,238.92760202661157L1029.6560143333334,221.88828359730542L1029.7216253333333,246.23513776250184L1031.1931863333334,260.4376566167921L1032.4614253333334,293.2523726988584L1032.6351863333334,254.11508586630225L1033.0908583333332,279.744566119276L1033.7118796666666,268.4350856617093L1034.603997,238.4230589531362L1035.8039813333332,245.06670097261667L1036.9893053333333,267.30577992647886L1037.3627833333333,267.16372138261795L1038.8987536666666,176.53858634084463L1039.0210833333333,279.4511358756572L1040.697168,239.64777845330536L1040.9543246666667,273.7584188617766L1042.5441296666665,255.82365058735013L1045.2173573333332,287.06735752429813L1046.45219,233.37878687679768L1046.4581983333333,272.32689638994634L1047.1073386666667,239.7139975372702L1049.0473093333333,268.69746912643313L1049.1482493333333,258.0044037234038L1050.258349,275.79642879217863L1051.170414,250.45232084020972L1054.2233683333334,262.2747973110527L1056.2623563333334,235.95817117393017L1056.8977976666667,254.05162298493087L1058.8668486666668,229.26523350551724L1059.668841,259.4497598744929L1059.716427,263.9838360287249L1060.0024236666668,229.41552554629743L1061.596795,231.30707051977515L1066.1619266666667,271.492188334465L1066.4255723333333,247.48810395039618L1071.4223426666667,216.0216975994408L1073.060695,275.2757522780448L1073.7093546666667,252.45629079081118L1076.1057183333335,277.6304972860962L1076.866133,284.3320634486154L1079.5679603333333,268.5516537204385L1079.5859853333334,256.4482376947999L1080.86552,260.18954571709037L1080.884987,291.86482658050954L1081.3365733333335,220.3534649722278L1081.7583583333333,252.96741715073586L1083.1412363333334,285.2623871564865L1083.6495413333332,268.73108777590096L1086.267973,245.87105568870902L1090.1358976666666,293.49332098290324L1093.3969806666666,263.9513935931027L1094.963233,311.2309066615999L1096.8063493333334,223.59855119511485L1097.2894193333334,282.6658073151484L1098.726853,233.06017336808145L1100.3337216666666,267.75934202969074L1104.2672573333334,262.9214691501111L1106.299516,257.64414873346686L1107.4850803333334,271.81854378804564L1107.758099,255.67304254882038L1108.6059950000001,287.0160342231393L1108.9314063333334,268.1660837996751L1110.4169066666668,292.882392000407L1110.574325,256.58341450989246L1112.1624476666668,239.85491497814655L1113.2494753333333,261.0048199109733L1113.2973016666667,240.97639099135995L1117.0702946666668,313.3750216141343L1117.230597,271.83343079313636L1119.2332946666666,284.5733803967014L1125.0395076666666,244.17393710836768L1125.7915106666667,287.03329121135175L1127.1885683333333,288.1857964480296L1127.4279403333333,290.0651403972879L1129.999507,275.9674889072776L1130.601542,223.29891510680318L1131.2398673333332,262.4684161543846L1133.4672766666665,267.0662711877376L1135.9251656666665,254.5529183037579L1137.4354203333332,274.9689711295068L1140.4155536666667,249.50123783573508L1140.5388446666666,291.38194690831006L1140.624163,295.0708783036098L1142.2343963333333,270.37545228749514L1143.7557063333334,268.1507579088211L1147.6673716666667,269.639774415642L1149.342495,268.9463173542172L1149.6888153333332,271.7996365893632L1151.154368,273.5462614838034L1151.9147826666667,289.114610388875L1152.276965,268.58641347289085L1152.6377053333333,276.4578471928835L1154.779556,290.779084646143L1155.3111733333335,264.0254599545151L1157.787568,264.45214469358325L1157.9596466666667,283.6569167012349L1159.6018443333332,261.45990933664143L1160.1051023333334,306.98387057427317L1163.0131356666666,235.56398153677583L1163.0251523333334,283.2778510674834L1163.1111916666666,278.08361172582954L1163.3152346666666,269.066045390442L1163.9941763333334,287.260379482992L1165.120138,294.5842066584155L1166.9187926666666,240.40267952159047L1167.382636,267.3403641246259L1167.9404496666666,319.30910824239254L1168.2538443333333,272.27886473201215L1171.767758,257.0143301077187L1172.2469826666668,246.48570642247796L1172.4534290000001,219.45173028297722L1173.2921923333333,230.28834644146264L1175.1309826666666,253.28662754409015L1175.586895,235.73858784884214L1175.6859123333334,263.3633568920195L1178.573277,295.7687768889591L1182.363574,266.3712341375649L1185.9553556666667,290.8651501443237L1186.1699733333335,234.17924428731203L1186.3814666666667,258.89441138505936L1187.9631003333334,291.5145167419687L1193.306912,250.74307388067245L1196.7605019999999,275.5811992138624L1196.9381083333333,253.97748640179634L1197.5209166666666,290.455160619691L1199.6858393333332,256.3707831352949L1201.7603966666668,244.7504047807306L1201.7942836666666,246.98982816562057L1202.1420460000002,289.99931631051004L1204.0067923333334,293.02041279524565L1204.2944713333334,317.3195951888338L1205.059933,289.68461766280234L1205.7840573333333,297.66280595585704L1205.797516,312.9810601975769L1206.493281,274.16031533293426L1209.2100090000001,284.6259150225669L1210.3660123333334,273.8995996341109L1211.5722453333333,296.9061142336577L1211.6662156666666,316.641367463395L1217.2186366666667,269.40137166902423L1217.809376,219.59812501817942L1219.177113,285.694830076769L1220.9928313333332,293.80555309262127L1223.346656,313.6958471070975L1225.5000426666668,321.674491841346L1225.6161236666667,304.2367616938427L1225.960281,278.89235529955477L1230.5881396666666,277.5385770518333L1231.3312503333334,246.0973627436906L1232.9948376666666,298.78046366292983L1233.273384,266.7016624510288L1235.206385,293.798013035208L1236.3114376666665,284.09617990627885L1236.6474236666666,298.7173255570233L1237.6522573333334,289.3090543374419L1238.5184186666665,310.3442608648911L1238.946212,278.3403423419222L1239.5162826666667,281.46087278518826L1239.5383933333333,275.9705786630511L1240.9645313333333,284.60194308217615L1241.5975693333332,246.4134482704103L1241.6891363333334,276.2051718812436L1242.5925493333332,248.38875020295382L1244.0102756666668,292.6442964738235L1244.440232,290.6542743127793L1247.800092,285.02325585950166L1249.489395,263.7372875623405L1253.2857003333334,284.69971805252135L1253.6860956666667,302.3465948216617L1254.1744529999999,296.9947164915502L1255.6046766666666,275.84732198528945L1257.182465,305.6996908308938L1257.753497,279.5679584881291L1259.6874593333334,271.90537294745445L1259.927312,280.8093468695879L1260.6769116666667,285.7944220341742L1261.0511106666665,283.59475292172283L1262.3695793333334,304.30335821956396L1263.5318313333332,272.43846115097404L1263.570525,273.5413108523935L1264.5236869999999,280.3077882193029L1266.7633533333333,303.949774293229L1267.5675086666668,250.40334118902683L1270.3008196666667,304.5302972700447L1274.933485,313.5571679836139L1276.9450749999999,293.95669657178223L1277.0926396666666,317.8558784807101L1277.4471313333333,284.58738963026553L1281.2979923333335,229.56255227699876L1282.2014053333332,295.5426278328523L1282.9721543333333,284.46665215678513L1285.5297816666666,276.30536072328687L1285.999393,284.2467177230865L1286.5088996666666,290.8564602062106L1288.6968943333334,295.9668372562155L1293.7950853333332,304.6745853535831L1294.6581223333333,307.5009043365717L1297.7396763333334,262.84210104867816L1297.9821726666667,303.85077922046185L1298.5529643333332,297.50766861625016L1299.3886033333333,276.42226233519614L1300.5393193333334,298.1226529031992L1300.923372,256.8693749178201L1302.606186,289.505815602839L1303.2923376666665,322.86539080459625L1303.4898916666666,309.3244571276009L1303.767717,296.67151223775L1305.9345623333334,277.585801159963L1306.9593436666667,325.26054841373116L1307.939423,294.6798837548122L1309.1754573333333,313.08788499236107L1309.5080786666665,299.7620667833835L1310.118285,295.3322084425017L1310.13631,300.10196625161916L1310.9825236666666,286.46463570557535L1312.3899156666666,272.6230038367212L1312.4560073333334,266.4986163415015L1312.793916,281.6258674990386L1313.952563,318.5831736344844L1314.4358733333333,293.0191488042474L1314.9081283333335,292.09735703561455L1315.6005286666666,332.6532016545534L1316.3265756666667,310.255307498388L1323.652176,304.014150056988L1324.8067373333333,324.10516408644617L1325.1222950000001,305.48044983670115L1326.8457253333333,297.82162993587554L1327.8392633333333,305.5331336837262L1329.136102,290.90068233571947L1331.728097,328.72395397070795L1333.736803,282.0844943439588L1335.1033383333333,318.9941111523658L1336.1805123333334,279.92658960074186L1336.814031,312.01326442323625L1339.0284623333332,322.80859020911157L1339.3848766666667,273.40653781220317L1343.4686206666668,322.0934873018414L1347.1673506666666,337.5615420322865L1349.5322306666667,326.4082083515823L1349.889366,306.87220925837755L1349.9544963333333,307.10361616592854L1352.9108366666667,280.1222273185849L1353.0903656666667,289.34439341910183L1353.615494,317.15321359597147L1353.626309,309.67702283896506L1354.027185,289.028632667847L1356.9671826666668,299.42939137481153L1357.072689,303.0478816051036L1357.6168036666668,304.97365966811776L1358.1842306666665,318.66150596551597L1361.586149,309.7911682482809L1362.8933220000001,283.40079174749553L1362.9476373333332,346.08849552832544L1363.491031,332.64665347896516L1363.624416,292.7722843401134L1365.9868926666668,298.47349818237126L1366.0335173333333,321.34464285708964L1371.5832946666667,329.4948568139225L1376.595206,302.60458942875266L1379.5734166666668,333.33556368388236L1385.4978736666667,298.26450078189373L1387.172997,309.6653572553769L1390.8303896666666,321.1242168713361L1391.122635,311.0995744857937L1392.544447,295.18601559475064L1395.3395236666665,337.17679721675813L1396.193428,337.66750661097467L1400.1339333333333,316.8392522763461L1404.440226,307.7841260973364L1404.4613753333333,308.1021076105535L1404.862011,314.8599477056414L1408.4391323333334,308.07287781871855" style="fill: none;" fill="none"></path></g></g></g></g></g></g><g transform="translate(50, 377)" clip-path="url(#clip_1)"><clipPath id="clip_1"><rect width="1442" height="23"></rect></clipPath><g><g><line x1="0" y1="0" x2="0" y2="5" style="visibility: inherit;" fill="rgb(0, 0, 0)" stroke="rgb(204, 204, 204)" stroke-width="1px"></line><line x1="120.16666666666666" y1="0" x2="120.16666666666666" y2="5" style="visibility: inherit;" fill="rgb(0, 0, 0)" stroke="rgb(204, 204, 204)" stroke-width="1px"></line><line x1="240.33333333333331" y1="0" x2="240.33333333333331" y2="5" style="visibility: inherit;" fill="rgb(0, 0, 0)" stroke="rgb(204, 204, 204)" stroke-width="1px"></line><line x1="360.5" y1="0" x2="360.5" y2="5" style="visibility: inherit;" fill="rgb(0, 0, 0)" stroke="rgb(204, 204, 204)" stroke-width="1px"></line><line x1="480.66666666666663" y1="0" x2="480.66666666666663" y2="5" style="visibility: inherit;" fill="rgb(0, 0, 0)" stroke="rgb(204, 204, 204)" stroke-width="1px"></line><line x1="600.8333333333334" y1="0" x2="600.8333333333334" y2="5" style="visibility: inherit;" fill="rgb(0, 0, 0)" stroke="rgb(204, 204, 204)" stroke-width="1px"></line><line x1="721" y1="0" x2="721" y2="5" style="visibility: inherit;" fill="rgb(0, 0, 0)" stroke="rgb(204, 204, 204)" stroke-width="1px"></line><line x1="841.1666666666667" y1="0" x2="841.1666666666667" y2="5" style="visibility: inherit;" fill="rgb(0, 0, 0)" stroke="rgb(204, 204, 204)" stroke-width="1px"></line><line x1="961.3333333333333" y1="0" x2="961.3333333333333" y2="5" style="visibility: inherit;" fill="rgb(0, 0, 0)" stroke="rgb(204, 204, 204)" stroke-width="1px"></line><line x1="1081.5" y1="0" x2="1081.5" y2="5" style="visibility: inherit;" fill="rgb(0, 0, 0)" stroke="rgb(204, 204, 204)" stroke-width="1px"></line><line x1="1201.6666666666667" y1="0" x2="1201.6666666666667" y2="5" style="visibility: inherit;" fill="rgb(0, 0, 0)" stroke="rgb(204, 204, 204)" stroke-width="1px"></line><line x1="1321.8333333333333" y1="0" x2="1321.8333333333333" y2="5" style="visibility: inherit;" fill="rgb(0, 0, 0)" stroke="rgb(204, 204, 204)" stroke-width="1px"></line><line x1="1442" y1="0" x2="1442" y2="5" style="visibility: inherit;" fill="rgb(0, 0, 0)" stroke="rgb(204, 204, 204)" stroke-width="1px"></line></g><g transform="translate(0, 8)"><text x="0" y="0" dx="0em" dy="0.95em" style="text-anchor: middle; visibility: hidden; font-family: Roboto, sans-serif; font-size: 12px; font-weight: 200;" fill="rgb(33, 33, 33)" stroke="none" stroke-width="1px">-2M</text><text x="120.16666666666666" y="0" dx="0em" dy="0.95em" style="text-anchor: middle; visibility: inherit; font-family: Roboto, sans-serif; font-size: 12px; font-weight: 200;" fill="rgb(33, 33, 33)" stroke="none" stroke-width="1px">0</text><text x="240.33333333333331" y="0" dx="0em" dy="0.95em" style="text-anchor: middle; visibility: inherit; font-family: Roboto, sans-serif; font-size: 12px; font-weight: 200;" fill="rgb(33, 33, 33)" stroke="none" stroke-width="1px">2M</text><text x="360.5" y="0" dx="0em" dy="0.95em" style="text-anchor: middle; visibility: inherit; font-family: Roboto, sans-serif; font-size: 12px; font-weight: 200;" fill="rgb(33, 33, 33)" stroke="none" stroke-width="1px">4M</text><text x="480.66666666666663" y="0" dx="0em" dy="0.95em" style="text-anchor: middle; visibility: inherit; font-family: Roboto, sans-serif; font-size: 12px; font-weight: 200;" fill="rgb(33, 33, 33)" stroke="none" stroke-width="1px">6M</text><text x="600.8333333333334" y="0" dx="0em" dy="0.95em" style="text-anchor: middle; visibility: inherit; font-family: Roboto, sans-serif; font-size: 12px; font-weight: 200;" fill="rgb(33, 33, 33)" stroke="none" stroke-width="1px">8M</text><text x="721" y="0" dx="0em" dy="0.95em" style="text-anchor: middle; visibility: inherit; font-family: Roboto, sans-serif; font-size: 12px; font-weight: 200;" fill="rgb(33, 33, 33)" stroke="none" stroke-width="1px">10M</text><text x="841.1666666666667" y="0" dx="0em" dy="0.95em" style="text-anchor: middle; visibility: inherit; font-family: Roboto, sans-serif; font-size: 12px; font-weight: 200;" fill="rgb(33, 33, 33)" stroke="none" stroke-width="1px">12M</text><text x="961.3333333333333" y="0" dx="0em" dy="0.95em" style="text-anchor: middle; visibility: inherit; font-family: Roboto, sans-serif; font-size: 12px; font-weight: 200;" fill="rgb(33, 33, 33)" stroke="none" stroke-width="1px">14M</text><text x="1081.5" y="0" dx="0em" dy="0.95em" style="text-anchor: middle; visibility: inherit; font-family: Roboto, sans-serif; font-size: 12px; font-weight: 200;" fill="rgb(33, 33, 33)" stroke="none" stroke-width="1px">16M</text><text x="1201.6666666666667" y="0" dx="0em" dy="0.95em" style="text-anchor: middle; visibility: inherit; font-family: Roboto, sans-serif; font-size: 12px; font-weight: 200;" fill="rgb(33, 33, 33)" stroke="none" stroke-width="1px">18M</text><text x="1321.8333333333333" y="0" dx="0em" dy="0.95em" style="text-anchor: middle; visibility: inherit; font-family: Roboto, sans-serif; font-size: 12px; font-weight: 200;" fill="rgb(33, 33, 33)" stroke="none" stroke-width="1px">20M</text><text x="1442" y="0" dx="0em" dy="0.95em" style="text-anchor: middle; visibility: hidden; font-family: Roboto, sans-serif; font-size: 12px; font-weight: 200;" fill="rgb(33, 33, 33)" stroke="none" stroke-width="1px">22M</text></g><line x1="0" y1="0" x2="1442" y2="0" fill="rgb(0, 0, 0)" stroke="rgb(204, 204, 204)" stroke-width="1px"></line></g></g></g></g></svg>