<svg viewBox="0 0 1492 400" xmlns="http://www.w3.org/2000/svg"><g><g><g><g><g><line x1="60" y1="377" x2="55" y2="377" style="visibility: inherit;" fill="rgb(0, 0, 0)" stroke="rgb(204, 204, 204)" stroke-width="1px"></line><line x1="60" y1="348" x2="55" y2="348" style="visibility: inherit;" fill="rgb(0, 0, 0)" stroke="rgb(204, 204, 204)" stroke-width="1px"></line><line x1="60" y1="319" x2="55" y2="319" style="visibility: inherit;" fill="rgb(0, 0, 0)" stroke="rgb(204, 204, 204)" stroke-width="1px"></line><line x1="60" y1="290" x2="55" y2="290" style="visibility: inherit;" fill="rgb(0, 0, 0)" stroke="rgb(204, 204, 204)" stroke-width="1px"></line><line x1="60" y1="261" x2="55" y2="261" style="visibility: inherit;" fill="rgb(0, 0, 0)" stroke="rgb(204, 204, 204)" stroke-width="1px"></line><line x1="60" y1="232" x2="55" y2="232" style="visibility: inherit;" fill="rgb(0, 0, 0)" stroke="rgb(204, 204, 204)" stroke-width="1px"></line><line x1="60" y1="203.00000000000003" x2="55" y2="203.00000000000003" style="visibility: inherit;" fill="rgb(0, 0, 0)" stroke="rgb(204, 204, 204)" stroke-width="1px"></line><line x1="60" y1="173.99999999999997" x2="55" y2="173.99999999999997" style="visibility: inherit;" fill="rgb(0, 0, 0)" stroke="rgb(204, 204, 204)" stroke-width="1px"></line><line x1="60" y1="145" x2="55" y2="145" style="visibility: inherit;" fill="rgb(0, 0, 0)" stroke="rgb(204, 204, 204)" stroke-width="1px"></line><line x1="60" y1="116" x2="55" y2="116" style="visibility: inherit;" fill="rgb(0, 0, 0)" stroke="rgb(204, 204, 204)" stroke-width="1px"></line><line x1="60" y1="86.99999999999999" x2="55" y2="86.99999999999999" style="visibility: inherit;" fill="rgb(0, 0, 0)" stroke="rgb(204, 204, 204)" stroke-width="1px"></line><line x1="60" y1="58" x2="55" y2="58" style="visibility: inherit;" fill="rgb(0, 0, 0)" stroke="rgb(204, 204, 204)" stroke-width="1px"></line><line x1="60" y1="29.00000000000002" x2="55" y2="29.00000000000002" style="visibility: inherit;" fill="rgb(0, 0, 0)" stroke="rgb(204, 204, 204)" stroke-width="1px"></line><line x1="60" y1="0" x2="55" y2="0" style="visibility: inherit;" fill="rgb(0, 0, 0)" stroke="rgb(204, 204, 204)" stroke-width="1px"></line></g><g transform="translate(50, 0)"><text x="0" y="377" dx="0em" dy="0.3em" style="text-anchor: end; visibility: hidden; font-family: Roboto, sans-serif; font-size: 12px; font-weight: 200;" fill="rgb(33, 33, 33)" stroke="none" stroke-width="1px">-0.11</text><text x="0" y="348" dx="0em" dy="0.3em" style="text-anchor: end; visibility: inherit; font-family: Roboto, sans-serif; font-size: 12px; font-weight: 200;" fill="rgb(33, 33, 33)" stroke="none" stroke-width="1px">-0.1</text><text x="0" y="319" dx="0em" dy="0.3em" style="text-anchor: end; visibility: inherit; font-family: Roboto, sans-serif; font-size: 12px; font-weight: 200;" fill="rgb(33, 33, 33)" stroke="none" stroke-width="1px">-0.09</text><text x="0" y="290" dx="0em" dy="0.3em" style="text-anchor: end; visibility: inherit; font-family: Roboto, sans-serif; font-size: 12px; font-weight: 200;" fill="rgb(33, 33, 33)" stroke="none" stroke-width="1px">-0.08</text><text x="0" y="261" dx="0em" dy="0.3em" style="text-anchor: end; visibility: inherit; font-family: Roboto, sans-serif; font-size: 12px; font-weight: 200;" fill="rgb(33, 33, 33)" stroke="none" stroke-width="1px">-0.07</text><text x="0" y="232" dx="0em" dy="0.3em" style="text-anchor: end; visibility: inherit; font-family: Roboto, sans-serif; font-size: 12px; font-weight: 200;" fill="rgb(33, 33, 33)" stroke="none" stroke-width="1px">-0.06</text><text x="0" y="203.00000000000003" dx="0em" dy="0.3em" style="text-anchor: end; visibility: inherit; font-family: Roboto, sans-serif; font-size: 12px; font-weight: 200;" fill="rgb(33, 33, 33)" stroke="none" stroke-width="1px">-0.05</text><text x="0" y="173.99999999999997" dx="0em" dy="0.3em" style="text-anchor: end; visibility: inherit; font-family: Roboto, sans-serif; font-size: 12px; font-weight: 200;" fill="rgb(33, 33, 33)" stroke="none" stroke-width="1px">-0.04</text><text x="0" y="145" dx="0em" dy="0.3em" style="text-anchor: end; visibility: inherit; font-family: Roboto, sans-serif; font-size: 12px; font-weight: 200;" fill="rgb(33, 33, 33)" stroke="none" stroke-width="1px">-0.03</text><text x="0" y="116" dx="0em" dy="0.3em" style="text-anchor: end; visibility: inherit; font-family: Roboto, sans-serif; font-size: 12px; font-weight: 200;" fill="rgb(33, 33, 33)" stroke="none" stroke-width="1px">-0.02</text><text x="0" y="86.99999999999999" dx="0em" dy="0.3em" style="text-anchor: end; visibility: inherit; font-family: Roboto, sans-serif; font-size: 12px; font-weight: 200;" fill="rgb(33, 33, 33)" stroke="none" stroke-width="1px">-0.01</text><text x="0" y="58" dx="0em" dy="0.3em" style="text-anchor: end; visibility: inherit; font-family: Roboto, sans-serif; font-size: 12px; font-weight: 200;" fill="rgb(33, 33, 33)" stroke="none" stroke-width="1px">0</text><text x="0" y="29.00000000000002" dx="0em" dy="0.3em" style="text-anchor: end; visibility: inherit; font-family: Roboto, sans-serif; font-size: 12px; font-weight: 200;" fill="rgb(33, 33, 33)" stroke="none" stroke-width="1px">0.01</text><text x="0" y="0" dx="0em" dy="0.3em" style="text-anchor: end; visibility: hidden; font-family: Roboto, sans-serif; font-size: 12px; font-weight: 200;" fill="rgb(33, 33, 33)" stroke="none" stroke-width="1px">0.02</text></g><line x1="60" y1="0" x2="60" y2="377" fill="rgb(0, 0, 0)" stroke="rgb(204, 204, 204)" stroke-width="1px"></line></g></g><g transform="translate(60, 0)" clip-path="url(#clip_0)"><clipPath id="clip_0"><rect width="1432" height="377"></rect></clipPath><g><g><g><line x1="0" y1="0" x2="0" y2="377" fill="rgb(0, 0, 0)" stroke="rgb(66, 66, 66)" stroke-width="1px" opacity="0.25"></line><line x1="119.33333333333333" y1="0" x2="119.33333333333333" y2="377" fill="rgb(0, 0, 0)" stroke="rgb(66, 66, 66)" stroke-width="1px" opacity="0.25"></line><line x1="238.66666666666666" y1="0" x2="238.66666666666666" y2="377" fill="rgb(0, 0, 0)" stroke="rgb(66, 66, 66)" stroke-width="1px" opacity="0.25"></line><line x1="358" y1="0" x2="358" y2="377" fill="rgb(0, 0, 0)" stroke="rgb(66, 66, 66)" stroke-width="1px" opacity="0.25"></line><line x1="477.3333333333333" y1="0" x2="477.3333333333333" y2="377" fill="rgb(0, 0, 0)" stroke="rgb(66, 66, 66)" stroke-width="1px" opacity="0.25"></line><line x1="596.6666666666667" y1="0" x2="596.6666666666667" y2="377" fill="rgb(0, 0, 0)" stroke="rgb(66, 66, 66)" stroke-width="1px" opacity="0.25"></line><line x1="716" y1="0" x2="716" y2="377" fill="rgb(0, 0, 0)" stroke="rgb(66, 66, 66)" stroke-width="1px" opacity="0.25"></line><line x1="835.3333333333334" y1="0" x2="835.3333333333334" y2="377" fill="rgb(0, 0, 0)" stroke="rgb(66, 66, 66)" stroke-width="1px" opacity="0.25"></line><line x1="954.6666666666666" y1="0" x2="954.6666666666666" y2="377" fill="rgb(0, 0, 0)" stroke="rgb(66, 66, 66)" stroke-width="1px" opacity="0.25"></line><line x1="1074" y1="0" x2="1074" y2="377" fill="rgb(0, 0, 0)" stroke="rgb(66, 66, 66)" stroke-width="1px" opacity="0.25"></line><line x1="1193.3333333333335" y1="0" x2="1193.3333333333335" y2="377" fill="rgb(0, 0, 0)" stroke="rgb(66, 66, 66)" stroke-width="1px" opacity="0.25"></line><line x1="1312.6666666666665" y1="0" x2="1312.6666666666665" y2="377" fill="rgb(0, 0, 0)" stroke="rgb(66, 66, 66)" stroke-width="1px" opacity="0.25"></line><line x1="1432" y1="0" x2="1432" y2="377" fill="rgb(0, 0, 0)" stroke="rgb(66, 66, 66)" stroke-width="1px" opacity="0.25"></line></g><g><line x1="0" y1="377" x2="1432" y2="377" fill="rgb(0, 0, 0)" stroke="rgb(66, 66, 66)" stroke-width="1px" opacity="0.25"></line><line x1="0" y1="348" x2="1432" y2="348" fill="rgb(0, 0, 0)" stroke="rgb(66, 66, 66)" stroke-width="1px" opacity="0.25"></line><line x1="0" y1="319" x2="1432" y2="319" fill="rgb(0, 0, 0)" stroke="rgb(66, 66, 66)" stroke-width="1px" opacity="0.25"></line><line x1="0" y1="290" x2="1432" y2="290" fill="rgb(0, 0, 0)" stroke="rgb(66, 66, 66)" stroke-width="1px" opacity="0.25"></line><line x1="0" y1="261" x2="1432" y2="261" fill="rgb(0, 0, 0)" stroke="rgb(66, 66, 66)" stroke-width="1px" opacity="0.25"></line><line x1="0" y1="232" x2="1432" y2="232" fill="rgb(0, 0, 0)" stroke="rgb(66, 66, 66)" stroke-width="1px" opacity="0.25"></line><line x1="0" y1="203.00000000000003" x2="1432" y2="203.00000000000003" fill="rgb(0, 0, 0)" stroke="rgb(66, 66, 66)" stroke-width="1px" opacity="0.25"></line><line x1="0" y1="173.99999999999997" x2="1432" y2="173.99999999999997" fill="rgb(0, 0, 0)" stroke="rgb(66, 66, 66)" stroke-width="1px" opacity="0.25"></line><line x1="0" y1="145" x2="1432" y2="145" fill="rgb(0, 0, 0)" stroke="rgb(66, 66, 66)" stroke-width="1px" opacity="0.25"></line><line x1="0" y1="116" x2="1432" y2="116" fill="rgb(0, 0, 0)" stroke="rgb(66, 66, 66)" stroke-width="1px" opacity="0.25"></line><line x1="0" y1="86.99999999999999" x2="1432" y2="86.99999999999999" fill="rgb(0, 0, 0)" stroke="rgb(66, 66, 66)" stroke-width="1px" opacity="0.25"></line><line x1="0" y1="58" x2="1432" y2="58" fill="rgb(0, 0, 0)" stroke="rgb(66, 66, 66)" stroke-width="1px" opacity="0.25"></line><line x1="0" y1="29.00000000000002" x2="1432" y2="29.00000000000002" fill="rgb(0, 0, 0)" stroke="rgb(66, 66, 66)" stroke-width="1px" opacity="0.25"></line><line x1="0" y1="0" x2="1432" y2="0" fill="rgb(0, 0, 0)" stroke="rgb(66, 66, 66)" stroke-width="1px" opacity="0.25"></line></g></g></g><g><g><line x1="0" y1="58" x2="1432" y2="58" fill="rgb(0, 0, 0)" stroke="rgb(153, 153, 153)" stroke-width="1.5px"></line></g></g><g><g><line x1="119.33333333333333" y1="0" x2="119.33333333333333" y2="377" fill="rgb(0, 0, 0)" stroke="rgb(153, 153, 153)" stroke-width="1.5px"></line></g></g><g><g><g><g><g><path stroke="rgb(255, 112, 67)" stroke-width="2px" d="M120.52356400000001,148.62500000000003L121.00232933333332,261.90625000000006L123.77659066666666,204.10969387755105L125.83174933333332,261.90625000000006L128.51102133333333,330.69257460097157L128.94324666666665,292.32549006444685L131.00747466666667,195.895882167031L133.95095066666667,139.79525417638723L135.32925066666667,289.8392502852426L140.66201866666668,342.4214948968617L140.78803466666665,337.3846233163083L144.26063466666668,334.3742209991969L145.66733599999998,332.57217900761253L146.49932800000002,295.2140320049471L147.50053466666668,200.28378442597455L148.138252,179.61443960623953L148.85472933333335,203.47270217059742L152.00441333333333,217.78507486630926L154.033796,153.86715001877886L154.941684,296.7755149675139L155.911148,346.26639465949336L157.54959466666668,303.4592733610719L158.78254666666666,350.27593374195953L159.84342,233.36500627661877L160.90190666666666,271.9691135185601L161.21288933333335,186.3813221140024L161.241768,280.02888911578435L161.35227066666667,227.46730119170317L162.5802106666667,268.4303958081417L163.67091733333334,329.2582509323374L166.88217733333332,293.25494578376737L170.04737466666666,271.65296575103207L171.47102133333334,258.6917788316971L172.32091333333335,250.91506707620627L173.95124533333333,209.99903954234827L174.65411866666668,221.6994238460917L177.05224133333334,228.7196543511008L177.59902666666667,232.931792626301L177.76895733333333,271.7090756621731L178.654172,222.47544533149087L179.348692,229.18526720427607L179.80430666666666,196.9611603070585L180.41768,177.62669617865248L181.25444533333334,238.52601771774187L182.58310266666666,202.5656106269072L182.60362800000001,289.73936638158114L184.57573066666666,269.543619828193L184.621316,184.9261718950159L186.52969466666667,206.65570313730228L190.43428133333333,255.94342188277983L190.47366133333335,249.26605312963548L191.40732533333332,317.75963187798055L193.68038666666666,322.60577912679685L196.2894906666667,325.51346747608113L199.467576,291.008080485627L205.80011866666666,234.05484829135474L206.88462,236.1329089748133L207.83499066666667,164.8797453848783L214.348204,230.8778472309324L214.80262533333334,234.22670833855958L215.44416133333334,344.986025003139L216.79238933333332,302.69161500188267L218.279044,241.06496900112893L219.24063199999998,240.33898140067737L219.9762026666667,167.40338884040614L220.76833733333333,159.89203330424365L221.511068,191.63521998254626L221.85427066666668,174.43113198952776L222.58817066666668,164.1086791937166L223.05142266666667,194.16520751623L225.57269733333334,175.94912450973797L225.67246,201.26947470584284L227.090856,143.9616848235057L228.684672,109.57701089410342L229.34673333333336,161.44620653646209L229.8042573333333,156.31772392187722L230.51238133333334,153.24063435312635L232.619092,151.39438061187582L232.73556133333335,150.28662836712545L233.41170400000001,258.3719770202753L233.749656,286.97318621216516L233.80574266666667,231.6339117272991L234.26088000000001,234.68034703637946L234.290236,200.25820822182772L235.6761733333333,179.60492493309658L236.04777733333333,203.462954959858L239.053068,181.5277729759148L241.594868,204.61666378554892L242.081748,218.4699982713293L243.79990933333335,190.53199896279764L246.55030399999998,137.51919937767855L246.8589,214.46151962660716L248.79472533333333,151.87691177596432L249.20332266666665,223.0761470655786L251.06874133333335,229.5456882393472L251.131988,233.42741294360832L252.85134266666668,163.25644776616497L252.875448,121.15386865969899L254.67069866666668,95.8923211958194L254.76210799999998,153.23539271749166L259.47887733333334,260.141235630495L259.9757813333333,179.28474137829699L260.68486,203.2708448269782L261.60301066666665,217.66250689618695L264.7526946666666,153.79750413771214L266.6901906666667,115.47850248262732L269.00072266666666,128.7371014895764L270.9327293333333,172.94226089374584L273.97978666666666,199.46535653624753L274.169288,179.1292139217485L274.83898666666664,130.67752835304913L275.2122613333333,174.10651701182948L275.532552,127.66391020709769L275.94329733333336,136.04834612425861L277.252384,141.07900767455513L279.19704,107.84740460473309L279.462676,124.15844276283984L282.5603306666667,97.69506565770394L284.1787293333333,118.06703939462234L285.1553533333333,166.54022363677345L285.693308,123.12413418206408L285.77875066666667,278.3244805092384L286.56372533333337,226.44468830554305L288.81387466666666,195.31681298332583L289.31316533333336,140.39008778999548L291.52298,143.6840526739973L291.7637946666666,290.6604316043984L293.82110133333333,233.84625896263904L294.64163733333334,163.5077553775834L295.83950533333336,230.05465322655007L297.4104093333333,233.73279193593007L297.743588,199.689675161558L298.60875466666664,143.01380509693482L300.53121466666664,109.0082830581609L300.760096,161.10496983489656L301.6539026666667,156.11298190093797L302.13266799999997,261.86778914056276L304.01718,289.07067348433765L306.29501466666665,196.6424040906026L312.337816,177.43544245436152L313.45358266666665,165.91126547261698L313.978172,122.74675928357016L315.41327466666667,133.09805557014212L317.92070666666666,139.30883334208528L318.134552,106.78530000525116L322.74750133333333,123.5211800031507L325.23345333333333,97.31270800189043L325.5041013333333,154.08762480113427L327.30078399999996,151.90257488068056L328.965484,150.59154492840835L329.3948453333333,186.05492695704504L330.33208933333333,171.08295617422706L330.77696399999996,162.0997737045362L331.2056093333333,156.7098642227217L331.363368,153.4759185336331L331.6027506666667,224.03555112017986L333.170552,157.62133067210792L333.361008,117.77279840326474L333.6190066666667,130.11367904195885L337.8804,137.51820742517532L338.16035600000004,178.21092445510521L340.0847253333333,166.37655467306314L340.188068,159.2759328038379L341.8367773333334,155.01555968230275L345.5148693333333,116.20933580938166L346.47860533333335,92.92560148562899L348.01060666666666,115.20536089137738L352.1498026666667,92.32321653482647L353.80614933333334,151.09392992089587L354.42119333333335,222.60635795253754L354.45389066666667,156.76381477152253L354.48181466666665,153.50828886291353L356.0343413333333,187.8049733177481L356.81502,172.13298399064888L357.47827466666666,126.47979039438931L360.52748,99.08787423663361L360.69192133333337,118.90272454198019L364.64424133333335,167.0416347251881L366.843316,232.1749808351129L367.01587200000006,235.00498850106774L367.0707653333333,200.4529931006406L367.88414133333333,179.7217958603844L368.04810533333335,167.28307751623063L370.8963533333333,159.8198465097384L371.771544,191.59190790584302L373.3916133333334,138.15514474350584L375.32552933333335,142.34308684610352L376.29905066666663,144.8558521076621L376.4138493333333,218.86351126459726L376.560152,154.5181067587584L377.19237999999996,115.91086405525503L377.30240533333335,92.74651843315306L377.34130799999997,78.84791105989183L377.676396,179.25874663593513L378.231296,167.00524798156107L381.5418413333333,195.90314878893662L382.32013333333333,213.24188927336198L383.00033333333334,259.8951335640172L385.0428426666667,215.38708013841034L385.81922533333335,224.93224808304618L386.71494133333334,266.9093488498277L386.83499066666667,219.59560930989664L387.95744,263.70736558593796L390.954616,181.4244193515628L391.4255053333333,277.0546516109377L392.986624,225.6827909665626L395.7153,267.3596745799376L396.40743333333336,256.1158047479625L400.89388933333333,176.86948284877752L402.0177706666667,201.8216897092665L402.6860373333333,180.5430138255599L403.692256,131.52580829533596L404.8684053333333,174.6154849772016L406.1583986666667,200.46929098632097L410.2059466666667,143.48157459179257L419.7444986666667,218.03894475507553L419.79438,190.27336685304533L422.95552000000004,173.61402011182722L424.36962,127.36841206709633L424.55100666666664,135.8710472402578L426.751036,249.72262834415469L426.90449866666665,245.5335770064928L428.465856,243.02014620389565L429.4949866666667,241.51208772233738L435.416784,240.60725263340242L436.2048613333333,240.06435158004143L436.8674,348.4886109480248L438.22135599999996,304.7931665688149L438.94165200000003,206.07589994128895L440.5113626666667,146.84553996477337L441.0705586666666,183.80732397886405L441.26531066666666,205.98439438731845L442.2894293333333,183.04063663239106L443.33526666666666,278.0243819794346L448.21767066666666,262.51462918766083L448.86493466666667,253.2087775125965L448.9086106666667,247.62526650755788L450.57522000000006,171.77515990453475L451.9382453333333,162.51509594272082L452.60770533333334,301.95905756563246L453.054728,204.37543453937948L454.132308,218.32526072362774L454.6447253333333,262.9451564341767L455.7430693333333,180.967093860506L455.75070666666664,168.0302563163036L457.06599866666664,196.51815378978216L457.672212,177.3608922738693L459.0882213333333,93.36653536432155L461.6901653333333,151.71992121859296L461.74601333333334,150.48195273115576L463.68971466666665,185.98917163869348L465.4797146666667,171.0435029832161L465.5565653333333,234.57610178992968L465.63628,200.19566107395778L467.30814000000004,179.56739664437467L467.536544,203.44043798662483L468.07951066666664,145.26426279197491L468.88596533333333,146.60855767518493L468.97045333333335,111.16513460511095L470.536584,198.6490807630666L472.3175146666667,178.63944845783996L473.18840933333337,130.383669074704L474.1984466666667,101.43020144482236L474.68270133333334,229.05812086689343L477.07485733333334,160.63487252013604L477.4679413333334,119.58092351208161L477.70517599999994,203.69855410724898L477.8471826666667,181.66913246434942L478.588004,168.45147947860966L478.95841466666667,196.7708876871658L479.6214306666667,141.26253261229948L479.78921333333335,289.2075195673797L481.82122133333337,269.22451174042783L483.6575226666667,184.7347070442567L483.80836000000005,242.79082422655404L486.65660799999995,205.1244945359324L486.93465466666663,255.02469672155948L487.038952,212.46481803293568L487.6062626666667,259.4288908197614L489.09244,215.10733449185685L489.82991999999996,188.51440069511412L490.98482800000005,136.30864041706846L493.62806133333333,141.2351842502411L494.041432,107.94111055014467L494.5521786666667,160.4646663300868L494.9166226666667,191.9787997980521L497.2729786666667,174.63727987883124L499.23983066666665,164.23236792729878L500.474692,266.7394207563792L500.8723106666667,183.24365245382756L501.30716133333334,241.89619147229655L501.31098,168.33771488337794L504.7673506666667,160.45262893002678L505.47332666666665,191.97157735801608L508.353556,174.63294641480965L509.538536,236.72976784888579L512.1242506666666,237.73786070933147L512.3070693333334,202.09271642559887L512.7421586666667,144.45562985535935L513.57964,291.1233779132156L513.7517186666666,270.3740267479293L513.9338213333333,221.6744160487576L514.307812,192.45464962925453L515.5405253333333,174.92278977755274L518.106908,200.6536738665316L518.1880546666666,216.092204319919L518.603096,189.1053225919514L519.0730306666667,209.16319355517084L519.663492,148.69791613310252L521.84586,221.16874967986152L522.9664,192.15124980791688L524.092668,138.49074988475013L524.3625999999999,70.0444499308501L524.9828946666667,101.47666995851007L527.8729093333334,156.586001975106L528.8213706666667,117.15160118506364L530.866028,93.49096071103817L531.8689053333333,151.79457642662288L532.4667653333333,259.27674585597373L532.6968400000001,178.76604751358425L532.9386093333334,130.45962850815056L533.769408,173.97577710489034L535.4436546666667,127.58546626293422L535.6837533333332,172.25127975776053L535.875164,162.8007678546563L536.203092,120.88046071279378L537.1713626666667,131.97827642767626L539.725096,138.63696585660577L539.8759333333334,215.13217951396345L540.5582813333333,188.5293077083781L544.1008106666667,136.31758462502685L545.1378173333334,177.49055077501612L546.7177906666666,165.94433046500967L548.733808,159.01659827900582L551.7677386666667,154.8599589674035L551.9388626666668,116.11597538044212L556.9093346666667,92.86958522826528L558.385488,115.17175113695917L562.3874506666667,92.30305068217548L563.8230306666667,114.8318304093053L564.5146866666666,92.09909824558318L565.8345133333333,78.45945894734989L566.8984893333334,70.27567536840996L569.6543733333333,101.61540522104596L571.576356,84.1692431326276L573.3728,109.95154587957656L573.8813986666667,89.17092752774592L576.7730839999999,76.70255651664759L577.2950480000001,69.22153390998857L578.1260853333333,64.73292034599315L581.801552,62.03975220759586L583.0550293333333,96.67385132455756L584.440012,81.20431079473452L584.6631653333334,71.92258647684072L584.8906146666667,66.35355188610446L585.1870386666667,26.76213113166269L585.5674733333333,75.5072786789976L586.1085306666666,104.75436720739854L587.07346,49.802620324439154L588.205456,53.08157219466349L589.4128706666667,55.04894331679809L591.0291213333334,19.979365990078847L591.553472,35.18761959404732L592.473532,116.81257175642841L592.7374973333334,93.28754305385701L593.43512,79.17252583231424L593.574024,70.70351549938853L594.3489746666667,138.12210929963314L594.4084026666667,142.32326557977987L597.5332653333334,144.84395934786795L598.036852,110.10637560872077L599.5483280000001,89.26382536523245L600.4027546666666,76.75829521913948L602.273424,141.75497713148368L602.4829733333333,144.5029862788902L604.1581746666667,109.90179176733416L607.4338746666667,89.1410750604005L608.7596679999999,76.68464503624027L611.108148,69.2107870217442L614.3618906666667,64.7264722130465L614.4101013333334,62.035883327827925L614.602228,60.42152999669674L615.0113026666667,59.45291799801805L618.643332,95.12175079881085L618.7316386666666,80.27305047928651L618.7991813333333,71.3638302875719L620.5333333333333,66.01829817254315L622.9803826666666,62.81097890352588L624.0908986666667,97.13658734211555L625.1002199999999,117.73195240526934L626.526492,130.0891714431616L628.0360586666667,101.25350286589695L629.637512,156.45210171953818L630.120096,117.07126103172291L633.2967493333333,93.44275661903373L634.2604853333333,115.51565397142026L634.4487933333334,92.50939238285217L634.7695613333334,78.7056354297113L636.5006106666667,70.4233812578268L641.355568,65.4540287546961L641.7297973333333,98.72241725281766L642.0596346666666,82.43345035169058L642.5231253333334,108.91007021101436L645.314332,88.54604212660864L646.872348,112.57762527596519L646.918172,126.99657516557913L650.2084306666667,135.64794509934748L651.25212,104.58876705960847L653.0700439999999,85.95326023576509L653.1001160000001,111.02195614145906L654.1552613333333,89.81317368487547L656.2796333333333,77.08790421092527L657.3331079999999,69.45274252655516L658.823104,64.87164551593311L660.2913813333333,98.37298730955989L660.88948,118.47379238573593L661.4503466666667,166.78427543144159L662.5673066666667,195.77056525886493L663.3892746666667,176.912339155319L665.4420466666667,129.3474034931914L666.6313226666666,137.05844209591484L666.7680786666667,105.43506525754891L668.4208453333333,86.46103915452936L669.915376,111.32662349271762L671.5776893333333,89.99597409563054L671.6834186666666,77.19758445737834L673.481772,69.51855067442699L674.2588706666667,64.91113040465622L676.0877733333333,98.39667824279373L676.1863426666666,118.48800694567622L676.8507906666667,94.29280416740573L677.065352,79.77568250044344L678.7388826666667,71.06540950026604L678.7560666666666,65.83924570015964L679.8064386666666,98.95354742009579L680.1357986666667,82.57212845205746L681.3429746666667,72.74327707123453L682.2410773333334,66.8459662427407L684.1554226666666,63.30757974564442L684.2833479999999,61.18454784738663L685.459736,59.91072870843197L689.542368,131.6464372250592L691.2087386666667,102.18786233503553L692.8891906666667,120.76271740102132L693.5178386666666,95.65763044061279L693.7593693333333,80.59457826436766L693.8149786666667,144.05674695862058L694.7908866666667,109.63404817517237L696.5405519999999,88.98042890510345L696.748908,76.58825734306203L697.007384,105.40295440583726L698.8732799999999,122.69177264350232L698.9529946666667,96.8150635861014L702.078812,81.28903815166082L702.5995826666666,71.97342289099649L702.7026866666666,102.63405373459793L704.0511533333333,121.03043224075877L705.0094,95.81825934445524L708.0290106666666,80.69095560667316L708.3526426666666,71.6145733640039L709.1223426666667,138.66874401840235L710.509712,178.90124641104143L710.750288,94.29074784662484L711.863668,116.0244487079749L714.9902013333334,201.56466922478498L716.0840106666667,144.13880153487096L717.4057466666667,182.18328092092258L719.223432,132.50996855255354L720.1912253333334,102.70598113153211L721.2621226666668,84.82358867891926L721.4972093333333,74.09415320735158L722.2454293333333,103.90649192441099L723.3211,121.79389515464656L724.5943866666667,96.27633709278793L724.7633626666666,153.46580225567277L725.2180226666667,115.27948135340368L725.2531066666667,92.36768881204219L725.5936839999999,114.87061328722532L725.5941613333333,92.12236797233517L727.4803440000001,78.47342078340112L728.3626946666667,70.28405247004068L729.253876,65.3704314820244L731.7162,98.67225888921463L732.9902026666666,118.6533553335288L733.292832,94.39201320011729L733.3871053333332,79.83520792007037L733.8114546666666,107.35112475204221L734.2021520000001,123.86067485122533L734.3057333333334,133.76640491073522L734.9782959999999,139.7098429464411L740.1055719999999,107.02590576786467L740.7838626666667,87.41554346071881L742.96456,75.64932607643127L743.21158,68.58959564585876L744.9113639999999,64.35375738751527L745.4629226666666,61.81225443250917L748.215704,96.53735265950549L748.2765640000001,117.37241159570334L748.5262093333333,93.623446957422L748.795664,151.8740681744532L749.1670293333334,114.32444090467193L749.9574933333333,91.79466454280313L750.1491426666666,78.27679872568186L750.8804173333333,178.91607923540917L751.0319706666667,130.5496475412455L751.9871146666666,174.02978852474732L752.8823533333333,127.61787311484838L753.2549120000001,99.770723868909L753.5790213333333,119.31243432134545L753.985948,94.78746059280724L754.2921573333334,80.07247635568436L754.627484,71.24348581341063L759.0941306666667,138.4460914880464L760.5626466666668,178.76765489282784L761.4466679999999,130.4605929356967L761.8034746666667,101.47635576141803L762.6407173333333,84.0858134568508L763.7412093333334,73.6514880741105L764.6789306666667,31.140892844466286L765.9350333333333,41.88453570667979L766.6352813333334,48.330721424007855L768.362512,52.19843285440475L768.4634679999999,90.76905971264284L770.7391546666668,77.66143582758569L771.0066999999999,106.04686149655143L771.021736,86.82811689793087L771.8002666666667,111.5468701387585L774.9592586666666,90.1281220832551L778.1814973333333,113.52687324995307L782.6104346666666,163.81612394997182L782.7629426666666,121.4896743699831L783.8813346666667,96.09380462198989L784.5765706666667,117.10628277319393L784.8331373333333,129.71376966391634L786.2364973333333,137.2782617983498L787.4501173333333,141.81695707900988L787.706684,108.29017424740591L788.6000133333333,88.17410454844357L789.5878546666667,76.10446272906611L789.825328,105.11267763743972L789.9580266666666,122.51760658246386L791.084772,132.96056394947828L792.0150946666666,102.97633836968699L793.042316,121.23580302181222L793.6587920000001,168.44148181308734L794.2189426666666,88.0148890878524L794.9779026666666,148.50893345271146L795.2495053333333,184.80536007162686L795.3769533333333,97.83321604297615L796.2774426666666,81.89992962578569L796.3946279999999,72.33995777547139L799.1471706666666,66.60397466528285L801.5066293333333,99.41238479916973L802.8398213333334,82.84743087950181L802.8455493333333,72.9084585277011L803.8527226666666,66.9450751166207L803.9761133333334,135.8670450699724L804.4441386666666,104.72022704198342L804.4458093333334,86.03213622519004L805.7078786666666,74.81928173511403L806.2124200000001,104.34156904106845L806.6277000000001,85.80494142464107L807.6494319999999,74.68296485478467L807.8184080000001,104.25977891287077L808.433452,85.75586734772246L808.5609000000001,74.65352040863347L808.8542213333334,67.9921122451801L809.4382386666667,63.99526734710806L814.090568,61.59716040826482L814.93688,60.15829624495895L815.9228119999999,59.29497774697533L816.1402373333333,58.77698664818525L816.188448,58.466191988911106L818.2922946666666,58.279715193346675L821.322884,130.667829116008L821.9188346666667,101.60069746960481L822.7780346666666,84.16041848176289L825.585948,109.94625108905772L828.101256,161.66775065343464L829.2208413333334,120.2006503920608L829.7692973333334,95.32039023523647L830.0556973333333,80.3922341411419L831.3480773333332,107.68534048468516L831.4583413333334,124.06120429081109L833.0469066666667,97.63672257448665L833.209916,118.03203354469203L833.4550266666666,94.0192201268152L834.0944146666667,79.61153207608912L834.6244933333334,70.96691924565349L834.990608,102.03015154739214L837.5448186666666,120.66809092843525L843.4783106666667,131.85085455706118L844.2401346666667,138.5605127342367L844.3919266666666,142.58630764054203L847.0327733333334,108.75178458432525L847.3926826666666,88.45107075059514L851.9717413333333,76.27064245035709L855.6407639999999,68.96238547021424L856.7901826666667,100.82743128212857L859.1343666666667,83.69645876927711L859.2338906666666,109.66787526156628L860.8145800000001,89.00072515693975L861.668052,149.10043509416386L861.9976506666667,148.91026105649829L862.8017186666667,112.546156633899L863.4718946666666,90.72769398033938L863.8707066666667,113.88661638820366L864.4573493333334,91.5319698329222L865.1554493333333,114.36918189975333L865.2239466666666,91.82150913985198L869.8695933333335,150.7929054839112L870.112556,113.67574329034672L870.8276013333333,91.405445974208L872.325712,78.04326758452484L872.3755933333333,106.27596055071488L872.4025626666668,123.21557633042893L873.3042453333334,133.37934579825736L873.6884986666666,139.4776074789544L874.3908946666666,179.38656448737262L877.356328,167.0819386924236L880.1556493333334,159.6991632154542L881.4878866666667,191.5194979292725L884.257852,138.11169875756352L884.5666866666667,178.5670192545381L885.3005866666667,202.84021155272288L890.1562600000001,181.15412693163373L892.2751426666667,131.89247615898023L894.9303093333333,138.58548569538814L895.7183866666666,106.3512914172329L897.6923986666667,123.26077485033973L899.0513666666667,97.15646491020384L900.7096226666666,81.49387894612231L903.0884133333334,108.34632736767337L903.2180093333334,124.45779642060404L903.7072760000001,97.87467785236241L903.9173026666667,118.17480671141746L906.7839280000001,130.35488402685047L906.8822586666666,101.41293041611031L914.8713866666667,84.04775824966616L915.6470533333332,109.87865494979971L915.7959813333333,89.12719296987981L919.7299240000001,76.67631578192788L920.2530813333334,69.20578946915674L921.2258866666666,137.22347368149403L921.779116,105.53408420889645L922.2411746666667,195.2704505253379L922.794404,140.3622703152027L923.3650560000001,107.41736218912162L923.4082546666667,51.400417313472985L923.6555133333333,90.29025038808379L925.069136,77.37415023285027L925.5727226666668,69.62449013971018L927.7395773333334,64.97469408382611L927.8219173333333,62.18481645029569L929.495448,96.76088987017742L931.3102693333333,117.50653392210647L932.9012213333333,93.70392035326387L932.9728213333333,79.42235221195833L933.7346453333333,143.35341132717502L934.155176,145.462046796305L935.94088,182.977228077783L936.4998373333334,169.23633684666981L936.6356386666666,124.74180210800188L937.3229986666666,170.54508126480113L939.858116,161.77704875888068L939.9347280000001,120.26622925532844L945.0538893333334,95.35973755319705L945.5932760000001,116.66584253191823L945.8507973333333,129.44950551915096L946.9083293333333,100.86970331149055L947.287332,83.72182198689431L947.7890093333333,73.43309319213662L947.9780333333333,103.509855915282L949.6711346666666,85.30591354916919L952.2566106666666,74.3835481295015L952.5664,104.0801288777009L955.0189386666667,158.14807732662055L957.081496,118.08884639597233L958.747628,94.0533078375834L960.287744,79.63198470255003L960.565552,70.97919082153001L961.1242706666667,102.03751449291805L962.9188053333334,84.4225086957508L963.0054413333334,73.85350521745048L964.3696600000001,67.51210313047032L965.442944,63.70726187828222L965.6238533333334,61.42435712696929L968.090712,96.30461427618158L968.5341546666666,80.98276856570898L971.2337133333334,108.03966113942538L971.3747653333334,88.02379668365522L971.4707093333333,76.01427801019317L973.2829053333334,105.05856680611589L973.3156026666667,86.23514008366953L975.3020253333334,74.94108405020171L976.4096773333333,104.41465043012106L977.1292573333333,85.84879025807263L978.0182906666668,110.95927415484354L980.366532,89.77556449290613L982.823128,77.06533869574366L983.2193146666667,69.4392032174462L983.4045199999999,101.11352193046775L983.9503506666666,83.86811315828068L985.0181453333332,73.52086789496839L985.8150533333334,67.312520736981L986.59788,63.587512442188654L987.6437173333334,61.35250746531318L987.6840520000001,60.01150447918795L991.4320733333333,59.20690268751274L992.6554786666667,58.72414161250767L993.1616906666667,94.6844849675046L994.777464,80.01069098050276L995.4643466666666,107.45641458830166L995.532844,87.673848752981L995.5369013333333,112.05430925178862L996.0428746666668,90.43258555107315L996.6918093333334,77.45955133064389L1002.609788,69.67573079838634L1005.3179386666667,101.25543847903182L1006.4981453333332,120.20326308741907L1008.7564093333334,131.57195785245145L1009.3812386666667,138.3931747114709L1009.9368546666667,142.48590482688255L1012.7127866666666,108.69154289612949L1014.0889386666668,88.41492573767772L1016.69494,76.24895544260663L1019.8405666666667,68.94937326556399L1020.4758973333334,64.56962395933839L1022.1100479999999,61.94177437560304L1022.5155426666666,96.61506462536184L1022.5806986666668,81.16903877521712L1024.0420546666667,71.90142326513026L1025.3014986666667,102.59085395907817L1025.4740546666667,84.75451237544691L1025.9265666666668,74.05270742526814L1026.5432813333334,67.63162445516087L1027.429212,63.77897467309653L1028.6208746666666,25.21738480385793L1029.7979786666667,38.33043088231479L1030.1688666666666,46.19825852938885L1031.6941853333333,50.918955117633296L1031.8156666666666,53.75137307058L1033.480128,55.450823842348L1033.7355013333333,92.72049430540882L1035.3142813333334,78.83229658324528L1037.9689706666666,106.74937794994719L1039.19524,123.49962676996832L1039.2012066666666,169.79977606198094L1039.8458453333333,125.07986563718863L1041.7723626666666,98.24791938231316L1041.8726026666666,82.1487516293879L1042.975004,72.48925097763274L1043.880744,102.94355058657962L1046.9125266666667,157.46613035194778L1048.9373746666668,117.67967821116865L1049.5684093333334,93.80780692670123L1051.5238053333333,79.48468415602073L1052.320236,143.39081049361246L1052.3674919999999,145.4844862961675L1052.6515053333335,110.49069177770045L1054.23482,89.4944150666203L1058.7682933333333,40.64664903997215L1059.0301106666666,47.587989423983316L1063.9922293333334,88.00279365438998L1065.61922,76.00167619263401L1066.2633813333334,68.8010057155804L1068.6431266666666,28.23060342934822L1069.398268,40.13836205760898L1072.0813586666668,83.53301723456536L1072.0992586666666,73.31981034073922L1073.36992,67.19188620444355L1073.389252,63.51513172266612L1073.8377066666667,133.8090790335997L1074.2565666666667,103.4854474201598L1075.6298546666667,49.04126845209589L1076.1346346666667,52.62476107125755L1078.734908,54.77485664275454L1082.5760093333333,56.064913985652716L1085.8144773333333,56.838948391391654L1087.369868,57.30336903483499L1089.2002026666667,93.83202142090099L1089.6799226666667,79.49921285254061L1091.107388,70.89952771152437L1092.7031133333332,65.73971662691463L1096.6093706666666,62.643829976148794L1098.627536,97.03629798568927L1099.8048786666666,81.42177879141356L1100.076004,72.05306727484817L1100.91802,102.68184036490888L1101.2411746666667,84.80910421894535L1102.7163733333334,74.08546253136724L1102.8727,67.65127751882032L1104.4498093333334,63.79076651129222L1105.5292986666668,61.47445990677529L1105.5767933333334,96.33467594406521L1109.3236213333334,153.50080556643908L1109.482812,187.8004833398635L1111.4716213333334,135.8802900039181L1117.2375693333333,68.47817400235084L1117.9843573333333,64.28690440141054L1119.3717266666665,61.77214264084631L1119.6094386666666,60.26328558450777L1122.163172,95.60797135070467L1122.7610320000001,80.56478281042278L1123.3949306666666,71.53886968625369L1125.6068933333333,102.3733218117522L1128.0477373333333,84.62399308705133L1129.5475186666667,73.9743958522308L1132.5069853333334,67.58463751133847L1132.6294213333333,136.2507825068031L1132.714148,104.95046950408184L1134.3132146666667,122.4202817024491L1135.8239746666668,96.65216902146945L1139.7085133333333,81.19130141288167L1141.37202,71.91478084772903L1141.7159386666665,66.34886850863742L1143.1713280000001,63.00932110518246L1143.9264693333334,97.25559266310947L1144.28614,81.55335559786568L1144.6443786666666,108.3820133587194L1146.7713760000001,88.22920801523165L1147.2993066666668,76.13752480913898L1149.7585279999998,68.88251488548342L1149.9294133333333,64.52950893129007L1151.5602226666665,61.91770535877403L1152.0599906666666,96.60062321526442L1154.9478573333333,44.91037392915866L1154.9597906666668,50.14622435749521L1155.0452333333333,53.28773461449716L1155.2478613333333,18.9226407686983L1155.9220946666667,34.55358446121895L1157.040248,80.18215067673138L1158.8264293333334,71.30929040603883L1159.287056,65.98557424362333L1159.8410013333332,62.79134454617398L1160.1522226666666,97.12480672770438L1163.641768,117.72488403662265L1164.1176693333334,130.08493042197358L1164.322684,101.25095825318414L1165.1556306666666,120.2005749519105L1166.9816693333335,95.32034497114628L1167.43442,80.39220698268781L1167.5327506666665,71.43532418961267L1170.4000919999999,102.3111945137676L1174.164104,84.58671670826057L1177.7309773333334,146.45203002495634L1177.9441066666666,111.07121801497382L1178.1541333333332,126.09273080898429L1179.7247986666666,135.1056384853906L1185.0315520000001,104.26338309123435L1188.461192,85.75802985474061L1188.6375666666665,74.65481791284438L1189.2163333333333,67.99289074770661L1191.3662426666667,63.99573444862397L1193.4264133333334,61.59744066917439L1193.4600653333332,60.15846440150464L1193.8054160000002,59.29507864090278L1195.6572306666667,58.77704718454168L1195.9429146666666,58.46622831072501L1196.703068,22.029736986434983L1197.4221706666667,108.917842191861L1197.435536,88.55070531511664L1198.1264760000001,76.33042318906995L1200.824364,68.99825391344197L1201.9723506666667,100.8489523480652L1203.1702186666666,83.70937140883913L1203.2635373333333,109.67562284530347L1208.7774533333334,89.00537370718207L1209.364096,76.60322422430924L1210.722348,105.41193453458557L1212.5254746666667,86.44716072075131L1214.8629760000001,111.31829643245082L1217.0014293333334,89.99097785947048L1217.1167053333334,77.19458671568229L1217.458476,105.76675202940937L1222.0542413333333,86.66005121764564L1222.7921986666668,111.44603073058737L1224.4442493333333,126.31761843835247L1224.7208640000001,135.2405710630115L1226.64046,104.34434263780683L1227.7378493333333,85.80660558268416L1228.0715053333333,110.93396334961047L1229.0693706666666,89.76037800976627L1229.9295253333332,77.05622680585978L1230.354352,105.68373608351587L1230.9204693333334,86.61024165010951L1230.9424266666667,75.16614499006572L1232.3586746666667,104.54968699403942L1232.9873226666666,85.92981219642367L1233.0782546666667,111.00788731785418L1233.9754026666667,126.05473239071253L1235.3832973333333,98.83283943442753L1235.810272,82.49970366065652L1239.1468320000001,72.69982219639392L1240.8244200000001,66.81989331783637L1244.5943986666666,63.2919359907018L1244.9920173333335,133.6751615944211L1245.476988,139.65509695665264L1246.8972933333332,106.99305817399161L1248.46414,87.39583490439496L1249.0312119999999,75.63750094263698L1250.9517626666668,68.58250056558222L1251.189952,28.09950033934935L1251.9343533333333,40.0597002036096L1252.3059573333333,47.23582012216576L1253.6152826666666,87.79149207329947L1254.7694746666666,112.12489524397971L1254.8079,90.47493714638782L1255.754452,113.73496228783269L1257.9785866666666,91.4409773726996L1258.7771653333334,78.06458642361979L1261.4915213333334,70.03875185417185L1266.0920600000002,65.22325111250312L1268.0897,98.58395066750187L1268.2362413333333,82.35037040050113L1268.5882746666666,72.6102222403007L1272.4124306666668,66.76613334418037L1273.3095786666668,99.50968000650822L1274.0749826666668,119.15580800390494L1276.6148733333334,130.94348480234297L1277.081228,101.76609088140582L1277.5872013333333,84.25965452884348L1279.7600226666666,146.25579271730606L1284.8228586666667,110.95347563038366L1285.6799106666667,89.77208537823017L1288.7400946666667,77.06325122693814L1288.9809093333333,69.43795073616288L1289.5477426666666,64.8627704416977L1290.3775866666667,62.11766226501867L1291.5203226666667,60.470597359011194L1291.901712,23.232358415406758L1293.572856,37.13941504924405L1294.2542493333333,45.48364902954643L1294.4504333333334,50.490189417727834L1294.726332,53.4941136506367L1296.8781506666667,55.29646819038202L1297.8958253333333,128.87788091422925L1298.869108,136.77672854853753L1300.0965706666666,105.26603712912254L1300.4268853333333,86.35962227747352L1301.03286,75.01577336648413L1301.05076,68.20946401989048L1301.8911053333334,64.12567841193432L1303.2887373333333,61.675407047160576L1303.3543706666667,60.20524422829634L1303.689936,59.32314653697778L1304.840548,95.0438879221867L1305.3205066666667,116.47633275331201L1305.7894866666668,165.58579965198717L1306.4770853333332,122.5514797911923L1307.1980973333332,96.73088787471538L1314.472896,117.48853272482923L1315.6194506666666,129.94311963489756L1315.93282,137.41587178093852L1317.6442986666666,105.64952306856313L1318.6309466666667,86.58971384113785L1319.918792,75.1538283046827L1322.492812,68.29229698280966L1324.487588,64.1753781896858L1325.8446466666667,25.455226913811497L1326.9143506666667,74.7231361482869L1327.543476,104.28388168897216L1329.7425506666666,85.7703290133833L1330.0964933333332,74.66219740802998L1334.1519173333334,140.497318444818L1337.8249973333334,143.7483910668908L1340.1734773333333,145.69903464013447L1340.5281360000001,110.61942078408067L1340.5928146666668,89.57165247044841L1343.5286533333333,76.94299148226904L1343.7069373333334,69.36579488936142L1344.228424,64.81947693361688L1344.239164,62.09168616017009L1344.63726,96.70501169610208L1347.5568693333332,81.22300701766126L1347.661644,71.93380421059676L1348.2019853333334,66.36028252635806L1348.7654773333334,63.016169515814845L1352.143804,61.00970170948891L1353.441912,96.05582102569335L1353.4958506666667,80.833492615416L1354.035476,71.7000955692496L1354.167936,102.47005734154976L1356.5140293333334,84.68203440492987L1356.5603306666667,74.00922064295796L1362.0716213333333,67.60553238577477L1367.048776,63.763319431464886L1370.0063333333335,25.207991658878903L1375.8897053333333,38.32479499532733L1377.553212,82.44487699719642L1381.1852413333334,72.66692619831785L1381.47546,30.5501557189907L1382.887412,41.53009343139441L1385.6631053333333,84.3680560588367L1386.511088,37.570833635301994L1390.4242666666667,81.99250018118121L1394.7006959999999,108.6455001087087L1394.7216986666667,52.13730006522523L1395.1195559999999,54.48238003913514L1398.6718706666666,55.88942802348112" style="fill: none;" fill="none"></path></g></g></g></g><g opacity="0.2"><g><g><g><path stroke="rgb(255, 112, 67)" stroke-width="2px" d="M120.52356400000001,148.62500000000003L121.00232933333332,329.875L123.77659066666666,148.62500000000003L125.83174933333332,329.875L128.51102133333333,420.5L128.94324666666665,239.25L131.00747466666667,58L133.95095066666667,58L135.32925066666667,511.125L140.66201866666668,420.5L140.78803466666665,329.875L144.26063466666668,329.875L145.66733599999998,329.875L146.49932800000002,239.25L147.50053466666668,58L148.138252,148.62500000000003L148.85472933333335,239.25L152.00441333333333,239.25L154.033796,58L154.941684,511.125L155.911148,420.5L157.54959466666668,239.25L158.78254666666666,420.5L159.84342,58L160.90190666666666,329.875L161.21288933333335,58L161.241768,420.5L161.35227066666667,148.62500000000003L162.5802106666667,329.875L163.67091733333334,420.5L166.88217733333332,239.25L170.04737466666666,239.25L171.47102133333334,239.25L172.32091333333335,239.25L173.95124533333333,148.62500000000003L174.65411866666668,239.25L177.05224133333334,239.25L177.59902666666667,239.25L177.76895733333333,329.875L178.654172,148.62500000000003L179.348692,239.25L179.80430666666666,148.62500000000003L180.41768,148.62500000000003L181.25444533333334,329.875L182.58310266666666,148.62500000000003L182.60362800000001,420.5L184.57573066666666,239.25L184.621316,58L186.52969466666667,239.25L190.43428133333333,329.875L190.47366133333335,239.25L191.40732533333332,420.5L193.68038666666666,329.875L196.2894906666667,329.875L199.467576,239.25L205.80011866666666,148.62500000000003L206.88462,239.25L207.83499066666667,58L214.348204,329.875L214.80262533333334,239.25L215.44416133333334,511.125L216.79238933333332,239.25L218.279044,148.62500000000003L219.24063199999998,239.25L219.9762026666667,58L220.76833733333333,148.62500000000003L221.511068,239.25L221.85427066666668,148.62500000000003L222.58817066666668,148.62500000000003L223.05142266666667,239.25L225.57269733333334,148.62500000000003L225.67246,239.25L227.090856,58L228.684672,58L229.34673333333336,239.25L229.8042573333333,148.62500000000003L230.51238133333334,148.62500000000003L232.619092,148.62500000000003L232.73556133333335,148.62500000000003L233.41170400000001,420.5L233.749656,329.875L233.80574266666667,148.62500000000003L234.26088000000001,239.25L234.290236,148.62500000000003L235.6761733333333,148.62500000000003L236.04777733333333,239.25L239.053068,148.62500000000003L241.594868,239.25L242.081748,239.25L243.79990933333335,148.62500000000003L246.55030399999998,58L246.8589,329.875L248.79472533333333,58L249.20332266666665,329.875L251.06874133333335,239.25L251.131988,239.25L252.85134266666668,58L252.875448,58L254.67069866666668,58L254.76210799999998,239.25L259.47887733333334,420.5L259.9757813333333,58L260.68486,239.25L261.60301066666665,239.25L264.7526946666666,58L266.6901906666667,58L269.00072266666666,148.62500000000003L270.9327293333333,239.25L273.97978666666666,239.25L274.169288,148.62500000000003L274.83898666666664,58L275.2122613333333,239.25L275.532552,58L275.94329733333336,148.62500000000003L277.252384,148.62500000000003L279.19704,58L279.462676,148.62500000000003L282.5603306666667,58L284.1787293333333,148.62500000000003L285.1553533333333,239.25L285.693308,58L285.77875066666667,511.125L286.56372533333337,148.62500000000003L288.81387466666666,148.62500000000003L289.31316533333336,58L291.52298,148.62500000000003L291.7637946666666,511.125L293.82110133333333,148.62500000000003L294.64163733333334,58L295.83950533333336,329.875L297.4104093333333,239.25L297.743588,148.62500000000003L298.60875466666664,58L300.53121466666664,58L300.760096,239.25L301.6539026666667,148.62500000000003L302.13266799999997,420.5L304.01718,329.875L306.29501466666665,58L312.337816,148.62500000000003L313.45358266666665,148.62500000000003L313.978172,58L315.41327466666667,148.62500000000003L317.92070666666666,148.62500000000003L318.134552,58L322.74750133333333,148.62500000000003L325.23345333333333,58L325.5041013333333,239.25L327.30078399999996,148.62500000000003L328.965484,148.62500000000003L329.3948453333333,239.25L330.33208933333333,148.62500000000003L330.77696399999996,148.62500000000003L331.2056093333333,148.62500000000003L331.363368,148.62500000000003L331.6027506666667,329.875L333.170552,58L333.361008,58L333.6190066666667,148.62500000000003L337.8804,148.62500000000003L338.16035600000004,239.25L340.0847253333333,148.62500000000003L340.188068,148.62500000000003L341.8367773333334,148.62500000000003L345.5148693333333,58L346.47860533333335,58L348.01060666666666,148.62500000000003L352.1498026666667,58L353.80614933333334,239.25L354.42119333333335,329.875L354.45389066666667,58L354.48181466666665,148.62500000000003L356.0343413333333,239.25L356.81502,148.62500000000003L357.47827466666666,58L360.52748,58L360.69192133333337,148.62500000000003L364.64424133333335,239.25L366.843316,329.875L367.01587200000006,239.25L367.0707653333333,148.62500000000003L367.88414133333333,148.62500000000003L368.04810533333335,148.62500000000003L370.8963533333333,148.62500000000003L371.771544,239.25L373.3916133333334,58L375.32552933333335,148.62500000000003L376.29905066666663,148.62500000000003L376.4138493333333,329.875L376.560152,58L377.19237999999996,58L377.30240533333335,58L377.34130799999997,58L377.676396,329.875L378.231296,148.62500000000003L381.5418413333333,239.25L382.32013333333333,239.25L383.00033333333334,329.875L385.0428426666667,148.62500000000003L385.81922533333335,239.25L386.71494133333334,329.875L386.83499066666667,148.62500000000003L387.95744,329.875L390.954616,58L391.4255053333333,420.5L392.986624,148.62500000000003L395.7153,329.875L396.40743333333336,239.25L400.89388933333333,58L402.0177706666667,239.25L402.6860373333333,148.62500000000003L403.692256,58L404.8684053333333,239.25L406.1583986666667,239.25L410.2059466666667,58L419.7444986666667,329.875L419.79438,148.62500000000003L422.95552000000004,148.62500000000003L424.36962,58L424.55100666666664,148.62500000000003L426.751036,420.5L426.90449866666665,239.25L428.465856,239.25L429.4949866666667,239.25L435.416784,239.25L436.2048613333333,239.25L436.8674,511.125L438.22135599999996,239.25L438.94165200000003,58L440.5113626666667,58L441.0705586666666,239.25L441.26531066666666,239.25L442.2894293333333,148.62500000000003L443.33526666666666,420.5L448.21767066666666,239.25L448.86493466666667,239.25L448.9086106666667,239.25L450.57522000000006,58L451.9382453333333,148.62500000000003L452.60770533333334,511.125L453.054728,58L454.132308,239.25L454.6447253333333,329.875L455.7430693333333,58L455.75070666666664,148.62500000000003L457.06599866666664,239.25L457.672212,148.62500000000003L459.0882213333333,-32.624999999999964L461.6901653333333,239.25L461.74601333333334,148.62500000000003L463.68971466666665,239.25L465.4797146666667,148.62500000000003L465.5565653333333,329.875L465.63628,148.62500000000003L467.30814000000004,148.62500000000003L467.536544,239.25L468.07951066666664,58L468.88596533333333,148.62500000000003L468.97045333333335,58L470.536584,329.875L472.3175146666667,148.62500000000003L473.18840933333337,58L474.1984466666667,58L474.68270133333334,420.5L477.07485733333334,58L477.4679413333334,58L477.70517599999994,329.875L477.8471826666667,148.62500000000003L478.588004,148.62500000000003L478.95841466666667,239.25L479.6214306666667,58L479.78921333333335,511.125L481.82122133333337,239.25L483.6575226666667,58L483.80836000000005,329.875L486.65660799999995,148.62500000000003L486.93465466666663,329.875L487.038952,148.62500000000003L487.6062626666667,329.875L489.09244,148.62500000000003L489.82991999999996,148.62500000000003L490.98482800000005,58L493.62806133333333,148.62500000000003L494.041432,58L494.5521786666667,239.25L494.9166226666667,239.25L497.2729786666667,148.62500000000003L499.23983066666665,148.62500000000003L500.474692,420.5L500.8723106666667,58L501.30716133333334,329.875L501.31098,58L504.7673506666667,148.62500000000003L505.47332666666665,239.25L508.353556,148.62500000000003L509.538536,329.875L512.1242506666666,239.25L512.3070693333334,148.62500000000003L512.7421586666667,58L513.57964,511.125L513.7517186666666,239.25L513.9338213333333,148.62500000000003L514.307812,148.62500000000003L515.5405253333333,148.62500000000003L518.106908,239.25L518.1880546666666,239.25L518.603096,148.62500000000003L519.0730306666667,239.25L519.663492,58L521.84586,329.875L522.9664,148.62500000000003L524.092668,58L524.3625999999999,-32.624999999999964L524.9828946666667,148.62500000000003L527.8729093333334,239.25L528.8213706666667,58L530.866028,58L531.8689053333333,239.25L532.4667653333333,420.5L532.6968400000001,58L532.9386093333334,58L533.769408,239.25L535.4436546666667,58L535.6837533333332,239.25L535.875164,148.62500000000003L536.203092,58L537.1713626666667,148.62500000000003L539.725096,148.62500000000003L539.8759333333334,329.875L540.5582813333333,148.62500000000003L544.1008106666667,58L545.1378173333334,239.25L546.7177906666666,148.62500000000003L548.733808,148.62500000000003L551.7677386666667,148.62500000000003L551.9388626666668,58L556.9093346666667,58L558.385488,148.62500000000003L562.3874506666667,58L563.8230306666667,148.62500000000003L564.5146866666666,58L565.8345133333333,58L566.8984893333334,58L569.6543733333333,148.62500000000003L571.576356,58L573.3728,148.62500000000003L573.8813986666667,58L576.7730839999999,58L577.2950480000001,58L578.1260853333333,58L581.801552,58L583.0550293333333,148.62500000000003L584.440012,58L584.6631653333334,58L584.8906146666667,58L585.1870386666667,-32.624999999999964L585.5674733333333,148.62500000000003L586.1085306666666,148.62500000000003L587.07346,-32.624999999999964L588.205456,58L589.4128706666667,58L591.0291213333334,-32.624999999999964L591.553472,58L592.473532,239.25L592.7374973333334,58L593.43512,58L593.574024,58L594.3489746666667,239.25L594.4084026666667,148.62500000000003L597.5332653333334,148.62500000000003L598.036852,58L599.5483280000001,58L600.4027546666666,58L602.273424,239.25L602.4829733333333,148.62500000000003L604.1581746666667,58L607.4338746666667,58L608.7596679999999,58L611.108148,58L614.3618906666667,58L614.4101013333334,58L614.602228,58L615.0113026666667,58L618.643332,148.62500000000003L618.7316386666666,58L618.7991813333333,58L620.5333333333333,58L622.9803826666666,58L624.0908986666667,148.62500000000003L625.1002199999999,148.62500000000003L626.526492,148.62500000000003L628.0360586666667,58L629.637512,239.25L630.120096,58L633.2967493333333,58L634.2604853333333,148.62500000000003L634.4487933333334,58L634.7695613333334,58L636.5006106666667,58L641.355568,58L641.7297973333333,148.62500000000003L642.0596346666666,58L642.5231253333334,148.62500000000003L645.314332,58L646.872348,148.62500000000003L646.918172,148.62500000000003L650.2084306666667,148.62500000000003L651.25212,58L653.0700439999999,58L653.1001160000001,148.62500000000003L654.1552613333333,58L656.2796333333333,58L657.3331079999999,58L658.823104,58L660.2913813333333,148.62500000000003L660.88948,148.62500000000003L661.4503466666667,239.25L662.5673066666667,239.25L663.3892746666667,148.62500000000003L665.4420466666667,58L666.6313226666666,148.62500000000003L666.7680786666667,58L668.4208453333333,58L669.915376,148.62500000000003L671.5776893333333,58L671.6834186666666,58L673.481772,58L674.2588706666667,58L676.0877733333333,148.62500000000003L676.1863426666666,148.62500000000003L676.8507906666667,58L677.065352,58L678.7388826666667,58L678.7560666666666,58L679.8064386666666,148.62500000000003L680.1357986666667,58L681.3429746666667,58L682.2410773333334,58L684.1554226666666,58L684.2833479999999,58L685.459736,58L689.542368,239.25L691.2087386666667,58L692.8891906666667,148.62500000000003L693.5178386666666,58L693.7593693333333,58L693.8149786666667,239.25L694.7908866666667,58L696.5405519999999,58L696.748908,58L697.007384,148.62500000000003L698.8732799999999,148.62500000000003L698.9529946666667,58L702.078812,58L702.5995826666666,58L702.7026866666666,148.62500000000003L704.0511533333333,148.62500000000003L705.0094,58L708.0290106666666,58L708.3526426666666,58L709.1223426666667,239.25L710.509712,239.25L710.750288,-32.624999999999964L711.863668,148.62500000000003L714.9902013333334,329.875L716.0840106666667,58L717.4057466666667,239.25L719.223432,58L720.1912253333334,58L721.2621226666668,58L721.4972093333333,58L722.2454293333333,148.62500000000003L723.3211,148.62500000000003L724.5943866666667,58L724.7633626666666,239.25L725.2180226666667,58L725.2531066666667,58L725.5936839999999,148.62500000000003L725.5941613333333,58L727.4803440000001,58L728.3626946666667,58L729.253876,58L731.7162,148.62500000000003L732.9902026666666,148.62500000000003L733.292832,58L733.3871053333332,58L733.8114546666666,148.62500000000003L734.2021520000001,148.62500000000003L734.3057333333334,148.62500000000003L734.9782959999999,148.62500000000003L740.1055719999999,58L740.7838626666667,58L742.96456,58L743.21158,58L744.9113639999999,58L745.4629226666666,58L748.215704,148.62500000000003L748.2765640000001,148.62500000000003L748.5262093333333,58L748.795664,239.25L749.1670293333334,58L749.9574933333333,58L750.1491426666666,58L750.8804173333333,329.875L751.0319706666667,58L751.9871146666666,239.25L752.8823533333333,58L753.2549120000001,58L753.5790213333333,148.62500000000003L753.985948,58L754.2921573333334,58L754.627484,58L759.0941306666667,239.25L760.5626466666668,239.25L761.4466679999999,58L761.8034746666667,58L762.6407173333333,58L763.7412093333334,58L764.6789306666667,-32.624999999999964L765.9350333333333,58L766.6352813333334,58L768.362512,58L768.4634679999999,148.62500000000003L770.7391546666668,58L771.0066999999999,148.62500000000003L771.021736,58L771.8002666666667,148.62500000000003L774.9592586666666,58L778.1814973333333,148.62500000000003L782.6104346666666,239.25L782.7629426666666,58L783.8813346666667,58L784.5765706666667,148.62500000000003L784.8331373333333,148.62500000000003L786.2364973333333,148.62500000000003L787.4501173333333,148.62500000000003L787.706684,58L788.6000133333333,58L789.5878546666667,58L789.825328,148.62500000000003L789.9580266666666,148.62500000000003L791.084772,148.62500000000003L792.0150946666666,58L793.042316,148.62500000000003L793.6587920000001,239.25L794.2189426666666,-32.624999999999964L794.9779026666666,239.25L795.2495053333333,239.25L795.3769533333333,-32.624999999999964L796.2774426666666,58L796.3946279999999,58L799.1471706666666,58L801.5066293333333,148.62500000000003L802.8398213333334,58L802.8455493333333,58L803.8527226666666,58L803.9761133333334,239.25L804.4441386666666,58L804.4458093333334,58L805.7078786666666,58L806.2124200000001,148.62500000000003L806.6277000000001,58L807.6494319999999,58L807.8184080000001,148.62500000000003L808.433452,58L808.5609000000001,58L808.8542213333334,58L809.4382386666667,58L814.090568,58L814.93688,58L815.9228119999999,58L816.1402373333333,58L816.188448,58L818.2922946666666,58L821.322884,239.25L821.9188346666667,58L822.7780346666666,58L825.585948,148.62500000000003L828.101256,239.25L829.2208413333334,58L829.7692973333334,58L830.0556973333333,58L831.3480773333332,148.62500000000003L831.4583413333334,148.62500000000003L833.0469066666667,58L833.209916,148.62500000000003L833.4550266666666,58L834.0944146666667,58L834.6244933333334,58L834.990608,148.62500000000003L837.5448186666666,148.62500000000003L843.4783106666667,148.62500000000003L844.2401346666667,148.62500000000003L844.3919266666666,148.62500000000003L847.0327733333334,58L847.3926826666666,58L851.9717413333333,58L855.6407639999999,58L856.7901826666667,148.62500000000003L859.1343666666667,58L859.2338906666666,148.62500000000003L860.8145800000001,58L861.668052,239.25L861.9976506666667,148.62500000000003L862.8017186666667,58L863.4718946666666,58L863.8707066666667,148.62500000000003L864.4573493333334,58L865.1554493333333,148.62500000000003L865.2239466666666,58L869.8695933333335,239.25L870.112556,58L870.8276013333333,58L872.325712,58L872.3755933333333,148.62500000000003L872.4025626666668,148.62500000000003L873.3042453333334,148.62500000000003L873.6884986666666,148.62500000000003L874.3908946666666,239.25L877.356328,148.62500000000003L880.1556493333334,148.62500000000003L881.4878866666667,239.25L884.257852,58L884.5666866666667,239.25L885.3005866666667,239.25L890.1562600000001,148.62500000000003L892.2751426666667,58L894.9303093333333,148.62500000000003L895.7183866666666,58L897.6923986666667,148.62500000000003L899.0513666666667,58L900.7096226666666,58L903.0884133333334,148.62500000000003L903.2180093333334,148.62500000000003L903.7072760000001,58L903.9173026666667,148.62500000000003L906.7839280000001,148.62500000000003L906.8822586666666,58L914.8713866666667,58L915.6470533333332,148.62500000000003L915.7959813333333,58L919.7299240000001,58L920.2530813333334,58L921.2258866666666,239.25L921.779116,58L922.2411746666667,329.875L922.794404,58L923.3650560000001,58L923.4082546666667,-32.624999999999964L923.6555133333333,148.62500000000003L925.069136,58L925.5727226666668,58L927.7395773333334,58L927.8219173333333,58L929.495448,148.62500000000003L931.3102693333333,148.62500000000003L932.9012213333333,58L932.9728213333333,58L933.7346453333333,239.25L934.155176,148.62500000000003L935.94088,239.25L936.4998373333334,148.62500000000003L936.6356386666666,58L937.3229986666666,239.25L939.858116,148.62500000000003L939.9347280000001,58L945.0538893333334,58L945.5932760000001,148.62500000000003L945.8507973333333,148.62500000000003L946.9083293333333,58L947.287332,58L947.7890093333333,58L947.9780333333333,148.62500000000003L949.6711346666666,58L952.2566106666666,58L952.5664,148.62500000000003L955.0189386666667,239.25L957.081496,58L958.747628,58L960.287744,58L960.565552,58L961.1242706666667,148.62500000000003L962.9188053333334,58L963.0054413333334,58L964.3696600000001,58L965.442944,58L965.6238533333334,58L968.090712,148.62500000000003L968.5341546666666,58L971.2337133333334,148.62500000000003L971.3747653333334,58L971.4707093333333,58L973.2829053333334,148.62500000000003L973.3156026666667,58L975.3020253333334,58L976.4096773333333,148.62500000000003L977.1292573333333,58L978.0182906666668,148.62500000000003L980.366532,58L982.823128,58L983.2193146666667,58L983.4045199999999,148.62500000000003L983.9503506666666,58L985.0181453333332,58L985.8150533333334,58L986.59788,58L987.6437173333334,58L987.6840520000001,58L991.4320733333333,58L992.6554786666667,58L993.1616906666667,148.62500000000003L994.777464,58L995.4643466666666,148.62500000000003L995.532844,58L995.5369013333333,148.62500000000003L996.0428746666668,58L996.6918093333334,58L1002.609788,58L1005.3179386666667,148.62500000000003L1006.4981453333332,148.62500000000003L1008.7564093333334,148.62500000000003L1009.3812386666667,148.62500000000003L1009.9368546666667,148.62500000000003L1012.7127866666666,58L1014.0889386666668,58L1016.69494,58L1019.8405666666667,58L1020.4758973333334,58L1022.1100479999999,58L1022.5155426666666,148.62500000000003L1022.5806986666668,58L1024.0420546666667,58L1025.3014986666667,148.62500000000003L1025.4740546666667,58L1025.9265666666668,58L1026.5432813333334,58L1027.429212,58L1028.6208746666666,-32.624999999999964L1029.7979786666667,58L1030.1688666666666,58L1031.6941853333333,58L1031.8156666666666,58L1033.480128,58L1033.7355013333333,148.62500000000003L1035.3142813333334,58L1037.9689706666666,148.62500000000003L1039.19524,148.62500000000003L1039.2012066666666,239.25L1039.8458453333333,58L1041.7723626666666,58L1041.8726026666666,58L1042.975004,58L1043.880744,148.62500000000003L1046.9125266666667,239.25L1048.9373746666668,58L1049.5684093333334,58L1051.5238053333333,58L1052.320236,239.25L1052.3674919999999,148.62500000000003L1052.6515053333335,58L1054.23482,58L1058.7682933333333,-32.624999999999964L1059.0301106666666,58L1063.9922293333334,148.62500000000003L1065.61922,58L1066.2633813333334,58L1068.6431266666666,-32.624999999999964L1069.398268,58L1072.0813586666668,148.62500000000003L1072.0992586666666,58L1073.36992,58L1073.389252,58L1073.8377066666667,239.25L1074.2565666666667,58L1075.6298546666667,-32.624999999999964L1076.1346346666667,58L1078.734908,58L1082.5760093333333,58L1085.8144773333333,58L1087.369868,58L1089.2002026666667,148.62500000000003L1089.6799226666667,58L1091.107388,58L1092.7031133333332,58L1096.6093706666666,58L1098.627536,148.62500000000003L1099.8048786666666,58L1100.076004,58L1100.91802,148.62500000000003L1101.2411746666667,58L1102.7163733333334,58L1102.8727,58L1104.4498093333334,58L1105.5292986666668,58L1105.5767933333334,148.62500000000003L1109.3236213333334,239.25L1109.482812,239.25L1111.4716213333334,58L1117.2375693333333,-32.624999999999964L1117.9843573333333,58L1119.3717266666665,58L1119.6094386666666,58L1122.163172,148.62500000000003L1122.7610320000001,58L1123.3949306666666,58L1125.6068933333333,148.62500000000003L1128.0477373333333,58L1129.5475186666667,58L1132.5069853333334,58L1132.6294213333333,239.25L1132.714148,58L1134.3132146666667,148.62500000000003L1135.8239746666668,58L1139.7085133333333,58L1141.37202,58L1141.7159386666665,58L1143.1713280000001,58L1143.9264693333334,148.62500000000003L1144.28614,58L1144.6443786666666,148.62500000000003L1146.7713760000001,58L1147.2993066666668,58L1149.7585279999998,58L1149.9294133333333,58L1151.5602226666665,58L1152.0599906666666,148.62500000000003L1154.9478573333333,-32.624999999999964L1154.9597906666668,58L1155.0452333333333,58L1155.2478613333333,-32.624999999999964L1155.9220946666667,58L1157.040248,148.62500000000003L1158.8264293333334,58L1159.287056,58L1159.8410013333332,58L1160.1522226666666,148.62500000000003L1163.641768,148.62500000000003L1164.1176693333334,148.62500000000003L1164.322684,58L1165.1556306666666,148.62500000000003L1166.9816693333335,58L1167.43442,58L1167.5327506666665,58L1170.4000919999999,148.62500000000003L1174.164104,58L1177.7309773333334,239.25L1177.9441066666666,58L1178.1541333333332,148.62500000000003L1179.7247986666666,148.62500000000003L1185.0315520000001,58L1188.461192,58L1188.6375666666665,58L1189.2163333333333,58L1191.3662426666667,58L1193.4264133333334,58L1193.4600653333332,58L1193.8054160000002,58L1195.6572306666667,58L1195.9429146666666,58L1196.703068,-32.624999999999964L1197.4221706666667,239.25L1197.435536,58L1198.1264760000001,58L1200.824364,58L1201.9723506666667,148.62500000000003L1203.1702186666666,58L1203.2635373333333,148.62500000000003L1208.7774533333334,58L1209.364096,58L1210.722348,148.62500000000003L1212.5254746666667,58L1214.8629760000001,148.62500000000003L1217.0014293333334,58L1217.1167053333334,58L1217.458476,148.62500000000003L1222.0542413333333,58L1222.7921986666668,148.62500000000003L1224.4442493333333,148.62500000000003L1224.7208640000001,148.62500000000003L1226.64046,58L1227.7378493333333,58L1228.0715053333333,148.62500000000003L1229.0693706666666,58L1229.9295253333332,58L1230.354352,148.62500000000003L1230.9204693333334,58L1230.9424266666667,58L1232.3586746666667,148.62500000000003L1232.9873226666666,58L1233.0782546666667,148.62500000000003L1233.9754026666667,148.62500000000003L1235.3832973333333,58L1235.810272,58L1239.1468320000001,58L1240.8244200000001,58L1244.5943986666666,58L1244.9920173333335,239.25L1245.476988,148.62500000000003L1246.8972933333332,58L1248.46414,58L1249.0312119999999,58L1250.9517626666668,58L1251.189952,-32.624999999999964L1251.9343533333333,58L1252.3059573333333,58L1253.6152826666666,148.62500000000003L1254.7694746666666,148.62500000000003L1254.8079,58L1255.754452,148.62500000000003L1257.9785866666666,58L1258.7771653333334,58L1261.4915213333334,58L1266.0920600000002,58L1268.0897,148.62500000000003L1268.2362413333333,58L1268.5882746666666,58L1272.4124306666668,58L1273.3095786666668,148.62500000000003L1274.0749826666668,148.62500000000003L1276.6148733333334,148.62500000000003L1277.081228,58L1277.5872013333333,58L1279.7600226666666,239.25L1284.8228586666667,58L1285.6799106666667,58L1288.7400946666667,58L1288.9809093333333,58L1289.5477426666666,58L1290.3775866666667,58L1291.5203226666667,58L1291.901712,-32.624999999999964L1293.572856,58L1294.2542493333333,58L1294.4504333333334,58L1294.726332,58L1296.8781506666667,58L1297.8958253333333,239.25L1298.869108,148.62500000000003L1300.0965706666666,58L1300.4268853333333,58L1301.03286,58L1301.05076,58L1301.8911053333334,58L1303.2887373333333,58L1303.3543706666667,58L1303.689936,58L1304.840548,148.62500000000003L1305.3205066666667,148.62500000000003L1305.7894866666668,239.25L1306.4770853333332,58L1307.1980973333332,58L1314.472896,148.62500000000003L1315.6194506666666,148.62500000000003L1315.93282,148.62500000000003L1317.6442986666666,58L1318.6309466666667,58L1319.918792,58L1322.492812,58L1324.487588,58L1325.8446466666667,-32.624999999999964L1326.9143506666667,148.62500000000003L1327.543476,148.62500000000003L1329.7425506666666,58L1330.0964933333332,58L1334.1519173333334,239.25L1337.8249973333334,148.62500000000003L1340.1734773333333,148.62500000000003L1340.5281360000001,58L1340.5928146666668,58L1343.5286533333333,58L1343.7069373333334,58L1344.228424,58L1344.239164,58L1344.63726,148.62500000000003L1347.5568693333332,58L1347.661644,58L1348.2019853333334,58L1348.7654773333334,58L1352.143804,58L1353.441912,148.62500000000003L1353.4958506666667,58L1354.035476,58L1354.167936,148.62500000000003L1356.5140293333334,58L1356.5603306666667,58L1362.0716213333333,58L1367.048776,58L1370.0063333333335,-32.624999999999964L1375.8897053333333,58L1377.553212,148.62500000000003L1381.1852413333334,58L1381.47546,-32.624999999999964L1382.887412,58L1385.6631053333333,148.62500000000003L1386.511088,-32.624999999999964L1390.4242666666667,148.62500000000003L1394.7006959999999,148.62500000000003L1394.7216986666667,-32.624999999999964L1395.1195559999999,58L1398.6718706666666,58" style="fill: none;" fill="none"></path></g></g></g></g></g></g><g transform="translate(60, 377)" clip-path="url(#clip_1)"><clipPath id="clip_1"><rect width="1432" height="23"></rect></clipPath><g><g><line x1="0" y1="0" x2="0" y2="5" style="visibility: inherit;" fill="rgb(0, 0, 0)" stroke="rgb(204, 204, 204)" stroke-width="1px"></line><line x1="119.33333333333333" y1="0" x2="119.33333333333333" y2="5" style="visibility: inherit;" fill="rgb(0, 0, 0)" stroke="rgb(204, 204, 204)" stroke-width="1px"></line><line x1="238.66666666666666" y1="0" x2="238.66666666666666" y2="5" style="visibility: inherit;" fill="rgb(0, 0, 0)" stroke="rgb(204, 204, 204)" stroke-width="1px"></line><line x1="358" y1="0" x2="358" y2="5" style="visibility: inherit;" fill="rgb(0, 0, 0)" stroke="rgb(204, 204, 204)" stroke-width="1px"></line><line x1="477.3333333333333" y1="0" x2="477.3333333333333" y2="5" style="visibility: inherit;" fill="rgb(0, 0, 0)" stroke="rgb(204, 204, 204)" stroke-width="1px"></line><line x1="596.6666666666667" y1="0" x2="596.6666666666667" y2="5" style="visibility: inherit;" fill="rgb(0, 0, 0)" stroke="rgb(204, 204, 204)" stroke-width="1px"></line><line x1="716" y1="0" x2="716" y2="5" style="visibility: inherit;" fill="rgb(0, 0, 0)" stroke="rgb(204, 204, 204)" stroke-width="1px"></line><line x1="835.3333333333334" y1="0" x2="835.3333333333334" y2="5" style="visibility: inherit;" fill="rgb(0, 0, 0)" stroke="rgb(204, 204, 204)" stroke-width="1px"></line><line x1="954.6666666666666" y1="0" x2="954.6666666666666" y2="5" style="visibility: inherit;" fill="rgb(0, 0, 0)" stroke="rgb(204, 204, 204)" stroke-width="1px"></line><line x1="1074" y1="0" x2="1074" y2="5" style="visibility: inherit;" fill="rgb(0, 0, 0)" stroke="rgb(204, 204, 204)" stroke-width="1px"></line><line x1="1193.3333333333335" y1="0" x2="1193.3333333333335" y2="5" style="visibility: inherit;" fill="rgb(0, 0, 0)" stroke="rgb(204, 204, 204)" stroke-width="1px"></line><line x1="1312.6666666666665" y1="0" x2="1312.6666666666665" y2="5" style="visibility: inherit;" fill="rgb(0, 0, 0)" stroke="rgb(204, 204, 204)" stroke-width="1px"></line><line x1="1432" y1="0" x2="1432" y2="5" style="visibility: inherit;" fill="rgb(0, 0, 0)" stroke="rgb(204, 204, 204)" stroke-width="1px"></line></g><g transform="translate(0, 8)"><text x="0" y="0" dx="0em" dy="0.95em" style="text-anchor: middle; visibility: hidden; font-family: Roboto, sans-serif; font-size: 12px; font-weight: 200;" fill="rgb(33, 33, 33)" stroke="none" stroke-width="1px">-2M</text><text x="119.33333333333333" y="0" dx="0em" dy="0.95em" style="text-anchor: middle; visibility: inherit; font-family: Roboto, sans-serif; font-size: 12px; font-weight: 200;" fill="rgb(33, 33, 33)" stroke="none" stroke-width="1px">0</text><text x="238.66666666666666" y="0" dx="0em" dy="0.95em" style="text-anchor: middle; visibility: inherit; font-family: Roboto, sans-serif; font-size: 12px; font-weight: 200;" fill="rgb(33, 33, 33)" stroke="none" stroke-width="1px">2M</text><text x="358" y="0" dx="0em" dy="0.95em" style="text-anchor: middle; visibility: inherit; font-family: Roboto, sans-serif; font-size: 12px; font-weight: 200;" fill="rgb(33, 33, 33)" stroke="none" stroke-width="1px">4M</text><text x="477.3333333333333" y="0" dx="0em" dy="0.95em" style="text-anchor: middle; visibility: inherit; font-family: Roboto, sans-serif; font-size: 12px; font-weight: 200;" fill="rgb(33, 33, 33)" stroke="none" stroke-width="1px">6M</text><text x="596.6666666666667" y="0" dx="0em" dy="0.95em" style="text-anchor: middle; visibility: inherit; font-family: Roboto, sans-serif; font-size: 12px; font-weight: 200;" fill="rgb(33, 33, 33)" stroke="none" stroke-width="1px">8M</text><text x="716" y="0" dx="0em" dy="0.95em" style="text-anchor: middle; visibility: inherit; font-family: Roboto, sans-serif; font-size: 12px; font-weight: 200;" fill="rgb(33, 33, 33)" stroke="none" stroke-width="1px">10M</text><text x="835.3333333333334" y="0" dx="0em" dy="0.95em" style="text-anchor: middle; visibility: inherit; font-family: Roboto, sans-serif; font-size: 12px; font-weight: 200;" fill="rgb(33, 33, 33)" stroke="none" stroke-width="1px">12M</text><text x="954.6666666666666" y="0" dx="0em" dy="0.95em" style="text-anchor: middle; visibility: inherit; font-family: Roboto, sans-serif; font-size: 12px; font-weight: 200;" fill="rgb(33, 33, 33)" stroke="none" stroke-width="1px">14M</text><text x="1074" y="0" dx="0em" dy="0.95em" style="text-anchor: middle; visibility: inherit; font-family: Roboto, sans-serif; font-size: 12px; font-weight: 200;" fill="rgb(33, 33, 33)" stroke="none" stroke-width="1px">16M</text><text x="1193.3333333333335" y="0" dx="0em" dy="0.95em" style="text-anchor: middle; visibility: inherit; font-family: Roboto, sans-serif; font-size: 12px; font-weight: 200;" fill="rgb(33, 33, 33)" stroke="none" stroke-width="1px">18M</text><text x="1312.6666666666665" y="0" dx="0em" dy="0.95em" style="text-anchor: middle; visibility: inherit; font-family: Roboto, sans-serif; font-size: 12px; font-weight: 200;" fill="rgb(33, 33, 33)" stroke="none" stroke-width="1px">20M</text><text x="1432" y="0" dx="0em" dy="0.95em" style="text-anchor: middle; visibility: hidden; font-family: Roboto, sans-serif; font-size: 12px; font-weight: 200;" fill="rgb(33, 33, 33)" stroke="none" stroke-width="1px">22M</text></g><line x1="0" y1="0" x2="1432" y2="0" fill="rgb(0, 0, 0)" stroke="rgb(204, 204, 204)" stroke-width="1px"></line></g></g></g></g></svg>