<svg viewBox="0 0 1492 400" xmlns="http://www.w3.org/2000/svg"><g><g><g><g><g><line x1="61.953125" y1="377" x2="56.953125" y2="377" style="visibility: inherit;" fill="rgb(0, 0, 0)" stroke="rgb(204, 204, 204)" stroke-width="1px"></line><line x1="61.953125" y1="335.1111111111111" x2="56.953125" y2="335.1111111111111" style="visibility: inherit;" fill="rgb(0, 0, 0)" stroke="rgb(204, 204, 204)" stroke-width="1px"></line><line x1="61.953125" y1="293.22222222222223" x2="56.953125" y2="293.22222222222223" style="visibility: inherit;" fill="rgb(0, 0, 0)" stroke="rgb(204, 204, 204)" stroke-width="1px"></line><line x1="61.953125" y1="251.33333333333337" x2="56.953125" y2="251.33333333333337" style="visibility: inherit;" fill="rgb(0, 0, 0)" stroke="rgb(204, 204, 204)" stroke-width="1px"></line><line x1="61.953125" y1="209.44444444444446" x2="56.953125" y2="209.44444444444446" style="visibility: inherit;" fill="rgb(0, 0, 0)" stroke="rgb(204, 204, 204)" stroke-width="1px"></line><line x1="61.953125" y1="167.55555555555554" x2="56.953125" y2="167.55555555555554" style="visibility: inherit;" fill="rgb(0, 0, 0)" stroke="rgb(204, 204, 204)" stroke-width="1px"></line><line x1="61.953125" y1="125.66666666666664" x2="56.953125" y2="125.66666666666664" style="visibility: inherit;" fill="rgb(0, 0, 0)" stroke="rgb(204, 204, 204)" stroke-width="1px"></line><line x1="61.953125" y1="83.77777777777781" x2="56.953125" y2="83.77777777777781" style="visibility: inherit;" fill="rgb(0, 0, 0)" stroke="rgb(204, 204, 204)" stroke-width="1px"></line><line x1="61.953125" y1="41.888888888888864" x2="56.953125" y2="41.888888888888864" style="visibility: inherit;" fill="rgb(0, 0, 0)" stroke="rgb(204, 204, 204)" stroke-width="1px"></line><line x1="61.953125" y1="0" x2="56.953125" y2="0" style="visibility: inherit;" fill="rgb(0, 0, 0)" stroke="rgb(204, 204, 204)" stroke-width="1px"></line></g><g transform="translate(51.953125, 0)"><text x="0" y="377" dx="0em" dy="0.3em" style="text-anchor: end; visibility: hidden; font-family: Roboto, sans-serif; font-size: 12px; font-weight: 200;" fill="rgb(33, 33, 33)" stroke="none" stroke-width="1px">-5e-3</text><text x="0" y="335.1111111111111" dx="0em" dy="0.3em" style="text-anchor: end; visibility: inherit; font-family: Roboto, sans-serif; font-size: 12px; font-weight: 200;" fill="rgb(33, 33, 33)" stroke="none" stroke-width="1px">0</text><text x="0" y="293.22222222222223" dx="0em" dy="0.3em" style="text-anchor: end; visibility: inherit; font-family: Roboto, sans-serif; font-size: 12px; font-weight: 200;" fill="rgb(33, 33, 33)" stroke="none" stroke-width="1px">5e-3</text><text x="0" y="251.33333333333337" dx="0em" dy="0.3em" style="text-anchor: end; visibility: inherit; font-family: Roboto, sans-serif; font-size: 12px; font-weight: 200;" fill="rgb(33, 33, 33)" stroke="none" stroke-width="1px">0.01</text><text x="0" y="209.44444444444446" dx="0em" dy="0.3em" style="text-anchor: end; visibility: inherit; font-family: Roboto, sans-serif; font-size: 12px; font-weight: 200;" fill="rgb(33, 33, 33)" stroke="none" stroke-width="1px">0.015</text><text x="0" y="167.55555555555554" dx="0em" dy="0.3em" style="text-anchor: end; visibility: inherit; font-family: Roboto, sans-serif; font-size: 12px; font-weight: 200;" fill="rgb(33, 33, 33)" stroke="none" stroke-width="1px">0.02</text><text x="0" y="125.66666666666664" dx="0em" dy="0.3em" style="text-anchor: end; visibility: inherit; font-family: Roboto, sans-serif; font-size: 12px; font-weight: 200;" fill="rgb(33, 33, 33)" stroke="none" stroke-width="1px">0.025</text><text x="0" y="83.77777777777781" dx="0em" dy="0.3em" style="text-anchor: end; visibility: inherit; font-family: Roboto, sans-serif; font-size: 12px; font-weight: 200;" fill="rgb(33, 33, 33)" stroke="none" stroke-width="1px">0.03</text><text x="0" y="41.888888888888864" dx="0em" dy="0.3em" style="text-anchor: end; visibility: inherit; font-family: Roboto, sans-serif; font-size: 12px; font-weight: 200;" fill="rgb(33, 33, 33)" stroke="none" stroke-width="1px">0.035</text><text x="0" y="0" dx="0em" dy="0.3em" style="text-anchor: end; visibility: hidden; font-family: Roboto, sans-serif; font-size: 12px; font-weight: 200;" fill="rgb(33, 33, 33)" stroke="none" stroke-width="1px">0.04</text></g><line x1="61.953125" y1="0" x2="61.953125" y2="377" fill="rgb(0, 0, 0)" stroke="rgb(204, 204, 204)" stroke-width="1px"></line></g></g><g transform="translate(61, 0)" clip-path="url(#clip_0)"><clipPath id="clip_0"><rect width="1430" height="377"></rect></clipPath><g><g><g><line x1="0" y1="0" x2="0" y2="377" fill="rgb(0, 0, 0)" stroke="rgb(66, 66, 66)" stroke-width="1px" opacity="0.25"></line><line x1="119.17057291666666" y1="0" x2="119.17057291666666" y2="377" fill="rgb(0, 0, 0)" stroke="rgb(66, 66, 66)" stroke-width="1px" opacity="0.25"></line><line x1="238.34114583333331" y1="0" x2="238.34114583333331" y2="377" fill="rgb(0, 0, 0)" stroke="rgb(66, 66, 66)" stroke-width="1px" opacity="0.25"></line><line x1="357.51171875" y1="0" x2="357.51171875" y2="377" fill="rgb(0, 0, 0)" stroke="rgb(66, 66, 66)" stroke-width="1px" opacity="0.25"></line><line x1="476.68229166666663" y1="0" x2="476.68229166666663" y2="377" fill="rgb(0, 0, 0)" stroke="rgb(66, 66, 66)" stroke-width="1px" opacity="0.25"></line><line x1="595.8528645833334" y1="0" x2="595.8528645833334" y2="377" fill="rgb(0, 0, 0)" stroke="rgb(66, 66, 66)" stroke-width="1px" opacity="0.25"></line><line x1="715.0234375" y1="0" x2="715.0234375" y2="377" fill="rgb(0, 0, 0)" stroke="rgb(66, 66, 66)" stroke-width="1px" opacity="0.25"></line><line x1="834.1940104166667" y1="0" x2="834.1940104166667" y2="377" fill="rgb(0, 0, 0)" stroke="rgb(66, 66, 66)" stroke-width="1px" opacity="0.25"></line><line x1="953.3645833333333" y1="0" x2="953.3645833333333" y2="377" fill="rgb(0, 0, 0)" stroke="rgb(66, 66, 66)" stroke-width="1px" opacity="0.25"></line><line x1="1072.53515625" y1="0" x2="1072.53515625" y2="377" fill="rgb(0, 0, 0)" stroke="rgb(66, 66, 66)" stroke-width="1px" opacity="0.25"></line><line x1="1191.7057291666667" y1="0" x2="1191.7057291666667" y2="377" fill="rgb(0, 0, 0)" stroke="rgb(66, 66, 66)" stroke-width="1px" opacity="0.25"></line><line x1="1310.8763020833333" y1="0" x2="1310.8763020833333" y2="377" fill="rgb(0, 0, 0)" stroke="rgb(66, 66, 66)" stroke-width="1px" opacity="0.25"></line><line x1="1430.046875" y1="0" x2="1430.046875" y2="377" fill="rgb(0, 0, 0)" stroke="rgb(66, 66, 66)" stroke-width="1px" opacity="0.25"></line></g><g><line x1="0" y1="377" x2="1430.046875" y2="377" fill="rgb(0, 0, 0)" stroke="rgb(66, 66, 66)" stroke-width="1px" opacity="0.25"></line><line x1="0" y1="335.1111111111111" x2="1430.046875" y2="335.1111111111111" fill="rgb(0, 0, 0)" stroke="rgb(66, 66, 66)" stroke-width="1px" opacity="0.25"></line><line x1="0" y1="293.22222222222223" x2="1430.046875" y2="293.22222222222223" fill="rgb(0, 0, 0)" stroke="rgb(66, 66, 66)" stroke-width="1px" opacity="0.25"></line><line x1="0" y1="251.33333333333337" x2="1430.046875" y2="251.33333333333337" fill="rgb(0, 0, 0)" stroke="rgb(66, 66, 66)" stroke-width="1px" opacity="0.25"></line><line x1="0" y1="209.44444444444446" x2="1430.046875" y2="209.44444444444446" fill="rgb(0, 0, 0)" stroke="rgb(66, 66, 66)" stroke-width="1px" opacity="0.25"></line><line x1="0" y1="167.55555555555554" x2="1430.046875" y2="167.55555555555554" fill="rgb(0, 0, 0)" stroke="rgb(66, 66, 66)" stroke-width="1px" opacity="0.25"></line><line x1="0" y1="125.66666666666664" x2="1430.046875" y2="125.66666666666664" fill="rgb(0, 0, 0)" stroke="rgb(66, 66, 66)" stroke-width="1px" opacity="0.25"></line><line x1="0" y1="83.77777777777781" x2="1430.046875" y2="83.77777777777781" fill="rgb(0, 0, 0)" stroke="rgb(66, 66, 66)" stroke-width="1px" opacity="0.25"></line><line x1="0" y1="41.888888888888864" x2="1430.046875" y2="41.888888888888864" fill="rgb(0, 0, 0)" stroke="rgb(66, 66, 66)" stroke-width="1px" opacity="0.25"></line><line x1="0" y1="0" x2="1430.046875" y2="0" fill="rgb(0, 0, 0)" stroke="rgb(66, 66, 66)" stroke-width="1px" opacity="0.25"></line></g></g></g><g><g><line x1="0" y1="335.1111111111111" x2="1430.046875" y2="335.1111111111111" fill="rgb(0, 0, 0)" stroke="rgb(153, 153, 153)" stroke-width="1.5px"></line></g></g><g><g><line x1="119.17057291666666" y1="0" x2="119.17057291666666" y2="377" fill="rgb(0, 0, 0)" stroke="rgb(153, 153, 153)" stroke-width="1.5px"></line></g></g><g><g><g><g><g><path stroke="rgb(255, 112, 67)" stroke-width="2px" d="M120.35918021093751,319.71779570024876L120.83729254947916,305.02219844392187L123.60777002864583,309.41889581058484L125.66012563541666,307.7965740992123L128.33574333854165,302.3989068488644L128.76737915364583,305.71117284773277L130.82879172395835,316.1732723893767L133.76825307552082,310.4145470392266L135.14467319270832,291.78269520725814L140.47016775520834,285.5262861633883L140.59601188020832,300.1850902469337L144.06387555208335,292.36161084877386L145.46865826562498,297.9471198715858L146.2995155,302.90894854551425L147.29935660677086,305.88955348433973L147.9362041484375,314.78766714341236L148.65170426822917,317.25894868214476L151.79709236979167,319.1785963908578L153.8237071328125,322.5220057407316L154.7303568515625,317.69878181380864L155.6984985859375,318.43777198933515L157.33471055208335,317.49994960815104L158.56598091145833,315.150957607491L159.6254073046875,321.63298211924433L160.68245028645833,316.4952692831975L160.99300879947918,321.7207263716428L161.021848078125,319.59335228408014L161.13220002864583,322.21433199573613L162.35846522395835,322.149090539657L163.44768426041668,314.1856301318158L166.65456437760415,316.1563217971321L169.81544465364584,318.81096948118665L171.23714958854168,316.9707921816756L172.08588240885416,320.56398590805276L173.71399077604167,323.25125035241933L174.41590545052082,321.9536313278157L176.81075728385417,321.7841553406963L177.35679684895834,320.6884656638842L177.52649574479167,323.9231142251466L178.4105030546875,325.3035999443721L179.1040757890625,320.63166692136735L179.5590690364583,316.3963350865136L180.17160578124998,316.6757116140802L181.0072298385417,317.4967561167538L182.33407499739585,315.6112547567417L182.35457233593752,317.2809205416115L184.32398522395832,319.9020056163057L184.36950838281248,319.4652850994986L186.27528418489584,322.6968437388814L190.17454533072916,319.45653699003014L190.2138716197917,321.37812272358286L191.14626218229165,323.05120021756653L193.4162232552083,320.455847951206L196.02176866145834,322.90337984376026L199.195519359375,322.2577538775174L205.51942498177084,321.6424811109048L206.6024471484375,324.2315467685783L207.55152159114584,324.74640182136943L214.0558514609375,319.7426791521009L214.50965300260418,320.0640708684184L215.15031400260418,312.8454806355191L216.49670313541665,313.7376725461945L217.9813301328125,319.7701212154117L218.941606609375,317.0636782828409L219.67617402083334,317.70680144520895L220.46722828385418,319.87987122714895L221.2089459296875,319.73652922984525L221.55168049739584,321.07172117929593L222.28457952083335,321.86184313836753L222.74719968489583,324.62828863272654L225.26503554947917,323.4474003355859L225.3646621484375,319.6166227237743L226.781123578125,311.52276991348964L228.37276575,312.54033519054354L229.03392408854168,315.5982644433108L229.49082406510414,319.92561653488343L230.19798224479166,304.69360914319833L232.30181953906248,293.9811447618145L232.41813001822916,295.6212369252883L233.093350484375,302.6950151555855L233.43084154687497,309.48791473829465L233.48685171614582,296.0259955138057L233.94136828125002,300.54614029984214L233.9706842421875,291.4575822439093L235.35473127604166,287.3913451481308L235.72582844010415,302.8625215275322L238.72702014843748,287.0324656469895L241.26535335156248,268.85684366576845L241.7515692890625,267.9964693595812L243.46738719791668,280.2352466006319L246.2140305625,296.29739879294016L246.5222056640625,307.45276592424443L248.45539069791667,315.5288937865088L248.86343073958332,310.7451765430007L250.72630513541668,307.7739143040664L250.78946553906252,312.1233515509432L252.50647515364582,310.495889802881L252.530547609375,293.7364970856886L254.32334970833335,306.1957682127809L254.4146343671875,312.10049593280087L259.12497043229166,314.2965985311223L259.6211966979167,319.77533913280985L260.3293082421875,319.6592822692959L261.24620663020835,320.980516927355L264.3915947317708,320.20439677658817L266.32644815364586,313.9294844773963L268.6338287864583,295.65295840017L270.56320036197917,303.1825439632985L273.60610177083333,308.3708081951372L273.795344640625,298.4277181447922L274.4641298958333,299.0323249564728L274.8368954479167,260.82491244869396L275.156749265625,239.8126586148955L275.5669343776042,213.47718122752744L276.8742355625,258.64154270158554L278.81623921875,281.23428135442873L279.0815129140625,291.56270663056324L282.1749426458333,305.72217458436273L283.79113395572915,290.54714138113417L284.76642592447917,256.7960010400922L285.3036468671875,269.1441440352705L285.3889729973958,281.76579424950916L286.17287702604165,261.8622073560429L288.41995734895835,259.15296641432747L288.91856702604167,264.7474070926451L291.1253676953125,282.43792291985284L291.3658539114583,284.6717957631131L293.42035458854167,288.06388427435303L294.23977144791667,295.94576363468866L295.4360056588542,273.2221552837837L297.00476708072915,170.93691736049476L297.3374913203125,195.44039922309136L298.20147797395833,204.75827368774011L300.12131590364584,241.47642768959332L300.3498850625,251.70391935067786L301.24247265364585,265.2078433603821L301.72058499218747,277.4671161718634L303.6025266796875,286.60320467966926L305.87725457552085,261.38114009066635L311.911814046875,280.27311194920065L313.02605890364583,292.5380345664765L313.5499327421875,254.833490042164L314.98307805208333,284.15244360351505L317.48709013020834,209.4395384889546L317.700643796875,224.21765351438074L322.30730146354165,215.2343667489237L324.7898628385417,177.64263543736612L325.06014169791666,209.23253924533066L326.85437384374995,153.00502101710046L328.5168033359375,216.92776282971133L328.94557905729164,171.8748614868225L329.88154473697915,207.6246765737819L330.3258126328125,187.57817496700943L330.75387333072916,174.13015983011638L330.91141682812497,174.5553078370338L331.1504729973958,192.80264685686038L332.716135984375,215.66420287901855L332.90633221875,241.51724150984307L333.1639789973959,256.999565323114L337.41956015625,253.73131203514177L337.6991343203125,280.9691739747137L339.62087897916666,270.0088015624079L339.7240806953125,271.70306315606655L341.37054133072917,139.3867197694198L345.0436167291667,118.22186946839983L346.00603827604164,59.791303067563724L347.5359500911459,126.2828926240357L351.66950058333333,206.53029785498697L353.3235881354167,249.68391437249215L353.93779326822914,268.38567954997313L353.9704460052083,247.76034345116938L353.99833191927087,258.35339062444405L355.5487410729167,267.72415579775196L356.3283549609375,242.52161024959415L356.9907050052083,273.21172402314926L360.035751484375,252.44063803759764L360.1999685338542,250.33886448169278L364.14689790885416,264.2277311713303L366.3429732265625,272.7183509636405L366.51529387500005,265.8807352024075L366.57011233854166,264.5041605147375L367.38237896354167,251.37872502349404L367.5461193307292,273.80048529656943L370.39048256510415,279.0710473581619L371.264479546875,275.1923242997474L372.8823392447917,293.4972010949643L374.81361754947915,301.7438796414734L375.78581108333333,300.82696775717346L375.90045317447914,294.591440612313L376.046556296875,304.2173487728259L376.67792199218746,308.63714238608077L376.78779726041665,318.2209023096393L376.8266468671875,307.37916010435475L377.1612778359375,312.89458568888864L377.71542099999994,309.0715034288543L381.02145103385413,311.83864204000366L381.7986815104167,315.2889931596474L382.4779537760417,313.92881886892457L384.5176773020833,317.12251078000264L385.2930010494792,317.7546480047672L386.1874953697917,318.98924144837906L386.30738096614584,317.91033929825016L387.428299375,318.59260574407824L390.42138748437503,321.86293004165725L390.8916345651042,317.6944768584574L392.450624,319.7699531509147L395.1755783203125,319.3306560938093L395.8667676432292,313.9783999068591L400.34710450260417,318.4697624742569L401.46945295833336,322.18446704275067L402.13680816666664,324.05035973641765L403.1416544375,322.63647468370294L404.3161996041667,322.54502146183705L405.60443349739586,318.24114235666286L409.6464609895834,319.36144010985356L419.1720032239583,314.8705159267652L419.2218165234375,318.5013418165284L422.378645,318.0200948255389L423.7908162890625,320.22604587191785L423.97195555989583,322.60632311743495L426.1689842421875,323.0397816055205L426.32223759895834,315.91729412395875L427.88146537499995,320.7951210400857L428.9091923958334,323.23493409915983L434.82291290625,322.27194712418844L435.6099153697916,323.36682777759216L436.27155039062495,317.42270596534746L437.6236597109375,316.5857098642466L438.3429732890625,321.64916184091766L439.91054300520835,325.1450915291643L440.4689763098958,322.15189867826047L440.6634626848958,323.0698520058597L441.68618454166665,326.5333988968575L442.7305954427083,320.13152953311067L447.60634026302085,317.7484667853636L448.2527214505208,320.0947725948698L448.29633788020834,319.4125937794186L449.9606741015625,324.9344884685793L451.3218403854167,322.4114364146462L451.9903872994792,318.6233904451691L452.43680026562504,324.7433839462505L453.5129105390625,324.255346478858L454.02462897916666,325.54913660525744L455.1214749322916,328.06906266090704L455.1291018489583,329.81158819793205L456.4425999036458,327.4865706770697L457.04798641406245,327.3648512496747L458.46206443229164,324.40682607008534L461.0604596041667,325.4793155119174L461.11623143229167,326.8090148703302L463.05728172395834,328.0690638997035L464.84484031770836,329.89256619291143L464.9215861666666,327.02639212447883L465.001192109375,324.8353727486126L466.67077183593756,326.4407765597935L466.8988643125,328.3726504543963L467.44109041927084,329.17283743381256L468.24644515104166,329.0641582319267L468.3308179166667,329.05238924627264L469.894812515625,327.9922306337078L471.67331414583333,327.6723376389714L472.5430209869792,329.78198861641084L473.5516807161459,328.7644740687677L474.03527490104165,325.0535540054859L476.4241682057292,328.0757380469886L476.8167160729167,327.5443293702154L477.05362717187495,326.4044623223125L477.19544015364585,324.726910577298L477.9352510703125,327.23077356250593L478.30515652864585,322.4980281824096L478.96726823177084,324.71316717309594L479.1348220572917,322.8954454965463L481.1640585729167,324.58320943958154L482.99785534895835,324.85094290310764L483.14848695312503,323.08809687719514L485.9928501875,325.4845097514164L486.2705176223958,324.64249827779526L486.374672703125,327.20829972290227L486.9412096067709,326.6002975305545L488.425359921875,328.2806826104887L489.16183406249996,326.63391714671593L490.31516686718754,327.89463771263445L492.9547950572917,326.1882263102745L493.367601921875,325.33269547510497L493.87765197395834,324.4841938697101L494.2415989036458,324.32300018681565L496.59474103645834,322.2783310645794L498.55891041927083,324.7058477243998L499.79208750781254,324.40030940482825L500.18916385677085,326.0736553781485L500.62342142447915,325.9823390787297L500.6272348828125,327.40853829269827L504.07889135677084,326.7490536834743L504.7839044661458,324.19700675875623L507.66020541406255,325.7890960693185L508.843569203125,324.31881998133935L511.4257571770833,324.82898410666024L511.6083264947917,326.42461126985467L512.0428224036458,325.97700617606L512.879161484375,324.15118319279685L513.0510054505208,323.9633597782126L513.2328597447917,326.80815206227015L513.6063403203125,326.2018538792122L514.8373723385416,328.3601198168381L517.4002546796875,327.6272639850514L517.4812906692708,326.9877310645837L517.895765921875,326.2347308804696L518.3650596380209,324.28715074097744L518.9547156328125,327.475677743663L521.1341070703126,326.87205971307964L522.25311875,328.64514596219885L523.3778506171875,330.57978763858347L523.647414453125,330.3099107788007L524.2668630911459,329.52879253434395L527.1529360260416,329.4495632611068L528.1001037395833,329.57930160503366L530.1419723359375,329.7023597930857L531.1434818307291,328.4547598031653L531.7405264010416,326.37729273004624L531.9702872656251,324.7660067385234L532.2117268463542,328.4624410473576L533.041392375,328.4481539984217L534.7133555130208,329.3778855904699L534.9531267057291,329.6739211904239L535.1442763046875,330.5735741959766L535.4717570390625,330.22888634766673L536.4387070677084,330.99770615721064L538.988957328125,330.1081798358635L539.1395889322916,329.6919118239143L539.8210062682291,329.7587160017784L543.3587038958333,328.73958809629255L544.3942961744792,329.2437913432943L545.9721145598958,329.81053617521815L547.9853822187499,326.36961382342525L551.0151748645834,328.59114699441085L551.1860654661458,328.7912606089238L556.1497581692709,328.68364752255997L557.62389815625,330.0355665990329L561.6204024895833,331.86295371409904L563.0540244817709,331.9164880038366L563.7447371223958,333.0592615094834L565.0627636588542,329.6550150786157L566.1252884869792,331.5420099814687L568.8774136979167,329.8763907909076L570.7967749453124,330.76441248825813L572.5907687499999,330.4615990095798L573.0986737317709,331.6584368166892L575.9864150546874,332.94629122145517L576.507667140625,333.68471913255354L577.3375710104167,333.0849605079642L581.00802465625,330.6028314819211L582.2597923541666,331.31139780409194L583.6428860234375,332.7147961279327L583.8657349947918,332.3288249419537L584.0928741067709,333.1749080327423L584.3888938098958,332.7926084998362L584.7688095963541,332.4469818882119L585.3091289739583,332.5027410509785L586.2727422265625,332.5781282796439L587.40319428125,333.41589043381526L588.6089621380208,333.5635943301064L590.2230083776042,332.202871240264L590.746643875,332.0753595874867L591.6654489921875,332.3331383250228L591.9290542994792,333.341633120505L592.62572546875,333.9423687290081L592.764440015625,331.70193993718414L593.5383337161459,331.0923643607904L593.5976806614584,329.65462200739205L596.7182812838541,330.87607265186574L597.2211811015625,332.3283026988383L598.7305955781251,332.5274907403981L599.5838568802084,332.862800574177L601.45197478125,330.53657658988317L601.6612383072917,331.2129218562112L603.3341548098958,332.4567166941206L606.6053870364584,333.4269687298747L607.9293721015624,333.90477508054846L610.2746489765625,333.0884125443288L613.5239538177084,331.55442327489715L613.5720987291667,330.019766954484L613.7639633515626,330.6745737351495L614.1724800755209,330.7805721269021L617.7995556328125,331.74011953253597L617.8877418567708,332.88271387622774L617.9551924010417,333.57809367236183L619.6869791666667,333.3960521286462L622.1306909348958,333.9857984977193L623.2396922864583,332.23768812411805L624.2476369921875,331.74454588054385L625.6719636796875,331.94055199427163L627.1794714270833,331.5737685640072L628.778740515625,330.95684805060665L629.2606663125,332.50147818111L632.4329869635417,332.18764633938446L633.3954085104167,332.39985409565014L633.5834596744792,332.43693047484436L633.9037901744791,331.02957224896704L635.6324785052084,332.5569408055508L640.48081409375,332.6696924094241L640.8545330104166,332.5140828666748L641.1839204739583,333.29981078657977L641.6467789791667,333.05806870643875L644.4341786796875,333.74030346982204L645.9900696796875,332.3551264146137L646.0358311796875,332.36035621056135L649.3216022161458,332.6174073502128L650.363868046875,333.5039213561119L652.1793125546875,333.96257013122823L652.2093435390625,331.90289264606287L653.2630497447916,331.7418184936629L655.3845242838541,332.99699476457937L656.4365621015625,333.7900739864328L657.924525875,333.9535432303895L659.3908006041667,332.39923840871813L659.988083515625,332.56696875001353L660.5481852083334,330.8856982782968L661.6636217708334,329.5408394234049L662.4844686770833,329.91379709298417L664.5344408723959,331.8072826515884L665.7220948020833,332.22133569692784L665.8586642786458,333.2266612800772L667.5091767135417,330.80511402860503L669.00166896875,330.1142721837234L670.6617150494792,331.1745523713852L670.7673001770834,331.20658038153283L672.5632007109375,331.13503775743726L673.3392394817708,332.5864570067926L675.1656476822916,331.5898041357932L675.2640825755209,332.1982710471143L675.9276243255208,333.26350973615547L676.141893015625,333.81454648630495L677.8131411302084,333.21062134548447L677.8303016927083,332.84215716622754L678.8792410755208,332.02229569338084L679.2081518567708,331.43607747384885L680.4136813723959,332.7713011621393L681.3105591041666,332.75230598309173L683.2222934348958,333.6449418572652L683.3500442890625,332.714818834777L684.524827796875,329.70865476566144L688.6018914375001,329.4585298058272L690.2659893177083,331.6571783435926L691.9441493255208,332.2029291129308L692.5719399036458,333.02437636941255L692.8131411432292,333.76525767833044L692.8686746302084,331.6916782996045L693.8432515755209,332.97382662828915L695.590530515625,330.6383963222556L695.7986023359375,329.8781969213719L696.056725796875,330.92687377898636L697.920076875,331.63095936399156L697.9996828177083,332.8430650255933L701.1212368046876,333.7033879064296L701.6412971848958,334.18169825935405L701.7442605598958,332.87084931148104L703.0908880338542,332.78044611864925L704.047827734375,332.39717291163583L707.0633199114583,331.97351758164973L707.3865105052083,333.11084357633536L708.1551607005208,331.039146657112L709.54063778125,331.8714736676215L709.78088565625,331.89831094180704L710.8927471015625,331.46978711230736L714.0150161119792,330.90195632372536L715.1073335833333,331.5130278575657L716.4272668489583,331.63164511953636L718.242473015625,332.8484830682649L719.2089463619792,332.5327895297669L720.2783830833334,333.5441219661307L720.5131491119791,331.70666262065737L721.2603486041667,332.14987713139806L722.3345521484374,331.7900328610603L723.6061021614584,332.8152452776054L723.7748476927082,331.07680854162726L724.228887575521,332.4706135689242L724.2639237239583,333.4642298898259L724.6040365390625,333.3302394091821L724.6045132213542,333.9111830956847L726.4881232968751,334.30170180032655L727.3692705130209,334.5189190321952L728.2592363515624,334.6636986000495L730.7182019531249,334.0759885965824L731.9904669895833,333.71540613202967L732.2926835625,332.1290361700139L732.3868283151041,332.7963859788747L732.8105988723958,332.80194731321086L733.200763328125,332.2099575202012L733.3042033854167,331.5316686243852L733.975848734375,332.612260252202L739.0961315703124,333.4686385468006L739.7734971067708,334.06658439879806L741.95122015625,334.34216821498086L742.1979032421875,334.5894615123229L743.8953688828125,334.5440683046397L744.4461752708332,334.61432558571494L747.195202046875,334.07945136160913L747.2559790390626,333.75771537613446L747.5052838776041,333.05287919696775L747.77437103125,332.20404275740395L748.1452298541667,332.0295315365564L748.9346157291667,333.0528922718622L749.1260036692707,331.9786917356681L749.8562809401042,331.8942420216077L750.0076275677084,332.36994349390926L750.9614688333332,330.5069792613394L751.8554864713541,331.5047328976421L752.2275370000001,332.8948168285987L752.5512042760417,333.01626112539236L752.9575759296876,333.5579797820494L753.2633676197917,332.69192063421815L753.5982369296876,333.5274781902639L758.0587914739583,332.532631236307L759.5253045442709,331.2367797354065L760.4081201484374,332.71615407008994L760.7644401614583,333.07318538664947L761.6005409010418,333.08983155770704L762.6995319244792,333.84054610449374L763.6359742864583,333.32363532264554L764.8903637369791,333.75883620776136L765.5896566588542,332.06943327241584L767.3145315312499,331.35047696811023L767.4153498359375,330.64398442631455L769.6879326614584,332.2555136116243L769.9551130859375,332.62884723484336L769.970128578125,333.5636984883004L770.7475973958334,329.52025250455927L773.9022808020833,329.7921520484202L777.1201246119791,331.02171776148L781.5430212552083,331.07243331540934L781.6953212473958,332.10734254233665L782.8121878567708,331.9917530139792L783.5064756145833,327.0343295896852L783.7626923463541,326.87073013440266L785.1641382838541,328.8340330814029L786.3761030104166,330.4244725702382L786.6323197421875,332.1388954149029L787.5244306510416,333.2211054370503L788.5109246536458,332.74496342975266L788.74807409375,332.9724983142151L788.8805917708332,332.99887437683924L790.0058003203126,333.1635469019056L790.9348541067709,333.86070759599556L791.9606743984375,333.59313871771474L792.576309578125,332.20978606834575L793.1356962473958,332.72967229358716L793.8936210911459,330.25832715773004L794.1648533151041,330.6860020926078L794.2921274869791,331.39001217466847L795.1913886302083,331.9607393750174L795.3084141328125,330.4813535770574L798.0572025677083,332.1463942717601L800.4134431354166,332.49948756677895L801.7448167760417,332.4073605358187L801.7505369635417,332.68471169220595L802.7563365989583,332.98383988037375L802.8795589713542,332.16427327912436L803.3469459583333,332.5687882262801L803.3486143463542,332.5261673679576L804.6089623255208,332.3920609394875L805.1128155078126,332.623763359259L805.5275291015625,332.79905988981966L806.547867546875,332.7625624603316L806.7166130781251,333.63910502491365L807.3308182109375,334.19077687652515L807.4580923828125,334.32933001276484L807.7510136510417,332.8288387824328L808.334234434896,333.6354827544848L812.9802183906249,334.11804284432424L813.8253760937499,333.32758207603297L814.8099633671875,333.9951653575266L815.0270921510416,334.2481513904038L815.0752370625,334.5222586558589L817.1762142630208,334.65350639721464L820.2026701328126,333.4411762460839L820.7978079739584,334.01265737774196L821.6558360989583,333.59095543924764L824.4599196796876,333.6702044956333L826.971797015625,333.0644806145803L828.0898553307292,332.061592264623L828.6375632838542,333.2436888701243L828.9235726588543,333.12444873414285L830.2141899635416,333.29108054399717L830.3243035729167,333.28859487259336L831.9107022395833,333.33815578333366L832.0734892421875,333.3147500909556L832.3182655989583,333.42191955982094L832.9567815286458,334.0065392099879L833.4861372135417,333.69595879798584L833.85175253125,333.6581065247262L836.4024794739582,332.89862226893786L842.3278787005208,333.1982298290705L843.0886636380209,333.41861294995186L843.2402486067708,333.480246389443L845.8774933854168,334.0989651069438L846.2369118333334,334.44577400882594L850.8097250572916,334.6115955774872L854.4737434921874,334.70837148054926L855.6215944505209,333.4797456089314L857.9625811848958,333.9918565702768L858.0619694427082,333.8447370480428L859.6405028515626,334.26417676107684L860.4928107890624,333.47739831196805L860.8219599114584,333.4620897507287L861.6249312317709,334.0622540953844L862.2941931692708,333.200027128787L862.6924612239584,333.3984718370729L863.2783037604166,333.45710887141803L863.9754516119791,333.28684754463325L864.0438555208333,332.76193140376114L868.6831659244792,331.14078327217464L868.9257972109375,332.63583947723436L869.6398672838541,333.01615157108824L871.13593465625,332.29278367937485L871.1857479557291,332.11142577212496L871.2126805052084,331.93793974760206L872.1131333541667,332.7073752927768L872.4968625989584,333.1281101323344L873.1983005911458,332.7352025351171L876.159689328125,333.1194894012485L878.9551926276041,332.97438715746875L880.2856129036459,332.72252059847017L883.0518002421875,333.6223580418439L883.3602136848958,333.62334178622655L884.0931127083334,333.3416956193951L888.9421633203126,333.2875501329089L891.0581560130208,333.9703372276603L893.7097012604166,332.91865851056497L894.4967037239583,333.73280416023647L896.4680233411459,333.20167294329804L897.8251378255209,333.83713939672765L899.4811321067708,333.35916733161616L901.8566783072918,333.4127264452852L901.9860975494792,333.5724595615679L902.4746968984375,333.2126427702029L902.6844371067708,333.26196326713443L905.5471526093751,332.9426093935841L905.6453491614583,333.60065442742183L913.6235806770833,334.1324139643567L914.3981894010417,332.1344674521128L914.5469142760417,333.2697945875344L918.4754913828126,333.82831748239647L918.9979351744793,334.2207030927692L919.9694136848958,332.38754318804786L920.5218884609375,332.7501704617001L920.9833169192709,332.3403996146415L921.5357916953125,333.4132277357234L922.1056653750001,333.18077068671255L922.1488051223959,333.3233544393218L922.3957265494791,333.474762035453L923.8074211562499,333.91387873383877L924.3103209739584,333.13215347480536L926.4742202369792,333.91418400924994L926.5564479322917,334.35400594512276L928.227696046875,333.42655983125417L930.0400421197917,333.4180528883131L931.6288241979166,333.38098637918625L931.7003265416666,333.9602147981191L932.4611114791667,332.8299175057692L932.881068578125,333.0271825142553L934.66433703125,332.4503273543862L935.2225319947918,331.58595483452467L935.3581481067708,332.69500744687826L936.0445706067709,332.7411821256708L938.5762302578125,333.0978657042642L938.652737765625,333.5798284838897L943.7649170026042,334.15572545098587L944.3035679921876,333.71832141092233L944.5607380885416,333.66888877853984L945.6168277057291,333.0758894776989L945.9953134453125,333.87036102856365L946.4963065338542,333.67956404004883L946.6850727213542,333.0246676659924L948.3758648098958,333.8373482164943L950.9578144427082,333.764443091213L951.26718125,333.70570021731237L953.7163748645834,332.59049273287303L955.776119046875,333.4669696565449L957.4399785859374,333.6546903801631L958.977994,334.2105082347709L959.25542309375,334.49792421112005L959.8133797161458,333.66141471350295L961.6054667916667,334.1343595609451L961.6919846276041,333.67280098632614L963.0543426171876,334.18332789338325L964.12616275,334.5119145459124L964.3068253385417,334.73002730698124L966.770319421875,333.515474557691L967.2131572708333,334.1357475782601L969.9090339713542,333.4074725984013L970.0498935885417,333.56040665015803L970.1457067291666,334.04881618541884L971.9554310494792,333.06301828260126L971.9880837864583,333.8059859314L973.9717971432292,334.2724842450479L975.0779384010417,334.1968779016039L975.7965369557292,333.79316430869886L976.6843577239583,332.03696474792974L979.0293962578124,333.20511661101676L981.482641671875,333.92908667083543L981.8782879739583,334.3715165427768L982.063240703125,334.1340437978042L982.6083269036458,334.40562365693364L983.6746651901041,334.3818035651664L984.4704862760417,334.65375552357574L985.2522452343751,334.7819808586053L986.2966561354167,334.43033093300863L986.3369357890625,334.15641929119045L990.0798451432291,334.25523459799285L991.3015818567709,334.58085747316045L991.8071034270833,334.30780929020847L993.420672984375,334.54998628529177L994.1066188020833,334.38432009667713L994.1750227109375,334.56187969550797L994.1790745104166,334.2241813442686L994.6843577395834,334.4769939194107L995.3324073151042,334.1408185126623L1001.2423143671875,334.4430162759679L1003.9467713489584,333.70309857525194L1005.1253683151041,333.16658031529346L1007.3805522369792,333.4601355916006L1008.004529356771,333.17244691921474L1008.5593875442709,333.4268947262458L1011.3315334114583,334.0687351531702L1012.7058084583334,334.45298671219535L1015.3082554296874,334.6710951661214L1018.4495917317709,334.75978808036433L1019.0840558619791,334.056821183718L1020.7159776875,333.85874228963985L1021.1209192942708,333.897124753824L1021.1859864270834,334.3380674858765L1022.6453492630209,334.2869842043838L1023.9030754895834,333.4764614450436L1024.0753961380208,333.1057279650805L1024.5272909505209,333.70728614465816L1025.143164471354,333.9207351984299L1026.0278868046876,334.2821741988035L1027.2179241458334,333.78081332401774L1028.3934226770832,334.2750256468936L1028.7638048177082,334.28969590674865L1030.287043080729,334.05205200295535L1030.4083587239584,334.3376091219207L1032.070549875,334.5996489258741L1032.3255749010416,334.35918388613595L1033.902201580729,334.62032210856984L1036.5532701458333,334.3893241447496L1037.7778669531249,333.7605946675023L1037.783825481771,333.6305629471769L1038.4275849166665,334.1899423294959L1040.3514746458334,334.44432269491125L1040.4515779270832,334.26921961466826L1041.5524756796874,334.0885390661653L1042.4569803281252,334.25460572400885L1045.4846279036458,333.04967746405447L1047.5067141848958,333.8550745241635L1048.136888174479,334.31578305179323L1050.0896171822917,334.52714075722287L1050.8849615859376,333.7674228406814L1050.9321531328126,333.82557681612724L1051.2157790963543,334.273961595217L1052.7969342578124,333.9389726880682L1057.3242243229167,333.6755460884082L1057.5856845598958,334.1929316304523L1062.5410353229167,332.5518313503784L1064.1658069140624,333.52855647097044L1064.8090896666668,334.0983031363711L1067.1855892317708,333.28493442001866L1067.9397006171876,333.24763028960615L1070.6191317786459,333.30381192283835L1070.6370073645833,333.95150970538106L1071.905935625,334.3608910545879L1071.9252412578126,334.6247355495093L1072.3730842708335,333.9116864007399L1072.7913729817708,333.9253503389109L1074.1627879348957,333.7781462752056L1074.6668794583334,333.2798824922535L1077.2636062421875,333.9858348590461L1081.099468643229,333.68706185428744L1084.3335196510418,334.18270904401027L1085.8867888984375,333.7795736260665L1087.7146271458332,333.92691167995054L1088.1936928489583,333.88086488213304L1089.6192112421875,334.26990762015373L1091.2127601432292,334.07140429010377L1095.1136896770834,334.46925895829713L1097.12910240625,334.3081715024672L1098.3048392786457,334.57280030449857L1098.5755948203125,334.339212664889L1099.4164623828126,334.17751430123195L1099.739176294271,334.48179101102L1101.2123629166667,333.97486268112027L1101.3684763671874,334.41193852147217L1102.9434346588541,334.6738076826652L1104.0214516614583,334.81988005961244L1104.068881549479,334.22850957878813L1107.8105991979166,332.9246567594735L1107.9695727421877,333.1309880135117L1109.9556695104166,333.77955974225273L1115.7137532526042,333.6707923427372L1116.4595226979166,333.2849141493259L1117.8449997786458,333.9208010802232L1118.0823875598958,333.8896464929055L1120.6326378203125,333.970937500994L1121.2296823906252,333.89368354751724L1121.8627164739582,334.3337660051824L1124.0716622135417,334.32408012506875L1126.5091771119792,333.79203844680063L1128.0069128723958,333.59625264531394L1130.9623430807292,334.1029176032447L1131.0846120885417,333.53817715585444L1131.1692231953125,333.3561148782774L1132.7661088723958,333.59758649249125L1134.2748083255208,334.1099661940591L1138.154048815104,333.6156398616371L1139.8152866015625,334.1775745290668L1140.1587361927084,334.51593470373774L1141.6121405000001,334.2825734419721L1142.3662518854167,334.2347727525627L1142.7254319921876,334.53751715469775L1143.0831820520834,334.28907660722206L1145.20727834375,334.5866279205779L1145.7344889583335,334.3267151684276L1148.1903561249999,334.1857580505032L1148.3610083854167,334.52488062111405L1149.9895934348958,334.7504295931493L1150.4886797942709,334.0896414145787L1153.3726076588541,334.09504864229064L1153.384524716146,334.20403982150225L1153.4698508463541,334.24188501133904L1153.6722024791666,333.862572107741L1154.3455162161458,334.32578995048107L1155.462144484375,334.1949073179077L1157.2458896197916,334.03994022346745L1157.70588803125,334.43333184997346L1158.2590778307292,334.4433003321067L1158.5698746848957,334.1373794512927L1162.0546605781249,334.19384842641244L1162.5299128229167,334.15619172465887L1162.7346478671875,334.1671313799143L1163.5664584661458,334.1608187524235L1165.3900065729167,334.45352654895356L1165.8421397265624,334.7001715869828L1165.9403362786459,334.33533465193455L1168.8037668046875,333.9278172378656L1172.5626450156249,334.36379929341L1176.124653440104,333.76675463215656L1176.3374920833335,334.1480241596935L1176.5472322916667,333.5992648795161L1178.1157553723958,333.7904724295324L1183.41527075,334.30792750261475L1186.840233015625,334.6171533283692L1187.0163671223959,334.25982357053505L1187.5943444010416,333.6391073730816L1189.7413214427083,333.8463266148102L1191.7986822135417,334.27726045634114L1191.832288315104,334.5923731607496L1192.177167953125,334.39760079182366L1194.026456903646,334.5434035751537L1194.3117512552083,334.73828630913437L1195.0708678046874,333.8669286110855L1195.7889896770835,333.1398629950133L1195.80233678125,333.918893623989L1196.4923343984376,334.12636471685107L1199.1865427109376,334.4995774913169L1200.3329636223957,334.13378262154885L1201.5291978333332,334.46369368157036L1201.622389221354,334.3985973294699L1207.1287847135416,334.09097237252394L1207.71462725,334.45023995194595L1209.0710267109375,334.45121487337127L1210.8716940677084,334.60260302262566L1213.20600725,333.9906793490802L1215.3415439166668,334.0556866175485L1215.4566626901042,332.9254018969745L1215.7979672109375,333.32529844747944L1220.3874643151041,333.58558229276196L1221.1244151380208,333.28923333805824L1222.7742125494792,332.97045717409384L1223.0504499375,333.4844410318615L1224.9674277734375,333.6589947666378L1226.063320361979,334.19224869683836L1226.396521283854,334.15902746852555L1227.3930256145834,334.24481926409595L1228.2520071041665,333.68327570191025L1228.67625434375,333.9469854568189L1229.2415995416666,334.38592489934797L1229.2635269270834,334.66220960251417L1230.6778432864585,334.1926982469504L1231.3056338645833,334.51489707962935L1231.3964418411458,334.0599494769237L1232.2923662083333,334.1940803771817L1233.6983406276042,334.2433544077748L1234.1247329375,334.560921165311L1237.4567421562501,334.6771995755904L1239.1320420703125,334.8201572018689L1242.8968788098957,334.9210211227787L1243.2939551588543,334.3239685011356L1243.7782643671874,333.9676493484807L1245.1966325260416,334.3922938796375L1246.7613421484375,334.1400637970644L1247.3276407109374,334.5047626996726L1249.2455719114585,334.6879882443006L1249.4834363749999,334.14090136105506L1250.226822408854,334.1693794807146L1250.5979195729167,333.4775924533483L1251.9054590989583,333.81542227809206L1253.0580768802083,334.0256059060471L1253.0964498046876,333.63064783875996L1254.0417107890626,333.87765115288767L1256.2628119270832,333.5223983095215L1257.0603014010417,334.1267901750888L1259.7709552526042,334.4903740923017L1264.3652191796875,334.5918188206438L1266.3601345703125,334.50923223730234L1266.5064760338541,334.67007891591317L1266.8580292239583,334.83287933449293L1270.676969403646,334.91635866567174L1271.5728937708334,334.7108464069773L1272.3372538255207,334.2025815960799L1274.8736802994792,334.0484971517295L1275.3393988984376,334.303515489262L1275.844682127604,334.57267245212785L1278.0145399192709,334.5357598476197L1283.0704706458332,334.71354198245416L1283.9263537005208,334.8367986155183L1286.9823638723958,334.94057623925113L1287.2228500885417,334.9230292765342L1287.7889103098958,334.5434306982907L1288.6176224739584,334.75628098360676L1289.7587998802082,334.89290025196317L1290.13966903125,334.74134015924886L1291.808533734375,334.53974054574246L1292.4889977057292,334.4369857347172L1292.684914127604,334.3325926407555L1292.9604364921875,334.5297073002607L1295.109320263021,334.11047567633574L1296.1256069088543,332.24575707200177L1297.0975621015625,332.9147656393352L1298.3233506145834,333.74299754711296L1298.6532147604166,334.25088363345645L1299.2583629296876,334.5377540885058L1299.276238515625,334.66338521701294L1300.115437690104,334.7864260163343L1301.5111634401042,334.8672006238226L1301.5767072552085,334.8940350436715L1301.9118149062501,334.9230544930836L1303.0608575703125,334.7339418286687L1303.5401616145834,334.53155960737655L1304.0085019661458,334.08768626847325L1304.6951628072916,334.1005601017753L1305.415191408854,334.39833393272323L1312.6800678749998,334.3011329761613L1313.8250587395833,334.0146551999249L1314.1380006640625,333.45176130646337L1315.8471450208333,334.0578346502705L1316.8324473177083,334.4262115945304L1318.1185361406249,334.23940586591794L1320.6890453984374,334.1823251287059L1322.6811006953124,334.00406171169766L1324.036308450521,334.01935807046635L1325.104553466146,333.72432582752106L1325.7328207265625,333.9782779887498L1327.9288960442707,334.351304838973L1328.2823559635417,334.30858696000666L1332.3322487135417,333.5543931134998L1336.0003189479166,333.7953456925536L1338.3455958229165,334.0146361026156L1338.699770765625,334.40498047907874L1338.764361216146,333.8225834651403L1341.6961956510418,334.06539491983244L1341.8742364869793,334.2074378216853L1342.395011890625,334.41774718788724L1342.4057372421876,334.66227983491837L1342.8032902734376,334.57618453957923L1345.7189175104168,334.6119883100321L1345.8235492734375,334.0362670227694L1346.363153627604,334.4303127510622L1346.9258770729166,334.6692307367362L1350.2995959921875,334.57415464890147L1351.595933484375,334.5569142037703L1351.6497985833332,334.4098601667755L1352.1886879140625,334.0026898992833L1352.32096725,333.91613488820377L1354.6638607135417,334.3593990289974L1354.7100988958332,334.63500944346254L1360.2138726354167,334.4563266047314L1365.184238890625,334.7054381537615L1368.1377623697917,334.64490480892215L1374.013109955729,334.8059439243076L1375.6743477421874,334.1323762066372L1379.3014232994792,333.86773848809634L1379.5912461328126,333.22418507478335L1381.0012723515626,333.93244587196824L1383.7731798776042,333.52985429237924L1384.62000596875,334.00330208841183L1388.5278473958333,334.2237201878486L1392.798444046875,334.32433938018846L1392.8194180677083,334.11100154486115L1393.2167327578125,334.47153727421414L1396.7642023723959,334.6382833677017" style="fill: none;" fill="none"></path></g></g></g></g><g opacity="0.2"><g><g><g><path stroke="rgb(255, 112, 67)" stroke-width="2px" d="M120.35918021093751,319.71779570024876L120.83729254947916,296.2048400901258L123.60777002864583,313.6397252825813L125.66012563541666,305.8887237666382L128.33574333854165,295.35171248681013L128.76737915364583,310.29322913992735L130.82879172395835,331.1342421275201L133.76825307552082,302.0182701949444L135.14467319270832,264.30433280600437L140.47016775520834,276.23624788017736L140.59601188020832,322.040342098102L144.06387555208335,280.66896678093406L145.46865826562498,306.30714574973615L146.2995155,310.34197081749636L147.29935660677086,310.3569573033601L147.9362041484375,328.12856199287086L148.65170426822917,320.96482522671835L151.79709236979167,322.0575805555822L153.8237071328125,327.53661043077915L154.7303568515625,310.4643867851959L155.6984985859375,319.5462167246474L157.33471055208335,316.0932468958199L158.56598091145833,311.6275159832504L159.6254073046875,331.35594210111435L160.68245028645833,308.7887365457912L160.99300879947918,329.55888972012326L161.021848078125,316.40229659610327L161.13220002864583,326.1457975393989L162.35846522395835,322.0512284156349L163.44768426041668,302.2404439213375L166.65456437760415,319.11235864160375L169.81544465364584,322.79294047908235L171.23714958854168,314.2105264520893L172.08588240885416,325.95377624024536L173.71399077604167,327.28214690347926L174.41590545052082,320.0072028243707L176.81075728385417,321.52994136263925L177.35679684895834,319.04493115883736L177.52649574479167,328.77508704902397L178.4105030546875,327.37432851859677L179.1040757890625,313.6237673962282L179.5590690364583,310.0433373393284L180.17160578124998,317.0947764052285L181.0072298385417,318.7283228704085L182.33407499739585,312.7830027172135L182.35457233593752,319.7854192186561L184.32398522395832,323.8336332281017L184.36950838281248,318.8102043243125L186.27528418489584,327.5441816978467L190.17454533072916,314.5960768668188L190.2138716197917,324.26050132388866L191.14626218229165,325.56081645852987L193.4162232552083,316.5628195516765L196.02176866145834,326.57467768258516L199.195519359375,321.2893149281541L205.51942498177084,320.7195719609865L206.6024471484375,328.11514525508716L207.55152159114584,325.51868440055597L214.0558514609375,312.23709514819916L214.50965300260418,320.5461584428946L215.15031400260418,302.0175952861706L216.49670313541665,315.07596041220756L217.9813301328125,328.81879421923725L218.941606609375,313.0040138839847L219.67617402083334,318.67148618876104L220.46722828385418,323.1394759000589L221.2089459296875,319.5215162338896L221.55168049739584,323.074509103472L222.28457952083335,323.04702607697493L222.74719968489583,328.777956874265L225.26503554947917,321.676067889875L225.3646621484375,313.87045630605684L226.781123578125,299.3819906980627L228.37276575,314.0666831061244L229.03392408854168,320.1851583224618L229.49082406510414,326.4166446722423L230.19798224479166,281.8455980556706L232.30181953906248,277.9124481897387L232.41813001822916,298.0813751704991L233.093350484375,313.3056825010313L233.43084154687497,319.6772641123583L233.48685171614582,275.8331166770723L233.94136828125002,307.32635747889674L233.9706842421875,277.82474516001014L235.35473127604166,281.2919895044631L235.72582844010415,326.06928609663413L238.72702014843748,263.28738182617553L241.26535335156248,241.59341069393685L241.7515692890625,266.7059079003003L243.46738719791668,298.593412462208L246.2140305625,320.3906270814025L246.5222056640625,324.1858166212009L248.45539069791667,327.64308557990523L248.86343073958332,303.56960067773855L250.72630513541668,303.3170209456649L250.78946553906252,318.6475074212584L252.50647515364582,308.0546971807877L252.530547609375,268.59740800989994L254.32334970833335,324.8846749034193L254.4146343671875,320.95758751283086L259.12497043229166,317.5907524286045L259.6211966979167,327.9934500353411L260.3293082421875,319.48519697402503L261.24620663020835,322.9623689144436L264.3915947317708,319.04021655043795L266.32644815364586,304.51711602860854L268.6338287864583,268.23816928433047L270.56320036197917,314.47692230799134L273.60610177083333,316.15320454289514L273.795344640625,283.5130830692748L274.4641298958333,299.9392351739936L274.8368954479167,203.51379368702567L275.156749265625,208.29427786419785L275.5669343776042,173.97396514647534L276.8742355625,326.38808491267264L278.81623921875,315.1233893336935L279.0815129140625,307.05534454476503L282.1749426458333,326.9613765150619L283.79113395572915,267.7845915762914L284.76642592447917,206.1692905285292L285.3036468671875,287.66635852803785L285.3889729973958,300.6982695708672L286.17287702604165,232.00682701584367L288.41995734895835,255.0891050017542L288.91856702604167,273.13906811012157L291.1253676953125,308.97369666066436L291.3658539114583,288.02260502800345L293.42035458854167,293.15201704121296L294.23977144791667,307.7685826751921L295.4360056588542,239.13674275742636L297.00476708072915,17.509060475561345L297.3374913203125,232.1956220169862L298.20147797395833,218.73508538471327L300.12131590364584,296.5536586923731L300.3498850625,267.04515684230455L301.24247265364585,285.4637293749385L301.72058499218747,295.8560253890852L303.6025266796875,300.30733744137814L305.87725457552085,223.54804320716192L311.911814046875,308.61106973700225L313.02605890364583,310.93541849239006L313.5499327421875,198.2766732556952L314.98307805208333,328.1308739455417L317.48709013020834,97.37018081711398L317.700643796875,246.38482605252L322.30730146354165,201.75943660073807L324.7898628385417,121.25503847002983L325.06014169791666,256.6173949572775L326.85437384374995,68.6637436747551L328.5168033359375,312.81187554862765L328.94557905729164,104.29550947248936L329.88154473697915,261.24939920422105L330.3258126328125,157.50842255685063L330.75387333072916,153.95813712477684L330.91141682812497,175.19302984740995L331.1504729973958,220.17365538660022L332.716135984375,249.95653691225579L332.90633221875,280.2967994560798L333.1639789973959,280.22305104302035L337.41956015625,248.82893210318355L337.6991343203125,321.8259668840716L339.62087897916666,253.56824294394914L339.7240806953125,274.2444555465546L341.37054133072917,-59.087795310550284L345.0436167291667,86.47459401686989L346.00603827604164,-27.854546533690513L347.5359500911459,226.0202769587437L351.66950058333333,326.90140570141375L353.3235881354167,314.4143391487499L353.93779326822914,296.4383273161948L353.9704460052083,216.82233930296366L353.99833191927087,274.242961384356L355.5487410729167,281.7803035577138L356.3283549609375,204.7177919273575L356.9907050052083,319.2468946834819L360.035751484375,221.2840090592702L360.1999685338542,247.18620414783555L364.14689790885416,285.06103120578655L366.3429732265625,285.4542806521058L366.51529387500005,255.62431156055794L366.57011233854166,262.4392984832326L367.38237896354167,231.69057178662882L367.5461193307292,307.4331257061826L370.39048256510415,286.9768904505504L371.264479546875,269.3742397121257L372.8823392447917,320.9545162877896L374.81361754947915,314.1138974612372L375.78581108333333,299.4515999307235L375.90045317447914,285.2381498950223L376.046556296875,318.6562110135952L376.67792199218746,315.266832805963L376.78779726041665,332.5965421949772L376.8266468671875,291.1165467964278L377.1612778359375,321.1677240656896L377.71542099999994,303.3368800388028L381.02145103385413,315.98934995672766L381.7986815104167,320.46451983911294L382.4779537760417,311.88855743284023L384.5176773020833,321.91304864661976L385.2930010494792,318.7028538419141L386.1874953697917,320.8411316137968L386.30738096614584,316.2919860730568L387.428299375,319.6160054128203L390.42138748437503,326.76841648802576L390.8916345651042,311.44179708365766L392.450624,322.8831675896007L395.1755783203125,318.6717105081512L395.8667676432292,305.9500156264338L400.34710450260417,325.2068063253537L401.46945295833336,327.75652389549134L402.13680816666664,326.8491987769181L403.1416544375,320.51564710463083L404.3161996041667,322.4078416290382L405.60443349739586,311.7853236989015L409.6464609895834,321.0418867396398L419.1720032239583,308.1341296521326L419.2218165234375,323.94758065117315L422.378645,317.2982243390547L423.7908162890625,323.53497244148616L423.97195555989583,326.1767389857107L426.1689842421875,323.6899693376488L426.32223759895834,305.2335629016161L427.88146537499995,328.11186141427606L428.9091923958334,326.894653687771L434.82291290625,320.82746666173136L435.6099153697916,325.0091487576978L436.27155039062495,308.50652324698035L437.6236597109375,315.3302157125953L438.3429732890625,329.24433980592426L439.91054300520835,330.3889860615341L440.4689763098958,317.6621094019049L440.6634626848958,324.4467819972584L441.68618454166665,331.7287192333541L442.7305954427083,310.5287254874905L447.60634026302085,314.17387266374294L448.2527214505208,323.61423130912914L448.29633788020834,318.38932555624183L449.9606741015625,333.2173305023203L451.3218403854167,318.62685833374655L451.9903872994792,312.9413214909533L452.43680026562504,333.92337419787265L453.5129105390625,323.52329027776915L454.02462897916666,327.48982179485677L455.1214749322916,331.84895174438134L455.1291018489583,332.42537650346964L456.4425999036458,323.99904439577625L457.04798641406245,327.18227210858214L458.46206443229164,319.96978830070134L461.0604596041667,327.08804967466534L461.11623143229167,328.80356390794947L463.05728172395834,329.9591374437635L464.84484031770836,332.6278196327233L464.9215861666666,322.7271310218299L465.001192109375,321.5488436848132L466.67077183593756,328.84888227656484L466.8988643125,331.2704612963005L467.44109041927084,330.37311790293705L468.24644515104166,328.9011394290978L468.3308179166667,329.03473576779163L469.894812515625,326.4019927148604L471.67331414583333,327.19249814686674L472.5430209869792,332.94646508257006L473.5516807161459,327.238202247303L474.03527490104165,319.4871739105632L476.4241682057292,332.6090141092427L476.8167160729167,326.74721635505557L477.05362717187495,324.6946617504582L477.19544015364585,322.2105829597761L477.9352510703125,330.98656804031793L478.30515652864585,315.39891011226507L478.96726823177084,328.0358756591255L479.1348220572917,320.16886298172176L481.1640585729167,327.1148553541344L482.99785534895835,325.2525430983967L483.14848695312503,320.44382783832646L485.9928501875,329.07912906274817L486.2705176223958,323.3794810673636L486.374672703125,331.0570018905629L486.9412096067709,325.6882942420327L488.425359921875,330.80126023039014L489.16183406249996,324.16376895105674L490.31516686718754,329.78571856151234L492.9547950572917,323.62860920673444L493.367601921875,324.04939922235076L493.87765197395834,323.2114414616177L494.2415989036458,324.08120966247384L496.59474103645834,319.2113273812251L498.55891041927083,328.3471227141304L499.79208750781254,323.9420019254709L500.18916385677085,328.58367433812884L500.62342142447915,325.8453646296014L500.6272348828125,329.5478371136511L504.07889135677084,325.7598267696384L504.7839044661458,320.36893637167907L507.66020541406255,328.1772300351618L508.843569203125,322.1134058493707L511.4257571770833,325.59423029464153L511.6083264947917,328.8180520146464L512.0428224036458,325.305598535368L512.879161484375,321.41244871790207L513.0510054505208,323.68162465633617L513.2328597447917,331.07534048835646L513.6063403203125,325.2924066046253L514.8373723385416,331.59751872327695L517.4002546796875,326.52798023737137L517.4812906692708,326.0284316838822L517.895765921875,325.1052306042984L518.3650596380209,321.3657805317392L518.9547156328125,332.2584682476914L521.1341070703126,325.9666326672046L522.25311875,331.3047753358777L523.3778506171875,333.48175015316036L523.647414453125,329.90509548912655L524.2668630911459,328.3571151676588L527.1529360260416,329.3307193512511L528.1001037395833,329.7739091209239L530.1419723359375,329.88694707516373L531.1434818307291,326.5833598182847L531.7405264010416,323.2610921203676L531.9702872656251,322.3490777512391L532.2117268463542,334.00709251060874L533.041392375,328.4267234250179L534.7133555130208,330.77248297854226L534.9531267057291,330.1179745903549L535.1442763046875,331.92305370430563L535.4717570390625,329.71185457520187L536.4387070677084,332.1509358715266L538.988957328125,328.7738903538427L539.1395889322916,329.0675098059906L539.8210062682291,329.8589222685744L543.3587038958333,327.21089623806375L544.3942961744792,330.0000962137969L545.9721145598958,330.660653423104L547.9853822187499,321.2082302957359L551.0151748645834,331.92344675088924L551.1860654661458,329.0914310306931L556.1497581692709,328.52222789301436L557.62389815625,332.06344521374234L561.6204024895833,334.6040343866981L563.0540244817709,331.99678943844305L563.7447371223958,334.77342176795355L565.0627636588542,324.5486454323141L566.1252884869792,334.3725023357482L568.8774136979167,327.37796200506597L570.7967749453124,332.09644503428393L572.5907687499999,330.00737879156236L573.0986737317709,333.4536935273532L575.9864150546874,334.87807282860416L576.507667140625,334.79236099920104L577.3375710104167,332.1853225710802L581.00802465625,326.8796379428564L582.2597923541666,332.37424728734834L583.6428860234375,334.81989361369375L583.8657349947918,331.74986816298525L584.0928741067709,334.4440326689251L584.3888938098958,332.2191592004771L584.7688095963541,331.92854197077554L585.3091289739583,332.58637979512827L586.2727422265625,332.691209122642L587.40319428125,334.67253366507225L588.6089621380208,333.78515017454305L590.2230083776042,330.16178660550054L590.746643875,331.88409210832066L591.6654489921875,332.719806431327L591.9290542994792,334.85437531372816L592.62572546875,334.8434721417628L592.764440015625,328.3412967494482L593.5383337161459,330.1780009961997L593.5976806614584,327.4980084772946L596.7182812838541,332.70824861857625L597.2211811015625,334.50664776929705L598.7305955781251,332.82627280273783L599.5838568802084,333.3657653248455L601.45197478125,327.04724061344234L601.6612383072917,332.22743975570324L603.3341548098958,334.32240895098465L606.6053870364584,334.88234678350597L607.9293721015624,334.62148460655914L610.2746489765625,331.8638687399992L613.5239538177084,329.25343937074973L613.5720987291667,327.71778247386425L613.7639633515626,331.6567839061479L614.1724800755209,330.9395697145309L617.7995556328125,333.1794406409867L617.8877418567708,334.5966053917655L617.9551924010417,334.62116336656294L619.6869791666667,333.1229898130728L622.1306909348958,334.8704180513289L623.2396922864583,329.6155225637162L624.2476369921875,331.0048325151826L625.6719636796875,332.2345611648634L627.1794714270833,331.0235934186106L628.778740515625,330.03146728050586L629.2606663125,334.8184233768649L632.4329869635417,331.71689857679627L633.3954085104167,332.7181657300486L633.5834596744792,332.4925450436357L633.9037901744791,328.9185349101511L635.6324785052084,334.84799364042635L640.48081409375,332.838819815234L640.8545330104166,332.280668552551L641.1839204739583,334.47840266643715L641.6467789791667,332.6954555862273L644.4341786796875,334.7636556148969L645.9900696796875,330.2773608318013L646.0358311796875,332.36820090448276L649.3216022161458,333.00298405969L650.363868046875,334.8336923649606L652.1793125546875,334.65054329390273L652.2093435390625,328.8133764183149L653.2630497447916,331.5002072650629L655.3845242838541,334.8797591709542L656.4365621015625,334.97969281921297L657.924525875,334.19874709632455L659.3908006041667,330.0677811762111L659.988083515625,332.81856426195657L660.5481852083334,328.3637925707218L661.6636217708334,327.52355114106706L662.4844686770833,330.4732335973531L664.5344408723959,334.6475109894948L665.7220948020833,332.842415264937L665.8586642786458,334.7346496548012L667.5091767135417,327.17279315139683L669.00166896875,329.07800941640096L670.6617150494792,332.76497265287776L670.7673001770834,331.2546223967543L672.5632007109375,331.027723821294L673.3392394817708,334.7635858808256L675.1656476822916,330.09482482929405L675.2640825755209,333.110971414096L675.9276243255208,334.8613677697172L676.141893015625,334.64110161152917L677.8131411302084,332.30473363425375L677.8303016927083,332.2894608973422L678.8792410755208,330.79250348411085L679.2081518567708,330.5567501445508L680.4136813723959,334.774136694575L681.3105591041666,332.7238132145204L683.2222934348958,334.9838956685255L683.3500442890625,331.3196343010447L684.524827796875,325.19940866198806L688.6018914375001,329.0833423660757L690.2659893177083,334.95515115024074L691.9441493255208,333.0215552669381L692.5719399036458,334.2565472541351L692.8131411432292,334.8765796417073L692.8686746302084,328.58130923151555L693.8432515755209,334.8970491213161L695.590530515625,327.1352508632052L695.7986023359375,328.7378978200464L696.056725796875,332.49988906540807L697.920076875,332.68708774149934L697.9996828177083,334.661223517996L701.1212368046876,334.99387222768405L701.6412971848958,334.89916378874074L701.7442605598958,330.90457588967143L703.0908880338542,332.6448413294016L704.047827734375,331.8222631011158L707.0633199114583,331.3380345866705L707.3865105052083,334.8168325683639L708.1551607005208,327.9316012782769L709.54063778125,333.1199641833858L709.78088565625,331.9385668530853L710.8927471015625,330.82700136805784L714.0150161119792,330.05021014085247L715.1073335833333,332.42963515832605L716.4272668489583,331.80957101249237L718.242473015625,334.67373999135776L719.2089463619792,332.0592492220199L720.2783830833334,335.0611206206765L720.5131491119791,328.95047360244723L721.2603486041667,332.8146988975091L722.3345521484374,331.2502664555537L723.6061021614584,334.3530639024232L723.7748476927082,328.46915343766L724.228887575521,334.5613211098696L724.2639237239583,334.9546543711783L724.6040365390625,333.12925368821664L724.6045132213542,334.7825986254385L726.4881232968751,334.8874798572894L727.3692705130209,334.8447448799982L728.2592363515624,334.8808679518309L730.7182019531249,333.1944235913818L731.9904669895833,333.1745324352006L732.2926835625,329.7494812269902L732.3868283151041,333.7974106921659L732.8105988723958,332.8102893147152L733.200763328125,331.3219728306867L733.3042033854167,330.5142352806611L733.975848734375,334.2331476939273L739.0961315703124,334.7532059886984L739.7734971067708,334.9635031767943L741.95122015625,334.7555439392551L742.1979032421875,334.96040145833587L743.8953688828125,334.4759784931149L744.4461752708332,334.7197115073278L747.195202046875,333.2771400254504L747.2559790390626,333.27511139792233L747.5052838776041,331.9956249282178L747.77437103125,330.9307880980584L748.1452298541667,331.767764705285L748.9346157291667,334.58793337482103L749.1260036692707,330.367390931377L749.8562809401042,331.76756745051694L750.0076275677084,333.0834957023617L750.9614688333332,327.71253291248445L751.8554864713541,333.00136335209635L752.2275370000001,334.97994272503354L752.5512042760417,333.1984275705828L752.9575759296876,334.37055776703505L753.2633676197917,331.3928319124712L753.5982369296876,334.7808145243325L758.0587914739583,331.04036080537156L759.5253045442709,329.2930024840558L760.4081201484374,334.9352155721151L760.7644401614583,333.60873236148876L761.6005409010418,333.1148008142934L762.6995319244792,334.9666179246738L763.6359742864583,332.5482691498732L764.8903637369791,334.41163753543515L765.5896566588542,329.5353288693974L767.3145315312499,330.27204251165193L767.4153498359375,329.5842456136209L769.6879326614584,334.67280738958897L769.9551130859375,333.18884766967193L769.970128578125,334.965975368486L770.7475973958334,323.4550835289475L773.9022808020833,330.20000136421163L777.1201246119791,332.8660663310697L781.5430212552083,331.14850664630325L781.6953212473958,333.6597063827277L782.8121878567708,331.81836872144294L783.5064756145833,319.5981944532444L783.7626923463541,326.62533095147876L785.1641382838541,331.77898750190315L786.3761030104166,332.81013180349123L786.6323197421875,334.71052968189986L787.5244306510416,334.8444204702715L788.5109246536458,332.03075041880624L788.74807409375,333.3138006409087L788.8805917708332,333.0384384707755L790.0058003203126,333.4105556895051L790.9348541067709,334.9064486371305L791.9606743984375,333.19178540029355L792.576309578125,330.1347570942922L793.1356962473958,333.50950163144927L793.8936210911459,326.5513094539443L794.1648533151041,331.3275144949245L794.2921274869791,332.44602729775943L795.1913886302083,332.8168301755407L795.3084141328125,328.2622748801174L798.0572025677083,334.64395531381405L800.4134431354166,333.02912750930733L801.7448167760417,332.26916998937827L801.7505369635417,333.10073842678685L802.7563365989583,333.4325321626254L802.8795589713542,330.93492337725024L803.3469459583333,333.1755606470138L803.3486143463542,332.46223608047393L804.6089623255208,332.1909012967824L805.1128155078126,332.9713169889162L805.5275291015625,333.0620046856606L806.547867546875,332.7078163160994L806.7166130781251,334.9539188717867L807.3308182109375,335.01828465394243L807.4580923828125,334.5371597171244L807.7510136510417,330.57810193693473L808.334234434896,334.84544871256287L812.9802183906249,334.8418829790834L813.8253760937499,332.14189092359607L814.8099633671875,334.99654027976715L815.0270921510416,334.6276304397195L815.0752370625,334.9334195540416L817.1762142630208,334.8503780092481L820.2026701328126,331.6226810193879L820.7978079739584,334.869879075229L821.6558360989583,332.95840253150607L824.4599196796876,333.78907808021177L826.971797015625,332.1558947930009L828.0898553307292,330.557259739687L828.6375632838542,335.01683377837617L828.9235726588543,332.94558853017065L830.2141899635416,333.5410282587788L830.3243035729167,333.2848663654877L831.9107022395833,333.4124971494441L832.0734892421875,333.27964155238845L832.3182655989583,333.582673763119L832.9567815286458,334.88346868523837L833.4861372135417,333.2300881799828L833.85175253125,333.6013281148367L836.4024794739582,331.7593958852554L842.3278787005208,333.6476411692695L843.0886636380209,333.74918763127386L843.2402486067708,333.57269654867963L845.8774933854168,335.02704318319513L846.2369118333334,334.965987361649L850.8097250572916,334.8603279304791L854.4737434921874,334.85353533514234L855.6215944505209,331.63680680150475L857.9625811848958,334.7600230122949L858.0619694427082,333.62405776469194L859.6405028515626,334.8933363306278L860.4928107890624,332.29723063830494L860.8219599114584,333.4391269088697L861.6249312317709,334.9625006123679L862.2941931692708,331.906686678891L862.6924612239584,333.6961388995017L863.2783037604166,333.54506442293575L863.9754516119791,333.03145555445616L864.0438555208333,331.9745571924529L868.6831659244792,328.709061074795L868.9257972109375,334.8784237848239L869.6398672838541,333.5866197118691L871.13593465625,331.2077318418047L871.1857479557291,331.8393889112501L871.2126805052084,331.67771071081773L872.1131333541667,333.861528610539L872.4968625989584,333.75921239167087L873.1983005911458,332.1458411392911L876.159689328125,333.69591970044553L878.9551926276041,332.7567337917992L880.2856129036459,332.3447207599723L883.0518002421875,334.9721142069045L883.3602136848958,333.62481740280055L884.0931127083334,332.9192263691479L888.9421633203126,333.2063319031796L891.0581560130208,334.9945178697874L893.7097012604166,331.341140434922L894.4967037239583,334.95402263474375L896.4680233411459,332.4049761178903L897.8251378255209,334.79033907687216L899.4811321067708,332.64220923394896L901.8566783072918,333.49306511578874L901.9860975494792,333.8120592359919L902.4746968984375,332.67291758315537L902.6844371067708,333.3359440125318L905.5471526093751,332.4635785832587L905.6453491614583,334.5877219781784L913.6235806770833,334.930053269759L914.3981894010417,329.13754768374685L914.5469142760417,334.97278529066693L918.4754913828126,334.66610182468946L918.9979351744793,334.80928150832835L919.9694136848958,329.63780333096577L920.5218884609375,333.29411137217863L920.9833169192709,331.7257433440536L921.5357916953125,335.0224699173462L922.1056653750001,332.83208511319634L922.1488051223959,333.53723006823566L922.3957265494791,333.70187342964994L923.8074211562499,334.5725537814174L924.3103209739584,331.9595655862552L926.4742202369792,335.0872298109168L926.5564479322917,335.0137388489319L928.227696046875,332.0353906604513L930.0400421197917,333.40529247390157L931.6288241979166,333.3253866154959L931.7003265416666,334.8290574265185L932.4611114791667,331.1344715672442L932.881068578125,333.3230800269844L934.66433703125,331.5850446145826L935.2225319947918,330.2893960547323L935.3581481067708,334.35858636540877L936.0445706067709,332.81044414385946L938.5762302578125,333.63289107215434L938.652737765625,334.30277265332796L943.7649170026042,335.0195709016302L944.3035679921876,333.062215350827L944.5607380885416,333.59473982996616L945.6168277057291,332.1863905264375L945.9953134453125,335.0620683548607L946.4963065338542,333.39336855727663L946.6850727213542,332.04232310490784L948.3758648098958,335.0563690422471L950.9578144427082,333.6550854032911L951.26718125,333.6175859064614L953.7163748645834,330.917681506214L955.776119046875,334.78168504205274L957.4399785859374,333.93627146559044L958.977994,335.04423501668253L959.25542309375,334.9290481756438L959.8133797161458,332.40665046707727L961.6054667916667,334.84377683210835L961.6919846276041,332.9804631243977L963.0543426171876,334.94911825396895L964.12616275,335.0047945247061L964.3068253385417,335.0571964485846L966.770319421875,331.6936454337556L967.2131572708333,335.0661571091138L969.9090339713542,332.3150601286131L970.0498935885417,333.78980772779323L970.1457067291666,334.78143048831004L971.9554310494792,331.5843214283749L971.9880837864583,334.9204374045981L973.9717971432292,334.97223171551985L975.0779384010417,334.08346838643774L975.7965369557292,333.18759391934145L976.6843577239583,329.40266540677595L979.0293962578124,334.95734440564735L981.482641671875,335.01504176056346L981.8782879739583,335.03516135068884L982.063240703125,333.77783468034534L982.6083269036458,334.8129934456277L983.6746651901041,334.34607342751565L984.4704862760417,335.0616834611897L985.2522452343751,334.9743188611497L986.2966561354167,333.90285604461354L986.3369357890625,333.74555182846314L990.0798451432291,334.40345755819646L991.3015818567709,335.06929178591196L991.8071034270833,333.89823701578035L993.420672984375,334.91325177791686L994.1066188020833,334.1358208137551L994.1750227109375,334.8282190937542L994.1790745104166,333.7176338174096L994.6843577395834,334.8562127821238L995.3324073151042,333.63655540253967L1001.2423143671875,334.8963129209264L1003.9467713489584,332.5932220241779L1005.1253683151041,332.36180292535573L1007.3805522369792,333.90046850606126L1008.004529356771,332.74091391063604L1008.5593875442709,333.80856643679243L1011.3315334114583,335.0314957935568L1012.7058084583334,335.029364050733L1015.3082554296874,334.9982578470105L1018.4495917317709,334.8928274517287L1019.0840558619791,333.0023708387485L1020.7159776875,333.56162394852277L1021.1209192942708,333.9546984501002L1021.1859864270834,334.9994815839552L1022.6453492630209,334.21035928214485L1023.9030754895834,332.26067730603324L1024.0753961380208,332.549627745136L1024.5272909505209,334.6096234140245L1025.143164471354,334.2409087790875L1026.0278868046876,334.824332699364L1027.2179241458334,333.02877201183907L1028.3934226770832,335.0163441312074L1028.7638048177082,334.31170129653117L1030.287043080729,333.69558614726543L1030.4083587239584,334.76594480036874L1032.070549875,334.99270863180413L1032.3255749010416,333.9984863265288L1033.902201580729,335.0120294422207L1036.5532701458333,334.0428271990192L1037.7778669531249,332.8175004516314L1037.783825481771,333.43551536668866L1038.4275849166665,335.0290114029744L1040.3514746458334,334.8258932430342L1040.4515779270832,334.0065649943038L1041.5524756796874,333.8175182434109L1042.4569803281252,334.5037057107741L1045.4846279036458,331.2422850741229L1047.5067141848958,335.0631701143272L1048.136888174479,335.00684584323767L1050.0896171822917,334.84417731536735L1050.8849615859376,332.6278459658691L1050.9321531328126,333.9128077792961L1051.2157790963543,334.9465387638516L1052.7969342578124,333.43648932734504L1057.3242243229167,333.2804061889183L1057.5856845598958,334.96900994351824L1062.5410353229167,330.0901809302676L1064.1658069140624,334.99364415185846L1064.8090896666668,334.95292313447214L1067.1855892317708,332.06488134549L1067.9397006171876,333.1916740939875L1070.6191317786459,333.38808437268665L1070.6370073645833,334.92305637919503L1071.905935625,334.9749630783982L1071.9252412578126,335.02050229189143L1072.3730842708335,332.84211267758576L1072.7913729817708,333.9458462461674L1074.1627879348957,333.5573401796476L1074.6668794583334,332.5324868178254L1077.2636062421875,335.0447634092351L1081.099468643229,333.2389023471494L1084.3335196510418,334.9261798285944L1085.8867888984375,333.17487049915104L1087.7146271458332,334.1479187607765L1088.1936928489583,333.8117946854068L1089.6192112421875,334.8534717271848L1091.2127601432292,333.7736492950288L1095.1136896770834,335.0660409605872L1097.12910240625,334.06654031872233L1098.3048392786457,334.9697435075456L1098.5755948203125,333.98883120547464L1099.4164623828126,333.93496675574636L1099.739176294271,334.938206075702L1101.2123629166667,333.2144701862708L1101.3684763671874,335.06755228199995L1102.9434346588541,335.0666114244547L1104.0214516614583,335.0389886250333L1104.068881549479,333.34145385755176L1107.8105991979166,330.9688775305015L1107.9695727421877,333.44048489456895L1109.9556695104166,334.7524173353643L1115.7137532526042,333.5076412434638L1116.4595226979166,332.706096859209L1117.8449997786458,334.87463147656916L1118.0823875598958,333.842914611929L1120.6326378203125,334.0928740131268L1121.2296823906252,333.7778026173021L1121.8627164739582,334.99388969168L1124.0716622135417,334.30955130489826L1126.5091771119792,332.9939759293985L1128.0069128723958,333.3025739430838L1130.9623430807292,334.86291504014093L1131.0846120885417,332.69106648476895L1131.1692231953125,333.0830214619119L1132.7661088723958,333.95979391381195L1134.2748083255208,334.8785357464108L1138.154048815104,332.87415036300405L1139.8152866015625,335.02047653021145L1140.1587361927084,335.02347496574413L1141.6121405000001,333.93253154932364L1142.3662518854167,334.1630717184485L1142.7254319921876,334.9916337579004L1143.0831820520834,333.91641578600843L1145.20727834375,335.0329548906116L1145.7344889583335,333.9368460402022L1148.1903561249999,333.9743223736166L1148.3610083854167,335.0335644770304L1149.9895934348958,335.0887530512021L1150.4886797942709,333.09845914672286L1153.3726076588541,334.10315948385846L1153.384524716146,334.36752659031964L1153.4698508463541,334.29865279609413L1153.6722024791666,333.29360275234404L1154.3455162161458,335.0206167145912L1155.462144484375,333.9985833690476L1157.2458896197916,333.8074895818071L1157.70588803125,335.0234192897325L1158.2590778307292,334.45825305530644L1158.5698746848957,333.67849813007183L1162.0546605781249,334.27855188909194L1162.5299128229167,334.09970667202856L1162.7346478671875,334.1835408627974L1163.5664584661458,334.1513498111874L1165.3900065729167,334.8925882437486L1165.8421397265624,335.07013914402665L1165.9403362786459,333.78807924936217L1168.8037668046875,333.31654111676227L1172.5626450156249,335.0177723767265L1176.124653440104,332.87118764027645L1176.3374920833335,334.71992845099885L1176.5472322916667,332.77612595925007L1178.1157553723958,334.07728375455673L1183.41527075,335.0841101122383L1186.840233015625,335.0809920670009L1187.0163671223959,333.7238289337838L1187.5943444010416,332.7080330769014L1189.7413214427083,334.157155477403L1191.7986822135417,334.92366121863756L1191.832288315104,335.06504221736236L1192.177167953125,334.10544223843476L1194.026456903646,334.7621077501487L1194.3117512552083,335.0306104101053L1195.0708678046874,332.55989206401216L1195.7889896770835,332.0492645709051L1195.80233678125,335.0874395674525L1196.4923343984376,334.4375713561442L1199.1865427109376,335.0593966530157L1200.3329636223957,333.58509031689675L1201.5291978333332,334.95856027160255L1201.622389221354,334.3009528013192L1207.1287847135416,333.62953493710506L1207.71462725,334.98914132107893L1209.0710267109375,334.45267725550934L1210.8716940677084,334.8296852465072L1213.20600725,333.07279383876204L1215.3415439166668,334.15319752025084L1215.4566626901042,331.2299748161135L1215.7979672109375,333.92514327323687L1220.3874643151041,333.9760080606858L1221.1244151380208,332.8447099060027L1222.7742125494792,332.4922929281472L1223.0504499375,334.25541681851286L1224.9674277734375,333.92082536880235L1226.063320361979,334.99212959213924L1226.396521283854,334.10919562605625L1227.3930256145834,334.37350695745164L1228.2520071041665,332.8409603586317L1228.67625434375,334.3425500891818L1229.2415995416666,335.04433406314155L1229.2635269270834,335.0766366572635L1230.6778432864585,333.4884312136047L1231.3056338645833,334.99819532864785L1231.3964418411458,333.3775280728652L1232.2923662083333,334.3952767275688L1233.6983406276042,334.31726545366433L1234.1247329375,335.03727130161536L1237.4567421562501,334.8516171910095L1239.1320420703125,335.0345936412866L1242.8968788098957,335.07231700414354L1243.2939551588543,333.42838956867087L1243.7782643671874,333.4331706194983L1245.1966325260416,335.02926067637276L1246.7613421484375,333.7617186732047L1247.3276407109374,335.05181105358497L1249.2455719114585,334.96282656124254L1249.4834363749999,333.3202710361867L1250.226822408854,334.21209666020394L1250.5979195729167,332.43991191229884L1251.9054590989583,334.32216701520764L1253.0580768802083,334.34088134797963L1253.0964498046876,333.0382107378294L1254.0417107890626,334.2481561240792L1256.2628119270832,332.98951904447233L1257.0603014010417,335.0333779734396L1259.7709552526042,335.0357499681211L1264.3652191796875,334.7439859131571L1266.3601345703125,334.38535236229006L1266.5064760338541,334.9113489338294L1266.8580292239583,335.07707996236263L1270.676969403646,335.0415776624399L1271.5728937708334,334.40257801893557L1272.3372538255207,333.4401843797338L1274.8736802994792,333.817370485204L1275.3393988984376,334.68604299556074L1275.844682127604,334.97640789642657L1278.0145399192709,334.48039094085755L1283.0704706458332,334.98021518470586L1283.9263537005208,335.0216835651146L1286.9823638723958,335.0962426748504L1287.2228500885417,334.89670883245867L1287.7889103098958,333.9740328309256L1288.6176224739584,335.0755564115809L1289.7587998802082,335.0978291544977L1290.13966903125,334.5140000201775L1291.808533734375,334.23734112548277L1292.4889977057292,334.28285351817937L1292.684914127604,334.1760029998129L1292.9604364921875,334.82537928951854L1295.109320263021,333.48162824044834L1296.1256069088543,329.4486791655007L1297.0975621015625,333.91827849033547L1298.3233506145834,334.9853454087796L1298.6532147604166,335.0127127629716L1299.2583629296876,334.9680597710798L1299.276238515625,334.8518319097736L1300.115437690104,334.9709872153164L1301.5111634401042,334.988362535055L1301.5767072552085,334.93428667344494L1301.9118149062501,334.96658366720175L1303.0608575703125,334.45027283204644L1303.5401616145834,334.2279862754383L1304.0085019661458,333.42187626011827L1304.6951628072916,334.1198708517283L1305.415191408854,334.8449946791451L1312.6800678749998,334.15533154131845L1313.8250587395833,333.58493853557025L1314.1380006640625,332.60742046627115L1315.8471450208333,334.96694466598115L1316.8324473177083,334.9787770109203L1318.1185361406249,333.9591972729993L1320.6890453984374,334.0967040228877L1322.6811006953124,333.7366665861854L1324.036308450521,334.04230260861937L1325.104553466146,333.28177746310314L1325.7328207265625,334.3592062305931L1327.9288960442707,334.91084511430785L1328.2823559635417,334.24451014155704L1332.3322487135417,332.4231023437395L1336.0003189479166,334.15677456113434L1338.3455958229165,334.3435717177086L1338.699770765625,334.9904970437735L1338.764361216146,332.9489879442327L1341.6961956510418,334.4296121018706L1341.8742364869793,334.42050217446456L1342.395011890625,334.73321123719023L1342.4057372421876,335.0290788054651L1342.8032902734376,334.44704159657056L1345.7189175104168,334.6656939657114L1345.8235492734375,333.1726850918753L1346.363153627604,335.02138134350145L1346.9258770729166,335.02760771524726L1350.2995959921875,334.4315405171494L1351.595933484375,334.53105353607356L1351.6497985833332,334.1892791112833L1352.1886879140625,333.3919344980451L1352.32096725,333.7863023715844L1354.6638607135417,335.02429524018794L1354.7100988958332,335.0484250651603L1360.2138726354167,334.1883023466346L1365.184238890625,335.07910547730677L1368.1377623697917,334.5541047916631L1374.013109955729,335.0475025973857L1375.6743477421874,333.1220246301317L1379.3014232994792,333.4707819102849L1379.5912461328126,332.2588549548139L1381.0012723515626,334.9948370677456L1383.7731798776042,332.9259669229957L1384.62000596875,334.7134737824607L1388.5278473958333,334.5543473370037L1392.798444046875,334.4752681686983L1392.8194180677083,333.7909947918702L1393.2167327578125,335.0123408682436L1396.7642023723959,334.88840250793305" style="fill: none;" fill="none"></path></g></g></g></g></g></g><g transform="translate(61, 377)" clip-path="url(#clip_1)"><clipPath id="clip_1"><rect width="1430" height="23"></rect></clipPath><g><g><line x1="0" y1="0" x2="0" y2="5" style="visibility: inherit;" fill="rgb(0, 0, 0)" stroke="rgb(204, 204, 204)" stroke-width="1px"></line><line x1="119.17057291666666" y1="0" x2="119.17057291666666" y2="5" style="visibility: inherit;" fill="rgb(0, 0, 0)" stroke="rgb(204, 204, 204)" stroke-width="1px"></line><line x1="238.34114583333331" y1="0" x2="238.34114583333331" y2="5" style="visibility: inherit;" fill="rgb(0, 0, 0)" stroke="rgb(204, 204, 204)" stroke-width="1px"></line><line x1="357.51171875" y1="0" x2="357.51171875" y2="5" style="visibility: inherit;" fill="rgb(0, 0, 0)" stroke="rgb(204, 204, 204)" stroke-width="1px"></line><line x1="476.68229166666663" y1="0" x2="476.68229166666663" y2="5" style="visibility: inherit;" fill="rgb(0, 0, 0)" stroke="rgb(204, 204, 204)" stroke-width="1px"></line><line x1="595.8528645833334" y1="0" x2="595.8528645833334" y2="5" style="visibility: inherit;" fill="rgb(0, 0, 0)" stroke="rgb(204, 204, 204)" stroke-width="1px"></line><line x1="715.0234375" y1="0" x2="715.0234375" y2="5" style="visibility: inherit;" fill="rgb(0, 0, 0)" stroke="rgb(204, 204, 204)" stroke-width="1px"></line><line x1="834.1940104166667" y1="0" x2="834.1940104166667" y2="5" style="visibility: inherit;" fill="rgb(0, 0, 0)" stroke="rgb(204, 204, 204)" stroke-width="1px"></line><line x1="953.3645833333333" y1="0" x2="953.3645833333333" y2="5" style="visibility: inherit;" fill="rgb(0, 0, 0)" stroke="rgb(204, 204, 204)" stroke-width="1px"></line><line x1="1072.53515625" y1="0" x2="1072.53515625" y2="5" style="visibility: inherit;" fill="rgb(0, 0, 0)" stroke="rgb(204, 204, 204)" stroke-width="1px"></line><line x1="1191.7057291666667" y1="0" x2="1191.7057291666667" y2="5" style="visibility: inherit;" fill="rgb(0, 0, 0)" stroke="rgb(204, 204, 204)" stroke-width="1px"></line><line x1="1310.8763020833333" y1="0" x2="1310.8763020833333" y2="5" style="visibility: inherit;" fill="rgb(0, 0, 0)" stroke="rgb(204, 204, 204)" stroke-width="1px"></line><line x1="1430.046875" y1="0" x2="1430.046875" y2="5" style="visibility: inherit;" fill="rgb(0, 0, 0)" stroke="rgb(204, 204, 204)" stroke-width="1px"></line></g><g transform="translate(0, 8)"><text x="0" y="0" dx="0em" dy="0.95em" style="text-anchor: middle; visibility: hidden; font-family: Roboto, sans-serif; font-size: 12px; font-weight: 200;" fill="rgb(33, 33, 33)" stroke="none" stroke-width="1px">-2M</text><text x="119.17057291666666" y="0" dx="0em" dy="0.95em" style="text-anchor: middle; visibility: inherit; font-family: Roboto, sans-serif; font-size: 12px; font-weight: 200;" fill="rgb(33, 33, 33)" stroke="none" stroke-width="1px">0</text><text x="238.34114583333331" y="0" dx="0em" dy="0.95em" style="text-anchor: middle; visibility: inherit; font-family: Roboto, sans-serif; font-size: 12px; font-weight: 200;" fill="rgb(33, 33, 33)" stroke="none" stroke-width="1px">2M</text><text x="357.51171875" y="0" dx="0em" dy="0.95em" style="text-anchor: middle; visibility: inherit; font-family: Roboto, sans-serif; font-size: 12px; font-weight: 200;" fill="rgb(33, 33, 33)" stroke="none" stroke-width="1px">4M</text><text x="476.68229166666663" y="0" dx="0em" dy="0.95em" style="text-anchor: middle; visibility: inherit; font-family: Roboto, sans-serif; font-size: 12px; font-weight: 200;" fill="rgb(33, 33, 33)" stroke="none" stroke-width="1px">6M</text><text x="595.8528645833334" y="0" dx="0em" dy="0.95em" style="text-anchor: middle; visibility: inherit; font-family: Roboto, sans-serif; font-size: 12px; font-weight: 200;" fill="rgb(33, 33, 33)" stroke="none" stroke-width="1px">8M</text><text x="715.0234375" y="0" dx="0em" dy="0.95em" style="text-anchor: middle; visibility: inherit; font-family: Roboto, sans-serif; font-size: 12px; font-weight: 200;" fill="rgb(33, 33, 33)" stroke="none" stroke-width="1px">10M</text><text x="834.1940104166667" y="0" dx="0em" dy="0.95em" style="text-anchor: middle; visibility: inherit; font-family: Roboto, sans-serif; font-size: 12px; font-weight: 200;" fill="rgb(33, 33, 33)" stroke="none" stroke-width="1px">12M</text><text x="953.3645833333333" y="0" dx="0em" dy="0.95em" style="text-anchor: middle; visibility: inherit; font-family: Roboto, sans-serif; font-size: 12px; font-weight: 200;" fill="rgb(33, 33, 33)" stroke="none" stroke-width="1px">14M</text><text x="1072.53515625" y="0" dx="0em" dy="0.95em" style="text-anchor: middle; visibility: inherit; font-family: Roboto, sans-serif; font-size: 12px; font-weight: 200;" fill="rgb(33, 33, 33)" stroke="none" stroke-width="1px">16M</text><text x="1191.7057291666667" y="0" dx="0em" dy="0.95em" style="text-anchor: middle; visibility: inherit; font-family: Roboto, sans-serif; font-size: 12px; font-weight: 200;" fill="rgb(33, 33, 33)" stroke="none" stroke-width="1px">18M</text><text x="1310.8763020833333" y="0" dx="0em" dy="0.95em" style="text-anchor: middle; visibility: inherit; font-family: Roboto, sans-serif; font-size: 12px; font-weight: 200;" fill="rgb(33, 33, 33)" stroke="none" stroke-width="1px">20M</text><text x="1430.046875" y="0" dx="0em" dy="0.95em" style="text-anchor: middle; visibility: hidden; font-family: Roboto, sans-serif; font-size: 12px; font-weight: 200;" fill="rgb(33, 33, 33)" stroke="none" stroke-width="1px">22M</text></g><line x1="0" y1="0" x2="1430.046875" y2="0" fill="rgb(0, 0, 0)" stroke="rgb(204, 204, 204)" stroke-width="1px"></line></g></g></g></g></svg>